<svg width="905" height="640.0000000000002" xmlns="http://www.w3.org/2000/svg" xmlns:svg="http://www.w3.org/2000/svg" xmlns:xlink="http://www.w3.org/1999/xlink">
 <!-- Created with SVG-edit - http://svg-edit.googlecode.com/ -->
 <title>India in Transformation and Vision for Science</title>
 <defs>
  <marker id="se_marker_mid_svg_36" markerUnits="strokeWidth" orient="auto" viewBox="0 0 100 100" markerWidth="5" markerHeight="5" refX="50" refY="50">
   <path stroke="#000000" id="svg_1" d="m100,50l-100,40l30,-40l-30,-40l100,40z" fill="#000000" stroke-width="10"/>
  </marker>
  <marker id="se_marker_mid_svg_41" markerUnits="strokeWidth" orient="auto" viewBox="0 0 100 100" markerWidth="5" markerHeight="5" refX="50" refY="50">
   <path stroke="#000000" id="svg_4" d="m100,50l-100,40l30,-40l-30,-40l100,40z" fill="#000000" stroke-width="10"/>
  </marker>
  <marker id="se_marker_mid_svg_44" markerUnits="strokeWidth" orient="auto" viewBox="0 0 100 100" markerWidth="5" markerHeight="5" refX="50" refY="50">
   <path stroke="#000000" id="svg_6" d="m100,50l-100,40l30,-40l-30,-40l100,40z" fill="#000000" stroke-width="10"/>
  </marker>
  <pattern height="100" width="100" y="0" x="0" patternUnits="userSpaceOnUse" id="gridpattern">
   <image height="100" width="100" y="0" x="0" id="svg_7"/>
  </pattern>
 </defs>
 <g stroke="null" display="inline">
  <title>圖遮罩</title>
 </g>

 <g stroke="null" display="inline">
  <title>色塊</title>
  <rect stroke="#000000" opacity="0.3" height="200.99998" width="160" y="15.85186" x="383.55557" stroke-width="0" fill="#7f003f" id="svg_5"/>
  <rect stroke="#000000" opacity="0.3" height="201" width="160" y="16.85187" x="219.00001" stroke-width="0" fill="#7f003f" id="svg_10"/>
  <rect stroke="#000000" opacity="0.3" height="200.99998" width="160" y="15.85188" x="547.11112" stroke-width="0" fill="#7f003f" id="svg_11"/>
  <rect stroke="#000000" opacity="0.3" height="200.99998" width="160" y="222.40743" x="383.55556" stroke-width="0" fill="#7f003f" id="svg_12"/>
  <rect stroke="#000000" opacity="0.3" height="200.99998" width="160" y="222.40744" x="547.11112" stroke-width="0" fill="#7f003f" id="svg_14"/>
  <rect stroke="#000000" opacity="0.3" height="196.77622" width="160" y="428.60942" x="219.8881" stroke-width="0" fill="#7f003f" id="svg_16"/>
  <rect stroke="#000000" id="svg_8" opacity="0.3" height="611.11114" width="207.99994" y="16.85182" x="7.0556" stroke-width="0" fill="#7f003f"/>
  <rect id="svg_9" opacity="0.3" height="611.6973" width="177.77774" y="14.8519" x="712.05555" stroke-width="0" fill="#7f003f" stroke="#000000"/>
  <rect stroke-opacity="0" id="svg_21" height="25" width="104" y="184.18357" x="9.85834" stroke-linecap="null" stroke-linejoin="null" stroke-dasharray="null" stroke-width="0" fill="#7f003f" stroke="#000000"/>
  <rect stroke="#000000" stroke-opacity="0" id="svg_22" height="40.28736" width="167" y="45.93053" x="722.16683" stroke-linecap="null" stroke-linejoin="null" stroke-dasharray="null" stroke-width="0" fill="#7f003f"/>
  <rect stroke="#000000" stroke-opacity="0" id="svg_29" height="34.625" width="168.08593" y="428.60198" x="721.04323" stroke-linecap="null" stroke-linejoin="null" stroke-dasharray="null" stroke-width="0" fill="#7f003f"/>
  <rect id="svg_3" stroke="#000000" opacity="0.3" height="200.99998" width="160" y="426.85188" x="383.55556" stroke-width="0" fill="#7f003f"/>
  <rect id="svg_15" stroke="#000000" opacity="0.3" height="200.99998" width="160" y="426.85189" x="547.11112" stroke-width="0" fill="#7f003f"/>
  <rect id="svg_17" stroke="#000000" opacity="0.3" height="200.99998" width="160" y="222.40743" x="220" stroke-width="0" fill="#7f003f"/>
 </g>
 <g stroke="null" display="inline">
  <title>圖片</title>
  <g stroke="null" display="inline">
  <title>Speaker's photo</title>
  <image xlink:href="https://farm5.staticflickr.com/4537/38745904471_93a6139644.jpg" id="svg_30" height="108.72215" width="90.62963" y="70.55555" x="9.94444"/>
  </g>
  <g stroke="null" display="inline">
  <title>Part 1's photo</title>
  <image xlink:href="https://farm5.staticflickr.com/4188/33918462953_6475c96eb9_b.jpg" id="svg_47" height="100.49999" width="152.5" y="113.51668" x="223.86666"/>
  </g>
  <g stroke="null" display="inline">
  <title>Part 2's photo</title>
  <image xlink:href="https://farm5.staticflickr.com/4551/24873001888_d8ea865321_b.jpg" id="svg_48" height="103" width="161.25001" y="108.76667" x="383.97778"/>
  </g>
  <g stroke="null" display="inline">
  <title>Part 3's photo</title>
  <image xlink:href="https://farm5.staticflickr.com/4188/33918462833_810916786f_b.jpg" id="svg_50" height="98" width="156.25" y="113.22778" x="549.37222"/>
  </g>
  <g stroke="null" display="inline">
  <title>Part 4's photo</title>
  <image xlink:href="https://farm5.staticflickr.com/4177/33918462473_fdd2ed0b80_b.jpg" id="svg_55" height="105.5" width="153.75001" y="318.3" x="223.54999"/>
  </g>
  <g stroke="null" display="inline">
  <title>Part 5's photo</title>
  <image xlink:href="https://farm5.staticflickr.com/4166/34343361550_341909d6cc_b.jpg" id="svg_60" height="106.75001" width="155" y="318.55" x="386.3"/>
  </g>
  <g stroke="null" display="inline">
  <title>Part 6's photo</title>
  <image xlink:href="https://farm5.staticflickr.com/4584/38745904681_81f41013ae_b.jpg" id="svg_67" height="100.49999" width="156.25" y="321.55" x="549.29999"/>
  </g>
  <g stroke="null" display="inline">
  <title>Part 7's photo</title>
  <image xlink:href="https://farm5.staticflickr.com/4577/38029597204_ba13eb8bb9_b.jpg" id="svg_68" height="121.75" width="158.75001" y="514.3" x="220.79999"/>
  </g>
  <g stroke="null" display="inline">
  <title>Part 8's photo</title>
  <image xlink:href="https://farm5.staticflickr.com/4524/38745904101_c96217ac6b_b.jpg" id="svg_72" height="108" width="154.99999" y="520.3" x="387.30001"/>
  </g>
  <g stroke="null" display="inline">
  <title>Q&amp;A's photo</title>
  <image xlink:href="https://farm5.staticflickr.com/4176/33918461153_2dca7a2861_b.jpg" id="svg_75" height="104.25001" width="155" y="522.3" x="551.3"/>
  </g>
  <g stroke="null" display="inline">
  <title>Group's photo</title>
  <image xlink:href="https://farm5.staticflickr.com/4163/33918460833_e6c3742395_b.jpg" id="svg_79" height="93" width="140" y="526.13333" x="731.53333"/>
  </g>
  <g stroke="null" display="inline">
  <title>Welcoming's photo</title>
  <image x="51" y="552" width="107" height="69" id="svg_31" xlink:href="https://farm5.staticflickr.com/4184/34687656716_6805f6f5a3_b.jpg"/>
  </g>
 </g>
 <g stroke="null" display="inline">
  <title>標題</title>
  <g stroke="null" display="inline">
  <title>India in Transformation and</title>
  <text opacity="0.85" fill="#7f3f00" stroke-width="0" stroke-dasharray="null" stroke-linejoin="null" stroke-linecap="null" x="-295.1863" y="-1.13149" id="svg_45" font-size="24" font-family="Cursive" text-anchor="middle" xml:space="preserve" font-weight="normal" transform="matrix(0.5383021525275722,0,0,1.1527726695862868,267.4627267715522,47.36770879081263) ">India in Transformation and</text>
  </g>
  <g stroke="null" display="inline">
  <title>Part 7-</title>
  <text stroke="#000000" fill="#7f0000" stroke-width="0" stroke-dasharray="null" stroke-linejoin="null" stroke-linecap="null" x="350.88679" y="471.43305" id="svg_35" font-size="24" font-family="serif" text-anchor="middle" xml:space="preserve" transform="matrix(0.6648196530646246,0,0,0.6951292434577055,62.77565375467833,146.02772467447613) ">Part 7-</text>
  </g>
  <g stroke="null" display="inline">
  <title>Speaker&#x27;s</title>
  <text stroke="null" xml:space="preserve" text-anchor="middle" font-family="serif" font-size="24" id="svg_25" y="70.75414" x="757.66112" opacity="0.8" stroke-linecap="null" stroke-linejoin="null" stroke-dasharray="null" stroke-width="0" fill="#ffffff" font-style="italic" transform="matrix(0.8406476094579095,0,0,0.8696967485759515,131.8161622722508,11.668342329910757) ">Speaker&#x27;s</text>
  </g>
  <g stroke="null" display="inline">
  <title>Abstract</title>
  <text stroke="null" font-style="italic" transform="matrix(0.8458460452209671,0,0,0.8543518839013259,22.732074116946247,32.78018207997524) " xml:space="preserve" text-anchor="middle" font-family="serif" font-size="24" id="svg_27" y="200.83706" x="33.18219" opacity="0.8" stroke-linecap="null" stroke-linejoin="null" stroke-dasharray="null" stroke-width="0" fill="#ffffff">Abstract</text>
  </g>
  <g stroke="null" display="inline">
  <title>Further Reading</title>
  <text stroke="null" font-style="italic" transform="translate(388.8465576171875,441.1921691894531) scale(1.0136302709579468,0.8249392509460449) translate(-388.8465576171875,-441.1921691894531) translate(888.8558959960938,436.2577209472656) scale(0.9734276533126831,1) translate(-888.8558959960938,-436.2577209472656) translate(889.87255859375,504.8636779785156) scale(1) translate(-889.87255859375,-504.8636779785156) translate(889.914306640625,505.77667236328125) scale(1.0139044523239136,1.3043327331542969) translate(-889.914306640625,-505.77667236328125) translate(888.4232177734375,504.6651611328125) scale(1) translate(-888.4232177734375,-504.6651611328125) translate(888.3218994140625,504.255126953125) scale(0.9399330019950867,0.7570223808288574) translate(-888.3218994140625,-504.255126953125) translate(888.0772705078125,504.109619140625) scale(0.8550723195075989,0.9137715697288513) translate(-888.0772705078125,-504.109619140625) matrix(1.0937924253894378,0,0,1.0937924253894378,71.03591400341189,-39.500754610857044) " xml:space="preserve" text-anchor="middle" font-family="serif" font-size="24" id="svg_28" y="448.66987" x="643.04373" opacity="0.8" stroke-linecap="null" stroke-linejoin="null" stroke-dasharray="null" stroke-width="0" fill="#ffffff">Further Reading</text>
  </g>
  <g stroke="null" display="inline">
  <title>Part 1-</title>
  <text stroke="#000000" id="svg_61" fill="#7f0000" stroke-width="0" stroke-dasharray="null" stroke-linejoin="null" stroke-linecap="null" x="100.67546" y="-149.10155" font-size="24" font-family="serif" text-anchor="middle" xml:space="preserve" transform="matrix(0.6300743673544547,0,0,0.8447472248396273,231.12355888984092,183.42785386059356) ">Part 1-</text>
  </g>
  <g stroke="null" display="inline">
  <title>Part 2-</title>
  <text stroke="#000000" id="svg_62" fill="#7f0000" stroke-width="0" stroke-dasharray="null" stroke-linejoin="null" stroke-linecap="null" x="356.16553" y="-142.1712" font-size="24" font-family="serif" text-anchor="middle" xml:space="preserve" transform="matrix(0.6028761551163667,0,0,0.7237331214370406,246.3307145203466,160.2715725518969) ">Part 2-</text>
  </g>
  <g stroke="null" display="inline">
  <title>Part 3-</title>
  <text stroke="#000000" id="svg_63" fill="#7f0000" stroke-width="0" stroke-dasharray="null" stroke-linejoin="null" stroke-linecap="null" x="591.28629" y="-131.71722" font-size="24" font-family="serif" text-anchor="middle" xml:space="preserve" transform="matrix(0.6813931812287018,0,0,0.67204418659711,222.62328570387572,143.4184000959025) ">Part 3-</text>
  </g>
  <g stroke="null" display="inline">
  <title>Part 4-</title>
  <text stroke="#000000" id="svg_64" fill="#7f0000" stroke-width="0" stroke-dasharray="null" stroke-linejoin="null" stroke-linecap="null" x="332.24347" y="264.1498" font-size="24" font-family="serif" text-anchor="middle" xml:space="preserve" transform="matrix(0.6030979964170187,0,0,0.7598797838776257,92.68087594812664,60.452440137609884) ">Part 4-</text>
  </g>
  <g stroke="null" display="inline">
  <title>Part 5-</title>
  <text stroke="#000000" id="svg_65" fill="#7f0000" stroke-width="0" stroke-dasharray="null" stroke-linejoin="null" stroke-linecap="null" x="494.25609" y="258.02154" font-size="24" font-family="serif" text-anchor="middle" xml:space="preserve" transform="matrix(0.6630376094879523,0,0,0.6744886884277185,132.63560050751664,86.69825367440731) ">Part 5-</text>
  </g>
  <g stroke="null" display="inline">
  <title>Part 6-</title>
  <text stroke="#000000" id="svg_66" fill="#7f0000" stroke-width="0" stroke-dasharray="null" stroke-linejoin="null" stroke-linecap="null" x="636.11723" y="261.56325" font-size="24" font-family="serif" text-anchor="middle" xml:space="preserve" transform="matrix(0.6654777075638434,0,0,0.72017897125111,202.74845489240317,73.04796387126258) ">Part 6-</text>
  </g>
  <g stroke="null" display="inline">
  <title>Economic Growth</title>
  <text opacity="0.45" stroke="#000000" transform="matrix(0.6850042428907428,0,0,0.7411841654510328,225.65331513604892,143.16390142252303) " xml:space="preserve" text-anchor="middle" font-family="serif" font-size="24" id="svg_69" y="-83.77061" x="106.50975" stroke-linecap="null" stroke-linejoin="null" stroke-dasharray="null" stroke-width="0" fill="#7f003f">Economic Growth</text>
  </g>
  <g stroke="null" display="inline">
  <title>Integrating Innovation</title>
  <text opacity="0.45" stroke="#000000" font-weight="normal" id="svg_80" transform="matrix(0.5759269010727847,0,0,0.8276501236413456,171.70146556108554,-66.6739068667355) " xml:space="preserve" text-anchor="middle" font-family="serif" font-size="24" y="426.04602" x="218.56065" stroke-linecap="null" stroke-linejoin="null" stroke-dasharray="null" stroke-width="0" fill="#7f003f">Integrating Innovation</text>
  </g>
  <g stroke="null" display="inline">
  <title>Planned Major Initiatives</title>
  <text opacity="0.45" stroke="#000000" id="svg_82" transform="matrix(0.4785627925160152,0,0,0.8533448860467526,237.47568930746698,-180.32774115319623) " xml:space="preserve" text-anchor="middle" font-family="serif" font-size="24" y="314.83937" x="818.21171" stroke-linecap="null" stroke-linejoin="null" stroke-dasharray="null" stroke-width="0" fill="#7f003f">Planned Major Initiatives</text>
  </g>
  <g stroke="null" display="inline">
  <title>S&amp;T Agencies</title>
  <text opacity="0.45" stroke="#000000" id="svg_87" transform="matrix(0.6240464026725077,0,0,0.7996343339570383,244.90133483160403,137.28216838466926) " xml:space="preserve" text-anchor="middle" font-family="serif" font-size="24" y="-61.32677" x="353.07254" stroke-linecap="null" stroke-linejoin="null" stroke-dasharray="null" stroke-width="0" fill="#7f003f">S&amp;T Agencies</text>
  </g>
  <g stroke="null" display="inline">
  <title>Q&amp;A</title>
  <text opacity="0.45" id="svg_56" xml:space="preserve" text-anchor="middle" font-family="serif" font-size="24" y="493.08214" x="633.39759" stroke-linecap="null" stroke-linejoin="null" stroke-dasharray="null" stroke-width="0" fill="#7f003f" transform="matrix(0.694338497052513,0,0,0.6682441192127476,187.95836379147926,168.03390487348418) " stroke="#000000">Q&amp;A</text>
  </g>

  <g stroke="null" display="inline">
  <title>Click to watch Part 1's video</title>
  <a stroke="null" xlink:href="https://youtu.be/MKEBdLEaZ_Q" id="svg_26">
   <path stroke="#000000" fill="#3f3f3f" stroke-width="0" stroke-dasharray="null" stroke-linejoin="null" stroke-linecap="null" d="m241.02154,180.18171c-8.26903,0 -14.97223,6.47597 -14.97223,14.46469c0,7.98872 6.7032,14.46469 14.97223,14.46469c8.26903,0 14.97222,-6.47597 14.97222,-14.46469c0,-7.98872 -6.70319,-14.46469 -14.97222,-14.46469zm-2.40541,24.14332l-3.64261,-3.52213l6.37355,-6.15749l-6.37355,-6.1575l3.64261,-3.51914l10.0172,9.67664l-10.0172,9.67962z" marker-mid="url(#se_marker_mid_svg_44)" id="svg_44"/>
  </a></g>
  <g stroke="null" display="inline">
  <title>Click to watch Part 2's video</title>
  <a stroke="null" xlink:href="https://youtu.be/DxR3kgZxfHA" id="svg_57">
   <path stroke="#000000" fill="#3f3f3f" stroke-width="0" stroke-dasharray="null" stroke-linejoin="null" stroke-linecap="null" d="m401.27154,182.93171c-8.26903,0 -14.97223,6.47597 -14.97223,14.46469c0,7.98872 6.7032,14.46469 14.97223,14.46469c8.26903,0 14.97222,-6.47597 14.97222,-14.46469c0,-7.98872 -6.70319,-14.46469 -14.97222,-14.46469zm-2.40541,24.14332l-3.64261,-3.52213l6.37355,-6.15749l-6.37355,-6.1575l3.64261,-3.51914l10.0172,9.67664l-10.0172,9.67962z" marker-mid="url(#se_marker_mid_svg_44)" id="svg_43"/>
  </a></g>
  <g stroke="null" display="inline">
  <title>Click to watch Part 3's video</title>
  <a stroke="null" xlink:href="https://youtu.be/oUJRDWieUaY" id="svg_58">
   <path stroke="#000000" fill="#3f3f3f" stroke-width="0" stroke-dasharray="null" stroke-linejoin="null" stroke-linecap="null" d="m571.27154,182.93172c-8.26903,0 -14.97223,6.47597 -14.97223,14.46469c0,7.98872 6.7032,14.46469 14.97223,14.46469c8.26903,0 14.97222,-6.47597 14.97222,-14.46469c0,-7.98872 -6.70319,-14.46469 -14.97222,-14.46469zm-2.40541,24.14331l-3.64261,-3.52212l6.37355,-6.1575l-6.37355,-6.15749l3.64261,-3.51914l10.0172,9.67663l-10.0172,9.67962z" marker-mid="url(#se_marker_mid_svg_44)" id="svg_42"/>
  </a></g>
  <g stroke="null" display="inline">
  <title>Click to watch Part 4's video</title>
  <a stroke="null" xlink:href="https://youtu.be/gaSrpjQPct4" id="svg_59">
   <path stroke="#000000" fill="#3f3f3f" stroke-width="0" stroke-dasharray="null" stroke-linejoin="null" stroke-linecap="null" d="m239.02154,392.18171c-8.26903,0 -14.97223,6.47597 -14.97223,14.46469c0,7.98872 6.7032,14.46469 14.97223,14.46469c8.26903,0 14.97222,-6.47597 14.97222,-14.46469c0,-7.98872 -6.70319,-14.46469 -14.97222,-14.46469zm-2.40541,24.14332l-3.64261,-3.52213l6.37355,-6.15749l-6.37355,-6.1575l3.64261,-3.51914l10.0172,9.67664l-10.0172,9.67962z" marker-mid="url(#se_marker_mid_svg_41)" id="svg_41"/>
  </a></g>
  <g stroke="null" display="inline">
  <title>Click to watch Part 5's video</title>
  <a stroke="null" xlink:href="https://youtu.be/jvJK42Hi5uQ" id="svg_70">
   <path stroke="#000000" fill="#3f3f3f" stroke-width="0" stroke-dasharray="null" stroke-linejoin="null" stroke-linecap="null" d="m402.52154,392.43171c-8.26903,0 -14.97223,6.47597 -14.97223,14.46469c0,7.98872 6.7032,14.46469 14.97223,14.46469c8.26903,0 14.97222,-6.47597 14.97222,-14.46469c0,-7.98872 -6.70319,-14.46469 -14.97222,-14.46469zm-2.40541,24.14332c-1.2142,-1.17404 -2.42841,-2.34809 -3.64261,-3.52213l6.37355,-6.15749l-6.37355,-6.1575l3.64261,-3.51914l10.0172,9.67664l-10.0172,9.67962z" marker-mid="url(#se_marker_mid_svg_41)" id="svg_40"/>
  </a></g>
  <g stroke="null" display="inline">
  <title>Click to watch Part 6's video</title>
  <a stroke="null" xlink:href="https://youtu.be/YEEuc08D5cA" id="svg_71">
   <path stroke="#000000" fill="#3f3f3f" stroke-width="0" stroke-dasharray="null" stroke-linejoin="null" stroke-linecap="null" d="m566.02154,388.84839c-8.26903,0 -14.97223,6.47597 -14.97223,14.46469c0,7.98872 6.7032,14.46469 14.97223,14.46469c8.26903,0 14.97222,-6.47597 14.97222,-14.46469c0,-7.98872 -6.70319,-14.46469 -14.97222,-14.46469zm-2.40541,24.14331l-3.64261,-3.52212l6.37355,-6.1575l-6.37355,-6.15749l3.64261,-3.51914l10.0172,9.67663l-10.0172,9.67962z" marker-mid="url(#se_marker_mid_svg_41)" id="svg_39"/>
  </a></g>
  <g stroke="null" display="inline">
  <title>Click to watch Part 7's video</title>
  <a stroke="null" xlink:href="https://youtu.be/Na9ag8UQff4" id="svg_74">
   <path stroke="#000000" fill="#3f3f3f" stroke-width="0" stroke-dasharray="null" stroke-linejoin="null" stroke-linecap="null" d="m236.35488,593.90395c-8.26903,0 -14.97222,6.47597 -14.97222,14.46469c0,7.98872 6.7032,14.46469 14.97222,14.46469c8.26903,0 14.97222,-6.47597 14.97222,-14.46469c0,-7.98872 -6.7032,-14.46469 -14.97222,-14.46469zm-2.4054,24.14331l-3.64262,-3.52212l6.37355,-6.1575l-6.37355,-6.1575l3.64262,-3.51914l10.01719,9.67663l-10.01719,9.67962l0,0.00001z" id="svg_36" marker-mid="url(#se_marker_mid_svg_36)"/>
  </a></g>
  
  
  <text stroke="#000000" xml:space="preserve" text-anchor="middle" font-family="serif" font-size="24" id="svg_83" y="542.0428" x="772.10043" stroke-linecap="null" stroke-linejoin="null" stroke-dasharray="null" stroke-width="0" fill="#3f3f3f"/>
  <g stroke="null" id="svg_180"/>
  
  <g stroke="null" display="inline">
  <title>India’s Space Endeavour</title>
  <text opacity="0.45" stroke="#000000" font-weight="normal" id="svg_34" transform="matrix(0.51743455002932,0,0,0.7819899286698443,205.7146635364582,-40.06368485954353) " xml:space="preserve" text-anchor="middle" font-family="serif" font-size="24" y="426.82523" x="502.7972" stroke-linecap="null" stroke-linejoin="null" stroke-dasharray="null" stroke-width="0" fill="#7f003f">India’s Space Endeavour</text>
  </g>
  <g stroke="null" display="inline">
  <title>Application (I)</title>
  <text opacity="0.45" stroke="#000000" id="svg_46" transform="matrix(0.7180507710344844,0,0,0.6547020719669576,91.20762968488457,24.05347235545191) " xml:space="preserve" text-anchor="middle" font-family="serif" font-size="24" y="411.78637" x="745.35486" stroke-linecap="null" stroke-linejoin="null" stroke-dasharray="null" stroke-width="0" fill="#7f003f">Application (I)</text>
  </g>
  <g stroke="null" display="inline">
  <title>Biography</title>
  <text stroke="null" opacity="0.8" transform="matrix(0.7681051001511282,0,0,0.8530227157745391,93.39743953271953,-4.851341322304055) " font-style="italic" xml:space="preserve" text-anchor="middle" font-family="serif" font-size="24" id="svg_49" y="92.51449" x="982.95825" stroke-linecap="null" stroke-linejoin="null" stroke-dasharray="null" stroke-width="0" fill="#ffffff">Biography</text>
  </g>
  <g stroke="null" display="inline">
  <title>Dr. K. Kasturirangan</title>
  <text xml:space="preserve" text-anchor="middle" font-family="serif" font-size="24" y="149.99483" x="278.3516" opacity="0.6" stroke-linecap="null" stroke-linejoin="null" stroke-dasharray="null" stroke-width="0" fill="#7f3f00" id="svg_73" transform="matrix(0.5047428414333119,0,0,0.7713238909754809,15.448486212356691,35.8540963134851) " stroke="#000000">Dr. K. Kasturirangan</text>
  </g>
  <g stroke="null" display="inline">
  <title>Part 8-</title>
  <text id="svg_18" stroke="#000000" fill="#7f0000" stroke-width="0" stroke-dasharray="null" stroke-linejoin="null" stroke-linecap="null" x="509.87527" y="467.20431" font-size="24" font-family="serif" text-anchor="middle" xml:space="preserve" transform="matrix(0.6730519590849243,0,0,0.6912970639711535,112.3704082248768,149.63635226992153) ">Part 8-</text>
  </g>
  <g stroke="null" display="inline">
  <title>Part 9-</title>
  <text id="svg_19" stroke="#000000" fill="#7f0000" stroke-width="0" stroke-dasharray="null" stroke-linejoin="null" stroke-linecap="null" x="677.50591" y="467.65883" font-size="24" font-family="serif" text-anchor="middle" xml:space="preserve" transform="matrix(0.7242780956709822,0,0,0.6402475932833032,131.61847549979598,172.8549068542157) ">Part 9-</text>
  </g>
  
  <path id="svg_20" stroke="#000000" fill="#3f3f3f" stroke-width="0" stroke-dasharray="null" stroke-linejoin="null" stroke-linecap="null" d="m400.66043,596.15393c-8.26903,0 -14.97223,6.47597 -14.97223,14.46469c0,7.98872 6.7032,14.46469 14.97223,14.46469c8.26903,0 14.97222,-6.47597 14.97222,-14.46469c0,-7.98872 -6.70319,-14.46469 -14.97222,-14.46469zm-2.40541,24.14332c-1.2142,-1.17404 -2.42841,-2.34809 -3.64261,-3.52213l6.37355,-6.15749l-6.37355,-6.1575l3.64261,-3.51914l10.0172,9.67664l-10.0172,9.67962z" marker-mid="url(#se_marker_mid_svg_41)"/>
  <path id="svg_23" stroke="#000000" fill="#3f3f3f" stroke-width="0" stroke-dasharray="null" stroke-linejoin="null" stroke-linecap="null" d="m566.3271,596.84838c-8.26903,0 -14.97223,6.47597 -14.97223,14.46469c0,7.98872 6.7032,14.46469 14.97223,14.46469c8.26903,0 14.97222,-6.47597 14.97222,-14.46469c0,-7.98872 -6.70319,-14.46469 -14.97222,-14.46469zm-2.40541,24.14331l-3.64261,-3.52212l6.37355,-6.1575l-6.37355,-6.15749l3.64261,-3.51914l10.0172,9.67663l-10.0172,9.67962z" marker-mid="url(#se_marker_mid_svg_41)"/>
  
  
  <g stroke="null" display="inline">
  <title>Profile of India</title>
  <text id="svg_38" opacity="0.45" stroke="#000000" transform="matrix(0.7231164988868192,0,0,0.6408389385680671,223.23075977333949,136.52492020603714) " xml:space="preserve" text-anchor="middle" font-family="serif" font-size="24" y="-61.48407" x="101.99765" stroke-linecap="null" stroke-linejoin="null" stroke-dasharray="null" stroke-width="0" fill="#7f003f">Profile of India</text>
  </g>
  <g stroke="null" display="inline">
  <title>with National S&amp;T Endeavour</title>
  <text id="svg_51" opacity="0.45" stroke="#000000" font-weight="normal" transform="matrix(0.49093788003053573,0,0,0.8159319039233164,176.9593409376852,-60.49542323520813) " xml:space="preserve" text-anchor="middle" font-family="serif" font-size="24" y="446.32954" x="248.26691" stroke-linecap="null" stroke-linejoin="null" stroke-dasharray="null" stroke-width="0" fill="#7f003f">with National S&amp;T Endeavour</text>
  </g>
  <g stroke="null" display="inline">
  <title>Application (III)</title>
  <text id="svg_52" opacity="0.45" stroke="#000000" transform="matrix(0.6413774391002339,0,0,0.6661268821853749,115.60502869716974,74.74027033179787) " xml:space="preserve" text-anchor="middle" font-family="serif" font-size="24" y="632.10524" x="542.465" stroke-linecap="null" stroke-linejoin="null" stroke-dasharray="null" stroke-width="0" fill="#7f003f">Application (III)</text>
  </g>
  <g stroke="null" display="inline">
  <title>Application (II)</title>
  <text id="svg_54" opacity="0.45" stroke="#000000" transform="matrix(0.5875898650192701,0,0,0.6538076216683707,98.70589769845154,83.70260116450362) " xml:space="preserve" text-anchor="middle" font-family="serif" font-size="24" y="634.28378" x="338.79583" stroke-linecap="null" stroke-linejoin="null" stroke-dasharray="null" stroke-width="0" fill="#7f003f">Application (II)</text>
  </g>
  <g stroke="null" display="inline">
  <title>Vision for Science</title>
  <text opacity="0.85" fill="#7f3f00" stroke-width="0" stroke-dasharray="null" stroke-linejoin="null" stroke-linecap="null" x="-288.8045" y="18.1068" font-size="24" font-family="Cursive" text-anchor="middle" xml:space="preserve" font-weight="normal" transform="matrix(0.5383021525275722,0,0,1.1527726695862868,267.4627267715522,47.36770879081263) " id="svg_2">Vision for Science</text>
  </g>
  <g stroke="null" display="inline">
  <title>20 May 2016</title>
  <text xml:space="preserve" text-anchor="middle" font-family="serif" font-size="24" y="175.35118" x="255.89713" opacity="0.6" stroke-linecap="null" stroke-linejoin="null" stroke-dasharray="null" stroke-width="0" fill="#7f3f00" transform="matrix(0.6316709296900475,0,0,0.7713238909754809,-9.133137945596872,35.8540963134851) " stroke="#000000" id="svg_13">20 May 2016</text>
  </g>
  <g stroke="null" display="inline">
  <title>Welcoming</title>
  <text stroke="null" font-style="italic" transform="matrix(0.8458460452209671,0,0,0.8543518839013259,22.732074116946247,32.78018207997524) " xml:space="preserve" text-anchor="middle" font-family="serif" font-size="24" y="594.32549" x="45.33318" opacity="0.8" stroke-linecap="null" stroke-linejoin="null" stroke-dasharray="null" stroke-width="0" fill="#7f0000" id="svg_24" font-weight="bold">Welcoming</text>
  </g>
  <g stroke="null" display="inline">
  <title>Click to watch Welcoming's video</title>
  <a id="svg_84" xlink:href="https://youtu.be/MKEBdLEaZ_Q">
   <path stroke="#000000" fill="#3f3f3f" stroke-width="0" stroke-dasharray="null" stroke-linejoin="null" stroke-linecap="null" d="m56.24999,595.5353c-8.26903,0 -14.97223,6.47597 -14.97223,14.46469c0,7.98872 6.7032,14.46469 14.97223,14.46469c8.26903,0 14.97222,-6.47597 14.97222,-14.46469c0,-7.98872 -6.70319,-14.46469 -14.97222,-14.46469zm-2.40541,24.14332l-3.64261,-3.52213l6.37355,-6.15749l-6.37355,-6.1575l3.64261,-3.51914l10.0172,9.67664l-10.0172,9.67962z" marker-mid="url(#se_marker_mid_svg_44)" id="svg_81"/>
  </a></g>
 </g>
 
  <g stroke="null" display="inline">
  <title>文字</title>
  <g stroke="null" display="inline">
  <title>1. Space technology for humanity:</title>
  <text stroke="null" fill="#7f3f00" stroke-width="0" stroke-dasharray="null" stroke-linejoin="null" stroke-linecap="null" x="1232.05334" y="478.80446" id="svg_53" font-size="24" font-family="serif" text-anchor="middle" xml:space="preserve" transform="matrix(0.42778408456164213,0,0,0.8251580412471845,263.0533081244521,89.49164245440261) " font-weight="bold">1. Space technology for humanity:</text>
  </g>
  <g stroke="null" display="inline">
  <title>
  The talk will specifically 
  focus on some of the 
  present key drivers of 
  Science and Technology. 
  To sustain the pace of 
  development, innovation 
  becomes the driving force. 
  The initiatives taken by the 
  Government to create a full 
  fledged innovation ecosystem 
  will be discussed.
  </title>
  <image xlink:href="https://farm5.staticflickr.com/4573/38745904541_b55c9b2e92_b.jpg" id="svg_32" height="325.67214" width="149.68724" y="203.79999" x="21.11111"/>
  </g>
  <g stroke="null" display="inline">
  <title>
  Dr K. Kasturirangan is 
  the Chancellor of 
  Jawaharlal Nehru University 
  and holds the Satish Dhawan Chair 
  for Engineering Eminence 
  of Indian National Academy 
  of Engineering. 
  He served as Chairman of ISRO 
  for nearly a decade, 
  Member of Upper House of 
  the Indian Parliament, 
  and Member of the erstwhile 
  Planning Commission. 
  His interests include astrophysics, 
  space technology and science policies.
  </title>
  <image xlink:href="https://farm5.staticflickr.com/4529/38745904281_723fc0a815_b.jpg" id="svg_37" height="335.81156" width="171.18519" y="91.85186" x="715.74077"/>
  </g>
  <g stroke="null" display="inline">
  <title>A profile for the coming 50 years</title>
  <text id="svg_76" stroke="null" fill="#7f3f00" stroke-width="0" stroke-dasharray="null" stroke-linejoin="null" stroke-linecap="null" x="1292.61251" y="503.55351" font-size="24" font-family="serif" text-anchor="middle" xml:space="preserve" transform="matrix(0.42778408456164213,0,0,0.8251580412471845,263.0533081244521,89.49164245440261) " font-weight="bold">A profile for the coming 50 years</text>
  </g>
  <g stroke="null" display="inline">
  <title>Space technology for humanity: A profile for the coming 50 years</title>
  <a xlink:href="http://www.sciencedirect.com/science/article/pii/S026596460700063X" id="svg_78">
   <path id="svg_77" d="m736.06077,492.62816l-15.75228,0c-0.96427,0 -1.74932,0.73464 -1.84733,1.67278l1.49728,0c1.02868,0 1.86694,0.83825 1.86694,1.86694c0,1.02868 -0.83825,1.86694 -1.86694,1.86694l-1.51689,0l0,0.93254l1.51689,0c1.03055,0 1.8688,0.83825 1.8688,1.8688c0,1.03055 -0.83825,1.86787 -1.8688,1.86787l-1.51689,0l0,0.93067l1.51689,0c1.02868,0 1.86694,0.83825 1.86694,1.86694c0,1.03055 -0.83825,1.87067 -1.86694,1.87067l-1.51689,0l0,0.92787l1.51689,0c1.02868,0 1.86694,0.83825 1.86694,1.8688s-0.83825,1.8688 -1.86694,1.8688l-1.51689,0l0,0.93067l1.51595,0c1.03055,0 1.8688,0.83732 1.8688,1.86787c0,1.03055 -0.83825,1.8688 -1.8688,1.8688l-1.51222,0c0.02147,1.01188 0.84572,1.8268 1.8632,1.8268l15.75228,0c1.03055,0 1.86694,-0.83639 1.86694,-1.86694l0,-22.16988c0,-1.03055 -0.83639,-1.86694 -1.86694,-1.86694l0.00001,0zm0.35005,6.53428c0,0.51527 -0.41726,0.93347 -0.93347,0.93347l-9.56805,0c-0.51621,0 -0.93347,-0.41819 -0.93347,-0.93347l0,-4.08392c0,-0.51527 0.41726,-0.93347 0.93347,-0.93347l9.56805,0c0.51621,0 0.93347,0.41819 0.93347,0.93347l0,4.08392zm-15.51891,15.67387c0,-0.51714 -0.41913,-0.9344 -0.93347,-0.9344l-3.03377,0c-0.51527,0 -0.93347,0.41726 -0.93347,0.9344c0,0.51527 0.41913,0.93347 0.93347,0.93347l3.03377,0c0.51434,0 0.93347,-0.41819 0.93347,-0.93347zm-3.96724,-17.7359l3.03471,0c0.51434,0 0.93254,-0.41819 0.93254,-0.93254c0,-0.51808 -0.41819,-0.93347 -0.93254,-0.93347l-3.03471,0c-0.51621,0 -0.93347,0.41539 -0.93347,0.93347c-0.00093,0.51434 0.41726,0.93254 0.93347,0.93254zm0,4.66828l3.03377,0c0.51621,0 0.93347,-0.41819 0.93347,-0.93347s-0.41819,-0.93347 -0.93347,-0.93347l-3.03377,0c-0.51621,0 -0.93347,0.41819 -0.93347,0.93347s0.41726,0.93347 0.93347,0.93347zm0,4.66734l3.03377,0c0.51434,0 0.93347,-0.41819 0.93347,-0.9344s-0.41819,-0.93254 -0.93347,-0.93254l-3.03377,0c-0.51621,0 -0.9344,0.41633 -0.9344,0.93254s0.41819,0.9344 0.9344,0.9344zm-0.93347,3.73201c0,0.51621 0.41633,0.93534 0.93347,0.93534l3.03377,0c0.51434,0 0.93347,-0.41913 0.93347,-0.93534c0,-0.51527 -0.41819,-0.93347 -0.93347,-0.93347l-3.03377,0c-0.51714,0 -0.93347,0.41819 -0.93347,0.93347z" stroke-linecap="null" stroke-linejoin="null" stroke-dasharray="null" stroke-width="0" stroke="null" fill="#7f3f00"/>
  </a></g>
 </g>
</svg>