<svg width="904.9999999999999" height="640.0000000000001" xmlns="http://www.w3.org/2000/svg" xmlns:svg="http://www.w3.org/2000/svg" xmlns:xlink="http://www.w3.org/1999/xlink">
 <!-- Created with SVG-edit - http://svg-edit.googlecode.com/ -->
 <title>On the Social Dynamics of Philosophical Ideas: Dai Zhen&#x27;s Critique of Neo-Confucianism</title>
 <defs>
  <marker id="se_marker_mid_svg_38" markerUnits="strokeWidth" orient="auto" viewBox="0 0 100 100" markerWidth="5" markerHeight="5" refX="50" refY="50">
   <path stroke="#000000" id="svg_3" d="m384.70974,207.69235l-34.39455,24.30578l10.31836,-24.30578l-10.31836,-24.30578l34.39455,24.30578z" fill="#000000" stroke-width="10"/>
  </marker>
  <marker id="se_marker_mid_svg_41" markerUnits="strokeWidth" orient="auto" viewBox="0 0 100 100" markerWidth="5" markerHeight="5" refX="50" refY="50">
   <path stroke="#000000" id="svg_4" d="m100,50l-100,40l30,-40l-30,-40l100,40z" fill="#000000" stroke-width="10"/>
  </marker>
  <marker id="se_marker_mid_svg_44" markerUnits="strokeWidth" orient="auto" viewBox="0 0 100 100" markerWidth="5" markerHeight="5" refX="50" refY="50">
   <path stroke="#000000" id="svg_6" d="m100,50l-100,40l30,-40l-30,-40l100,40z" fill="#000000" stroke-width="10"/>
  </marker>
  <pattern height="100" width="100" y="0" x="0" patternUnits="userSpaceOnUse" id="gridpattern">
   <image height="100" width="100" y="0" x="0" id="svg_7"/>
  </pattern>
 </defs>
 <g display="none">
  <title>圖遮罩</title>
 </g>
 <g display="inline" stroke="null">
  <title>文字</title>
  <image id="svg_48" xlink:href="https://c1.staticflickr.com/1/802/27432921778_063c1fc9c4_b.jpg" height="411.99999" width="165" y="94.25678" x="722.33334"/>
  <image xlink:href="https://c1.staticflickr.com/1/865/41733792282_721a3d68ca_o.png" id="svg_93" height="165.94809" width="193" y="343.05191" x="17.00001"/>
 </g>
 <g stroke="null" display="inline">
  <title>色塊</title>
  <rect opacity="0.3" height="201" width="160" y="16.85186" x="380" stroke-width="0" fill="#ff7f00" id="svg_5" stroke="#000000"/>
  <rect opacity="0.3" height="201" width="160" y="17.85187" x="217" stroke-width="0" fill="#ff7f00" id="svg_10" stroke="#000000"/>
  <rect opacity="0.3" height="201" width="160" y="16.85188" x="542" stroke-width="0" fill="#ff7f00" id="svg_11" stroke="#000000"/>
  <rect opacity="0.3" height="200.99998" width="160" y="220.40743" x="380" stroke-width="0" fill="#ff7f00" id="svg_12" stroke="#000000"/>
  <rect opacity="0.3" height="201.00001" width="160" y="221.40742" x="217" stroke-width="0" fill="#ff7f00" id="svg_13" stroke="#000000"/>
  <rect opacity="0.3" height="200.99998" width="160" y="220.40744" x="542" stroke-width="0" fill="#ff7f00" id="svg_14" stroke="#000000"/>
  <rect stroke="#000000" opacity="0.3" height="201" width="160" y="424.96296" x="380" stroke-width="0" fill="#ff7f00" id="svg_15"/>
  <rect opacity="0.3" height="201" width="160" y="424.96297" x="217" stroke-width="0" fill="#ff7f00" id="svg_16" stroke="#000000"/>
  <rect id="svg_8" opacity="0.3" height="611.11114" width="199.11107" y="16.85182" x="15.94447" stroke-width="0" fill="#ff7f00" stroke="#000000"/>
  <rect id="svg_9" opacity="0.3" height="612.11106" width="177.77774" y="15.8519" x="710.05555" stroke-width="0" fill="#ff7f00" stroke="#000000"/>
  <rect id="svg_22" height="33.66667" width="138" y="34.85" x="752.0289" stroke-linecap="null" stroke-linejoin="null" stroke-dasharray="null" stroke-width="5" fill="#ffffaa"/>
  <rect opacity="0.3" height="201" width="160" y="426.00001" x="542" stroke-width="0" fill="#ff7f00" stroke="#000000" id="svg_29"/>
 </g>
 <g stroke="null" display="inline">
  <title>圖片</title>
  <image x="62.33333" y="169.66667" width="113" height="135.86905" id="svg_17" xlink:href="https://c1.staticflickr.com/1/797/41262627782_afe33d38d5_o.png"/>
  <image id="svg_49" x="40.33333" y="519.11111" width="150" height="100" xlink:href="https://farm5.staticflickr.com/4283/35136081885_7ba53f87e9_b.jpg"/>
  <image id="svg_50" x="384.66667" y="115.88889" width="150" height="100" xlink:href="https://farm5.staticflickr.com/4257/34971386742_5ccba18cb2_b.jpg"/>
  <image id="svg_56" x="544.66666" y="115.88891" width="150" height="100" xlink:href="https://farm5.staticflickr.com/4268/35136078385_04303f470e_b.jpg"/>
  <image id="svg_51" x="222.33333" y="321.66667" width="150" height="100" xlink:href="https://farm5.staticflickr.com/4259/35005128911_2dfbec9b2b_b.jpg"/>
  <image id="svg_54" x="384.66666" y="321.3333" width="150" height="100" xlink:href="https://farm5.staticflickr.com/4205/34971386222_886a58d216_b.jpg"/>
  <image id="svg_60" x="547.66666" y="323.33333" width="150" height="100" xlink:href="https://farm5.staticflickr.com/4263/34971385462_4106b444e7_b.jpg"/>
  <image id="svg_74" x="222.97222" y="523.63888" width="150" height="100" xlink:href="https://farm5.staticflickr.com/4216/35005128661_302b36aa59_b.jpg"/>
  <image id="svg_35" x="385.0278" y="524.36111" width="150" height="100" xlink:href="https://farm5.staticflickr.com/4280/34291208874_c5003d801a_b.jpg"/>
  <image id="svg_79" x="221.00002" y="117.00003" width="150" height="100" xlink:href="https://farm5.staticflickr.com/4267/35005128221_8bf88ffb35_b.jpg"/>
 </g>
 <g stroke="null" display="inline">
  <title>標題</title>
  <text fill="#7f003f" stroke-width="0" stroke-dasharray="null" stroke-linejoin="null" stroke-linecap="null" x="-248.20293" y="18.00013" id="svg_45" font-size="24" font-family="serif" text-anchor="middle" xml:space="preserve" font-weight="normal" transform="matrix(0.7746457535059411,0,0,0.9405634076231332,309.7849358039121,37.104467757275316) ">Challeges and Changes -</text>
  <text stroke="#000000" transform="matrix(0.7264362408105531,0,0,1.1466576076850639,101.7561689012424,-21.389188761048167) " xml:space="preserve" text-anchor="middle" font-family="serif" font-size="24" id="svg_31" y="307.92044" x="18.75313" opacity="0.8" stroke-linecap="null" stroke-linejoin="null" stroke-dasharray="null" stroke-width="0" fill="#7f003f" font-weight="normal">Ms Fung Ming-chu</text>
  <text font-weight="normal" transform="matrix(0.9766826659350217,0,0,1.0892678085207093,186.7478974955329,179.25296345854585) " stroke="#000000" xml:space="preserve" text-anchor="middle" font-family="serif" font-size="24" id="svg_69" y="-76.31271" x="118.08327" stroke-linecap="null" stroke-linejoin="null" stroke-dasharray="null" stroke-width="0" fill="#3f007f">Introduction</text>
  <text font-weight="normal" id="svg_80" transform="matrix(0.9170167537980024,0,0,1.0302055903107026,136.35348232499302,-144.89217664419868) " stroke="#000000" xml:space="preserve" text-anchor="middle" font-family="serif" font-size="24" y="412.0232" x="171.45345" stroke-linecap="null" stroke-linejoin="null" stroke-dasharray="null" stroke-width="0" fill="#3f007f">Digital</text>
  <text font-weight="normal" transform="matrix(0.8619773862125233,0,0,1.124753295000985,200.92939554103356,160.49537915187844) " id="svg_87" stroke="#000000" xml:space="preserve" text-anchor="middle" font-family="serif" font-size="24" y="-69.9062" x="298.8979" stroke-linecap="null" stroke-linejoin="null" stroke-dasharray="null" stroke-width="0" fill="#3f007f">The prosperity of</text>
  <a xlink:href="https://youtu.be/7kBYCtyN9Ec" id="svg_26">
   <path stroke="#000000" fill="#ff7f00" stroke-width="0" stroke-dasharray="null" stroke-linejoin="null" stroke-linecap="null" d="m355.27154,187.68171c-8.26903,0 -14.97223,6.47597 -14.97223,14.46469c0,7.98872 6.7032,14.46469 14.97223,14.46469c8.26903,0 14.97222,-6.47597 14.97222,-14.46469c0,-7.98872 -6.70319,-14.46469 -14.97222,-14.46469zm-2.40541,24.14332l-3.64261,-3.52213l6.37355,-6.15749l-6.37355,-6.1575l3.64261,-3.51914l10.0172,9.67664l-10.0172,9.67962z" marker-mid="url(#se_marker_mid_svg_44)" id="svg_44"/>
  </a>
  <a xlink:href="https://www.youtube.com/watch?v=3kAKpclidmY&amp;index=8&amp;list=PLC6YZ5mMz0SwipCQB4lAiR5RnRYFG_bGa&amp;t=0s" id="svg_57">
   <path stroke="#000000" fill="#ff7f00" stroke-width="0" stroke-dasharray="null" stroke-linejoin="null" stroke-linecap="null" d="m520.77154,187.68171c-8.26903,0 -14.97223,6.47597 -14.97223,14.46469c0,7.98872 6.7032,14.46469 14.97223,14.46469c8.26903,0 14.97222,-6.47597 14.97222,-14.46469c0,-7.98872 -6.70319,-14.46469 -14.97222,-14.46469zm-2.40541,24.14332l-3.64261,-3.52213l6.37355,-6.15749l-6.37355,-6.1575l3.64261,-3.51914l10.0172,9.67664l-10.0172,9.67962z" marker-mid="url(#se_marker_mid_svg_44)" id="svg_43"/>
  </a>
  <a xlink:href="https://www.youtube.com/watch?v=N4HKaoS0Bh8&amp;index=2&amp;list=PLC6YZ5mMz0SwipCQB4lAiR5RnRYFG_bGa&amp;t=0s" id="svg_58">
   <path stroke="#000000" fill="#ff7f00" stroke-width="0" stroke-dasharray="null" stroke-linejoin="null" stroke-linecap="null" d="m677.27154,185.68172c-8.26903,0 -14.97223,6.47597 -14.97223,14.46469c0,7.98872 6.7032,14.46469 14.97223,14.46469c8.26903,0 14.97222,-6.47597 14.97222,-14.46469c0,-7.98872 -6.70319,-14.46469 -14.97222,-14.46469zm-2.40541,24.14331l-3.64261,-3.52212l6.37355,-6.1575l-6.37355,-6.15749l3.64261,-3.51914l10.0172,9.67663l-10.0172,9.67962z" marker-mid="url(#se_marker_mid_svg_44)" id="svg_42"/>
  </a>
  <a xlink:href="https://www.youtube.com/watch?v=-9mLD9-Feng&amp;index=7&amp;list=PLC6YZ5mMz0SwipCQB4lAiR5RnRYFG_bGa" id="svg_59">
   <path stroke="#000000" fill="#ff7f00" stroke-width="0" stroke-dasharray="null" stroke-linejoin="null" stroke-linecap="null" d="m355.27154,391.43171c-8.26903,0 -14.97223,6.47597 -14.97223,14.46469c0,7.98872 6.7032,14.46469 14.97223,14.46469c8.26903,0 14.97222,-6.47597 14.97222,-14.46469c0,-7.98872 -6.70319,-14.46469 -14.97222,-14.46469zm-2.40541,24.14332l-3.64261,-3.52213l6.37355,-6.15749l-6.37355,-6.1575l3.64261,-3.51914l10.0172,9.67664l-10.0172,9.67962z" marker-mid="url(#se_marker_mid_svg_41)" id="svg_41"/>
  </a>
  <a xlink:href="https://www.youtube.com/watch?v=tQBXKsbBoL4&amp;index=4&amp;list=PLC6YZ5mMz0SwipCQB4lAiR5RnRYFG_bGa" id="svg_70">
   <path stroke="#000000" fill="#ff7f00" stroke-width="0" stroke-dasharray="null" stroke-linejoin="null" stroke-linecap="null" d="m516.77154,391.43171c-8.26903,0 -14.97223,6.47597 -14.97223,14.46469c0,7.98872 6.7032,14.46469 14.97223,14.46469c8.26903,0 14.97222,-6.47597 14.97222,-14.46469c0,-7.98872 -6.70319,-14.46469 -14.97222,-14.46469zm-2.40541,24.14332c-1.2142,-1.17404 -2.42841,-2.34809 -3.64261,-3.52213l6.37355,-6.15749l-6.37355,-6.1575l3.64261,-3.51914l10.0172,9.67664l-10.0172,9.67962z" marker-mid="url(#se_marker_mid_svg_41)" id="svg_40"/>
  </a>
  <a xlink:href="https://www.youtube.com/watch?v=N6UHexmT3Wo" id="svg_71">
   <path stroke="#000000" fill="#ff7f00" stroke-width="0" stroke-dasharray="null" stroke-linejoin="null" stroke-linecap="null" d="m678.27154,390.43172c-8.26903,0 -14.97223,6.47597 -14.97223,14.46469c0,7.98872 6.7032,14.46469 14.97223,14.46469c8.26903,0 14.97222,-6.47597 14.97222,-14.46469c0,-7.98872 -6.70319,-14.46469 -14.97222,-14.46469zm-2.40541,24.14331l-3.64261,-3.52212l6.37355,-6.1575l-6.37355,-6.15749l3.64261,-3.51914l10.0172,9.67663l-10.0172,9.67962z" marker-mid="url(#se_marker_mid_svg_41)" id="svg_39"/>
  </a>
  <a xlink:href="https://www.youtube.com/watch?v=Al77PGsaHmM&amp;index=3&amp;list=PLC6YZ5mMz0SwipCQB4lAiR5RnRYFG_bGa&amp;t=0s" id="svg_72">
   <path stroke="#000000" fill="#ff7f00" stroke-width="0" stroke-dasharray="null" stroke-linejoin="null" stroke-linecap="null" d="m356.27154,594.68172c-8.26903,0 -14.97223,6.47597 -14.97223,14.46469c0,7.98872 6.7032,14.46469 14.97223,14.46469c8.26903,0 14.97222,-6.47597 14.97222,-14.46469c0,-7.98872 -6.70319,-14.46469 -14.97222,-14.46469zm-2.40541,24.14332l-3.64261,-3.52213l6.37355,-6.15749l-6.37355,-6.1575l3.64261,-3.51914l10.0172,9.67664l-10.0172,9.67962z" marker-mid="url(#se_marker_mid_svg_38)" id="svg_38"/>
  </a>
  <text xml:space="preserve" text-anchor="middle" font-family="serif" font-size="24" id="svg_83" y="542.0428" x="772.10043" stroke-linecap="null" stroke-linejoin="null" stroke-dasharray="null" stroke-width="0" stroke="#000000" fill="#3f3f3f"/>
  <g id="svg_180"/>
  <text font-weight="normal" id="svg_53" transform="matrix(0.8492287632078486,0,0,1.0976846947846948,2.7137070797099625,-246.1979354857267) " stroke="#000000" xml:space="preserve" text-anchor="middle" font-family="serif" font-size="24" y="298.53272" x="723.72573" stroke-linecap="null" stroke-linejoin="null" stroke-dasharray="null" stroke-width="0" fill="#3f007f">The Change of</text>
  <text font-weight="normal" id="svg_84" transform="matrix(0.9270740452445833,0,0,1.3374211581976818,5.371955076116256,-294.09960529987154) " stroke="#000000" xml:space="preserve" text-anchor="middle" font-family="serif" font-size="24" y="430.7791" x="490.95775" stroke-linecap="null" stroke-linejoin="null" stroke-dasharray="null" stroke-width="0" fill="#3f007f">Response to</text>
  <text font-weight="normal" id="svg_86" transform="matrix(0.8814902029911966,0,0,1.0698231190646,-14.361866303313342,-167.71987930706666) " stroke="#000000" xml:space="preserve" text-anchor="middle" font-family="serif" font-size="24" y="432.53509" x="725.29613" stroke-linecap="null" stroke-linejoin="null" stroke-dasharray="null" stroke-width="0" fill="#3f007f">Cultural Industry</text>
  <text transform="matrix(0.7280527701259416,0,0,0.8188012338468919,170.34399353135802,-17.237344596451262) " font-style="italic" xml:space="preserve" text-anchor="middle" font-family="serif" font-size="24" y="89.07273" x="873.42024" opacity="0.8" stroke-linecap="null" stroke-linejoin="null" stroke-dasharray="null" stroke-width="0" fill="#7f003f" id="svg_27">Speaker’s Biography</text>
  <text font-weight="normal" xml:space="preserve" text-anchor="middle" font-family="serif" font-size="24" y="377.08133" x="125.33118" opacity="0.8" stroke-linecap="null" stroke-linejoin="null" stroke-dasharray="null" stroke-width="0" fill="#7f003f" font-style="normal" transform="matrix(0.9301310181617737,0,0,0.8787878751754761,1.9475978687405586,24.759470434859395) " id="svg_25">3 November 2014</text>
  <text fill="#7f003f" stroke-width="0" stroke-dasharray="null" stroke-linejoin="null" stroke-linecap="null" x="-237.75481" y="73.45896" font-size="24" font-family="serif" text-anchor="middle" xml:space="preserve" font-weight="normal" transform="matrix(0.7783143398788989,0,0,1.0750654859081892,301.33255613187384,9.240667303199503) " id="svg_20">Development of National</text>
  <text font-weight="normal" xml:space="preserve" text-anchor="middle" font-family="serif" font-size="24" id="svg_18" y="499.32022" x="304.81152" stroke-linecap="null" stroke-linejoin="null" stroke-dasharray="null" stroke-width="0" fill="#3f007f" stroke="#000000">Reduce</text>
  <text transform="matrix(0.9738537008886538,0,0,0.9738537008886538,22.098413225350075,0.39527570266789436) " fill="#7f003f" stroke-width="0" stroke-dasharray="null" stroke-linejoin="null" stroke-linecap="null" x="94.02513" y="119.56198" font-size="24" font-family="serif" text-anchor="middle" xml:space="preserve" font-weight="normal" id="svg_1">Palace Museum over</text>
  <text stroke="#000000" fill="#ff7f00" stroke-width="0" stroke-dasharray="null" stroke-linejoin="null" stroke-linecap="null" x="302.60917" y="44.12774" font-size="24" font-family="serif" text-anchor="middle" xml:space="preserve" id="svg_2">Part 1-</text>
  <text font-weight="normal" transform="matrix(0.9496010768102466,0,0,0.9496010768102466,73.15560998863603,4.393758719708231) " fill="#3f007f" stroke-width="0" stroke-dasharray="null" stroke-linejoin="null" stroke-linecap="null" x="405.82216" y="111.13407" id="svg_24" font-size="24" font-family="serif" text-anchor="middle" xml:space="preserve" stroke="#000000">Palace Museum</text>
  <text font-weight="normal" xml:space="preserve" text-anchor="middle" font-family="serif" font-size="24" y="505.12753" x="468.2494" stroke-linecap="null" stroke-linejoin="null" stroke-dasharray="null" stroke-width="0" fill="#3f007f" stroke="#000000" id="svg_33">Conclusion</text>
  <a id="svg_91" xlink:href="http://newscentre.cityu.edu.hk/media/news/2014/11/14/fifty-years-challenges-taipeis-national-palace-museum">
   <text font-weight="bold" fill="#3f007f" stroke-width="0" stroke-dasharray="null" stroke-linejoin="null" stroke-linecap="null" x="701.52636" y="540.04104" font-size="24" font-family="serif" text-anchor="middle" xml:space="preserve" transform="matrix(0.6333917462449721,0,0,0.6333917462449721,182.07475342290036,198.45566598907575) " stroke="#000000" id="svg_89">for Taipei&#x27;s</text>
  </a>
  <a id="svg_92" xlink:href="http://newscentre.cityu.edu.hk/media/news/2014/11/14/fifty-years-challenges-taipeis-national-palace-museum">
   <text font-weight="bold" fill="#3f007f" stroke-width="0" stroke-dasharray="null" stroke-linejoin="null" stroke-linecap="null" x="703.82831" y="578.33715" id="svg_77" font-size="24" font-family="serif" text-anchor="middle" xml:space="preserve" transform="matrix(0.6333917462449721,0,0,0.6333917462449721,182.07475342290036,198.45566598907575) " stroke="#000000">National Palace Museum</text>
  </a>
  <a xlink:href="https://www.youtube.com/watch?v=sssowfdFg5w&amp;index=5&amp;list=PLC6YZ5mMz0SwipCQB4lAiR5RnRYFG_bGa" id="svg_34">
   <path stroke="#000000" fill="#ff7f00" stroke-width="0" stroke-dasharray="null" stroke-linejoin="null" stroke-linecap="null" d="m519.99999,594.5353c-8.26903,0 -14.97223,6.47597 -14.97223,14.46469c0,7.98872 6.7032,14.46469 14.97223,14.46469c8.26903,0 14.97222,-6.47597 14.97222,-14.46469c0,-7.98872 -6.70319,-14.46469 -14.97222,-14.46469zm-2.40541,24.14332l-3.64261,-3.52213l6.37355,-6.15749l-6.37355,-6.1575l3.64261,-3.51914l10.0172,9.67664l-10.0172,9.67962z" marker-mid="url(#se_marker_mid_svg_38)" id="svg_32"/>
  </a>
  <text id="svg_63" stroke="#000000" fill="#ff7f00" stroke-width="0" stroke-dasharray="null" stroke-linejoin="null" stroke-linecap="null" x="462.80757" y="40.77842" font-size="24" font-family="serif" text-anchor="middle" xml:space="preserve">Part 2-</text>
  <text id="svg_64" stroke="#000000" fill="#ff7f00" stroke-width="0" stroke-dasharray="null" stroke-linejoin="null" stroke-linecap="null" x="627.58862" y="42.33211" font-size="24" font-family="serif" text-anchor="middle" xml:space="preserve">Part 3-</text>
  <text id="svg_65" stroke="#000000" fill="#ff7f00" stroke-width="0" stroke-dasharray="null" stroke-linejoin="null" stroke-linecap="null" x="292.63444" y="245.85608" font-size="24" font-family="serif" text-anchor="middle" xml:space="preserve">Part 4-</text>
  <text id="svg_66" stroke="#000000" fill="#ff7f00" stroke-width="0" stroke-dasharray="null" stroke-linejoin="null" stroke-linecap="null" x="460.66785" y="245.49504" font-size="24" font-family="serif" text-anchor="middle" xml:space="preserve">Part 5-</text>
  <text id="svg_67" stroke="#000000" fill="#ff7f00" stroke-width="0" stroke-dasharray="null" stroke-linejoin="null" stroke-linecap="null" x="277.44891" y="-95.95128" font-size="24" font-family="serif" text-anchor="middle" xml:space="preserve" transform="matrix(0.8644731686330814,0,0,0.9884627754703824,374.41734654984646,338.5486629242865) ">Part 6-</text>
  <text id="svg_68" stroke="#000000" fill="#ff7f00" stroke-width="0" stroke-dasharray="null" stroke-linejoin="null" stroke-linecap="null" x="153.15002" y="55.05043" font-size="24" font-family="serif" text-anchor="middle" xml:space="preserve" transform="matrix(0.8632075508698371,0,0,0.9870156327569549,160.49688810304193,398.66955167969036) ">Part 7-</text>
  <text id="svg_73" stroke="#000000" fill="#ff7f00" stroke-width="0" stroke-dasharray="null" stroke-linejoin="null" stroke-linecap="null" x="157.81642" y="52.5381" font-size="24" font-family="serif" text-anchor="middle" xml:space="preserve" transform="matrix(0.8616874674772308,0,0,0.9852775269328287,328.2515113322992,397.98100407968434) ">Part 8-</text>
  <text id="svg_75" stroke="#000000" fill="#ff7f00" stroke-width="0" stroke-dasharray="null" stroke-linejoin="null" stroke-linecap="null" x="616.96827" y="451.01901" font-size="24" font-family="serif" text-anchor="middle" xml:space="preserve">News</text>
  <text font-weight="normal" id="svg_78" xml:space="preserve" text-anchor="middle" font-family="serif" font-size="24" y="502.52278" x="73.59459" stroke-linecap="null" stroke-linejoin="null" stroke-dasharray="null" stroke-width="0" fill="#3f007f" transform="matrix(1.0372679118458354,0,0,1.0372679118458354,41.2670518521994,-16.491678207035818) " stroke="#000000">Welcoming</text>
  <text font-weight="normal" xml:space="preserve" text-anchor="middle" font-family="serif" font-size="24" id="svg_81" y="519" x="301" stroke-linecap="null" stroke-linejoin="null" stroke-dasharray="null" stroke-width="0" stroke="#000000" fill="#3f007f">Overcapacity</text>
  <text font-weight="normal" stroke="#000000" transform="matrix(0.9805033525189799,0,0,0.9805033525189799,8.561896193622701,6.21306585330305) " xml:space="preserve" text-anchor="middle" font-family="serif" font-size="24" id="svg_82" y="308.96787" x="286.56184" stroke-linecap="null" stroke-linejoin="null" stroke-dasharray="null" stroke-width="0" fill="#3f007f">Technology</text>
  <text font-weight="normal" stroke="#000000" transform="matrix(1.1223241090774536,0,0,1.1223241090774536,-43.75380476564169,-35.10701930522919) " xml:space="preserve" text-anchor="middle" font-family="serif" font-size="24" id="svg_85" y="309.78202" x="450.18529" stroke-linecap="null" stroke-linejoin="null" stroke-dasharray="null" stroke-width="0" fill="#3f007f">social needs</text>
  <text id="svg_88" font-weight="normal" transform="matrix(0.9496010768102465,0,0,0.9496010768102465,209.64000024742506,196.98335832908322) " fill="#3f007f" stroke-width="0" stroke-dasharray="null" stroke-linejoin="null" stroke-linecap="null" x="434.25515" y="-92.10917" font-size="24" font-family="serif" text-anchor="middle" xml:space="preserve" stroke="#000000">Palace Museum</text>
  <a xlink:href="https://youtu.be/xYhVHjSTViE" id="svg_94">
   <path id="svg_76" stroke="#000000" fill="#ff7f00" stroke-width="0" stroke-dasharray="null" stroke-linejoin="null" stroke-linecap="null" d="m177.50186,590.08702c-8.26903,0 -14.97223,6.47597 -14.97223,14.46469c0,7.98872 6.7032,14.46469 14.97223,14.46469c8.26903,0 14.97222,-6.47597 14.97222,-14.46469c0,-7.98872 -6.70319,-14.46469 -14.97222,-14.46469zm-2.40541,24.14332l-3.64261,-3.52213l6.37355,-6.15749l-6.37355,-6.1575l3.64261,-3.51914l10.0172,9.67664l-10.0172,9.67962z" marker-mid="url(#se_marker_mid_svg_38)"/>
  </a>
  <text transform="matrix(0.8869369029998778,0,0,0.9230769276618958,12.11267015337944,-9.923077583312985) " id="svg_19" fill="#7f003f" stroke-width="0" stroke-dasharray="null" stroke-linejoin="null" stroke-linecap="null" x="116.48916" y="165.01443" font-size="24" font-family="serif" text-anchor="middle" xml:space="preserve" font-weight="normal">the last 50 Years</text>
  <a xlink:href="http://newscentre.cityu.edu.hk/media/news/2014/11/14/fifty-years-challenges-taipeis-national-palace-museum" id="svg_21">
   <text stroke="#000000" transform="matrix(0.6731147386667614,0,0,0.9235453999644323,145.18083561074917,32.997230193966686) " font-weight="bold" fill="#3f007f" stroke-width="0" stroke-dasharray="null" stroke-linejoin="null" stroke-linecap="null" x="713.06332" y="519.04123" id="svg_62" font-size="24" font-family="serif" text-anchor="middle" xml:space="preserve">50years of challenges</text>
  </a>
 </g>
</svg>