<svg width="905" height="640.0000000000002" xmlns="http://www.w3.org/2000/svg" xmlns:svg="http://www.w3.org/2000/svg" xmlns:xlink="http://www.w3.org/1999/xlink">
 <!-- Created with SVG-edit - http://svg-edit.googlecode.com/ -->
 <title>Why do organisms develop resistance to drugs? A physics perspective</title>
 <defs>
  <marker refY="50" refX="50" markerHeight="5" markerWidth="5" viewBox="0 0 100 100" orient="auto" markerUnits="strokeWidth" id="se_marker_mid_svg_36">
   <path stroke-width="10" fill="#000000" d="m100,50l-100,40l30,-40l-30,-40l100,40z" id="svg_1" stroke="#000000"/>
  </marker>
  <marker refY="50" refX="50" markerHeight="5" markerWidth="5" viewBox="0 0 100 100" orient="auto" markerUnits="strokeWidth" id="se_marker_mid_svg_41">
   <path stroke-width="10" fill="#000000" d="m100,50l-100,40l30,-40l-30,-40l100,40z" id="svg_4" stroke="#000000"/>
  </marker>
  <marker refY="50" refX="50" markerHeight="5" markerWidth="5" viewBox="0 0 100 100" orient="auto" markerUnits="strokeWidth" id="se_marker_mid_svg_44">
   <path stroke-width="10" fill="#000000" d="m100,50l-100,40l30,-40l-30,-40l100,40z" id="svg_6" stroke="#000000"/>
  </marker>
  <pattern id="gridpattern" patternUnits="userSpaceOnUse" x="0" y="0" width="100" height="100">
   <image id="svg_7" x="0" y="0" width="100" height="100"/>
  </pattern>
 </defs>
  












 <g display="inline" stroke="null">
  <rect id="svg_5" fill="#ffaaff" stroke-width="0" x="383.55557" y="15.85186" width="160" height="200.99998" opacity="0.3" stroke="#000000"/>
  <rect id="svg_10" fill="#ffaaff" stroke-width="0" x="219.00001" y="16.85187" width="160" height="201" opacity="0.3" stroke="#000000"/>
  <rect id="svg_11" fill="#ffaaff" stroke-width="0" x="547.11112" y="15.85188" width="160" height="200.99998" opacity="0.3" stroke="#000000"/>
  <rect id="svg_12" fill="#ffaaff" stroke-width="0" x="383.55556" y="222.40743" width="160" height="200.99998" opacity="0.3" stroke="#000000"/>
  <rect id="svg_13" fill="#ffaaff" stroke-width="0" x="219.00001" y="223.40742" width="160" height="199.00002" opacity="0.3" stroke="#000000"/>
  <rect id="svg_14" fill="#ffaaff" stroke-width="0" x="547.11112" y="222.40744" width="160" height="200.99998" opacity="0.3" stroke="#000000"/>
  <rect stroke="#000000" id="svg_16" fill="#ffaaff" stroke-width="0" x="219.88809" y="427.60942" width="486.24995" height="197.77622" opacity="0.3"/>
  <rect fill="#ffaaff" stroke-width="0" x="15.94447" y="16.85182" width="199.11107" height="611.11114" opacity="0.3" id="svg_8" stroke="#000000"/>
  <rect stroke="#000000" fill="#ffaaff" stroke-width="0" x="713.30555" y="14.8519" width="177.77774" height="607.6157" opacity="0.3" id="svg_9"/>
  <rect stroke="#000000" fill="#d4aaff" stroke-width="0" stroke-dasharray="null" stroke-linejoin="null" stroke-linecap="null" x="20.19167" y="176.04468" width="95.56393" height="32" id="svg_21" stroke-opacity="0"/>
  <rect stroke="#000000" fill="#d4aaff" stroke-width="0" stroke-dasharray="null" stroke-linejoin="null" stroke-linecap="null" x="730.58459" y="44.83396" width="158.58224" height="33.28736" id="svg_22" stroke-opacity="0"/>
 </g>
 <g display="inline" stroke="null">
  <title>Speaker's photo</title>
  <image xlink:href="https://c1.staticflickr.com/5/4514/37374160014_14f3c447ee_o.png" id="svg_33" height="96" width="76" y="71.33333" x="24.33333"/></g>
  <g display="inline" stroke="null">
  <title>Welcoming photo</title>
  <image x="37.5" y="506.74999" width="162" height="100.00001" id="svg_52" xlink:href="https://farm5.staticflickr.com/4243/34750364200_fae46fc74e_b.jpg"/></g>
  <g display="inline" stroke="null">
  <title>Part 1 photo</title>
  <image x="223" y="101.25" width="153" height="117" id="svg_60" xlink:href="https://farm5.staticflickr.com/4231/34750363610_3c81bfaaca_b.jpg"/></g>
  <g display="inline" stroke="null">
  <title>Part 2 photo</title>
  <image x="377.24999" y="109.25" width="176" height="101" id="svg_67" xlink:href="https://farm5.staticflickr.com/4274/35006057331_573cac0523_b.jpg"/></g>
  <g display="inline" stroke="null">
  <title>Part 3 photo</title>
  <image x="555.25001" y="110.25002" width="152.99999" height="100.99998" id="svg_68" xlink:href="https://farm5.staticflickr.com/4230/35006057151_fa284b2eaf_b.jpg"/></g>
  <g display="inline" stroke="null">
  <title>Part 4 photo</title>
  <image x="219.24997" y="316.25" width="159.00002" height="103" id="svg_75" xlink:href="https://farm5.staticflickr.com/4273/35006056641_3b93595911_b.jpg"/></g>
  <g display="inline" stroke="null">
  <title>Part 5 photo</title>
  <image x="382.99998" y="315.5" width="162.00004" height="102" xlink:href="https://farm5.staticflickr.com/4269/35006057111_169a44e4bb_b.jpg" id="svg_72"/></g>
  <g display="inline" stroke="null">
  <title>Part 6 photo</title>
  <image x="554.00001" y="311.74998" width="151.99999" height="109.00002" id="svg_78" xlink:href="https://farm5.staticflickr.com/4240/35006055761_b8e16aa97b_b.jpg"/></g>
  <g display="inline" stroke="null">
  <title>Speaker's photo</title>
  <image x="717" y="521.00003" width="172.99999" height="90.99997" id="svg_15" xlink:href="https://farm5.staticflickr.com/4231/34750363610_3c81bfaaca_b.jpg"/>
 </g>
 <g display="inline" stroke="null">
  <title>Why do organisms develop resistance</title>
  <text transform="matrix(0.5171513462795212,0,0,1.0283610889888337,222.51939150581953,25.404259781602363) " font-weight="normal" xml:space="preserve" text-anchor="middle" font-family="Cursive" font-size="24" id="svg_45" y="13.98584" x="-205.47075" stroke-linecap="null" stroke-linejoin="null" stroke-dasharray="null" stroke-width="0" fill="#ff007f" opacity="0.85">Why do organisms develop resistance</text></g>
  <g display="inline" stroke="null">
  <title>Speaker</title>
  <text transform="matrix(0.8406476094579095,0,0,0.8696967485759515,131.8161622722508,11.668342329910757) " font-style="italic" fill="#00007f" stroke-width="0" stroke-dasharray="null" stroke-linejoin="null" stroke-linecap="null" opacity="0.8" x="758.25262" y="63.98674" id="svg_25" font-size="24" font-family="serif" text-anchor="middle" xml:space="preserve" stroke="null">Speaker&#x27;s</text></g>
  <g display="inline" stroke="null">
  <title>Abstract</title>
  <text fill="#00007f" stroke-width="0" stroke-dasharray="null" stroke-linejoin="null" stroke-linecap="null" opacity="0.8" x="79.95282" y="182.59739" id="svg_27" font-size="24" font-family="serif" text-anchor="middle" xml:space="preserve" transform="matrix(0.8712908761122634,0,0,0.9110834388312584,-3.0226665376568,32.56104403430815) " font-style="italic" stroke="null">Abstract</text></g>
  <g display="inline" stroke="null">
  <title>Further Reading</title>
  <text fill="#00007f" stroke-width="0" stroke-dasharray="null" stroke-linejoin="null" stroke-linecap="null" opacity="0.8" x="70.92639" y="443.43026" id="svg_28" font-size="24" font-family="serif" text-anchor="middle" xml:space="preserve" transform="translate(388.8465576171875,441.1921691894531) scale(1.0136302709579468,0.8249392509460449) translate(-388.8465576171875,-441.1921691894531) translate(888.8558959960938,436.2577209472656) scale(0.9734276533126831,1) translate(-888.8558959960938,-436.2577209472656) translate(889.87255859375,504.8636779785156) scale(1) translate(-889.87255859375,-504.8636779785156) translate(889.914306640625,505.77667236328125) scale(1.0139044523239136,1.3043327331542969) translate(-889.914306640625,-505.77667236328125) translate(888.4232177734375,504.6651611328125) scale(1) translate(-888.4232177734375,-504.6651611328125) translate(888.3218994140625,504.255126953125) scale(0.9399330019950867,0.7570223808288574) translate(-888.3218994140625,-504.255126953125) translate(888.0772705078125,504.109619140625) scale(0.8550723195075989,0.9137715697288513) translate(-888.0772705078125,-504.109619140625) matrix(1.0937924253894378,0,0,1.0937924253894378,71.03591400341189,-39.500754610857044) " font-style="italic" stroke="null">Further Reading</text></g>
  <g display="inline" stroke="null">
  <title>Prof. Robert Austin</title>
  <text fill="#ff007f" stroke-width="0" stroke-dasharray="null" stroke-linejoin="null" stroke-linecap="null" opacity="0.3" x="375.23786" y="213.39373" id="svg_31" font-size="24" font-family="serif" text-anchor="middle" xml:space="preserve" transform="matrix(0.5668138642583386,0,0,0.6961692368810831,-51.720005049054336,-6.245550738214618) " stroke="#000000">Prof. Robert Austin</text></g>
  <g display="inline" stroke="null">
  <title>Part 1</title>
  <text transform="matrix(0.634769334901046,0,0,0.78987090619682,228.02555015793402,166.07136306161743) " xml:space="preserve" text-anchor="middle" font-family="serif" font-size="24" y="-134.72481" x="114.06111" stroke-linecap="null" stroke-linejoin="null" stroke-dasharray="null" stroke-width="0" fill="#ff007f" id="svg_61" stroke="#000000">Part 1-</text></g>
  <g display="inline" stroke="null">
  <title>Part 2</title>
  <text transform="matrix(0.600763977848851,0,0,0.7453861250199468,290.6591053013303,164.38684325759198) " xml:space="preserve" text-anchor="middle" font-family="serif" font-size="24" y="-141.84379" x="281.96488" stroke-linecap="null" stroke-linejoin="null" stroke-dasharray="null" stroke-width="0" fill="#ff007f" id="svg_62" stroke="#000000">Part 2-</text></g>
  <g display="inline" stroke="null">
  <title>Part 3</title>
  <text transform="matrix(0.6608080620464305,0,0,0.7512174732600294,249.35979756207172,157.6723258609876) " xml:space="preserve" text-anchor="middle" font-family="serif" font-size="24" y="-132.80418" x="576.42941" stroke-linecap="null" stroke-linejoin="null" stroke-dasharray="null" stroke-width="0" fill="#ff007f" id="svg_63" stroke="#000000">Part 3-</text>
  </g>
  <g display="inline" stroke="null">
  <title>Part 4</title>
  <text transform="matrix(0.6472429133482213,0,0,0.727155982838545,121.20784125565658,78.80754939306985) " xml:space="preserve" text-anchor="middle" font-family="serif" font-size="24" y="257.80212" x="265.50744" stroke-linecap="null" stroke-linejoin="null" stroke-dasharray="null" stroke-width="0" fill="#ff007f" id="svg_64" stroke="#000000">Part 4-</text></g>
  <g display="inline" stroke="null">
  <title>Part 5</title>
  <text transform="matrix(0.6941464307992663,0,0,0.6810612733782287,125.76246936946748,74.46288786766769) " xml:space="preserve" text-anchor="middle" font-family="serif" font-size="24" y="279.42701" x="468.8245" stroke-linecap="null" stroke-linejoin="null" stroke-dasharray="null" stroke-width="0" fill="#ff007f" id="svg_65" stroke="#000000">Part 5-</text></g>
  <g display="inline" stroke="null">
  <title>Part 6</title>
  <text transform="matrix(0.5777883342685483,0,0,0.6697004899254922,235.25677903331967,85.79389496331713) " xml:space="preserve" text-anchor="middle" font-family="serif" font-size="24" y="268.37795" x="668.54156" stroke-linecap="null" stroke-linejoin="null" stroke-dasharray="null" stroke-width="0" fill="#ff007f" id="svg_66" stroke="#000000">Part 6-</text>
  </g>
  <g display="inline" stroke="null">
  <title>Welcoming</title>
  <text fill="#ff0000" stroke-width="0" stroke-dasharray="null" stroke-linejoin="null" stroke-linecap="null" x="-145.6719" y="396.6712" id="svg_69" font-size="24" font-family="serif" text-anchor="middle" xml:space="preserve" transform="matrix(0.9010375875013571,0,0,1.0322026338576793,209.0833828419511,83.132093812472) " stroke="#000000" opacity="0.45">Welcoming</text></g>
  <g display="inline" stroke="null">
  <title>Darwin, Evolution</title>
  <text fill="#ff0000" stroke-width="0" stroke-dasharray="null" stroke-linejoin="null" stroke-linecap="null" x="643.74457" y="196.74424" font-size="24" font-family="serif" text-anchor="middle" xml:space="preserve" transform="matrix(0.6171267284657039,0,0,0.7322520773162635,236.01875408023685,-62.14830149451965) " id="svg_80" font-weight="normal" stroke="#000000" opacity="0.45">Darwin, Evolution</text></g>
  <g display="inline" stroke="null">
  <title>'why' Question in Biology</title>
  <text fill="#ff0000" stroke-width="0" stroke-dasharray="null" stroke-linejoin="null" stroke-linecap="null" x="643.85942" y="333.85431" font-size="24" font-family="serif" text-anchor="middle" xml:space="preserve" transform="matrix(0.5490160881889837,0,0,0.7549880240954899,110.19862699584269,-169.42135041090518) " id="svg_82" stroke="#000000" opacity="0.45">‘Why’ Question in Biology</text></g>
  <g display="inline" stroke="null">
  <title>Introducing to Genome</title>
  <text fill="#ff0000" stroke-width="0" stroke-dasharray="null" stroke-linejoin="null" stroke-linecap="null" x="199.50429" y="-64.65145" font-size="24" font-family="serif" text-anchor="middle" xml:space="preserve" transform="matrix(0.5426504241737072,0,0,0.8279891769365144,193.5150541516867,136.63511876931952) " id="svg_87" stroke="#000000" opacity="0.45">Introducing to Genome</text></g>
  <g display="inline" stroke="null">
  <title>Q&amp;A</title>
  <text fill="#ff0000" stroke-width="0" stroke-dasharray="null" stroke-linejoin="null" stroke-linecap="null" x="643.66968" y="304.09536" font-size="24" font-family="serif" text-anchor="middle" xml:space="preserve" transform="matrix(0.6821372892505824,0,0,0.7374258260376473,187.60253928410984,66.96814871103703) " id="svg_56" stroke="#000000" opacity="0.45">Q&amp;A</text></g>
  <g display="inline" stroke="null">
      <title>Click to watch welcoming's video</title>
  <a id="svg_26" xlink:href="https://youtu.be/ep3vmu2iV4Y" stroke="null">
   <path id="svg_44" marker-mid="url(#se_marker_mid_svg_44)" d="m57.27154,575.18171c-8.26903,0 -14.97223,6.47597 -14.97223,14.46469c0,7.98872 6.7032,14.46469 14.97223,14.46469c8.26903,0 14.97222,-6.47597 14.97222,-14.46469c0,-7.98872 -6.70319,-14.46469 -14.97222,-14.46469zm-2.40541,24.14332l-3.64261,-3.52213l6.37355,-6.15749l-6.37355,-6.1575l3.64261,-3.51914l10.0172,9.67664l-10.0172,9.67962z" stroke-linecap="null" stroke-linejoin="null" stroke-dasharray="null" stroke-width="0" fill="#ff007f" stroke="#000000"/>
  </a></g>
   <g display="inline" stroke="null">
      <title>Click to watch Part 1's video</title>
  <a id="svg_57" xlink:href="https://youtu.be/a0b7EBJ9xRM" stroke="null">
   <path id="svg_43" marker-mid="url(#se_marker_mid_svg_44)" d="m241.02154,176.68171c-8.26903,0 -14.97223,6.47597 -14.97223,14.46469c0,7.98872 6.7032,14.46469 14.97223,14.46469c8.26903,0 14.97222,-6.47597 14.97222,-14.46469c0,-7.98872 -6.70319,-14.46469 -14.97222,-14.46469zm-2.40541,24.14332l-3.64261,-3.52213l6.37355,-6.15749l-6.37355,-6.1575l3.64261,-3.51914l10.0172,9.67664l-10.0172,9.67962z" stroke-linecap="null" stroke-linejoin="null" stroke-dasharray="null" stroke-width="0" fill="#ff007f" stroke="#000000"/>
  </a></g>
   <g display="inline" stroke="null">
      <title>Click to watch Part 2's video</title>
  <a id="svg_58" xlink:href="https://youtu.be/UTxU5RJ5AQs" stroke="null">
   <path id="svg_42" marker-mid="url(#se_marker_mid_svg_44)" d="m408.77154,172.93172c-8.26903,0 -14.97223,6.47597 -14.97223,14.46469c0,7.98872 6.7032,14.46469 14.97223,14.46469c8.26903,0 14.97222,-6.47597 14.97222,-14.46469c0,-7.98872 -6.70319,-14.46469 -14.97222,-14.46469zm-2.40541,24.14331l-3.64261,-3.52212l6.37355,-6.1575l-6.37355,-6.15749l3.64261,-3.51914l10.0172,9.67663l-10.0172,9.67962z" stroke-linecap="null" stroke-linejoin="null" stroke-dasharray="null" stroke-width="0" fill="#ff007f" stroke="#000000"/>
  </a></g>
   <g display="inline" stroke="null">
      <title>Click to watch Part 3's video</title>
  <a id="svg_59" xlink:href="https://youtu.be/KoNPTdB2oeM" stroke="null">
   <path id="svg_41" marker-mid="url(#se_marker_mid_svg_41)" d="m579.02154,174.43071c-8.26903,0 -14.97223,6.47597 -14.97223,14.46469c0,7.98872 6.7032,14.46469 14.97223,14.46469c8.26903,0 14.97222,-6.47597 14.97222,-14.46469c0,-7.98872 -6.70319,-14.46469 -14.97222,-14.46469zm-2.40541,24.14332l-3.64261,-3.52213l6.37355,-6.15749l-6.37355,-6.1575l3.64261,-3.51914l10.0172,9.67664l-10.0172,9.67962z" stroke-linecap="null" stroke-linejoin="null" stroke-dasharray="null" stroke-width="0" fill="#ff007f" stroke="#000000"/>
  </a></g>
   <g display="inline" stroke="null">
      <title>Click to watch Part 4's video</title>
  <a id="svg_70" xlink:href="https://youtu.be/8S9qu7uOgCU" stroke="null">
   <path id="svg_40" marker-mid="url(#se_marker_mid_svg_41)" d="m240.02154,385.93071c-8.26903,0 -14.97223,6.47597 -14.97223,14.46469c0,7.98872 6.7032,14.46469 14.97223,14.46469c8.26903,0 14.97222,-6.47597 14.97222,-14.46469c0,-7.98872 -6.70319,-14.46469 -14.97222,-14.46469zm-2.40541,24.14332c-1.2142,-1.17404 -2.42841,-2.34809 -3.64261,-3.52213l6.37355,-6.15749l-6.37355,-6.1575l3.64261,-3.51914l10.0172,9.67664l-10.0172,9.67962z" stroke-linecap="null" stroke-linejoin="null" stroke-dasharray="null" stroke-width="0" fill="#ff007f" stroke="#000000"/>
  </a></g>
   <g display="inline" stroke="null">
      <title>Click to watch Part 5's video</title>
  <a id="svg_71" xlink:href="https://youtu.be/aENPqsD1Qnw" stroke="null">
   <path id="svg_39" marker-mid="url(#se_marker_mid_svg_41)" d="m408.52154,385.09839c-8.26903,0 -14.97223,6.47597 -14.97223,14.46469c0,7.98872 6.7032,14.46469 14.97223,14.46469c8.26903,0 14.97222,-6.47597 14.97222,-14.46469c0,-7.98872 -6.70319,-14.46469 -14.97222,-14.46469zm-2.40541,24.14331l-3.64261,-3.52212l6.37355,-6.1575l-6.37355,-6.15749l3.64261,-3.51914l10.0172,9.67663l-10.0172,9.67962z" stroke-linecap="null" stroke-linejoin="null" stroke-dasharray="null" stroke-width="0" fill="#ff007f" stroke="#000000"/>
  </a></g>
   <g display="inline" stroke="null">
      <title>Click to watch Part 6's video</title>
  <a id="svg_74" xlink:href="https://youtu.be/dutB1C1HB4U" stroke="null">
   <path stroke="#000000" marker-mid="url(#se_marker_mid_svg_36)" id="svg_36" d="m576.43821,384.50807c-8.26903,0 -14.97222,6.47597 -14.97222,14.46469c0,7.98872 6.7032,14.46469 14.97222,14.46469c8.26903,0 14.97222,-6.47597 14.97222,-14.46469c0,-7.98872 -6.7032,-14.46469 -14.97222,-14.46469zm-2.4054,24.14331l-3.64262,-3.52212l6.37355,-6.1575l-6.37355,-6.1575l3.64262,-3.51914l10.01719,9.67663l-10.01719,9.67962l0,0.00001z" stroke-linecap="null" stroke-linejoin="null" stroke-dasharray="null" stroke-width="0" fill="#ff007f"/>
  </a></g>
  <text fill="#3f3f3f" stroke-width="0" stroke-dasharray="null" stroke-linejoin="null" stroke-linecap="null" x="772.10043" y="542.0428" id="svg_83" font-size="24" font-family="serif" text-anchor="middle" xml:space="preserve" stroke="#000000"/>
  <g id="svg_180" stroke="null"/>
  <g display="inline" stroke="null">
  <title>The Death Galaxy</title>
  <text fill="#ff0000" stroke-width="0" stroke-dasharray="null" stroke-linejoin="null" stroke-linecap="null" x="289.54831" y="413.62446" font-size="24" font-family="serif" text-anchor="middle" xml:space="preserve" transform="matrix(0.6149535029396007,0,0,0.7611439914525571,117.41458496689668,-22.18206159064134) " id="svg_34" font-weight="normal" stroke="#000000" opacity="0.45">The Death Galaxy</text></g>
  <g display="inline" stroke="null">
  <title>Cancer</title>
  <text fill="#ff0000" stroke-width="0" stroke-dasharray="null" stroke-linejoin="null" stroke-linecap="null" x="533.24962" y="396.18317" font-size="24" font-family="serif" text-anchor="middle" xml:space="preserve" transform="matrix(0.7561013844671927,0,0,0.8144846311715226,51.975720286544274,-32.04616451064461) " id="svg_46" stroke="#000000" opacity="0.45">Cancer</text></g>
  <g display="inline" stroke="null">
  <title>Biography</title>
  <text fill="#00007f" stroke-width="0" stroke-dasharray="null" stroke-linejoin="null" stroke-linecap="null" x="1932.18857" y="-43.85909" id="svg_49" font-size="24" font-family="serif" text-anchor="middle" xml:space="preserve" font-style="italic" transform="matrix(0.7681051001511282,0,0,0.8530227157745391,-636.4639586873427,105.59283439791079) " opacity="0.8" stroke="null">Biography</text></g>
  <g display="inline" stroke="null">
  <title>21 March 2012</title>
  <text id="svg_73" fill="#ff007f" stroke-width="0" stroke-dasharray="null" stroke-linejoin="null" stroke-linecap="null" opacity="0.3" x="207.15779" y="237.54348" font-size="24" font-family="serif" text-anchor="middle" xml:space="preserve" transform="matrix(0.6224283641523869,0,0,0.6606978925284552,31.496374405583524,5.421773110995453) " stroke="#000000">21 March 2012</text></g>
  <g display="inline" stroke="null">
  <title>to drugs? A physics perspective</title>
  <text id="svg_38" transform="matrix(0.5744411614925213,0,0,0.9813421680975734,264.81651975814225,20.946376737108096) " font-weight="normal" xml:space="preserve" text-anchor="middle" font-family="Cursive" font-size="24" y="43.01422" x="-265.10848" stroke-linecap="null" stroke-linejoin="null" stroke-dasharray="null" stroke-width="0" fill="#ff007f" opacity="0.85">to drugs? A physics perspective</text>
 </g>
 <g display="inline" stroke="null">
  <title>1.  Physicists, biologists unite to expose how cancer spreads</title>
  <text font-weight="normal" transform="matrix(0.5364133322344957,0,0,0.8224516270193158,434.2265316150816,81.92795169391995) " xml:space="preserve" text-anchor="middle" font-family="serif" font-size="24" id="svg_47" y="484.82382" x="-106.87577" stroke-linecap="null" stroke-linejoin="null" stroke-dasharray="null" stroke-width="0" fill="#7f3f00" stroke="null">1.  Physicists, biologists unite to expose how cancer spreads</text></g>
  <g display="inline" stroke="null">
  <title>https://www.princeton.edu/news/2013/04/26/physicists-biologists-unite-expose-how-cancer-spreads?section=topstories</title>
  <text font-weight="normal" transform="matrix(0.3862989939541877,0,0,0.635625305300885,161.88334674421304,176.96709288959073) " xml:space="preserve" text-anchor="middle" font-family="serif" font-size="24" id="svg_50" y="519.62579" x="752.02987" stroke-linecap="null" stroke-linejoin="null" stroke-dasharray="null" stroke-width="0" fill="#7f3f00" stroke="null">https://www.princeton.edu/news/2013/04/26/physicists-biologists-unite-expose-how-cancer-spreads?section=topstories</text></g>
  <g display="inline" stroke="null">
  <title>2. 2014 Max Delbruck Prize in Biological Physics Recipient</title>
  <text font-weight="normal" transform="matrix(0.4685758584026889,0,0,0.8006122048886855,251.05365221963905,102.01457500220451) " xml:space="preserve" text-anchor="middle" font-family="serif" font-size="24" id="svg_53" y="542.18735" x="234.09244" stroke-linecap="null" stroke-linejoin="null" stroke-dasharray="null" stroke-width="0" fill="#7f3f00" stroke="null">2. 2014 Max Delbruck Prize in Biological Physics Recipient</text></g>
   <g display="inline" stroke="null">
  <title>http://www.aps.org/programs/honors/prizes/prizerecipient.cfm?last_nm=Austin&amp;first_nm=Robert&amp;year=2014</title>
  <text font-weight="normal" transform="matrix(0.42901223608943334,0,0,0.5203376986274568,202.9159753148948,262.95290427484906) " xml:space="preserve" text-anchor="middle" font-family="serif" font-size="24" id="svg_55" y="571.30144" x="605.20901" stroke-linecap="null" stroke-linejoin="null" stroke-dasharray="null" stroke-width="0" fill="#7f3f00" stroke="null">http://www.aps.org/programs/honors/prizes/prizerecipient.cfm?last_nm=Austin&amp;first_nm=Robert&amp;year=2014</text></g>
  <g display="inline" stroke="null">
  <title>Professor Robert H. Austin 
received his B.A. in Physics 
from Hope College in 
Holland, Michigan and his 
Ph.D. in Physics from the 
University of Illinois 
Champaign-Urbana in 1975. 
He did a post-doc at the 
Max Planck Institute for 
Biophysical Chemistry from 
1976–1979 and has been 
with the Department of 
Physics of Princeton 
University from 1979 to the 
present, achieving the rank 
of Professor of Physics in 
1989. He is a Fellow of the 
American Physical Society. 
He won the 2005 Edgar 
Lilienfeld Prize of the 
American Physical Society.
</title>
  <image xlink:href="https://c1.staticflickr.com/5/4506/38056126002_bd6676ab45_o.png" id="svg_19" height="380.18996" width="185.14853" y="88.96821" x="710.77577"/></g>
  <g display="inline" stroke="null">
  <title>One of the great funda
-mental problems facing 
modern medicine is the 
seemingly inevitable 
emergence of resistance 
to drugs such as 
antibiotics by bacteria, or 
the resistance to chemot
-herapy by cancer cells. 
We seem to be involved 
in an arms race which we 
are at best keeping pace, 
like the Red Queen. 
</title>
  <image xlink:href="https://c1.staticflickr.com/5/4465/38087247531_35cfdc1422_o.png" id="svg_23" height="256.71881" width="186.97358" y="207.89916" x="17.99974"/></g>
   <g display="inline" stroke="null">
  <title>3. Bacteria band together to beat the system</title>
  <text font-weight="normal" transform="matrix(0.4661366823244304,0,0,0.8246609513798526,251.56489489527738,89.78803723104727) " xml:space="preserve" text-anchor="middle" font-family="serif" font-size="24" y="600.54378" x="160.77619" stroke-linecap="null" stroke-linejoin="null" stroke-dasharray="null" stroke-width="0" fill="#7f3f00" stroke="null" id="svg_2">3. Bacteria band together to beat the system</text></g>
  <g display="inline" stroke="null">
  <title>http://physicsworld.com/cws/article/news/2010/may/05/bacteria-band-together-to-beat-the-system</title>
  <text font-weight="normal" transform="matrix(0.4430207297819772,0,0,0.6155175631980164,202.28375999153863,209.1724600964805) " xml:space="preserve" text-anchor="middle" font-family="serif" font-size="24" y="644.02981" x="553.52016" stroke-linecap="null" stroke-linejoin="null" stroke-dasharray="null" stroke-width="0" fill="#7f3f00" stroke="null" id="svg_3">http://physicsworld.com/cws/article/news/2010/may/05/bacteria-band-together-to-beat-the-system</text>
 </g>
</svg>