<svg width="905" height="640.0000000000002" xmlns="http://www.w3.org/2000/svg" xmlns:svg="http://www.w3.org/2000/svg" xmlns:xlink="http://www.w3.org/1999/xlink">
 <!-- Created with SVG-edit - http://svg-edit.googlecode.com/ -->
 <title/>
 <defs>
  <marker id="se_marker_mid_svg_41" markerUnits="strokeWidth" orient="auto" viewBox="0 0 100 100" markerWidth="5" markerHeight="5" refX="50" refY="50">
   <path stroke="#000000" id="svg_4" d="m100,50l-100,40l30,-40l-30,-40l100,40z" fill="#000000" stroke-width="10"/>
  </marker>
  <marker id="se_marker_mid_svg_44" markerUnits="strokeWidth" orient="auto" viewBox="0 0 100 100" markerWidth="5" markerHeight="5" refX="50" refY="50">
   <path stroke="#000000" id="svg_6" d="m100,50l-100,40l30,-40l-30,-40l100,40z" fill="#000000" stroke-width="10"/>
  </marker>
  <pattern height="100" width="100" y="0" x="0" patternUnits="userSpaceOnUse" id="gridpattern">
   <image height="100" width="100" y="0" x="0" id="svg_7"/>
  </pattern>
 </defs>
 
 <g stroke="null" display="inline">
  <title>色塊</title>
  <rect opacity="0.3" height="201.00001" width="157" y="220.40742" x="222.00001" stroke-width="0" fill="#007f7f" id="svg_13" stroke="#000000"/>
  <rect stroke="#000000" opacity="0.3" height="198.43338" width="322.98009" y="425.52957" x="382.95863" stroke-width="0" fill="#007f7f" id="svg_15"/>
  <rect stroke="#000000" id="svg_8" opacity="0.3" height="611.11114" width="199.11107" y="16.85182" x="15.94447" stroke-width="0" fill="#007f7f"/>
  <rect stroke="#000000" id="svg_9" opacity="0.3" height="607.61572" width="177.77774" y="16.8519" x="712.05555" stroke-width="0" fill="#007f7f"/>
  <rect stroke="#000000" id="svg_21" height="29" width="87.81393" y="181.62801" x="18.19167" stroke-linecap="null" stroke-linejoin="null" stroke-dasharray="null" stroke-width="0" fill="#007f7f"/>
  <rect stroke="#000000" stroke-opacity="0" id="svg_22" height="29.28736" width="161.58223" y="64.83396" x="726.58459" stroke-linecap="null" stroke-linejoin="null" stroke-dasharray="null" stroke-width="0" fill="#007f7f"/>
  <rect stroke="#000000" id="svg_29" height="30.125" width="149.83593" y="432.14183" x="382.74657" stroke-linecap="null" stroke-linejoin="null" stroke-dasharray="null" stroke-width="0" fill="#007f7f"/>
  <rect opacity="0.3" height="201.00001" width="157" y="425.99999" x="222.49999" stroke-width="0" fill="#007f7f" stroke="#000000" id="svg_17"/>
  <rect opacity="0.3" height="201.00001" width="157" y="16.99999" x="222.49999" stroke-width="0" fill="#007f7f" stroke="#000000" id="svg_18"/>
  <rect opacity="0.3" height="201.00001" width="157" y="16.99999" x="385.49999" stroke-width="0" fill="#007f7f" stroke="#000000" id="svg_19"/>
  <rect opacity="0.3" height="201.00001" width="157" y="16.99999" x="549.49999" stroke-width="0" fill="#007f7f" stroke="#000000" id="svg_20"/>
  <rect opacity="0.3" height="201.00001" width="157" y="219.99999" x="385.49999" stroke-width="0" fill="#007f7f" stroke="#000000" id="svg_30"/>
  <rect opacity="0.3" height="201.00001" width="157" y="220" x="548.49999" stroke-width="0" fill="#007f7f" stroke="#000000" id="svg_32"/>
 </g>
 <g stroke="null" display="inline">
  <title>圖片</title>
  <g stroke="null" display="inline">
  <title>Speaker's photo</title>
  <image stroke="null" xlink:href="https://c1.staticflickr.com/5/4525/38132354224_f150cca076_o.png" id="svg_1" height="98.00001" width="85.00001" y="75" x="22"/></g>

  <g stroke="null" display="inline">
  <title>Welcoming's photo</title>
  <image stroke="null" x="61.25" y="536.24997" width="120.5" height="84.50003" id="svg_36" xlink:href="https://farm5.staticflickr.com/4206/35005524271_b1cdc76b23_b.jpg"/></g>

  <g stroke="null" display="inline">
  <title>Part 2's photo</title>
  <image x="365" y="110.00002" width="197.00001" height="102.99998" id="svg_37" xlink:href="https://farm5.staticflickr.com/4207/35005526811_bbd9e5e6af_b.jpg"/></g>

  <g stroke="null" display="inline">
  <title>Part 3's photo</title>
  <image x="550" y="108.99997" width="153.99999" height="102.00003" id="svg_47" xlink:href="https://farm5.staticflickr.com/4287/35096612346_bf263ac76c_b.jpg"/></g>

  <g stroke="null" display="inline">
  <title>Part 1's photo</title>
  <image x="211.25" y="112.49998" width="180" height="102.00002" id="svg_48" xlink:href="https://farm5.staticflickr.com/4214/35005526501_5eb52c6c4e_b.jpg"/></g>

  <g stroke="null" display="inline">
  <title>Part 7's photo</title>
  <image x="179.49999" y="517.74999" width="244.00002" height="104.00001" id="svg_50" xlink:href="https://farm5.staticflickr.com/4198/34749825350_5d6d827f5e_b.jpg"/></g>

  <g stroke="null" display="inline">
  <title>Part 4's photo</title>
  <image x="224.75002" y="300.25" width="153.99997" height="123.99999" id="svg_51" xlink:href="https://farm5.staticflickr.com/4252/35005525181_65b2bd1891_b.jpg"/></g>

  <g stroke="null" display="inline">
  <title>Part 5's photo</title>
  <image x="349.75001" y="311.25002" width="230.49998" height="103.74998" id="svg_52" xlink:href="https://farm5.staticflickr.com/4233/34749826720_04d294c553_b.jpg"/></g>

  <g stroke="null" display="inline">
  <title>Part 6's photo</title>
  <image x="544.00001" y="313.25002" width="168.99999" height="102.24999" id="svg_53" xlink:href="https://farm5.staticflickr.com/4210/35096612246_6e49a75b7b_b.jpg"/></g>
 </g>
 <g stroke="null" display="inline">
  <title>標題</title>
  <g stroke="null" display="inline">
  <title>Development and Applications</title>
  <text opacity="0.85" fill="#003f7f" stroke-width="0" stroke-dasharray="null" stroke-linejoin="null" stroke-linecap="null" x="-231.53165" y="3.7587" id="svg_45" font-size="24" font-family="Cursive" text-anchor="middle" xml:space="preserve" font-weight="bold" transform="matrix(0.5514053584438093,0,0,1.319570752383228,240.93403047203,46.044940370964106) ">Development and Applications</text></g>

  <g stroke="null" display="inline">
  <title>Speaker&#x27;s</title>
  <text stroke="null" xml:space="preserve" text-anchor="middle" font-family="serif" font-size="24" id="svg_25" y="86.12089" x="753.79178" opacity="0.8" stroke-linecap="null" stroke-linejoin="null" stroke-dasharray="null" stroke-width="0" fill="#ffffff" font-style="italic" transform="matrix(0.8406476094579095,0,0,0.8696967485759515,131.8161622722508,11.668342329910757) ">Speaker&#x27;s</text></g>

  <g stroke="null" display="inline">
  <title>Abstract</title>
  <text stroke="null" font-style="italic" transform="matrix(0.8712908761122634,0,0,0.9110834388312584,-3.0226665376568,32.56104403430815) " xml:space="preserve" text-anchor="middle" font-family="serif" font-size="24" id="svg_27" y="186.71338" x="69.62332" opacity="0.8" stroke-linecap="null" stroke-linejoin="null" stroke-dasharray="null" stroke-width="0" fill="#ffffff">Abstract</text></g>

  <g stroke="null" display="inline">
  <title>Further Reading</title>
  <text stroke="null" font-style="italic" transform="translate(554.5355224609375,435.7587890625) scale(1.1204942464828491,1.086641550064087) translate(-554.5355224609375,-435.7587890625) translate(554.274658203125,435.3764953613281) scale(1.0869497060775757,1.1274291276931763) translate(-554.274658203125,-435.3764953613281) translate(554.9812622070312,435.6423034667969) scale(0.7644617557525635,0.9113956093788147) translate(-554.9812622070312,-435.6423034667969) translate(388.8465576171875,441.1921691894531) scale(1.0136302709579468,0.8249392509460449) translate(-388.8465576171875,-441.1921691894531) translate(888.8558959960938,436.2577209472656) scale(0.9734276533126831,1) translate(-888.8558959960938,-436.2577209472656) translate(889.87255859375,504.8636779785156) scale(1) translate(-889.87255859375,-504.8636779785156) translate(889.914306640625,505.77667236328125) scale(1.0139044523239136,1.3043327331542969) translate(-889.914306640625,-505.77667236328125) translate(888.4232177734375,504.6651611328125) scale(1) translate(-888.4232177734375,-504.6651611328125) translate(888.3218994140625,504.255126953125) scale(0.9399330019950867,0.7570223808288574) translate(-888.3218994140625,-504.255126953125) translate(888.0772705078125,504.109619140625) scale(0.8550723195075989,0.9137715697288513) translate(-888.0772705078125,-504.109619140625) matrix(1.0937924253894378,0,0,1.0937924253894378,71.03591400341189,-39.500754610857044) " xml:space="preserve" text-anchor="middle" font-family="serif" font-size="24" id="svg_28" y="448.28161" x="241.22707" opacity="0.8" stroke-linecap="null" stroke-linejoin="null" stroke-dasharray="null" stroke-width="0" fill="#ffffff">Further Reading</text></g>

  <g stroke="null" display="inline">
  <title>9 October 2013</title>
  <text stroke="#000000" transform="matrix(0.5024131101888902,0,0,0.7769177863785364,-45.06369775587628,-5.406582082747825) " xml:space="preserve" text-anchor="middle" font-family="serif" font-size="24" id="svg_31" y="222.49976" x="404.44605" opacity="0.75" stroke-linecap="null" stroke-linejoin="null" stroke-dasharray="null" stroke-width="0" fill="#003f7f">9 October 2013</text></g>

  <g stroke="null" display="inline">
  <title>Part 1</title>
  <text stroke="#000000" id="svg_61" fill="#007f7f" stroke-width="0" stroke-dasharray="null" stroke-linejoin="null" stroke-linecap="null" x="36.36119" y="-147.31018" font-size="24" font-family="serif" text-anchor="middle" xml:space="preserve" transform="matrix(0.8521269024583502,0,0,0.9359189034050608,232.3218748481263,184.8984417019187) ">Part 1-</text></g>

  <g stroke="null" display="inline">
  <title>Part 2</title>
  <text stroke="#000000" id="svg_62" fill="#007f7f" stroke-width="0" stroke-dasharray="null" stroke-linejoin="null" stroke-linecap="null" x="277.4103" y="-133.25136" font-size="24" font-family="serif" text-anchor="middle" xml:space="preserve" transform="matrix(0.9219870664264072,0,0,0.9519889737247694,174.0357785917085,174.78563130247122) ">Part 2-</text></g>

  <g stroke="null" display="inline">
  <title>Part 3</title>
  <text stroke="#000000" id="svg_63" fill="#007f7f" stroke-width="0" stroke-dasharray="null" stroke-linejoin="null" stroke-linecap="null" x="528.77427" y="-154.69168" font-size="24" font-family="serif" text-anchor="middle" xml:space="preserve" transform="matrix(0.9182579746611843,0,0,0.9000324871865919,108.22247962385866,185.65601496459604) ">Part 3-</text></g>

  <g stroke="null" display="inline">
  <title>Part 4</title>
  <text stroke="#000000" id="svg_64" fill="#007f7f" stroke-width="0" stroke-dasharray="null" stroke-linejoin="null" stroke-linecap="null" x="268.00196" y="251.35281" font-size="24" font-family="serif" text-anchor="middle" xml:space="preserve" transform="matrix(0.8676653863182419,0,0,0.9399888294255297,28.39661900010217,15.497389446587192) ">Part 4-</text></g>

  <g stroke="null" display="inline">
  <title>Part 5</title>
  <text stroke="#000000" id="svg_65" fill="#007f7f" stroke-width="0" stroke-dasharray="null" stroke-linejoin="null" stroke-linecap="null" x="434.5605" y="252.15563" font-size="24" font-family="serif" text-anchor="middle" xml:space="preserve" transform="matrix(0.8923433095755173,0,0,0.8880520937474463,40.7957067019388,24.834850440099366) ">Part 5-</text></g>

  <g stroke="null" display="inline">
  <title>Part 6</title>
  <text stroke="#000000" id="svg_66" fill="#007f7f" stroke-width="0" stroke-dasharray="null" stroke-linejoin="null" stroke-linecap="null" x="603.18153" y="257.87947" font-size="24" font-family="serif" text-anchor="middle" xml:space="preserve" transform="matrix(0.937781308122337,0,0,0.9385676011419727,27.134689760507555,8.40439316365817) ">Part 6-</text></g>

  <g stroke="null" display="inline">
  <title>Welcoming</title>
  <text font-weight="bold" style="cursor: move;" opacity="0.7" stroke="#000000" transform="matrix(0.8217850281333176,0,0,0.6584668005171712,229.41402201173923,329.6745585820132) " xml:space="preserve" text-anchor="middle" font-family="serif" font-size="24" id="svg_69" y="304.1493" x="-110.06986" stroke-linecap="null" stroke-linejoin="null" stroke-dasharray="null" stroke-width="0" fill="#003f7f">Welcoming</text></g>

  <g stroke="null" display="inline">
  <title>Superelastic Alloys</title>
  <text opacity="0.7" font-weight="normal" id="svg_80" transform="matrix(0.7910354813837746,0,0,1.1323864477331411,164.72523893130395,-232.39114707179723) " xml:space="preserve" text-anchor="middle" font-family="serif" font-size="24" y="278.30248" x="586.96063" stroke-linecap="null" stroke-linejoin="null" stroke-dasharray="null" stroke-width="0" fill="#003f7f">Superelastic Alloys</text></g>

  <g stroke="null" display="inline">
  <title>Amorphous Alloys</title>
  <text opacity="0.7" id="svg_82" transform="matrix(0.7234814704375458,0,0,1.3012574955382505,19.22510375834905,-342.2124321509553) " xml:space="preserve" text-anchor="middle" font-family="serif" font-size="24" y="329.44095" x="620.07463" stroke-linecap="null" stroke-linejoin="null" stroke-dasharray="null" stroke-width="0" fill="#003f7f">Amorphous Alloys</text></g>

  <g stroke="null" display="inline">
  <title>Background</title>
  <text opacity="0.7" id="svg_87" transform="matrix(0.9006590110539237,0,0,0.9901439778897715,102.70506616006463,165.35978001262464) " xml:space="preserve" text-anchor="middle" font-family="serif" font-size="24" y="-85.19976" x="217.99285" stroke-linecap="null" stroke-linejoin="null" stroke-dasharray="null" stroke-width="0" fill="#003f7f">Background</text></g>

  <g stroke="null" display="inline">
  <title>Click to watch Welcoming's video</title>
  <a stroke="null" xlink:href="https://youtu.be/EfpxoN-QB1I" id="svg_26">
   <path stroke="#000000" fill="#007f7f" stroke-width="0" stroke-dasharray="null" stroke-linejoin="null" stroke-linecap="null" d="m45.27154,591.68171c-8.26903,0 -14.97223,6.47597 -14.97223,14.46469c0,7.98872 6.7032,14.46469 14.97223,14.46469c8.26903,0 14.97222,-6.47597 14.97222,-14.46469c0,-7.98872 -6.70319,-14.46469 -14.97222,-14.46469zm-2.40541,24.14332l-3.64261,-3.52213l6.37355,-6.15749l-6.37355,-6.1575l3.64261,-3.51914l10.0172,9.67664l-10.0172,9.67962z" marker-mid="url(#se_marker_mid_svg_44)" id="svg_44"/>
  </a></g>

  <g stroke="null" display="inline">
  <title>Click to watch Part 1's video</title>
  <a stroke="null" xlink:href="https://youtu.be/q1jakGMEmSY" id="svg_57">
   <path stroke="#000000" fill="#007f7f" stroke-width="0" stroke-dasharray="null" stroke-linejoin="null" stroke-linecap="null" d="m239.02154,184.93171c-8.26903,0 -14.97223,6.47597 -14.97223,14.46469c0,7.98872 6.7032,14.46469 14.97223,14.46469c8.26903,0 14.97222,-6.47597 14.97222,-14.46469c0,-7.98872 -6.70319,-14.46469 -14.97222,-14.46469zm-2.40541,24.14332l-3.64261,-3.52213l6.37355,-6.15749l-6.37355,-6.1575l3.64261,-3.51914l10.0172,9.67664l-10.0172,9.67962z" marker-mid="url(#se_marker_mid_svg_44)" id="svg_43"/>
  </a></g>

  <g stroke="null" display="inline">
  <title>Click to watch Part 2's video</title>
  <a stroke="null" xlink:href="https://youtu.be/eGu_FH29MqE" id="svg_58">
   <path stroke="#000000" fill="#007f7f" stroke-width="0" stroke-dasharray="null" stroke-linejoin="null" stroke-linecap="null" d="m404.27154,184.43172c-8.26903,0 -14.97223,6.47597 -14.97223,14.46469c0,7.98872 6.7032,14.46469 14.97223,14.46469c8.26903,0 14.97222,-6.47597 14.97222,-14.46469c0,-7.98872 -6.70319,-14.46469 -14.97222,-14.46469zm-2.40541,24.14331l-3.64261,-3.52212l6.37355,-6.1575l-6.37355,-6.15749l3.64261,-3.51914l10.0172,9.67663l-10.0172,9.67962z" marker-mid="url(#se_marker_mid_svg_44)" id="svg_42"/>
  </a></g>

  <g stroke="null" display="inline">
  <title>Click to watch Part 3's video</title>
  <a stroke="null" xlink:href="https://youtu.be/FCwZR1OcIcI" id="svg_59">
   <path stroke="#000000" fill="#007f7f" stroke-width="0" stroke-dasharray="null" stroke-linejoin="null" stroke-linecap="null" d="m566.02154,185.43071c-8.26903,0 -14.97223,6.47597 -14.97223,14.46469c0,7.98872 6.7032,14.46469 14.97223,14.46469c8.26903,0 14.97222,-6.47597 14.97222,-14.46469c0,-7.98872 -6.70319,-14.46469 -14.97222,-14.46469zm-2.40541,24.14332l-3.64261,-3.52213l6.37355,-6.15749l-6.37355,-6.1575l3.64261,-3.51914l10.0172,9.67664l-10.0172,9.67962z" marker-mid="url(#se_marker_mid_svg_41)" id="svg_41"/>
  </a></g>

  <g stroke="null" display="inline">
  <title>Click to watch Part 4's video</title>
  <a stroke="null" xlink:href="https://youtu.be/g8VZZ6rI6yw" id="svg_70">
   <path stroke="#000000" fill="#007f7f" stroke-width="0" stroke-dasharray="null" stroke-linejoin="null" stroke-linecap="null" d="m236.77154,385.93071c-8.26903,0 -14.97223,6.47597 -14.97223,14.46469c0,7.98872 6.7032,14.46469 14.97223,14.46469c8.26903,0 14.97222,-6.47597 14.97222,-14.46469c0,-7.98872 -6.70319,-14.46469 -14.97222,-14.46469zm-2.40541,24.14332c-1.2142,-1.17404 -2.42841,-2.34809 -3.64261,-3.52213l6.37355,-6.15749l-6.37355,-6.1575l3.64261,-3.51914l10.0172,9.67664l-10.0172,9.67962z" marker-mid="url(#se_marker_mid_svg_41)" id="svg_40"/>
  </a></g>

  <g stroke="null" display="inline">
  <title>Click to watch Part 5's video</title>
  <a stroke="null" xlink:href="https://youtu.be/J4bZaRFiFoo" id="svg_71">
   <path stroke="#000000" fill="#007f7f" stroke-width="0" stroke-dasharray="null" stroke-linejoin="null" stroke-linecap="null" d="m400.77154,384.09839c-8.26903,0 -14.97223,6.47597 -14.97223,14.46469c0,7.98872 6.7032,14.46469 14.97223,14.46469c8.26903,0 14.97222,-6.47597 14.97222,-14.46469c0,-7.98872 -6.70319,-14.46469 -14.97222,-14.46469zm-2.40541,24.14331l-3.64261,-3.52212l6.37355,-6.1575l-6.37355,-6.15749l3.64261,-3.51914l10.0172,9.67663l-10.0172,9.67962z" marker-mid="url(#se_marker_mid_svg_41)" id="svg_39"/>
  </a></g>


  <text stroke="#000000" xml:space="preserve" text-anchor="middle" font-family="serif" font-size="24" id="svg_83" y="542.0428" x="772.10043" stroke-linecap="null" stroke-linejoin="null" stroke-dasharray="null" stroke-width="0" fill="#3f3f3f"/>
  <g stroke="null" id="svg_180"/>

  <g stroke="null" display="inline">
  <title>Bulk Glassy Alloys</title>
  <text opacity="0.7" font-weight="normal" id="svg_34" transform="matrix(0.7302947582074759,0,0,1.0343651990726832,50.72900573221183,-132.5225034373438) " xml:space="preserve" text-anchor="middle" font-family="serif" font-size="24" y="406.08233" x="342.12437" stroke-linecap="null" stroke-linejoin="null" stroke-dasharray="null" stroke-width="0" fill="#003f7f">Bulk Glassy Alloys</text></g>

  <g stroke="null" display="inline">
  <title>Bulk Glassy</title>
  <text opacity="0.7" id="svg_46" transform="matrix(0.7829153807308261,0,0,0.9178989971867825,-44.203997209618294,-89.03299768534447) " xml:space="preserve" text-anchor="middle" font-family="serif" font-size="24" y="392.03015" x="614.70304" stroke-linecap="null" stroke-linejoin="null" stroke-dasharray="null" stroke-width="0" fill="#003f7f">Bulk Glassy</text></g>

  <g stroke="null" display="inline">
  <title>Biography</title>
  <text stroke="null" opacity="0.8" transform="matrix(0.7681051001511282,0,0,0.8530227157745391,-636.4639586873427,105.59283439791079) " font-style="italic" xml:space="preserve" text-anchor="middle" font-family="serif" font-size="24" id="svg_49" y="-21.29228" x="1930.23571" stroke-linecap="null" stroke-linejoin="null" stroke-dasharray="null" stroke-width="0" fill="#ffffff">Biography</text></g>

  <g stroke="null" display="inline">
  <title>of Bulk Glassy Alloys</title>
  <text opacity="0.85" fill="#003f7f" stroke-width="0" stroke-dasharray="null" stroke-linejoin="null" stroke-linecap="null" x="-266.46108" y="39.67721" font-size="24" font-family="Cursive" text-anchor="middle" xml:space="preserve" font-weight="bold" transform="matrix(0.5812950314584484,0,0,1.0326315460003916,269.246352600049,31.070955536918426) " id="svg_38">of Bulk Glassy Alloys</text></g>

  <g stroke="null" display="inline">
  <title>Alloys Results</title>
  <text opacity="0.7" transform="matrix(0.8206699421402579,0,0,0.9332441972355882,-32.210178107460806,-89.02638253579158) " xml:space="preserve" text-anchor="middle" font-family="serif" font-size="24" y="409.77583" x="613.92898" stroke-linecap="null" stroke-linejoin="null" stroke-dasharray="null" stroke-width="0" fill="#003f7f" id="svg_16">Alloys Results</text></g>

  <g stroke="null" display="inline">
  <title>Prof. Akihisa Inoue</title>
  <text id="svg_2" stroke="#000000" transform="matrix(0.4632182032639237,0,0,0.9793840780466184,-40.26719560421947,-59.77165269881081) " xml:space="preserve" text-anchor="middle" font-family="serif" font-size="24" y="215.26254" x="428.02561" opacity="0.75" stroke-linecap="null" stroke-linejoin="null" stroke-dasharray="null" stroke-width="0" fill="#003f7f">Prof. Akihisa Inoue</text></g>

  <g stroke="null" display="inline">
  <title>Part 7</title>
  <text id="svg_3" stroke="#000000" fill="#007f7f" stroke-width="0" stroke-dasharray="null" stroke-linejoin="null" stroke-linecap="null" x="268.88606" y="432.77055" font-size="24" font-family="serif" text-anchor="middle" xml:space="preserve" transform="matrix(1.002205553137967,0,0,1.195529304770472,-2.4646424653032435,-52.57918692997239) ">Part 7-</text></g>

  <g stroke="null" display="inline">
  <title>Summary</title>
  <text id="svg_23" opacity="0.7" font-weight="normal" transform="matrix(0.9620950114881704,0,0,1.3566729695093631,144.56514421241437,-289.6823440389529) " xml:space="preserve" text-anchor="middle" font-family="serif" font-size="24" y="423.60674" x="508.84434" stroke-linecap="null" stroke-linejoin="null" stroke-dasharray="null" stroke-width="0" fill="#003f7f">Summary</text></g>

  <g stroke="null" display="inline">
  <title>Q &amp; A</title>
  <text id="svg_24" opacity="0.7" font-weight="normal" transform="matrix(1.0212304569757293,0,0,1.067028596492022,94.71078745657942,-118.19549992614839) " xml:space="preserve" text-anchor="middle" font-family="serif" font-size="24" y="577.46695" x="192.74936" stroke-linecap="null" stroke-linejoin="null" stroke-dasharray="null" stroke-width="0" fill="#003f7f">Q &amp; A</text></g>

  <g stroke="null" display="inline">
  <title>Click to watch Part 6's video</title>
  <a xlink:href="https://youtu.be/M1_el1SBHYc" id="svg_35">
   <path id="svg_5" stroke="#000000" fill="#007f7f" stroke-width="0" stroke-dasharray="null" stroke-linejoin="null" stroke-linecap="null" d="m566.49999,385.03532c-8.26903,0 -14.97223,6.47597 -14.97223,14.46469c0,7.98872 6.7032,14.46469 14.97223,14.46469c8.26903,0 14.97222,-6.47597 14.97222,-14.46469c0,-7.98872 -6.70319,-14.46469 -14.97222,-14.46469zm-2.40541,24.14332l-3.64261,-3.52213l6.37355,-6.15749l-6.37355,-6.1575l3.64261,-3.51914l10.0172,9.67664l-10.0172,9.67962z" marker-mid="url(#se_marker_mid_svg_41)"/>
  </a></g>

  <g stroke="null" display="inline">
  <title>Click to watch Part 7's video</title>
  <a xlink:href="https://youtu.be/QtHTR1N2e-k" id="svg_54">
   <path id="svg_10" stroke="#000000" fill="#007f7f" stroke-width="0" stroke-dasharray="null" stroke-linejoin="null" stroke-linecap="null" d="m237.25001,593.78532c-8.26903,0 -14.97223,6.47597 -14.97223,14.46469c0,7.98872 6.7032,14.46469 14.97223,14.46469c8.26903,0 14.97222,-6.47597 14.97222,-14.46469c0,-7.98872 -6.70319,-14.46469 -14.97222,-14.46469zm-2.40541,24.14332l-3.64261,-3.52213l6.37355,-6.15749l-6.37355,-6.1575l3.64261,-3.51914l10.0172,9.67664l-10.0172,9.67962z" marker-mid="url(#se_marker_mid_svg_41)"/>
  </a></g>
 </g>
 <g stroke="null" display="inline">
  <title>文字</title>
  <g stroke="null" display="inline">
  <title>Since the first synthesis of 
bulk glassy alloys for Mg- and 
La-based systems in 1989 
an extremely large number of 
studies have been carried out 
with the aims of searching for 
new bulk glassy alloy systems. 
This lecture aims to introduce 
the development history of bulk 
glassy alloys, their alloy 
systems and alloy components,
structure, atomic configurations, 
glass-forming ability, production 
techniques and processes, 
fundamental properties, thermal 
stability, deformation and 
fracture behavior, viscous flow 
deformation, secondary working 
process and applications, in 
conjunction with bulk glassy 
alloys containing nanocrystals, 
dendritic crystals.
</title>
  <image stroke="null" x="38" y="197.25" width="146.74999" height="329.5" id="svg_14" xlink:href="https://c1.staticflickr.com/5/4544/37977805395_0f0a285e29_o.png"/></g>

  <g stroke="null" display="inline">
  <title>Ph.D., Materials Science and 
Engineering, Tohoku University
Experience:
2012– Present : 
Special Adviser to the Chancellor
Director, Green Materials
Josai University Educationa, Japan
Overseas Fellow, Cambridge
Professor, Tohoku University
Member of the Japan Academy
2012–2013 : 
Special Senior Adviser to 
President of Tohoku University
2006–2012 :
President, Tohoku University
2000–2006 : 
Director, Institute for Materials 
Research, Tohoku University, Japan
Honors and Awards:
2012: National One Thousand 
Talented Invited Researcher
2011: Honorary Doctorate, 
Shanghai Jiao Tong University
2010: Acta Materiallia Gold Medal
2009: The 2009 James C.
McGroddy Prize for New Materials
2008: U.S.A. National Academy 
of Engineering, Foreign Member
2005: Honorary Doctorate, Royal 
Institute of Technology, Stockholm
2003: Kelly Lecture, Cambridge
2002: Japan Academy Prize
</title>
  <image xlink:href="https://c1.staticflickr.com/5/4516/23999766507_1510565785_o.png" id="svg_56" height="542.99997" width="171.99999" y="85.00001" x="718"/></g>

  <g stroke="null" display="inline">
  <title>1. Japan fails to settle university dispute
https://goo.gl/AJopND
2. Russian Researchers Working on 
Glass 'Stronger Than Steel'
	https://goo.gl/hRmmbV
3. Introducing Prof. Akihisa INOUE
https://goo.gl/PMDeDQ
</title>
  <image stroke="null" xlink:href="https://c1.staticflickr.com/5/4554/27089631229_c770646cb2_o.png" id="svg_60" height="158.75002" width="225.24996" y="467.49998" x="418.00001"/></g>
 </g>
</svg>