<svg width="904.9999999999999" height="640.0000000000002" xmlns="http://www.w3.org/2000/svg" xmlns:svg="http://www.w3.org/2000/svg" xmlns:xlink="http://www.w3.org/1999/xlink">
 <!-- Created with SVG-edit - http://svg-edit.googlecode.com/ -->
 <title/>
 <defs>
  <marker id="se_marker_mid_svg_36" markerUnits="strokeWidth" orient="auto" viewBox="0 0 100 100" markerWidth="5" markerHeight="5" refX="50" refY="50">
   <path stroke="#000000" id="svg_1" d="m100,50l-100,40l30,-40l-30,-40l100,40z" fill="#000000" stroke-width="10"/>
  </marker>
  <marker id="se_marker_mid_svg_38" markerUnits="strokeWidth" orient="auto" viewBox="0 0 100 100" markerWidth="5" markerHeight="5" refX="50" refY="50">
   <path stroke="#000000" id="svg_3" d="m100,50l-100,40l30,-40l-30,-40l100,40z" fill="#000000" stroke-width="10"/>
  </marker>
  <marker id="se_marker_mid_svg_41" markerUnits="strokeWidth" orient="auto" viewBox="0 0 100 100" markerWidth="5" markerHeight="5" refX="50" refY="50">
   <path stroke="#000000" id="svg_4" d="m100,50l-100,40l30,-40l-30,-40l100,40z" fill="#000000" stroke-width="10"/>
  </marker>
  <marker id="se_marker_mid_svg_44" markerUnits="strokeWidth" orient="auto" viewBox="0 0 100 100" markerWidth="5" markerHeight="5" refX="50" refY="50">
   <path stroke="#000000" id="svg_6" d="m100,50l-100,40l30,-40l-30,-40l100,40z" fill="#000000" stroke-width="10"/>
  </marker>
  <pattern height="100" width="100" y="0" x="0" patternUnits="userSpaceOnUse" id="gridpattern">
   <image height="100" width="100" y="0" x="0" id="svg_7"/>
  </pattern>
 </defs>
 <g stroke="null" display="inline">
  <title>圖遮罩</title>
 </g>

 <g stroke="null" display="inline">
  <title>色塊</title>
  <rect stroke="#000000" opacity="0.3" height="200.99998" width="160" y="15.85186" x="383.55557" stroke-width="0" fill="#ffff00" id="svg_5"/>
  <rect stroke="#000000" opacity="0.3" height="201" width="160" y="16.85187" x="219.00001" stroke-width="0" fill="#ffff00" id="svg_10"/>
  <rect stroke="#000000" opacity="0.3" height="200.99998" width="160" y="15.85188" x="547.11112" stroke-width="0" fill="#ffff00" id="svg_11"/>
  <rect stroke="#000000" opacity="0.3" height="200.99998" width="160" y="222.40743" x="383.55556" stroke-width="0" fill="#ffff00" id="svg_12"/>
  <rect stroke="#000000" opacity="0.3" height="198.00001" width="160" y="223.40742" x="220.00001" stroke-width="0" fill="#ffff00" id="svg_13"/>
  <rect stroke="#000000" opacity="0.3" height="200.99998" width="160" y="222.40744" x="547.11112" stroke-width="0" fill="#ffff00" id="svg_14"/>
  <rect stroke="#000000" opacity="0.3" height="195" width="160" y="430.38564" x="220" stroke-width="0" fill="#ffff00" id="svg_16"/>
  <rect stroke="#000000" id="svg_8" opacity="0.3" height="611.11114" width="209.11109" y="16.85182" x="5.94445" stroke-width="0" fill="#ffff00"/>
  <rect id="svg_9" opacity="0.3" height="604.11105" width="185.77774" y="14.8519" x="712.05555" stroke-width="0" fill="#ffff00" stroke="#000000"/>
  <rect stroke="#ffffff" id="svg_19" height="159.5" width="164" y="476.15741" x="36.66667" stroke-width="5" fill="none"/>
  <rect stroke="#000000" opacity="0.75" stroke-opacity="0" id="svg_21" height="33" width="132" y="216.32916" x="5.19167" stroke-linecap="null" stroke-linejoin="null" stroke-dasharray="null" stroke-width="0" fill="#3f007f"/>
  <rect stroke="#000000" opacity="0.75" stroke-opacity="0" id="svg_22" height="57.66667" width="148" y="22.18333" x="746.0289" stroke-linecap="null" stroke-linejoin="null" stroke-dasharray="null" stroke-width="0" fill="#3f007f"/>
  <rect stroke="#000000" stroke-opacity="0" id="svg_24" height="35" width="132" y="483.43334" x="16.11614" stroke-linecap="null" stroke-linejoin="null" stroke-dasharray="null" stroke-width="0" fill="#3f007f" opacity="0.75"/>
  <rect stroke="#000000" id="svg_76" opacity="0.3" height="195.79809" width="162.24539" y="429.15799" x="382.04939" stroke-width="0" fill="#ffff00"/>
  <rect opacity="0.3" height="195.79809" width="159.24538" y="428.7009" x="547.6773" stroke-width="0" fill="#ffff00" id="svg_46" stroke="#000000"/>
 </g>
 
 <g stroke="null" display="inline">
  <title>圖片</title>
  <g stroke="null" display="inline">
  <title>Welcome's photo</title>
  <image xlink:href="https://farm5.staticflickr.com/4288/35270688811_59f016b2ba_b.jpg" id="svg_92" height="103.00002" width="152" y="522.66663" x="42.66665"/>
  </g>
  <g stroke="null" display="inline">
  <title>Speaker's photo</title>
  <image stroke="null" xlink:href="https://c1.staticflickr.com/5/4739/24463696377_d19dd50c94_o.jpg" id="svg_37" height="100" width="84.00001" y="89.99999" x="9"/>
  </g>
  <g stroke="null" display="inline">
  <title>Part 2's photo</title>
  <image xlink:href="https://farm5.staticflickr.com/4262/35360967786_a337e9ec4d_b.jpg" id="svg_48" height="104.18753" width="156.37501" y="114.75006" x="387"/>
  </g>
  <g stroke="null" display="inline">
  <title>Part 1's photo</title>
  <image xlink:href="https://farm5.staticflickr.com/4207/35360967906_55ff36e069_b.jpg" id="svg_51" height="111.00002" width="157.5" y="112.25004" x="221.18753"/>
  </g>
  <g stroke="null" display="inline">
  <title>Part 3's photo</title>
  <image xlink:href="https://farm5.staticflickr.com/4282/35270688531_cb53bb9fe2_b.jpg" id="svg_52" height="105.99998" width="163.74997" y="115.06256" x="545.06251"/>
  </g>
  <g stroke="null" display="inline">
  <title>Part 7's photo</title>
  <image xlink:href="https://farm5.staticflickr.com/4222/35360967516_23056d2120_b.jpg" id="svg_54" height="111.74997" width="158.41666" y="514.33334" x="220.91668"/>
  </g>
  <g stroke="null" display="inline">
  <title>Part 5's photo</title>
  <image xlink:href="https://c1.staticflickr.com/5/4645/38624318374_f6218559d9_b.jpg" id="svg_67" height="110.24999" width="156.99994" y="316.5" x="385.50006"/>
  </g>
  <g stroke="null" display="inline">
  <title>Part 4's photo</title>
  <image xlink:href="https://c1.staticflickr.com/5/4733/38454610525_3d88ac1493_b.jpg" id="svg_68" height="104.75" width="158" y="318.74997" x="221.25009"/>
  </g>
  <g stroke="null" display="inline">
  <title>Q&amp;A's photo</title>
  <image xlink:href="https://farm5.staticflickr.com/4270/35360967126_4e89f78ec6_b.jpg" id="svg_72" height="111.99999" width="158.00002" y="515.8125" x="548.87506"/>
  </g>
  <g stroke="null" display="inline">
  <title>Part 8's photo</title>
  <image xlink:href="https://farm5.staticflickr.com/4222/34557672484_ece96b1a2e_b.jpg" id="svg_77" height="111.18751" width="159.81252" y="514.59141" x="383.85392"/>
  </g>
  <g stroke="null" display="inline">
  <title>Group's photo</title>
  <image x="714.15002" y="461.75" width="183.16666" height="123.16668" id="svg_104" opacity="0.9" xlink:href="https://farm5.staticflickr.com/4230/35360966666_6c06462b29_b.jpg"/>
  </g>
  <g stroke="null" display="inline">
  <title>Part 6's photo</title>
  <image x="548.29999" y="313.94999" width="159.49994" height="112.49997" id="svg_110" opacity="0.9" xlink:href="https://farm5.staticflickr.com/4219/35270688031_440c4f8335_b.jpg"/>
  </g>
 </g>
 
 <g stroke="null" display="inline">
  <title>標題</title>
  <g stroke="null" display="inline">
  <title>Mathematical and Statistical</title>
  <text fill="#003f7f" stroke-width="0" stroke-dasharray="null" stroke-linejoin="null" stroke-linecap="null" x="-309.63144" y="-5.05146" id="svg_45" font-size="24" font-family="Sans-serif" text-anchor="middle" xml:space="preserve" font-weight="bold" transform="matrix(0.5954702754177952,0,0,0.9521915122934279,293.9804394994207,46.49391688123435) ">Mathematical and Statistical</text>
  </g>
  <g stroke="null" display="inline">
  <title>Speaker&#x27;s</title>
  <text xml:space="preserve" text-anchor="middle" font-family="Sans-serif" font-size="24" id="svg_25" y="49.36335" x="778.19583" opacity="0.8" stroke-linecap="null" stroke-linejoin="null" stroke-dasharray="null" stroke-width="0" fill="#00ffff" font-style="italic" transform="matrix(0.8083012295862673,0,0,1.0491410499178497,169.0197248770754,-5.097797326150638) ">Speaker&#x27;s</text>
  </g>
  <g stroke="null" display="inline">
  <title>Abstract</title>
  <text font-style="italic" transform="matrix(0.8949615012568838,0,0,1.0079346014612527,24.76987666344756,5.528505899521399) " xml:space="preserve" text-anchor="middle" font-family="Sans-serif" font-size="24" id="svg_27" y="234.35442" x="35.36723" opacity="0.8" stroke-linecap="null" stroke-linejoin="null" stroke-dasharray="null" stroke-width="0" fill="#00ffff">Abstract</text>
  </g>
  <g stroke="null" display="inline">
  <title>Welcome</title>
  <text xml:space="preserve" text-anchor="middle" font-family="Sans-serif" font-size="24" id="svg_30" y="507.32143" x="73.29408" opacity="0.8" stroke-linecap="null" stroke-linejoin="null" stroke-dasharray="null" stroke-width="0" fill="#00ffff" font-style="italic" transform="matrix(0.9096567434947358,0,0,0.9657777871784532,13.179656518521163,19.871240600571102) ">Welcome</text>
  </g>
  <g stroke="null" display="inline">
  <title>Introduction</title>
  <text stroke="#000000" transform="matrix(0.6530688756395684,0,0,0.6639682192878815,211.4799282149398,132.6965067263572) " xml:space="preserve" text-anchor="middle" font-family="Sans-serif" font-size="24" id="svg_69" y="-55.85274" x="129.05507" stroke-linecap="null" stroke-linejoin="null" stroke-dasharray="null" stroke-width="0" fill="#bf005f">Introduction</text>
  </g>
  <g stroke="null" display="inline">
  <title>DNA sequence</title>
  <text stroke="#000000" id="svg_87" transform="matrix(0.5064113559133038,0,0,0.6833303309084553,293.3980095344515,132.82003614482352) " xml:space="preserve" text-anchor="middle" font-family="Sans-serif" font-size="24" y="-64.39349" x="338.45705" stroke-linecap="null" stroke-linejoin="null" stroke-dasharray="null" stroke-width="0" fill="#bf005f">DNA sequence</text>
  </g>
  <g stroke="null" display="inline">
  <title>Q&amp;A</title>
  <text stroke="#000000" font-weight="normal" id="svg_56" transform="matrix(0.7681233055403308,0,0,0.7519465777776861,473.50611066514784,103.14342097510858) " xml:space="preserve" text-anchor="middle" font-family="Sans-serif" font-size="24" y="539.42492" x="205.89191" stroke-linecap="null" stroke-linejoin="null" stroke-dasharray="null" stroke-width="0" fill="#bf005f">Q&amp;A</text>
  </g>
  
  <g stroke="null" display="inline">
  <title>Click to watch Part 1's video</title>
  <a stroke="null" xlink:href="https://youtu.be/g95V4h_Lh9k" id="svg_26">
   <path stroke="#000000" fill="#7f0000" stroke-width="0" stroke-dasharray="null" stroke-linejoin="null" stroke-linecap="null" d="m236.27154,190.68171c-8.26903,0 -14.97223,6.47597 -14.97223,14.46469c0,7.98872 6.7032,14.46469 14.97223,14.46469c8.26903,0 14.97222,-6.47597 14.97222,-14.46469c0,-7.98872 -6.70319,-14.46469 -14.97222,-14.46469zm-2.40541,24.14332l-3.64261,-3.52213l6.37355,-6.15749l-6.37355,-6.1575l3.64261,-3.51914l10.0172,9.67664l-10.0172,9.67962z" marker-mid="url(#se_marker_mid_svg_44)" id="svg_44"/>
  </a></g>
  <g stroke="null" display="inline">
  <title>Click to watch Part 2's video</title>
  <a stroke="null" xlink:href="https://youtu.be/fyAfnbkI4EQ" id="svg_57">
   <path stroke="#000000" fill="#7f0000" stroke-width="0" stroke-dasharray="null" stroke-linejoin="null" stroke-linecap="null" d="m404.77154,187.68171c-8.26903,0 -14.97223,6.47597 -14.97223,14.46469c0,7.98872 6.7032,14.46469 14.97223,14.46469c8.26903,0 14.97222,-6.47597 14.97222,-14.46469c0,-7.98872 -6.70319,-14.46469 -14.97222,-14.46469zm-2.40541,24.14332l-3.64261,-3.52213l6.37355,-6.15749l-6.37355,-6.1575l3.64261,-3.51914l10.0172,9.67664l-10.0172,9.67962z" marker-mid="url(#se_marker_mid_svg_44)" id="svg_43"/>
  </a></g>
  <g stroke="null" display="inline">
  <title>Click to watch Part 3's video</title>
  <a stroke="null" xlink:href="https://youtu.be/Jx-TpZ_HAZI" id="svg_58">
   <path stroke="#000000" fill="#7f0000" stroke-width="0" stroke-dasharray="null" stroke-linejoin="null" stroke-linecap="null" d="m566.27154,189.68172c-8.26903,0 -14.97223,6.47597 -14.97223,14.46469c0,7.98872 6.7032,14.46469 14.97223,14.46469c8.26903,0 14.97222,-6.47597 14.97222,-14.46469c0,-7.98872 -6.70319,-14.46469 -14.97222,-14.46469zm-2.40541,24.14331l-3.64261,-3.52212l6.37355,-6.1575l-6.37355,-6.15749l3.64261,-3.51914l10.0172,9.67663l-10.0172,9.67962z" marker-mid="url(#se_marker_mid_svg_44)" id="svg_42"/>
  </a></g>
  <g stroke="null" display="inline">
  <title>Click to watch Part 4's video</title>
  <a stroke="null" xlink:href="https://youtu.be/jIVjFv-l03A" id="svg_59">
   <path stroke="#000000" fill="#7f0000" stroke-width="0" stroke-dasharray="null" stroke-linejoin="null" stroke-linecap="null" d="m240.77154,390.93171c-8.26903,0 -14.97223,6.47597 -14.97223,14.46469c0,7.98872 6.7032,14.46469 14.97223,14.46469c8.26903,0 14.97222,-6.47597 14.97222,-14.46469c0,-7.98872 -6.70319,-14.46469 -14.97222,-14.46469zm-2.40541,24.14332l-3.64261,-3.52213l6.37355,-6.15749l-6.37355,-6.1575l3.64261,-3.51914l10.0172,9.67664l-10.0172,9.67962z" marker-mid="url(#se_marker_mid_svg_41)" id="svg_41"/>
  </a></g>
  <g stroke="null" display="inline">
  <title>Click to watch Welcome's video</title>
  <a stroke="null" xlink:href="https://youtu.be/-bCDB7ptb38" id="svg_60">
   <path stroke="#000000" fill="#7f0000" stroke-width="0" stroke-dasharray="null" stroke-linejoin="null" stroke-linecap="null" d="m173.27155,486.01506c-8.26903,0 -14.97223,6.47597 -14.97223,14.46469c0,7.98872 6.7032,14.46469 14.97223,14.46469c8.26903,0 14.97222,-6.47597 14.97222,-14.46469c0,-7.98872 -6.70319,-14.46469 -14.97222,-14.46469zm-2.40541,24.14332l-3.64261,-3.52213l6.37355,-6.15749l-6.37355,-6.1575l3.64261,-3.51914l10.0172,9.67664l-10.0172,9.67962z" marker-mid="url(#se_marker_mid_svg_38)" id="svg_20"/>
  </a></g>
  <g stroke="null" display="inline">
  <title>Click to watch Part 5's video</title>
  <a stroke="null" xlink:href="https://youtu.be/PfIhInwxiLo" id="svg_70">
   <path stroke="#000000" fill="#7f0000" stroke-width="0" stroke-dasharray="null" stroke-linejoin="null" stroke-linecap="null" d="m402.52154,390.43171c-8.26903,0 -14.97223,6.47597 -14.97223,14.46469c0,7.98872 6.7032,14.46469 14.97223,14.46469c8.26903,0 14.97222,-6.47597 14.97222,-14.46469c0,-7.98872 -6.70319,-14.46469 -14.97222,-14.46469zm-2.40541,24.14332c-1.2142,-1.17404 -2.42841,-2.34809 -3.64261,-3.52213l6.37355,-6.15749l-6.37355,-6.1575l3.64261,-3.51914l10.0172,9.67664l-10.0172,9.67962z" marker-mid="url(#se_marker_mid_svg_41)" id="svg_40"/>
  </a></g>
  <g stroke="null" display="inline">
  <title>Click to watch Part 6's video</title>
  <a stroke="null" xlink:href="https://youtu.be/gc1HmCY20L4" id="svg_71">
   <path stroke="#000000" fill="#7f0000" stroke-width="0" stroke-dasharray="null" stroke-linejoin="null" stroke-linecap="null" d="m564.02154,391.84839c-8.26903,0 -14.97223,6.47597 -14.97223,14.46469c0,7.98872 6.7032,14.46469 14.97223,14.46469c8.26903,0 14.97222,-6.47597 14.97222,-14.46469c0,-7.98872 -6.70319,-14.46469 -14.97222,-14.46469zm-2.40541,24.14331l-3.64261,-3.52212l6.37355,-6.1575l-6.37355,-6.15749l3.64261,-3.51914l10.0172,9.67663l-10.0172,9.67962z" marker-mid="url(#se_marker_mid_svg_41)" id="svg_39"/>
  </a></g>
  <g stroke="null" display="inline">
  <title>Click to watch Part 7's video</title>
  <a stroke="null" xlink:href="https://youtu.be/26DvRdk7zbA" id="svg_74">
   <path stroke="#000000" fill="#7f0000" stroke-width="0" stroke-dasharray="null" stroke-linejoin="null" stroke-linecap="null" d="m237.18821,592.01506c-8.26903,0 -14.97222,6.47597 -14.97222,14.46469c0,7.98872 6.7032,14.46469 14.97222,14.46469c8.26903,0 14.97222,-6.47597 14.97222,-14.46469c0,-7.98872 -6.7032,-14.46469 -14.97222,-14.46469zm-2.4054,24.14331l-3.64262,-3.52212l6.37355,-6.1575l-6.37355,-6.1575l3.64262,-3.51914l10.01719,9.67663l-10.01719,9.67962l0,0.00001z" id="svg_36" marker-mid="url(#se_marker_mid_svg_36)"/>
  </a></g>
  <g stroke="null" display="inline">
  <title>Click to watch Part 8's video</title>
   <a id="svg_111" xlink:href="https://youtu.be/5q06xRPC4GE">
   <path stroke="#000000" fill="#7f0000" stroke-width="0" stroke-dasharray="null" stroke-linejoin="null" stroke-linecap="null" d="m401.79998,595.1353c-8.26903,0 -14.97222,6.47597 -14.97222,14.46469c0,7.98872 6.7032,14.46469 14.97222,14.46469c8.26903,0 14.97222,-6.47597 14.97222,-14.46469c0,-7.98872 -6.7032,-14.46469 -14.97222,-14.46469zm-2.4054,24.14331l-3.64262,-3.52212l6.37355,-6.1575l-6.37355,-6.1575l3.64262,-3.51914l10.01719,9.67663l-10.01719,9.67962l0,0.00001z" marker-mid="url(#se_marker_mid_svg_36)" id="svg_47"/>
  </a></g>
  <g stroke="null" display="inline">
  <title>Click to watch Q&amp;A's video</title>
  <a id="svg_112" xlink:href="https://youtu.be/f0ZJFpsdDYU">
   <path stroke="#000000" fill="#7f0000" stroke-width="0" stroke-dasharray="null" stroke-linejoin="null" stroke-linecap="null" d="m563.79998,596.13528c-8.26903,0 -14.97222,6.47597 -14.97222,14.46469c0,7.98872 6.7032,14.46469 14.97222,14.46469c8.26903,0 14.97222,-6.47597 14.97222,-14.46469c0,-7.98872 -6.7032,-14.46469 -14.97222,-14.46469zm-2.4054,24.14331l-3.64262,-3.52212l6.37355,-6.1575l-6.37355,-6.1575l3.64262,-3.51914l10.01719,9.67663l-10.01719,9.67962l0,0.00001z" marker-mid="url(#se_marker_mid_svg_36)" id="svg_50"/>
  </a></g>
  
  <text stroke="#000000" xml:space="preserve" text-anchor="middle" font-family="serif" font-size="24" id="svg_83" y="542.0428" x="772.10043" stroke-linecap="null" stroke-linejoin="null" stroke-dasharray="null" stroke-width="0" fill="#3f3f3f"/>
  <g stroke="null" id="svg_180"/>
  
  <g stroke="null" display="inline">
  <title>Euler creates</title>
  <text stroke="#000000" font-weight="normal" id="svg_34" transform="matrix(0.6850576412232477,0,0,0.629969601852157,171.20136709291597,17.54426728774503) " xml:space="preserve" text-anchor="middle" font-family="Sans-serif" font-size="24" y="436.20458" x="420.8205" stroke-linecap="null" stroke-linejoin="null" stroke-dasharray="null" stroke-width="0" fill="#bf005f">Euler creates</text>
  </g>
  <g stroke="null" display="inline">
  <title>Biography</title>
  <text opacity="0.8" transform="matrix(0.8305088434805419,0,0,0.9660372449556517,20.17527906937458,-16.686134670644353) " font-style="italic" xml:space="preserve" text-anchor="middle" font-family="Sans-serif" font-size="24" id="svg_49" y="90.4473" x="985.69346" stroke-linecap="null" stroke-linejoin="null" stroke-dasharray="null" stroke-width="0" fill="#00ffff">Biography</text>
  </g>
  <g stroke="null" display="inline">
  <title>assembly until 2001</title>
  <text stroke="#000000" font-style="normal" font-weight="normal" transform="matrix(0.5623578948660418,0,0,0.6642650315859151,249.4114729299447,33.85758262517537) " xml:space="preserve" text-anchor="middle" font-family="Sans-serif" font-size="24" id="svg_78" y="109.80445" x="386.72199" stroke-linecap="null" stroke-linejoin="null" stroke-dasharray="null" stroke-width="0" fill="#bf005f">assembly until 2001</text>
  </g>
  <g stroke="null" display="inline">
  <title>Euler graphs</title>
  <text stroke="#000000" transform="matrix(0.6291949646911584,0,0,0.7077165049395546,99.18843365360563,72.85825579271922) " xml:space="preserve" text-anchor="middle" font-family="Sans-serif" font-size="24" id="svg_88" y="323.21413" x="315.62547" stroke-linecap="null" stroke-linejoin="null" stroke-dasharray="null" stroke-width="0" fill="#bf005f">Euler graphs</text>
  </g>
  <g stroke="null" display="inline">
  <title>Genome coverage</title>
  <text stroke="#000000" transform="matrix(0.6069432266413598,0,0,0.7201892002646959,226.85537378290684,82.17986311862522) " xml:space="preserve" text-anchor="middle" font-family="Sans-serif" font-size="24" id="svg_90" y="303.36734" x="658.76027" stroke-linecap="null" stroke-linejoin="null" stroke-dasharray="null" stroke-width="0" fill="#bf005f">Genome coverage</text>
  </g>
  <g stroke="null" display="inline">
  <title>Problems from DNA Sequencing</title>
  <text fill="#003f7f" stroke-width="0" stroke-dasharray="null" stroke-linejoin="null" stroke-linecap="null" x="131.41169" y="67.13307" id="svg_53" font-size="24" font-family="Sans-serif" text-anchor="middle" xml:space="preserve" font-weight="bold" transform="matrix(0.509602494957069,0,0,1.031771248555842,45.67946074948836,-1.8929143312688552) " stroke="#000000">Problems from DNA Sequencing</text>
  </g>
  <g stroke="null" display="inline">
  <title>Prof. Michael Waterman</title>
  <text fill="#bf0000" stroke-width="0" stroke-dasharray="null" stroke-linejoin="null" stroke-linecap="null" opacity="0.9" x="244.3733" y="161.14864" id="svg_55" font-size="24" font-family="Sans-serif" text-anchor="middle" xml:space="preserve" transform="matrix(0.40256039568663327,0,0,0.7167745671499987,57.60543345822206,31.472269719784336) ">Prof. Michael Waterman</text>
  </g>
  <g stroke="null" display="inline">
  <title>Part 9 -</title>
  <text stroke="#000000" fill="#4c4c4c" stroke-width="0" stroke-dasharray="null" stroke-linejoin="null" stroke-linecap="null" x="666.89977" y="451.9939" font-size="24" font-family="Serif" text-anchor="middle" xml:space="preserve" transform="matrix(0.7056432766477404,0,0,0.7740720848480621,160.9290858923643,129.07355946579457) " id="svg_79">Part 9 -</text>
  </g>
  <g stroke="null" display="inline">
  <title>Part 8 -</title>
  <text stroke="#000000" fill="#4c4c4c" stroke-width="0" stroke-dasharray="null" stroke-linejoin="null" stroke-linecap="null" x="559.20198" y="499.59945" font-size="24" font-family="Serif" text-anchor="middle" xml:space="preserve" transform="matrix(0.7429291105373581,0,0,0.830238930947455,47.369958716136786,63.26865649618879) " id="svg_85">Part 8 -</text>
  </g>
  <g stroke="null" display="inline">
  <title>Summary</title>
  <text fill="#bf005f" stroke-width="0" stroke-dasharray="null" stroke-linejoin="null" stroke-linecap="null" opacity="0.9" x="473.10979" y="527.14242" id="svg_86" font-size="24" font-family="Sans-serif" text-anchor="middle" xml:space="preserve" transform="matrix(0.747803251651824,0,0,0.6173201071704852,105.58681796831522,180.95266357707322) " stroke="#000000">Summary</text>
  </g>
  <g stroke="null" display="inline">
  <title>Part 1 -</title>
  <text stroke="#000000" fill="#4c4c4c" stroke-width="0" stroke-dasharray="null" stroke-linejoin="null" stroke-linecap="null" x="350.19107" y="166.89462" font-size="24" font-family="Serif" text-anchor="middle" xml:space="preserve" transform="matrix(0.7050427760860197,0,0,0.8625642403545432,49.81208960425729,-75.09570117058004) " id="svg_94">Part 1 -</text>
  </g>
  <g stroke="null" display="inline">
  <title>Part 4 -</title>
  <text stroke="#000000" fill="#4c4c4c" stroke-width="0" stroke-dasharray="null" stroke-linejoin="null" stroke-linecap="null" x="344.05365" y="337.39471" font-size="24" font-family="Serif" text-anchor="middle" xml:space="preserve" transform="matrix(0.796600657520947,0,0,0.8309477903661387,23.33308195519951,-4.646526887977912) " id="svg_95">Part 4 -</text>
  </g>
  <g stroke="null" display="inline">
  <title>Part 2 -</title>
  <text stroke="#000000" fill="#4c4c4c" stroke-width="0" stroke-dasharray="null" stroke-linejoin="null" stroke-linecap="null" x="564.15484" y="185.78508" font-size="24" font-family="Serif" text-anchor="middle" xml:space="preserve" transform="matrix(0.7050428991142029,0,0,0.8309477903661387,64.15125482052724,-85.67189659538265) " id="svg_96">Part 2 -</text>
  </g>
  <g stroke="null" display="inline">
  <title>Next Generation</title>
  <text stroke="#000000" transform="matrix(0.5498274228163972,0,0,0.5901073427899824,-46.55753597307018,56.99137281366831) " xml:space="preserve" text-anchor="middle" font-family="Sans-serif" font-size="24" y="53.49113" x="1224.03687" stroke-linecap="null" stroke-linejoin="null" stroke-dasharray="null" stroke-width="0" fill="#bf005f" id="svg_100">Next Generation</text>
  </g>
  <g stroke="null" display="inline">
  <title>Part 3 -</title>
  <text stroke="#000000" fill="#4c4c4c" stroke-width="0" stroke-dasharray="null" stroke-linejoin="null" stroke-linecap="null" x="725.03351" y="189.22201" font-size="24" font-family="Serif" text-anchor="middle" xml:space="preserve" transform="matrix(0.7186989659244276,0,0,0.8051558212634826,107.3478331582829,-83.38068483075575) " id="svg_101">Part 3 -</text>
  </g>
  <g stroke="null" display="inline">
  <title>Sequencing arrives</title>
  <text stroke="#000000" transform="matrix(0.6258838959326739,0,0,0.6845892968158971,-113.94950470029018,67.65769085047913) " xml:space="preserve" text-anchor="middle" font-family="Sans-serif" font-size="24" y="58.44009" x="1184.15083" stroke-linecap="null" stroke-linejoin="null" stroke-dasharray="null" stroke-width="0" fill="#bf005f" id="svg_102">Sequencing arrives</text>
  </g>
  <g stroke="null" display="inline">
  <title>Part 7 -</title>
  <text stroke="#000000" fill="#4c4c4c" stroke-width="0" stroke-dasharray="null" stroke-linejoin="null" stroke-linecap="null" x="353.04017" y="495.43515" font-size="24" font-family="Serif" text-anchor="middle" xml:space="preserve" transform="matrix(0.7704412979761631,0,0,0.8625642403545433,25.810791857411303,49.87185580293647) " id="svg_105">Part 7 -</text>
  </g>
  <g stroke="null" display="inline">
  <title>Part 5 -</title>
  <text stroke="#000000" fill="#4c4c4c" stroke-width="0" stroke-dasharray="null" stroke-linejoin="null" stroke-linecap="null" x="504.72069" y="331.70458" font-size="24" font-family="Serif" text-anchor="middle" xml:space="preserve" transform="matrix(0.7188696312241769,0,0,0.8051435958086797,97.97789519446174,7.689128708572254) " id="svg_106">Part 5 -</text>
  </g>
  <g stroke="null" display="inline">
  <title>Part 6 -</title>
  <text stroke="#000000" fill="#4c4c4c" stroke-width="0" stroke-dasharray="null" stroke-linejoin="null" stroke-linecap="null" x="719.4332" y="351.20875" font-size="24" font-family="Serif" text-anchor="middle" xml:space="preserve" transform="matrix(0.7966007190350382,0,0,0.7728523391040417,60.70525057527647,4.530208425112647) " id="svg_107">Part 6 -</text>
  </g>
  <g stroke="null" display="inline">
  <title>Sequence comparison</title>
  <text fill="#bf005f" stroke-width="0" stroke-dasharray="null" stroke-linejoin="null" stroke-linecap="null" opacity="0.9" x="306.41333" y="517.24981" id="svg_108" font-size="24" font-family="Sans-serif" text-anchor="middle" xml:space="preserve" transform="matrix(0.560916816592958,0,0,0.6132158786325326,127.30821496526033,177.3910873568638) " stroke="#000000">Sequence comparison</text>
  </g>
  <g stroke="null" display="inline">
  <title>on large data sets</title>
  <text stroke="#000000" transform="matrix(0.6332166697495223,0,0,0.6148205355042318,91.90140239571384,189.84172671887052) " fill="#bf005f" stroke-width="0" stroke-dasharray="null" stroke-linejoin="null" stroke-linecap="null" opacity="0.9" x="330.3301" y="522.23842" id="svg_109" font-size="24" font-family="Sans-serif" text-anchor="middle" xml:space="preserve">on large data sets</text>
  </g>
  <g stroke="null" display="inline">
  <title>storage problems</title>
  <text id="svg_2" font-weight="normal" xml:space="preserve" text-anchor="middle" font-family="Sans-serif" font-size="24" y="320.28299" x="489.64335" stroke-linecap="null" stroke-linejoin="null" stroke-dasharray="null" stroke-width="0" fill="#bf005f" transform="matrix(0.7460695111931912,0,0,0.6084656343258246,97.7696574209323,113.21279014336571) " stroke="#000000">storage problems</text>
  </g>
  <g stroke="null" display="inline">
  <title>08 September 2014</title>
  <text fill="#bf0000" stroke-width="0" stroke-dasharray="null" stroke-linejoin="null" stroke-linecap="null" opacity="0.9" x="208.40351" y="193.84082" font-size="24" font-family="Sans-serif" text-anchor="middle" xml:space="preserve" transform="matrix(0.4341042564805473,0,0,0.6976930430263507,66.05634689186405,32.835296369953014) " id="svg_15">08 September 2014</text>
  </g>
 </g>
 
 <g stroke="null" display="inline">
  <title>文字</title>
  <g stroke="null" display="inline">
  <title>
  USC University Professor; 
  Holder of the USC Associates 
  Chair in Natural Sciences;
  </title>
  <image xlink:href="https://c1.staticflickr.com/5/4638/27555637689_ab822b71d3_o.jpg" id="svg_38" height="352.33338" width="180.33333" y="90.08334" x="717.91666"/>
  </g>
  <g stroke="null" display="inline">
  <title>
  Mathematical and Statistical 
  Problems from DNA Sequencing. 
  The ability to produce DNA sequence 
  has dramatically increased 
  since the 2001 announcement 
  of the human genome sequence. 
  </title>
  <image xlink:href="https://c1.staticflickr.com/5/4683/24468812347_b19a2b93cd_o.jpg" id="svg_32" height="270.99996" width="171.33333" y="226.06668" x="21.79998"/>
  </g>
 </g>
</svg>