<svg width="904.9999999999999" height="640.0000000000001" xmlns="http://www.w3.org/2000/svg" xmlns:svg="http://www.w3.org/2000/svg" xmlns:xlink="http://www.w3.org/1999/xlink">
 <!-- Created with SVG-edit - http://svg-edit.googlecode.com/ -->
 <title>On the Social Dynamics of Philosophical Ideas: Dai Zhen&#x27;s Critique of Neo-Confucianism</title>
 <defs>
  <marker refY="50" refX="50" markerHeight="5" markerWidth="5" viewBox="0 0 100 100" orient="auto" markerUnits="strokeWidth" id="se_marker_mid_svg_41">
   <path stroke-width="10" fill="#000000" d="m100,50l-100,40l30,-40l-30,-40l100,40z" id="svg_4" stroke="#000000"/>
  </marker>
  <marker refY="50" refX="50" markerHeight="5" markerWidth="5" viewBox="0 0 100 100" orient="auto" markerUnits="strokeWidth" id="se_marker_mid_svg_44">
   <path stroke-width="10" fill="#000000" d="m100,50l-100,40l30,-40l-30,-40l100,40z" id="svg_6" stroke="#000000"/>
  </marker>
  <pattern id="gridpattern" patternUnits="userSpaceOnUse" x="0" y="0" width="100" height="100">
   <image id="svg_7" x="0" y="0" width="100" height="100"/>
  </pattern>
 </defs>
 <g display="none">
  <title>圖遮罩</title>
 </g>
 <g display="inline" stroke="null">
  <title>圖片</title>
  <image xlink:href="https://c1.staticflickr.com/1/894/41304253411_9d75ea7d06_o.png" id="svg_17" height="101" width="84" y="89.66667" x="72.33333"/>
  <image stroke="null" xlink:href="https://farm5.staticflickr.com/4274/35137216465_ef60a4e069_b.jpg" height="109.28571" width="153" y="107.88097" x="553.83333" id="svg_51"/>
  <image stroke="null" xlink:href="https://farm5.staticflickr.com/4232/35006364661_343902a22c_b.jpg" height="107.14285" width="150" y="312.69046" x="386.16666" id="svg_54"/>
  <image stroke="null" xlink:href="https://farm5.staticflickr.com/4288/34292347864_57a9b3bb6e_b.jpg" height="107.14285" width="150" y="315.69049" x="548.16666" id="svg_60"/>
  <image stroke="null" xlink:href="https://farm5.staticflickr.com/4271/35137216705_642c077dbd_b.jpg" height="105.71428" width="148" y="114.39683" x="224.33334" id="svg_49"/>
  <image stroke="null" xlink:href="https://farm5.staticflickr.com/4248/35137214355_0dcce848e9_b.jpg" height="105.71428" width="147.99999" y="112.17461" x="385.66668" id="svg_50"/>
  <image stroke="null" xlink:href="https://farm5.staticflickr.com/4222/35006365041_fe07685e49_b.jpg" height="109.28571" width="153" y="313.6032" x="222.66667" id="svg_56"/>
  <image xlink:href="https://farm5.staticflickr.com/4260/35006364491_af6be10d39_b.jpg" height="100" width="140" y="504.5" x="42.50002" id="svg_76"/>
 </g>
 <g stroke="null" display="inline">
  <title>文字</title>
  <image x="716.33334" y="37.25677" width="165" height="546" xlink:href="https://c1.staticflickr.com/1/890/41304253381_2f878d044c_o.png" id="svg_48"/>
  <image x="288.5" y="465.80981" width="413.99998" height="160.19019" xlink:href="https://c1.staticflickr.com/1/946/40875225625_514d283fe0_o.png" id="svg_55"/>
  <image x="19" y="263" width="201" height="244.03485" id="svg_65" xlink:href="https://c1.staticflickr.com/1/947/40875339855_a7210914af_o.png"/>
 </g>
 <g display="inline" stroke="null">
  <title>色塊</title>
  <rect stroke="#000000" id="svg_5" fill="#ff7f00" stroke-width="0" x="381.55557" y="16.85186" width="160" height="200.99998" opacity="0.3"/>
  <rect stroke="#000000" id="svg_10" fill="#ff7f00" stroke-width="0" x="217.00001" y="17.85187" width="160" height="201" opacity="0.3"/>
  <rect stroke="#000000" id="svg_11" fill="#ff7f00" stroke-width="0" x="545.11112" y="16.85188" width="160" height="200.99998" opacity="0.3"/>
  <rect stroke="#000000" id="svg_12" fill="#ff7f00" stroke-width="0" x="381.55556" y="220.40743" width="160" height="200.99998" opacity="0.3"/>
  <rect stroke="#000000" id="svg_13" fill="#ff7f00" stroke-width="0" x="217.00001" y="221.40742" width="160" height="201.00001" opacity="0.3"/>
  <rect stroke="#000000" id="svg_14" fill="#ff7f00" stroke-width="0" x="545.11112" y="220.40744" width="160" height="200.99998" opacity="0.3"/>
  <rect stroke="#000000" id="svg_15" fill="#ff7f00" stroke-width="0" x="219.55556" y="423.96296" width="484.66673" height="204" opacity="0.3"/>
  <rect stroke="#000000" fill="#ff7f00" stroke-width="0" x="15.94447" y="16.85182" width="199.11107" height="611.11114" opacity="0.3" id="svg_8"/>
  <rect stroke="#000000" fill="#ff7f00" stroke-width="0" x="710.05555" y="15.8519" width="177.77774" height="612.11106" opacity="0.3" id="svg_9"/>
  <rect fill="#ffffaa" stroke-width="5" stroke-dasharray="null" stroke-linejoin="null" stroke-linecap="null" x="752.0289" y="34.85" width="138" height="33.66667" id="svg_22"/>
 </g>
 <g display="inline" stroke="null">
  <title>標題</title>
  <text transform="matrix(0.6516511796063823,0,0,1.0802504704689162,264.33243497894665,31.44294650424457) " font-weight="bold" xml:space="preserve" text-anchor="middle" font-family="serif" font-size="24" id="svg_45" y="16.36966" x="-236.04007" stroke-linecap="null" stroke-linejoin="null" stroke-dasharray="null" stroke-width="0" fill="#7f003f">The Development of</text>
  <text font-weight="bold" fill="#7f003f" stroke-width="0" stroke-dasharray="null" stroke-linejoin="null" stroke-linecap="null" opacity="0.8" x="19.49888" y="243.34229" id="svg_31" font-size="24" font-family="serif" text-anchor="middle" xml:space="preserve" transform="matrix(0.6912400758151652,0,0,1.4166119641548152,100.9020762887489,-121.39581062662509) " stroke="#000000">Prof. Pan Zi-qiang</text>
  <text xml:space="preserve" text-anchor="middle" font-family="serif" font-size="24" y="43.60091" x="280.87599" stroke-linecap="null" stroke-linejoin="null" stroke-dasharray="null" stroke-width="0" fill="#ff7f00" id="svg_61" transform="matrix(0.9534971684098892,0,0,0.9534971684098892,11.172802539902513,0.31220982192642666) " stroke="#000000">Part 1.</text>
  <text fill="#3f007f" stroke-width="0" stroke-dasharray="null" stroke-linejoin="null" stroke-linecap="null" x="118.08327" y="-76.31271" id="svg_69" font-size="24" font-family="serif" text-anchor="middle" xml:space="preserve" stroke="#000000" transform="matrix(0.96944315481519,0,0,1.081193777223439,175.23499600407132,169.70974484175943) ">Introduction</text>
  <text fill="#3f007f" stroke-width="0" stroke-dasharray="null" stroke-linejoin="null" stroke-linecap="null" x="227.63347" y="410.12822" font-size="24" font-family="serif" text-anchor="middle" xml:space="preserve" stroke="#000000" transform="matrix(0.7304054528520012,0,0,1.2843428814823463,126.79997227660783,-241.8700114648949) " id="svg_80">Safety Standard</text>
  <text fill="#3f007f" stroke-width="0" stroke-dasharray="null" stroke-linejoin="null" stroke-linecap="null" x="328.65821" y="-51.20832" font-size="24" font-family="serif" text-anchor="middle" xml:space="preserve" stroke="#000000" transform="matrix(0.8216785961576283,0,0,1.2513228531475913,187.40190002250506,144.81862646924878) " id="svg_87">Study of</text>
  <a id="svg_26" xlink:href="https://youtu.be/hGakkDq_HMk">
   <path id="svg_44" marker-mid="url(#se_marker_mid_svg_44)" d="m353.27154,180.68171c-8.26903,0 -14.97223,6.47597 -14.97223,14.46469c0,7.98872 6.7032,14.46469 14.97223,14.46469c8.26903,0 14.97222,-6.47597 14.97222,-14.46469c0,-7.98872 -6.70319,-14.46469 -14.97222,-14.46469zm-2.40541,24.14332l-3.64261,-3.52213l6.37355,-6.15749l-6.37355,-6.1575l3.64261,-3.51914l10.0172,9.67664l-10.0172,9.67962z" stroke-linecap="null" stroke-linejoin="null" stroke-dasharray="null" stroke-width="0" fill="#ff7f00" stroke="#000000"/>
  </a>
  <a id="svg_57" xlink:href="https://www.youtube.com/watch?v=YeUQatOyKc0&amp;list=PLC6YZ5mMz0SxSYp7qfzVxP9Z9PhO9NUz8&amp;index=5&amp;t=0s">
   <path id="svg_43" marker-mid="url(#se_marker_mid_svg_44)" d="m520.77154,184.68171c-8.26903,0 -14.97223,6.47597 -14.97223,14.46469c0,7.98872 6.7032,14.46469 14.97223,14.46469c8.26903,0 14.97222,-6.47597 14.97222,-14.46469c0,-7.98872 -6.70319,-14.46469 -14.97222,-14.46469zm-2.40541,24.14332l-3.64261,-3.52213l6.37355,-6.15749l-6.37355,-6.1575l3.64261,-3.51914l10.0172,9.67664l-10.0172,9.67962z" stroke-linecap="null" stroke-linejoin="null" stroke-dasharray="null" stroke-width="0" fill="#ff7f00" stroke="#000000"/>
  </a>
  <a id="svg_58" xlink:href="https://www.youtube.com/watch?v=yCK7ERY4eZM&amp;list=PLC6YZ5mMz0SxSYp7qfzVxP9Z9PhO9NUz8&amp;index=4&amp;t=0s">
   <path id="svg_42" marker-mid="url(#se_marker_mid_svg_44)" d="m678.27154,185.68172c-8.26903,0 -14.97223,6.47597 -14.97223,14.46469c0,7.98872 6.7032,14.46469 14.97223,14.46469c8.26903,0 14.97222,-6.47597 14.97222,-14.46469c0,-7.98872 -6.70319,-14.46469 -14.97222,-14.46469zm-2.40541,24.14331l-3.64261,-3.52212l6.37355,-6.1575l-6.37355,-6.15749l3.64261,-3.51914l10.0172,9.67663l-10.0172,9.67962z" stroke-linecap="null" stroke-linejoin="null" stroke-dasharray="null" stroke-width="0" fill="#ff7f00" stroke="#000000"/>
  </a>
  <a id="svg_59" xlink:href="https://www.youtube.com/watch?v=6QLYE-zM2eU&amp;list=PLC6YZ5mMz0SxSYp7qfzVxP9Z9PhO9NUz8&amp;index=3&amp;t=0s">
   <path id="svg_41" marker-mid="url(#se_marker_mid_svg_41)" d="m356.27154,391.43171c-8.26903,0 -14.97223,6.47597 -14.97223,14.46469c0,7.98872 6.7032,14.46469 14.97223,14.46469c8.26903,0 14.97222,-6.47597 14.97222,-14.46469c0,-7.98872 -6.70319,-14.46469 -14.97222,-14.46469zm-2.40541,24.14332l-3.64261,-3.52213l6.37355,-6.15749l-6.37355,-6.1575l3.64261,-3.51914l10.0172,9.67664l-10.0172,9.67962z" stroke-linecap="null" stroke-linejoin="null" stroke-dasharray="null" stroke-width="0" fill="#ff7f00" stroke="#000000"/>
  </a>
  <a id="svg_70" xlink:href="https://www.youtube.com/watch?v=s-Sks0CndBo&amp;list=PLC6YZ5mMz0SxSYp7qfzVxP9Z9PhO9NUz8&amp;index=2&amp;t=0s">
   <path id="svg_40" marker-mid="url(#se_marker_mid_svg_41)" d="m519.77154,389.43171c-8.26903,0 -14.97223,6.47597 -14.97223,14.46469c0,7.98872 6.7032,14.46469 14.97223,14.46469c8.26903,0 14.97222,-6.47597 14.97222,-14.46469c0,-7.98872 -6.70319,-14.46469 -14.97222,-14.46469zm-2.40541,24.14332c-1.2142,-1.17404 -2.42841,-2.34809 -3.64261,-3.52213l6.37355,-6.15749l-6.37355,-6.1575l3.64261,-3.51914l10.0172,9.67664l-10.0172,9.67962z" stroke-linecap="null" stroke-linejoin="null" stroke-dasharray="null" stroke-width="0" fill="#ff7f00" stroke="#000000"/>
  </a>
  <a id="svg_71" xlink:href="https://www.youtube.com/watch?v=9jsFNYejjLM&amp;list=PLC6YZ5mMz0SxSYp7qfzVxP9Z9PhO9NUz8&amp;index=1">
   <path id="svg_39" marker-mid="url(#se_marker_mid_svg_41)" d="m680.27154,388.43172c-8.26903,0 -14.97223,6.47597 -14.97223,14.46469c0,7.98872 6.7032,14.46469 14.97223,14.46469c8.26903,0 14.97222,-6.47597 14.97222,-14.46469c0,-7.98872 -6.70319,-14.46469 -14.97222,-14.46469zm-2.40541,24.14331l-3.64261,-3.52212l6.37355,-6.1575l-6.37355,-6.15749l3.64261,-3.51914l10.0172,9.67663l-10.0172,9.67962z" stroke-linecap="null" stroke-linejoin="null" stroke-dasharray="null" stroke-width="0" fill="#ff7f00" stroke="#000000"/>
  </a>
  <text fill="#3f3f3f" stroke="#000000" stroke-width="0" stroke-dasharray="null" stroke-linejoin="null" stroke-linecap="null" x="772.10043" y="542.0428" id="svg_83" font-size="24" font-family="serif" text-anchor="middle" xml:space="preserve"/>
  <g id="svg_180"/>
  <text fill="#3f007f" stroke-width="0" stroke-dasharray="null" stroke-linejoin="null" stroke-linecap="null" x="747.27526" y="314.66266" font-size="24" font-family="serif" text-anchor="middle" xml:space="preserve" stroke="#000000" transform="matrix(0.8350377753171865,0,0,1.2540970264122,-1.435884919813681,-325.80275995283836) " id="svg_53">Main Source</text>
  <text fill="#3f007f" stroke-width="0" stroke-dasharray="null" stroke-linejoin="null" stroke-linecap="null" x="485.42014" y="440.19466" font-size="24" font-family="serif" text-anchor="middle" xml:space="preserve" stroke="#000000" transform="matrix(0.9095297547169698,0,0,1.1706260570943403,20.38139620410962,-235.99660855984376) " id="svg_84">Fukushima</text>
  <text fill="#3f007f" stroke-width="0" stroke-dasharray="null" stroke-linejoin="null" stroke-linecap="null" x="733.26666" y="426.96582" font-size="24" font-family="serif" text-anchor="middle" xml:space="preserve" stroke="#000000" transform="matrix(0.9814504729170155,0,0,1.1911401880367742,-92.74899264977982,-219.63281744355282) " id="svg_86">Q&amp;A</text>
  <text id="svg_27" fill="#7f003f" stroke-width="0" stroke-dasharray="null" stroke-linejoin="null" stroke-linecap="null" opacity="0.8" x="873.42024" y="89.07273" font-size="24" font-family="serif" text-anchor="middle" xml:space="preserve" font-style="italic" transform="matrix(0.7280527701259416,0,0,0.8188012338468919,170.34399353135802,-17.237344596451262) ">Speaker’s Biography</text>
  <text id="svg_25" transform="matrix(0.7795604220120231,0,0,0.9383360027374301,26.909338904295787,12.282516565458836) " font-style="normal" fill="#7f003f" stroke-width="0" stroke-dasharray="null" stroke-linejoin="null" stroke-linecap="null" opacity="0.8" x="109.91894" y="254.20601" font-size="24" font-family="serif" text-anchor="middle" xml:space="preserve" font-weight="bold">25 September 2014</text>
  <text id="svg_20" transform="matrix(0.5897947070105359,0,0,1.055018443723524,244.11389409442458,27.61415836512994) " font-weight="bold" xml:space="preserve" text-anchor="middle" font-family="serif" font-size="24" y="52.64384" x="-228.53423" stroke-linecap="null" stroke-linejoin="null" stroke-dasharray="null" stroke-width="0" fill="#7f003f">Radiation Safety</text>
  <text stroke="#000000" xml:space="preserve" text-anchor="middle" font-family="serif" font-size="24" y="455.65208" x="313.65947" stroke-linecap="null" stroke-linejoin="null" stroke-dasharray="null" stroke-width="0" fill="#ff7f00" id="svg_19" font-weight="bold">Further Reading</text>
  <text stroke="#000000" transform="matrix(0.9233686774303297,0,0,1.052879110820605,27.905008510450227,-19.37475943262291) " xml:space="preserve" text-anchor="middle" font-family="serif" font-size="24" id="svg_2" y="316" x="467.91181" stroke-linecap="null" stroke-linejoin="null" stroke-dasharray="null" stroke-width="0" fill="#3f007f">Nuclear Disaster</text>
  <text xml:space="preserve" text-anchor="middle" font-family="serif" font-size="24" y="42.6131" x="426.80316" stroke-linecap="null" stroke-linejoin="null" stroke-dasharray="null" stroke-width="0" fill="#ff7f00" transform="matrix(0.8202800938329702,0,0,0.8202800938329702,102.40695466736767,2.559445030684863) " stroke="#000000" id="svg_34">Part 2.</text>
  <text xml:space="preserve" text-anchor="middle" font-family="serif" font-size="24" y="41.79339" x="558.77781" stroke-linecap="null" stroke-linejoin="null" stroke-dasharray="null" stroke-width="0" fill="#ff7f00" transform="matrix(0.8942895635504655,0,0,0.8942895635504655,116.30012993517778,0.895603257334777) " stroke="#000000" id="svg_35">Part 3.</text>
  <text xml:space="preserve" text-anchor="middle" font-family="serif" font-size="24" y="211.56161" x="285.39091" stroke-linecap="null" stroke-linejoin="null" stroke-dasharray="null" stroke-width="0" fill="#ff7f00" transform="matrix(0.8794877714059623,0,0,0.8794877714059623,30.996928674128917,58.95777766530195) " stroke="#000000" id="svg_36">Part 4.</text>
  <text xml:space="preserve" text-anchor="middle" font-family="serif" font-size="24" y="210.5738" x="431.31808" stroke-linecap="null" stroke-linejoin="null" stroke-dasharray="null" stroke-width="0" fill="#ff7f00" transform="matrix(0.8794876986923938,0,0,0.8794876986923938,80.67510583086539,58.62266807403168) " stroke="#000000" id="svg_37">Part 5.</text>
  <text xml:space="preserve" text-anchor="middle" font-family="serif" font-size="24" y="209.75409" x="563.29273" stroke-linecap="null" stroke-linejoin="null" stroke-dasharray="null" stroke-width="0" fill="#ff7f00" transform="matrix(0.8942895635504655,0,0,0.8942895635504655,117.77061553820715,55.59323086597319) " stroke="#000000" id="svg_38">Part 6.</text>
  <text fill="#3f007f" stroke-width="0" stroke-dasharray="null" stroke-linejoin="null" stroke-linecap="null" x="223.57243" y="432.04238" font-size="24" font-family="serif" text-anchor="middle" xml:space="preserve" stroke="#000000" transform="matrix(0.7138202217099788,0,0,1.2551794579730866,130.16568723460946,-226.72921331521107) " id="svg_68">of Radiation</text>
  <text fill="#3f007f" stroke-width="0" stroke-dasharray="null" stroke-linejoin="null" stroke-linecap="null" x="333.75354" y="-30.51263" font-size="24" font-family="serif" text-anchor="middle" xml:space="preserve" stroke="#000000" transform="matrix(0.8216785961576283,0,0,1.2513228531475913,187.40190002250506,144.81862646924878) " id="svg_72">Radiation  Effect</text>
  <text fill="#3f007f" stroke-width="0" stroke-dasharray="null" stroke-linejoin="null" stroke-linecap="null" x="742.48506" y="158.37491" font-size="24" font-family="serif" text-anchor="middle" xml:space="preserve" stroke="#000000" transform="matrix(0.8350377753171864,0,0,1.2540970264122,1.1354651778425686,-99.5962627604556) " id="svg_73">of Radiation</text>
  <text fill="#3f007f" stroke-width="0" stroke-dasharray="null" stroke-linejoin="null" stroke-linecap="null" x="-25.48102" y="566.89723" font-size="24" font-family="serif" text-anchor="middle" xml:space="preserve" stroke="#000000" transform="matrix(1.0695954808989272,0,0,1.7418686052144923,145.6533679154841,-488.73887548627187) " id="svg_75">Welcoming</text>
  <a id="svg_77" xlink:href="https://youtu.be/HrikVtHjFNY">
   <path marker-mid="url(#se_marker_mid_svg_41)" d="m165.51174,569.96186c-8.26903,0 -14.97223,6.47597 -14.97223,14.46469c0,7.98872 6.7032,14.46469 14.97223,14.46469c8.26903,0 14.97222,-6.47597 14.97222,-14.46469c0,-7.98872 -6.70319,-14.46469 -14.97222,-14.46469zm-2.40541,24.14332l-3.64261,-3.52213l6.37355,-6.15749l-6.37355,-6.1575l3.64261,-3.51914l10.0172,9.67664l-10.0172,9.67962z" stroke-linecap="null" stroke-linejoin="null" stroke-dasharray="null" stroke-width="0" fill="#ff7f00" stroke="#000000" id="svg_74"/>
  </a>
 </g>
</svg>