<svg width="905" height="640.0000000000002" xmlns="http://www.w3.org/2000/svg" xmlns:svg="http://www.w3.org/2000/svg" xmlns:xlink="http://www.w3.org/1999/xlink">
 <!-- Created with SVG-edit - http://svg-edit.googlecode.com/ -->
 <title/>
 <defs>
  <marker id="se_marker_mid_svg_36" markerUnits="strokeWidth" orient="auto" viewBox="0 0 100 100" markerWidth="5" markerHeight="5" refX="50" refY="50">
   <path stroke="#000000" id="svg_1" d="m100,50l-100,40l30,-40l-30,-40l100,40z" fill="#000000" stroke-width="10"/>
  </marker>
  <marker id="se_marker_mid_svg_38" markerUnits="strokeWidth" orient="auto" viewBox="0 0 100 100" markerWidth="5" markerHeight="5" refX="50" refY="50">
   <path stroke="#000000" id="svg_3" d="m100,50l-100,40l30,-40l-30,-40l100,40z" fill="#000000" stroke-width="10"/>
  </marker>
  <marker id="se_marker_mid_svg_41" markerUnits="strokeWidth" orient="auto" viewBox="0 0 100 100" markerWidth="5" markerHeight="5" refX="50" refY="50">
   <path stroke="#000000" id="svg_4" d="m100,50l-100,40l30,-40l-30,-40l100,40z" fill="#000000" stroke-width="10"/>
  </marker>
  <marker id="se_marker_mid_svg_44" markerUnits="strokeWidth" orient="auto" viewBox="0 0 100 100" markerWidth="5" markerHeight="5" refX="50" refY="50">
   <path stroke="#000000" id="svg_6" d="m100,50l-100,40l30,-40l-30,-40l100,40z" fill="#000000" stroke-width="10"/>
  </marker>
  <pattern height="100" width="100" y="0" x="0" patternUnits="userSpaceOnUse" id="gridpattern">
   <image height="100" width="100" y="0" x="0" id="svg_7"/>
  </pattern>
 </defs>
 <g display="inline">
  <title>圖遮罩</title>
 </g>
 <g display="inline" stroke="null">
  <title>文字</title>
  <image xlink:href="https://c1.staticflickr.com/5/4457/36803232123_976326c7aa_o.png" id="svg_32" height="250" width="171.99999" y="225" x="31"/>
  <image xlink:href="https://c1.staticflickr.com/5/4445/37472748301_94f4bf249f_o.png" id="svg_38" height="349.00002" width="188" y="85.99997" x="711.25"/>
  <text fill="#7f3f00" stroke-width="0" stroke-dasharray="null" stroke-linejoin="null" stroke-linecap="null" x="236.26758" y="538.04087" id="svg_47" font-size="24" font-family="serif" text-anchor="middle" xml:space="preserve" transform="matrix(0.4834371719513622,0,0,0.8992735829096963,429.52568904298954,41.47573140112634) " font-weight="normal">1. Chinese Academy of Sciences has big plans for nation&#x27;s research</text>
  <text fill="#7f3f00" stroke-width="0" stroke-dasharray="null" stroke-linejoin="null" stroke-linecap="null" x="640.26525" y="568.77925" id="svg_50" font-size="24" font-family="serif" text-anchor="middle" xml:space="preserve" transform="matrix(0.46664728657806415,0,0,0.6750270297714873,248.96422529407616,164.73868232849622) ">http://www.nature.com/news/2011/110324/full/news.2011.180.html</text>
  <text fill="#7f3f00" stroke-width="0" stroke-dasharray="null" stroke-linejoin="null" stroke-linecap="null" x="575.86304" y="588.22809" id="svg_53" font-size="24" font-family="serif" text-anchor="middle" xml:space="preserve" transform="matrix(0.4925797166763021,0,0,0.6920468916460282,205.9410049839036,163.91217259282146) " font-weight="normal">2. Awardee of Chmistry Prize  Bai Chunli</text>
  <text fill="#7f3f00" stroke-width="0" stroke-dasharray="null" stroke-linejoin="null" stroke-linecap="null" x="685.67235" y="621.53585" id="svg_55" font-size="24" font-family="serif" text-anchor="middle" xml:space="preserve" transform="matrix(0.5110814494180553,0,0,0.5540200024776726,173.68294078688712,246.75831953496396) ">http://www.hlhl.org.cn/english/showsub.asp?id=552</text>
 </g>
 <g stroke="null" display="inline">
  <title>色塊</title>
  <rect opacity="0.3" height="200.99998" width="160" y="15.85186" x="383.55557" stroke-width="0" fill="#ffd4aa" id="svg_5" stroke="#000000"/>
  <rect opacity="0.3" height="201" width="160" y="16.85187" x="219.00001" stroke-width="0" fill="#ffd4aa" id="svg_10" stroke="#000000"/>
  <rect opacity="0.3" height="200.99998" width="160" y="15.85188" x="547.11112" stroke-width="0" fill="#ffd4aa" id="svg_11" stroke="#000000"/>
  <rect opacity="0.3" height="200.99998" width="160" y="222.40743" x="383.55556" stroke-width="0" fill="#ffd4aa" id="svg_12" stroke="#000000"/>
  <rect opacity="0.3" height="198.00001" width="160" y="223.40742" x="219.00001" stroke-width="0" fill="#ffd4aa" id="svg_13" stroke="#000000"/>
  <rect opacity="0.3" height="200.99998" width="160" y="222.40744" x="547.11112" stroke-width="0" fill="#ffd4aa" id="svg_14" stroke="#000000"/>
  <rect stroke="#000000" opacity="0.3" height="194.65718" width="322.50953" y="431.30578" x="384.51425" stroke-width="0" fill="#ffd4aa" id="svg_15"/>
  <rect opacity="0.3" height="195" width="160" y="430.38564" x="219" stroke-width="0" fill="#ffd4aa" id="svg_16" stroke="#000000"/>
  <rect id="svg_8" opacity="0.3" height="611.11114" width="199.11107" y="16.85182" x="15.94447" stroke-width="0" fill="#ffd4aa" stroke="#000000"/>
  <rect stroke="#000000" id="svg_9" opacity="0.3" height="611.11106" width="177.77774" y="14.8519" x="712.05555" stroke-width="0" fill="#ffd4aa"/>
  <rect stroke="#ffffff" id="svg_19" height="159.5" width="164" y="476.15741" x="36.66667" stroke-width="5" fill="none"/>
  <rect stroke="#000000" stroke-opacity="0" id="svg_21" height="32" width="132" y="188.32916" x="17.19167" stroke-linecap="null" stroke-linejoin="null" stroke-dasharray="null" stroke-width="0" fill="#ffaaaa"/>
  <rect stroke="#000000" stroke-opacity="0" id="svg_22" height="52.66667" width="148" y="22.18333" x="742.0289" stroke-linecap="null" stroke-linejoin="null" stroke-dasharray="null" stroke-width="0" fill="#ffaaaa"/>
  <rect stroke-opacity="0" stroke="#000000" id="svg_24" height="35" width="132" y="484.43334" x="83.11614" stroke-linecap="null" stroke-linejoin="null" stroke-dasharray="null" stroke-width="0" fill="#ffaaaa"/>
  <rect stroke-opacity="0" id="svg_29" height="34.625" width="197.08593" y="438.58282" x="390.32292" stroke-linecap="null" stroke-linejoin="null" stroke-dasharray="null" stroke-width="0" fill="#ffaaaa" stroke="#000000"/>
 </g>
 <g stroke="null" display="inline">
  <title>圖片</title>
  <image xlink:href="https://farm5.staticflickr.com/4289/34749742230_553c2efa62_b.jpg" id="svg_92" height="86" width="141.33333" y="530.66665" x="32.66667"/>
  <image xlink:href="https://c1.staticflickr.com/5/4448/37442420026_2ff4ede3f8_o.png" id="svg_37" height="96" width="83" y="86" x="18"/>
  <image xlink:href="https://c1.staticflickr.com/5/4254/34292138634_eded38a547_b.jpg" id="svg_48" height="102.99997" width="148.74999" y="110.75004" x="226.00002"/>
  <image xlink:href="https://farm5.staticflickr.com/4250/35006084011_8b454324b0_b.jpg" id="svg_51" height="100.74997" width="183.25" y="112.25004" x="373.00002"/>
  <image xlink:href="https://farm5.staticflickr.com/4267/35136990055_afb0287014_b.jpg" id="svg_52" height="99.24997" width="165.24996" y="112.25004" x="547.00003"/>
  <image xlink:href="https://farm5.staticflickr.com/4225/35006082581_363f8218d3_b.jpg" id="svg_54" height="101.49998" width="177.24999" y="315.50001" x="540.25001"/>
  <image xlink:href="https://farm5.staticflickr.com/4225/35136989885_40b4e08178_b.jpg" id="svg_67" height="103.74999" width="158.49996" y="314.75001" x="383.50008"/>
  <image xlink:href="https://farm5.staticflickr.com/4214/35136989645_f8692289b2_b.jpg" id="svg_68" height="102.24996" width="169.74996" y="314.00003" x="214.75007"/>
  <image xlink:href="https://farm5.staticflickr.com/4276/35136989575_dae49a5ffd_b.jpg" id="svg_72" height="103.74999" width="154.74998" y="514.25" x="223.75002"/>
  <image xlink:href="https://farm5.staticflickr.com/4271/35006080411_0ca312f4dd_b.jpg" id="svg_77" height="112.58078" width="168.44332" y="478.21641" x="717.35392"/>
 </g>
 <g stroke="null" display="inline">
  <title>標題</title>
  <text fill="#7f0000" stroke-width="0" stroke-dasharray="null" stroke-linejoin="null" stroke-linecap="null" x="-277.04223" y="14.59975" id="svg_45" font-size="24" font-family="serif" text-anchor="middle" xml:space="preserve" font-weight="normal" transform="matrix(0.7016641746582732,0,0,1.0324611170586202,310.4951533484581,31.937690381718475) ">Progress in and Prospectives</text>
  <text fill="#ff5656" stroke-width="0" stroke-dasharray="null" stroke-linejoin="null" stroke-linecap="null" x="334.29931" y="461.20741" id="svg_35" font-size="24" font-family="serif" text-anchor="middle" xml:space="preserve" transform="matrix(0.6644403127382221,0,0,0.688085411352168,67.30792386382849,148.44703536401363) " stroke="#000000">Part 7-</text>
  <text xml:space="preserve" text-anchor="middle" font-family="serif" font-size="24" id="svg_25" y="69.81421" x="831.9884" opacity="0.8" stroke-linecap="null" stroke-linejoin="null" stroke-dasharray="null" stroke-width="0" fill="#7f0000" font-style="italic" transform="matrix(0.9353397761395539,0,0,1.0784846206374936,61.89591675886513,-6.869126517523288) ">Speaker&#x27;s</text>
  <text font-style="italic" transform="matrix(0.8673995902415853,0,0,0.977002394595577,22.673593733757855,10.58180396983199) " xml:space="preserve" text-anchor="middle" font-family="serif" font-size="24" id="svg_27" y="206.14811" x="57.24895" opacity="0.8" stroke-linecap="null" stroke-linejoin="null" stroke-dasharray="null" stroke-width="0" fill="#7f0000">Abstract</text>
  <text font-style="italic" transform="translate(888.8558959960938,436.2577209472656) scale(0.9734276533126831,1) translate(-888.8558959960938,-436.2577209472656) translate(889.87255859375,504.8636779785156) scale(1) translate(-889.87255859375,-504.8636779785156) translate(889.914306640625,505.77667236328125) scale(1.0139044523239136,1.3043327331542969) translate(-889.914306640625,-505.77667236328125) translate(888.4232177734375,504.6651611328125) scale(1) translate(-888.4232177734375,-504.6651611328125) translate(888.3218994140625,504.255126953125) scale(0.9399330019950867,0.7570223808288574) translate(-888.3218994140625,-504.255126953125) translate(888.0772705078125,504.109619140625) scale(0.8550723195075989,0.9137715697288513) translate(-888.0772705078125,-504.109619140625) matrix(1.0937924253894378,0,0,1.0937924253894378,71.03591400341189,-39.500754610857044) " xml:space="preserve" text-anchor="middle" font-family="serif" font-size="24" id="svg_28" y="456.26645" x="267.39392" opacity="0.8" stroke-linecap="null" stroke-linejoin="null" stroke-dasharray="null" stroke-width="0" fill="#7f0000">Further Reading</text>
  <text xml:space="preserve" text-anchor="middle" font-family="serif" font-size="24" id="svg_30" y="507.32143" x="148.63732" opacity="0.8" stroke-linecap="null" stroke-linejoin="null" stroke-dasharray="null" stroke-width="0" fill="#7f0000" font-style="italic" transform="matrix(0.9729768037796019,0,0,0.8484848737716675,1.7300485353916883,77.4242295026779) ">Welcoming</text>
  <text stroke="#000000" transform="matrix(0.4693122086420883,0,0,0.7908749278034058,74.15799606605202,-23.283967544012768) " xml:space="preserve" text-anchor="middle" font-family="serif" font-size="24" id="svg_31" y="222.99923" x="176.92811" opacity="0.8" stroke-linecap="null" stroke-linejoin="null" stroke-dasharray="null" stroke-width="0" fill="#7f7f00">Dr Chiang Pin-kung</text>
  <text id="svg_61" stroke="#000000" fill="#ff5656" stroke-width="0" stroke-dasharray="null" stroke-linejoin="null" stroke-linecap="null" x="90.79916" y="-147.7187" font-size="24" font-family="serif" text-anchor="middle" xml:space="preserve" transform="matrix(0.6914027670774006,0,0,0.8397342269963045,232.27612653983576,181.21958798230563) ">Part 1-</text>
  <text id="svg_62" stroke="#000000" fill="#ff5656" stroke-width="0" stroke-dasharray="null" stroke-linejoin="null" stroke-linecap="null" x="315.28663" y="-123.93206" font-size="24" font-family="serif" text-anchor="middle" xml:space="preserve" transform="matrix(0.7235189096616242,0,0,0.7170545755126402,230.3118885453372,145.71694648889266) ">Part 2-</text>
  <text id="svg_63" stroke="#000000" fill="#ff5656" stroke-width="0" stroke-dasharray="null" stroke-linejoin="null" stroke-linecap="null" x="575.44039" y="-133.10532" font-size="24" font-family="serif" text-anchor="middle" xml:space="preserve" transform="matrix(0.7355851947204145,0,0,0.7202156795853114,200.4042344281901,151.91378946386237) ">Part 3-</text>
  <text id="svg_64" fill="#ff5656" stroke-width="0" stroke-dasharray="null" stroke-linejoin="null" stroke-linecap="null" x="262.42993" y="255.27708" font-size="24" font-family="serif" text-anchor="middle" xml:space="preserve" transform="matrix(0.7028344471818023,0,0,0.7574623599382319,108.61076482206391,64.25618747083362) " stroke="#000000">Part 4-</text>
  <text id="svg_65" fill="#ff5656" stroke-width="0" stroke-dasharray="null" stroke-linejoin="null" stroke-linecap="null" x="487.15258" y="257.12173" font-size="24" font-family="serif" text-anchor="middle" xml:space="preserve" transform="matrix(0.73171418276713,0,0,0.6833997252112685,107.11607967124925,82.13278963985687) " stroke="#000000">Part 5-</text>
  <text id="svg_66" fill="#ff5656" stroke-width="0" stroke-dasharray="null" stroke-linejoin="null" stroke-linecap="null" x="638.42451" y="251.74887" font-size="24" font-family="serif" text-anchor="middle" xml:space="preserve" transform="matrix(0.7464679047023619,0,0,0.7172059732462063,143.8463399971508,75.80044540464672) " stroke="#000000">Part 6-</text>
  <text transform="matrix(0.6736422557032428,0,0,0.9924034902139512,225.64781886000762,174.77902065679814) " stroke="#000000" xml:space="preserve" text-anchor="middle" font-family="serif" font-size="24" id="svg_69" y="-90.29426" x="103.7805" stroke-linecap="null" stroke-linejoin="null" stroke-dasharray="null" stroke-width="0" fill="#ff7f00">Introduction</text>
  <text font-weight="normal" id="svg_80" transform="matrix(0.5802160771427324,0,0,0.8327580016777835,171.25320631806963,-60.59796628058609) " stroke="#000000" xml:space="preserve" text-anchor="middle" font-family="serif" font-size="24" y="411.25822" x="221.12433" stroke-linecap="null" stroke-linejoin="null" stroke-dasharray="null" stroke-width="0" fill="#ff7f00">Nanotechnology</text>
  <text id="svg_82" transform="matrix(0.52300929042626,0,0,0.937766400395121,221.9327805639352,-195.1947041730631) " stroke="#000000" xml:space="preserve" text-anchor="middle" font-family="serif" font-size="24" y="299.95463" x="779.45545" stroke-linecap="null" stroke-linejoin="null" stroke-dasharray="null" stroke-width="0" fill="#ff7f00">Trend of Nanotechnology</text>
  <text id="svg_87" transform="matrix(0.5561618266789596,0,0,0.8234942395924514,280.24872775758706,143.56307499114104) " stroke="#000000" xml:space="preserve" text-anchor="middle" font-family="serif" font-size="24" y="-71.80288" x="331.40463" stroke-linecap="null" stroke-linejoin="null" stroke-dasharray="null" stroke-width="0" fill="#ff7f00">A Snapshop of CAS</text>
  <text id="svg_56" stroke="#000000" transform="matrix(0.8269571390561511,0,0,0.7577703135337633,124.86594935527813,93.23178203376494) " xml:space="preserve" text-anchor="middle" font-family="serif" font-size="24" y="528.73358" x="202.21672" stroke-linecap="null" stroke-linejoin="null" stroke-dasharray="null" stroke-width="0" fill="#ff7f00">Q&amp;A</text>
  <a xlink:href="https://youtu.be/XqRrhvOUaxg" id="svg_26">
   <path stroke="#000000" fill="#3f3f3f" stroke-width="0" stroke-dasharray="null" stroke-linejoin="null" stroke-linecap="null" d="m239.77154,180.43171c-8.26903,0 -14.97223,6.47597 -14.97223,14.46469c0,7.98872 6.7032,14.46469 14.97223,14.46469c8.26903,0 14.97222,-6.47597 14.97222,-14.46469c0,-7.98872 -6.70319,-14.46469 -14.97222,-14.46469zm-2.40541,24.14332l-3.64261,-3.52213l6.37355,-6.15749l-6.37355,-6.1575l3.64261,-3.51914l10.0172,9.67664l-10.0172,9.67962z" marker-mid="url(#se_marker_mid_svg_44)" id="svg_44"/>
  </a>
  <a xlink:href="https://youtu.be/gs5RMx4ZPDQ" id="svg_57">
   <path stroke="#000000" fill="#3f3f3f" stroke-width="0" stroke-dasharray="null" stroke-linejoin="null" stroke-linecap="null" d="m402.52154,180.68171c-8.26903,0 -14.97223,6.47597 -14.97223,14.46469c0,7.98872 6.7032,14.46469 14.97223,14.46469c8.26903,0 14.97222,-6.47597 14.97222,-14.46469c0,-7.98872 -6.70319,-14.46469 -14.97222,-14.46469zm-2.40541,24.14332l-3.64261,-3.52213l6.37355,-6.15749l-6.37355,-6.1575l3.64261,-3.51914l10.0172,9.67664l-10.0172,9.67962z" marker-mid="url(#se_marker_mid_svg_44)" id="svg_43"/>
  </a>
  <a xlink:href="https://youtu.be/fgZXp8NUv-Q" id="svg_58">
   <path stroke="#000000" fill="#3f3f3f" stroke-width="0" stroke-dasharray="null" stroke-linejoin="null" stroke-linecap="null" d="m568.77154,180.68172c-8.26903,0 -14.97223,6.47597 -14.97223,14.46469c0,7.98872 6.7032,14.46469 14.97223,14.46469c8.26903,0 14.97222,-6.47597 14.97222,-14.46469c0,-7.98872 -6.70319,-14.46469 -14.97222,-14.46469zm-2.40541,24.14331l-3.64261,-3.52212l6.37355,-6.1575l-6.37355,-6.15749l3.64261,-3.51914l10.0172,9.67663l-10.0172,9.67962z" marker-mid="url(#se_marker_mid_svg_44)" id="svg_42"/>
  </a>
  <a xlink:href="https://youtu.be/-jxlhnhGTp4" id="svg_59">
   <path stroke="#000000" fill="#3f3f3f" stroke-width="0" stroke-dasharray="null" stroke-linejoin="null" stroke-linecap="null" d="m237.77154,385.93171c-8.26903,0 -14.97223,6.47597 -14.97223,14.46469c0,7.98872 6.7032,14.46469 14.97223,14.46469c8.26903,0 14.97222,-6.47597 14.97222,-14.46469c0,-7.98872 -6.70319,-14.46469 -14.97222,-14.46469zm-2.40541,24.14332l-3.64261,-3.52213l6.37355,-6.15749l-6.37355,-6.1575l3.64261,-3.51914l10.0172,9.67664l-10.0172,9.67962z" marker-mid="url(#se_marker_mid_svg_41)" id="svg_41"/>
  </a>
  <a xlink:href="https://youtu.be/3YoQDzJl6WM" id="svg_60">
   <path stroke="#000000" fill="#3f3f3f" stroke-width="0" stroke-dasharray="null" stroke-linejoin="null" stroke-linecap="null" d="m188.27155,586.01506c-8.26903,0 -14.97223,6.47597 -14.97223,14.46469c0,7.98872 6.7032,14.46469 14.97223,14.46469c8.26903,0 14.97222,-6.47597 14.97222,-14.46469c0,-7.98872 -6.70319,-14.46469 -14.97222,-14.46469zm-2.40541,24.14332l-3.64261,-3.52213l6.37355,-6.15749l-6.37355,-6.1575l3.64261,-3.51914l10.0172,9.67664l-10.0172,9.67962z" marker-mid="url(#se_marker_mid_svg_38)" id="svg_20"/>
  </a>
  <a xlink:href="https://youtu.be/AnPUJK6Sbek" id="svg_70">
   <path stroke="#000000" fill="#3f3f3f" stroke-width="0" stroke-dasharray="null" stroke-linejoin="null" stroke-linecap="null" d="m403.77154,382.43171c-8.26903,0 -14.97223,6.47597 -14.97223,14.46469c0,7.98872 6.7032,14.46469 14.97223,14.46469c8.26903,0 14.97222,-6.47597 14.97222,-14.46469c0,-7.98872 -6.70319,-14.46469 -14.97222,-14.46469zm-2.40541,24.14332c-1.2142,-1.17404 -2.42841,-2.34809 -3.64261,-3.52213l6.37355,-6.15749l-6.37355,-6.1575l3.64261,-3.51914l10.0172,9.67664l-10.0172,9.67962z" marker-mid="url(#se_marker_mid_svg_41)" id="svg_40"/>
  </a>
  <a xlink:href="https://youtu.be/kUGz7jXK1MM" id="svg_71">
   <path stroke="#000000" fill="#3f3f3f" stroke-width="0" stroke-dasharray="null" stroke-linejoin="null" stroke-linecap="null" d="m568.52154,386.34839c-8.26903,0 -14.97223,6.47597 -14.97223,14.46469c0,7.98872 6.7032,14.46469 14.97223,14.46469c8.26903,0 14.97222,-6.47597 14.97222,-14.46469c0,-7.98872 -6.70319,-14.46469 -14.97222,-14.46469zm-2.40541,24.14331l-3.64261,-3.52212l6.37355,-6.1575l-6.37355,-6.15749l3.64261,-3.51914l10.0172,9.67663l-10.0172,9.67962z" marker-mid="url(#se_marker_mid_svg_41)" id="svg_39"/>
  </a>
  <a xlink:href="https://youtu.be/7uhLxjRuac4" id="svg_74">
   <path stroke="#000000" fill="#3f3f3f" stroke-width="0" stroke-dasharray="null" stroke-linejoin="null" stroke-linecap="null" d="m241.43821,586.26506c-8.26903,0 -14.97222,6.47597 -14.97222,14.46469c0,7.98872 6.7032,14.46469 14.97222,14.46469c8.26903,0 14.97222,-6.47597 14.97222,-14.46469c0,-7.98872 -6.7032,-14.46469 -14.97222,-14.46469zm-2.4054,24.14331l-3.64262,-3.52212l6.37355,-6.1575l-6.37355,-6.1575l3.64262,-3.51914l10.01719,9.67663l-10.01719,9.67962l0,0.00001z" id="svg_36" marker-mid="url(#se_marker_mid_svg_36)"/>
  </a>
  <text xml:space="preserve" text-anchor="middle" font-family="serif" font-size="24" id="svg_83" y="542.0428" x="772.10043" stroke-linecap="null" stroke-linejoin="null" stroke-dasharray="null" stroke-width="0" stroke="#000000" fill="#3f3f3f"/>
  <g id="svg_180"/>
  <text stroke="#000000" fill="#7f0000" stroke-width="0" stroke-dasharray="null" stroke-linejoin="null" stroke-linecap="null" x="-241.94627" y="29.67426" font-size="24" font-family="serif" text-anchor="middle" xml:space="preserve" font-weight="normal" transform="matrix(0.7324731624258038,0,0,1.017031413038921,292.7005829494945,36.91580477526826) " id="svg_85">for Nanotechnology</text>
  <text font-weight="normal" id="svg_34" transform="matrix(0.5203163053863747,0,0,0.8107623693249463,216.70703488266682,-49.54692546521977) " stroke="#000000" xml:space="preserve" text-anchor="middle" font-family="serif" font-size="24" y="408.06639" x="472.21336" stroke-linecap="null" stroke-linejoin="null" stroke-dasharray="null" stroke-width="0" fill="#ff7f00">Examples in</text>
  <text id="svg_46" transform="matrix(0.6609602272335723,0,0,0.8253903364099976,145.55328107413402,-44.12822652597686) " stroke="#000000" xml:space="preserve" text-anchor="middle" font-family="serif" font-size="24" y="408.66174" x="731.25517" stroke-linecap="null" stroke-linejoin="null" stroke-dasharray="null" stroke-width="0" fill="#ff7f00">Prospective</text>
  <text opacity="0.8" transform="matrix(0.8782151457276998,0,0,1.0257566429071654,-23.450923716153167,-23.600688150201673) " font-style="italic" xml:space="preserve" text-anchor="middle" font-family="serif" font-size="24" id="svg_49" y="68.0142" x="931.71796" stroke-linecap="null" stroke-linejoin="null" stroke-dasharray="null" stroke-width="0" fill="#7f0000">Biography</text>
  <text fill="#ff7f00" stroke-width="0" stroke-dasharray="null" stroke-linejoin="null" stroke-linecap="null" x="284.47725" y="294.53087" id="svg_18" font-size="24" font-family="serif" text-anchor="middle" xml:space="preserve" transform="matrix(0.663047104036202,0,0,0.7327609393677792,111.12418745051575,84.80620249473166) " stroke="#000000">in China</text>
  <text fill="#ff7f00" stroke-width="0" stroke-dasharray="null" stroke-linejoin="null" stroke-linecap="null" x="543.23037" y="293.19751" id="svg_23" font-size="24" font-family="serif" text-anchor="middle" xml:space="preserve" transform="matrix(0.6016675758399322,0,0,0.6713624581043911,137.4022420848736,103.23283233068533) " stroke="#000000">Fundamental Research</text>
  <text style="cursor: move;" id="svg_33" stroke="#000000" transform="matrix(0.4693122086420883,0,0,0.7908749278034058,74.15799606605202,-23.283967544012768) " xml:space="preserve" text-anchor="middle" font-family="serif" font-size="24" y="249.84075" x="176.53976" opacity="0.8" stroke-linecap="null" stroke-linejoin="null" stroke-dasharray="null" stroke-width="0" fill="#7f7f00">21 November 2012</text>
 </g>
</svg>