<svg width="905" height="640.0000000000002" xmlns="http://www.w3.org/2000/svg" xmlns:svg="http://www.w3.org/2000/svg" xmlns:xlink="http://www.w3.org/1999/xlink">
 <!-- Created with SVG-edit - http://svg-edit.googlecode.com/ -->
 <title/>
 <defs>
  <marker refY="50" refX="50" markerHeight="5" markerWidth="5" viewBox="0 0 100 100" orient="auto" markerUnits="strokeWidth" id="se_marker_mid_svg_41">
   <path stroke-width="10" fill="#000000" d="m100,50l-100,40l30,-40l-30,-40l100,40z" id="svg_4" stroke="#000000"/>
  </marker>
  <marker refY="50" refX="50" markerHeight="5" markerWidth="5" viewBox="0 0 100 100" orient="auto" markerUnits="strokeWidth" id="se_marker_mid_svg_44">
   <path stroke-width="10" fill="#000000" d="m100,50l-100,40l30,-40l-30,-40l100,40z" id="svg_6" stroke="#000000"/>
  </marker>
  <pattern id="gridpattern" patternUnits="userSpaceOnUse" x="0" y="0" width="100" height="100">
   <image id="svg_7" x="0" y="0" width="100" height="100"/>
  </pattern>
 </defs>
 <g display="inline" stroke="null">
  <title>圖遮罩</title>
 </g>
 <g display="inline" stroke="null">
  <title>文字</title>
  <image xlink:href="http://im1.book.com.tw/image/getImage?i=http://www.books.com.tw/img/001/050/82/0010508272.jpg&amp;v=4de616f0&amp;w=348&amp;h=348" id="svg_92" height="136.28828" width="162.41442" y="502.34231" x="185.0901"/>
  <image xlink:href="https://c1.staticflickr.com/5/4620/39523770155_962c0507eb_b.jpg" id="svg_93" height="60.16216" width="400.73874" y="558.19819" x="313.01804"/>
 </g>
 <g display="inline" stroke="null">
  <title>色塊</title>
  <rect stroke="#000000" id="svg_13" fill="#ffaaaa" stroke-width="0" x="221.00001" y="188.40742" width="158.00001" height="163.00001" opacity="0.3"/>
  <rect stroke="#000000" id="svg_15" fill="#ffaaaa" stroke-width="0" x="548.95861" y="356.52957" width="156.98011" height="160.48743" opacity="0.3"/>
  <rect fill="#ff7f00" stroke-width="0" x="12.27779" y="16.85182" width="205.11108" height="611.11114" opacity="0.3" id="svg_8" stroke="#000000"/>
  <rect fill="#ff7f00" stroke-width="0" x="713.05555" y="15.8519" width="177.77774" height="607.61572" opacity="0.3" id="svg_9" stroke="#000000"/>
  <rect fill="#ff7f00" stroke-width="0" stroke-dasharray="null" stroke-linejoin="null" stroke-linecap="null" x="16.2187" y="231.62801" width="177.14727" height="32" id="svg_21" stroke="#000000"/>
  <rect fill="#ff7f00" stroke-width="0" stroke-dasharray="null" stroke-linejoin="null" stroke-linecap="null" x="730.58459" y="32.50063" width="159.58223" height="29.28736" id="svg_22" stroke-opacity="0" stroke="#000000"/>
  <rect stroke="#000000" id="svg_17" fill="#ffaaaa" stroke-width="0" x="222.49999" y="356.99999" width="157" height="159.05406" opacity="0.3"/>
  <rect stroke="#000000" id="svg_18" fill="#ffaaaa" stroke-width="0" x="222.49999" y="16.99999" width="157" height="167.00001" opacity="0.3"/>
  <rect stroke="#000000" id="svg_19" fill="#ffaaaa" stroke-width="0" x="386.49999" y="16.99999" width="157" height="167.00001" opacity="0.3"/>
  <rect stroke="#000000" id="svg_20" fill="#ffaaaa" stroke-width="0" x="549.49999" y="16.99999" width="157" height="167.00001" opacity="0.3"/>
  <rect stroke="#000000" id="svg_30" fill="#ffaaaa" stroke-width="0" x="385.49999" y="188.99999" width="157" height="162.00002" opacity="0.3"/>
  <rect stroke="#000000" id="svg_32" fill="#ffaaaa" stroke-width="0" x="549.49999" y="189" width="157" height="162.00001" opacity="0.3"/>
  <rect stroke="#000000" id="svg_33" fill="#ffaaaa" stroke-width="0" x="385.49999" y="356.99998" width="157" height="160.05407" opacity="0.3"/>
 </g>
 <g display="inline" stroke="null">
  <title>圖片</title>
  <image x="19.33333" y="108.33333" width="102.33334" height="108.33335" id="svg_16" xlink:href="https://c1.staticflickr.com/5/4741/39522436375_dbddc8a088_o.png"/>
  <image xlink:href="https://farm5.staticflickr.com/4235/35005958521_20c33e3fde_b.jpg" id="svg_1" height="106.99999" width="155" y="77" x="224"/>
  <image xlink:href="https://farm5.staticflickr.com/4235/34326770963_7657183150_b.jpg" id="svg_2" height="101.00001" width="151" y="80" x="390"/>
  <image xlink:href="https://farm5.staticflickr.com/4214/34326770873_f613be2190_b.jpg" id="svg_10" height="99" width="151.00002" y="81" x="552.99999"/>
  <image xlink:href="https://farm5.staticflickr.com/4290/35005956711_d562d29e0d_b.jpg" id="svg_12" height="103.00002" width="152.00001" y="247" x="222.99999"/>
  <image xlink:href="https://farm5.staticflickr.com/4237/34750227090_58ef40e82c_b.jpg" id="svg_14" height="102.00001" width="159" y="246.99999" x="385"/>
  <image xlink:href="https://farm5.staticflickr.com/4218/34326768923_fd6ed6fbe1_b.jpg" id="svg_23" height="101" width="151" y="247" x="552.99999"/>
  <image x="214.00002" y="422.99998" width="172.99998" height="100.00002" id="svg_11" xlink:href="https://farm5.staticflickr.com/4237/35005954441_b132810331_b.jpg"/>
  <image x="551" y="416" width="153.00001" height="116" id="svg_47" xlink:href="https://farm5.staticflickr.com/4277/34972153172_fa8e97be72_b.jpg"/>
  <image x="387" y="423.99999" width="157.99999" height="99" id="svg_48" xlink:href="https://farm5.staticflickr.com/4209/34326768573_b1ffb5d191_b.jpg"/>
  <image xlink:href="https://c1.staticflickr.com/5/4630/26547926268_aeac67507e_b.jpg" id="svg_52" height="71.00001" width="126.99999" y="106.16215" x="727.35135"/>
  <image xlink:href="https://c1.staticflickr.com/5/4719/25547501027_f1998204c3_b.jpg" id="svg_56" height="72.00001" width="126" y="232.27026" x="756.94595"/>
  <image xlink:href="https://c1.staticflickr.com/5/4677/38608240590_a0c7c7e234_b.jpg" id="svg_72" height="96.75001" width="134.99997" y="355.42567" x="719.85138"/>
  <image xlink:href="https://c1.staticflickr.com/5/4704/26548072538_09e1525b0c_b.jpg" id="svg_76" height="96.74998" width="121.24997" y="516.41952" x="764.29494"/>
  <image xlink:href="https://c1.staticflickr.com/5/4769/40375326272_b0c15d2f07_o.png" id="svg_88" height="198.40539" width="169.29731" y="441.08106" x="24.72975"/>
  <image xlink:href="https://c1.staticflickr.com/5/4765/25547840627_edcd666ed1_o.png" id="svg_89" height="227.96397" width="167.55854" y="253.69367" x="26.53154"/>
 </g>
 <g display="inline" stroke="null">
  <title>標題</title>
  <text transform="matrix(0.5959849678189311,0,0,0.8010993352650647,206.63916122672896,24.929070470724067) " font-weight="normal" xml:space="preserve" text-anchor="middle" font-family="Sans-serif" font-size="24" id="svg_45" y="18.69711" x="-206.50972" stroke-linecap="null" stroke-linejoin="null" stroke-dasharray="null" stroke-width="0" fill="#ff7f00" opacity="0.85">武力統一與和平統一</text>
  <text fill="#ff7f00" stroke-width="0" stroke-dasharray="null" stroke-linejoin="null" stroke-linecap="null" opacity="0.75" x="409.72501" y="251.12349" id="svg_31" font-size="24" font-family="Sans-serif" text-anchor="middle" xml:space="preserve" transform="matrix(0.6308278467085022,0,0,1.1109816533630636,-95.36579959280009,-95.8087558163567) " stroke="#000000">郝柏村先生</text>
  <text transform="matrix(0.802026530517711,0,0,1.0027738434656437,233.93663034125484,201.5740702591884) " xml:space="preserve" text-anchor="middle" font-family="serif" font-size="24" y="-158.18015" x="31.99631" stroke-linecap="null" stroke-linejoin="null" stroke-dasharray="null" stroke-width="0" fill="#ff7f00" id="svg_61" stroke="#000000">Part 1-</text>
  <text transform="matrix(0.8410712170955589,0,0,0.9525324415168867,193.8160507830479,173.592435778983) " xml:space="preserve" text-anchor="middle" font-family="serif" font-size="24" y="-133.25136" x="276.41634" stroke-linecap="null" stroke-linejoin="null" stroke-dasharray="null" stroke-width="0" fill="#ff7f00" id="svg_62" stroke="#000000">Part 2-</text>
  <text transform="matrix(0.9074823382738635,0,0,0.947783347418406,112.17024987964825,188.05657484103742) " xml:space="preserve" text-anchor="middle" font-family="serif" font-size="24" y="-149.8561" x="526.98383" stroke-linecap="null" stroke-linejoin="null" stroke-dasharray="null" stroke-width="0" fill="#ff7f00" id="svg_63" stroke="#000000">Part 3-</text>
  <text transform="matrix(0.8438392044354265,0,0,0.9750130331397341,37.37332734046956,-7.64389589156341) " xml:space="preserve" text-anchor="middle" font-family="serif" font-size="24" y="227.73938" x="266.56131" stroke-linecap="null" stroke-linejoin="null" stroke-dasharray="null" stroke-width="0" fill="#ff7f00" id="svg_64" stroke="#000000">Part 4-</text>
  <text transform="matrix(0.898864370685268,0,0,0.933577750230113,37.78917619410713,7.332893069838509) " xml:space="preserve" text-anchor="middle" font-family="serif" font-size="24" y="221.98028" x="432.80644" stroke-linecap="null" stroke-linejoin="null" stroke-dasharray="null" stroke-width="0" fill="#ff7f00" id="svg_65" stroke="#000000">Part 5-</text>
  <text transform="matrix(0.9474935770860851,0,0,0.9043331390308329,19.518079112601804,5.586336245030725) " xml:space="preserve" text-anchor="middle" font-family="serif" font-size="24" y="231.99664" x="604.1133" stroke-linecap="null" stroke-linejoin="null" stroke-dasharray="null" stroke-width="0" fill="#ff7f00" id="svg_66" stroke="#000000">Part 6-</text>
  <text fill="#ff007f" stroke-width="0" stroke-dasharray="null" stroke-linejoin="null" stroke-linecap="null" x="151.47874" y="-100.6742" id="svg_69" font-size="24" font-family="serif" text-anchor="middle" xml:space="preserve" transform="matrix(0.7707622538593721,0,0,1.0286872335299795,183.96482792499359,172.27869423014855) " stroke="#000000" opacity="0.7">歡迎詞</text>
  <text fill="#ff007f" stroke-width="0" stroke-dasharray="null" stroke-linejoin="null" stroke-linecap="null" x="178.99059" y="367.32273" font-size="24" font-family="serif" text-anchor="middle" xml:space="preserve" transform="matrix(0.7865770860841138,0,0,0.9827609390052864,160.92584782678904,-125.6009954870427) " id="svg_80" font-weight="normal" opacity="0.7">第二期抗戰</text>
  <text fill="#ff007f" stroke-width="0" stroke-dasharray="null" stroke-linejoin="null" stroke-linecap="null" x="378.64907" y="-73.78061" font-size="24" font-family="serif" text-anchor="middle" xml:space="preserve" transform="matrix(0.7611821645194201,0,0,0.9152578462506245,176.2404845367112,135.93578146761214) " id="svg_87" opacity="0.7">歷史背景介紹</text>
  <a id="svg_26" xlink:href="https://youtu.be/_4KQXvs1HWM" stroke="null">
   <path id="svg_44" marker-mid="url(#se_marker_mid_svg_44)" d="m237.27154,150.18171c-8.26903,0 -14.97223,6.47597 -14.97223,14.46469c0,7.98872 6.7032,14.46469 14.97223,14.46469c8.26903,0 14.97222,-6.47597 14.97222,-14.46469c0,-7.98872 -6.70319,-14.46469 -14.97222,-14.46469zm-2.40541,24.14332l-3.64261,-3.52213l6.37355,-6.15749l-6.37355,-6.1575l3.64261,-3.51914l10.0172,9.67664l-10.0172,9.67962z" stroke-linecap="null" stroke-linejoin="null" stroke-dasharray="null" stroke-width="0" fill="#ffaaaa" stroke="#000000"/>
  </a>
  <a id="svg_57" xlink:href="https://youtu.be/j0nsfbRIm2Q" stroke="null">
   <path id="svg_43" marker-mid="url(#se_marker_mid_svg_44)" d="m403.77154,150.18171c-8.26903,0 -14.97223,6.47597 -14.97223,14.46469c0,7.98872 6.7032,14.46469 14.97223,14.46469c8.26903,0 14.97222,-6.47597 14.97222,-14.46469c0,-7.98872 -6.70319,-14.46469 -14.97222,-14.46469zm-2.40541,24.14332l-3.64261,-3.52213l6.37355,-6.15749l-6.37355,-6.1575l3.64261,-3.51914l10.0172,9.67664l-10.0172,9.67962z" stroke-linecap="null" stroke-linejoin="null" stroke-dasharray="null" stroke-width="0" fill="#ffaaaa" stroke="#000000"/>
  </a>
  <a id="svg_58" xlink:href="https://youtu.be/N8NxrAqfAQI" stroke="null">
   <path id="svg_42" marker-mid="url(#se_marker_mid_svg_44)" d="m572.55401,150.86677c-8.26903,0 -14.97223,6.47597 -14.97223,14.46469c0,7.98872 6.7032,14.46469 14.97223,14.46469c8.26903,0 14.97222,-6.47597 14.97222,-14.46469c0,-7.98872 -6.70319,-14.46469 -14.97222,-14.46469zm-2.40541,24.14331l-3.64261,-3.52212l6.37355,-6.1575l-6.37355,-6.15749l3.64261,-3.51914l10.0172,9.67663l-10.0172,9.67962z" stroke-linecap="null" stroke-linejoin="null" stroke-dasharray="null" stroke-width="0" fill="#ffaaaa" stroke="#000000"/>
  </a>
  <a id="svg_59" xlink:href="https://youtu.be/AUaytkxCZCs" stroke="null">
   <path stroke="#000000" id="svg_41" marker-mid="url(#se_marker_mid_svg_41)" d="m240.52154,320.68071c-8.26903,0 -14.97223,6.47597 -14.97223,14.46469c0,7.98872 6.7032,14.46469 14.97223,14.46469c8.26903,0 14.97222,-6.47597 14.97222,-14.46469c0,-7.98872 -6.70319,-14.46469 -14.97222,-14.46469zm-2.40541,24.14332l-3.64261,-3.52213l6.37355,-6.15749l-6.37355,-6.1575l3.64261,-3.51914l10.0172,9.67664l-10.0172,9.67962z" stroke-linecap="null" stroke-linejoin="null" stroke-dasharray="null" stroke-width="0" fill="#ffaaaa"/>
  </a>
  <a id="svg_70" xlink:href="https://youtu.be/IOOk8RurXDo" stroke="null">
   <path id="svg_40" marker-mid="url(#se_marker_mid_svg_41)" d="m404.52154,318.93071c-8.26903,0 -14.97223,6.47597 -14.97223,14.46469c0,7.98872 6.7032,14.46469 14.97223,14.46469c8.26903,0 14.97222,-6.47597 14.97222,-14.46469c0,-7.98872 -6.70319,-14.46469 -14.97222,-14.46469zm-2.40541,24.14332c-1.2142,-1.17404 -2.42841,-2.34809 -3.64261,-3.52213l6.37355,-6.15749l-6.37355,-6.1575l3.64261,-3.51914l10.0172,9.67664l-10.0172,9.67962z" stroke-linecap="null" stroke-linejoin="null" stroke-dasharray="null" stroke-width="0" fill="#ffaaaa" stroke="#000000"/>
  </a>
  <a id="svg_71" xlink:href="https://youtu.be/uUdZw8Kd2EY" stroke="null">
   <path stroke="#000000" id="svg_39" marker-mid="url(#se_marker_mid_svg_41)" d="m567.52154,320.34839c-8.26903,0 -14.97223,6.47597 -14.97223,14.46469c0,7.98872 6.7032,14.46469 14.97223,14.46469c8.26903,0 14.97222,-6.47597 14.97222,-14.46469c0,-7.98872 -6.70319,-14.46469 -14.97222,-14.46469zm-2.40541,24.14331l-3.64261,-3.52212l6.37355,-6.1575l-6.37355,-6.15749l3.64261,-3.51914l10.0172,9.67663l-10.0172,9.67962z" stroke-linecap="null" stroke-linejoin="null" stroke-dasharray="null" stroke-width="0" fill="#ffaaaa"/>
  </a>
  <text fill="#3f3f3f" stroke-width="0" stroke-dasharray="null" stroke-linejoin="null" stroke-linecap="null" x="772.10043" y="542.0428" id="svg_83" font-size="24" font-family="serif" text-anchor="middle" xml:space="preserve" stroke="#000000"/>
  <g id="svg_180" stroke="null"/>
  <text fill="#ff007f" stroke-width="0" stroke-dasharray="null" stroke-linejoin="null" stroke-linecap="null" x="526.13931" y="368.35529" font-size="24" font-family="serif" text-anchor="middle" xml:space="preserve" transform="matrix(0.7858587972976754,0,0,0.9177026001124786,47.38253800421794,-103.27209795980798) " id="svg_34" font-weight="normal" opacity="0.7">第三期抗戰</text>
  <text fill="#ff007f" stroke-width="0" stroke-dasharray="null" stroke-linejoin="null" stroke-linecap="null" x="819.0681" y="352.35143" font-size="24" font-family="serif" text-anchor="middle" xml:space="preserve" transform="matrix(0.6383415203085607,0,0,1.0023894990632483,107.100003422627,-115.55623548526927) " id="svg_46" opacity="0.7">抗戰後的中華民族</text>
  <text id="svg_38" transform="matrix(0.5592670534673243,0,0,0.7509718011154243,238.07132968149412,20.005472286038422) " font-weight="normal" xml:space="preserve" text-anchor="middle" font-family="Sans-serif" font-size="24" y="51.70033" x="-252.87213" stroke-linecap="null" stroke-linejoin="null" stroke-dasharray="null" stroke-width="0" fill="#ff7f00" opacity="0.85">中國式民主的特色是什麽？</text>
  <text transform="matrix(0.8709226314248751,0,0,0.8899952288886452,32.6220645547201,49.38254382934793) " xml:space="preserve" text-anchor="middle" font-family="serif" font-size="24" y="373.68987" x="266.21141" stroke-linecap="null" stroke-linejoin="null" stroke-dasharray="null" stroke-width="0" fill="#ff7f00" stroke="#000000" id="svg_3">Part 7-</text>
  <a id="svg_35" xlink:href="https://youtu.be/k7Fq4ilAyHU">
   <path marker-mid="url(#se_marker_mid_svg_41)" d="m241.74999,491.05801c-8.26903,0 -14.97223,6.47597 -14.97223,14.46469c0,7.98872 6.7032,14.46469 14.97223,14.46469c8.26903,0 14.97222,-6.47597 14.97222,-14.46469c0,-7.98872 -6.70319,-14.46469 -14.97222,-14.46469zm-2.40541,24.14332l-3.64261,-3.52213l6.37355,-6.15749l-6.37355,-6.1575l3.64261,-3.51914l10.0172,9.67664l-10.0172,9.67962z" stroke-linecap="null" stroke-linejoin="null" stroke-dasharray="null" stroke-width="0" fill="#ffaaaa" stroke="#000000" id="svg_5"/>
  </a>
  <text id="svg_86" fill="#ffffff" stroke-width="0" stroke-dasharray="null" stroke-linejoin="null" stroke-linecap="null" opacity="0.8" x="681.42391" y="8.0074" font-size="24" font-family="serif" text-anchor="middle" xml:space="preserve" transform="translate(554.5355224609375,435.7587890625) scale(1.1204942464828491,1.086641550064087) translate(-554.5355224609375,-435.7587890625) translate(554.274658203125,435.3764953613281) scale(1.0869497060775757,1.1274291276931763) translate(-554.274658203125,-435.3764953613281) translate(554.9812622070312,435.6423034667969) scale(0.7644617557525635,0.9113956093788147) translate(-554.9812622070312,-435.6423034667969) translate(388.8465576171875,441.1921691894531) scale(1.0136302709579468,0.8249392509460449) translate(-388.8465576171875,-441.1921691894531) translate(888.8558959960938,436.2577209472656) scale(0.9734276533126831,1) translate(-888.8558959960938,-436.2577209472656) translate(889.87255859375,504.8636779785156) scale(1) translate(-889.87255859375,-504.8636779785156) translate(889.914306640625,505.77667236328125) scale(1.0139044523239136,1.3043327331542969) translate(-889.914306640625,-505.77667236328125) translate(888.4232177734375,504.6651611328125) scale(1) translate(-888.4232177734375,-504.6651611328125) translate(888.3218994140625,504.255126953125) scale(0.9399330019950867,0.7570223808288574) translate(-888.3218994140625,-504.255126953125) translate(888.0772705078125,504.109619140625) scale(0.8550723195075989,0.9137715697288513) translate(-888.0772705078125,-504.109619140625) matrix(1.0937924253894378,0,0,1.0937924253894378,71.03591400341189,-39.500754610857044) " font-style="italic" stroke="null">Further Reading</text>
  <text fill="#ff007f" stroke-width="0" stroke-dasharray="null" stroke-linejoin="null" stroke-linecap="null" x="835.30317" y="327.28188" font-size="24" font-family="serif" text-anchor="middle" xml:space="preserve" transform="matrix(0.688714493528053,0,0,0.9792254584980896,54.24232143648747,-251.2170399391937) " opacity="0.7" id="svg_101">第一期抗戰</text>
  <text fill="#ff007f" stroke-width="0" stroke-dasharray="null" stroke-linejoin="null" stroke-linecap="null" x="183.27551" y="509.92772" font-size="24" font-family="serif" text-anchor="middle" xml:space="preserve" transform="matrix(0.7904438632138139,0,0,1.114667219518065,153.67451106601308,-157.76553288640645) " font-weight="normal" opacity="0.7" id="svg_102">兩岸關係</text>
  <text transform="matrix(0.8406476094579095,0,0,0.8696967485759515,131.8161622722508,11.668342329910757) " font-style="italic" fill="#ffffff" stroke-width="0" stroke-dasharray="null" stroke-linejoin="null" stroke-linecap="null" opacity="0.8" x="-81.66092" y="277.80372" font-size="24" font-family="Serif" text-anchor="middle" xml:space="preserve" stroke="null" id="svg_25">Speaker&#x27;s</text>
  <text fill="#ffffff" stroke-width="0" stroke-dasharray="null" stroke-linejoin="null" stroke-linecap="null" x="1016.31393" y="172.55317" font-size="24" font-family="serif" text-anchor="middle" xml:space="preserve" font-style="italic" transform="matrix(0.7681051001511282,0,0,0.8530227157745391,-636.4639586873427,105.59283439791079) " opacity="0.8" stroke="null" id="svg_49">Biography</text>
  <text id="svg_24" transform="matrix(0.8709226314248751,0,0,0.8899951049244338,47.145933219721016,51.61090779993019) " xml:space="preserve" text-anchor="middle" font-family="serif" font-size="24" y="371.87584" x="432.29284" stroke-linecap="null" stroke-linejoin="null" stroke-dasharray="null" stroke-width="0" fill="#ff7f00" stroke="#000000">Part 8-</text>
  <text id="svg_27" transform="matrix(0.9213048158195887,0,0,0.8899951049244339,40.81837210215976,52.860907799930175) " xml:space="preserve" text-anchor="middle" font-family="serif" font-size="24" y="371.87584" x="597.19233" stroke-linecap="null" stroke-linejoin="null" stroke-dasharray="null" stroke-width="0" fill="#ff7f00" stroke="#000000">Part 9-</text>
  <text id="svg_36" fill="#ff007f" stroke-width="0" stroke-dasharray="null" stroke-linejoin="null" stroke-linecap="null" x="389.45143" y="510.31713" font-size="24" font-family="serif" text-anchor="middle" xml:space="preserve" transform="matrix(0.7904438632138139,0,0,1.114667219518065,153.67451106601308,-157.76553288640645) " font-weight="normal" opacity="0.7">民主特色</text>
  <text id="svg_37" fill="#ff007f" stroke-width="0" stroke-dasharray="null" stroke-linejoin="null" stroke-linecap="null" x="597.24103" y="512.7902" font-size="24" font-family="serif" text-anchor="middle" xml:space="preserve" transform="matrix(0.7904438632138139,0,0,1.114667219518065,153.67451106601308,-157.76553288640645) " font-weight="normal" opacity="0.7">Ｑ＆Ａ</text>
  <a xlink:href="https://youtu.be/qPCcCgUzAro" id="svg_50">
   <path id="svg_28" marker-mid="url(#se_marker_mid_svg_41)" d="m404.50001,494.0353c-8.26903,0 -14.97223,6.47597 -14.97223,14.46469c0,7.98872 6.7032,14.46469 14.97223,14.46469c8.26903,0 14.97222,-6.47597 14.97222,-14.46469c0,-7.98872 -6.70319,-14.46469 -14.97222,-14.46469zm-2.40541,24.14332l-3.64261,-3.52213l6.37355,-6.15749l-6.37355,-6.1575l3.64261,-3.51914l10.0172,9.67664l-10.0172,9.67962z" stroke-linecap="null" stroke-linejoin="null" stroke-dasharray="null" stroke-width="0" fill="#ffaaaa" stroke="#000000"/>
  </a>
  <a xlink:href="https://youtu.be/X5n3BJ5Q4nE" id="svg_51">
   <path id="svg_29" marker-mid="url(#se_marker_mid_svg_41)" d="m568.25001,493.2853c-8.26903,0 -14.97223,6.47597 -14.97223,14.46469c0,7.98872 6.7032,14.46469 14.97223,14.46469c8.26903,0 14.97222,-6.47597 14.97222,-14.46469c0,-7.98872 -6.70319,-14.46469 -14.97222,-14.46469zm-2.40541,24.14332l-3.64261,-3.52213l6.37355,-6.15749l-6.37355,-6.1575l3.64261,-3.51914l10.0172,9.67664l-10.0172,9.67962z" stroke-linecap="null" stroke-linejoin="null" stroke-dasharray="null" stroke-width="0" fill="#ffaaaa" stroke="#000000"/>
  </a>
  <text id="svg_53" fill="#ff0000" stroke-width="0" stroke-dasharray="null" stroke-linejoin="null" stroke-linecap="null" x="794.11312" y="-58.7544" font-size="24" font-family="serif" text-anchor="middle" xml:space="preserve" transform="matrix(0.3853595987516124,0,0,0.6062573636739885,497.3353129012248,136.3542868829066) " opacity="0.7">一級上將赴陸驚語! 郝柏村:習思想近似國父</text>
  <a xlink:href="https://youtu.be/TrNHjQXJS2M" id="svg_55">
   <path stroke="#000000" id="svg_54" marker-mid="url(#se_marker_mid_svg_41)" d="m872.99999,142.34612c-8.26903,0 -14.97223,6.47597 -14.97223,14.46469c0,7.98872 6.7032,14.46469 14.97223,14.46469c8.26903,0 14.97222,-6.47597 14.97222,-14.46469c0,-7.98872 -6.70319,-14.46469 -14.97222,-14.46469zm-2.40541,24.14331l-3.64261,-3.52212l6.37355,-6.1575l-6.37355,-6.15749l3.64261,-3.51914l10.0172,9.67663l-10.0172,9.67962z" stroke-linecap="null" stroke-linejoin="null" stroke-dasharray="null" stroke-width="0" fill="#ff7f00"/>
  </a>
  <text id="svg_60" fill="#ff0000" stroke-width="0" stroke-dasharray="null" stroke-linejoin="null" stroke-linecap="null" x="800.21942" y="169.93916" font-size="24" font-family="serif" text-anchor="middle" xml:space="preserve" transform="matrix(0.3853595987516124,0,0,0.6277757747888258,497.3353129012248,114.21923183913046) " opacity="0.7">專訪郝柏村解讀蔣中正日記（2011.7.27）</text>
  <a xlink:href="https://youtu.be/YP-XrUdI62o" id="svg_68">
   <path id="svg_67" stroke="#000000" marker-mid="url(#se_marker_mid_svg_41)" d="m740.59458,273.45423c-8.26903,0 -14.97223,6.47597 -14.97223,14.46469c0,7.98872 6.7032,14.46469 14.97223,14.46469c8.26903,0 14.97222,-6.47597 14.97222,-14.46469c0,-7.98872 -6.70319,-14.46469 -14.97222,-14.46469zm-2.40541,24.14331l-3.64261,-3.52212l6.37355,-6.1575l-6.37355,-6.15749l3.64261,-3.51914l10.0172,9.67663l-10.0172,9.67962z" stroke-linecap="null" stroke-linejoin="null" stroke-dasharray="null" stroke-width="0" fill="#ff7f00"/>
  </a>
  <text id="svg_73" fill="#ff0000" stroke-width="0" stroke-dasharray="null" stroke-linejoin="null" stroke-linecap="null" x="792.56308" y="342.8828" font-size="24" font-family="serif" text-anchor="middle" xml:space="preserve" transform="matrix(0.3609348481785418,0,0,0.6440942335160611,514.5919205001626,134.67471361288432) " opacity="0.7">郝柏村專訪三：稱國共一起領導抗戰有欠公道</text>
  <a xlink:href="https://youtu.be/29VadiLPsjo" id="svg_75">
   <path stroke="#000000" id="svg_74" marker-mid="url(#se_marker_mid_svg_41)" d="m872.87499,410.10963c-8.06192,0 -14.59723,6.47597 -14.59723,14.46469c0,7.98872 6.53531,14.46469 14.59723,14.46469c8.06192,0 14.59722,-6.47597 14.59722,-14.46469c0,-7.98872 -6.5353,-14.46469 -14.59722,-14.46469zm-2.34516,24.14331l-3.55138,-3.52212l6.21392,-6.1575l-6.21392,-6.15749l3.55138,-3.51914l9.76631,9.67663l-9.76631,9.67962z" stroke-linecap="null" stroke-linejoin="null" stroke-dasharray="null" stroke-width="0" fill="#ff7f00"/>
  </a>
  <text id="svg_77" fill="#ff0000" stroke-width="0" stroke-dasharray="null" stroke-linejoin="null" stroke-linecap="null" x="1278.38857" y="396.24708" font-size="24" font-family="serif" text-anchor="middle" xml:space="preserve" transform="matrix(0.3609348481785418,0,0,0.6440942335160611,342.68655801332324,255.4614892018736) " opacity="0.7">年代專訪-面對中共與郝柏村（2010,11,18）</text>
  <a xlink:href="https://youtu.be/DQR55XD7rLE" id="svg_81">
   <path id="svg_79" stroke="#000000" marker-mid="url(#se_marker_mid_svg_41)" d="m741.65271,573.31306c-8.06192,0 -14.59723,6.47597 -14.59723,14.46469c0,7.98872 6.53531,14.46469 14.59723,14.46469c8.06192,0 14.59722,-6.47597 14.59722,-14.46469c0,-7.98872 -6.5353,-14.46469 -14.59722,-14.46469zm-2.34516,24.14331l-3.55138,-3.52212l6.21392,-6.1575l-6.21392,-6.15749l3.55138,-3.51914l9.7663,9.67663l-9.7663,9.67962z" stroke-linecap="null" stroke-linejoin="null" stroke-dasharray="null" stroke-width="0" fill="#ff7f00"/>
  </a>
  <text font-weight="bold" id="svg_91" fill="#7f003f" stroke-width="0" stroke-dasharray="null" stroke-linejoin="null" stroke-linecap="null" x="163.28364" y="462.27556" font-size="24" font-family="serif" text-anchor="middle" xml:space="preserve" transform="matrix(0.4570952036815297,0,0,0.7723972241997256,329.38182815634894,198.83890087553226) " opacity="0.7">郝柏村解讀蔣公八年抗戰日記(上下冊)</text>
  <text fill="#ff7f00" stroke-width="0" stroke-dasharray="null" stroke-linejoin="null" stroke-linecap="null" opacity="0.75" x="410.76923" y="275.26518" font-size="24" font-family="Sans-serif" text-anchor="middle" xml:space="preserve" transform="matrix(0.6308278467085022,0,0,1.1109816533630636,-95.36579959280009,-95.8087558163567) " stroke="#000000" id="svg_78">19 July 2013</text>
  <text id="svg_82" transform="matrix(0.3510837535379111,0,0,0.744447868987694,161.60565598000343,21.423794299157013) " font-weight="normal" xml:space="preserve" text-anchor="middle" font-family="Sans-serif" font-size="24" y="78.33029" x="-132.75114" stroke-linecap="null" stroke-linejoin="null" stroke-dasharray="null" stroke-width="0" fill="#ff7f00" opacity="0.85">Peaceful Unification or Unification by Force? The</text>
  <text id="svg_84" transform="matrix(0.3697968355611737,0,0,0.7182833654582186,164.49413911647378,20.463390123749093) " font-weight="normal" xml:space="preserve" text-anchor="middle" font-family="Sans-serif" font-size="24" y="106.47102" x="-148.71113" stroke-linecap="null" stroke-linejoin="null" stroke-dasharray="null" stroke-width="0" fill="#ff7f00" opacity="0.85">Characteristics of Chinese-style Democracy</text>
 </g>
</svg>