<svg width="905.0000000000001" height="640.0000000000002" xmlns="http://www.w3.org/2000/svg" xmlns:svg="http://www.w3.org/2000/svg" xmlns:xlink="http://www.w3.org/1999/xlink">
 <!-- Created with SVG-edit - http://svg-edit.googlecode.com/ -->
 <title/>
 <defs>
  <marker refY="50" refX="50" markerHeight="5" markerWidth="5" viewBox="0 0 100 100" orient="auto" markerUnits="strokeWidth" id="se_marker_mid_svg_41">
   <path stroke-width="10" fill="#000000" d="m100,50l-100,40l30,-40l-30,-40l100,40z" id="svg_4" stroke="#000000"/>
  </marker>
  <marker refY="50" refX="50" markerHeight="5" markerWidth="5" viewBox="0 0 100 100" orient="auto" markerUnits="strokeWidth" id="se_marker_mid_svg_44">
   <path stroke-width="10" fill="#000000" d="m100,50l-100,40l30,-40l-30,-40l100,40z" id="svg_6" stroke="#000000"/>
  </marker>
  <pattern id="gridpattern" patternUnits="userSpaceOnUse" x="0" y="0" width="100" height="100">
   <image id="svg_7" x="0" y="0" width="100" height="100"/>
  </pattern>
 </defs>
 <g display="none" stroke="null">
  <title>圖遮罩</title>
 </g>
 <g display="inline" stroke="null">
  <title>文字</title>
  <image stroke="null" x="33.75" y="182.25002" width="157.00001" height="359.24998" id="svg_28" xlink:href="https://c1.staticflickr.com/5/4779/39028706390_87939b0790_o.png"/>
  <image x="715" y="109" width="175" height="500" id="svg_51" xlink:href="https://c1.staticflickr.com/1/793/40796400832_2ff120e85b_o.png"/>
 </g>
 <g display="inline" stroke="null">
  <title>色塊</title>
  <rect fill="#ff7f00" stroke-width="0" x="12.27779" y="16.85182" width="205.11108" height="611.11114" opacity="0.3" id="svg_8" stroke="#000000"/>
  <rect fill="#ff7f00" stroke-width="0" x="713.05555" y="18.85192" width="177.77774" height="608.61574" opacity="0.3" id="svg_9" stroke="#000000"/>
  <rect stroke="#000000" fill="#ff7f00" stroke-width="0" stroke-dasharray="null" stroke-linejoin="null" stroke-linecap="null" x="13.9687" y="166.37801" width="95.14727" height="28.25" id="svg_21"/>
  <rect stroke="#000000" id="svg_27" fill="#ffaaaa" stroke-width="0" x="223.97423" y="17.67707" width="231.72461" height="142.95012" opacity="0.3"/>
  <rect id="svg_29" stroke="#000000" fill="#ffaaaa" stroke-width="0" x="223.97423" y="173.9875" width="231.72461" height="142.95012" opacity="0.3"/>
  <rect id="svg_32" stroke="#000000" fill="#ffaaaa" stroke-width="0" x="223.97423" y="330.37516" width="231.72461" height="142.95012" opacity="0.3"/>
  <rect id="svg_33" stroke="#000000" fill="#ffaaaa" stroke-width="0" x="223.97423" y="484.56019" width="231.72461" height="142.95012" opacity="0.3"/>
  <rect id="svg_35" stroke="#000000" fill="#ffaaaa" stroke-width="0" x="465.92184" y="17.63844" width="231.72461" height="142.95012" opacity="0.3"/>
  <rect id="svg_36" stroke="#000000" fill="#ffaaaa" stroke-width="0" x="465.92184" y="173.94887" width="231.72461" height="142.95012" opacity="0.3"/>
  <rect id="svg_37" stroke="#000000" fill="#ffaaaa" stroke-width="0" x="465.92184" y="330.33653" width="231.72461" height="142.95012" opacity="0.3"/>
  <rect id="svg_38" stroke="#000000" fill="#ffaaaa" stroke-width="0" x="465.92184" y="484.52157" width="231.72461" height="142.95012" opacity="0.3"/>
  <rect stroke="#000000" fill="#ff7f00" stroke-width="0" stroke-dasharray="null" stroke-linejoin="null" stroke-linecap="null" x="744.20885" y="52.10632" width="145.58225" height="29.28736" stroke-opacity="0" id="svg_53"/>
 </g>
 <g display="inline" stroke="null">
  <title>圖片</title>
  <image stroke="null" xlink:href="https://c1.staticflickr.com/1/804/40109348644_ce00fe4161_o.png" id="svg_5" height="85.25" width="73.5" y="76.25" x="26.25"/>
  <image xlink:href="https://farm5.staticflickr.com/4270/34750160890_6258e09845_b.jpg" id="svg_10" height="75.73863" width="119.04257" y="548.64387" x="57.72718"/>
  <image stroke="null" xlink:href="https://farm5.staticflickr.com/4204/34750163550_a7e684ca0f_b.jpg" id="svg_11" height="106.35796" width="148.33993" y="55.1259" x="505.77425"/>
  <image stroke="null" xlink:href="https://farm5.staticflickr.com/4225/34750160730_c801670e10_b.jpg" id="svg_12" height="95.47724" width="158.98387" y="219.50548" x="266.99519"/>
  <image stroke="null" xlink:href="https://farm5.staticflickr.com/4233/34750162780_84845258e1_b.jpg" id="svg_13" height="96.50467" width="147.60603" y="218.33225" x="500.94285"/>
  <image stroke="null" xlink:href="https://farm5.staticflickr.com/4279/35136843405_6c7f0039b9_b.jpg" id="svg_17" height="101.90721" width="145.54819" y="375.08068" x="271.03908"/>
  <image stroke="null" xlink:href="https://farm5.staticflickr.com/4211/34972105452_81f4003eee_b.jpg" id="svg_48" height="100.67838" width="142.97022" y="527.75992" x="266.92632"/>
  <image stroke="null" xlink:href="https://farm5.staticflickr.com/4218/35136842945_c270dd9bb2_b.jpg" id="svg_50" height="124.52202" width="145.02419" y="362.70928" x="504.24567"/>
  <image stroke="null" id="svg_16" xlink:href="https://farm5.staticflickr.com/4220/35096958356_38358ebac1_b.jpg" height="100.75" width="173.99999" y="59.625" x="261.75"/>
 </g>
 <g display="inline" stroke="null">
  <title>標題</title>
  <text transform="matrix(0.3940166501936063,0,0,0.8175400406511464,183.21430647098148,31.01641109132036) " font-weight="normal" xml:space="preserve" text-anchor="middle" font-family="Sans-serif" font-size="24" id="svg_45" y="7.9717" x="-165.98622" stroke-linecap="null" stroke-linejoin="null" stroke-dasharray="null" stroke-width="0" fill="#7f0000" opacity="0.85">Nanostructured Solids — From Nanoglasses</text>
  <text fill="#7f0000" stroke-width="0" stroke-dasharray="null" stroke-linejoin="null" stroke-linecap="null" opacity="0.75" x="445.11548" y="211.52345" id="svg_31" font-size="24" font-family="Sans-serif" text-anchor="middle" xml:space="preserve" transform="matrix(0.41742422314116817,0,0,0.7024880512885361,-34.32745571544382,-10.008766192034315) " stroke="#000000">Prof. Herbert Gleiter</text>
  <text transform="matrix(0.7995959228173974,0,0,0.8865652908542323,237.7565816303299,170.67492185882162) " xml:space="preserve" text-anchor="middle" font-family="serif" font-size="24" y="-150.43192" x="31.76496" stroke-linecap="null" stroke-linejoin="null" stroke-dasharray="null" stroke-width="0" fill="#ff7f00" id="svg_61" stroke="#000000">Part 1-</text>
  <text transform="matrix(0.7214450841271157,0,0,0.7585410066541305,150.0859566373611,152.08409559016215) " xml:space="preserve" text-anchor="middle" font-family="serif" font-size="24" y="-154.13677" x="485.29822" stroke-linecap="null" stroke-linejoin="null" stroke-dasharray="null" stroke-width="0" fill="#ff7f00" id="svg_62" stroke="#000000">Part 2-</text>
  <text transform="matrix(0.8364451968094739,0,0,0.9045068789353564,84.12231424712711,207.91325426821598) " xml:space="preserve" text-anchor="middle" font-family="serif" font-size="24" y="-8.54507" x="217.96356" stroke-linecap="null" stroke-linejoin="null" stroke-dasharray="null" stroke-width="0" fill="#ff7f00" id="svg_63" stroke="#000000">Part 3-</text>
  <text transform="matrix(0.7826975625869493,0,0,0.8692756911937581,56.99639466467406,-7.224467200613774) " xml:space="preserve" text-anchor="middle" font-family="serif" font-size="24" y="236.92764" x="582.24643" stroke-linecap="null" stroke-linejoin="null" stroke-dasharray="null" stroke-width="0" fill="#ff7f00" id="svg_64" stroke="#000000">Part 4-</text>
  <text transform="matrix(0.8004352276249359,0,0,0.8564620061682371,-231.4781557916716,134.65931336742034) " xml:space="preserve" text-anchor="middle" font-family="serif" font-size="24" y="255.14136" x="628.02143" stroke-linecap="null" stroke-linejoin="null" stroke-dasharray="null" stroke-width="0" fill="#ff7f00" id="svg_65" stroke="#000000">Part 5-</text>
  <text transform="matrix(0.7939882784258255,0,0,0.819205251446753,82.17553707800917,50.97060913372181) " xml:space="preserve" text-anchor="middle" font-family="serif" font-size="24" y="371.75152" x="546.34262" stroke-linecap="null" stroke-linejoin="null" stroke-dasharray="null" stroke-width="0" fill="#ff7f00" id="svg_66" stroke="#000000">Part 6-</text>
  <text font-style="italic" font-weight="bold" fill="#ff007f" stroke-width="0" stroke-dasharray="null" stroke-linejoin="null" stroke-linecap="null" x="-96.54425" y="414.0435" id="svg_69" font-size="24" font-family="serif" text-anchor="middle" xml:space="preserve" transform="matrix(0.9404102202668986,0,0,0.7965572215379233,162.61402618054947,215.70237999779573) " stroke="#000000" opacity="0.7">Welcoming</text>
  <text fill="#ff007f" stroke-width="0" stroke-dasharray="null" stroke-linejoin="null" stroke-linecap="null" x="295.0654" y="439.19792" font-size="24" font-family="serif" text-anchor="middle" xml:space="preserve" transform="matrix(0.5813632276381466,0,0,0.862780058030763,166.698082224828,-161.62770081926521) " id="svg_80" font-weight="normal" opacity="0.7">Introduction of Nanoglasses</text>
  <text fill="#ff007f" stroke-width="0" stroke-dasharray="null" stroke-linejoin="null" stroke-linecap="null" x="223.44241" y="-70.45849" font-size="24" font-family="serif" text-anchor="middle" xml:space="preserve" transform="matrix(0.49184360300183455,0,0,1.0584701743524854,224.21040554484304,131.05260838472054) " id="svg_87" opacity="0.7">History of Materials and Technology</text>
  <a id="svg_26" xlink:href="https://youtu.be/MEZNi-gGS-0" stroke="null">
   <path stroke="#000000" id="svg_44" marker-mid="url(#se_marker_mid_svg_44)" d="m71.30394,595.1044c-8.26903,0 -14.97223,6.47597 -14.97223,14.46469c0,7.98872 6.7032,14.46469 14.97223,14.46469c8.26903,0 14.97222,-6.47597 14.97222,-14.46469c0,-7.98872 -6.70319,-14.46469 -14.97222,-14.46469zm-2.40541,24.14332l-3.64261,-3.52213l6.37355,-6.15749l-6.37355,-6.1575l3.64261,-3.51914l10.0172,9.67664l-10.0172,9.67962z" stroke-linecap="null" stroke-linejoin="null" stroke-dasharray="null" stroke-width="0" fill="#ff7f00"/>
  </a>
  <a id="svg_57" xlink:href="https://youtu.be/oAB9L4HlDX4" stroke="null">
   <path id="svg_43" marker-mid="url(#se_marker_mid_svg_44)" d="m288.72335,128.96625c-8.26903,0 -14.97223,6.47597 -14.97223,14.46469c0,7.98872 6.7032,14.46469 14.97223,14.46469c8.26903,0 14.97222,-6.47597 14.97222,-14.46469c0,-7.98872 -6.70319,-14.46469 -14.97222,-14.46469zm-2.40541,24.14332l-3.64261,-3.52213l6.37355,-6.15749l-6.37355,-6.1575l3.64261,-3.51914l10.0172,9.67664l-10.0172,9.67962z" stroke-linecap="null" stroke-linejoin="null" stroke-dasharray="null" stroke-width="0" fill="#ff7f00" stroke="#000000"/>
  </a>
  <a id="svg_58" xlink:href="https://youtu.be/PnYRIodUiFs" stroke="null">
   <path id="svg_42" marker-mid="url(#se_marker_mid_svg_44)" d="m287.47335,286.71978c-8.26903,0 -14.97223,6.47597 -14.97223,14.46469c0,7.98872 6.7032,14.46469 14.97223,14.46469c8.26903,0 14.97222,-6.47597 14.97222,-14.46469c0,-7.98872 -6.70319,-14.46469 -14.97222,-14.46469zm-2.40541,24.14331l-3.64261,-3.52212l6.37355,-6.1575l-6.37355,-6.15749l3.64261,-3.51914l10.0172,9.67663l-10.0172,9.67962z" stroke-linecap="null" stroke-linejoin="null" stroke-dasharray="null" stroke-width="0" fill="#ff7f00" stroke="#000000"/>
  </a>
  <a id="svg_59" xlink:href="https://youtu.be/dhUxPHfESrw" stroke="null">
   <path stroke="#000000" id="svg_41" marker-mid="url(#se_marker_mid_svg_41)" d="m517.55391,441.32774c-8.26903,0 -14.97223,6.47597 -14.97223,14.46469c0,7.98872 6.7032,14.46469 14.97223,14.46469c8.26903,0 14.97222,-6.47597 14.97222,-14.46469c0,-7.98872 -6.70319,-14.46469 -14.97222,-14.46469zm-2.40541,24.14332l-3.64261,-3.52213l6.37355,-6.15749l-6.37355,-6.1575l3.64261,-3.51914l10.0172,9.67664l-10.0172,9.67962z" stroke-linecap="null" stroke-linejoin="null" stroke-dasharray="null" stroke-width="0" fill="#ff7f00"/>
  </a>
  <a id="svg_70" xlink:href="https://youtu.be/7g-yC4Iablk" stroke="null">
   <path id="svg_40" marker-mid="url(#se_marker_mid_svg_41)" d="m522.30391,129.21979c-8.26903,0 -14.97223,6.47597 -14.97223,14.46469c0,7.98872 6.7032,14.46469 14.97223,14.46469c8.26903,0 14.97222,-6.47597 14.97222,-14.46469c0,-7.98872 -6.70319,-14.46469 -14.97222,-14.46469zm-2.40541,24.14332c-1.2142,-1.17404 -2.42841,-2.34809 -3.64261,-3.52213l6.37355,-6.15749l-6.37355,-6.1575l3.64261,-3.51914l10.0172,9.67664l-10.0172,9.67962z" stroke-linecap="null" stroke-linejoin="null" stroke-dasharray="null" stroke-width="0" fill="#ff7f00" stroke="#000000"/>
  </a>
  <a id="svg_71" xlink:href="https://youtu.be/BYK-Mno85PY" stroke="null">
   <path stroke="#000000" id="svg_39" marker-mid="url(#se_marker_mid_svg_41)" d="m281.22331,593.82778c-8.26903,0 -14.97223,6.47597 -14.97223,14.46469c0,7.98872 6.7032,14.46469 14.97223,14.46469c8.26903,0 14.97222,-6.47597 14.97222,-14.46469c0,-7.98872 -6.70319,-14.46469 -14.97222,-14.46469zm-2.40541,24.14331l-3.64261,-3.52212l6.37355,-6.1575l-6.37355,-6.15749l3.64261,-3.51914l10.0172,9.67663l-10.0172,9.67962z" stroke-linecap="null" stroke-linejoin="null" stroke-dasharray="null" stroke-width="0" fill="#ff7f00"/>
  </a>
  <text fill="#3f3f3f" stroke-width="0" stroke-dasharray="null" stroke-linejoin="null" stroke-linecap="null" x="772.10043" y="542.0428" id="svg_83" font-size="24" font-family="serif" text-anchor="middle" xml:space="preserve" stroke="#000000"/>
  <g id="svg_180" stroke="null"/>
  <text fill="#ff007f" stroke-width="0" stroke-dasharray="null" stroke-linejoin="null" stroke-linecap="null" x="371.19106" y="510.84847" font-size="24" font-family="serif" text-anchor="middle" xml:space="preserve" transform="matrix(0.6592545896694195,0,0,0.7606532550434365,375.2874388834979,-192.87902000978863) " id="svg_34" font-weight="normal" opacity="0.7">Non-crystalline Alloys</text>
  <text id="svg_86" fill="#ffffff" stroke-width="0" stroke-dasharray="null" stroke-linejoin="null" stroke-linecap="null" opacity="0.8" x="-248.26472" y="151.84339" font-size="24" font-family="serif" text-anchor="middle" xml:space="preserve" transform="translate(554.5355224609375,435.7587890625) scale(1.1204942464828491,1.086641550064087) translate(-554.5355224609375,-435.7587890625) translate(554.274658203125,435.3764953613281) scale(1.0869497060775757,1.1274291276931763) translate(-554.274658203125,-435.3764953613281) translate(554.9812622070312,435.6423034667969) scale(0.7644617557525635,0.9113956093788147) translate(-554.9812622070312,-435.6423034667969) translate(388.8465576171875,441.1921691894531) scale(1.0136302709579468,0.8249392509460449) translate(-388.8465576171875,-441.1921691894531) translate(888.8558959960938,436.2577209472656) scale(0.9734276533126831,1) translate(-888.8558959960938,-436.2577209472656) translate(889.87255859375,504.8636779785156) scale(1) translate(-889.87255859375,-504.8636779785156) translate(889.914306640625,505.77667236328125) scale(1.0139044523239136,1.3043327331542969) translate(-889.914306640625,-505.77667236328125) translate(888.4232177734375,504.6651611328125) scale(1) translate(-888.4232177734375,-504.6651611328125) translate(888.3218994140625,504.255126953125) scale(0.9399330019950867,0.7570223808288574) translate(-888.3218994140625,-504.255126953125) translate(888.0772705078125,504.109619140625) scale(0.8550723195075989,0.9137715697288513) translate(-888.0772705078125,-504.109619140625) matrix(1.0937924253894378,0,0,1.0937924253894378,71.03591400341189,-39.500754610857044) " font-style="italic" stroke="null">Abstract</text>
  <text fill="#ff007f" stroke-width="0" stroke-dasharray="null" stroke-linejoin="null" stroke-linecap="null" x="451.35344" y="407.18432" font-size="24" font-family="serif" text-anchor="middle" xml:space="preserve" transform="matrix(0.6501935421955096,0,0,0.7700836834563598,284.96163307432977,-260.9153517976404) " opacity="0.7" id="svg_101">Controlled Modification</text>
  <text transform="matrix(0.7529007020530357,0,0,0.780903756213452,194.7603244444536,19.343000576717902) " font-style="italic" fill="#ffffff" stroke-width="0" stroke-dasharray="null" stroke-linejoin="null" stroke-linecap="null" opacity="0.8" x="766.73909" y="73.36733" font-size="24" font-family="Serif" text-anchor="middle" xml:space="preserve" stroke="null" id="svg_25">Speaker&#x27;s</text>
  <text fill="#ffffff" stroke-width="0" stroke-dasharray="null" stroke-linejoin="null" stroke-linecap="null" x="1929.5424" y="-34.41396" font-size="24" font-family="serif" text-anchor="middle" xml:space="preserve" font-style="italic" transform="matrix(0.7241122489253398,0,0,0.7944298040109471,-551.514598079744,101.78515828967946) " opacity="0.8" stroke="null" id="svg_49">Biography</text>
  <text id="svg_30" fill="#ff007f" stroke-width="0" stroke-dasharray="null" stroke-linejoin="null" stroke-linecap="null" x="678.95934" y="649.33756" font-size="24" font-family="serif" text-anchor="middle" xml:space="preserve" transform="matrix(0.9823414931279785,0,0,0.8775851210763689,-336.82748358383583,-47.99626365514693) " font-weight="normal" opacity="0.7">Q&amp;A</text>
  <text id="svg_2" transform="matrix(0.4350969530295346,0,0,0.6744911450483286,165.6942822459164,43.54929907364877) " font-weight="normal" xml:space="preserve" text-anchor="middle" font-family="Sans-serif" font-size="24" y="41.50117" x="-109.05109" stroke-linecap="null" stroke-linejoin="null" stroke-dasharray="null" stroke-width="0" fill="#7f0000" opacity="0.85">to a New Generation of Technologies?</text>
  <text id="svg_3" transform="matrix(0.5041395769142225,0,0,0.6050750057779265,172.61125488353588,38.184399807493236) " font-weight="normal" xml:space="preserve" text-anchor="middle" font-family="Sans-serif" font-size="24" y="23.95081" x="-110.81258" stroke-linecap="null" stroke-linejoin="null" stroke-dasharray="null" stroke-width="0" fill="#7f0000" opacity="0.85">to Quantum Transistors: The Door</text>
  <text id="svg_14" transform="matrix(0.7021360572678742,0,0,0.8496487029926013,126.92363985235683,288.31754307696303) " xml:space="preserve" text-anchor="middle" font-family="serif" font-size="24" y="256.06686" x="210.43731" stroke-linecap="null" stroke-linejoin="null" stroke-dasharray="null" stroke-width="0" fill="#ff7f00" stroke="#000000">Part 7-</text>
  <text id="svg_15" fill="#ff007f" stroke-width="0" stroke-dasharray="null" stroke-linejoin="null" stroke-linecap="null" x="787.50082" y="356.3151" font-size="24" font-family="serif" text-anchor="middle" xml:space="preserve" transform="matrix(0.6672796983919623,0,0,0.7603651493957866,98.38058812346924,-56.21000722181468) " font-weight="normal" opacity="0.7">and Nanomaterial</text>
  <text id="svg_52" fill="#ff007f" stroke-width="0" stroke-dasharray="null" stroke-linejoin="null" stroke-linecap="null" x="217.32889" y="589.83589" font-size="24" font-family="serif" text-anchor="middle" xml:space="preserve" transform="matrix(0.5168385523914204,0,0,0.830942537832662,230.67549465763565,-116.64430740293881) " font-weight="normal" opacity="0.7">Property of Nanoporous Materials</text>
  <text fill="#ff007f" stroke-width="0" stroke-dasharray="null" stroke-linejoin="null" stroke-linecap="null" x="564.85429" y="592.57038" font-size="24" font-family="serif" text-anchor="middle" xml:space="preserve" transform="matrix(0.6283767964739141,0,0,0.8627800580307631,224.44445767335253,-136.72244789321908) " font-weight="normal" opacity="0.7" id="svg_18">Switching Material</text>
  <image stroke="null" x="480.75001" y="487.75001" width="198.75001" height="136.49999" id="svg_20" xlink:href="https://farm5.staticflickr.com/4221/34750160980_1e548d6785_b.jpg"/>
  <a id="svg_23" xlink:href="https://youtu.be/5-u4swlwxtE">
   <path id="svg_47" marker-mid="url(#se_marker_mid_svg_41)" d="m518.80393,284.74237c-8.26903,0 -14.97223,6.47597 -14.97223,14.46469c0,7.98872 6.7032,14.46469 14.97223,14.46469c8.26903,0 14.97222,-6.47597 14.97222,-14.46469c0,-7.98872 -6.70319,-14.46469 -14.97222,-14.46469zm-2.40541,24.14332c-1.2142,-1.17404 -2.42841,-2.34809 -3.64261,-3.52213l6.37355,-6.15749l-6.37355,-6.1575l3.64261,-3.51914l10.0172,9.67664l-10.0172,9.67962z" stroke-linecap="null" stroke-linejoin="null" stroke-dasharray="null" stroke-width="0" fill="#ff7f00" stroke="#000000"/>
  </a>
  <a id="svg_24" xlink:href="https://youtu.be/c46Fa06g23g">
   <path id="svg_46" marker-mid="url(#se_marker_mid_svg_44)" d="m284.97335,440.99236c-8.26903,0 -14.97223,6.47597 -14.97223,14.46469c0,7.98872 6.7032,14.46469 14.97223,14.46469c8.26903,0 14.97222,-6.47597 14.97222,-14.46469c0,-7.98872 -6.70319,-14.46469 -14.97222,-14.46469zm-2.40541,24.14331l-3.64261,-3.52212l6.37355,-6.1575l-6.37355,-6.15749l3.64261,-3.51914l10.0172,9.67663l-10.0172,9.67962z" stroke-linecap="null" stroke-linejoin="null" stroke-dasharray="null" stroke-width="0" fill="#ff7f00" stroke="#000000"/>
  </a>
  <text id="svg_1" fill="#7f0000" stroke-width="0" stroke-dasharray="null" stroke-linejoin="null" stroke-linecap="null" opacity="0.75" x="452.80471" y="235.67257" font-size="24" font-family="Sans-serif" text-anchor="middle" xml:space="preserve" transform="matrix(0.4743162438188244,0,0,0.7441312870237681,-67.89322423005665,-16.377568169592276) " stroke="#000000">14 May 2014</text>
 </g>
</svg>