<svg width="905" height="640.0000000000002" xmlns="http://www.w3.org/2000/svg" xmlns:svg="http://www.w3.org/2000/svg" xmlns:xlink="http://www.w3.org/1999/xlink">
 <!-- Created with SVG-edit - http://svg-edit.googlecode.com/ -->
 <title>To Cultivate Chinese Legal Talents with International Outlook by Drawing on the Experience of Hong Kong System</title>
 <defs>
  <marker id="se_marker_mid_svg_36" markerUnits="strokeWidth" orient="auto" viewBox="0 0 100 100" markerWidth="5" markerHeight="5" refX="50" refY="50">
   <path stroke="#000000" id="svg_1" d="m100,50l-100,40l30,-40l-30,-40l100,40z" fill="#000000" stroke-width="10"/>
  </marker>
  <marker id="se_marker_mid_svg_37" markerUnits="strokeWidth" orient="auto" viewBox="0 0 100 100" markerWidth="5" markerHeight="5" refX="50" refY="50">
   <path stroke="#000000" id="svg_2" d="m100,50l-100,40l30,-40l-30,-40l100,40z" fill="#000000" stroke-width="10"/>
  </marker>
  <marker id="se_marker_mid_svg_38" markerUnits="strokeWidth" orient="auto" viewBox="0 0 100 100" markerWidth="5" markerHeight="5" refX="50" refY="50">
   <path stroke="#000000" id="svg_3" d="m100,50l-100,40l30,-40l-30,-40l100,40z" fill="#000000" stroke-width="10"/>
  </marker>
  <marker id="se_marker_mid_svg_41" markerUnits="strokeWidth" orient="auto" viewBox="0 0 100 100" markerWidth="5" markerHeight="5" refX="50" refY="50">
   <path stroke="#000000" id="svg_4" d="m100,50l-100,40l30,-40l-30,-40l100,40z" fill="#000000" stroke-width="10"/>
  </marker>
  <marker id="se_marker_mid_svg_44" markerUnits="strokeWidth" orient="auto" viewBox="0 0 100 100" markerWidth="5" markerHeight="5" refX="50" refY="50">
   <path stroke="#000000" id="svg_6" d="m100,50l-100,40l30,-40l-30,-40l100,40z" fill="#000000" stroke-width="10"/>
  </marker>
 </defs>
 <g display="inline">
  <title>圖遮罩</title>
 </g>
 <g display="inline" stroke="null">
  <title>文字</title>
  <image xlink:href="https://farm5.staticflickr.com/4430/37025159876_8fc0ac1f07_m.jpg" id="svg_33" height="270.99998" width="200.00001" y="57.00002" x="705.99999"/>
  <image x="28.33333" y="209.33335" width="179.00001" height="256.66664" id="svg_32" xlink:href="https://farm5.staticflickr.com/4356/37025526226_4aa1e85c07_m.jpg"/>
  <text font-weight="normal" xml:space="preserve" text-anchor="middle" font-family="serif" font-size="24" id="svg_92" y="407.60453" x="869.60201" stroke-linecap="null" stroke-linejoin="null" stroke-dasharray="null" stroke-width="0" fill="#3f3f3f" transform="matrix(0.4845708139662997,0,0,0.6564951505226749,380.1089603199129,135.95904878403326) " stroke="#000000">1. Review: He Rong judge retrial with</text>
  <text font-weight="normal" xml:space="preserve" text-anchor="middle" font-family="serif" font-size="24" id="svg_94" y="498.30052" x="708.60379" stroke-linecap="null" stroke-linejoin="null" stroke-dasharray="null" stroke-width="0" fill="#3f3f3f" transform="matrix(0.5289984750774782,0,0,0.6310067770571341,428.257177923189,107.82216977317813) " stroke="#000000">a case of martime rescue dispute</text>
  <text id="svg_18" font-weight="normal" xml:space="preserve" text-anchor="middle" font-family="serif" font-size="24" y="526.29069" x="700.84925" stroke-linecap="null" stroke-linejoin="null" stroke-dasharray="null" stroke-width="0" fill="#3f3f3f" transform="matrix(0.5289984750774782,0,0,0.6310067770571341,428.257177923189,107.82216977317813) " stroke="#000000">2. Latest news: CityU held closing</text>
  <text id="svg_84" font-weight="normal" xml:space="preserve" text-anchor="middle" font-family="serif" font-size="24" y="553.23757" x="712.18688" stroke-linecap="null" stroke-linejoin="null" stroke-dasharray="null" stroke-width="0" fill="#3f3f3f" transform="matrix(0.5289984750774782,0,0,0.6310067770571341,428.257177923189,107.82216977317813) " stroke="#000000">ceremony for the Master of Laws</text>
  <text id="svg_91" font-weight="normal" xml:space="preserve" text-anchor="middle" font-family="serif" font-size="24" y="581.75715" x="702.73724" stroke-linecap="null" stroke-linejoin="null" stroke-dasharray="null" stroke-width="0" fill="#3f3f3f" transform="matrix(0.5289984750774782,0,0,0.6310067770571341,428.257177923189,107.82216977317813) " stroke="#000000">Programme for Chinese Judges</text>
 </g>
 <g stroke="null" display="inline">
  <title>色塊</title>
  <rect opacity="0.3" height="200.99998" width="160" y="15.85186" x="383.55557" stroke-width="0" fill="#ffaaaa" id="svg_5" stroke="#000000"/>
  <rect opacity="0.3" height="201" width="160" y="15.85187" x="220.00001" stroke-width="0" fill="#ffaaaa" id="svg_10" stroke="#000000"/>
  <rect opacity="0.3" height="200.99998" width="160" y="15.85188" x="547.11112" stroke-width="0" fill="#ffaaaa" id="svg_11" stroke="#000000"/>
  <rect opacity="0.3" height="200.99998" width="160" y="219.40743" x="383.55556" stroke-width="0" fill="#ffaaaa" id="svg_12" stroke="#000000"/>
  <rect opacity="0.3" height="201.00001" width="160" y="219.40742" x="220.00001" stroke-width="0" fill="#ffaaaa" id="svg_13" stroke="#000000"/>
  <rect opacity="0.3" height="200.99998" width="160" y="219.40744" x="547.11112" stroke-width="0" fill="#ffaaaa" id="svg_14" stroke="#000000"/>
  <rect opacity="0.3" height="204" width="160" y="422.96296" x="383.55556" stroke-width="0" fill="#ffaaaa" id="svg_15" stroke="#000000"/>
  <rect opacity="0.3" height="203.99999" width="160" y="422.96297" x="220" stroke-width="0" fill="#ffaaaa" id="svg_16" stroke="#000000"/>
  <rect opacity="0.3" height="204" width="160" y="422.96296" x="547.11112" stroke-width="0" fill="#ffaaaa" id="svg_17" stroke="#000000"/>
  <rect id="svg_8" opacity="0.3" height="611.11114" width="199.11107" y="15.85182" x="16.94447" stroke-width="0" fill="#ffaaaa" stroke="#000000"/>
  <rect id="svg_9" opacity="0.3" height="612.11106" width="177.77774" y="14.8519" x="712.05555" stroke-width="0" fill="#ffaaaa" stroke="#000000"/>
  <rect stroke="#ffffff" id="svg_19" height="164.49999" width="160" y="473.15741" x="34.66667" stroke-width="5" fill="none"/>
  <rect opacity="0.7" id="svg_21" height="35" width="132" y="168.9125" x="17.275" stroke-linecap="null" stroke-linejoin="null" stroke-dasharray="null" stroke-width="5" fill="#aaffff"/>
  <rect id="svg_22" opacity="0.7" height="33.66667" width="108" y="24.85" x="782.02889" stroke-linecap="null" stroke-linejoin="null" stroke-dasharray="null" stroke-width="5" fill="#aaffff"/>
  <rect id="svg_24" opacity="0.8" height="35" width="132" y="478.43334" x="16.78281" stroke-linecap="null" stroke-linejoin="null" stroke-dasharray="null" stroke-width="5" fill="#aaffff"/>
  <rect id="svg_29" opacity="0.7" height="34.625" width="108.08594" y="348.35" x="781.75935" stroke-linecap="null" stroke-linejoin="null" stroke-dasharray="null" stroke-width="5" fill="#aaffff"/>
 </g>
 <g stroke="null" display="inline">
  <title>圖片</title>
  <image xlink:href="https://farm5.staticflickr.com/4402/37073399331_9f9777a247_m.jpg" id="svg_47" height="114.50002" width="149.50002" y="517.16666" x="39.66667"/>
  <image xlink:href="https://farm5.staticflickr.com/4427/36818116130_d2898230ca_m.jpg" id="svg_48" height="112.5" width="155.75" y="515.25" x="550.25"/>
  <image x="223.50001" y="102.25" width="155.74999" height="121.75" id="svg_34" xlink:href="https://farm5.staticflickr.com/4407/37025817116_e5937280f6_m.jpg"/>
  <image x="388.5" y="98.74999" width="152.49997" height="126.75" id="svg_46" xlink:href="https://farm5.staticflickr.com/4435/37025816026_58d9587651_m.jpg"/>
  <image x="546.83334" y="99.50001" width="161.83333" height="124.58333" id="svg_49" xlink:href="https://farm5.staticflickr.com/4383/36818298180_58c4b7114c_m.jpg"/>
  <image x="221.83334" y="309.33333" width="157.25" height="122.83333" id="svg_50" xlink:href="https://farm5.staticflickr.com/4383/37025816256_db153e8c6f_m.jpg"/>
  <image x="550.16667" y="310.83333" width="155" height="114" id="svg_52" xlink:href="https://farm5.staticflickr.com/4384/36818298340_abd8ce243f_m.jpg"/>
  <image x="386.91668" y="316.75" width="155.08333" height="107.91667" id="svg_53" xlink:href="https://farm5.staticflickr.com/4370/36818298640_de5c5797d5_m.jpg"/>
  <image x="381.92334" y="520.64357" width="165.91667" height="100.83334" id="svg_54" xlink:href="https://farm5.staticflickr.com/4402/37025816426_c5127e7f51_m.jpg"/>
  <image x="220.88138" y="516.37593" width="156.4568" height="106.83759" id="svg_55" xlink:href="https://farm5.staticflickr.com/4369/37025816576_983588ac99_m.jpg"/>
  <a id="svg_75" xlink:href="https://farm5.staticflickr.com/4428/37206320975_ecaaae8b45_m.jpg">
   <image xlink:href="https://farm5.staticflickr.com/4428/37206320975_ecaaae8b45_m.jpg" id="svg_51" height="68.15278" width="60.13889" y="91.60879" x="24.80231"/>
  </a>
  <image x="720" y="505" width="164.99999" height="94" id="svg_90" xlink:href="https://c1.staticflickr.com/5/4441/36906747360_72e2246d19_o.jpg"/>
 </g>
 <g stroke="null" display="inline">
  <title>標題</title>
  <text stroke="#000000" fill="#3f3f3f" stroke-width="0" stroke-dasharray="null" stroke-linejoin="null" stroke-linecap="null" x="-247.17853" y="9.32852" id="svg_45" font-size="24" font-family="serif" text-anchor="middle" xml:space="preserve" font-weight="normal" transform="matrix(0.44011989099059534,0,0,0.7884392538344328,215.99485749399884,29.009354068297625) ">To Cultivate Chinese Legal Talents with</text>
  <text fill="#3f3f3f" stroke-width="0" stroke-dasharray="null" stroke-linejoin="null" stroke-linecap="null" x="590.41517" y="474.12083" id="svg_35" font-size="24" font-family="serif" text-anchor="middle" xml:space="preserve" transform="matrix(0.7564517421953524,0,0,0.770725621301885,168.24145356798408,107.58529194852727) " stroke="#000000">Part 9-</text>
  <text xml:space="preserve" text-anchor="middle" font-family="serif" font-size="24" id="svg_25" y="196.27917" x="69.73333" opacity="0.8" stroke-linecap="null" stroke-linejoin="null" stroke-dasharray="null" stroke-width="0" fill="#3f3f3f" font-style="italic" transform="matrix(0.9301310181617737,0,0,0.8787878751754761,1.9475978687405586,24.759470434859395) ">Abstract</text>
  <text font-style="italic" transform="matrix(0.7502003680850772,0,0,0.9265971944980945,138.59814852899822,13.161297818871313) " xml:space="preserve" text-anchor="middle" font-family="serif" font-size="24" id="svg_27" y="38.57322" x="896.59802" opacity="0.8" stroke-linecap="null" stroke-linejoin="null" stroke-dasharray="null" stroke-width="0" fill="#3f3f3f">Speaker’s Biography</text>
  <text font-style="italic" transform="translate(889.87255859375,504.8636779785156) scale(1) translate(-889.87255859375,-504.8636779785156) translate(889.914306640625,505.77667236328125) scale(1.0139044523239136,1.3043327331542969) translate(-889.914306640625,-505.77667236328125) translate(888.4232177734375,504.6651611328125) scale(1) translate(-888.4232177734375,-504.6651611328125) translate(888.3218994140625,504.255126953125) scale(0.9399330019950867,0.7570223808288574) translate(-888.3218994140625,-504.255126953125) translate(888.0772705078125,504.109619140625) scale(0.8550723195075989,0.9137715697288513) translate(-888.0772705078125,-504.109619140625) matrix(1.0937924253894378,0,0,1.0937924253894378,71.03591400341189,-39.500754610857044) " xml:space="preserve" text-anchor="middle" font-family="serif" font-size="24" id="svg_28" y="367.71222" x="662.66131" opacity="0.8" stroke-linecap="null" stroke-linejoin="null" stroke-dasharray="null" stroke-width="0" fill="#3f3f3f">Further Reading</text>
  <text xml:space="preserve" text-anchor="middle" font-family="serif" font-size="24" id="svg_30" y="503" x="81.83203" opacity="0.8" stroke-linecap="null" stroke-linejoin="null" stroke-dasharray="null" stroke-width="0" fill="#3f3f3f" font-style="italic" transform="matrix(0.972976803779602,0,0,0.8484848737716675,0.7300485353916883,77.42422950267792) ">Welcoming</text>
  <text stroke="#000000" transform="matrix(0.6305295917254057,0,0,0.5543232073641293,88.55123431150705,46.15615917172333) " xml:space="preserve" text-anchor="middle" font-family="serif" font-size="24" id="svg_31" y="156.01752" x="90.52617" opacity="0.8" stroke-linecap="null" stroke-linejoin="null" stroke-dasharray="null" stroke-width="0" fill="#3f3f3f">Justice He Rong</text>
  <text id="svg_61" stroke="#000000" fill="#3f3f3f" stroke-width="0" stroke-dasharray="null" stroke-linejoin="null" stroke-linecap="null" x="93.79105" y="-143.36975" font-size="24" font-family="serif" text-anchor="middle" xml:space="preserve" transform="matrix(0.6899751153006685,0,0,0.8099433267584856,229.71769740642767,181.97542009514825) ">Part 1-</text>
  <text id="svg_62" stroke="#000000" fill="#3f3f3f" stroke-width="0" stroke-dasharray="null" stroke-linejoin="null" stroke-linecap="null" x="338.99979" y="-128.01104" font-size="24" font-family="serif" text-anchor="middle" xml:space="preserve" transform="matrix(0.6902382131104463,0,0,0.8223996481616357,226.18502409005401,171.18616476172573) ">Part 2-</text>
  <text id="svg_63" stroke="#000000" fill="#3f3f3f" stroke-width="0" stroke-dasharray="null" stroke-linejoin="null" stroke-linecap="null" x="567.87429" y="-138.18517" font-size="24" font-family="serif" text-anchor="middle" xml:space="preserve" transform="matrix(0.7077352590440035,0,0,0.8019932130366455,215.78116767765084,177.31282728749886) ">Part 3-</text>
  <text id="svg_64" fill="#3f3f3f" stroke-width="0" stroke-dasharray="null" stroke-linejoin="null" stroke-linecap="null" x="334.50328" y="256.05198" font-size="24" font-family="serif" text-anchor="middle" xml:space="preserve" transform="matrix(0.6718835692990446,0,0,0.7339370035943841,72.93064732244375,78.09305660054373) " stroke="#000000">Part 4-</text>
  <text id="svg_65" fill="#3f3f3f" stroke-width="0" stroke-dasharray="null" stroke-linejoin="null" stroke-linecap="null" x="485.40299" y="258.81637" font-size="24" font-family="serif" text-anchor="middle" xml:space="preserve" transform="matrix(0.7291552899668263,0,0,0.7087994076171673,109.76109336060173,82.6787927305568) " stroke="#000000">Part 5-</text>
  <text id="svg_66" fill="#3f3f3f" stroke-width="0" stroke-dasharray="null" stroke-linejoin="null" stroke-linecap="null" x="651.13963" y="261.09145" font-size="24" font-family="serif" text-anchor="middle" xml:space="preserve" transform="matrix(0.7434489034767161,0,0,0.6986596939493019,140.69799007920648,86.0744814282956) " stroke="#000000">Part 6-</text>
  <text id="svg_67" fill="#3f3f3f" stroke-width="0" stroke-dasharray="null" stroke-linejoin="null" stroke-linecap="null" x="258.52797" y="473.94359" font-size="24" font-family="serif" text-anchor="middle" xml:space="preserve" transform="matrix(0.6558209809893115,0,0,0.6859630822908978,129.39372286235724,146.44907339616879) " stroke="#000000">Part 7-</text>
  <text id="svg_68" fill="#3f3f3f" stroke-width="0" stroke-dasharray="null" stroke-linejoin="null" stroke-linecap="null" x="429.57542" y="471.3228" font-size="24" font-family="serif" text-anchor="middle" xml:space="preserve" transform="matrix(0.7143745067858563,0,0,0.744934892525089,154.56943676010704,122.54141937635323) " stroke="#000000">Part 8-</text>
  <text transform="matrix(0.48932371235533206,0,0,0.786309274672826,232.47821167384282,146.93385604545296) " stroke="#000000" xml:space="preserve" text-anchor="middle" font-family="serif" font-size="24" id="svg_69" y="-76.59069" x="139.53102" stroke-linecap="null" stroke-linejoin="null" stroke-dasharray="null" stroke-width="0" fill="#3f3f3f">Internationalized Legal Talents</text>
  <text id="svg_76" transform="matrix(0.4715518735109632,0,0,0.7321665893265735,133.3922492490085,9.241806714275004) " stroke="#000000" xml:space="preserve" text-anchor="middle" font-family="serif" font-size="24" y="661.67446" x="355.45613" stroke-linecap="null" stroke-linejoin="null" stroke-dasharray="null" stroke-width="0" fill="#3f3f3f">Hong Kong Arbitration Centre</text>
  <text stroke="#000000" transform="matrix(0.4845225647040757,0,0,0.7956453507196313,240.61922723094108,91.35711538623383) " xml:space="preserve" text-anchor="middle" font-family="serif" font-size="24" id="svg_78" y="506.69352" x="466.57373" stroke-linecap="null" stroke-linejoin="null" stroke-dasharray="null" stroke-width="0" fill="#3f3f3f">Digitalization of Imformation</text>
  <text id="svg_79" transform="matrix(0.4651604750799313,0,0,0.6640912017103471,258.93302258376843,4.966335992748357) " stroke="#000000" xml:space="preserve" text-anchor="middle" font-family="serif" font-size="24" y="428.41115" x="797.52091" stroke-linecap="null" stroke-linejoin="null" stroke-dasharray="null" stroke-width="0" fill="#3f3f3f">Resolving Diversity Problems</text>
  <text id="svg_80" transform="matrix(0.5316170398658567,0,0,0.6425983197685694,181.41716137144348,28.120903272207933) " stroke="#000000" xml:space="preserve" text-anchor="middle" font-family="serif" font-size="24" y="405.61136" x="227.9538" stroke-linecap="null" stroke-linejoin="null" stroke-dasharray="null" stroke-width="0" fill="#3f3f3f">One Belt One Road Policy</text>
  <text style="cursor: move;" id="svg_81" transform="matrix(0.5965939027757328,0,0,0.649226965603605,178.5444679092019,36.758830447435834) " stroke="#000000" xml:space="preserve" text-anchor="middle" font-family="serif" font-size="24" y="379.28341" x="482.80167" stroke-linecap="null" stroke-linejoin="null" stroke-dasharray="null" stroke-width="0" fill="#3f3f3f">One Belt One Road</text>
  <text style="cursor: move;" id="svg_82" transform="matrix(0.5912295645139657,0,0,0.7497303971284531,184.52869608011582,-146.24615693413872) " stroke="#000000" xml:space="preserve" text-anchor="middle" font-family="serif" font-size="24" y="307.362" x="747.74553" stroke-linecap="null" stroke-linejoin="null" stroke-dasharray="null" stroke-width="0" fill="#3f3f3f">Agreements for CityU</text>
  <text style="cursor: move;" id="svg_86" transform="matrix(0.6477349908937999,0,0,0.5698850200386181,260.70237692437377,125.41653551253972) " stroke="#000000" xml:space="preserve" text-anchor="middle" font-family="serif" font-size="24" y="300.32343" x="321.0126" stroke-linecap="null" stroke-linejoin="null" stroke-dasharray="null" stroke-width="0" fill="#3f3f3f">Future Development</text>
  <text id="svg_87" transform="matrix(0.5860695967074089,0,0,0.7411866079066339,272.7154777352171,143.01710454437608) " stroke="#000000" xml:space="preserve" text-anchor="middle" font-family="serif" font-size="24" y="-76.8533" x="326.01052" stroke-linecap="null" stroke-linejoin="null" stroke-dasharray="null" stroke-width="0" fill="#3f3f3f">Hong Kong Legal System</text>
  <text style="cursor: move;" id="svg_89" transform="matrix(0.671752744281157,0,0,0.6456413953304008,231.90518588691674,131.41692457924557) " stroke="#000000" xml:space="preserve" text-anchor="middle" font-family="serif" font-size="24" y="-52.60569" x="590.00142" stroke-linecap="null" stroke-linejoin="null" stroke-dasharray="null" stroke-width="0" fill="#3f3f3f">and Chinese Judges</text>
  <text id="svg_23" stroke="#000000" fill="#3f3f3f" stroke-width="0" stroke-dasharray="null" stroke-linejoin="null" stroke-linecap="null" x="43.63244" y="-5.51875" font-size="24" font-family="serif" text-anchor="middle" xml:space="preserve" font-weight="normal" transform="matrix(0.48141442954405517,0,0,0.7484858305295832,91.72890614955404,73.02838157283014) ">Experience of Hong Kong Legal System</text>
  <text id="svg_56" stroke="#000000" transform="matrix(0.7408099645277276,0,0,0.7097903687412231,210.5184883807875,110.54610288310796) " xml:space="preserve" text-anchor="middle" font-family="serif" font-size="24" y="538.24023" x="550.17187" stroke-linecap="null" stroke-linejoin="null" stroke-dasharray="null" stroke-width="0" fill="#3f3f3f">Conclusion</text>
  <a xlink:href="https://youtu.be/KTx-A9V6_LI" id="svg_26">
   <path fill="#ffffff" stroke-width="0" stroke-dasharray="null" stroke-linejoin="null" stroke-linecap="null" d="m240.77154,181.18171c-8.26903,0 -14.97223,6.47597 -14.97223,14.46469c0,7.98872 6.7032,14.46469 14.97223,14.46469c8.26903,0 14.97222,-6.47597 14.97222,-14.46469c0,-7.98872 -6.70319,-14.46469 -14.97222,-14.46469zm-2.40541,24.14332l-3.64261,-3.52213l6.37355,-6.15749l-6.37355,-6.1575l3.64261,-3.51914l10.0172,9.67664l-10.0172,9.67962z" marker-mid="url(#se_marker_mid_svg_44)" id="svg_44" stroke="#000000"/>
  </a>
  <a xlink:href="https://youtu.be/KTx-A9V6_LI" id="svg_57">
   <path stroke="#000000" fill="#ffffff" stroke-width="0" stroke-dasharray="null" stroke-linejoin="null" stroke-linecap="null" d="m409.27154,181.18171c-8.26903,0 -14.97223,6.47597 -14.97223,14.46469c0,7.98872 6.7032,14.46469 14.97223,14.46469c8.26903,0 14.97222,-6.47597 14.97222,-14.46469c0,-7.98872 -6.70319,-14.46469 -14.97222,-14.46469zm-2.40541,24.14332l-3.64261,-3.52213l6.37355,-6.15749l-6.37355,-6.1575l3.64261,-3.51914l10.0172,9.67664l-10.0172,9.67962z" marker-mid="url(#se_marker_mid_svg_44)" id="svg_43"/>
  </a>
  <a xlink:href="https://youtu.be/MbH82vLJ0As" id="svg_58">
   <path stroke="#000000" fill="#ffffff" stroke-width="0" stroke-dasharray="null" stroke-linejoin="null" stroke-linecap="null" d="m566.52154,179.93172c-8.26903,0 -14.97223,6.47597 -14.97223,14.46469c0,7.98872 6.7032,14.46469 14.97223,14.46469c8.26903,0 14.97222,-6.47597 14.97222,-14.46469c0,-7.98872 -6.70319,-14.46469 -14.97222,-14.46469zm-2.40541,24.14331l-3.64261,-3.52212l6.37355,-6.1575l-6.37355,-6.15749l3.64261,-3.51914l10.0172,9.67663l-10.0172,9.67962z" marker-mid="url(#se_marker_mid_svg_44)" id="svg_42"/>
  </a>
  <a xlink:href="https://youtu.be/Uu8RxHPem2U" id="svg_59">
   <path stroke="#000000" fill="#ffffff" stroke-width="0" stroke-dasharray="null" stroke-linejoin="null" stroke-linecap="null" d="m239.52154,387.43171c-8.26903,0 -14.97223,6.47597 -14.97223,14.46469c0,7.98872 6.7032,14.46469 14.97223,14.46469c8.26903,0 14.97222,-6.47597 14.97222,-14.46469c0,-7.98872 -6.70319,-14.46469 -14.97222,-14.46469zm-2.40541,24.14332l-3.64261,-3.52213l6.37355,-6.15749l-6.37355,-6.1575l3.64261,-3.51914l10.0172,9.67664l-10.0172,9.67962z" marker-mid="url(#se_marker_mid_svg_41)" id="svg_41"/>
  </a>
  <a xlink:href="https://youtu.be/ND10UOeXHNk" id="svg_60">
   <path stroke="#000000" fill="#3f3f3f" stroke-width="0" stroke-dasharray="null" stroke-linejoin="null" stroke-linecap="null" d="m59.35488,589.34839c-8.26903,0 -14.97223,6.47597 -14.97223,14.46469c0,7.98872 6.7032,14.46469 14.97223,14.46469c8.26903,0 14.97222,-6.47597 14.97222,-14.46469c0,-7.98872 -6.70319,-14.46469 -14.97222,-14.46469zm-2.40541,24.14332l-3.64261,-3.52213l6.37355,-6.15749l-6.37355,-6.1575l3.64261,-3.51914l10.0172,9.67664l-10.0172,9.67962z" marker-mid="url(#se_marker_mid_svg_38)" id="svg_20"/>
  </a>
  <a xlink:href="https://youtu.be/6pebWc-wkEk" id="svg_70">
   <path stroke="#000000" fill="#ffffff" stroke-width="0" stroke-dasharray="null" stroke-linejoin="null" stroke-linecap="null" d="m403.02154,387.43171c-8.26903,0 -14.97223,6.47597 -14.97223,14.46469c0,7.98872 6.7032,14.46469 14.97223,14.46469c8.26903,0 14.97222,-6.47597 14.97222,-14.46469c0,-7.98872 -6.70319,-14.46469 -14.97222,-14.46469zm-2.40541,24.14332c-1.2142,-1.17404 -2.42841,-2.34809 -3.64261,-3.52213l6.37355,-6.15749l-6.37355,-6.1575l3.64261,-3.51914l10.0172,9.67664l-10.0172,9.67962z" marker-mid="url(#se_marker_mid_svg_41)" id="svg_40"/>
  </a>
  <a xlink:href="https://youtu.be/wEgZbE_KnIA" id="svg_71">
   <path stroke="#000000" fill="#ffffff" stroke-width="0" stroke-dasharray="null" stroke-linejoin="null" stroke-linecap="null" d="m566.52154,387.43172c-8.26903,0 -14.97223,6.47597 -14.97223,14.46469c0,7.98872 6.7032,14.46469 14.97223,14.46469c8.26903,0 14.97222,-6.47597 14.97222,-14.46469c0,-7.98872 -6.70319,-14.46469 -14.97222,-14.46469zm-2.40541,24.14331l-3.64261,-3.52212l6.37355,-6.1575l-6.37355,-6.15749l3.64261,-3.51914l10.0172,9.67663l-10.0172,9.67962z" marker-mid="url(#se_marker_mid_svg_41)" id="svg_39"/>
  </a>
  <a xlink:href="https://youtu.be/8lLBrSC5KOo" id="svg_72">
   <path stroke="#000000" fill="#ffffff" stroke-width="0" stroke-dasharray="null" stroke-linejoin="null" stroke-linecap="null" d="m240.77154,590.43172c-8.26903,0 -14.97223,6.47597 -14.97223,14.46469c0,7.98872 6.7032,14.46469 14.97223,14.46469c8.26903,0 14.97222,-6.47597 14.97222,-14.46469c0,-7.98872 -6.70319,-14.46469 -14.97222,-14.46469zm-2.40541,24.14332l-3.64261,-3.52213l6.37355,-6.15749l-6.37355,-6.1575l3.64261,-3.51914l10.0172,9.67664l-10.0172,9.67962z" marker-mid="url(#se_marker_mid_svg_38)" id="svg_38"/>
  </a>
  <a xlink:href="https://youtu.be/-z0slKGLfIg" id="svg_73">
   <path stroke="#000000" fill="#ffffff" stroke-width="0" stroke-dasharray="null" stroke-linejoin="null" stroke-linecap="null" d="m404.27154,590.43172c-8.26903,0 -14.97223,6.47597 -14.97223,14.46469c0,7.98872 6.7032,14.46469 14.97223,14.46469c8.26903,0 14.97222,-6.47597 14.97222,-14.46469c0,-7.98872 -6.70319,-14.46469 -14.97222,-14.46469zm-2.40541,24.14332l-3.64261,-3.52213l6.37355,-6.15749l-6.37355,-6.1575l3.64261,-3.51914l10.0172,9.67664l-10.0172,9.67962z" marker-mid="url(#se_marker_mid_svg_37)" id="svg_37"/>
  </a>
  <a xlink:href="https://youtu.be/tHCodWDyg30" id="svg_74">
   <path stroke="#000000" fill="#ffffff" stroke-width="0" stroke-dasharray="null" stroke-linejoin="null" stroke-linecap="null" d="m567.77154,590.43173c-8.26903,0 -14.97222,6.47597 -14.97222,14.46469c0,7.98872 6.7032,14.46469 14.97222,14.46469c8.26903,0 14.97222,-6.47597 14.97222,-14.46469c0,-7.98872 -6.7032,-14.46469 -14.97222,-14.46469zm-2.4054,24.14331l-3.64262,-3.52212l6.37355,-6.1575l-6.37355,-6.1575l3.64262,-3.51914l10.01719,9.67663l-10.01719,9.67962l0,0.00001z" id="svg_36" marker-mid="url(#se_marker_mid_svg_36)"/>
  </a>
  <text xml:space="preserve" text-anchor="middle" font-family="serif" font-size="24" id="svg_83" y="542.0428" x="772.10043" stroke-linecap="null" stroke-linejoin="null" stroke-dasharray="null" stroke-width="0" stroke="#000000" fill="#3f3f3f"/>
  <g id="svg_180"/>
  <text stroke="#000000" fill="#3f3f3f" stroke-width="0" stroke-dasharray="null" stroke-linejoin="null" stroke-linecap="null" x="-192.80442" y="39.24706" font-size="24" font-family="serif" text-anchor="middle" xml:space="preserve" font-weight="normal" transform="matrix(0.46851691627280945,0,0,0.7510071671772799,205.28273039612472,20.319573101860225) " id="svg_85">International Outlook by Drawing on the</text>
  <text stroke="#000000" transform="matrix(0.6305295917254057,0,0,0.6337428861680828,88.55123431150705,35.301673797331134) " xml:space="preserve" text-anchor="middle" font-family="serif" font-size="24" y="181.52823" x="91.43679" opacity="0.8" stroke-linecap="null" stroke-linejoin="null" stroke-dasharray="null" stroke-width="0" fill="#3f3f3f" id="svg_7">25 November 2015</text>
  <text stroke="#000000" transform="matrix(0.6305295917254057,0,0,0.5543232073641293,88.55123431150705,46.15615917172333) " xml:space="preserve" text-anchor="middle" font-family="serif" font-size="24" y="124.73323" x="81.58567" opacity="0.8" stroke-linecap="null" stroke-linejoin="null" stroke-dasharray="null" stroke-width="0" fill="#3f3f3f" id="svg_88">賀榮大法官</text>
  <text stroke="#000000" fill="#3f3f3f" stroke-width="0" stroke-dasharray="null" stroke-linejoin="null" stroke-linecap="null" x="106.83606" y="6.2096" font-size="24" font-family="serif" text-anchor="middle" xml:space="preserve" font-weight="normal" transform="matrix(0.36708374670422134,0,0,0.5987294150775577,74.53312275130698,80.27898588654907) " id="svg_93">發揮香港法律優勢，共同培養國際化法律人才</text>
 </g>
</svg>