<svg width="904.9999999999999" height="640.0000000000001" xmlns="http://www.w3.org/2000/svg" xmlns:svg="http://www.w3.org/2000/svg" xmlns:xlink="http://www.w3.org/1999/xlink">
 <!-- Created with SVG-edit - http://svg-edit.googlecode.com/ -->
 <title>On the Social Dynamics of Philosophical Ideas: Dai Zhen&#x27;s Critique of Neo-Confucianism</title>
 <defs>
  <marker id="se_marker_mid_svg_38" markerUnits="strokeWidth" orient="auto" viewBox="0 0 100 100" markerWidth="5" markerHeight="5" refX="50" refY="50">
   <path stroke="#000000" id="svg_3" d="m283.85573,64.76907l-54.50378,38.51647l16.35113,-38.51647l-16.35113,-38.51647l54.50378,38.51647z" fill="#000000" stroke-width="10"/>
  </marker>
  <marker id="se_marker_mid_svg_41" markerUnits="strokeWidth" orient="auto" viewBox="0 0 100 100" markerWidth="5" markerHeight="5" refX="50" refY="50">
   <path stroke="#000000" id="svg_4" d="m100,50l-100,40l30,-40l-30,-40l100,40z" fill="#000000" stroke-width="10"/>
  </marker>
  <marker id="se_marker_mid_svg_44" markerUnits="strokeWidth" orient="auto" viewBox="0 0 100 100" markerWidth="5" markerHeight="5" refX="50" refY="50">
   <path stroke="#000000" id="svg_6" d="m100,50l-100,40l30,-40l-30,-40l100,40z" fill="#000000" stroke-width="10"/>
  </marker>
  <pattern height="100" width="100" y="0" x="0" patternUnits="userSpaceOnUse" id="gridpattern">
   <image height="100" width="100" y="0" x="0" id="svg_7"/>
  </pattern>
 </defs>
 <g display="none">
  <title>圖遮罩</title>
 </g>
 <g display="inline" stroke="null">
  <title>文字</title>
  <text fill="#7f003f" stroke-width="0" stroke-dasharray="null" stroke-linejoin="null" stroke-linecap="null" x="137.5052" y="365.00655" id="svg_2" font-size="24" font-family="serif" text-anchor="middle" xml:space="preserve" stroke="#000000" font-weight="bold">21 April 2015</text>
  <text fill="#7f003f" stroke-width="0" stroke-dasharray="null" stroke-linejoin="null" stroke-linecap="null" x="-246.59387" y="12.00806" font-size="24" font-family="serif" text-anchor="middle" xml:space="preserve" font-weight="normal" transform="matrix(0.7651205831717912,0,0,1.2683501477523975,300.03667997185215,33.69661166076018) " id="svg_45">Electrochemistry in</text>
  <text stroke="#000000" transform="matrix(0.7755720912058428,0,0,1.2242170595689181,112.545294416551,-65.27975191494532) " xml:space="preserve" text-anchor="middle" font-family="serif" font-size="24" y="301.20759" x="10.59966" opacity="0.8" stroke-linecap="null" stroke-linejoin="null" stroke-dasharray="null" stroke-width="0" fill="#7f003f" font-weight="bold" id="svg_31">Prof. Li-jun Wan</text>
  <text fill="#7f003f" stroke-width="0" stroke-dasharray="null" stroke-linejoin="null" stroke-linecap="null" x="-227.91828" y="58.51938" font-size="24" font-family="serif" text-anchor="middle" xml:space="preserve" font-weight="normal" transform="matrix(0.6794303231491544,0,0,1.2153576721307993,272.15377816873945,9.963121340476409) " id="svg_20">Conversion and Storage:</text>
  <image x="27.83333" y="342.07096" width="191" height="166" xlink:href="https://c1.staticflickr.com/1/953/41780498081_504de584f1_o.png" id="svg_68"/>
  <text transform="matrix(0.8473468726244349,0,0,0.8473468726244349,-4.250636468413938,10.957759986511908) " id="svg_21" fill="#7f003f" stroke-width="0" stroke-dasharray="null" stroke-linejoin="null" stroke-linecap="null" x="141.17081" y="111.40622" font-size="24" font-family="serif" text-anchor="middle" xml:space="preserve" font-weight="normal">Materials and Interfacial</text>
  <text id="svg_24" fill="#7f003f" stroke-width="0" stroke-dasharray="null" stroke-linejoin="null" stroke-linecap="null" x="-238.58322" y="92.01887" font-size="24" font-family="serif" text-anchor="middle" xml:space="preserve" font-weight="normal" transform="matrix(0.740570886503038,0,0,1.3247252558531835,294.3983761181116,6.604661587652911) ">Structure</text>
  <image xlink:href="https://c1.staticflickr.com/1/965/41063415914_50e006f82e_o.png" id="svg_62" height="470.77587" width="172" y="90.8908" x="716.33333"/>
  <text font-weight="normal" stroke="#000000" xml:space="preserve" text-anchor="middle" font-family="serif" font-size="24" y="502.50389" x="434.05763" stroke-linecap="null" stroke-linejoin="null" stroke-dasharray="null" stroke-width="0" fill="#3f007f" id="svg_34">Enhancing energy conversion and storage</text>
  <text style="cursor: move;" id="svg_16" stroke="#000000" transform="matrix(0.7755720912058428,0,0,1.2242170595689181,112.545294416551,-65.27975191494532) " xml:space="preserve" text-anchor="middle" font-family="serif" font-size="24" y="326.28397" x="8.15655" opacity="0.8" stroke-linecap="null" stroke-linejoin="null" stroke-dasharray="null" stroke-width="0" fill="#7f003f" font-weight="bold">21 April 2015</text>
 </g>
 <g stroke="null" display="inline">
  <title>色塊</title>
  <rect opacity="0.3" height="200.99998" width="160" y="16.85186" x="381.55557" stroke-width="0" fill="#ff7f00" id="svg_5" stroke="#000000"/>
  <rect opacity="0.3" height="201" width="160" y="17.85187" x="217.00001" stroke-width="0" fill="#ff7f00" id="svg_10" stroke="#000000"/>
  <rect opacity="0.3" height="200.99998" width="160" y="16.85188" x="545.11112" stroke-width="0" fill="#ff7f00" id="svg_11" stroke="#000000"/>
  <rect opacity="0.3" height="200.99998" width="160" y="220.40743" x="381.55556" stroke-width="0" fill="#ff7f00" id="svg_12" stroke="#000000"/>
  <rect opacity="0.3" height="201.00001" width="160" y="221.40742" x="217.00001" stroke-width="0" fill="#ff7f00" id="svg_13" stroke="#000000"/>
  <rect opacity="0.3" height="200.99998" width="160" y="220.40744" x="545.11112" stroke-width="0" fill="#ff7f00" id="svg_14" stroke="#000000"/>
  <rect stroke="#000000" opacity="0.3" height="204" width="486.66675" y="423.96296" x="217.55554" stroke-width="0" fill="#ff7f00" id="svg_15"/>
  <rect id="svg_8" opacity="0.3" height="611.11114" width="199.11107" y="16.85182" x="15.94447" stroke-width="0" fill="#ff7f00" stroke="#000000"/>
  <rect id="svg_9" opacity="0.3" height="612.11106" width="177.77774" y="15.8519" x="710.05555" stroke-width="0" fill="#ff7f00" stroke="#000000"/>
  <rect id="svg_22" height="33.66667" width="138" y="34.85" x="752.0289" stroke-linecap="null" stroke-linejoin="null" stroke-dasharray="null" stroke-width="5" fill="#ffffaa"/>
 </g>
 <g stroke="null" display="inline">
  <title>圖片</title>
  <image x="64" y="140.07143" width="110" height="132.26191" id="svg_17" xlink:href="https://c1.staticflickr.com/1/832/41780497841_e90bb7f2e1_o.png"/>
  <image x="219.83333" y="319.00002" width="150" height="100" xlink:href="https://farm5.staticflickr.com/4274/34840086376_af2c73d50f_b.jpg" id="svg_51"/>
  <image x="388.16666" y="319.66665" width="150" height="100" xlink:href="https://farm5.staticflickr.com/4223/34716610302_788a1d4b90_b.jpg" id="svg_54"/>
  <image x="549.16666" y="317.66668" width="150" height="100" xlink:href="https://farm5.staticflickr.com/4227/34036621984_d185213d2e_b.jpg" id="svg_60"/>
  <image x="387.66668" y="115.33334" width="150" height="100" xlink:href="https://farm5.staticflickr.com/4270/34716610612_a3fd7b4e6d_b.jpg" id="svg_50"/>
  <image x="222.33334" y="116.55556" width="150" height="100" xlink:href="https://farm5.staticflickr.com/4245/34840086846_98692b493b_b.jpg" id="svg_49"/>
  <image x="547.66667" y="115.33336" width="150" height="100" xlink:href="https://farm5.staticflickr.com/4249/34716610502_dd21854655_b.jpg" id="svg_56"/>
  <image id="svg_65" x="45.50002" y="525.16664" width="150" height="100" xlink:href="https://farm5.staticflickr.com/4267/34840086926_b3653b3b55_b.jpg"/>
  <image xlink:href="https://newscentre.cityu.edu.hk/sites/g/files/asqsls2011/files/news/content/150424_Wan-1.jpg" id="svg_73" height="100" width="150" y="517.62667" x="549.66666"/>
  <image x="387.99999" y="520.66668" width="150" height="100" xlink:href="https://farm5.staticflickr.com/4227/34840085556_38b201ca8a_b.jpg" id="svg_1"/>
  <image x="228.33333" y="522.66667" width="150" height="100" id="svg_29" xlink:href="https://farm5.staticflickr.com/4204/34036621804_715e3bf453_b.jpg"/>
 </g>
 <g stroke="null" display="inline">
  <title>標題</title>
  <text id="svg_61" fill="#ff7f00" stroke-width="0" stroke-dasharray="null" stroke-linejoin="null" stroke-linecap="null" x="290.87599" y="44.93424" font-size="24" font-family="serif" text-anchor="middle" xml:space="preserve" transform="matrix(1.0355313631775402,0,0,0.8931367674361752,-9.444224376453377,1.758776518517677) " stroke="#000000">Part 1.</text>
  <text font-weight="normal" transform="matrix(0.9457530331937911,0,0,1.05477282417271,197.77360970811117,168.0069856491978) " stroke="#000000" xml:space="preserve" text-anchor="middle" font-family="serif" font-size="24" id="svg_69" y="-73.53944" x="96.68915" stroke-linecap="null" stroke-linejoin="null" stroke-dasharray="null" stroke-width="0" fill="#3f007f">Introduction</text>
  <text font-weight="normal" id="svg_80" transform="matrix(0.9795772192667939,0,0,1.1004879935399305,129.78055476921918,-174.14105927151414) " stroke="#000000" xml:space="preserve" text-anchor="middle" font-family="serif" font-size="24" y="407.23068" x="169.35905" stroke-linecap="null" stroke-linejoin="null" stroke-dasharray="null" stroke-width="0" fill="#3f007f">Energy Storage</text>
  <text font-weight="normal" id="svg_87" transform="matrix(0.8353942807611581,0,0,1.0900662650092148,190.1380598360462,134.86919573220027) " stroke="#000000" xml:space="preserve" text-anchor="middle" font-family="serif" font-size="24" y="-59.99902" x="325.76522" stroke-linecap="null" stroke-linejoin="null" stroke-dasharray="null" stroke-width="0" fill="#3f007f">Solution of</text>
  <a xlink:href="https://www.youtube.com/watch?v=3BsVELwI_y4&amp;list=PLC6YZ5mMz0SzNBRjtcK-168F8Fq0BwSEt&amp;index=2&amp;t=0s" id="svg_26">
   <path fill="#ff7f00" stroke-width="0" stroke-dasharray="null" stroke-linejoin="null" stroke-linecap="null" d="m356.60487,185.34838c-8.26903,0 -14.97223,6.47597 -14.97223,14.46469c0,7.98872 6.7032,14.46469 14.97223,14.46469c8.26903,0 14.97222,-6.47597 14.97222,-14.46469c0,-7.98872 -6.70319,-14.46469 -14.97222,-14.46469zm-2.40541,24.14332l-3.64261,-3.52213l6.37355,-6.15749l-6.37355,-6.1575l3.64261,-3.51914l10.0172,9.67664l-10.0172,9.67962z" marker-mid="url(#se_marker_mid_svg_44)" id="svg_44" stroke="#000000"/>
  </a>
  <a xlink:href="https://www.youtube.com/watch?v=LQ8o1eUYcLc&amp;list=PLC6YZ5mMz0SzNBRjtcK-168F8Fq0BwSEt&amp;index=3&amp;t=0s" id="svg_57">
   <path stroke="#000000" fill="#ff7f00" stroke-width="0" stroke-dasharray="null" stroke-linejoin="null" stroke-linecap="null" d="m523.77154,184.68171c-8.26903,0 -14.97223,6.47597 -14.97223,14.46469c0,7.98872 6.7032,14.46469 14.97223,14.46469c8.26903,0 14.97222,-6.47597 14.97222,-14.46469c0,-7.98872 -6.70319,-14.46469 -14.97222,-14.46469zm-2.40541,24.14332l-3.64261,-3.52213l6.37355,-6.15749l-6.37355,-6.1575l3.64261,-3.51914l10.0172,9.67664l-10.0172,9.67962z" marker-mid="url(#se_marker_mid_svg_44)" id="svg_43"/>
  </a>
  <a xlink:href="https://www.youtube.com/watch?v=Nm5SQoditik&amp;list=PLC6YZ5mMz0SzNBRjtcK-168F8Fq0BwSEt&amp;index=4&amp;t=0s" id="svg_58">
   <path stroke="#000000" fill="#ff7f00" stroke-width="0" stroke-dasharray="null" stroke-linejoin="null" stroke-linecap="null" d="m682.60487,186.01505c-8.26903,0 -14.97223,6.47597 -14.97223,14.46469c0,7.98872 6.7032,14.46469 14.97223,14.46469c8.26903,0 14.97222,-6.47597 14.97222,-14.46469c0,-7.98872 -6.70319,-14.46469 -14.97222,-14.46469zm-2.40541,24.14331l-3.64261,-3.52212l6.37355,-6.1575l-6.37355,-6.15749l3.64261,-3.51914l10.0172,9.67663l-10.0172,9.67962z" marker-mid="url(#se_marker_mid_svg_44)" id="svg_42"/>
  </a>
  <a xlink:href="https://www.youtube.com/watch?v=PEIaY5h4eL8&amp;list=PLC6YZ5mMz0SzNBRjtcK-168F8Fq0BwSEt&amp;index=5&amp;t=0s" id="svg_59">
   <path stroke="#000000" fill="#ff7f00" stroke-width="0" stroke-dasharray="null" stroke-linejoin="null" stroke-linecap="null" d="m355.27154,388.76504c-8.26903,0 -14.97223,6.47597 -14.97223,14.46469c0,7.98872 6.7032,14.46469 14.97223,14.46469c8.26903,0 14.97222,-6.47597 14.97222,-14.46469c0,-7.98872 -6.70319,-14.46469 -14.97222,-14.46469zm-2.40541,24.14332l-3.64261,-3.52213l6.37355,-6.15749l-6.37355,-6.1575l3.64261,-3.51914l10.0172,9.67664l-10.0172,9.67962z" marker-mid="url(#se_marker_mid_svg_41)" id="svg_41"/>
  </a>
  <a xlink:href="https://www.youtube.com/watch?v=flt5kksoG6U&amp;list=PLC6YZ5mMz0SzNBRjtcK-168F8Fq0BwSEt&amp;index=6&amp;t=0s" id="svg_70">
   <path stroke="#000000" fill="#ff7f00" stroke-width="0" stroke-dasharray="null" stroke-linejoin="null" stroke-linecap="null" d="m521.43821,385.76504c-8.26903,0 -14.97223,6.47597 -14.97223,14.46469c0,7.98872 6.7032,14.46469 14.97223,14.46469c8.26903,0 14.97222,-6.47597 14.97222,-14.46469c0,-7.98872 -6.70319,-14.46469 -14.97222,-14.46469zm-2.40541,24.14332c-1.2142,-1.17404 -2.42841,-2.34809 -3.64261,-3.52213l6.37355,-6.15749l-6.37355,-6.1575l3.64261,-3.51914l10.0172,9.67664l-10.0172,9.67962z" marker-mid="url(#se_marker_mid_svg_41)" id="svg_40"/>
  </a>
  <a xlink:href="https://www.youtube.com/watch?v=FzWCdeaRcDY&amp;list=PLC6YZ5mMz0SzNBRjtcK-168F8Fq0BwSEt&amp;index=7&amp;t=0s" id="svg_71">
   <path stroke="#000000" fill="#ff7f00" stroke-width="0" stroke-dasharray="null" stroke-linejoin="null" stroke-linecap="null" d="m682.27154,389.43172c-8.26903,0 -14.97223,6.47597 -14.97223,14.46469c0,7.98872 6.7032,14.46469 14.97223,14.46469c8.26903,0 14.97222,-6.47597 14.97222,-14.46469c0,-7.98872 -6.70319,-14.46469 -14.97222,-14.46469zm-2.40541,24.14331l-3.64261,-3.52212l6.37355,-6.1575l-6.37355,-6.15749l3.64261,-3.51914l10.0172,9.67663l-10.0172,9.67962z" marker-mid="url(#se_marker_mid_svg_41)" id="svg_39"/>
  </a>
  <text xml:space="preserve" text-anchor="middle" font-family="serif" font-size="24" id="svg_83" y="542.0428" x="772.10043" stroke-linecap="null" stroke-linejoin="null" stroke-dasharray="null" stroke-width="0" stroke="#000000" fill="#3f3f3f"/>
  <g id="svg_180"/>
  <text font-weight="normal" id="svg_53" transform="matrix(0.7645882831489923,0,0,0.9479237843478044,72.24639880494361,-215.20677606051424) " stroke="#000000" xml:space="preserve" text-anchor="middle" font-family="serif" font-size="24" y="300.13886" x="709.97567" stroke-linecap="null" stroke-linejoin="null" stroke-dasharray="null" stroke-width="0" fill="#3f007f">Direct Methanol</text>
  <text style="cursor: move;" font-weight="normal" id="svg_84" transform="matrix(0.9887659585611809,0,0,1.2434040430239695,-7.126780182383428,-252.3503270919651) " stroke="#000000" xml:space="preserve" text-anchor="middle" font-family="serif" font-size="24" y="435.95987" x="479.66609" stroke-linecap="null" stroke-linejoin="null" stroke-dasharray="null" stroke-width="0" fill="#3f007f">In-situ SPM</text>
  <text transform="matrix(0.7280527701259416,0,0,0.8188012338468919,170.34399353135802,-17.237344596451262) " font-style="italic" xml:space="preserve" text-anchor="middle" font-family="serif" font-size="24" y="89.07273" x="873.42024" opacity="0.8" stroke-linecap="null" stroke-linejoin="null" stroke-dasharray="null" stroke-width="0" fill="#7f003f" id="svg_27">Speaker’s Biography</text>
  <text stroke="#000000" xml:space="preserve" text-anchor="middle" font-family="serif" font-size="24" id="svg_18" y="287.62962" x="619.14719" stroke-linecap="null" stroke-linejoin="null" stroke-dasharray="null" stroke-width="0" fill="#3f007f" font-weight="normal">Ｑ＆Ａ</text>
  <text font-weight="bold" id="svg_19" fill="#ff7f00" stroke-width="0" stroke-dasharray="null" stroke-linejoin="null" stroke-linecap="null" x="303.96689" y="468.46186" font-size="24" font-family="serif" text-anchor="middle" xml:space="preserve" transform="matrix(1.292738676071167,0,0,1.292738676071167,-121.51399482041597,-138.82674308493733) " stroke="#000000">News</text>
  <text style="cursor: move;" font-weight="normal" xml:space="preserve" text-anchor="middle" font-family="serif" font-size="24" y="520.44445" x="117.98924" stroke-linecap="null" stroke-linejoin="null" stroke-dasharray="null" stroke-width="0" stroke="#000000" fill="#3f007f" id="svg_67">Welcoming</text>
  <a id="svg_75" xlink:href="https://www.youtube.com/watch?v=KFo43Vh5Mi8&amp;list=PLC6YZ5mMz0SzNBRjtcK-168F8Fq0BwSEt&amp;index=1&amp;t=0s">
   <path stroke="#000000" fill="#ff7f00" stroke-width="0" stroke-dasharray="null" stroke-linejoin="null" stroke-linecap="null" d="m176.92588,589.69788c-10.0003,0 -18.10694,8.95514 -18.10694,20.00215c0,11.04701 8.10664,20.00215 18.10694,20.00215c10.00031,0 18.10694,-8.95514 18.10694,-20.00215c0,-11.04701 -8.10663,-20.00215 -18.10694,-20.00215zm-2.90902,33.38602l-4.40526,-4.8705l7.70797,-8.51474l-7.70797,-8.51475l4.40526,-4.86635l12.11448,13.38111l-12.11448,13.38523z" marker-mid="url(#se_marker_mid_svg_38)" id="svg_66"/>
  </a>
  <text id="svg_25" fill="#ff7f00" stroke-width="0" stroke-dasharray="null" stroke-linejoin="null" stroke-linecap="null" x="412.55015" y="41.96158" font-size="24" font-family="serif" text-anchor="middle" xml:space="preserve" transform="matrix(1.0355313631775402,0,0,0.8931367674361752,26.799810323394894,0.9960394288132894) " stroke="#000000">Part 2.</text>
  <text id="svg_28" fill="#ff7f00" stroke-width="0" stroke-dasharray="null" stroke-linejoin="null" stroke-linecap="null" x="535.33175" y="43.57641" font-size="24" font-family="serif" text-anchor="middle" xml:space="preserve" transform="matrix(1.0802138935486312,0,0,0.9316750600998063,40.954847926026034,0.6704396550047798) " stroke="#000000">Part 3.</text>
  <text id="svg_30" fill="#ff7f00" stroke-width="0" stroke-dasharray="null" stroke-linejoin="null" stroke-linecap="null" x="290.11269" y="222.45086" font-size="24" font-family="serif" text-anchor="middle" xml:space="preserve" transform="matrix(0.9610605057182937,0,0,0.8289063025130686,13.431818679026918,61.09815492975015) " stroke="#000000">Part 4.</text>
  <text id="svg_32" fill="#ff7f00" stroke-width="0" stroke-dasharray="null" stroke-linejoin="null" stroke-linecap="null" x="416.68575" y="219.4782" font-size="24" font-family="serif" text-anchor="middle" xml:space="preserve" transform="matrix(1.0790148827707233,0,0,0.9306409237632538,9.88087957876676,39.32414694195895) " stroke="#000000">Part 5.</text>
  <text stroke="#000000" transform="matrix(0.8900343775749207,0,0,0.8900343775749207,64.57559355627745,24.420959242619574) " id="svg_33" fill="#ff7f00" stroke-width="0" stroke-dasharray="null" stroke-linejoin="null" stroke-linecap="null" x="627.43331" y="244.21658" font-size="24" font-family="serif" text-anchor="middle" xml:space="preserve">Part 6.</text>
  <text font-weight="normal" id="svg_37" transform="matrix(0.8353942807611581,0,0,1.0900662650092148,190.1380598360462,134.86919573220027) " stroke="#000000" xml:space="preserve" text-anchor="middle" font-family="serif" font-size="24" y="-40.57915" x="327.65128" stroke-linecap="null" stroke-linejoin="null" stroke-dasharray="null" stroke-width="0" fill="#3f007f">Energy and</text>
  <text id="svg_46" font-weight="normal" transform="matrix(0.8353942807611581,0,0,1.0900662650092148,190.1380598360462,134.86919573220027) " stroke="#000000" xml:space="preserve" text-anchor="middle" font-family="serif" font-size="24" y="-17.64476" x="326.45426" stroke-linecap="null" stroke-linejoin="null" stroke-dasharray="null" stroke-width="0" fill="#3f007f">Environment issue</text>
  <text font-weight="normal" id="svg_47" transform="matrix(0.9710191750884842,0,0,1.090873616356411,131.17445319905886,-168.14192986971364) " stroke="#000000" xml:space="preserve" text-anchor="middle" font-family="serif" font-size="24" y="433.74912" x="168.67917" stroke-linecap="null" stroke-linejoin="null" stroke-dasharray="null" stroke-width="0" fill="#3f007f">Li lon Battery</text>
  <text id="svg_55" font-weight="normal" transform="matrix(0.8790695144109585,0,0,1.1362558516927594,0.5121233608877631,-267.1541273922024) " stroke="#000000" xml:space="preserve" text-anchor="middle" font-family="serif" font-size="24" y="320.45413" x="712.6785" stroke-linecap="null" stroke-linejoin="null" stroke-dasharray="null" stroke-width="0" fill="#3f007f">Fuel</text>
 </g>
</svg>