<svg width="905" height="640.0000000000001" xmlns="http://www.w3.org/2000/svg" xmlns:svg="http://www.w3.org/2000/svg" xmlns:xlink="http://www.w3.org/1999/xlink">
 <!-- Created with SVG-edit - http://svg-edit.googlecode.com/ -->
 <title>The Process of Making Breakthroughs in Engineering</title>
 <defs>
  <marker id="se_marker_mid_svg_36" markerUnits="strokeWidth" orient="auto" viewBox="0 0 100 100" markerWidth="5" markerHeight="5" refX="50" refY="50">
   <path stroke="#000000" id="svg_1" d="m100,50l-100,40l30,-40l-30,-40l100,40z" fill="#000000" stroke-width="10"/>
  </marker>
  <marker id="se_marker_mid_svg_37" markerUnits="strokeWidth" orient="auto" viewBox="0 0 100 100" markerWidth="5" markerHeight="5" refX="50" refY="50">
   <path stroke="#000000" id="svg_2" d="m100,50l-100,40l30,-40l-30,-40l100,40z" fill="#000000" stroke-width="10"/>
  </marker>
  <marker id="se_marker_mid_svg_38" markerUnits="strokeWidth" orient="auto" viewBox="0 0 100 100" markerWidth="5" markerHeight="5" refX="50" refY="50">
   <path stroke="#000000" id="svg_3" d="m100,50l-100,40l30,-40l-30,-40l100,40z" fill="#000000" stroke-width="10"/>
  </marker>
  <marker id="se_marker_mid_svg_41" markerUnits="strokeWidth" orient="auto" viewBox="0 0 100 100" markerWidth="5" markerHeight="5" refX="50" refY="50">
   <path stroke="#000000" id="svg_4" d="m100,50l-100,40l30,-40l-30,-40l100,40z" fill="#000000" stroke-width="10"/>
  </marker>
  <marker id="se_marker_mid_svg_44" markerUnits="strokeWidth" orient="auto" viewBox="0 0 100 100" markerWidth="5" markerHeight="5" refX="50" refY="50">
   <path stroke="#000000" id="svg_6" d="m100,50l-100,40l30,-40l-30,-40l100,40z" fill="#000000" stroke-width="10"/>
  </marker>
 </defs>
 <g display="inline">
  <title>圖遮罩</title>
  <image xlink:href="https://farm5.staticflickr.com/4356/36536468010_365c1a858b_b.jpg" opacity="0.8" id="svg_46" height="156.24999" width="163.74999" y="56.75001" x="384.5"/>
  <image xlink:href="https://farm5.staticflickr.com/4377/36098601454_5fa3487bd9_b.jpg" opacity="0.6" id="svg_47" height="133.75001" width="153.75" y="69.49999" x="553.75"/>
  <image xlink:href="https://farm5.staticflickr.com/4393/36761827132_e8da1258dd_b.jpg" opacity="0.8" id="svg_48" height="133.75" width="156.25001" y="294" x="222.25"/>
  <image xlink:href="https://farm5.staticflickr.com/4345/36536413020_6700f239f5_b.jpg" opacity="0.8" id="svg_51" height="147.50001" width="155" y="286.74999" x="387.75"/>
  <image xlink:href="https://farm5.staticflickr.com/4370/36792972861_1e478be348_b.jpg" opacity="0.6" id="svg_52" height="159.99999" width="160" y="280.25001" x="545.75"/>
  <image xlink:href="https://farm5.staticflickr.com/4352/36124349633_a30a7efa8c_b.jpg" opacity="0.6" id="svg_53" height="136.24999" width="157.5" y="502.50001" x="222.75"/>
  <image xlink:href="https://farm5.staticflickr.com/4415/36098521594_35f01c1a1a_h.jpg" opacity="0.8" id="svg_54" height="105" width="156.25" y="515.5" x="388.00001"/>
  <image xlink:href="https://farm5.staticflickr.com/4421/36098485724_84965b33b4_b.jpg" opacity="0.8" id="svg_56" height="117.5" width="158.74998" y="509.5" x="550.75002"/>
 </g>
 <g display="inline" stroke="null">
  <title>文字</title>
  <image xlink:href="https://farm5.staticflickr.com/4419/36784211410_5986c3002b.jpg" id="svg_49" height="268.30602" width="209.00001" y="202.23334" x="8.88333"/>
  <image xlink:href="https://farm5.staticflickr.com/4416/37039795971_f09c74a412.jpg" id="svg_50" height="241.53796" width="222.14761" y="68.31111" x="691.68888"/>
  <image xlink:href="https://farm5.staticflickr.com/4508/37406342802_33ce6e17fb_b.jpg" id="svg_80" height="112.77546" width="191.39816" y="511.39352" x="711.4838"/>
 </g>
 <g stroke="null" display="inline">
  <title>色塊</title>
  <rect opacity="0.3" height="190" width="160" y="13.60186" x="384.80557" stroke-width="0" fill="#ffaaaa" id="svg_5" stroke="#000000"/>
  <rect opacity="0.3" height="191.25001" width="160" y="12.35186" x="220.00001" stroke-width="0" fill="#ffaaaa" id="svg_10" stroke="#000000"/>
  <rect opacity="0.3" height="190" width="160" y="13.60186" x="549.61112" stroke-width="0" fill="#ffaaaa" id="svg_11" stroke="#000000"/>
  <rect opacity="0.3" height="206.25001" width="160" y="213.40742" x="383.55556" stroke-width="0" fill="#ffaaaa" id="svg_12" stroke="#000000"/>
  <rect opacity="0.3" height="206.25001" width="160" y="213.40742" x="220.00001" stroke-width="0" fill="#ffaaaa" id="svg_13" stroke="#000000"/>
  <rect opacity="0.3" height="205" width="160" y="213.40742" x="547.11112" stroke-width="0" fill="#ffaaaa" id="svg_14" stroke="#000000"/>
  <rect opacity="0.3" height="195" width="160" y="430.71296" x="383.55556" stroke-width="0" fill="#ffaaaa" id="svg_15" stroke="#000000"/>
  <rect opacity="0.3" height="196.25" width="160" y="430.71296" x="220" stroke-width="0" fill="#ffaaaa" id="svg_16" stroke="#000000"/>
  <rect opacity="0.3" height="195" width="160" y="430.71296" x="547.11112" stroke-width="0" fill="#ffaaaa" id="svg_17" stroke="#000000"/>
  <rect id="svg_8" opacity="0.3" height="613.11109" width="199.11107" y="13.85187" x="16.94447" stroke-width="0" fill="#ffaaaa" stroke="#000000"/>
  <rect id="svg_9" opacity="0.3" height="612.61112" width="177.77774" y="14.35184" x="712.05555" stroke-width="0" fill="#ffaaaa" stroke="#000000"/>
  <rect stroke="#ffffff" id="svg_19" height="164.49999" width="160" y="465.15741" x="38.66667" stroke-width="5" fill="none"/>
  <rect opacity="0.7" id="svg_21" height="30" width="110.75" y="169.6" x="21.025" stroke-linecap="null" stroke-linejoin="null" stroke-dasharray="null" stroke-width="5" fill="#aaffff"/>
  <rect id="svg_22" opacity="0.7" height="33.66667" width="148" y="28.1" x="740.7789" stroke-linecap="null" stroke-linejoin="null" stroke-dasharray="null" stroke-width="5" fill="#aaffff"/>
  <rect id="svg_24" opacity="0.8" height="35" width="132" y="478.43334" x="16.78281" stroke-linecap="null" stroke-linejoin="null" stroke-dasharray="null" stroke-width="5" fill="#aaffff"/>
  <rect id="svg_29" opacity="0.7" height="34.625" width="108.08594" y="475.35" x="781.75935" stroke-linecap="null" stroke-linejoin="null" stroke-dasharray="null" stroke-width="5" fill="#aaffff"/>
 </g>
 <g stroke="null" display="inline">
  <title>圖片</title>
  <image xlink:href="https://farm5.staticflickr.com/4411/36098620304_f598966d76.jpg" opacity="0.9" id="svg_32" height="92.01019" width="74.26086" y="75.42315" x="24.50165"/>
  <image xlink:href="https://farm5.staticflickr.com/4342/36098627714_03f52f1f85_b.jpg" id="svg_23" height="108" width="150" y="514" x="44"/>
  <image opacity="0.8" xlink:href="https://farm5.staticflickr.com/4371/36932638645_5b229c94d4_b.jpg" height="142.49999" width="155" y="65.62501" x="221.875" id="svg_33"/>
  <image x="680" y="338.75003" width="245.24999" height="105.74998" id="svg_55" xlink:href="https://farm5.staticflickr.com/4157/33780911763_d7f4227816_b.jpg"/>
 </g>
 <g stroke="null" display="inline">
  <title>標題</title>
  <text stroke="#000000" fill="#3f3f3f" stroke-width="0" stroke-dasharray="null" stroke-linejoin="null" stroke-linecap="null" x="224.5606" y="28.10794" id="svg_45" font-size="24" font-family="serif" text-anchor="middle" xml:space="preserve" font-weight="bold" transform="matrix(0.6881220636445602,0,0,1.0976609695652377,-38.95602747577731,9.573336092911545) ">The Process of Making</text>
  <text font-weight="bold" fill="#00007f" stroke-width="0" stroke-dasharray="null" stroke-linejoin="null" stroke-linecap="null" x="622.45" y="468.5375" id="svg_35" font-size="24" font-family="serif" text-anchor="middle" xml:space="preserve" transform="matrix(0.778864562511444,0,0,0.8518518805503845,109.51971678528935,63.20831963606179) " stroke="#000000">Part 9-</text>
  <path stroke="#000000" fill="#3f3f3f" stroke-width="0" stroke-dasharray="null" stroke-linejoin="null" stroke-linecap="null" d="m239.52154,595.43172c-8.26903,0 -14.97223,6.47597 -14.97223,14.46469c0,7.98872 6.7032,14.46469 14.97223,14.46469c8.26903,0 14.97222,-6.47597 14.97222,-14.46469c0,-7.98872 -6.70319,-14.46469 -14.97222,-14.46469zm-2.40541,24.14332l-3.64261,-3.52213l6.37355,-6.15749l-6.37355,-6.1575l3.64261,-3.51914l10.0172,9.67664l-10.0172,9.67962z" marker-mid="url(#se_marker_mid_svg_38)" id="svg_38"/>
  <text xml:space="preserve" text-anchor="middle" font-family="serif" font-size="24" id="svg_25" y="189.89524" x="68.08408" opacity="0.8" stroke-linecap="null" stroke-linejoin="null" stroke-dasharray="null" stroke-width="0" fill="#3f3f3f" transform="matrix(0.9254148602485657,0,0,0.8930041544721945,1.848312994465232,24.267611793192543) ">Abstract</text>
  <text transform="matrix(0.7502003680850773,0,0,0.9265971944980945,139.8481485289982,-122.33870218112872) " xml:space="preserve" text-anchor="middle" font-family="serif" font-size="24" id="svg_27" y="187.50524" x="897.931" opacity="0.8" stroke-linecap="null" stroke-linejoin="null" stroke-dasharray="null" stroke-width="0" fill="#3f3f3f">Speaker’s Biography</text>
  <text transform="translate(889.87255859375,504.8636779785156) scale(1) translate(-889.87255859375,-504.8636779785156) translate(889.914306640625,505.77667236328125) scale(1.0139044523239136,1.3043327331542969) translate(-889.914306640625,-505.77667236328125) translate(888.4232177734375,504.6651611328125) scale(1) translate(-888.4232177734375,-504.6651611328125) translate(888.3218994140625,504.255126953125) scale(0.9399330019950867,0.7570223808288574) translate(-888.3218994140625,-504.255126953125) translate(888.0772705078125,504.109619140625) scale(0.8550723195075989,0.9137715697288513) translate(-888.0772705078125,-504.109619140625) matrix(1.0937924253894378,0,0,1.0937924253894378,71.03591400341189,-39.500754610857044) " xml:space="preserve" text-anchor="middle" font-family="serif" font-size="24" id="svg_28" y="492.3459" x="667.14906" opacity="0.8" stroke-linecap="null" stroke-linejoin="null" stroke-dasharray="null" stroke-width="0" fill="#3f3f3f">Further Reading</text>
  <text xml:space="preserve" text-anchor="middle" font-family="serif" font-size="24" id="svg_30" y="503" x="81.83203" opacity="0.8" stroke-linecap="null" stroke-linejoin="null" stroke-dasharray="null" stroke-width="0" fill="#3f3f3f">Welcoming</text>
  <text stroke="#000000" transform="matrix(0.4724437903191392,0,0,1.1059333686898813,144.4976255216913,-4.049511989114043) " xml:space="preserve" text-anchor="middle" font-family="serif" font-size="24" id="svg_31" y="122.68657" x="32.8795" opacity="0.8" stroke-linecap="null" stroke-linejoin="null" stroke-dasharray="null" stroke-width="0" fill="#3f3f3f">Prof. Thomas Kailath</text>
  <text font-weight="bold" id="svg_61" fill="#00007f" stroke-width="0" stroke-dasharray="null" stroke-linejoin="null" stroke-linecap="null" x="263.80938" y="173.225" font-size="24" font-family="serif" text-anchor="middle" xml:space="preserve" transform="matrix(0.7753725359406969,0,0,0.7931034942544136,51.13277742567304,-95.84268086523514) " stroke="#000000">Part 1-</text>
  <text font-weight="bold" id="svg_62" fill="#00007f" stroke-width="0" stroke-dasharray="null" stroke-linejoin="null" stroke-linecap="null" x="434.24465" y="2.58335" font-size="24" font-family="serif" text-anchor="middle" xml:space="preserve" transform="matrix(0.8190844562856946,0,0,0.7483932537042354,71.26610823908217,41.8766801757662) " stroke="#000000">Part 2-</text>
  <text font-weight="bold" transform="matrix(0.6107182922544273,0,0,0.7085555229414476,143.75324875247202,12.393933997022831) " stroke="#aa56ff" xml:space="preserve" text-anchor="middle" font-family="serif" font-size="24" id="svg_69" y="64.74085" x="248.79109" stroke-linecap="null" stroke-linejoin="null" stroke-dasharray="null" stroke-width="0" fill="#00007f">Two Categories</text>
  <text font-weight="bold" transform="matrix(0.610434001133346,0,0,0.7171593838854347,276.1297457577789,77.02131693635489) " stroke="#000000" xml:space="preserve" text-anchor="middle" font-family="serif" font-size="24" id="svg_75" y="271.29013" x="579.7049" stroke-linecap="null" stroke-linejoin="null" stroke-dasharray="null" stroke-width="0" fill="#00007f">Optical Lithography (I)</text>
  <text font-weight="bold" stroke="#000000" transform="matrix(0.81184141648329,0,0,0.7831158325084074,75.77032832431763,110.53346010939423) " xml:space="preserve" text-anchor="middle" font-family="serif" font-size="24" id="svg_78" y="486.35859" x="480.28517" stroke-linecap="null" stroke-linejoin="null" stroke-dasharray="null" stroke-width="0" fill="#00007f">Guidelines</text>
  <text font-weight="bold" id="svg_88" transform="matrix(0.7555187959128081,0,0,0.8486099298095902,230.87350250580795,41.48627103579946) " stroke="#000000" xml:space="preserve" text-anchor="middle" font-family="serif" font-size="24" y="34.70116" x="309.39203" stroke-linecap="null" stroke-linejoin="null" stroke-dasharray="null" stroke-width="0" fill="#00007f">GPS</text>
  <text font-weight="bold" id="svg_89" transform="matrix(0.7263407428682515,0,0,0.8458061558234042,185.07582978768883,82.96092251447342) " stroke="#000000" xml:space="preserve" text-anchor="middle" font-family="serif" font-size="24" y="-14.94783" x="612.99126" stroke-linecap="null" stroke-linejoin="null" stroke-dasharray="null" stroke-width="0" fill="#00007f">VLSI</text>
  <text font-weight="bold" stroke="#000000" transform="matrix(0.7733319343741407,0,0,0.6794757598419565,48.64682741027985,40.844404153030595) " xml:space="preserve" text-anchor="middle" font-family="serif" font-size="24" id="svg_26" y="50.04522" x="324.70196" stroke-linecap="null" stroke-linejoin="null" stroke-dasharray="null" stroke-width="0" fill="#00007f">of Breakthroughs</text>
  <text id="svg_58" font-weight="bold" fill="#00007f" stroke-width="0" stroke-dasharray="null" stroke-linejoin="null" stroke-linecap="null" x="597.54454" y="176.68512" font-size="24" font-family="serif" text-anchor="middle" xml:space="preserve" transform="matrix(0.7474867918824373,0,0,0.8126261759376378,142.54216630444313,-96.00239304417529) " stroke="#000000">Part 3-</text>
  <text id="svg_59" font-weight="bold" fill="#00007f" stroke-width="0" stroke-dasharray="null" stroke-linejoin="null" stroke-linecap="null" x="602.59586" y="228.76368" font-size="24" font-family="serif" text-anchor="middle" xml:space="preserve" transform="matrix(0.7983912708373124,0,0,0.8289854845515003,111.4667592028877,55.31766799229654) " stroke="#000000">Part 6-</text>
  <text id="svg_60" font-weight="bold" fill="#00007f" stroke-width="0" stroke-dasharray="null" stroke-linejoin="null" stroke-linecap="null" x="432.2" y="324.48636" font-size="24" font-family="serif" text-anchor="middle" xml:space="preserve" transform="matrix(0.8125033026524305,0,0,0.814814805984497,77.28519351696971,-21.302080295979977) " stroke="#000000">Part 5-</text>
  <text id="svg_63" font-weight="bold" fill="#00007f" stroke-width="0" stroke-dasharray="null" stroke-linejoin="null" stroke-linecap="null" x="423.43124" y="490.78143" font-size="24" font-family="serif" text-anchor="middle" xml:space="preserve" transform="matrix(0.7863675248794593,0,0,0.8439153208934441,93.35142326245818,47.27787151986913) " stroke="#000000">Part 8-</text>
  <text id="svg_64" font-weight="bold" fill="#00007f" stroke-width="0" stroke-dasharray="null" stroke-linejoin="null" stroke-linecap="null" x="261.89134" y="453.60544" font-size="24" font-family="serif" text-anchor="middle" xml:space="preserve" transform="matrix(0.8703403472900391,0,0,0.8518518805503845,30.13979145884514,74.36572633497417) " stroke="#000000">Part 7-</text>
  <text id="svg_65" font-weight="bold" fill="#00007f" stroke-width="0" stroke-dasharray="null" stroke-linejoin="null" stroke-linecap="null" x="266.2" y="325.02045" font-size="24" font-family="serif" text-anchor="middle" xml:space="preserve" transform="matrix(0.9259088039398193,0,0,0.814814805984497,17.222730059176683,-23.987265489995465) " stroke="#000000">Part 4-</text>
  <text id="svg_72" font-weight="bold" transform="matrix(0.7383335217013864,0,0,0.8472498404537258,231.69243744435002,135.6592409811234) " stroke="#000000" xml:space="preserve" text-anchor="middle" font-family="serif" font-size="24" y="163.91242" x="317.0069" stroke-linecap="null" stroke-linejoin="null" stroke-dasharray="null" stroke-width="0" fill="#00007f">RIP (II)</text>
  <text id="svg_73" font-weight="bold" transform="matrix(0.806758494861341,0,0,0.8765675727483524,187.0126984779569,37.754007909473586) " stroke="#000000" xml:space="preserve" text-anchor="middle" font-family="serif" font-size="24" y="270.55702" x="139.27628" stroke-linecap="null" stroke-linejoin="null" stroke-dasharray="null" stroke-width="0" fill="#00007f">RIP (I)</text>
  <text id="svg_76" font-weight="bold" transform="matrix(0.5372815726878819,0,0,0.7615759383895543,248.31831970539275,114.46324325221819) " stroke="#000000" xml:space="preserve" text-anchor="middle" font-family="serif" font-size="24" y="493.74085" x="93.99042" stroke-linecap="null" stroke-linejoin="null" stroke-dasharray="null" stroke-width="0" fill="#00007f">Optical Lithography (II)</text>
  <a xlink:href="https://www.youtube.com/watch?v=58n2ONrcCRw" id="svg_91">
   <path id="svg_90" d="m750.8951,599.63399c0,0.28723 -0.2327,0.51993 -0.51993,0.51993l-3.32949,0c-0.28723,0 -0.51993,-0.2327 -0.51993,-0.51993l0,-7.07362c0,-0.2872 0.2327,-0.51993 0.51993,-0.51993l3.32949,0c0.28723,0 0.51993,0.23273 0.51993,0.51993l0,7.07362zm-12.3267,0c0,0.28723 -0.23275,0.51993 -0.51993,0.51993l-3.32954,0c-0.28718,0 -0.51993,-0.2327 -0.51993,-0.51993l0,-7.07362c0,-0.2872 0.23275,-0.51993 0.51993,-0.51993l3.32954,0c0.28718,0 0.51993,0.23273 0.51993,0.51993l0,7.07362zm4.02248,-19.18086c-6.02489,0 -10.9157,4.84658 -10.99081,10.85308l1.90743,0c0.06185,-4.96444 4.10424,-8.96999 9.08338,-8.96999c4.97914,0 9.02153,4.00555 9.08266,8.96999l1.90738,0c-0.07435,-6.0065 -4.96659,-10.85308 -10.99004,-10.85308l0,0zm-10.97534,16.35509l1.87282,0l0,-5.51307l-1.87282,0l0,5.51307zm20.04254,-5.51381l0,5.51309l1.94199,0l0,-5.51309l-1.94199,0z" stroke-linecap="null" stroke-linejoin="null" stroke-dasharray="null" stroke-width="0" stroke="#000000" fill="#7f003f"/>
  </a>
  <a xlink:href="https://www.youtube.com/watch?v=FuY3xNGKW_4&amp;index=2&amp;list=PLC6YZ5mMz0SykbZ0_SgfpOrR3LGq8pil1" id="svg_92">
   <path stroke="#000000" fill="#3f3f3f" stroke-width="0" stroke-dasharray="null" stroke-linejoin="null" stroke-linecap="null" d="m173.60488,481.34839c-8.26903,0 -14.97223,6.47597 -14.97223,14.46469c0,7.98872 6.7032,14.46469 14.97223,14.46469c8.26903,0 14.97222,-6.47597 14.97222,-14.46469c0,-7.98872 -6.70319,-14.46469 -14.97222,-14.46469zm-2.40541,24.14332l-3.64261,-3.52213l6.37355,-6.15749l-6.37355,-6.1575l3.64261,-3.51914l10.0172,9.67664l-10.0172,9.67962z" marker-mid="url(#se_marker_mid_svg_38)" id="svg_20"/>
  </a>
  <a xlink:href="https://www.youtube.com/watch?v=Biczc3DvWSU&amp;index=2&amp;list=PLC6YZ5mMz0SykbZ0_SgfpOrR3LGq8pil1" id="svg_93">
   <path stroke="#000000" fill="#3f3f3f" stroke-width="0" stroke-dasharray="null" stroke-linejoin="null" stroke-linecap="null" d="m238.27154,159.68171c-8.26903,0 -14.97223,6.47597 -14.97223,14.46469c0,7.98872 6.7032,14.46469 14.97223,14.46469c8.26903,0 14.97222,-6.47597 14.97222,-14.46469c0,-7.98872 -6.70319,-14.46469 -14.97222,-14.46469zm-2.40541,24.14332l-3.64261,-3.52213l6.37355,-6.15749l-6.37355,-6.1575l3.64261,-3.51914l10.0172,9.67664l-10.0172,9.67962z" marker-mid="url(#se_marker_mid_svg_44)" id="svg_44"/>
  </a>
  <a xlink:href="https://www.youtube.com/watch?v=6iW9Tqwxw5w&amp;index=3&amp;list=PLC6YZ5mMz0SykbZ0_SgfpOrR3LGq8pil1" id="svg_94">
   <path stroke="#000000" fill="#3f3f3f" stroke-width="0" stroke-dasharray="null" stroke-linejoin="null" stroke-linecap="null" d="m399.27154,160.93171c-8.26903,0 -14.97223,6.47597 -14.97223,14.46469c0,7.98872 6.7032,14.46469 14.97223,14.46469c8.26903,0 14.97222,-6.47597 14.97222,-14.46469c0,-7.98872 -6.70319,-14.46469 -14.97222,-14.46469zm-2.40541,24.14332l-3.64261,-3.52213l6.37355,-6.15749l-6.37355,-6.1575l3.64261,-3.51914l10.0172,9.67664l-10.0172,9.67962z" marker-mid="url(#se_marker_mid_svg_44)" id="svg_43"/>
  </a>
  <a xlink:href="https://www.youtube.com/watch?v=HZMItrUNdcM&amp;index=4&amp;list=PLC6YZ5mMz0SykbZ0_SgfpOrR3LGq8pil1" id="svg_95">
   <path stroke="#000000" fill="#3f3f3f" stroke-width="0" stroke-dasharray="null" stroke-linejoin="null" stroke-linecap="null" d="m569.02154,157.18172c-8.26903,0 -14.97223,6.47597 -14.97223,14.46469c0,7.98872 6.7032,14.46469 14.97223,14.46469c8.26903,0 14.97222,-6.47597 14.97222,-14.46469c0,-7.98872 -6.70319,-14.46469 -14.97222,-14.46469zm-2.40541,24.14331l-3.64261,-3.52212l6.37355,-6.1575l-6.37355,-6.15749l3.64261,-3.51914l10.0172,9.67663l-10.0172,9.67962z" marker-mid="url(#se_marker_mid_svg_44)" id="svg_42"/>
  </a>
  <a xlink:href="https://www.youtube.com/watch?v=jpVdO7bsm5M&amp;list=PLC6YZ5mMz0SykbZ0_SgfpOrR3LGq8pil1&amp;index=5" id="svg_96">
   <path stroke="#000000" fill="#3f3f3f" stroke-width="0" stroke-dasharray="null" stroke-linejoin="null" stroke-linecap="null" d="m239.52154,388.68171c-8.26903,0 -14.97223,6.47597 -14.97223,14.46469c0,7.98872 6.7032,14.46469 14.97223,14.46469c8.26903,0 14.97222,-6.47597 14.97222,-14.46469c0,-7.98872 -6.70319,-14.46469 -14.97222,-14.46469zm-2.40541,24.14332l-3.64261,-3.52213l6.37355,-6.15749l-6.37355,-6.1575l3.64261,-3.51914l10.0172,9.67664l-10.0172,9.67962z" marker-mid="url(#se_marker_mid_svg_41)" id="svg_41"/>
  </a>
  <a xlink:href="https://www.youtube.com/watch?v=kU1m6BQC78I&amp;list=PLC6YZ5mMz0SykbZ0_SgfpOrR3LGq8pil1&amp;index=6" id="svg_97">
   <path stroke="#000000" fill="#3f3f3f" stroke-width="0" stroke-dasharray="null" stroke-linejoin="null" stroke-linecap="null" d="m403.02154,388.68171c-8.26903,0 -14.97223,6.47597 -14.97223,14.46469c0,7.98872 6.7032,14.46469 14.97223,14.46469c8.26903,0 14.97222,-6.47597 14.97222,-14.46469c0,-7.98872 -6.70319,-14.46469 -14.97222,-14.46469zm-2.40541,24.14332l-3.64261,-3.52213l6.37355,-6.15749l-6.37355,-6.1575l3.64261,-3.51914l10.0172,9.67664l-10.0172,9.67962z" marker-mid="url(#se_marker_mid_svg_41)" id="svg_40"/>
  </a>
  <a xlink:href="https://www.youtube.com/watch?v=Slr0Uck_fac&amp;index=7&amp;list=PLC6YZ5mMz0SykbZ0_SgfpOrR3LGq8pil1" id="svg_98">
   <path stroke="#000000" fill="#3f3f3f" stroke-width="0" stroke-dasharray="null" stroke-linejoin="null" stroke-linecap="null" d="m565.27154,388.68172c-8.26903,0 -14.97223,6.47597 -14.97223,14.46469c0,7.98872 6.7032,14.46469 14.97223,14.46469c8.26903,0 14.97222,-6.47597 14.97222,-14.46469c0,-7.98872 -6.70319,-14.46469 -14.97222,-14.46469zm-2.40541,24.14331l-3.64261,-3.52212l6.37355,-6.1575l-6.37355,-6.15749l3.64261,-3.51914l10.0172,9.67663l-10.0172,9.67962z" marker-mid="url(#se_marker_mid_svg_41)" id="svg_39"/>
  </a>
  <a xlink:href="https://www.youtube.com/watch?v=AqSNqEculXk&amp;list=PLC6YZ5mMz0SykbZ0_SgfpOrR3LGq8pil1&amp;index=8" id="svg_99">
   <path stroke="#000000" fill="#3f3f3f" stroke-width="0" stroke-dasharray="null" stroke-linejoin="null" stroke-linecap="null" d="m399.27154,594.18172c-8.26903,0 -14.97223,6.47597 -14.97223,14.46469c0,7.98872 6.7032,14.46469 14.97223,14.46469c8.26903,0 14.97222,-6.47597 14.97222,-14.46469c0,-7.98872 -6.70319,-14.46469 -14.97222,-14.46469zm-2.40541,24.14332l-3.64261,-3.52213l6.37355,-6.15749l-6.37355,-6.1575l3.64261,-3.51914l10.0172,9.67664l-10.0172,9.67962z" marker-mid="url(#se_marker_mid_svg_37)" id="svg_37"/>
  </a>
  <a xlink:href="https://www.youtube.com/watch?v=zv6jJ85jnF8&amp;list=PLC6YZ5mMz0SykbZ0_SgfpOrR3LGq8pil1&amp;index=9" id="svg_100">
   <path stroke="#000000" fill="#3f3f3f" stroke-width="0" stroke-dasharray="null" stroke-linejoin="null" stroke-linecap="null" d="m566.52154,589.18173c-8.26903,0 -14.97222,6.47597 -14.97222,14.46469c0,7.98872 6.7032,14.46469 14.97222,14.46469c8.26903,0 14.97222,-6.47597 14.97222,-14.46469c0,-7.98872 -6.7032,-14.46469 -14.97222,-14.46469zm-2.4054,24.14331l-3.64262,-3.52212l6.37355,-6.1575l-6.37355,-6.1575l3.64262,-3.51914l10.01719,9.67663l-10.01719,9.67962l0,0.00001z" id="svg_36" marker-mid="url(#se_marker_mid_svg_36)"/>
  </a>
  <text stroke="#000000" fill="#3f3f3f" stroke-width="0" stroke-dasharray="null" stroke-linejoin="null" stroke-linecap="null" x="194.65138" y="30.38231" font-size="24" font-family="serif" text-anchor="middle" xml:space="preserve" font-weight="bold" transform="matrix(0.5978782549276588,0,0,1.0935833301247302,1.129277406092291,28.60011332416033) " id="svg_7">Breakthroughs in Engineering</text>
  <text stroke="#000000" transform="matrix(0.5336620527905191,0,0,1.0135198736518842,436.7437764540416,140.81840814603032) " xml:space="preserve" text-anchor="middle" font-family="serif" font-size="24" y="14.07788" x="-516.23647" opacity="0.8" stroke-linecap="null" stroke-linejoin="null" stroke-dasharray="null" stroke-width="0" fill="#3f3f3f" id="svg_18">28 September 2016</text>
  <text font-weight="bold" fill="#00007f" stroke-width="0" stroke-dasharray="null" stroke-linejoin="null" stroke-linecap="null" x="671.46967" y="494.06875" font-size="24" font-family="serif" text-anchor="middle" xml:space="preserve" transform="matrix(0.6578139387245868,0,0,0.7341822213690782,184.54966864770833,121.51339381083734) " stroke="#000000" id="svg_34">Q&amp;A</text>
 </g>
</svg>