<svg width="905" height="640.0000000000002" xmlns="http://www.w3.org/2000/svg" xmlns:svg="http://www.w3.org/2000/svg" xmlns:xlink="http://www.w3.org/1999/xlink">
 <!-- Created with SVG-edit - http://svg-edit.googlecode.com/ -->
 <title>To Cultivate Chinese Legal Talents with International Outlook by Drawing on the Experience of Hong Kong System</title>
 <defs>
  <marker id="se_marker_mid_svg_37" markerUnits="strokeWidth" orient="auto" viewBox="0 0 100 100" markerWidth="5" markerHeight="5" refX="50" refY="50">
   <path stroke="#000000" id="svg_2" d="m100,50l-100,40l30,-40l-30,-40l100,40z" fill="#000000" stroke-width="10"/>
  </marker>
  <marker id="se_marker_mid_svg_38" markerUnits="strokeWidth" orient="auto" viewBox="0 0 100 100" markerWidth="5" markerHeight="5" refX="50" refY="50">
   <path stroke="#000000" id="svg_3" d="m100,50l-100,40l30,-40l-30,-40l100,40z" fill="#000000" stroke-width="10"/>
  </marker>
  <marker id="se_marker_mid_svg_41" markerUnits="strokeWidth" orient="auto" viewBox="0 0 100 100" markerWidth="5" markerHeight="5" refX="50" refY="50">
   <path stroke="#000000" id="svg_4" d="m100,50l-100,40l30,-40l-30,-40l100,40z" fill="#000000" stroke-width="10"/>
  </marker>
  <marker id="se_marker_mid_svg_44" markerUnits="strokeWidth" orient="auto" viewBox="0 0 100 100" markerWidth="5" markerHeight="5" refX="50" refY="50">
   <path stroke="#000000" id="svg_6" d="m100,50l-100,40l30,-40l-30,-40l100,40z" fill="#000000" stroke-width="10"/>
  </marker>
  <pattern height="100" width="100" y="0" x="0" patternUnits="userSpaceOnUse" id="gridpattern">
   <image height="100" width="100" y="0" x="0" id="svg_7"/>
  </pattern>
 </defs>
 <g display="inline" stroke="null">
  <title>文字</title>
  <image x="9.5" y="197.75" width="216.35159" height="283.12336" id="svg_48" xlink:href="https://farm5.staticflickr.com/4369/37404458162_9357f735fd_k.jpg"/>
  <image x="711.87594" y="76.41208" width="186.07407" height="305.35233" id="svg_51" xlink:href="https://farm5.staticflickr.com/4430/37435925791_e43075fbcd_k.jpg"/>
  <image x="706.27777" y="423.22223" width="196.55555" height="201.07182" id="svg_95" xlink:href="https://farm5.staticflickr.com/4364/37405598992_6cd5628ba2_b.jpg"/>
 </g>
 <g stroke="null" display="inline">
  <title>色塊</title>
  <rect opacity="0.3" height="200.99998" width="160" y="15.85186" x="383.55557" stroke-width="0" fill="#aaffaa" id="svg_5" stroke="#000000"/>
  <rect opacity="0.3" height="201" width="160" y="16.85187" x="219.00001" stroke-width="0" fill="#aaffaa" id="svg_10" stroke="#000000"/>
  <rect opacity="0.3" height="200.99998" width="160" y="15.85188" x="547.11112" stroke-width="0" fill="#aaffaa" id="svg_11" stroke="#000000"/>
  <rect opacity="0.3" height="200.99998" width="160" y="219.40743" x="383.55556" stroke-width="0" fill="#aaffaa" id="svg_12" stroke="#000000"/>
  <rect opacity="0.3" height="201.00001" width="160" y="220.40742" x="219.00001" stroke-width="0" fill="#aaffaa" id="svg_13" stroke="#000000"/>
  <rect opacity="0.3" height="200.99998" width="160" y="219.40744" x="547.11112" stroke-width="0" fill="#aaffaa" id="svg_14" stroke="#000000"/>
  <rect opacity="0.3" height="204" width="322.56252" y="422.96296" x="383.55555" stroke-width="0" fill="#aaffaa" id="svg_15" stroke="#000000"/>
  <rect opacity="0.3" height="203.99999" width="160" y="423.96297" x="219" stroke-width="0" fill="#aaffaa" id="svg_16" stroke="#000000"/>
  <rect id="svg_8" opacity="0.3" height="611.11114" width="203.61106" y="16.85182" x="13.13198" stroke-width="0" fill="#aaffaa" stroke="#000000"/>
  <rect stroke="#000000" id="svg_9" opacity="0.3" height="610.86107" width="177.77774" y="14.8519" x="712.05555" stroke-width="0" fill="#aaffaa"/>
  <rect stroke="#ffffff" id="svg_19" height="143.5" width="171" y="492.15741" x="29.66667" stroke-width="5" fill="none"/>
  <rect id="svg_21" height="32.25712" width="132" y="163.74583" x="16.84792" stroke-linecap="null" stroke-linejoin="null" stroke-dasharray="null" stroke-width="5" fill="#ffaad4" opacity="0.6"/>
  <rect id="svg_22" height="46.60417" width="148" y="18.18333" x="742.0289" stroke-linecap="null" stroke-linejoin="null" stroke-dasharray="null" stroke-width="5" fill="#ffaad4" opacity="0.6"/>
  <rect id="svg_24" height="35" width="132" y="494.85521" x="17.72552" stroke-linecap="null" stroke-linejoin="null" stroke-dasharray="null" stroke-width="5" fill="#ffaad4" opacity="0.6"/>
  <rect id="svg_29" height="34.625" width="144.08594" y="386.93334" x="745.75935" stroke-linecap="null" stroke-linejoin="null" stroke-dasharray="null" stroke-width="5" fill="#ffaad4" opacity="0.6"/>
 </g>
 <g stroke="null" display="inline">
  <title>圖片</title>
  <image xlink:href="https://farm5.staticflickr.com/4289/34749742230_553c2efa62_b.jpg" id="svg_92" height="86" width="141.33333" y="530.66665" x="32.66667"/>
  <image stroke="null" x="15.66667" y="63.33334" width="66.33334" height="75.52099" id="svg_45" xlink:href="https://farm5.staticflickr.com/4403/36725556664_f302f2f4ab_z.jpg"/>
  <image x="270.25004" y="133.25002" width="1" height="682" id="svg_54" xlink:href="https://farm5.staticflickr.com/4172/34565812432_2c9bcc43d2_b.jpg"/>
  <image x="219.95316" y="110.42161" width="157.63135" height="104.98494" id="svg_56" xlink:href="https://farm5.staticflickr.com/4172/34565812432_2c9bcc43d2_b.jpg"/>
  <image x="386.3593" y="110.41408" width="157" height="105" id="svg_74" xlink:href="https://farm5.staticflickr.com/4194/34596546161_c58f71e37e_b.jpg"/>
  <image x="548.39583" y="111.41667" width="157" height="105" id="svg_79" xlink:href="https://farm5.staticflickr.com/4192/34565811722_269f6cd7e8_b.jpg"/>
  <image x="220" y="323" width="158.125" height="90.35714" id="svg_81" xlink:href="https://farm5.staticflickr.com/4452/36725549444_65aa43bf7a_h.jpg"/>
  <image x="383.82805" y="322.71878" width="158" height="90" id="svg_84" xlink:href="https://farm5.staticflickr.com/4382/37435022551_6dee5db9bb_h.jpg"/>
  <image x="546.67181" y="322.29691" width="158" height="90" id="svg_85" xlink:href="https://farm5.staticflickr.com/4508/37435011871_8f757ce371_h.jpg"/>
  <image x="218.87492" y="531.96879" width="158" height="90" id="svg_86" xlink:href="https://farm5.staticflickr.com/4371/37177742830_1501baa3ba_h.jpg"/>
  <image x="428.12492" y="483.87504" width="239" height="136.13924" id="svg_89" xlink:href="https://farm5.staticflickr.com/4159/33885380134_d0a085370b_b.jpg"/>
 </g>
 <g stroke="null" display="inline">
  <title>標題</title>
  <text xml:space="preserve" text-anchor="middle" font-family="serif" font-size="24" id="svg_25" y="39.66002" x="777.06184" opacity="0.8" stroke-linecap="null" stroke-linejoin="null" stroke-dasharray="null" stroke-width="0" fill="#007f7f" font-style="italic" transform="matrix(0.9353397761395539,0,0,1.0784846206374936,61.89591675886513,-6.869126517523288) " font-weight="bold">Speaker&#x27;s</text>
  <text font-style="italic" transform="matrix(0.8673995902415853,0,0,0.977002394595577,22.673593733757855,10.58180396983199) " xml:space="preserve" text-anchor="middle" font-family="serif" font-size="24" id="svg_27" y="181.99899" x="74.2538" opacity="0.8" stroke-linecap="null" stroke-linejoin="null" stroke-dasharray="null" stroke-width="0" fill="#007f7f" font-weight="bold">Abstract</text>
  <text font-style="italic" transform="translate(889.87255859375,504.8636779785156) scale(1) translate(-889.87255859375,-504.8636779785156) translate(889.914306640625,505.77667236328125) scale(1.0139044523239136,1.3043327331542969) translate(-889.914306640625,-505.77667236328125) translate(888.4232177734375,504.6651611328125) scale(1) translate(-888.4232177734375,-504.6651611328125) translate(888.3218994140625,504.255126953125) scale(0.9399330019950867,0.7570223808288574) translate(-888.3218994140625,-504.255126953125) translate(888.0772705078125,504.109619140625) scale(0.8550723195075989,0.9137715697288513) translate(-888.0772705078125,-504.109619140625) matrix(1.0937924253894378,0,0,1.0937924253894378,71.03591400341189,-39.500754610857044) " xml:space="preserve" text-anchor="middle" font-family="serif" font-size="24" id="svg_28" y="403.09265" x="663.78324" opacity="0.8" stroke-linecap="null" stroke-linejoin="null" stroke-dasharray="null" stroke-width="0" fill="#007f7f" font-weight="bold">Further Reading</text>
  <text xml:space="preserve" text-anchor="middle" font-family="serif" font-size="24" id="svg_30" y="519.60435" x="82.24956" opacity="0.8" stroke-linecap="null" stroke-linejoin="null" stroke-dasharray="null" stroke-width="0" fill="#007f7f" font-style="italic" transform="matrix(0.9729768037796019,0,0,0.8484848737716675,1.7300485353916883,77.4242295026779) " font-weight="bold">Welcoming</text>
  <text id="svg_61" stroke="#000000" fill="#ff5656" stroke-width="0" stroke-dasharray="null" stroke-linejoin="null" stroke-linecap="null" x="31.19506" y="-151.95142" font-size="24" font-family="serif" text-anchor="middle" xml:space="preserve" transform="matrix(0.8354361098178648,0,0,0.9359189034050608,266.7857805773004,199.82577292374455) ">Part 1-</text>
  <text id="svg_62" stroke="#000000" fill="#ff5656" stroke-width="0" stroke-dasharray="null" stroke-linejoin="null" stroke-linecap="null" x="271.19802" y="-136.48341" font-size="24" font-family="serif" text-anchor="middle" xml:space="preserve" transform="matrix(0.7874513771826369,0,0,0.8878174516007504,244.99727090808258,178.28492883196287) ">Part 2-</text>
  <text id="svg_63" stroke="#000000" fill="#ff5656" stroke-width="0" stroke-dasharray="null" stroke-linejoin="null" stroke-linecap="null" x="567.85008" y="-137.2837" font-size="24" font-family="serif" text-anchor="middle" xml:space="preserve" transform="matrix(0.7657506338531886,0,0,0.9019541652969401,184.2333422338295,183.51918439241823) ">Part 3-</text>
  <text id="svg_64" fill="#ff5656" stroke-width="0" stroke-dasharray="null" stroke-linejoin="null" stroke-linecap="null" x="305.78321" y="252.95973" font-size="24" font-family="serif" text-anchor="middle" xml:space="preserve" transform="translate(5,3.75) matrix(0.8073207520592092,0,0,0.8765960651163521,43.56614175684939,37.528322566785064) " stroke="#000000">Part 4-</text>
  <text id="svg_65" fill="#ff5656" stroke-width="0" stroke-dasharray="null" stroke-linejoin="null" stroke-linecap="null" x="471.97868" y="260.56461" font-size="24" font-family="serif" text-anchor="middle" xml:space="preserve" transform="matrix(0.8354443584450367,0,0,0.876807175585418,65.6374573275979,34.89555978885036) " stroke="#000000">Part 5-</text>
  <text id="svg_66" fill="#ff5656" stroke-width="0" stroke-dasharray="null" stroke-linejoin="null" stroke-linecap="null" x="627.4492" y="261.80867" font-size="24" font-family="serif" text-anchor="middle" xml:space="preserve" transform="matrix(0.8907838710428777,0,0,0.8359270904647786,62.115157163932594,46.48962482039224) " stroke="#000000">Part 6-</text>
  <text id="svg_67" fill="#ff5656" stroke-width="0" stroke-dasharray="null" stroke-linejoin="null" stroke-linecap="null" x="300.95942" y="461.01435" font-size="24" font-family="serif" text-anchor="middle" xml:space="preserve" transform="matrix(0.8781698468314403,0,0,0.8471923560421999,27.97177870551917,74.02483092005716) " stroke="#000000">Part 7-</text>
  <text id="svg_68" fill="#ff5656" stroke-width="0" stroke-dasharray="null" stroke-linejoin="null" stroke-linecap="null" x="487.83299" y="463.68425" font-size="24" font-family="serif" text-anchor="middle" xml:space="preserve" transform="matrix(0.7433530325969997,0,0,0.8706736598923044,101.19227680012196,63.61977371121894) " stroke="#000000">Part 8-</text>
  <text transform="matrix(0.6587164882223802,0,0,1.1523623613681135,225.85338279101606,183.15251269754242) " stroke="#000000" xml:space="preserve" text-anchor="middle" font-family="serif" font-size="24" id="svg_69" y="-85.15092" x="100.74325" stroke-linecap="null" stroke-linejoin="null" stroke-dasharray="null" stroke-width="0" fill="#3f7f00">A Big Brain</text>
  <text id="svg_77" stroke="#000000" transform="matrix(0.7425390132225135,0,0,0.8701621534028418,228.58453438135317,27.343073852307484) " xml:space="preserve" text-anchor="middle" font-family="serif" font-size="24" y="525.86894" x="87.05406" stroke-linecap="null" stroke-linejoin="null" stroke-dasharray="null" stroke-width="0" fill="#3f7f00">Genetically</text>
  <text stroke="#000000" transform="matrix(0.7498444477705523,0,0,0.9723746291716285,130.6321852398482,1.0670443501251734) " xml:space="preserve" text-anchor="middle" font-family="serif" font-size="24" id="svg_78" y="479.76278" x="520.49164" stroke-linecap="null" stroke-linejoin="null" stroke-dasharray="null" stroke-width="0" fill="#3f7f00">Q&amp;A</text>
  <text font-weight="normal" id="svg_80" transform="matrix(1,0,0,1,0,0) translate(5,-5) matrix(0.6667372881393762,0,0,0.9607074451139156,171.21391126310746,-112.40944021034159) " stroke="#000000" xml:space="preserve" text-anchor="middle" font-family="serif" font-size="24" y="417.03822" x="182.65513" stroke-linecap="null" stroke-linejoin="null" stroke-dasharray="null" stroke-width="0" fill="#3f7f00">Complex Network</text>
  <text id="svg_82" transform="matrix(0.741037485917783,0,0,1.0425749611008426,88.69028166473964,-235.1176431892371) " stroke="#000000" xml:space="preserve" text-anchor="middle" font-family="serif" font-size="24" y="306.6909" x="726.1691" stroke-linecap="null" stroke-linejoin="null" stroke-dasharray="null" stroke-width="0" fill="#3f7f00">Reorganization</text>
  <text id="svg_87" transform="matrix(0.6353489473228784,0,0,1.1852236168998984,256.4368190369196,177.57772815645387) " stroke="#000000" xml:space="preserve" text-anchor="middle" font-family="serif" font-size="24" y="-78.56584" x="326.01052" stroke-linecap="null" stroke-linejoin="null" stroke-dasharray="null" stroke-width="0" fill="#3f7f00">Genetically Controlled</text>
  <a xlink:href="https://youtu.be/0V4QNN4_S7E" id="svg_26">
   <path stroke="#000000" fill="#ffffff" stroke-width="0" stroke-dasharray="null" stroke-linejoin="null" stroke-linecap="null" d="m234.52154,181.93171c-8.26903,0 -14.97223,6.47597 -14.97223,14.46469c0,7.98872 6.7032,14.46469 14.97223,14.46469c8.26903,0 14.97222,-6.47597 14.97222,-14.46469c0,-7.98872 -6.70319,-14.46469 -14.97222,-14.46469zm-2.40541,24.14332l-3.64261,-3.52213l6.37355,-6.15749l-6.37355,-6.1575l3.64261,-3.51914l10.0172,9.67664l-10.0172,9.67962z" marker-mid="url(#se_marker_mid_svg_44)" id="svg_44"/>
  </a>
  <a xlink:href="https://youtu.be/kZDXbN7-dv4" id="svg_57">
   <path stroke="#000000" fill="#ffffff" stroke-width="0" stroke-dasharray="null" stroke-linejoin="null" stroke-linecap="null" d="m400.02154,181.93171c-8.26903,0 -14.97223,6.47597 -14.97223,14.46469c0,7.98872 6.7032,14.46469 14.97223,14.46469c8.26903,0 14.97222,-6.47597 14.97222,-14.46469c0,-7.98872 -6.70319,-14.46469 -14.97222,-14.46469zm-2.40541,24.14332l-3.64261,-3.52213l6.37355,-6.15749l-6.37355,-6.1575l3.64261,-3.51914l10.0172,9.67664l-10.0172,9.67962z" marker-mid="url(#se_marker_mid_svg_44)" id="svg_43"/>
  </a>
  <a xlink:href="https://youtu.be/0AnoaOVhm4U" id="svg_58">
   <path stroke="#000000" fill="#ffffff" stroke-width="0" stroke-dasharray="null" stroke-linejoin="null" stroke-linecap="null" d="m567.52154,181.93172c-8.26903,0 -14.97223,6.47597 -14.97223,14.46469c0,7.98872 6.7032,14.46469 14.97223,14.46469c8.26903,0 14.97222,-6.47597 14.97222,-14.46469c0,-7.98872 -6.70319,-14.46469 -14.97222,-14.46469zm-2.40541,24.14331l-3.64261,-3.52212l6.37355,-6.1575l-6.37355,-6.15749l3.64261,-3.51914l10.0172,9.67663l-10.0172,9.67962z" marker-mid="url(#se_marker_mid_svg_44)" id="svg_42"/>
  </a>
  <a xlink:href="https://youtu.be/tBiQY4XwIuw" id="svg_59">
   <path stroke="#000000" fill="#ffffff" stroke-width="0" stroke-dasharray="null" stroke-linejoin="null" stroke-linecap="null" d="m232.52154,387.93171c-8.26903,0 -14.97223,6.47597 -14.97223,14.46469c0,7.98872 6.7032,14.46469 14.97223,14.46469c8.26903,0 14.97222,-6.47597 14.97222,-14.46469c0,-7.98872 -6.70319,-14.46469 -14.97222,-14.46469zm-2.40541,24.14332l-3.64261,-3.52213l6.37355,-6.15749l-6.37355,-6.1575l3.64261,-3.51914l10.0172,9.67664l-10.0172,9.67962z" marker-mid="url(#se_marker_mid_svg_41)" id="svg_41"/>
  </a>
  <a xlink:href="https://youtu.be/qgFPF2V0ptU" id="svg_60">
   <path stroke="#000000" fill="#3f3f3f" stroke-width="0" stroke-dasharray="null" stroke-linejoin="null" stroke-linecap="null" d="m188.27155,586.01506c-8.26903,0 -14.97223,6.47597 -14.97223,14.46469c0,7.98872 6.7032,14.46469 14.97223,14.46469c8.26903,0 14.97222,-6.47597 14.97222,-14.46469c0,-7.98872 -6.70319,-14.46469 -14.97222,-14.46469zm-2.40541,24.14332l-3.64261,-3.52213l6.37355,-6.15749l-6.37355,-6.1575l3.64261,-3.51914l10.0172,9.67664l-10.0172,9.67962z" marker-mid="url(#se_marker_mid_svg_38)" id="svg_20"/>
  </a>
  <a xlink:href="https://youtu.be/u0TfiX8v180" id="svg_70">
   <path stroke="#000000" fill="#ffffff" stroke-width="0" stroke-dasharray="null" stroke-linejoin="null" stroke-linecap="null" d="m401.02154,385.68171c-8.26903,0 -14.97223,6.47597 -14.97223,14.46469c0,7.98872 6.7032,14.46469 14.97223,14.46469c8.26903,0 14.97222,-6.47597 14.97222,-14.46469c0,-7.98872 -6.70319,-14.46469 -14.97222,-14.46469zm-2.40541,24.14332c-1.2142,-1.17404 -2.42841,-2.34809 -3.64261,-3.52213l6.37355,-6.15749l-6.37355,-6.1575l3.64261,-3.51914l10.0172,9.67664l-10.0172,9.67962z" marker-mid="url(#se_marker_mid_svg_41)" id="svg_40"/>
  </a>
  <a xlink:href="https://youtu.be/rgLgNnEmKV0" id="svg_71">
   <path stroke="#000000" fill="#ffffff" stroke-width="0" stroke-dasharray="null" stroke-linejoin="null" stroke-linecap="null" d="m566.52154,388.59839c-8.26903,0 -14.97223,6.47597 -14.97223,14.46469c0,7.98872 6.7032,14.46469 14.97223,14.46469c8.26903,0 14.97222,-6.47597 14.97222,-14.46469c0,-7.98872 -6.70319,-14.46469 -14.97222,-14.46469zm-2.40541,24.14331l-3.64261,-3.52212l6.37355,-6.1575l-6.37355,-6.15749l3.64261,-3.51914l10.0172,9.67663l-10.0172,9.67962z" marker-mid="url(#se_marker_mid_svg_41)" id="svg_39"/>
  </a>
  <a xlink:href="https://youtu.be/bTfRfLr5Sf0" id="svg_72">
   <path stroke="#000000" fill="#ffffff" stroke-width="0" stroke-dasharray="null" stroke-linejoin="null" stroke-linecap="null" d="m232.52154,595.18172c-8.26903,0 -14.97223,6.47597 -14.97223,14.46469c0,7.98872 6.7032,14.46469 14.97223,14.46469c8.26903,0 14.97222,-6.47597 14.97222,-14.46469c0,-7.98872 -6.70319,-14.46469 -14.97222,-14.46469zm-2.40541,24.14332l-3.64261,-3.52213l6.37355,-6.15749l-6.37355,-6.1575l3.64261,-3.51914l10.0172,9.67664l-10.0172,9.67962z" marker-mid="url(#se_marker_mid_svg_38)" id="svg_38"/>
  </a>
  <a xlink:href="https://youtu.be/g0OrDkaE9yk" id="svg_73">
   <path stroke="#000000" fill="#ffffff" stroke-width="0" stroke-dasharray="null" stroke-linejoin="null" stroke-linecap="null" d="m560.13613,588.45255c-8.26903,0 -14.97223,6.47597 -14.97223,14.46469c0,7.98872 6.7032,14.46469 14.97223,14.46469c8.26903,0 14.97222,-6.47597 14.97222,-14.46469c0,-7.98872 -6.70319,-14.46469 -14.97222,-14.46469zm-2.40541,24.14332l-3.64261,-3.52213l6.37355,-6.15749l-6.37355,-6.1575l3.64261,-3.51914l10.0172,9.67664l-10.0172,9.67962z" marker-mid="url(#se_marker_mid_svg_37)" id="svg_37"/>
  </a>
  <text xml:space="preserve" text-anchor="middle" font-family="serif" font-size="24" id="svg_83" y="542.0428" x="772.10043" stroke-linecap="null" stroke-linejoin="null" stroke-dasharray="null" stroke-width="0" stroke="#000000" fill="#3f3f3f"/>
  <g id="svg_180"/>
  <text font-weight="normal" id="svg_34" transform="matrix(0.5887411655606776,0,0,1.0704819344267384,194.70415717971932,-160.63383782665287) " stroke="#000000" xml:space="preserve" text-anchor="middle" font-family="serif" font-size="24" y="416.63457" x="460.17161" stroke-linecap="null" stroke-linejoin="null" stroke-dasharray="null" stroke-width="0" fill="#3f7f00">Selection of Individuals</text>
  <text id="svg_46" transform="matrix(0.5874055063653393,0,0,1.0663934369217558,192.89740141646155,-141.9542530807688) " stroke="#000000" xml:space="preserve" text-anchor="middle" font-family="serif" font-size="24" y="408.16029" x="733.49833" stroke-linecap="null" stroke-linejoin="null" stroke-dasharray="null" stroke-width="0" fill="#3f7f00">Thomas Willis</text>
  <text opacity="0.8" transform="matrix(0.8782151457276998,0,0,1.0257566429071654,-23.450923716153167,-23.600688150201673) " font-style="italic" xml:space="preserve" text-anchor="middle" font-family="serif" font-size="24" id="svg_49" y="82.04855" x="985.8761" stroke-linecap="null" stroke-linejoin="null" stroke-dasharray="null" stroke-width="0" fill="#007f7f" font-weight="bold">Biography</text>
  <text stroke="#000000" transform="matrix(0.8852177311763468,0,0,0.8363201522770185,28.532506329888072,49.21695149780919) " fill="#3f7f00" stroke-width="0" stroke-dasharray="null" stroke-linejoin="null" stroke-linecap="null" x="304.08833" y="302.55316" id="svg_90" font-size="24" font-family="serif" text-anchor="middle" xml:space="preserve">in the Brain</text>
  <text fill="#3f7f00" stroke-width="0" stroke-dasharray="null" stroke-linejoin="null" stroke-linecap="null" x="447.49287" y="309.83236" id="svg_91" font-size="24" font-family="serif" text-anchor="middle" xml:space="preserve" transform="matrix(0.8148210048675536,0,0,0.9312656206436428,102.43296030908823,15.693075897504112) " stroke="#000000">with Larger Brains</text>
  <text stroke="#000000" transform="matrix(0.8496442437171936,0,0,0.7777777910232544,39.36266713310033,117.2777707874775) " fill="#3f7f00" stroke-width="0" stroke-dasharray="null" stroke-linejoin="null" stroke-linecap="null" x="299.40314" y="494.89286" id="svg_94" font-size="24" font-family="serif" text-anchor="middle" xml:space="preserve">Determined</text>
  <a id="svg_97" xlink:href="https://www.ted.com/talks/suzana_herculano_houzel_what_is_so_special_about_the_human_brain/transcript">
   <path fill="#007f7f" stroke-width="5" stroke-dasharray="null" stroke-linejoin="null" stroke-linecap="null" d="m739.89503,482.75489c0,0.36935 -0.29923,0.66858 -0.66858,0.66858l-4.28141,0c-0.36935,0 -0.66858,-0.29923 -0.66858,-0.66858l0,-9.096c0,-0.36932 0.29923,-0.66858 0.66858,-0.66858l4.28141,0c0.36935,0 0.66858,0.29926 0.66858,0.66858l0,9.096zm-15.85096,0c0,0.36935 -0.29929,0.66858 -0.66858,0.66858l-4.28147,0c-0.36929,0 -0.66858,-0.29923 -0.66858,-0.66858l0,-9.096c0,-0.36932 0.29929,-0.66858 0.66858,-0.66858l4.28147,0c0.36929,0 0.66858,0.29926 0.66858,0.66858l0,9.096zm5.17252,-24.66475c-7.74743,0 -14.03654,6.23224 -14.13312,13.95602l2.45277,0c0.07953,-6.38379 5.27766,-11.53455 11.68035,-11.53455c6.40269,0 11.60082,5.15076 11.67943,11.53455l2.45271,0c-0.0956,-7.72378 -6.38657,-13.95602 -14.13214,-13.95602l0,0zm-14.11324,21.03108l2.40826,0l0,-7.08928l-2.40826,0l0,7.08928zm25.77279,-7.09023l0,7.08931l2.49722,0l0,-7.08931l-2.49722,0z" id="svg_96"/>
  </a>
  <a id="svg_100" xlink:href="https://www.youtube.com/watch?v=-Sq2LQirHbQ">
   <path fill="#007f7f" stroke-width="5" stroke-dasharray="null" stroke-linejoin="null" stroke-linecap="null" d="m739.89503,562.75489c0,0.36935 -0.29923,0.66858 -0.66858,0.66858l-4.28141,0c-0.36935,0 -0.66858,-0.29923 -0.66858,-0.66858l0,-9.096c0,-0.36932 0.29923,-0.66858 0.66858,-0.66858l4.28141,0c0.36935,0 0.66858,0.29926 0.66858,0.66858l0,9.096zm-15.85096,0c0,0.36935 -0.29929,0.66858 -0.66858,0.66858l-4.28147,0c-0.36929,0 -0.66858,-0.29923 -0.66858,-0.66858l0,-9.096c0,-0.36932 0.29929,-0.66858 0.66858,-0.66858l4.28147,0c0.36929,0 0.66858,0.29926 0.66858,0.66858l0,9.096zm5.17252,-24.66475c-7.74742,0 -14.03654,6.23224 -14.13312,13.95602l2.45277,0c0.07953,-6.38379 5.27766,-11.53455 11.68035,-11.53455c6.40269,0 11.60082,5.15076 11.67943,11.53455l2.45271,0c-0.0956,-7.72378 -6.38656,-13.95602 -14.13214,-13.95602l0,0zm-14.11324,21.03108l2.40826,0l0,-7.08927l-2.40826,0l0,7.08927zm25.77279,-7.09023l0,7.08931l2.49721,0l0,-7.08931l-2.49721,0z" id="svg_98"/>
  </a>
  <text stroke="#000000" transform="matrix(0.6405668258666992,0,0,0.7272727489471433,99.59550586342812,-6.000001430511475) " xml:space="preserve" text-anchor="middle" font-family="serif" font-size="24" id="svg_1" y="58" x="24" stroke-linecap="null" stroke-linejoin="null" stroke-dasharray="null" stroke-width="0" fill="#00007f">What&#x27;s So Special About</text>
  <text id="svg_17" stroke="#000000" transform="matrix(0.6405668258666992,0,0,0.7272727489471433,99.59550586342812,-6.000001430511475) " xml:space="preserve" text-anchor="middle" font-family="serif" font-size="24" y="85.03907" x="22.57304" stroke-linecap="null" stroke-linejoin="null" stroke-dasharray="null" stroke-width="0" fill="#00007f">the Human Brain</text>
  <text stroke="#000000" transform="translate(85.02587890625,121) scale(0.9503791928291321,0.8333333134651184) translate(-85.02587890625,-121) translate(84.92342376708984,85) scale(1.0341525077819824,1) translate(-84.92342376708984,-85) translate(84.453125,85) scale(1.156766653060913,1) translate(-84.453125,-85) matrix(0.48747223615646357,0,0,0.9090909361839294,82.84498901758342,-0.18182170391082586) " xml:space="preserve" text-anchor="middle" font-family="serif" font-size="24" id="svg_18" y="129.92" x="109.80436" stroke-linecap="null" stroke-linejoin="null" stroke-dasharray="null" stroke-width="0" fill="#00007f">Sir Colin Blakemore</text>
  <text stroke="#000000" transform="matrix(0.5273168683052063,0,0,0.6363636255264282,6.034095603041351,54.181819796562195) " xml:space="preserve" text-anchor="middle" font-family="serif" font-size="24" id="svg_23" y="122.14286" x="258.77897" stroke-linecap="null" stroke-linejoin="null" stroke-dasharray="null" stroke-width="0" fill="#00007f">16 August 2016</text>
 </g>
</svg>