<svg width="904.9999999999999" height="640.0000000000001" xmlns="http://www.w3.org/2000/svg" xmlns:svg="http://www.w3.org/2000/svg" xmlns:xlink="http://www.w3.org/1999/xlink">
 <!-- Created with SVG-edit - http://svg-edit.googlecode.com/ -->
 <title>On the Social Dynamics of Philosophical Ideas: Dai Zhen&#x27;s Critique of Neo-Confucianism</title>
 <defs>
  <marker id="se_marker_mid_svg_38" markerUnits="strokeWidth" orient="auto" viewBox="0 0 100 100" markerWidth="5" markerHeight="5" refX="50" refY="50">
   <path stroke="#000000" id="svg_3" d="m314.67459,62.92287l-49.25954,34.8105l14.77785,-34.8105l-14.77785,-34.8105l49.25954,34.8105z" fill="#000000" stroke-width="10"/>
  </marker>
  <marker id="se_marker_mid_svg_41" markerUnits="strokeWidth" orient="auto" viewBox="0 0 100 100" markerWidth="5" markerHeight="5" refX="50" refY="50">
   <path stroke="#000000" id="svg_4" d="m100,50l-100,40l30,-40l-30,-40l100,40z" fill="#000000" stroke-width="10"/>
  </marker>
  <marker id="se_marker_mid_svg_44" markerUnits="strokeWidth" orient="auto" viewBox="0 0 100 100" markerWidth="5" markerHeight="5" refX="50" refY="50">
   <path stroke="#000000" id="svg_6" d="m100,50l-100,40l30,-40l-30,-40l100,40z" fill="#000000" stroke-width="10"/>
  </marker>
  <pattern height="100" width="100" y="0" x="0" patternUnits="userSpaceOnUse" id="gridpattern">
   <image height="100" width="100" y="0" x="0" id="svg_7"/>
  </pattern>
 </defs>
 <g display="none">
  <title>圖遮罩</title>
 </g>
 <g display="inline" stroke="null">
  <title>文字</title>
  <image xlink:href="https://c1.staticflickr.com/1/883/41264152792_ee9641ca17_b.jpg" id="svg_75" height="522.99997" width="185.00001" y="44.25315" x="707.33332"/>
  <image xlink:href="https://c1.staticflickr.com/1/871/41735630442_d14417f565_o.png" id="svg_68" height="158" width="189" y="287" x="22"/>
 </g>
 <g stroke="null" display="inline">
  <title>色塊</title>
  <rect opacity="0.3" height="200.99998" width="160" y="16.85186" x="381.55557" stroke-width="0" fill="#ff7f00" id="svg_5" stroke="#000000"/>
  <rect opacity="0.3" height="201" width="160" y="17.85187" x="217.00001" stroke-width="0" fill="#ff7f00" id="svg_10" stroke="#000000"/>
  <rect opacity="0.3" height="200.99998" width="160" y="16.85188" x="545.11112" stroke-width="0" fill="#ff7f00" id="svg_11" stroke="#000000"/>
  <rect opacity="0.3" height="200.99998" width="160" y="220.40743" x="381.55556" stroke-width="0" fill="#ff7f00" id="svg_12" stroke="#000000"/>
  <rect opacity="0.3" height="201.00001" width="160" y="221.40742" x="217.00001" stroke-width="0" fill="#ff7f00" id="svg_13" stroke="#000000"/>
  <rect opacity="0.3" height="200.99998" width="160" y="220.40744" x="545.11112" stroke-width="0" fill="#ff7f00" id="svg_14" stroke="#000000"/>
  <rect opacity="0.3" height="204" width="156.66672" y="423.96296" x="547.55557" stroke-width="0" fill="#ff7f00" id="svg_15" stroke="#000000"/>
  <rect opacity="0.3" height="203.99999" width="160" y="424.96297" x="217" stroke-width="0" fill="#ff7f00" id="svg_16" stroke="#000000"/>
  <rect stroke="#000000" id="svg_8" opacity="0.3" height="610.11112" width="199.11107" y="16.85182" x="15.94447" stroke-width="0" fill="#ff7f00"/>
  <rect id="svg_9" opacity="0.3" height="612.11106" width="177.77774" y="15.8519" x="710.05555" stroke-width="0" fill="#ff7f00" stroke="#000000"/>
  <rect id="svg_22" height="33.66667" width="138" y="34.85" x="752.0289" stroke-linecap="null" stroke-linejoin="null" stroke-dasharray="null" stroke-width="5" fill="#ffffaa"/>
  <rect opacity="0.3" height="201.00001" width="160" y="425.49999" x="382.99999" stroke-width="0" fill="#ff7f00" stroke="#000000" id="svg_23"/>
  <image x="125" y="342" width="2" height="22" id="svg_36" xlink:href="https://farm5.staticflickr.com/4226/34087522203_ea64b8bb15_k.jpg"/>
 </g>
 <g stroke="null" display="inline">
  <title>圖片</title>
  <image id="svg_35" x="43" y="513.5" width="150" height="100" xlink:href="https://farm5.staticflickr.com/4226/34087522203_ea64b8bb15_k.jpg"/>
  <image x="63.33333" y="101.66667" width="107" height="114" id="svg_17" xlink:href="https://c1.staticflickr.com/1/806/27434459508_c7a2916d8c_o.png"/>
 </g>
 <g stroke="null" display="inline">
  <title>標題</title>
  <image x="385.8941" y="519.71701" width="150" height="100" xlink:href="https://farm5.staticflickr.com/4246/34897875495_8440639143_k.jpg" id="svg_28"/>
  <image x="224.44443" y="518.77777" width="150" height="100" id="svg_74" xlink:href="https://farm5.staticflickr.com/4270/34857845186_f0f99304f7_k.jpg"/>
  <image x="222.66666" y="322.33334" width="150" height="100" id="svg_51" xlink:href="https://farm5.staticflickr.com/4270/34511234120_156a6b05d2_k.jpg"/>
  <image x="389.00001" y="322" width="150" height="100" id="svg_50" xlink:href="https://farm5.staticflickr.com/4197/34087518033_1a364a9132_k.jpg"/>
  <image x="551.99999" y="318" width="150" height="100" id="svg_60" xlink:href="https://farm5.staticflickr.com/4195/34087507143_a90b39aca1_k.jpg"/>
  <image x="221.66667" y="117.22222" width="150" height="100" id="svg_49" xlink:href="https://farm5.staticflickr.com/4244/34766341981_512e42d600_k.jpg"/>
  <image x="387.99999" y="113.99997" width="150" height="100" id="svg_54" xlink:href="https://farm5.staticflickr.com/4247/34857855486_0ca94fcf68_k.jpg"/>
  <image x="548" y="115.00002" width="150" height="100" id="svg_56" xlink:href="https://farm5.staticflickr.com/4276/34087516983_84b1aab489_k.jpg"/>
  <text fill="#7f003f" stroke-width="0" stroke-dasharray="null" stroke-linejoin="null" stroke-linecap="null" x="-236.04007" y="21.30171" id="svg_45" font-size="24" font-family="serif" text-anchor="middle" xml:space="preserve" font-weight="bold" transform="matrix(0.7899324441364034,0,0,1.4192868719056213,310.4635749416665,23.053191501186227) ">Marching Toward</text>
  <text stroke="#000000" transform="matrix(0.6344247757935583,0,0,1.2957579297125732,100.25039470140727,-57.312232774817) " xml:space="preserve" text-anchor="middle" font-family="serif" font-size="24" id="svg_31" y="232.04774" x="32.51896" opacity="0.8" stroke-linecap="null" stroke-linejoin="null" stroke-dasharray="null" stroke-width="0" fill="#7f003f" font-weight="normal">Prof. Mau-Chung Frank Chang</text>
  <text id="svg_61" stroke="#000000" fill="#ff7f00" stroke-width="0" stroke-dasharray="null" stroke-linejoin="null" stroke-linecap="null" x="60.94484" y="-151.95143" font-size="24" font-family="serif" text-anchor="middle" xml:space="preserve" transform="matrix(0.9355810887206915,0,0,1.2209387538186984,232.41253408782785,234.96649871708127) ">Part 1.</text>
  <text font-weight="normal" transform="matrix(0.8194055225181631,0,0,0.9138608566874137,203.50039165120887,159.45163172704574) " stroke="#000000" xml:space="preserve" text-anchor="middle" font-family="serif" font-size="24" id="svg_69" y="-76.31271" x="118.08327" stroke-linecap="null" stroke-linejoin="null" stroke-dasharray="null" stroke-width="0" fill="#3f007f">Introduction</text>
  <text font-weight="normal" id="svg_80" stroke="#000000" xml:space="preserve" text-anchor="middle" font-family="serif" font-size="24" y="424.16903" x="183.34326" stroke-linecap="null" stroke-linejoin="null" stroke-dasharray="null" stroke-width="0" fill="#3f007f" transform="matrix(0.7330192576446586,0,0,0.8234969905438314,157.29399300318389,-53.64773287141088) ">Students in Cyber/</text>
  <text font-weight="normal" id="svg_87" transform="matrix(0.7138689753057662,0,0,0.9314936737518694,232.98983636885455,147.2830604867658) " stroke="#000000" xml:space="preserve" text-anchor="middle" font-family="serif" font-size="24" y="-59.99902" x="323.29911" stroke-linecap="null" stroke-linejoin="null" stroke-dasharray="null" stroke-width="0" fill="#3f007f">Great University</text>
  <a xlink:href="https://youtu.be/11ZjwDYBSxM" id="svg_26">
   <path stroke="#000000" fill="#ff7f00" stroke-width="0" stroke-dasharray="null" stroke-linejoin="null" stroke-linecap="null" d="m356.27154,184.68171c-8.26903,0 -14.97223,6.47597 -14.97223,14.46469c0,7.98872 6.7032,14.46469 14.97223,14.46469c8.26903,0 14.97222,-6.47597 14.97222,-14.46469c0,-7.98872 -6.70319,-14.46469 -14.97222,-14.46469zm-2.40541,24.14332l-3.64261,-3.52213l6.37355,-6.15749l-6.37355,-6.1575l3.64261,-3.51914l10.0172,9.67664l-10.0172,9.67962z" marker-mid="url(#se_marker_mid_svg_44)" id="svg_44"/>
  </a>
  <a xlink:href="https://www.youtube.com/watch?v=CZdRqNMIuoA&amp;list=PLC6YZ5mMz0Sy-DPWjlXd0tJBW9mhGmE48&amp;index=4&amp;t=0s" id="svg_57">
   <path stroke="#000000" fill="#ff7f00" stroke-width="0" stroke-dasharray="null" stroke-linejoin="null" stroke-linecap="null" d="m519.77154,182.68171c-8.26903,0 -14.97223,6.47597 -14.97223,14.46469c0,7.98872 6.7032,14.46469 14.97223,14.46469c8.26903,0 14.97222,-6.47597 14.97222,-14.46469c0,-7.98872 -6.70319,-14.46469 -14.97222,-14.46469zm-2.40541,24.14332l-3.64261,-3.52213l6.37355,-6.15749l-6.37355,-6.1575l3.64261,-3.51914l10.0172,9.67664l-10.0172,9.67962z" marker-mid="url(#se_marker_mid_svg_44)" id="svg_43"/>
  </a>
  <a xlink:href="https://www.youtube.com/watch?v=NEXY2ajYV-Y&amp;list=PLC6YZ5mMz0Sy-DPWjlXd0tJBW9mhGmE48&amp;index=10&amp;t=0s" id="svg_58">
   <path stroke="#000000" fill="#ff7f00" stroke-width="0" stroke-dasharray="null" stroke-linejoin="null" stroke-linecap="null" d="m682.27154,185.68172c-8.26903,0 -14.97223,6.47597 -14.97223,14.46469c0,7.98872 6.7032,14.46469 14.97223,14.46469c8.26903,0 14.97222,-6.47597 14.97222,-14.46469c0,-7.98872 -6.70319,-14.46469 -14.97222,-14.46469zm-2.40541,24.14331l-3.64261,-3.52212l6.37355,-6.1575l-6.37355,-6.15749l3.64261,-3.51914l10.0172,9.67663l-10.0172,9.67962z" marker-mid="url(#se_marker_mid_svg_44)" id="svg_42"/>
  </a>
  <a xlink:href="https://www.youtube.com/watch?v=8OKc0aIN9fw&amp;list=PLC6YZ5mMz0Sy-DPWjlXd0tJBW9mhGmE48&amp;index=9&amp;t=0s" id="svg_59">
   <path stroke="#000000" fill="#ff7f00" stroke-width="0" stroke-dasharray="null" stroke-linejoin="null" stroke-linecap="null" d="m355.27154,391.43171c-8.26903,0 -14.97223,6.47597 -14.97223,14.46469c0,7.98872 6.7032,14.46469 14.97223,14.46469c8.26903,0 14.97222,-6.47597 14.97222,-14.46469c0,-7.98872 -6.70319,-14.46469 -14.97222,-14.46469zm-2.40541,24.14332l-3.64261,-3.52213l6.37355,-6.15749l-6.37355,-6.1575l3.64261,-3.51914l10.0172,9.67664l-10.0172,9.67962z" marker-mid="url(#se_marker_mid_svg_41)" id="svg_41"/>
  </a>
  <a xlink:href="https://www.youtube.com/watch?v=5EDWeIdLZa4&amp;list=PLC6YZ5mMz0Sy-DPWjlXd0tJBW9mhGmE48&amp;index=5&amp;t=0s" id="svg_70">
   <path stroke="#000000" fill="#ff7f00" stroke-width="0" stroke-dasharray="null" stroke-linejoin="null" stroke-linecap="null" d="m523.77154,393.43171c-8.26903,0 -14.97223,6.47597 -14.97223,14.46469c0,7.98872 6.7032,14.46469 14.97223,14.46469c8.26903,0 14.97222,-6.47597 14.97222,-14.46469c0,-7.98872 -6.70319,-14.46469 -14.97222,-14.46469zm-2.40541,24.14332c-1.2142,-1.17404 -2.42841,-2.34809 -3.64261,-3.52213l6.37355,-6.15749l-6.37355,-6.1575l3.64261,-3.51914l10.0172,9.67664l-10.0172,9.67962z" marker-mid="url(#se_marker_mid_svg_41)" id="svg_40"/>
  </a>
  <a xlink:href="https://www.youtube.com/watch?v=osSmfxcGRCg&amp;list=PLC6YZ5mMz0Sy-DPWjlXd0tJBW9mhGmE48&amp;index=7&amp;t=0s" id="svg_71">
   <path stroke="#000000" fill="#ff7f00" stroke-width="0" stroke-dasharray="null" stroke-linejoin="null" stroke-linecap="null" d="m684.27154,389.43172c-8.26903,0 -14.97223,6.47597 -14.97223,14.46469c0,7.98872 6.7032,14.46469 14.97223,14.46469c8.26903,0 14.97222,-6.47597 14.97222,-14.46469c0,-7.98872 -6.70319,-14.46469 -14.97222,-14.46469zm-2.40541,24.14331l-3.64261,-3.52212l6.37355,-6.1575l-6.37355,-6.15749l3.64261,-3.51914l10.0172,9.67663l-10.0172,9.67962z" marker-mid="url(#se_marker_mid_svg_41)" id="svg_39"/>
  </a>
  <a xlink:href="https://www.youtube.com/watch?v=WrWHMAifTyk&amp;list=PLC6YZ5mMz0Sy-DPWjlXd0tJBW9mhGmE48&amp;index=3&amp;t=0s" id="svg_72">
   <path stroke="#000000" fill="#ff7f00" stroke-width="0" stroke-dasharray="null" stroke-linejoin="null" stroke-linecap="null" d="m360.27154,588.68172c-8.26903,0 -14.97223,6.47597 -14.97223,14.46469c0,7.98872 6.7032,14.46469 14.97223,14.46469c8.26903,0 14.97222,-6.47597 14.97222,-14.46469c0,-7.98872 -6.70319,-14.46469 -14.97222,-14.46469zm-2.40541,24.14332l-3.64261,-3.52213l6.37355,-6.15749l-6.37355,-6.1575l3.64261,-3.51914l10.0172,9.67664l-10.0172,9.67962z" marker-mid="url(#se_marker_mid_svg_38)" id="svg_38"/>
  </a>
  <text xml:space="preserve" text-anchor="middle" font-family="serif" font-size="24" id="svg_83" y="542.0428" x="772.10043" stroke-linecap="null" stroke-linejoin="null" stroke-dasharray="null" stroke-width="0" stroke="#000000" fill="#3f3f3f"/>
  <g id="svg_180"/>
  <text font-weight="normal" id="svg_53" transform="matrix(0.7435412195521557,0,0,0.9610765108343244,80.78498821966909,-214.74218870310358) " stroke="#000000" xml:space="preserve" text-anchor="middle" font-family="serif" font-size="24" y="313.58733" x="727.89553" stroke-linecap="null" stroke-linejoin="null" stroke-dasharray="null" stroke-width="0" fill="#3f007f">Ideal university</text>
  <text font-weight="normal" id="svg_84" stroke="#000000" xml:space="preserve" text-anchor="middle" font-family="serif" font-size="24" y="443.87501" x="481.02696" stroke-linecap="null" stroke-linejoin="null" stroke-dasharray="null" stroke-width="0" fill="#3f007f" transform="matrix(0.7348234587910522,0,0,0.9240634263938574,107.14164915442146,-116.42822320325341) ">Fellowship in Cyber/</text>
  <text font-weight="normal" id="svg_86" xml:space="preserve" text-anchor="middle" font-family="serif" font-size="24" y="270.78843" x="622.20912" stroke-linecap="null" stroke-linejoin="null" stroke-dasharray="null" stroke-width="0" fill="#3f007f" transform="matrix(0.8207135200500488,0,0,0.8207135200500488,115.65098497271538,78.49666335433722) " stroke="#000000">University Ranking</text>
  <text transform="matrix(0.7280527701259416,0,0,0.8188012338468919,170.34399353135802,-17.237344596451262) " font-style="italic" xml:space="preserve" text-anchor="middle" font-family="serif" font-size="24" y="89.07273" x="873.42024" opacity="0.8" stroke-linecap="null" stroke-linejoin="null" stroke-dasharray="null" stroke-width="0" fill="#7f003f" id="svg_27">Speaker’s Biography</text>
  <text fill="#7f003f" stroke-width="0" stroke-dasharray="null" stroke-linejoin="null" stroke-linecap="null" x="-228.53423" y="52.64384" font-size="24" font-family="serif" text-anchor="middle" xml:space="preserve" font-weight="bold" transform="matrix(0.6771289006841136,0,0,1.436922783013796,272.03427713524593,16.640299611979152) " id="svg_20">Great University</text>
  <text font-weight="normal" xml:space="preserve" text-anchor="middle" font-family="serif" font-size="24" id="svg_18" y="497.33333" x="296.33333" stroke-linecap="null" stroke-linejoin="null" stroke-dasharray="null" stroke-width="0" stroke="#000000" fill="#3f007f">About NCTU</text>
  <text font-weight="normal" fill="#3f007f" stroke-width="0" stroke-dasharray="null" stroke-linejoin="null" stroke-linecap="null" x="632.56639" y="111" id="svg_1" font-size="24" font-family="serif" text-anchor="middle" xml:space="preserve" transform="matrix(0.8450846383236623,0,0,0.8450846383236623,88.0029001612883,13.745189762746307) " stroke="#000000">education</text>
  <text font-weight="normal" fill="#3f007f" stroke-width="0" stroke-dasharray="null" stroke-linejoin="null" stroke-linecap="null" x="332.12622" y="320.1839" id="svg_2" font-size="24" font-family="serif" text-anchor="middle" xml:space="preserve" stroke="#000000" transform="matrix(0.8085518479347229,0,0,0.8085518479347229,26.4886466646567,56.09430855512619) ">Physical-fused Era</text>
  <text font-weight="normal" fill="#3f007f" stroke-width="0" stroke-dasharray="null" stroke-linejoin="null" stroke-linecap="null" x="517.19465" y="322.66224" id="svg_21" font-size="24" font-family="serif" text-anchor="middle" xml:space="preserve" stroke="#000000" transform="matrix(0.8092455012666546,0,0,0.8092455012666546,44.0467587075325,52.471904771397845) ">Physical-fused Era</text>
  <text font-weight="normal" xml:space="preserve" text-anchor="middle" font-family="serif" font-size="24" y="497.27257" x="454.78299" stroke-linecap="null" stroke-linejoin="null" stroke-dasharray="null" stroke-width="0" stroke="#000000" fill="#3f007f" id="svg_29">Q &amp; A</text>
  <image x="548" y="424" width="150" height="100" id="svg_37" xlink:href="https://farm5.staticflickr.com/4200/34897866855_a9c932811b_k.jpg"/>
  <image x="549" y="531" width="150" height="100" id="svg_47" xlink:href="https://farm5.staticflickr.com/4222/34897865925_546c61c1ef_k.jpg"/>
  <a id="svg_48" xlink:href="https://www.youtube.com/watch?v=dlHsR3fl7RI&amp;list=PLC6YZ5mMz0Sy-DPWjlXd0tJBW9mhGmE48&amp;index=2&amp;t=0s">
   <path stroke="#000000" fill="#ff7f00" stroke-width="0" stroke-dasharray="null" stroke-linejoin="null" stroke-linecap="null" d="m461.52711,522.69561c-6.31192,0 -11.4286,4.34176 -11.4286,9.69774c0,5.35598 5.11668,9.69775 11.4286,9.69775c6.31191,0 11.42858,-4.34177 11.42858,-9.69775c0,-5.35598 -5.11667,-9.69774 -11.42858,-9.69774zm-1.8361,16.18671l-2.78047,-2.36138l4.86505,-4.12825l-4.86505,-4.12825l2.78047,-2.35938l7.64633,6.48763l-7.64633,6.48963z" marker-mid="url(#se_marker_mid_svg_38)" id="svg_25"/>
  </a>
  <text style="cursor: move;" font-weight="bold" id="svg_32" fill="#3f007f" stroke-width="0" stroke-dasharray="null" stroke-linejoin="null" stroke-linecap="null" x="117.51538" y="495.00645" font-size="24" font-family="serif" text-anchor="middle" xml:space="preserve" stroke="#000000">Welcoming</text>
  <text id="svg_55" stroke="#000000" transform="matrix(0.7562904092886258,0,0,1.3561851083995011,99.40729405849372,-57.42320573125126) " xml:space="preserve" text-anchor="middle" font-family="serif" font-size="24" y="248.26971" x="19.29653" opacity="0.8" stroke-linecap="null" stroke-linejoin="null" stroke-dasharray="null" stroke-width="0" fill="#7f003f" font-weight="normal">22 May 2017</text>
  <path id="svg_76" stroke="#000000" fill="#ff7f00" stroke-width="0" stroke-dasharray="null" stroke-linejoin="null" stroke-linecap="null" d="m176.99999,581.53533c-8.26903,0 -14.97223,6.47597 -14.97223,14.46469c0,7.98872 6.7032,14.46469 14.97223,14.46469c8.26903,0 14.97222,-6.47597 14.97222,-14.46469c0,-7.98872 -6.70319,-14.46469 -14.97222,-14.46469zm-2.40541,24.14332l-3.64261,-3.52213l6.37355,-6.15749l-6.37355,-6.1575l3.64261,-3.51914l10.0172,9.67664l-10.0172,9.67962z" marker-mid="url(#se_marker_mid_svg_38)"/>
  <text id="svg_78" stroke="#000000" fill="#ff7f00" stroke-width="0" stroke-dasharray="null" stroke-linejoin="null" stroke-linecap="null" x="251.20961" y="-152.70074" font-size="24" font-family="serif" text-anchor="middle" xml:space="preserve" transform="matrix(0.9355810887206915,0,0,1.2209387538186984,232.41253408782785,234.96649871708127) ">Part 2.</text>
  <text id="svg_79" stroke="#000000" fill="#ff7f00" stroke-width="0" stroke-dasharray="null" stroke-linejoin="null" stroke-linecap="null" x="422.23265" y="-154.32867" font-size="24" font-family="serif" text-anchor="middle" xml:space="preserve" transform="matrix(0.9355810887206915,0,0,1.2209387538186984,232.41253408782785,234.96649871708127) ">Part 3.</text>
  <text id="svg_81" stroke="#000000" fill="#ff7f00" stroke-width="0" stroke-dasharray="null" stroke-linejoin="null" stroke-linecap="null" x="60.94781" y="15.58147" font-size="24" font-family="serif" text-anchor="middle" xml:space="preserve" transform="matrix(0.9355810887206915,0,0,1.2209387538186984,232.41253408782785,234.96649871708127) ">Part 4.</text>
  <text id="svg_82" stroke="#000000" fill="#ff7f00" stroke-width="0" stroke-dasharray="null" stroke-linejoin="null" stroke-linecap="null" x="251.21258" y="14.83216" font-size="24" font-family="serif" text-anchor="middle" xml:space="preserve" transform="matrix(0.9355810887206915,0,0,1.2209387538186984,232.41253408782785,234.96649871708127) ">Part 5.</text>
  <text id="svg_85" stroke="#000000" fill="#ff7f00" stroke-width="0" stroke-dasharray="null" stroke-linejoin="null" stroke-linecap="null" x="422.23562" y="13.20423" font-size="24" font-family="serif" text-anchor="middle" xml:space="preserve" transform="matrix(0.9355810887206915,0,0,1.2209387538186984,232.41253408782785,234.96649871708127) ">Part 6.</text>
  <text id="svg_88" stroke="#000000" fill="#ff7f00" stroke-width="0" stroke-dasharray="null" stroke-linejoin="null" stroke-linecap="null" x="62.02691" y="181.85517" font-size="24" font-family="serif" text-anchor="middle" xml:space="preserve" transform="matrix(0.9355810887206915,0,0,1.2209387538186984,232.41253408782785,234.96649871708127) ">Part 7.</text>
  <text id="svg_89" stroke="#000000" fill="#ff7f00" stroke-width="0" stroke-dasharray="null" stroke-linejoin="null" stroke-linecap="null" x="252.29168" y="181.10585" font-size="24" font-family="serif" text-anchor="middle" xml:space="preserve" transform="matrix(0.9355810887206915,0,0,1.2209387538186984,232.41253408782785,234.96649871708127) ">Part 8.</text>
  <a xlink:href="https://youtu.be/UkshPIh7H5Y" id="svg_90">
   <path id="svg_77" stroke="#000000" fill="#ff7f00" stroke-width="0" stroke-dasharray="null" stroke-linejoin="null" stroke-linecap="null" d="m174.99999,582.53532c-8.26903,0 -14.97223,6.47597 -14.97223,14.46469c0,7.98872 6.7032,14.46469 14.97223,14.46469c8.26903,0 14.97222,-6.47597 14.97222,-14.46469c0,-7.98872 -6.70319,-14.46469 -14.97222,-14.46469zm-2.40541,24.14332l-3.64261,-3.52213l6.37355,-6.15749l-6.37355,-6.1575l3.64261,-3.51914l10.0172,9.67664l-10.0172,9.67962z" marker-mid="url(#se_marker_mid_svg_41)"/>
  </a>
 </g>
</svg>