<svg width="905" height="640.0000000000001" xmlns="http://www.w3.org/2000/svg" xmlns:svg="http://www.w3.org/2000/svg" xmlns:xlink="http://www.w3.org/1999/xlink">
 <!-- Created with SVG-edit - http://svg-edit.googlecode.com/ -->
 <title>中國石油天然氣的發展與前景展望
Development and Prospects of Petroleum and Natural Gas in China
</title>
 <defs>
  <marker refY="50" refX="50" markerHeight="5" markerWidth="5" viewBox="0 0 100 100" orient="auto" markerUnits="strokeWidth" id="se_marker_mid_svg_37">
   <path stroke-width="10" fill="#000000" d="m100,50l-100,40l30,-40l-30,-40l100,40z" id="svg_2" stroke="#000000"/>
  </marker>
  <marker refY="50" refX="50" markerHeight="5" markerWidth="5" viewBox="0 0 100 100" orient="auto" markerUnits="strokeWidth" id="se_marker_mid_svg_38">
   <path stroke-width="10" fill="#000000" d="m283.85573,64.76907l-54.50378,38.51647l16.35113,-38.51647l-16.35113,-38.51647l54.50378,38.51647z" id="svg_3" stroke="#000000"/>
  </marker>
  <marker refY="50" refX="50" markerHeight="5" markerWidth="5" viewBox="0 0 100 100" orient="auto" markerUnits="strokeWidth" id="se_marker_mid_svg_41">
   <path stroke-width="10" fill="#000000" d="m100,50l-100,40l30,-40l-30,-40l100,40z" id="svg_4" stroke="#000000"/>
  </marker>
  <marker refY="50" refX="50" markerHeight="5" markerWidth="5" viewBox="0 0 100 100" orient="auto" markerUnits="strokeWidth" id="se_marker_mid_svg_44">
   <path stroke-width="10" fill="#000000" d="m100,50l-100,40l30,-40l-30,-40l100,40z" id="svg_6" stroke="#000000"/>
  </marker>
  <pattern id="gridpattern" patternUnits="userSpaceOnUse" x="0" y="0" width="100" height="100">
   <image id="svg_7" x="0" y="0" width="100" height="100"/>
  </pattern>
 </defs>
 
 <g display="inline" stroke="null">
  <title>色塊</title>
  <rect stroke="#000000" id="svg_5" fill="#00ff7f" stroke-width="0" x="383.55557" y="15.85186" width="160" height="200.99998" opacity="0.3"/>
  <rect stroke="#000000" id="svg_10" fill="#00ff7f" stroke-width="0" x="219.00001" y="16.85187" width="160" height="201" opacity="0.3"/>
  <rect stroke="#000000" id="svg_11" fill="#00ff7f" stroke-width="0" x="547.11112" y="15.85188" width="160" height="200.99998" opacity="0.3"/>
  <rect stroke="#000000" id="svg_12" fill="#00ff7f" stroke-width="0" x="383.55556" y="219.40743" width="160" height="200.99998" opacity="0.3"/>
  <rect stroke="#000000" id="svg_13" fill="#00ff7f" stroke-width="0" x="219.00001" y="220.40742" width="160" height="201.00001" opacity="0.3"/>
  <rect stroke="#000000" id="svg_14" fill="#00ff7f" stroke-width="0" x="547.11112" y="219.40744" width="160" height="200.99998" opacity="0.3"/>
  <rect stroke="#000000" id="svg_15" fill="#00ff7f" stroke-width="0" x="383.55555" y="422.96296" width="322.00005" height="204" opacity="0.3"/>
  <rect stroke="#000000" id="svg_16" fill="#00ff7f" stroke-width="0" x="219" y="423.96297" width="160" height="203.99999" opacity="0.3"/>
  <rect stroke="#000000" fill="#00ff7f" stroke-width="0" x="15.94447" y="16.85182" width="199.11107" height="611.11114" opacity="0.3" id="svg_8"/>
  <rect stroke="#000000" fill="#00ff7f" stroke-width="0" x="712.05555" y="14.8519" width="177.77774" height="612.11106" opacity="0.3" id="svg_9"/>
  <rect fill="#ffffaa" stroke-width="5" stroke-dasharray="null" stroke-linejoin="null" stroke-linecap="null" x="17.9622" y="159.467" width="78.4692" height="21" id="svg_21"/>
  <rect fill="#ffffaa" stroke-width="5" stroke-dasharray="null" stroke-linejoin="null" stroke-linecap="null" x="752.0289" y="34.85" width="138" height="33.66667" id="svg_22"/>
 </g>
 <g display="inline" stroke="null">
  <title>圖片</title>

  <g stroke="null" display="inline">
  <title>Speaker's photo</title>
  <image stroke="null" x="24" y="72" width="67.99998" height="84" id="svg_18" xlink:href="https://c1.staticflickr.com/1/897/27358109698_1caf67e05d_o.png"/></g>

  <g stroke="null" display="inline">
  <title>Welcoming's photo</title>
  <image stroke="null" x="58.75001" y="536.99999" width="165.49999" height="89.25001" id="svg_19" xlink:href="https://farm5.staticflickr.com/4238/34749562700_95a9cd2fa5_b.jpg"/></g>

  <g stroke="null" display="inline">
  <title>Part 5's photo</title>
  <image x="387" y="311" width="155.99999" height="101" id="svg_24" xlink:href="https://farm5.staticflickr.com/4249/35005229061_640d444232_b.jpg"/></g>

  <g stroke="null" display="inline">
  <title>Part 2's photo</title>
  <image x="384.99998" y="90" width="156.00002" height="138" id="svg_28" xlink:href="https://farm5.staticflickr.com/4253/34971498402_1404478c47_b.jpg"/></g>

  <g stroke="null" display="inline">
  <title>photo</title>
  <image stroke="null" x="545.77778" y="472.27779" width="156.5" height="112.1111" id="svg_29" xlink:href="https://farm5.staticflickr.com/4220/34971496682_8c926613d1_b.jpg"/></g>

  <g stroke="null" display="inline">
  <title>Part 7's photo</title>
  <image x="218.77777" y="515.55553" width="161.77779" height="102.44444" id="svg_30" xlink:href="https://farm5.staticflickr.com/4234/34971497992_a01946c7dc_b.jpg"/></g>

  <g stroke="null" display="inline">
  <title>Part 3's photo</title>
  <image x="546" y="107" width="162.00001" height="103" id="svg_32" xlink:href="https://farm5.staticflickr.com/4208/34326058423_72f4072a4f_b.jpg"/></g>

  <g stroke="null" display="inline">
  <title>Part 4's photo</title>
  <image x="223" y="297" width="151.00001" height="128" id="svg_33" xlink:href="https://farm5.staticflickr.com/4265/34749562140_74d96b37fb_b.jpg"/></g>

  <g stroke="null" display="inline">
  <title>photo</title>
  <image stroke="null" x="388.25" y="466.24999" width="156.24999" height="125.25001" id="svg_34" xlink:href="https://farm5.staticflickr.com/4245/34326058093_8722aed8d2_b.jpg"/></g>

  <g stroke="null" display="inline">
  <title>Part 6's photo</title>
  <image x="535.99999" y="311.99998" width="182.00002" height="102.00002" id="svg_35" xlink:href="https://farm5.staticflickr.com/4273/35005228741_e31364c4d8_b.jpg"/></g>

  <g stroke="null" display="inline">
  <title>Part 1's photo</title>
  <image stroke="null" xlink:href="https://farm5.staticflickr.com/4249/35005229061_640d444232_b.jpg" id="svg_46" height="137" width="155.25001" y="91.25" x="221.24999"/></g>
 </g>
 <g display="inline" stroke="null">
  <title>標題</title>

  <g stroke="null" display="inline">
  <title>中國石油天然氣的發展與前景展望</title>
  <text transform="matrix(0.5055511238302441,0,0,0.6849897364043577,216.30122138298714,28.884024512777163) " font-weight="bold" xml:space="preserve" text-anchor="middle" font-family="serif" font-size="24" id="svg_45" y="5.9736" x="-198.36533" stroke-linecap="null" stroke-linejoin="null" stroke-dasharray="null" stroke-width="0" fill="#007f00">中國石油天然氣的發展與前景展望</text></g>

  <g stroke="null" display="inline">
  <title>梁狄剛教授Prof. Liang Di-gang</title>
  <text fill="#007f3f" stroke-width="0" stroke-dasharray="null" stroke-linejoin="null" stroke-linecap="null" opacity="0.8" x="67.1225" y="95.22265" id="svg_31" font-size="24" font-family="serif" text-anchor="middle" xml:space="preserve" transform="matrix(0.3595892223957253,0,0,0.6684780043055123,128.24477061498936,71.18375941194456) " stroke="#000000">梁狄剛教授Prof. Liang Di-gang</text></g>

  <g stroke="null" display="inline">
  <title>Part 1</title>
  <text transform="matrix(0.7019094341041102,0,0,0.8725811831265706,237.6499733450726,188.19171122182925) " xml:space="preserve" text-anchor="middle" font-family="serif" font-size="24" y="-152.56175" x="26.03972" stroke-linecap="null" stroke-linejoin="null" stroke-dasharray="null" stroke-width="0" fill="#3f3f3f" stroke="#000000" id="svg_61">Part 1-</text></g>

  <g stroke="null" display="inline">
  <title>Part 2</title>
  <text transform="matrix(0.7033665714052806,0,0,0.8560190525174091,231.02103232645754,172.38651313236446) " xml:space="preserve" text-anchor="middle" font-family="serif" font-size="24" y="-134.55582" x="285.63263" stroke-linecap="null" stroke-linejoin="null" stroke-dasharray="null" stroke-width="0" fill="#3f3f3f" stroke="#000000" id="svg_62">Part 2-</text></g>

  <g stroke="null" display="inline">
  <title>Part 3</title>
  <text transform="matrix(0.784163540378714,0,0,0.8427026453423864,165.2974082823699,174.14461663770933) " xml:space="preserve" text-anchor="middle" font-family="serif" font-size="24" y="-139.98459" x="555.86863" stroke-linecap="null" stroke-linejoin="null" stroke-dasharray="null" stroke-width="0" fill="#3f3f3f" stroke="#000000" id="svg_63">Part 3-</text></g>

  <g stroke="null" display="inline">
  <title>Part 4</title>
  <text stroke="#000000" transform="matrix(0.7043137129993655,0,0,0.9022670387636738,71.38882734663156,36.14515408049566) " xml:space="preserve" text-anchor="middle" font-family="serif" font-size="24" y="243.52621" x="264.85885" stroke-linecap="null" stroke-linejoin="null" stroke-dasharray="null" stroke-width="0" fill="#3f3f3f" id="svg_64">Part 4-</text></g>

  <g stroke="null" display="inline">
  <title>Part 5</title>
  <text stroke="#000000" transform="matrix(0.7825427077549433,0,0,0.8383770832997761,88.92060942287604,48.419758573528995) " xml:space="preserve" text-anchor="middle" font-family="serif" font-size="24" y="247.77317" x="427.00638" stroke-linecap="null" stroke-linejoin="null" stroke-dasharray="null" stroke-width="0" fill="#3f3f3f" id="svg_65">Part 5-</text></g>

  <g stroke="null" display="inline">
  <title>Part 6</title>
  <text style="cursor: move;" stroke="#000000" transform="matrix(0.6666643794251097,0,0,0.8249001005337466,194.55971473904356,56.549211711358794) " xml:space="preserve" text-anchor="middle" font-family="serif" font-size="24" y="243.90189" x="592.27208" stroke-linecap="null" stroke-linejoin="null" stroke-dasharray="null" stroke-width="0" fill="#3f3f3f" id="svg_66">Part 6-</text></g>

  <g stroke="null" display="inline">
  <title>Part 7</title>
  <text stroke="#000000" transform="matrix(0.7441997093731462,0,0,0.786473009899077,64.23991271109436,104.88559608738294) " xml:space="preserve" text-anchor="middle" font-family="serif" font-size="24" y="458.90584" x="268.18743" stroke-linecap="null" stroke-linejoin="null" stroke-dasharray="null" stroke-width="0" fill="#3f3f3f" id="svg_67">Part 7-</text></g>

  <g stroke="null" display="inline">
  <title>Welcoming</title>
  <text font-style="italic" font-weight="bold" fill="#3f3f3f" stroke-width="0" stroke-dasharray="null" stroke-linejoin="null" stroke-linecap="null" x="-170.23551" y="406.52885" id="svg_69" font-size="24" font-family="serif" text-anchor="middle" xml:space="preserve" stroke="#000000" transform="matrix(0.8194055225181631,0,0,0.9138608566874137,203.50039165120887,159.45163172704574) ">Welcoming</text></g>

  <g stroke="null" display="inline">
  <title>努力改善中國資源結構</title>
  <text fill="#3f3f3f" stroke-width="0" stroke-dasharray="null" stroke-linejoin="null" stroke-linecap="null" x="870.79417" y="438.57994" font-size="24" font-family="serif" text-anchor="middle" xml:space="preserve" stroke="#000000" transform="matrix(0.560550901849145,0,0,0.6979009134254979,140.92549249121436,-21.288881126833928) " id="svg_76">努力改善中國資源結構</text></g>

  <g stroke="null" display="inline">
  <title>Q&amp;A</title>
  <text fill="#3f3f3f" stroke-width="0" stroke-dasharray="null" stroke-linejoin="null" stroke-linecap="null" x="255.16242" y="491.03638" id="svg_78" font-size="24" font-family="serif" text-anchor="middle" xml:space="preserve" transform="matrix(0.7896031111109739,0,0,0.8521923539903149,82.00345654043606,69.10107366316427) " stroke="#000000">Q&amp;A</text></g>

  <g stroke="null" display="inline">
  <title>儲量和資源量</title>
  <text fill="#3f3f3f" stroke-width="0" stroke-dasharray="null" stroke-linejoin="null" stroke-linecap="null" x="675.72815" y="204.67303" font-size="24" font-family="serif" text-anchor="middle" xml:space="preserve" stroke="#000000" transform="matrix(0.5628060272273941,0,0,0.8622820401288241,241.9595083871532,-97.33620414418405) " id="svg_80">儲量和資源量</text></g>

  <g stroke="null" display="inline">
  <title>中國石油天然氣地位</title>
  <text fill="#3f3f3f" stroke-width="0" stroke-dasharray="null" stroke-linejoin="null" stroke-linecap="null" x="106.94847" y="-72.80319" font-size="24" font-family="serif" text-anchor="middle" xml:space="preserve" stroke="#000000" transform="matrix(0.6310726011258454,0,0,0.7493513338532679,230.66495682187622,134.30436603376108) " id="svg_87">中國石油天然氣地位</text></g>

  <g stroke="null" display="inline">
  <title>Click to watch Welcoming's video</title>
  <a id="svg_26" xlink:href="https://youtu.be/qyTRLl7Dux0">
   <path id="svg_44" marker-mid="url(#se_marker_mid_svg_44)" d="m82.52154,596.18171c-8.26903,0 -14.97223,6.47597 -14.97223,14.46469c0,7.98872 6.7032,14.46469 14.97223,14.46469c8.26903,0 14.97222,-6.47597 14.97222,-14.46469c0,-7.98872 -6.70319,-14.46469 -14.97222,-14.46469zm-2.40541,24.14332l-3.64261,-3.52213l6.37355,-6.15749l-6.37355,-6.1575l3.64261,-3.51914l10.0172,9.67664l-10.0172,9.67962z" stroke-linecap="null" stroke-linejoin="null" stroke-dasharray="null" stroke-width="0" fill="#3f3f3f" stroke="#000000"/>
  </a></g>

  <g stroke="null" display="inline">
  <title>Click to watch Part 1's video</title>
  <a id="svg_57" xlink:href="https://youtu.be/bJeOGlMTfgo">
   <path id="svg_43" marker-mid="url(#se_marker_mid_svg_44)" d="m233.02154,184.18171c-8.26903,0 -14.97223,6.47597 -14.97223,14.46469c0,7.98872 6.7032,14.46469 14.97223,14.46469c8.26903,0 14.97222,-6.47597 14.97222,-14.46469c0,-7.98872 -6.70319,-14.46469 -14.97222,-14.46469zm-2.40541,24.14332l-3.64261,-3.52213l6.37355,-6.15749l-6.37355,-6.1575l3.64261,-3.51914l10.0172,9.67664l-10.0172,9.67962z" stroke-linecap="null" stroke-linejoin="null" stroke-dasharray="null" stroke-width="0" fill="#ffffff" stroke="#000000"/>
  </a></g>

  <g stroke="null" display="inline">
  <title>Click to watch Part 2's video</title>
  <a id="svg_58" xlink:href="https://youtu.be/1OqVr8XHkbM">
   <path stroke="#000000" id="svg_42" marker-mid="url(#se_marker_mid_svg_44)" d="m398.52154,184.18172c-8.26903,0 -14.97223,6.47597 -14.97223,14.46469c0,7.98872 6.7032,14.46469 14.97223,14.46469c8.26903,0 14.97222,-6.47597 14.97222,-14.46469c0,-7.98872 -6.70319,-14.46469 -14.97222,-14.46469zm-2.40541,24.14331l-3.64261,-3.52212l6.37355,-6.1575l-6.37355,-6.15749l3.64261,-3.51914l10.0172,9.67663l-10.0172,9.67962z" stroke-linecap="null" stroke-linejoin="null" stroke-dasharray="null" stroke-width="0" fill="#ffffff"/>
  </a></g>

  <g stroke="null" display="inline">
  <title>Click to watch Part 3's video</title>
  <a id="svg_59" xlink:href="https://youtu.be/ouAmUbMvUOo">
   <path id="svg_41" marker-mid="url(#se_marker_mid_svg_41)" d="m565.52154,182.43171c-8.26903,0 -14.97223,6.47597 -14.97223,14.46469c0,7.98872 6.7032,14.46469 14.97223,14.46469c8.26903,0 14.97222,-6.47597 14.97222,-14.46469c0,-7.98872 -6.70319,-14.46469 -14.97222,-14.46469zm-2.40541,24.14332l-3.64261,-3.52213l6.37355,-6.15749l-6.37355,-6.1575l3.64261,-3.51914l10.0172,9.67664l-10.0172,9.67962z" stroke-linecap="null" stroke-linejoin="null" stroke-dasharray="null" stroke-width="0" fill="#ffffff" stroke="#000000"/>
  </a></g>

  <g stroke="null" display="inline">
  <title>Click to watch Part 4's video</title>
  <a id="svg_70" xlink:href="https://youtu.be/9TeuWOe8Ajw">
   <path id="svg_40" marker-mid="url(#se_marker_mid_svg_41)" d="m238.52154,382.68171c-8.26903,0 -14.97223,6.47597 -14.97223,14.46469c0,7.98872 6.7032,14.46469 14.97223,14.46469c8.26903,0 14.97222,-6.47597 14.97222,-14.46469c0,-7.98872 -6.70319,-14.46469 -14.97222,-14.46469zm-2.40541,24.14332c-1.2142,-1.17404 -2.42841,-2.34809 -3.64261,-3.52213l6.37355,-6.15749l-6.37355,-6.1575l3.64261,-3.51914l10.0172,9.67664l-10.0172,9.67962z" stroke-linecap="null" stroke-linejoin="null" stroke-dasharray="null" stroke-width="0" fill="#ffffff" stroke="#000000"/>
  </a></g>

  <g stroke="null" display="inline">
  <title>Click to watch Part 5's video</title>
  <a id="svg_71" xlink:href="https://youtu.be/n0RhXa7r1aA">
   <path id="svg_39" marker-mid="url(#se_marker_mid_svg_41)" d="m405.02154,382.93172c-8.26903,0 -14.97223,6.47597 -14.97223,14.46469c0,7.98872 6.7032,14.46469 14.97223,14.46469c8.26903,0 14.97222,-6.47597 14.97222,-14.46469c0,-7.98872 -6.70319,-14.46469 -14.97222,-14.46469zm-2.40541,24.14331l-3.64261,-3.52212l6.37355,-6.1575l-6.37355,-6.15749l3.64261,-3.51914l10.0172,9.67663l-10.0172,9.67962z" stroke-linecap="null" stroke-linejoin="null" stroke-dasharray="null" stroke-width="0" fill="#ffffff" stroke="#000000"/>
  </a></g>

  <g stroke="null" display="inline">
  <title>Click to watch Part 6's video</title>
  <a id="svg_72" xlink:href="https://youtu.be/Ph8wTuZiOfQ">
   <path id="svg_38" marker-mid="url(#se_marker_mid_svg_38)" d="m566.77154,383.93172c-8.26903,0 -14.97223,6.47597 -14.97223,14.46469c0,7.98872 6.7032,14.46469 14.97223,14.46469c8.26903,0 14.97222,-6.47597 14.97222,-14.46469c0,-7.98872 -6.70319,-14.46469 -14.97222,-14.46469zm-2.40541,24.14332l-3.64261,-3.52213l6.37355,-6.15749l-6.37355,-6.1575l3.64261,-3.51914l10.0172,9.67664l-10.0172,9.67962z" stroke-linecap="null" stroke-linejoin="null" stroke-dasharray="null" stroke-width="0" fill="#ffffff" stroke="#000000"/>
  </a></g>

  <g stroke="null" display="inline">
  <title>Click to watch Part 7's video</title>
  <a id="svg_73" xlink:href="https://youtu.be/26Yf7Zv0zE4">
   <path id="svg_37" marker-mid="url(#se_marker_mid_svg_37)" d="m236.27154,590.18172c-8.26903,0 -14.97223,6.47597 -14.97223,14.46469c0,7.98872 6.7032,14.46469 14.97223,14.46469c8.26903,0 14.97222,-6.47597 14.97222,-14.46469c0,-7.98872 -6.70319,-14.46469 -14.97222,-14.46469zm-2.40541,24.14332l-3.64261,-3.52213l6.37355,-6.15749l-6.37355,-6.1575l3.64261,-3.51914l10.0172,9.67664l-10.0172,9.67962z" stroke-linecap="null" stroke-linejoin="null" stroke-dasharray="null" stroke-width="0" fill="#ffffff" stroke="#000000"/>
  </a></g>


  <text fill="#3f3f3f" stroke="#000000" stroke-width="0" stroke-dasharray="null" stroke-linejoin="null" stroke-linecap="null" x="772.10043" y="542.0428" id="svg_83" font-size="24" font-family="serif" text-anchor="middle" xml:space="preserve"/>
  <g id="svg_180"/>

  <g stroke="null" display="inline">
  <title>產量和消費量</title>
  <text fill="#3f3f3f" stroke-width="0" stroke-dasharray="null" stroke-linejoin="null" stroke-linecap="null" x="500.80863" y="299.05559" font-size="24" font-family="serif" text-anchor="middle" xml:space="preserve" stroke="#000000" transform="matrix(0.6218598695260101,0,0,0.8339600683826007,150.07200719681742,-168.85835974593604) " id="svg_53">產量和消費量</text></g>

  <g stroke="null" display="inline">
  <title>中國石油天然氣發展簡史I</title>
  <text fill="#3f3f3f" stroke-width="0" stroke-dasharray="null" stroke-linejoin="null" stroke-linecap="null" x="477.21462" y="448.6571" font-size="24" font-family="serif" text-anchor="middle" xml:space="preserve" stroke="#000000" transform="matrix(0.5108823736386962,0,0,0.755532617180143,53.11016188895586,-56.46049270813647) " id="svg_84">中國石油天然氣發展簡史I</text></g>

  <g stroke="null" display="inline">
  <title>中國石油天然氣發展簡史II</title>
  <text fill="#3f3f3f" stroke-width="0" stroke-dasharray="null" stroke-linejoin="null" stroke-linecap="null" x="480.10705" y="404.89311" font-size="24" font-family="serif" text-anchor="middle" xml:space="preserve" stroke="#000000" transform="matrix(0.4464682778403567,0,0,0.7196864975873886,247.39342759565164,-8.487027294773192) " id="svg_86">中國石油天然氣發展簡史II</text></g>

  <g stroke="null" display="inline">
  <title>Speaker’s Biography</title>
  <text id="svg_27" fill="#007f3f" stroke-width="0" stroke-dasharray="null" stroke-linejoin="null" stroke-linecap="null" opacity="0.8" x="873.42024" y="89.07273" font-size="24" font-family="serif" text-anchor="middle" xml:space="preserve" font-style="italic" transform="matrix(0.7280527701259416,0,0,0.8188012338468919,170.34399353135802,-17.237344596451262) ">Speaker’s Biography</text></g>

  <g stroke="null" display="inline">
  <title>Abstract</title>
  <text id="svg_25" transform="matrix(0.7568021674665067,0,0,0.7036486022374717,4.421053627940253,52.47465491524535) " font-style="italic" fill="#007f3f" stroke-width="0" stroke-dasharray="null" stroke-linejoin="null" stroke-linecap="null" opacity="0.8" x="65.12461" y="175.66754" font-size="24" font-family="serif" text-anchor="middle" xml:space="preserve">Abstract</text></g>

  <g stroke="null" display="inline">
  <title>Development and Prospects of</title>
  <text id="svg_20" transform="matrix(0.5335781795074032,0,0,0.8032956866571789,223.4167974615774,40.06504198526046) " font-weight="bold" xml:space="preserve" text-anchor="middle" font-family="serif" font-size="24" y="13.06317" x="-201.30136" stroke-linecap="null" stroke-linejoin="null" stroke-dasharray="null" stroke-width="0" fill="#007f00">Development and Prospects of</text></g>

  <g stroke="null" display="inline">
  <title>Petroleum and Natural Gas in China</title>
  <text id="svg_23" transform="matrix(0.441140832326842,0,0,0.8514895956030669,204.2598982771815,23.17020523604038) " font-weight="bold" xml:space="preserve" text-anchor="middle" font-family="serif" font-size="24" y="52.63302" x="-197.81311" stroke-linecap="null" stroke-linejoin="null" stroke-dasharray="null" stroke-width="0" fill="#007f00">Petroleum and Natural Gas in China</text></g>

  <g stroke="null" display="inline">
  <title>05 March 2014</title>
  <text style="cursor: move;" id="svg_17" fill="#007f3f" stroke-width="0" stroke-dasharray="null" stroke-linejoin="null" stroke-linecap="null" opacity="0.8" x="93.37137" y="115.7387" font-size="24" font-family="serif" text-anchor="middle" xml:space="preserve" transform="matrix(0.43793279661001006,0,0,0.6221055754245057,110.60938383466765,77.51414684421667) " stroke="#000000">05 March 2014</text></g>
 </g>
 <g stroke="null" display="inline">
  <title>文字</title>

  <g stroke="null" display="inline">
  <title>中國內地著名石油天然氣專家梁狄剛教授為城大傑出講座系列主持最新一場演講，從歷史和現實的角度論述石油與天然氣這兩個能源產業的近況與前景。梁教授的演講題為「中國石油天然氣的發展與前景展望」，他引述自己從事地質工程的豐富經驗，說明如何運用土石力學的基本知識勘探新的油田和天然氣田，並估算現有油氣田的蘊藏量。梁教授引用大量統計數據，將中國內地與亞洲及世界其他國家相互比較，深入評估中國現時生產及消耗石油和天然氣的現狀，並嘗試解答全球都在思考的問題：我們應如何改進能源的使用？他認為，在21世紀初期，天然氣會在生產及消耗量方面取代石油的地位。他的結論是：「全球的石油時代終將結束，天然氣的產量將升上高峰，取代石油的地位。」梁教授認為，天然氣可滿足中國及世界各國的能源需求，對環境的損害遠低於燒煤。梁教授認為，北京可借鏡香港的做法，推動計程車改用液化石油氣為燃料，以減輕空氣污染。天然氣固然不是滿足中國能源需求的萬應靈丹，卻為解決問題帶來一線曙光。梁教授說：「中國的天然氣生產曾一度遠遜於石油生產，最近十年卻高速發展。」梁教授認為，討論能源問題時不可忽略核能發電。梁教授憑自己在油氣產業多年從事地質工程的經驗，他對天然氣的前景深感樂觀，認為將來天然氣即使不是能源之首，也必定會在未來多種能源的組合中佔有重要一席。
 
</title>
  <image stroke="null" x="27.00001" y="152.99999" width="175.99999" height="379" id="svg_1" xlink:href="https://c1.staticflickr.com/1/900/26359300297_8ed672df8f_o.png"/></g>

  <g stroke="null" display="inline">
  <title>梁教授為教授級高級工程師，全國勞動模範，能源工業特等勞模，國家人事部有突出貢獻中青年專家，石油工業首批有突出貢獻專家，獲全國五一勞動獎章及全國先進科技工作者，享受國務院政府特殊津貼；三次獲河北省勞動模範，石油工業部 “矢志不移獻身四化” 優秀知識分子。1960年畢業於成都地質學院。1978年以前在中國科學院蘭州地質研究所從事石油地質基礎研究。1978 - 1989年任華北油田研究院總地質師、副院長。1989年3月參加塔里木石油會戰，歷任會戰指揮部副總地質師、總地質師、副指揮。1998年2月任中國石油勘探開發研究院副院長，同年7月退休。現任中國石油天然氣集團公司諮詢中心專家委員會專家、中國石油學會石油地質專業委員會名譽委員、有機地球化學國家重點實驗室顧問委員會副主任。中國地學哲學委員會常務理事。
1973年撰寫、統編《青海湖綜合考察報告》一書，獲1978年全國科學大會成果獎，之後完成的《冀中坳陷生油層特徵及評價》獲河北省科技進步一等獎。1990年完成的《塔里木盆地油氣分佈規律及勘探方向》、1995年《塔中4油田的發現》、1996年《塔里木油氣資源開發與新疆經濟發展》，先後獲省部級科技進步一等獎、重大成果獎和中國發展研究獎一等獎；2000年完成的《塔里木盆地海相克拉通油氣勘探開發技術及其應用》、2001年《克拉2大氣田的發現和山地超高壓氣藏勘探技術》先後獲國家科技進步二等獎和一等獎（名列第二）。2003年《塔里木盆地油氣源與成藏研究》獲教育部科技進步一等獎。退休後完成的《中國石油股份公司油氣勘探戰略研究》獲2004年全國優秀工程諮詢成果一等獎。2005 - 2007年完成了南方海相烴源岩評價，為祖國頁岩氣資源開發提供了科學依據。梁教授現在繼續從事中國石油油氣勘探戰略研究。
</title>
  <image x="710" y="77.00003" width="187" height="544.99997" id="svg_36" xlink:href="https://c1.staticflickr.com/1/902/39422277460_49c0a7f3e0_o.png"/></g>
 </g>
</svg>