<svg width="904.9999999999999" height="640.0000000000002" xmlns="http://www.w3.org/2000/svg" xmlns:svg="http://www.w3.org/2000/svg" xmlns:xlink="http://www.w3.org/1999/xlink">
 <!-- Created with SVG-edit - http://svg-edit.googlecode.com/ -->
 <title>To Cultivate Chinese Legal Talents with International Outlook by Drawing on the Experience of Hong Kong System</title>
 <defs>
  <marker refY="50" refX="50" markerHeight="5" markerWidth="5" viewBox="0 0 100 100" orient="auto" markerUnits="strokeWidth" id="se_marker_mid_svg_36">
   <path stroke-width="10" fill="#000000" d="m100,50l-100,40l30,-40l-30,-40l100,40z" id="svg_1" stroke="#000000"/>
  </marker>
  <marker refY="50" refX="50" markerHeight="5" markerWidth="5" viewBox="0 0 100 100" orient="auto" markerUnits="strokeWidth" id="se_marker_mid_svg_38">
   <path stroke-width="10" fill="#000000" d="m100,50l-100,40l30,-40l-30,-40l100,40z" id="svg_3" stroke="#000000"/>
  </marker>
  <marker refY="50" refX="50" markerHeight="5" markerWidth="5" viewBox="0 0 100 100" orient="auto" markerUnits="strokeWidth" id="se_marker_mid_svg_41">
   <path stroke-width="10" fill="#000000" d="m100,50l-100,40l30,-40l-30,-40l100,40z" id="svg_4" stroke="#000000"/>
  </marker>
  <marker refY="50" refX="50" markerHeight="5" markerWidth="5" viewBox="0 0 100 100" orient="auto" markerUnits="strokeWidth" id="se_marker_mid_svg_44">
   <path stroke-width="10" fill="#000000" d="m100,50l-100,40l30,-40l-30,-40l100,40z" id="svg_6" stroke="#000000"/>
  </marker>
  <pattern id="gridpattern" patternUnits="userSpaceOnUse" x="0" y="0" width="100" height="100">
   <image id="svg_7" x="0" y="0" width="100" height="100"/>
  </pattern>
 </defs>
 <g display="none" stroke="null">
  <title>圖遮罩</title>
 </g>

 <g display="inline" stroke="null">
  <title>色塊</title>
  <rect id="svg_5" fill="#7f7f7f" stroke-width="0" x="383.55557" y="15.85186" width="160" height="200.99998" opacity="0.3" stroke="#000000"/>
  <rect id="svg_10" fill="#7f7f7f" stroke-width="0" x="219.00001" y="16.85187" width="160" height="201" opacity="0.3" stroke="#000000"/>
  <rect id="svg_11" fill="#7f7f7f" stroke-width="0" x="547.11112" y="15.85188" width="160" height="200.99998" opacity="0.3" stroke="#000000"/>
  <rect id="svg_12" fill="#7f7f7f" stroke-width="0" x="383.55556" y="222.40743" width="160" height="200.99998" opacity="0.3" stroke="#000000"/>
  <rect id="svg_13" fill="#7f7f7f" stroke-width="0" x="220.00001" y="223.40742" width="160" height="198.00001" opacity="0.3" stroke="#000000"/>
  <rect id="svg_14" fill="#7f7f7f" stroke-width="0" x="547.11112" y="222.40744" width="160" height="200.99998" opacity="0.3" stroke="#000000"/>
  <rect id="svg_16" fill="#7f7f7f" stroke-width="0" x="220" y="430.38564" width="160" height="195" opacity="0.3" stroke="#000000"/>
  <rect stroke="#000000" fill="#7f7f7f" stroke-width="0" x="9.94446" y="16.85182" width="205.11108" height="611.11114" opacity="0.3" id="svg_8"/>
  <rect stroke="#000000" fill="#7f7f7f" stroke-width="0" x="712.05555" y="14.8519" width="181.77775" height="607.11101" opacity="0.3" id="svg_9"/>
  <rect fill="none" stroke-width="5" x="36.66667" y="476.15741" width="164" height="159.5" id="svg_19" stroke="#ffffff"/>
  <rect fill="#7f003f" stroke-width="0" stroke-dasharray="null" stroke-linejoin="null" stroke-linecap="null" x="15.19167" y="203.32916" width="132" height="32" id="svg_21" stroke-opacity="0" stroke="#000000"/>
  <rect fill="#7f003f" stroke-width="0" stroke-dasharray="null" stroke-linejoin="null" stroke-linecap="null" x="742.0289" y="22.18333" width="148" height="52.66667" id="svg_22" stroke-opacity="0" stroke="#000000"/>
  <rect opacity="0.95" fill="#7f003f" stroke-width="0" stroke-dasharray="null" stroke-linejoin="null" stroke-linecap="null" x="16.11614" y="483.43334" width="132" height="35" id="svg_24" stroke-opacity="0" stroke="#000000"/>
  <rect fill="#7f7f7f" stroke-width="0" x="382.04939" y="429.15799" width="162.24539" height="195.79809" opacity="0.3" id="svg_76" stroke="#000000"/>
  <rect stroke="#000000" id="svg_46" fill="#7f7f7f" stroke-width="0" x="547.6773" y="427.7009" width="159.24538" height="195.79809" opacity="0.3"/>
 </g>
 <g display="inline" stroke="null">
  <title>圖片</title>
  <g display="inline" stroke="null">
  <title>Welcome's photo</title>
  <image x="42.66665" y="522.66665" width="153.00001" height="101" id="svg_92" xlink:href="https://farm5.staticflickr.com/4253/34972733482_7cab2250da_b.jpg"/>
  </g>
  <g display="inline" stroke="null">
  <title>Speaker's photo</title>
  <image stroke="null" x="15" y="91.99999" width="77.00001" height="94.00002" id="svg_37" xlink:href="https://c1.staticflickr.com/5/4533/24845496128_e6693edd08_o.jpg"/>
  </g>
  <g display="inline" stroke="null">
  <title>Part 2's photo</title>
  <image x="385.99999" y="108.75006" width="156.00001" height="111.99999" id="svg_48" xlink:href="https://farm5.staticflickr.com/4255/35006539151_726438d450_b.jpg"/>
  </g>
  <g display="inline" stroke="null">
  <title>Part 1's photo</title>
  <image x="220.00003" y="99.25004" width="158.99998" height="119.00003" id="svg_51" xlink:href="https://hongkong.consulfrance.org/local/cache-vignettes/L945xH712/90f54408a5e8808e-4ca3b.jpg"/>
  </g>
  <g display="inline" stroke="null">
  <title>Part 3's photo</title>
  <image x="548" y="110.25006" width="159" height="107" id="svg_52" xlink:href="https://c1.staticflickr.com/5/4577/38664012106_cb46f6e3eb_o.jpg"/>
  </g>
  <g display="inline" stroke="null">
  <title>Part 6's photo</title>
  <image x="544.25" y="311.5" width="164" height="112" id="svg_54" xlink:href="https://c1.staticflickr.com/5/4563/38664152276_c1797cf2db_o.jpg"/>
  </g>
  <g display="inline" stroke="null">
  <title>Part 5's photo</title>
  <image x="382.50006" y="313.75" width="160" height="111.99999" id="svg_67" xlink:href="https://c1.staticflickr.com/5/4548/38719445801_8cabedebf1_o.jpg"/>
  </g>
  <g display="inline" stroke="null">
  <title>Part 4's photo</title>
  <image x="218.75009" y="310.99997" width="159.99999" height="114.99999" id="svg_68" xlink:href="https://c1.staticflickr.com/5/4549/38687441592_e186f75e03_o.jpg"/>
  </g>
  <g display="inline" stroke="null">
  <title>Q&amp;A's photo</title>
  <image x="548.75004" y="513.25" width="157.99997" height="117" id="svg_72" xlink:href="https://farm5.staticflickr.com/4226/35006538371_0f2bd5b5fc_b.jpg"/>
  </g>
  <g display="inline" stroke="null">
  <title>Part 7's photo</title>
  <image x="218.35395" y="516.21641" width="161" height="111.00004" id="svg_77" xlink:href="https://farm5.staticflickr.com/4273/35006539221_f6b4cb7fa7_b.jpg"/>
  </g>
  <g display="inline" stroke="null">
  <title>Group's photo</title>
  <image xlink:href="https://farm5.staticflickr.com/4220/34750749490_80acaceccf_b.jpg" opacity="0.9" id="svg_104" height="133.99999" width="179.99998" y="493" x="714.40002"/>
  </g>
  <g display="inline" stroke="null">
  <title>Part 8's photo</title>
  <image xlink:href="https://farm5.staticflickr.com/4242/34972732382_ab24b23da0_b.jpg" opacity="0.9" id="svg_110" height="119.00002" width="161.00001" y="512.20001" x="382.79999"/>
  </g>
 </g>
 
 <g display="inline" stroke="null">
  <title>標題</title>
  <g stroke="null" display="inline">
  <title>The New Infectious Diseases:</title>
  <text transform="matrix(0.657348518905774,0,0,1.3637292668086338,317.65153193925363,45.68380806797522) " font-weight="normal" xml:space="preserve" text-anchor="middle" font-family="Serif" font-size="24" id="svg_45" y="-0.36847" x="-308.1276" stroke-linecap="null" stroke-linejoin="null" stroke-dasharray="null" stroke-width="0" fill="#bf0000">The New Infectious Diseases:</text>
  </g>
  <g stroke="null" display="inline">
  <title>Speaker&#x27;s</title>
  <text transform="matrix(0.8083012295862673,0,0,1.0491410499178497,169.0197248770754,-5.097797326150638) " font-style="italic" fill="#ffff00" stroke-width="0" stroke-dasharray="null" stroke-linejoin="null" stroke-linecap="null" opacity="0.8" x="778.19583" y="47.45703" id="svg_25" font-size="24" font-family="Monospace" text-anchor="middle" xml:space="preserve">Speaker&#x27;s</text>
  </g>
  <g stroke="null" display="inline">
  <title>Abstract</title>
  <text fill="#ffff00" stroke-width="0" stroke-dasharray="null" stroke-linejoin="null" stroke-linecap="null" opacity="0.8" x="75.29213" y="217.48825" id="svg_27" font-size="24" font-family="Serif" text-anchor="middle" xml:space="preserve" transform="matrix(0.977182208449163,0,0,1.0079346014612527,10.791850603395904,5.528505899521399) " font-style="italic">Abstract</text>
  </g>
  <g stroke="null" display="inline">
  <title>Welcome</title>
  <text transform="matrix(1.1202918690321606,0,0,0.9657777871784532,-5.030118400490471,19.871240600571102) " font-style="italic" fill="#ffff00" stroke-width="0" stroke-dasharray="null" stroke-linejoin="null" stroke-linecap="null" opacity="0.8" x="76.19962" y="507.32143" id="svg_30" font-size="24" font-family="Serif" text-anchor="middle" xml:space="preserve">Welcome</text>
  </g>
  <g stroke="null" display="inline">
  <title>Introduction</title>
  <text fill="#bf5f00" stroke-width="0" stroke-dasharray="null" stroke-linejoin="null" stroke-linecap="null" x="127.56652" y="-79.59939" id="svg_69" font-size="24" font-family="Serif" text-anchor="middle" xml:space="preserve" transform="matrix(0.6518575001842449,0,0,0.7842800666680709,212.51035470919734,144.17620838630535) " stroke="#000000">Introduction</text>
  </g>
  <g stroke="null" display="inline">
  <title>1976:</title>
  <text fill="#bf5f00" stroke-width="0" stroke-dasharray="null" stroke-linejoin="null" stroke-linecap="null" x="146.56164" y="436.95535" font-size="24" font-family="Serif" text-anchor="middle" xml:space="preserve" transform="matrix(0.7392677753861333,0,0,0.7121731672845291,194.6956571257286,-23.267434621712475) " id="svg_80" font-weight="normal" stroke="#000000">1976:</text>
  </g>
  <g stroke="null" display="inline">
  <title>Emerging Infectious</title>
  <text fill="#bf5f00" stroke-width="0" stroke-dasharray="null" stroke-linejoin="null" stroke-linecap="null" x="328.29219" y="-81.85887" font-size="24" font-family="Serif" text-anchor="middle" xml:space="preserve" transform="matrix(0.5742959705949868,0,0,0.73213251967329,274.04997926929786,135.2330108076636) " id="svg_87" stroke="#000000">Emerging Infectious</text>
  </g>
  <g stroke="null" display="inline">
  <title>Q&amp;A</title>
  <text fill="#bf5f00" stroke-width="0" stroke-dasharray="null" stroke-linejoin="null" stroke-linecap="null" x="219.0988" y="550.85274" font-size="24" font-family="Serif" text-anchor="middle" xml:space="preserve" transform="matrix(0.8492968233764453,0,0,0.7813621657981115,442.52458491297966,72.22652237958754) " id="svg_56" font-weight="normal" stroke="#000000">Q&amp;A</text>
  </g>
  
  <g stroke="null" display="inline">
  <title>Click to watch Part 1's video</title>
  <a id="svg_26" xlink:href="https://youtu.be/xmKN5eH20tg" stroke="null">
   <path id="svg_44" marker-mid="url(#se_marker_mid_svg_44)" d="m239.27154,185.68171c-8.26903,0 -14.97223,6.47597 -14.97223,14.46469c0,7.98872 6.7032,14.46469 14.97223,14.46469c8.26903,0 14.97222,-6.47597 14.97222,-14.46469c0,-7.98872 -6.70319,-14.46469 -14.97222,-14.46469zm-2.40541,24.14332l-3.64261,-3.52213l6.37355,-6.15749l-6.37355,-6.1575l3.64261,-3.51914l10.0172,9.67664l-10.0172,9.67962z" stroke-linecap="null" stroke-linejoin="null" stroke-dasharray="null" stroke-width="0" fill="#007f00" stroke="#000000"/>
  </a></g>
  <g stroke="null" display="inline">
  <title>Click to watch Part 2's video</title>
  <a id="svg_57" xlink:href="https://youtu.be/WICMQKlR24c" stroke="null">
   <path id="svg_43" marker-mid="url(#se_marker_mid_svg_44)" d="m401.77154,183.68171c-8.26903,0 -14.97223,6.47597 -14.97223,14.46469c0,7.98872 6.7032,14.46469 14.97223,14.46469c8.26903,0 14.97222,-6.47597 14.97222,-14.46469c0,-7.98872 -6.70319,-14.46469 -14.97222,-14.46469zm-2.40541,24.14332l-3.64261,-3.52213l6.37355,-6.15749l-6.37355,-6.1575l3.64261,-3.51914l10.0172,9.67664l-10.0172,9.67962z" stroke-linecap="null" stroke-linejoin="null" stroke-dasharray="null" stroke-width="0" fill="#007f00" stroke="#000000"/>
  </a></g>
  <g stroke="null" display="inline">
  <title>Click to watch Part 3's video</title>
  <a id="svg_58" xlink:href="https://youtu.be/ggW4CrMjkYQ" stroke="null">
   <path id="svg_42" marker-mid="url(#se_marker_mid_svg_44)" d="m564.27154,186.68172c-8.26903,0 -14.97223,6.47597 -14.97223,14.46469c0,7.98872 6.7032,14.46469 14.97223,14.46469c8.26903,0 14.97222,-6.47597 14.97222,-14.46469c0,-7.98872 -6.70319,-14.46469 -14.97222,-14.46469zm-2.40541,24.14331l-3.64261,-3.52212l6.37355,-6.1575l-6.37355,-6.15749l3.64261,-3.51914l10.0172,9.67663l-10.0172,9.67962z" stroke-linecap="null" stroke-linejoin="null" stroke-dasharray="null" stroke-width="0" fill="#007f00" stroke="#000000"/>
  </a></g>
  <g stroke="null" display="inline">
  <title>Click to watch Part 4's video</title>
  <a id="svg_59" xlink:href="https://youtu.be/Uh78xxg-ItA" stroke="null">
   <path id="svg_41" marker-mid="url(#se_marker_mid_svg_41)" d="m234.77154,388.93171c-8.26903,0 -14.97223,6.47597 -14.97223,14.46469c0,7.98872 6.7032,14.46469 14.97223,14.46469c8.26903,0 14.97222,-6.47597 14.97222,-14.46469c0,-7.98872 -6.70319,-14.46469 -14.97222,-14.46469zm-2.40541,24.14332l-3.64261,-3.52213l6.37355,-6.15749l-6.37355,-6.1575l3.64261,-3.51914l10.0172,9.67664l-10.0172,9.67962z" stroke-linecap="null" stroke-linejoin="null" stroke-dasharray="null" stroke-width="0" fill="#007f00" stroke="#000000"/>
  </a></g>
  <g stroke="null" display="inline">
  <title>Click to watch Welcome's video</title>
  <a id="svg_60" xlink:href="https://youtu.be/VmumJr11-1E" stroke="null">
   <path id="svg_20" marker-mid="url(#se_marker_mid_svg_38)" d="m173.27155,486.01506c-8.26903,0 -14.97223,6.47597 -14.97223,14.46469c0,7.98872 6.7032,14.46469 14.97223,14.46469c8.26903,0 14.97222,-6.47597 14.97222,-14.46469c0,-7.98872 -6.70319,-14.46469 -14.97222,-14.46469zm-2.40541,24.14332l-3.64261,-3.52213l6.37355,-6.15749l-6.37355,-6.1575l3.64261,-3.51914l10.0172,9.67664l-10.0172,9.67962z" stroke-linecap="null" stroke-linejoin="null" stroke-dasharray="null" stroke-width="0" fill="#007f00" stroke="#000000"/>
  </a></g>
  <g stroke="null" display="inline">
  <title>Click to watch Part 5's video</title>
  <a id="svg_70" xlink:href="https://youtu.be/zzVVeqiAHYE" stroke="null">
   <path id="svg_40" marker-mid="url(#se_marker_mid_svg_41)" d="m404.52154,390.43171c-8.26903,0 -14.97223,6.47597 -14.97223,14.46469c0,7.98872 6.7032,14.46469 14.97223,14.46469c8.26903,0 14.97222,-6.47597 14.97222,-14.46469c0,-7.98872 -6.70319,-14.46469 -14.97222,-14.46469zm-2.40541,24.14332c-1.2142,-1.17404 -2.42841,-2.34809 -3.64261,-3.52213l6.37355,-6.15749l-6.37355,-6.1575l3.64261,-3.51914l10.0172,9.67664l-10.0172,9.67962z" stroke-linecap="null" stroke-linejoin="null" stroke-dasharray="null" stroke-width="0" fill="#007f00" stroke="#000000"/>
  </a></g>
  <g stroke="null" display="inline">
  <title>Click to watch Part 6's video</title>
  <a id="svg_71" xlink:href="https://youtu.be/Z06jvKGTU4A" stroke="null">
   <path id="svg_39" marker-mid="url(#se_marker_mid_svg_41)" d="m565.02154,391.84839c-8.26903,0 -14.97223,6.47597 -14.97223,14.46469c0,7.98872 6.7032,14.46469 14.97223,14.46469c8.26903,0 14.97222,-6.47597 14.97222,-14.46469c0,-7.98872 -6.70319,-14.46469 -14.97222,-14.46469zm-2.40541,24.14331l-3.64261,-3.52212l6.37355,-6.1575l-6.37355,-6.15749l3.64261,-3.51914l10.0172,9.67663l-10.0172,9.67962z" stroke-linecap="null" stroke-linejoin="null" stroke-dasharray="null" stroke-width="0" fill="#007f00" stroke="#000000"/>
  </a></g>
  <g stroke="null" display="inline">
  <title>Click to watch Part 7's video</title>
  <a id="svg_74" xlink:href="https://youtu.be/mPqzO_1ChFI" stroke="null">
   <path marker-mid="url(#se_marker_mid_svg_36)" id="svg_36" d="m236.18821,593.01506c-8.26903,0 -14.97222,6.47597 -14.97222,14.46469c0,7.98872 6.7032,14.46469 14.97222,14.46469c8.26903,0 14.97222,-6.47597 14.97222,-14.46469c0,-7.98872 -6.7032,-14.46469 -14.97222,-14.46469zm-2.4054,24.14331l-3.64262,-3.52212l6.37355,-6.1575l-6.37355,-6.1575l3.64262,-3.51914l10.01719,9.67663l-10.01719,9.67962l0,0.00001z" stroke-linecap="null" stroke-linejoin="null" stroke-dasharray="null" stroke-width="0" fill="#007f00" stroke="#000000"/>
  </a></g>
  

  <text fill="#3f3f3f" stroke-width="0" stroke-dasharray="null" stroke-linejoin="null" stroke-linecap="null" x="772.10043" y="542.0428" id="svg_83" font-size="24" font-family="serif" text-anchor="middle" xml:space="preserve" stroke="#000000"/>
  <g id="svg_180" stroke="null"/>
  
  <g stroke="null" display="inline">
  <title>AIDS</title>
  <text fill="#bf5f00" stroke-width="0" stroke-dasharray="null" stroke-linejoin="null" stroke-linecap="null" x="422.39468" y="427.08744" font-size="24" font-family="Serif" text-anchor="middle" xml:space="preserve" transform="matrix(0.6592155808740499,0,0,0.734685910176699,185.997950410139,-15.961982083753881) " id="svg_34" font-weight="normal" stroke="#000000">AIDS</text>
  </g>
  <g stroke="null" display="inline">
  <title>Biography</title>
  <text fill="#ffff00" stroke-width="0" stroke-dasharray="null" stroke-linejoin="null" stroke-linecap="null" x="979.67305" y="86.30667" id="svg_49" font-size="24" font-family="Monospace" text-anchor="middle" xml:space="preserve" font-style="italic" transform="matrix(0.8305088434805419,0,0,0.9660372449556517,20.17527906937458,-16.686134670644353) " opacity="0.8">Biography</text>
  </g>
  <g stroke="null" display="inline">
  <title>Diseases of the past</title>
  <text fill="#bf5f00" stroke-width="0" stroke-dasharray="null" stroke-linejoin="null" stroke-linecap="null" x="380.86525" y="90.44121" id="svg_78" font-size="24" font-family="Serif" text-anchor="middle" xml:space="preserve" transform="matrix(0.6257513284067341,0,0,0.7176857327736269,224.64712680510902,32.223528878830905) " font-weight="normal" font-style="normal" stroke="#000000">Diseases of the past</text>
  </g>
  <g stroke="null" display="inline">
  <title>1870-1970:</title>
  <text fill="#bf5f00" stroke-width="0" stroke-dasharray="null" stroke-linejoin="null" stroke-linecap="null" x="1121.33744" y="-73.25744" id="svg_81" font-size="24" font-family="Serif" text-anchor="middle" xml:space="preserve" transform="matrix(0.6045661665665962,0,0,0.6962947955776636,-51.40278458491991,122.57203021602366) " stroke="#000000">1870-1970:</text>
  </g>
  <g stroke="null" display="inline">
  <title>The Turning Point</title>
  <text fill="#bf5f00" stroke-width="0" stroke-dasharray="null" stroke-linejoin="null" stroke-linecap="null" x="315.84804" y="322.515" id="svg_88" font-size="24" font-family="Serif" text-anchor="middle" xml:space="preserve" transform="matrix(0.6826022097383944,0,0,0.7532872323174398,85.85046888587219,62.78767197745073) " stroke="#000000">The Turning Point</text>
  </g>
  <g stroke="null" display="inline">
  <title>Microbe</title>
  <text fill="#bf5f00" stroke-width="0" stroke-dasharray="null" stroke-linejoin="null" stroke-linecap="null" x="645.5626" y="303.03712" id="svg_90" font-size="24" font-family="Serif" text-anchor="middle" xml:space="preserve" transform="matrix(0.6836858476218618,0,0,0.7288560416462583,183.57561344924034,70.39326405955505) " stroke="#000000">Microbe</text>
  </g>
  <g stroke="null" display="inline">
  <title>Adaptation</title>
  <text fill="#bf5f00" stroke-width="0" stroke-dasharray="null" stroke-linejoin="null" stroke-linecap="null" x="641.88955" y="319.79298" id="svg_91" font-size="24" font-family="Serif" text-anchor="middle" xml:space="preserve" transform="matrix(0.7848000800267798,0,0,0.7210521521941724,122.69195027459595,76.62795502922734) " stroke="#000000">Adaptation</text>
  </g>
  <g stroke="null" display="inline">
  <title>Where Do They Come From?</title>
  <text stroke="#000000" transform="matrix(0.6594834433662131,0,0,1.3115870952606201,41.71871529790626,-24.918205562978983) " font-weight="normal" xml:space="preserve" text-anchor="middle" font-family="Serif" font-size="24" id="svg_53" y="76.82514" x="109.82624" stroke-linecap="null" stroke-linejoin="null" stroke-dasharray="null" stroke-width="0" fill="#bf0000">Where Do They Come From?</text>
  </g>
  <g stroke="null" display="inline">
  <title>Prof. Maxime Schwartz</title>
  <text transform="matrix(0.5066145184884246,0,0,0.7923226616414474,71.37498003620222,60.77966377031248) " xml:space="preserve" text-anchor="middle" font-family="Serif" font-size="24" id="svg_55" y="114.6479" x="168.95238" opacity="0.9" stroke-linecap="null" stroke-linejoin="null" stroke-dasharray="null" stroke-width="0" fill="#003f7f">Prof. Maxime Schwartz</text>
  </g>
  <g stroke="null" display="inline">
  <title>Part 9 -</title>
  <text id="svg_79" transform="matrix(0.6925875873710534,0,0,0.7429880143019717,124.02564478721638,102.69179875817632) " xml:space="preserve" text-anchor="middle" font-family="Serif" font-size="24" y="502.70636" x="732.03378" stroke-linecap="null" stroke-linejoin="null" stroke-dasharray="null" stroke-width="0" fill="#003f7f" stroke="#000000">Part 9 -</text>
  </g>
  <g stroke="null" display="inline">
  <title>Part 8 -</title>
  <text id="svg_85" transform="matrix(0.6804705141078267,0,0,0.834437143302148,86.98780024852765,67.16188023293341) " xml:space="preserve" text-anchor="middle" font-family="Serif" font-size="24" y="488.89856" x="553.03934" stroke-linecap="null" stroke-linejoin="null" stroke-dasharray="null" stroke-width="0" fill="#003f7f" stroke="#000000">Part 8 -</text>
  </g>
  <g stroke="null" display="inline">
  <title>Discussion</title>
  <text stroke="#000000" transform="matrix(0.7942290704556286,0,0,0.6930179994585473,107.75110804170836,156.8441210171867) " xml:space="preserve" text-anchor="middle" font-family="Serif" font-size="24" id="svg_86" y="483.2" x="442.77091" opacity="0.9" stroke-linecap="null" stroke-linejoin="null" stroke-dasharray="null" stroke-width="0" fill="#bf5f00">Discussion</text>
  </g>
  <g stroke="null" display="inline">
  <title>&amp; Conclusion</title>
  <text stroke="#000000" transform="matrix(0.7722214911918854,0,0,0.7220077514648438,95.59463876125801,134.23550701141357) " xml:space="preserve" text-anchor="middle" font-family="Serif" font-size="24" id="svg_93" y="522.43529" x="474.38993" opacity="0.9" stroke-linecap="null" stroke-linejoin="null" stroke-dasharray="null" stroke-width="0" fill="#bf5f00">&amp; Conclusion</text>
  </g>
  <g stroke="null" display="inline">
  <title>Part 1 -</title>
  <text id="svg_94" transform="matrix(0.6804705141078267,0,0,0.7719377851062648,24.468195378058507,-76.02574688957198) " xml:space="preserve" text-anchor="middle" font-family="Serif" font-size="24" y="166.67295" x="401.55042" stroke-linecap="null" stroke-linejoin="null" stroke-dasharray="null" stroke-width="0" fill="#003f7f" stroke="#000000">Part 1 -</text>
  </g>
  <g stroke="null" display="inline">
  <title>Part 4 -</title>
  <text id="svg_95" transform="matrix(0.8107160912190287,0,0,0.7703453001371469,21.710601392778567,30.552212539614146) " xml:space="preserve" text-anchor="middle" font-family="Serif" font-size="24" y="308.51203" x="346.85779" stroke-linecap="null" stroke-linejoin="null" stroke-dasharray="null" stroke-width="0" fill="#003f7f" stroke="#000000">Part 4 -</text>
  </g>
  <g stroke="null" display="inline">
  <title>Part 2 -</title>
  <text id="svg_96" transform="matrix(0.6788834780553274,0,0,0.6728657568506241,76.2021478678248,-66.15773793936225) " xml:space="preserve" text-anchor="middle" font-family="Serif" font-size="24" y="175.51227" x="566.66889" stroke-linecap="null" stroke-linejoin="null" stroke-dasharray="null" stroke-width="0" fill="#003f7f" stroke="#000000">Part 2 -</text>
  </g>
  <g stroke="null" display="inline">
  <title>A Century of Successful War</title>
  <text id="svg_100" fill="#bf5f00" stroke-width="0" stroke-dasharray="null" stroke-linejoin="null" stroke-linecap="null" x="1217.68455" y="40.47371" font-size="24" font-family="Serif" text-anchor="middle" xml:space="preserve" transform="matrix(0.4714952127056893,0,0,0.7647868543506452,52.587362971952174,58.24437368141024) " stroke="#000000">A Century of Successful War</text>
  </g>
  <g stroke="null" display="inline">
  <title>Part 3 -</title>
  <text id="svg_101" transform="matrix(0.7067570361897856,0,0,0.7502889249792628,114.69255905332588,-76.83005727365885) " xml:space="preserve" text-anchor="middle" font-family="Serif" font-size="24" y="173.74139" x="723.35569" stroke-linecap="null" stroke-linejoin="null" stroke-dasharray="null" stroke-width="0" fill="#003f7f" stroke="#000000">Part 3 -</text>
  </g>
  <g stroke="null" display="inline">
  <title>Against Infectious Diseases</title>
  <text id="svg_102" fill="#bf5f00" stroke-width="0" stroke-dasharray="null" stroke-linejoin="null" stroke-linecap="null" x="1207.34707" y="65.39151" font-size="24" font-family="Serif" text-anchor="middle" xml:space="preserve" transform="matrix(0.5028908849978081,0,0,0.6718956615470956,19.35051130151043,61.563910289335844) " stroke="#000000">Against Infectious Diseases</text>
  </g>
  <g stroke="null" display="inline">
  <title>Part 7 -</title>
  <text id="svg_105" transform="matrix(0.7196626685758055,0,0,0.7424327577121539,8.14415542241619,94.05866504312368) " xml:space="preserve" text-anchor="middle" font-family="Serif" font-size="24" y="509.39955" x="402.49831" stroke-linecap="null" stroke-linejoin="null" stroke-dasharray="null" stroke-width="0" fill="#003f7f" stroke="#000000">Part 7 -</text>
  </g>
  <g stroke="null" display="inline">
  <title>Part 5 -</title>
  <text id="svg_106" transform="matrix(0.7835210392626463,0,0,0.7993314125199036,63.09570782696664,8.156840465361952) " xml:space="preserve" text-anchor="middle" font-family="Serif" font-size="24" y="327.21964" x="513.33808" stroke-linecap="null" stroke-linejoin="null" stroke-dasharray="null" stroke-width="0" fill="#003f7f" stroke="#000000">Part 5 -</text>
  </g>
  <g stroke="null" display="inline">
  <title>Part 6 -</title>
  <text id="svg_107" transform="matrix(0.7704413594902544,0,0,0.8309477903661387,75.69508720849063,-10.723591373587212) " xml:space="preserve" text-anchor="middle" font-family="Serif" font-size="24" y="339.60073" x="716.61628" stroke-linecap="null" stroke-linejoin="null" stroke-dasharray="null" stroke-width="0" fill="#003f7f" stroke="#000000">Part 6 -</text>
  </g>
  <g stroke="null" display="inline">
  <title>Influenza &amp;</title>
  <text stroke="#000000" transform="matrix(0.7256554565253026,0,0,0.7236084342002869,61.74359009575156,126.8982776477933) " xml:space="preserve" text-anchor="middle" font-family="Serif" font-size="24" id="svg_108" y="502.94747" x="323.93655" opacity="0.9" stroke-linecap="null" stroke-linejoin="null" stroke-dasharray="null" stroke-width="0" fill="#bf5f00">Influenza &amp;</text>
  </g>
  <g stroke="null" display="inline">
  <title>Chikungunya</title>
  <text xml:space="preserve" text-anchor="middle" font-family="Serif" font-size="24" id="svg_109" y="519.71544" x="308.54921" opacity="0.9" stroke-linecap="null" stroke-linejoin="null" stroke-dasharray="null" stroke-width="0" fill="#bf5f00" transform="matrix(0.7994939088821411,0,0,0.6805096633884431,49.14905558526516,155.37042770074743) " stroke="#000000">Chikungunya</text>
  </g>
  <g stroke="null" display="inline">
  <title>Click to watch Part 8's video</title>
  <a xlink:href="https://youtu.be/tg6Fq4xLvDA" id="svg_111">
   <path id="svg_47" marker-mid="url(#se_marker_mid_svg_36)" d="m400.79998,593.1353c-8.26903,0 -14.97222,6.47597 -14.97222,14.46469c0,7.98872 6.7032,14.46469 14.97222,14.46469c8.26903,0 14.97222,-6.47597 14.97222,-14.46469c0,-7.98872 -6.7032,-14.46469 -14.97222,-14.46469zm-2.4054,24.14331l-3.64262,-3.52212l6.37355,-6.1575l-6.37355,-6.1575l3.64262,-3.51914l10.01719,9.67663l-10.01719,9.67962l0,0.00001z" stroke-linecap="null" stroke-linejoin="null" stroke-dasharray="null" stroke-width="0" fill="#007f00" stroke="#000000"/>
  </a></g>
  <g stroke="null" display="inline">
  <title>Click to watch Q&amp;A's video</title>
  <a xlink:href="https://youtu.be/bRM5b9x1fy0" id="svg_112">
   <path id="svg_50" marker-mid="url(#se_marker_mid_svg_36)" d="m567.79998,591.13528c-8.26903,0 -14.97222,6.47597 -14.97222,14.46469c0,7.98872 6.7032,14.46469 14.97222,14.46469c8.26903,0 14.97222,-6.47597 14.97222,-14.46469c0,-7.98872 -6.7032,-14.46469 -14.97222,-14.46469zm-2.4054,24.14331l-3.64262,-3.52212l6.37355,-6.1575l-6.37355,-6.1575l3.64262,-3.51914l10.01719,9.67663l-10.01719,9.67962l0,0.00001z" stroke-linecap="null" stroke-linejoin="null" stroke-dasharray="null" stroke-width="0" fill="#007f00" stroke="#000000"/>
  </a></g>
  <g stroke="null" display="inline">
  <title>30 May 2014</title>
  <text transform="matrix(0.6470155815282939,0,0,0.6993078188268668,50.48690002135531,65.74325159305377) " xml:space="preserve" text-anchor="middle" font-family="Serif" font-size="24" y="153.08006" x="168.86016" opacity="0.9" stroke-linecap="null" stroke-linejoin="null" stroke-dasharray="null" stroke-width="0" fill="#003f7f" id="svg_15">30 May 2014</text>
  </g>
 </g>
 
  <g display="inline" stroke="null">
  <title>文字</title>
  <g stroke="null" display="inline">
  <title>
  Most of Professor 
  Schwartz’s scientific 
  work dealt with molecular 
  biology of bacteria. 
  He directed the Unit of 
  Molecular Genetics at 
  Institut Pasteur from 1975 to 1987. 
  He became the Scientific Director 
  of the institute from 1985 to 1987, 
  and then became its General Director, 
  a position which he 
  occupied for 12 years.
  </title>
  <image x="716.25" y="80.75" width="175.99999" height="399.99995" id="svg_38" xlink:href="https://c1.staticflickr.com/5/4537/24847609038_75be1107e3_o.jpg"/>
  </g>
  <g stroke="null" display="inline">
  <title>
  While everyone thought that 
  infectious diseases had 
  been defeated, 
  new infectious diseases 
  emerged during the past 
  forty years or so, 
  and some of them have been 
  threatening or still threaten 
  mankind as a whole. 
  </title>
  <image x="25.79998" y="232.40001" width="167.99998" height="242.00001" id="svg_32" xlink:href="https://c1.staticflickr.com/5/4542/38719781301_5954a1e899_o.jpg"/>
  </g>
 </g>
</svg>