<svg width="905.0000000000001" height="640.0000000000002" xmlns="http://www.w3.org/2000/svg" xmlns:svg="http://www.w3.org/2000/svg" xmlns:xlink="http://www.w3.org/1999/xlink">
 <!-- Created with SVG-edit - http://svg-edit.googlecode.com/ -->
 <title/>
 <defs>
  <marker refY="50" refX="50" markerHeight="5" markerWidth="5" viewBox="0 0 100 100" orient="auto" markerUnits="strokeWidth" id="se_marker_mid_svg_41">
   <path stroke-width="10" fill="#000000" d="m100,50l-100,40l30,-40l-30,-40l100,40z" id="svg_4" stroke="#000000"/>
  </marker>
  <marker refY="50" refX="50" markerHeight="5" markerWidth="5" viewBox="0 0 100 100" orient="auto" markerUnits="strokeWidth" id="se_marker_mid_svg_44">
   <path stroke-width="10" fill="#000000" d="m100,50l-100,40l30,-40l-30,-40l100,40z" id="svg_6" stroke="#000000"/>
  </marker>
  <pattern id="gridpattern" patternUnits="userSpaceOnUse" x="0" y="0" width="100" height="100">
   <image id="svg_7" x="0" y="0" width="100" height="100"/>
  </pattern>
 </defs>
 <g display="inline" stroke="null">
  <title>色塊</title>
  <rect fill="#ff0000" stroke-width="0" x="12.27779" y="16.85182" width="205.11108" height="611.11114" opacity="0.3" id="svg_8" stroke="#000000"/>
  <rect stroke="#000000" fill="#ff0000" stroke-width="0" x="713.05555" y="18.85192" width="177.77774" height="607.11575" opacity="0.3" id="svg_9"/>
  <rect stroke="#000000" fill="#7f0000" stroke-width="0" stroke-dasharray="null" stroke-linejoin="null" stroke-linecap="null" x="12.7187" y="150.12801" width="90.64727" height="25.75" id="svg_21"/>
  <rect fill="#7f0000" stroke-width="0" stroke-dasharray="null" stroke-linejoin="null" stroke-linecap="null" x="727.58457" y="26.50063" width="162.58225" height="29.28736" id="svg_22" stroke-opacity="0" stroke="#000000"/>
  <rect id="svg_27" fill="#ff7f00" stroke-width="0" x="223.97423" y="15.67707" width="479.72462" height="611.95012" opacity="0.3" stroke="#000000"/>
 </g>
 <g display="inline" stroke="null">
  <title>圖片</title>
  <g stroke="null" display="inline">
  <title>Speaker's photo</title>
  <image x="22.25" y="54.99999" width="69" height="94.00001" id="svg_2" xlink:href="https://c1.staticflickr.com/1/820/39068586680_dcaa080cb3_o.png"/></g>

  <g stroke="null" display="inline">
  <title>Welcoming's photo</title>
  <image stroke="null" xlink:href="https://farm5.staticflickr.com/4247/35006244901_556d643776_b.jpg" id="svg_13" height="80.74996" width="109.50002" y="544.00002" x="45.49998"/></g>

  <g stroke="null" display="inline">
  <title>Part 3's photo</title>
  <image stroke="null" x="254.50001" y="218.75" width="147.5" height="112.5" xlink:href="https://farm5.staticflickr.com/4236/34972428942_d30f363421_b.jpg" id="svg_16"/></g>

  <g stroke="null" display="inline">
  <title>Part 2's photo</title>
  <image stroke="null" x="476.99999" y="68.99998" width="202.75" height="96.25002" xlink:href="https://farm5.staticflickr.com/4198/34750487280_42bba7730b_b.jpg" id="svg_15"/></g>

  <g stroke="null" display="inline">
  <title>Part 8's photo</title>
  <image stroke="null" x="499.99999" y="516.5" width="152.25001" height="107.5" id="svg_28" xlink:href="https://farm5.staticflickr.com/4268/34750485750_a1a51407f7_b.jpg"/></g>

  <g stroke="null" display="inline">
  <title>photo</title>
  <image stroke="null" x="698.50001" y="503.00001" width="209.25" height="116.74999" id="svg_48" xlink:href="https://farm5.staticflickr.com/4288/35006242081_2e8f8c2010_b.jpg"/></g>

  <g stroke="null" display="inline">
  <title>Part 7's photo</title>
  <image stroke="null" x="250.25" y="506.75" width="154.75" height="131.25" id="svg_50" xlink:href="https://farm5.staticflickr.com/4217/34750485290_5c232bd477_b.jpg"/></g>

  <g stroke="null" display="inline">
  <title>Part 6's photo</title>
  <image stroke="null" x="502.75001" y="383" width="152.99999" height="101.75" id="svg_53" xlink:href="https://farm5.staticflickr.com/4258/35006242701_22845186da_b.jpg"/></g>

  <g stroke="null" display="inline">
  <title>Part 5's photo</title>
  <image stroke="null" x="247.25002" y="382.75" width="160.99999" height="100" id="svg_54" xlink:href="https://farm5.staticflickr.com/4282/35006245051_0d227e4782_b.jpg"/></g>

  <g stroke="null" display="inline">
  <title>Part 4's photo</title>
  <image stroke="null" x="498.49998" y="223.00002" width="157.50002" height="99.74999" id="svg_55" xlink:href="https://farm5.staticflickr.com/4287/35006242221_2fff35f717_b.jpg"/></g>

  <g stroke="null" display="inline">
  <title>Part 1's photo</title>
  <image stroke="null" xlink:href="https://farm5.staticflickr.com/4223/34750485540_f5f0ab7ff9_b.jpg" id="svg_17" height="113.25" width="146.5" y="61.25" x="257.5"/></g>
 </g>
 <g display="inline" stroke="null">
  <title>標題</title>

  <g stroke="null" display="inline">
  <title>The Roles of Higher Education</title>
  <text transform="matrix(0.5497863336378865,0,0,0.8429987416305944,208.999233460938,16.69452419587347) " font-weight="normal" xml:space="preserve" text-anchor="middle" font-family="Sans-serif" font-size="24" id="svg_45" y="28.24538" x="-169.19373" stroke-linecap="null" stroke-linejoin="null" stroke-dasharray="null" stroke-width="0" fill="#7f0000" opacity="0.85">The Roles of Higher Education</text></g>

  <g stroke="null" display="inline">
  <title>Prof. Arden L. Bement Jr.</title>
  <text fill="#7f0000" stroke-width="0" stroke-dasharray="null" stroke-linejoin="null" stroke-linecap="null" opacity="0.75" x="260.06408" y="215.60206" id="svg_31" font-size="24" font-family="Sans-serif" text-anchor="middle" xml:space="preserve" transform="matrix(0.411910357131982,0,0,0.7500867057678056,45.7254648415888,-37.161687869398335) " stroke="#000000">Prof. Arden L. Bement Jr.</text></g>

  <g stroke="null" display="inline">
  <title>Part 1</title>
  <text transform="matrix(0.6852525531961278,0,0,0.8581374507591564,239.83886199407058,173.89013940756683) " xml:space="preserve" text-anchor="middle" font-family="serif" font-size="24" y="-154.64754" x="36.76298" stroke-linecap="null" stroke-linejoin="null" stroke-dasharray="null" stroke-width="0" fill="#7f3f00" id="svg_61" stroke="#000000">Part 1-</text></g>

  <g stroke="null" display="inline">
  <title>Part 2</title>
  <text transform="matrix(0.7057301019324758,0,0,0.852671530414108,162.08714525870852,159.06363235798366) " xml:space="preserve" text-anchor="middle" font-family="serif" font-size="24" y="-135.07153" x="485.29822" stroke-linecap="null" stroke-linejoin="null" stroke-dasharray="null" stroke-width="0" fill="#7f3f00" id="svg_62" stroke="#000000">Part 2-</text></g>

  <g stroke="null" display="inline">
  <title>Part 3</title>
  <text transform="matrix(0.7375476284065259,0,0,0.7275577623466939,109.42734820604943,200.08014191071993) " xml:space="preserve" text-anchor="middle" font-family="serif" font-size="24" y="-10.9442" x="214.57395" stroke-linecap="null" stroke-linejoin="null" stroke-dasharray="null" stroke-width="0" fill="#7f3f00" id="svg_63" stroke="#000000">Part 3-</text></g>

  <g stroke="null" display="inline">
  <title>Part 4</title>
  <text transform="matrix(0.7004700642893935,0,0,0.8413947581219329,96.7470707542653,6.194356878831059) " xml:space="preserve" text-anchor="middle" font-family="serif" font-size="24" y="221.56099" x="609.01417" stroke-linecap="null" stroke-linejoin="null" stroke-dasharray="null" stroke-width="0" fill="#7f3f00" id="svg_64" stroke="#000000">Part 4-</text></g>

  <g stroke="null" display="inline">
  <title>Part 5</title>
  <text transform="matrix(0.7177410888089486,0,0,0.7668002194861657,-178.91994529808457,158.8242376828713) " xml:space="preserve" text-anchor="middle" font-family="serif" font-size="24" y="256.19583" x="628.02143" stroke-linecap="null" stroke-linejoin="null" stroke-dasharray="null" stroke-width="0" fill="#7f3f00" id="svg_65" stroke="#000000">Part 5-</text></g>

  <g stroke="null" display="inline">
  <title>Part 6</title>
  <text transform="matrix(0.710275932072888,0,0,0.7889903668265794,145.96713310357228,55.2385278377689) " xml:space="preserve" text-anchor="middle" font-family="serif" font-size="24" y="377.855" x="530.59931" stroke-linecap="null" stroke-linejoin="null" stroke-dasharray="null" stroke-width="0" fill="#7f3f00" id="svg_66" stroke="#000000">Part 6-</text></g>

  <g stroke="null" display="inline">
  <title>Welcoming</title>
  <text style="cursor: move;" font-style="italic" font-weight="bold" fill="#7f003f" stroke-width="0" stroke-dasharray="null" stroke-linejoin="null" stroke-linecap="null" x="152.4563" y="-117.59605" id="svg_69" font-size="24" font-family="serif" text-anchor="middle" xml:space="preserve" transform="matrix(0.8769107394781662,0,0,0.7843678932930667,-65.05716682534542,636.327670279192) " stroke="#000000" opacity="0.7">Welcoming</text></g>

  <g stroke="null" display="inline">
  <title>Key Factor to Innovation</title>
  <text fill="#7f003f" stroke-width="0" stroke-dasharray="null" stroke-linejoin="null" stroke-linecap="null" x="208.7151" y="427.52023" font-size="24" font-family="serif" text-anchor="middle" xml:space="preserve" transform="matrix(0.6608974169555291,0,0,0.8289229515203268,197.2942113201513,-142.95254294645338) " id="svg_80" font-weight="normal" opacity="0.7">Key Factor to Innovation</text></g>

  <g stroke="null" display="inline">
  <title>Introduction</title>
  <text fill="#7f003f" stroke-width="0" stroke-dasharray="null" stroke-linejoin="null" stroke-linecap="null" x="259.02455" y="-66.96614" font-size="24" font-family="serif" text-anchor="middle" xml:space="preserve" transform="matrix(0.7502931358060911,0,0,0.9307277486032193,136.50531081705608,123.24249369156136) " id="svg_87" opacity="0.7">Introduction</text></g>

  <g stroke="null" display="inline">
  <title>Click to watch Welcoming's video</title>
  <a id="svg_26" xlink:href="https://youtu.be/Op9WyhLvwQc" stroke="null">
   <path stroke="#000000" id="svg_44" marker-mid="url(#se_marker_mid_svg_44)" d="m61.30394,590.1044c-8.26903,0 -14.97223,6.47597 -14.97223,14.46469c0,7.98872 6.7032,14.46469 14.97223,14.46469c8.26903,0 14.97222,-6.47597 14.97222,-14.46469c0,-7.98872 -6.70319,-14.46469 -14.97222,-14.46469zm-2.40541,24.14332l-3.64261,-3.52213l6.37355,-6.15749l-6.37355,-6.1575l3.64261,-3.51914l10.0172,9.67664l-10.0172,9.67962z" stroke-linecap="null" stroke-linejoin="null" stroke-dasharray="null" stroke-width="0" fill="#7f003f"/>
  </a></g>

  <g stroke="null" display="inline">
  <title>Click to watch Part 1's video</title>
  <a id="svg_57" xlink:href="https://youtu.be/iJEblTEEVic" stroke="null">
   <path id="svg_43" marker-mid="url(#se_marker_mid_svg_44)" d="m271.22335,137.71625c-8.26903,0 -14.97223,6.47597 -14.97223,14.46469c0,7.98872 6.7032,14.46469 14.97223,14.46469c8.26903,0 14.97222,-6.47597 14.97222,-14.46469c0,-7.98872 -6.70319,-14.46469 -14.97222,-14.46469zm-2.40541,24.14332l-3.64261,-3.52213l6.37355,-6.15749l-6.37355,-6.1575l3.64261,-3.51914l10.0172,9.67664l-10.0172,9.67962z" stroke-linecap="null" stroke-linejoin="null" stroke-dasharray="null" stroke-width="0" fill="#7f003f" stroke="#000000"/>
  </a></g>

  <g stroke="null" display="inline">
  <title>>Click to watch Part 3's video</title>
  <a id="svg_58" xlink:href="https://youtu.be/7kVCS6uqspI" stroke="null">
   <path id="svg_42" marker-mid="url(#se_marker_mid_svg_44)" d="m267.72335,294.46978c-8.26903,0 -14.97223,6.47597 -14.97223,14.46469c0,7.98872 6.7032,14.46469 14.97223,14.46469c8.26903,0 14.97222,-6.47597 14.97222,-14.46469c0,-7.98872 -6.70319,-14.46469 -14.97222,-14.46469zm-2.40541,24.14331l-3.64261,-3.52212l6.37355,-6.1575l-6.37355,-6.15749l3.64261,-3.51914l10.0172,9.67663l-10.0172,9.67962z" stroke-linecap="null" stroke-linejoin="null" stroke-dasharray="null" stroke-width="0" fill="#7f003f" stroke="#000000"/>
  </a></g>

  <g stroke="null" display="inline">
  <title>>Click to watch Part 6's video</title>
  <a id="svg_59" xlink:href="https://youtu.be/zMM3sGpqS1I" stroke="null">
   <path stroke="#000000" id="svg_41" marker-mid="url(#se_marker_mid_svg_41)" d="m521.30391,452.57774c-8.26903,0 -14.97223,6.47597 -14.97223,14.46469c0,7.98872 6.7032,14.46469 14.97223,14.46469c8.26903,0 14.97222,-6.47597 14.97222,-14.46469c0,-7.98872 -6.70319,-14.46469 -14.97222,-14.46469zm-2.40541,24.14332l-3.64261,-3.52213l6.37355,-6.15749l-6.37355,-6.1575l3.64261,-3.51914l10.0172,9.67664l-10.0172,9.67962z" stroke-linecap="null" stroke-linejoin="null" stroke-dasharray="null" stroke-width="0" fill="#7f003f"/>
  </a></g>

  <g stroke="null" display="inline">
  <title>>Click to watch Part 2's video</title>
  <a id="svg_70" xlink:href="https://youtu.be/6-6A7sY4IZo" stroke="null">
   <path id="svg_40" marker-mid="url(#se_marker_mid_svg_41)" d="m519.80391,136.71979c-8.26903,0 -14.97223,6.47597 -14.97223,14.46469c0,7.98872 6.7032,14.46469 14.97223,14.46469c8.26903,0 14.97222,-6.47597 14.97222,-14.46469c0,-7.98872 -6.70319,-14.46469 -14.97222,-14.46469zm-2.40541,24.14332c-1.2142,-1.17404 -2.42841,-2.34809 -3.64261,-3.52213l6.37355,-6.15749l-6.37355,-6.1575l3.64261,-3.51914l10.0172,9.67664l-10.0172,9.67962z" stroke-linecap="null" stroke-linejoin="null" stroke-dasharray="null" stroke-width="0" fill="#7f003f" stroke="#000000"/>
  </a></g>

  <g stroke="null" display="inline">
  <title>>Click to watch Part 7's video</title>
  <a id="svg_71" xlink:href="https://youtu.be/y69kOxl25xo" stroke="null">
   <path stroke="#000000" id="svg_39" marker-mid="url(#se_marker_mid_svg_41)" d="m259.97331,592.57778c-8.26903,0 -14.97223,6.47597 -14.97223,14.46469c0,7.98872 6.7032,14.46469 14.97223,14.46469c8.26903,0 14.97222,-6.47597 14.97222,-14.46469c0,-7.98872 -6.70319,-14.46469 -14.97222,-14.46469zm-2.40541,24.14331l-3.64261,-3.52212l6.37355,-6.1575l-6.37355,-6.15749l3.64261,-3.51914l10.0172,9.67663l-10.0172,9.67962z" stroke-linecap="null" stroke-linejoin="null" stroke-dasharray="null" stroke-width="0" fill="#7f003f"/>
  </a></g>


  <text fill="#3f3f3f" stroke-width="0" stroke-dasharray="null" stroke-linejoin="null" stroke-linecap="null" x="772.10043" y="542.0428" id="svg_83" font-size="24" font-family="serif" text-anchor="middle" xml:space="preserve" stroke="#000000"/>
  <g id="svg_180" stroke="null"/>

  <g stroke="null" display="inline">
  <title>I&amp;E Ecosystem</title>
  <text fill="#7f003f" stroke-width="0" stroke-dasharray="null" stroke-linejoin="null" stroke-linecap="null" x="358.04811" y="505.76605" font-size="24" font-family="serif" text-anchor="middle" xml:space="preserve" transform="matrix(0.6643005027457575,0,0,0.7976509066381888,343.7703774254289,-191.09723400063334) " id="svg_34" font-weight="normal" opacity="0.7">I&amp;E Ecosystem</text></g>

  <g stroke="null" display="inline">
  <title>Abstract</title>
  <text id="svg_86" fill="#ffffff" stroke-width="0" stroke-dasharray="null" stroke-linejoin="null" stroke-linecap="null" opacity="0.8" x="-251.62321" y="135.89217" font-size="24" font-family="serif" text-anchor="middle" xml:space="preserve" transform="translate(554.5355224609375,435.7587890625) scale(1.1204942464828491,1.086641550064087) translate(-554.5355224609375,-435.7587890625) translate(554.274658203125,435.3764953613281) scale(1.0869497060775757,1.1274291276931763) translate(-554.274658203125,-435.3764953613281) translate(554.9812622070312,435.6423034667969) scale(0.7644617557525635,0.9113956093788147) translate(-554.9812622070312,-435.6423034667969) translate(388.8465576171875,441.1921691894531) scale(1.0136302709579468,0.8249392509460449) translate(-388.8465576171875,-441.1921691894531) translate(888.8558959960938,436.2577209472656) scale(0.9734276533126831,1) translate(-888.8558959960938,-436.2577209472656) translate(889.87255859375,504.8636779785156) scale(1) translate(-889.87255859375,-504.8636779785156) translate(889.914306640625,505.77667236328125) scale(1.0139044523239136,1.3043327331542969) translate(-889.914306640625,-505.77667236328125) translate(888.4232177734375,504.6651611328125) scale(1) translate(-888.4232177734375,-504.6651611328125) translate(888.3218994140625,504.255126953125) scale(0.9399330019950867,0.7570223808288574) translate(-888.3218994140625,-504.255126953125) translate(888.0772705078125,504.109619140625) scale(0.8550723195075989,0.9137715697288513) translate(-888.0772705078125,-504.109619140625) matrix(1.0937924253894378,0,0,1.0937924253894378,71.03591400341189,-39.500754610857044) " font-style="italic" stroke="null">Abstract</text></g>

  <g stroke="null" display="inline">
  <title>Why is I&amp;E Important</title>
  <text fill="#7f003f" stroke-width="0" stroke-dasharray="null" stroke-linejoin="null" stroke-linecap="null" x="455.24666" y="389.95272" font-size="24" font-family="serif" text-anchor="middle" xml:space="preserve" transform="matrix(0.6259877594663205,0,0,0.7694884690457375,298.44176393756265,-237.14651608064972) " opacity="0.7" id="svg_101">Why is I&amp;E Important</text></g>

  <g stroke="null" display="inline">
  <title>Speaker&#x27;s</title>
  <text transform="matrix(0.8406476094579095,0,0,0.8696967485759515,131.8161622722508,11.668342329910757) " font-style="italic" fill="#ffffff" stroke-width="0" stroke-dasharray="null" stroke-linejoin="null" stroke-linecap="null" opacity="0.8" x="760.19652" y="40.88475" font-size="24" font-family="Serif" text-anchor="middle" xml:space="preserve" stroke="null" id="svg_25">Speaker&#x27;s</text></g>

  <g stroke="null" display="inline">
  <title>Biography</title>
  <text fill="#ffffff" stroke-width="0" stroke-dasharray="null" stroke-linejoin="null" stroke-linecap="null" x="1932.47169" y="-68.99686" font-size="24" font-family="serif" text-anchor="middle" xml:space="preserve" font-style="italic" transform="matrix(0.7681051001511282,0,0,0.8530227157745391,-636.4639586873427,105.59283439791079) " opacity="0.8" stroke="null" id="svg_49">Biography</text></g>

  <g stroke="null" display="inline">
  <title>Looking for future</title>
  <text id="svg_30" fill="#7f003f" stroke-width="0" stroke-dasharray="null" stroke-linejoin="null" stroke-linecap="null" x="691.95035" y="656.94374" font-size="24" font-family="serif" text-anchor="middle" xml:space="preserve" transform="matrix(0.6669668424464633,0,0,0.7576691029412405,-106.74248582040208,16.576063443812863) " font-weight="normal" opacity="0.7">Looking for future</text></g>

  <g stroke="null" display="inline">
  <title>in Innovation and Globalization</title>
  <text id="svg_3" transform="matrix(0.49077819642969567,0,0,0.833621641196527,193.91017989108295,8.67560002860458) " font-weight="normal" xml:space="preserve" text-anchor="middle" font-family="Sans-serif" font-size="24" y="56.79513" x="-151.70907" stroke-linecap="null" stroke-linejoin="null" stroke-dasharray="null" stroke-width="0" fill="#7f0000" opacity="0.85">in Innovation and Globalization</text></g>

  <g stroke="null" display="inline">
  <title>Part 7</title>
  <text id="svg_14" transform="matrix(0.6200039057760877,0,0,0.8507387499658413,125.1122601431253,296.957606346355) " xml:space="preserve" text-anchor="middle" font-family="serif" font-size="24" y="255.58549" x="228.12878" stroke-linecap="null" stroke-linejoin="null" stroke-dasharray="null" stroke-width="0" fill="#7f3f00" stroke="#000000">Part 7-</text></g>

  <g stroke="null" display="inline">
  <title>Element of I&amp;E Infrastrature</title>
  <text id="svg_52" fill="#7f003f" stroke-width="0" stroke-dasharray="null" stroke-linejoin="null" stroke-linecap="null" x="237.49276" y="591.03217" font-size="24" font-family="serif" text-anchor="middle" xml:space="preserve" transform="matrix(0.5786038861880617,0,0,0.8620247052891297,198.83557102786776,-134.6888167744541) " font-weight="normal" opacity="0.7">Element of I&amp;E Infrastrature</text></g>

  <g stroke="null" display="inline">
  <title>Purdue University’s Ecosystem</title>
  <text fill="#7f003f" stroke-width="0" stroke-dasharray="null" stroke-linejoin="null" stroke-linecap="null" x="580.23123" y="595.69493" font-size="24" font-family="serif" text-anchor="middle" xml:space="preserve" transform="matrix(0.5720278536284579,0,0,0.9524538917333867,252.60288352446682,-191.18905646461684) " font-weight="normal" opacity="0.7" id="svg_18">Purdue University’s Ecosystem</text></g>

  <g stroke="null" display="inline">
  <title>Part 8</title>
  <text transform="matrix(0.6393413593823727,0,0,0.7865093211716359,204.86097243598016,306.6172801551346) " xml:space="preserve" text-anchor="middle" font-family="serif" font-size="24" y="260.95636" x="507.20183" stroke-linecap="null" stroke-linejoin="null" stroke-dasharray="null" stroke-width="0" fill="#7f3f00" stroke="#000000" id="svg_19">Part 8-</text></g>

  <g stroke="null" display="inline">
  <title>>Click to watch Part 4's video</title>
  <a id="svg_23" xlink:href="https://youtu.be/lbzvnKOn7ZE">
   <path id="svg_47" marker-mid="url(#se_marker_mid_svg_41)" d="m518.80393,292.24237c-8.26903,0 -14.97223,6.47597 -14.97223,14.46469c0,7.98872 6.7032,14.46469 14.97223,14.46469c8.26903,0 14.97222,-6.47597 14.97222,-14.46469c0,-7.98872 -6.70319,-14.46469 -14.97222,-14.46469zm-2.40541,24.14332c-1.2142,-1.17404 -2.42841,-2.34809 -3.64261,-3.52213l6.37355,-6.15749l-6.37355,-6.1575l3.64261,-3.51914l10.0172,9.67664l-10.0172,9.67962z" stroke-linecap="null" stroke-linejoin="null" stroke-dasharray="null" stroke-width="0" fill="#7f003f" stroke="#000000"/>
  </a></g>

  <g stroke="null" display="inline">
  <title>>Click to watch Part 5's video</title>
  <a id="svg_24" xlink:href="https://youtu.be/wnubiDCNZCc">
   <path id="svg_46" marker-mid="url(#se_marker_mid_svg_44)" d="m264.97335,453.49236c-8.26903,0 -14.97223,6.47597 -14.97223,14.46469c0,7.98872 6.7032,14.46469 14.97223,14.46469c8.26903,0 14.97222,-6.47597 14.97222,-14.46469c0,-7.98872 -6.70319,-14.46469 -14.97222,-14.46469zm-2.40541,24.14331l-3.64261,-3.52212l6.37355,-6.1575l-6.37355,-6.15749l3.64261,-3.51914l10.0172,9.67663l-10.0172,9.67962z" stroke-linecap="null" stroke-linejoin="null" stroke-dasharray="null" stroke-width="0" fill="#7f003f" stroke="#000000"/>
  </a></g>

  <g stroke="null" display="inline">
  <title>Ｑ＆Ａ</title>
  <text id="svg_5" fill="#7f003f" stroke-width="0" stroke-dasharray="null" stroke-linejoin="null" stroke-linecap="null" x="703.20735" y="639.54179" font-size="24" font-family="serif" text-anchor="middle" xml:space="preserve" transform="matrix(0.6979869466286612,0,0,0.7862602753509832,100.05447880741893,6.995509472028659) " font-weight="normal" opacity="0.7">Ｑ＆Ａ</text></g>

  <g stroke="null" display="inline">
  <title>>Click to watch Part 8's video</title>
  <a xlink:href="https://youtu.be/c_lonKNWcM8" id="svg_12">
   <path id="svg_11" stroke="#000000" marker-mid="url(#se_marker_mid_svg_41)" d="m516.49998,592.03533c-8.26903,0 -14.97223,6.47597 -14.97223,14.46469c0,7.98872 6.7032,14.46469 14.97223,14.46469c8.26903,0 14.97222,-6.47597 14.97222,-14.46469c0,-7.98872 -6.70319,-14.46469 -14.97222,-14.46469zm-2.40541,24.14331l-3.64261,-3.52212l6.37355,-6.1575l-6.37355,-6.15749l3.64261,-3.51914l10.0172,9.67663l-10.0172,9.67962z" stroke-linecap="null" stroke-linejoin="null" stroke-dasharray="null" stroke-width="0" fill="#7f003f"/>
  </a></g>

  <g stroke="null" display="inline">
  <title>24 April 2014</title>
  <text id="svg_10" fill="#7f0000" stroke-width="0" stroke-dasharray="null" stroke-linejoin="null" stroke-linecap="null" opacity="0.75" x="281.72823" y="242.23622" font-size="24" font-family="Sans-serif" text-anchor="middle" xml:space="preserve" transform="matrix(0.5823267967540544,0,0,0.6422664272803761,-12.80178712552685,-13.390623294683712) " stroke="#000000">24 April 2014</text></g>
 </g>
 <g display="inline" stroke="null">
  <title>文字</title>

  <g stroke="null" display="inline">
  <title>The Roles of Higher Education in Innovation and Globalization As the 21st Century unfolds nations and their research universities are focusing on ‘global disruptive technologies’, such as ‘nanotech, biotech, and infotech’, to create economic growth and improve quality of life for their burgeoning populations. As the global recession set in near the end of the first decade, government economic development agencies began focusing on strengthening their national systems of innovation and entrepreneurship to shorten the lead time from new concept creation to prototype development and evaluation, and to commercial scale up. Because of the ever accelerating pace of new technology development, national innovation systems being developed are providing a stronger role for research universities to accelerate new technology transfers in those ‘disruptive technologies’ that can help create new markets and value networks in business and industrial sectors. While innovation is not considered to be an academic discipline, it is becoming an essential complement to formal disciplinary preparation to provide early undergraduate exposure to experimentation and idea creation with an aim toward commercial application. Since new economic development and enterprise creation has been and is increasingly becoming an interleaved global process of enterprise integration, international partnerships and collaborations among leading research universities around the world is an important consideration. Of particular importance is the need to collectively explore the nebular regions beyond currently understood scientific frontiers to anticipate where new salients of discovery are likely to emerge. To avoid this new reality is to become ‘blindsided’ to potential disruptions to existing markets resulting from global developments of new, high-growth-rate, general-purpose technologies (GPTs).
</title>
  <image stroke="null" x="30.75" y="156.25005" width="163.24998" height="394.74995" id="svg_56" xlink:href="https://c1.staticflickr.com/1/810/40837060782_b977a4f4ce_o.png"/></g>

  <g stroke="null" display="inline">
  <title>Professor Arden L. Bement Jr. is the Inaugural Director Emeritus of the Purdue University’s Global Policy Research Institute and Purdue’s Chief Global Affairs Officer Emeritus. Professor Bement joined the Purdue faculty in 1992 after a 39-year career in industry, government and academia. He took a ten-year leave of absence from Purdue in 2001 to serve as the Director of the National Institute of Standards and Technology (2001–2004) and Director of the U.S. National Science Foundation (2004–2010). He served as a member of the U.S. National Commission for UNESCO and as the vice-chair of the Commission’s Natural Sciences and Engineering Committee. He is a member of the U.S. National Academy of Engineering (30-year pin), European Science Academy, Pan American Academy of Engineering, Washington, D.C. Science Academy, and Indiana Science Academy. He is a fellow of the American Academy of Arts and Sciences, and fellow of the American Association for the Advancement of Science.He is a retired Lieutenant Colonel of the U.S. Army Corps of Engineers. He has been awarded the Distinguished Service Medal of the Department of Defense; the Order of the Rising Sun, Gold and Silver Star, from the Empire of Japan and the Chevalier dans l’Ordre National de la Légion d’Honneur from the French Republic. The Indiana Governor awarded him the rank and title of 'Sagamore of the Wabash' in 2012.
</title>
  <image x="716" y="36" width="175" height="461" id="svg_60" xlink:href="https://c1.staticflickr.com/1/784/40837107032_48ae3eff21_o.png"/></g>
 </g>
</svg>