<svg width="905" height="640.0000000000001" xmlns="http://www.w3.org/2000/svg" xmlns:svg="http://www.w3.org/2000/svg" xmlns:xlink="http://www.w3.org/1999/xlink">
 <!-- Created with SVG-edit - http://svg-edit.googlecode.com/ -->
 <title>王道的世紀——永續發展 只欠東風 The Rule-by-Virtue Century——The Missing Element for Sustainable Development</title>
 <defs>
  <marker refY="50" refX="50" markerHeight="5" markerWidth="5" viewBox="0 0 100 100" orient="auto" markerUnits="strokeWidth" id="se_marker_mid_svg_36">
   <path stroke-width="10" fill="#000000" d="m168.20701,237.55374l-85.41754,38.59124l25.62526,-38.59124l-25.62526,-38.59124l85.41754,38.59124z" id="svg_1" stroke="#000000"/>
  </marker>
  <marker refY="50" refX="50" markerHeight="5" markerWidth="5" viewBox="0 0 100 100" orient="auto" markerUnits="strokeWidth" id="se_marker_mid_svg_37">
   <path stroke-width="10" fill="#000000" d="m100,50l-100,40l30,-40l-30,-40l100,40z" id="svg_2" stroke="#000000"/>
  </marker>
  <marker refY="50" refX="50" markerHeight="5" markerWidth="5" viewBox="0 0 100 100" orient="auto" markerUnits="strokeWidth" id="se_marker_mid_svg_38">
   <path stroke-width="10" fill="#000000" d="m283.85573,64.76907l-54.50378,38.51647l16.35113,-38.51647l-16.35113,-38.51647l54.50378,38.51647z" id="svg_3" stroke="#000000"/>
  </marker>
  <marker refY="50" refX="50" markerHeight="5" markerWidth="5" viewBox="0 0 100 100" orient="auto" markerUnits="strokeWidth" id="se_marker_mid_svg_41">
   <path stroke-width="10" fill="#000000" d="m100,50l-100,40l30,-40l-30,-40l100,40z" id="svg_4" stroke="#000000"/>
  </marker>
  <marker refY="50" refX="50" markerHeight="5" markerWidth="5" viewBox="0 0 100 100" orient="auto" markerUnits="strokeWidth" id="se_marker_mid_svg_44">
   <path stroke-width="10" fill="#000000" d="m100,50l-100,40l30,-40l-30,-40l100,40z" id="svg_6" stroke="#000000"/>
  </marker>
  <pattern id="gridpattern" patternUnits="userSpaceOnUse" x="0" y="0" width="100" height="100">
   <image id="svg_7" x="0" y="0" width="100" height="100"/>
  </pattern>
 </defs>
 <g display="inline" stroke="null">
  <title>色塊</title>
  <rect stroke="#000000" id="svg_5" fill="#ffaaaa" stroke-width="0" x="383.55557" y="15.85186" width="160" height="200.99998" opacity="0.3"/>
  <rect stroke="#000000" id="svg_10" fill="#ffaaaa" stroke-width="0" x="219.00001" y="16.85187" width="160" height="201" opacity="0.3"/>
  <rect stroke="#000000" id="svg_11" fill="#ffaaaa" stroke-width="0" x="547.11112" y="15.85188" width="160" height="200.99998" opacity="0.3"/>
  <rect stroke="#000000" id="svg_12" fill="#ffaaaa" stroke-width="0" x="383.55556" y="219.40743" width="160" height="200.99998" opacity="0.3"/>
  <rect stroke="#000000" id="svg_13" fill="#ffaaaa" stroke-width="0" x="219.00001" y="220.40742" width="160" height="201.00001" opacity="0.3"/>
  <rect stroke="#000000" id="svg_14" fill="#ffaaaa" stroke-width="0" x="547.11112" y="219.40744" width="160" height="200.99998" opacity="0.3"/>
  <rect stroke="#000000" id="svg_15" fill="#ffaaaa" stroke-width="0" x="383.55556" y="422.96296" width="160" height="204" opacity="0.3"/>
  <rect stroke="#000000" id="svg_16" fill="#ffaaaa" stroke-width="0" x="219" y="423.96297" width="160" height="203.99999" opacity="0.3"/>
  <rect stroke="#000000" id="svg_17" fill="#ffaaaa" stroke-width="0" x="547.11112" y="422.96296" width="160" height="204" opacity="0.3"/>
  <rect stroke="#000000" fill="#ffaaaa" stroke-width="0" x="15.94447" y="16.85182" width="199.11107" height="611.11114" opacity="0.3" id="svg_8"/>
  <rect stroke="#000000" fill="#ffaaaa" stroke-width="0" x="712.05555" y="14.8519" width="177.77774" height="612.11106" opacity="0.3" id="svg_9"/>
  <rect fill="#ffaaaa" stroke-width="5" stroke-dasharray="null" stroke-linejoin="null" stroke-linecap="null" x="19.9622" y="163.467" width="82.4692" height="22" id="svg_21"/>
  <rect fill="#ffaaaa" stroke-width="5" stroke-dasharray="null" stroke-linejoin="null" stroke-linecap="null" x="752.0289" y="34.85" width="138" height="33.66667" id="svg_22"/>
 </g>
 <g display="inline" stroke="null">
  <title>圖片</title>

  <g stroke="null" display="inline">
  <title>Speaker's photo</title>
  <image x="20" y="75" width="65" height="83" id="svg_19" xlink:href="https://c1.staticflickr.com/1/883/41046780232_28d6268936_o.png"/></g>

  <g stroke="null" display="inline">
  <title>Welcoming's photo</title>
  <image x="40.75" y="507.5" width="144.00001" height="109" id="svg_28" xlink:href="https://farm5.staticflickr.com/4232/35136245615_d98ace100c_b.jpg"/></g>

  <g stroke="null" display="inline">
  <title>Part 2's photo</title>
  <image x="386.16666" y="104.83333" width="153.91668" height="116.24999" id="svg_29" xlink:href="https://farm5.staticflickr.com/4281/34326127183_705182c576_b.jpg"/></g>

  <g stroke="null" display="inline">
  <title>Part 3's photo</title>
  <image x="551.24997" y="102.75001" width="153.91667" height="119.49999" id="svg_30" xlink:href="https://farm5.staticflickr.com/4227/34326126653_8949a66189_b.jpg"/></g>

  <g stroke="null" display="inline">
  <title>Part 4's photo</title>
  <image x="218.33335" y="310.75" width="161.33332" height="106.74999" id="svg_32" xlink:href="https://farm5.staticflickr.com/4275/35136247265_777731ac31_b.jpg"/></g>

  <g stroke="null" display="inline">
  <title>Part 5's photo</title>
  <image x="383.5833" y="301.58332" width="159" height="122.66668" id="svg_33" xlink:href="https://farm5.staticflickr.com/4223/35136246845_4f5c4bcbbb_b.jpg"/></g>

  <g stroke="null" display="inline">
  <title>photo</title>
  <image x="551.50004" y="516.16665" width="153.66665" height="118.49999" id="svg_34" xlink:href="https://farm5.staticflickr.com/4224/35136246255_3b86c62100_b.jpg"/></g>

  <g stroke="null" display="inline">
  <title>Part 7's photo</title>
  <image x="223.33335" y="512.16667" width="155.0833" height="128.25" id="svg_46" xlink:href="https://farm5.staticflickr.com/4271/34326126473_588e775cf0_b.jpg"/></g>

  <g stroke="null" display="inline">
  <title>Part 6's photo</title>
  <image x="533.66665" y="310.75001" width="187.9167" height="104.33335" id="svg_47" xlink:href="https://farm5.staticflickr.com/4235/34326126943_677a0d342d_b.jpg"/></g>

  <g stroke="null" display="inline">
  <title>Part 8's photo</title>
  <image x="369.50004" y="525.33333" width="189.24999" height="102.91667" id="svg_48" xlink:href="https://farm5.staticflickr.com/4253/34326126163_87912162ec_b.jpg"/></g>

  <g stroke="null" display="inline">
  <title>Part 1's photo</title>
  <image x="221.75" y="82.125" width="156.5" height="163.25" xlink:href="https://farm5.staticflickr.com/4200/34326125823_0834482e21_b.jpg" id="svg_51"/></g>
 </g>
 <g display="inline" stroke="null">
  <title>標題</title>
  <g stroke="null" display="inline">
  <title>王道的世紀——永續發展 只欠東風</title>
  <text transform="matrix(0.48209965127603216,0,0,0.7071541149464976,204.20882370165336,39.010955694066325) " font-weight="bold" xml:space="preserve" text-anchor="middle" font-family="serif" font-size="24" id="svg_45" y="-3.31029" x="-186.04199" stroke-linecap="null" stroke-linejoin="null" stroke-dasharray="null" stroke-width="0" fill="#7f003f">王道的世紀——永續發展 只欠東風</text></g>

  <g stroke="null" display="inline">
  <title>Dr Liu Chao-shiuan</title>
  <text style="cursor: move;" fill="#7f0000" stroke-width="0" stroke-dasharray="null" stroke-linejoin="null" stroke-linecap="null" opacity="0.8" x="107.60557" y="217.2619" id="svg_31" font-size="24" font-family="serif" text-anchor="middle" xml:space="preserve" transform="matrix(0.3874988150097902,0,0,0.6763227813173827,108.18397636313479,-10.646364429820657) " stroke="#000000">Dr Liu Chao-shiuan</text></g>

  <g stroke="null" display="inline">
  <title>Part 1</title>
  <text transform="matrix(0.7853635646014729,0,0,0.9675877999311164,232.20746782903842,199.44138998945212) " xml:space="preserve" text-anchor="middle" font-family="serif" font-size="24" y="-146.16965" x="32.91074" stroke-linecap="null" stroke-linejoin="null" stroke-dasharray="null" stroke-width="0" fill="#3f3f3f" stroke="#000000" id="svg_61">Part 1-</text></g>

  <g stroke="null" display="inline">
  <title>Part 2</title>
  <text transform="matrix(0.8046399807293222,0,0,0.89082681195205,209.24884135846304,173.50316136241375) " xml:space="preserve" text-anchor="middle" font-family="serif" font-size="24" y="-130.34639" x="275.81334" stroke-linecap="null" stroke-linejoin="null" stroke-dasharray="null" stroke-width="0" fill="#3f3f3f" stroke="#000000" id="svg_62">Part 2-</text></g>

  <g stroke="null" display="inline">
  <title>Part 3</title>
  <text transform="matrix(0.7995426771178653,0,0,0.90195416529694,149.96898113426553,180.62830300509867) " xml:space="preserve" text-anchor="middle" font-family="serif" font-size="24" y="-136.85122" x="561.37779" stroke-linecap="null" stroke-linejoin="null" stroke-dasharray="null" stroke-width="0" fill="#3f3f3f" stroke="#000000" id="svg_63">Part 3-</text></g>

  <g stroke="null" display="inline">
  <title>Part 4</title>
  <text stroke="#000000" transform="matrix(0.8033469139585245,0,0,0.891218298347853,5.290608833146912,23.551091235000577) " xml:space="preserve" text-anchor="middle" font-family="serif" font-size="24" y="261.69375" x="317.28488" stroke-linecap="null" stroke-linejoin="null" stroke-dasharray="null" stroke-width="0" fill="#3f3f3f" id="svg_64">Part 4-</text></g>

  <g stroke="null" display="inline">
  <title>Part 5</title>
  <text stroke="#000000" transform="matrix(0.8514039584502349,0,0,0.8744129617689576,25.16126887348465,21.31794285437198) " xml:space="preserve" text-anchor="middle" font-family="serif" font-size="24" y="268.77799" x="475.58169" stroke-linecap="null" stroke-linejoin="null" stroke-dasharray="null" stroke-width="0" fill="#3f3f3f" id="svg_65">Part 5-</text></g>

  <g stroke="null" display="inline">
  <title>Part 6</title>
  <text stroke="#000000" transform="matrix(0.7724633878139003,0,0,0.8310313428393854,101.63363501274983,31.514732258734746) " xml:space="preserve" text-anchor="middle" font-family="serif" font-size="24" y="267.48421" x="638.89855" stroke-linecap="null" stroke-linejoin="null" stroke-dasharray="null" stroke-width="0" fill="#3f3f3f" id="svg_66">Part 6-</text></g>

  <g stroke="null" display="inline">
  <title>Part 7</title>
  <text stroke="#000000" transform="matrix(0.7451652614531815,0,0,0.8485739531934361,44.19970538300441,54.40536175862991) " xml:space="preserve" text-anchor="middle" font-family="serif" font-size="24" y="484.57472" x="294.73306" stroke-linecap="null" stroke-linejoin="null" stroke-dasharray="null" stroke-width="0" fill="#3f3f3f" id="svg_67">Part 7-</text></g>

  <g stroke="null" display="inline">
  <title>Part 8</title>
  <text stroke="#000000" transform="matrix(0.8276335613979596,0,0,0.9951314469882391,25.732963243015988,-3.5228809305027795) " xml:space="preserve" text-anchor="middle" font-family="serif" font-size="24" y="470.27308" x="481.14964" stroke-linecap="null" stroke-linejoin="null" stroke-dasharray="null" stroke-width="0" fill="#3f3f3f" id="svg_68">Part 8-</text></g>

  <g stroke="null" display="inline">
  <title>Welcoming</title>
  <text fill="#3f3f3f" stroke-width="0" stroke-dasharray="null" stroke-linejoin="null" stroke-linecap="null" x="-160.81602" y="354.1766" id="svg_69" font-size="24" font-family="serif" text-anchor="middle" xml:space="preserve" stroke="#000000" transform="matrix(0.7463441797631498,0,0,0.7385020021747019,185.9794879303589,229.13655808172004) " font-weight="bold" font-style="italic">Welcoming</text></g>

  <g stroke="null" display="inline">
  <title>強權國家面臨可持續發展</title>
  <text fill="#3f3f3f" stroke-width="0" stroke-dasharray="null" stroke-linejoin="null" stroke-linecap="null" x="900.69542" y="422.5433" font-size="24" font-family="serif" text-anchor="middle" xml:space="preserve" stroke="#000000" transform="matrix(0.43155881045331745,0,0,0.7389758336031867,241.8456676523187,-34.69332472690298) " id="svg_76">強權國家面臨可持續發展</text></g>

  <g stroke="null" display="inline">
  <title>的問題，以王道文化注入</title>
  <text fill="#3f3f3f" stroke-width="0" stroke-dasharray="null" stroke-linejoin="null" stroke-linecap="null" x="739.35833" y="298.79346" font-size="24" font-family="serif" text-anchor="middle" xml:space="preserve" transform="matrix(0.4272185663125058,0,0,0.6274257915016129,313.9066570825293,107.34291682062808) " stroke="#000000" id="svg_77">的問題，以王道文化注入</text></g>

  <g stroke="null" display="inline">
  <title>國際事務案例</title>
  <text fill="#3f3f3f" stroke-width="0" stroke-dasharray="null" stroke-linejoin="null" stroke-linecap="null" x="233.65703" y="494.18267" id="svg_78" font-size="24" font-family="serif" text-anchor="middle" xml:space="preserve" transform="matrix(0.5564474794980403,0,0,0.6792506812639353,163.833668334216,158.0220690054127) " stroke="#000000">國際事務案例</text></g>

  <g stroke="null" display="inline">
  <title>王道大國需要做的事</title>
  <text fill="#3f3f3f" stroke-width="0" stroke-dasharray="null" stroke-linejoin="null" stroke-linecap="null" x="650.23715" y="219.31045" font-size="24" font-family="serif" text-anchor="middle" xml:space="preserve" stroke="#000000" transform="matrix(0.5572481582236201,0,0,0.6322390626511183,267.92069028015476,-56.95635466798548) " id="svg_80">王道大國需要做的事</text></g>

  <g stroke="null" display="inline">
  <title>新世紀可持續的發展</title>
  <text fill="#3f3f3f" stroke-width="0" stroke-dasharray="null" stroke-linejoin="null" stroke-linecap="null" x="95.6663" y="-75.56542" font-size="24" font-family="serif" text-anchor="middle" xml:space="preserve" stroke="#000000" transform="matrix(0.5997663466105261,0,0,0.6558594758703951,243.27975209169156,131.17179658277297) " id="svg_87">新世紀可持續的發展</text></g>

  <g stroke="null" display="inline">
  <title>Q&amp;A</title>
  <text fill="#3f3f3f" stroke-width="0" stroke-dasharray="null" stroke-linejoin="null" stroke-linecap="null" x="396.3483" y="526.77507" font-size="24" font-family="serif" text-anchor="middle" xml:space="preserve" transform="matrix(0.7645047753686883,0,0,0.7638605661538604,156.24343916853132,91.96130793650119) " stroke="#000000" id="svg_56">Q&amp;A</text></g>

  <g stroke="null" display="inline">
  <title>Click to watch Welcoming's video</title>
  <a id="svg_26" xlink:href="https://youtu.be/QVAfVVnSJAs">
   <path id="svg_44" marker-mid="url(#se_marker_mid_svg_44)" d="m54.52154,579.93171c-8.26903,0 -14.97223,6.47597 -14.97223,14.46469c0,7.98872 6.7032,14.46469 14.97223,14.46469c8.26903,0 14.97222,-6.47597 14.97222,-14.46469c0,-7.98872 -6.70319,-14.46469 -14.97222,-14.46469zm-2.40541,24.14332l-3.64261,-3.52213l6.37355,-6.15749l-6.37355,-6.1575l3.64261,-3.51914l10.0172,9.67664l-10.0172,9.67962z" stroke-linecap="null" stroke-linejoin="null" stroke-dasharray="null" stroke-width="0" fill="#3f3f3f" stroke="#000000"/>
  </a></g>

  <g stroke="null" display="inline">
  <title>Click to watch Part 1's video</title>
  <a id="svg_57" xlink:href="https://youtu.be/-YUZlPu6m0g">
   <path id="svg_43" marker-mid="url(#se_marker_mid_svg_44)" d="m239.02154,181.43171c-8.26903,0 -14.97223,6.47597 -14.97223,14.46469c0,7.98872 6.7032,14.46469 14.97223,14.46469c8.26903,0 14.97222,-6.47597 14.97222,-14.46469c0,-7.98872 -6.70319,-14.46469 -14.97222,-14.46469zm-2.40541,24.14332l-3.64261,-3.52213l6.37355,-6.15749l-6.37355,-6.1575l3.64261,-3.51914l10.0172,9.67664l-10.0172,9.67962z" stroke-linecap="null" stroke-linejoin="null" stroke-dasharray="null" stroke-width="0" fill="#3f3f3f" stroke="#000000"/>
  </a></g>

  <g stroke="null" display="inline">
  <title>Click to watch Part 2's video</title>
  <a id="svg_58" xlink:href="https://youtu.be/BSfHuAbUzDc">
   <path id="svg_42" marker-mid="url(#se_marker_mid_svg_44)" d="m406.77154,184.93172c-8.26903,0 -14.97223,6.47597 -14.97223,14.46469c0,7.98872 6.7032,14.46469 14.97223,14.46469c8.26903,0 14.97222,-6.47597 14.97222,-14.46469c0,-7.98872 -6.70319,-14.46469 -14.97222,-14.46469zm-2.40541,24.14331l-3.64261,-3.52212l6.37355,-6.1575l-6.37355,-6.15749l3.64261,-3.51914l10.0172,9.67663l-10.0172,9.67962z" stroke-linecap="null" stroke-linejoin="null" stroke-dasharray="null" stroke-width="0" fill="#3f3f3f" stroke="#000000"/>
  </a></g>

  <g stroke="null" display="inline">
  <title>Click to watch Part 3's video</title>
  <a id="svg_59" xlink:href="https://youtu.be/YuRJcHBi6Jo">
   <path id="svg_41" marker-mid="url(#se_marker_mid_svg_41)" d="m567.02154,183.93171c-8.26903,0 -14.97223,6.47597 -14.97223,14.46469c0,7.98872 6.7032,14.46469 14.97223,14.46469c8.26903,0 14.97222,-6.47597 14.97222,-14.46469c0,-7.98872 -6.70319,-14.46469 -14.97222,-14.46469zm-2.40541,24.14332l-3.64261,-3.52213l6.37355,-6.15749l-6.37355,-6.1575l3.64261,-3.51914l10.0172,9.67664l-10.0172,9.67962z" stroke-linecap="null" stroke-linejoin="null" stroke-dasharray="null" stroke-width="0" fill="#3f3f3f" stroke="#000000"/>
  </a></g>

  <g stroke="null" display="inline">
  <title>Click to watch Part 4's video</title>
  <a id="svg_70" xlink:href="https://youtu.be/V20tubW3Zyc">
   <path id="svg_40" marker-mid="url(#se_marker_mid_svg_41)" d="m236.02154,386.43171c-8.26903,0 -14.97223,6.47597 -14.97223,14.46469c0,7.98872 6.7032,14.46469 14.97223,14.46469c8.26903,0 14.97222,-6.47597 14.97222,-14.46469c0,-7.98872 -6.70319,-14.46469 -14.97222,-14.46469zm-2.40541,24.14332c-1.2142,-1.17404 -2.42841,-2.34809 -3.64261,-3.52213l6.37355,-6.15749l-6.37355,-6.1575l3.64261,-3.51914l10.0172,9.67664l-10.0172,9.67962z" stroke-linecap="null" stroke-linejoin="null" stroke-dasharray="null" stroke-width="0" fill="#3f3f3f" stroke="#000000"/>
  </a></g>

  <g stroke="null" display="inline">
  <title>Click to watch Part 5's video</title>
  <a id="svg_71" xlink:href="https://youtu.be/fXyr2lQWgUA">
   <path id="svg_39" marker-mid="url(#se_marker_mid_svg_41)" d="m397.52154,384.93172c-8.26903,0 -14.97223,6.47597 -14.97223,14.46469c0,7.98872 6.7032,14.46469 14.97223,14.46469c8.26903,0 14.97222,-6.47597 14.97222,-14.46469c0,-7.98872 -6.70319,-14.46469 -14.97222,-14.46469zm-2.40541,24.14331l-3.64261,-3.52212l6.37355,-6.1575l-6.37355,-6.15749l3.64261,-3.51914l10.0172,9.67663l-10.0172,9.67962z" stroke-linecap="null" stroke-linejoin="null" stroke-dasharray="null" stroke-width="0" fill="#3f3f3f" stroke="#000000"/>
  </a></g>

  <g stroke="null" display="inline">
  <title>Click to watch Part 6's video</title>
  <a id="svg_72" xlink:href="https://youtu.be/36b4o9ehRpA">
   <path id="svg_38" marker-mid="url(#se_marker_mid_svg_38)" d="m568.27154,383.68172c-8.26903,0 -14.97223,6.47597 -14.97223,14.46469c0,7.98872 6.7032,14.46469 14.97223,14.46469c8.26903,0 14.97222,-6.47597 14.97222,-14.46469c0,-7.98872 -6.70319,-14.46469 -14.97222,-14.46469zm-2.40541,24.14332l-3.64261,-3.52213l6.37355,-6.15749l-6.37355,-6.1575l3.64261,-3.51914l10.0172,9.67664l-10.0172,9.67962z" stroke-linecap="null" stroke-linejoin="null" stroke-dasharray="null" stroke-width="0" fill="#3f3f3f" stroke="#000000"/>
  </a></g>

  <g stroke="null" display="inline">
  <title>Click to watch Part 7's video</title>
  <a id="svg_73" xlink:href="https://youtu.be/kkrOO5rcgqw">
   <path id="svg_37" marker-mid="url(#se_marker_mid_svg_37)" d="m240.27154,597.18172c-8.26903,0 -14.97223,6.47597 -14.97223,14.46469c0,7.98872 6.7032,14.46469 14.97223,14.46469c8.26903,0 14.97222,-6.47597 14.97222,-14.46469c0,-7.98872 -6.70319,-14.46469 -14.97222,-14.46469zm-2.40541,24.14332l-3.64261,-3.52213l6.37355,-6.15749l-6.37355,-6.1575l3.64261,-3.51914l10.0172,9.67664l-10.0172,9.67962z" stroke-linecap="null" stroke-linejoin="null" stroke-dasharray="null" stroke-width="0" fill="#3f3f3f" stroke="#000000"/>
  </a></g>

  <g stroke="null" display="inline">
  <title>Click to watch Part 8's video</title>
  <a id="svg_74" xlink:href="https://youtu.be/LhfyW2u0l20">
   <path marker-mid="url(#se_marker_mid_svg_36)" id="svg_36" d="m405.77154,598.43173c-8.26903,0 -14.97222,6.47597 -14.97222,14.46469c0,7.98872 6.7032,14.46469 14.97222,14.46469c8.26903,0 14.97222,-6.47597 14.97222,-14.46469c0,-7.98872 -6.7032,-14.46469 -14.97222,-14.46469zm-2.4054,24.14331l-3.64262,-3.52212l6.37355,-6.1575l-6.37355,-6.1575l3.64262,-3.51914l10.01719,9.67663l-10.01719,9.67962l0,0.00001z" stroke-linecap="null" stroke-linejoin="null" stroke-dasharray="null" stroke-width="0" fill="#3f3f3f" stroke="#000000"/>
  </a></g>


  <text fill="#3f3f3f" stroke="#000000" stroke-width="0" stroke-dasharray="null" stroke-linejoin="null" stroke-linecap="null" x="772.10043" y="542.0428" id="svg_83" font-size="24" font-family="serif" text-anchor="middle" xml:space="preserve"/>
  <g id="svg_180"/>

  <g stroke="null" display="inline">
  <title>新的普世價值-王道</title>
  <text fill="#3f3f3f" stroke-width="0" stroke-dasharray="null" stroke-linejoin="null" stroke-linecap="null" x="517.98277" y="297.80365" font-size="24" font-family="serif" text-anchor="middle" xml:space="preserve" stroke="#000000" transform="matrix(0.6057715467382057,0,0,0.6128818718654854,150.8504222626911,-100.73214608419723) " id="svg_53">新的普世價值-王道</text></g>

  <g stroke="null" display="inline">
  <title>資本主義與比較案例</title>
  <text fill="#3f3f3f" stroke-width="0" stroke-dasharray="null" stroke-linejoin="null" stroke-linecap="null" x="254.15599" y="415.18052" font-size="24" font-family="serif" text-anchor="middle" xml:space="preserve" stroke="#000000" transform="matrix(0.495848424335866,0,0,0.7284610767891487,170.76352638728792,-20.1333090640249) " id="svg_84">資本主義與比較案例</text></g>

  <g stroke="null" display="inline">
  <title>資本主義民主</title>
  <text fill="#3f3f3f" stroke-width="0" stroke-dasharray="null" stroke-linejoin="null" stroke-linecap="null" x="480.27546" y="415.00066" font-size="24" font-family="serif" text-anchor="middle" xml:space="preserve" stroke="#000000" transform="matrix(0.5286251836587256,0,0,0.7058570149625992,205.11164827741985,-10.360834609328279) " id="svg_86">資本主義民主</text></g>

  <g stroke="null" display="inline">
  <title>Speaker’s Biography</title>
  <text id="svg_27" fill="#7f0000" stroke-width="0" stroke-dasharray="null" stroke-linejoin="null" stroke-linecap="null" opacity="0.8" x="873.42024" y="89.07273" font-size="24" font-family="serif" text-anchor="middle" xml:space="preserve" font-style="italic" transform="matrix(0.7280527701259416,0,0,0.8188012338468919,170.34399353135802,-17.237344596451262) ">Speaker’s Biography</text></g>

  <g stroke="null" display="inline">
  <title>Abstract</title>
  <text id="svg_25" transform="matrix(0.7677807081961012,0,0,0.7541869355291229,1.7180709747196814,36.60315275694508) " font-style="italic" fill="#7f0000" stroke-width="0" stroke-dasharray="null" stroke-linejoin="null" stroke-linecap="null" opacity="0.8" x="67.04751" y="189.51071" font-size="24" font-family="serif" text-anchor="middle" xml:space="preserve">Abstract</text></g>

  <g stroke="null" display="inline">
  <title>The Rule-by-Virtue Century——The</title>
  <text id="svg_20" transform="matrix(0.4876083930885713,0,0,0.774278051851422,215.4906067494849,27.28648190380104) " font-weight="normal" xml:space="preserve" text-anchor="middle" font-family="serif" font-size="24" y="36.93597" x="-199.95154" stroke-linecap="null" stroke-linejoin="null" stroke-dasharray="null" stroke-width="0" fill="#7f003f">The Rule-by-Virtue Century——The</text></g>

  <g stroke="null" display="inline">
  <title>Missing Element for Sustainable Development</title>
  <text id="svg_23" transform="matrix(0.4097983475651173,0,0,0.7751139559202236,192.52952980771155,17.621782272558562) " font-weight="normal" xml:space="preserve" text-anchor="middle" font-family="serif" font-size="24" y="67.43967" x="-174.55653" stroke-linecap="null" stroke-linejoin="null" stroke-dasharray="null" stroke-width="0" fill="#7f003f">Missing Element for Sustainable Development</text></g>

  <g stroke="null" display="inline">
  <title>07 March 2014</title>
  <text fill="#7f0000" stroke-width="0" stroke-dasharray="null" stroke-linejoin="null" stroke-linecap="null" opacity="0.8" x="124.75509" y="240.5909" font-size="24" font-family="serif" text-anchor="middle" xml:space="preserve" transform="matrix(0.5072313354147342,0,0,0.7244833415407684,84.21972839486224,-20.72931290291052) " stroke="#000000" id="svg_49">07 March 2014</text></g>

  <g stroke="null" display="inline">
  <title>劉兆玄博士</title>
  <text id="svg_35" fill="#7f0000" stroke-width="0" stroke-dasharray="null" stroke-linejoin="null" stroke-linecap="null" opacity="0.8" x="102.75535" y="186.72087" font-size="24" font-family="serif" text-anchor="middle" xml:space="preserve" transform="matrix(0.3874988150097902,0,0,0.6763227813173827,108.18397636313479,-10.646364429820657) " stroke="#000000">劉兆玄博士</text></g>
 </g>
 <g stroke="null" display="inline">
  <title>文字</title>

  <g stroke="null" display="inline">
  <title>王道的世紀─永續發展 只欠東風 The Rule-by-Virtue Century— The Missing Element for Sustainable Development 「永續發展」的論述欠缺了「王道文化」 二十多年來：「經濟」與「環境」的平衡發展有進展，「社會正義」無論國內或國際皆遇瓶頸 「文化」是「永續發展」的第四根支柱或基石？
  	Wang Dao is the missing element for “Sustainable Development” In the last 20 years, development of social justice encounters its limit while the equilibrium of environmental and economic growth is attained with considerable progress Is “culture” the fourth pillar or the structure of “Sustainable Development”? What can Wang Dao help contribute to Sustainable Development?
</title>
  <image xlink:href="https://c1.staticflickr.com/1/786/39281100790_0f2af20335_o.png" id="svg_18" height="314.99999" width="168" y="172.75001" x="27"/></g>

  <g stroke="null" display="inline">
  <title>劉博士畢業於台灣大學化學系，並獲加拿大多倫多大學化學博士。1987年擔任台灣清華大學校長，使清華大學從理工為主轉型為綜合型大學，在理、工、文等領域成為教育部學術獎章及國科會傑出研究獎獲獎最頻繁的大學；2004年任東吳大學校長，將東吳大學發展成一流的教學大學。生涯中曾數度接受政府借調，擔任台灣重要掌舵員— 國科會主委、交通部部長及行政院副院長，2008年出任行政院院長。2009年獲頒政府最高榮譽的「中正勳章」。目前擔任中華文化總會會長，積極推動國際文化交流及台灣本土文化紮根，並多次於海內外宣揚具台灣特色之中華文化及王道思想。
  	Dr Liu Chao-shiuan received his Bachelor degree from National Taiwan University and a Doctor of Philosophy in Chemistry from University of Toronto in Canada. He served as President of National Tsing Hua University from 1987 to 1993. In 2004, he took up the position of President of Soochow University. Dr Liu was on secondment to various positions in the Taiwan government, including Chairman of National Science Council; Minister of Transportation and Communication and Vice Premier of Executive Yuan of Taiwan. In 2008, he served as Premier of Executive Yuan of Taiwan. In 2009, he received the highest honor “Order of Chiang Chung-Cheng with Grand Cordon” from the Taiwan government. He is currently Chairman of the General Association of Chinese Culture, actively promoting international cultural exchange, Taiwan culture and Wang Dao philosophy.

</title>
  <image xlink:href="https://c1.staticflickr.com/1/890/39281148550_9614d121cb_o.png" id="svg_24" height="548" width="176.99999" y="93" x="713"/></g>
 </g>
</svg>