<svg width="904.9999999999999" height="640.0000000000001" xmlns="http://www.w3.org/2000/svg" xmlns:svg="http://www.w3.org/2000/svg" xmlns:xlink="http://www.w3.org/1999/xlink">
 <!-- Created with SVG-edit - http://svg-edit.googlecode.com/ -->
 <title>On the Social Dynamics of Philosophical Ideas: Dai Zhen&#x27;s Critique of Neo-Confucianism</title>
 <defs>
  <marker id="se_marker_mid_svg_38" markerUnits="strokeWidth" orient="auto" viewBox="0 0 100 100" markerWidth="5" markerHeight="5" refX="50" refY="50">
   <path stroke="#000000" id="svg_3" d="m349.95297,118.63858l-46.43331,32.81327l13.92999,-32.81327l-13.92999,-32.81326l46.43331,32.81326z" fill="#000000" stroke-width="10"/>
  </marker>
  <marker id="se_marker_mid_svg_41" markerUnits="strokeWidth" orient="auto" viewBox="0 0 100 100" markerWidth="5" markerHeight="5" refX="50" refY="50">
   <path stroke="#000000" id="svg_4" d="m100,50l-100,40l30,-40l-30,-40l100,40z" fill="#000000" stroke-width="10"/>
  </marker>
  <marker id="se_marker_mid_svg_44" markerUnits="strokeWidth" orient="auto" viewBox="0 0 100 100" markerWidth="5" markerHeight="5" refX="50" refY="50">
   <path stroke="#000000" id="svg_6" d="m100,50l-100,40l30,-40l-30,-40l100,40z" fill="#000000" stroke-width="10"/>
  </marker>
  <pattern height="100" width="100" y="0" x="0" patternUnits="userSpaceOnUse" id="gridpattern">
   <image height="100" width="100" y="0" x="0" id="svg_7"/>
  </pattern>
 </defs>
 <g display="none">
  <title>圖遮罩</title>
 </g>
 <g display="inline" stroke="null">
  <title>文字</title>
  <image id="svg_48" xlink:href="https://c1.staticflickr.com/1/783/39493715680_28a4e86fae_b.jpg" height="546.60359" width="166" y="83.25677" x="717.33334"/>
  <text fill="#7f003f" stroke-width="0" stroke-dasharray="null" stroke-linejoin="null" stroke-linecap="null" x="117.91022" y="236.20311" id="svg_2" font-size="24" font-family="serif" text-anchor="middle" xml:space="preserve" stroke="#000000" font-weight="normal">15 September 2014</text>
  <text fill="#7f003f" stroke-width="0" stroke-dasharray="null" stroke-linejoin="null" stroke-linecap="null" x="-224.70581" y="15.61426" font-size="24" font-family="serif" text-anchor="middle" xml:space="preserve" font-weight="bold" transform="matrix(0.6516511796063823,0,0,1.0802504704689162,264.33243497894665,31.44294650424457) " id="svg_45">Science Technology for</text>
  <text stroke="#000000" transform="matrix(0.5720618058951883,0,0,0.902982237042385,100.16414934514941,1.3933975210898382) " xml:space="preserve" text-anchor="middle" font-family="serif" font-size="24" y="232.04774" x="32.51896" opacity="0.8" stroke-linecap="null" stroke-linejoin="null" stroke-dasharray="null" stroke-width="0" fill="#7f003f" font-weight="bold" id="svg_31">Dr Thomas Mason</text>
  <text fill="#7f003f" stroke-width="0" stroke-dasharray="null" stroke-linejoin="null" stroke-linecap="null" x="-216.01125" y="51.87038" font-size="24" font-family="serif" text-anchor="middle" xml:space="preserve" font-weight="bold" transform="matrix(0.5897947070105359,0,0,1.055018443723524,244.11389409442458,27.61415836512994) " id="svg_20">the Energy Challenge</text>
  <image x="23.5" y="236.07096" width="191" height="291.85809" xlink:href="https://c1.staticflickr.com/1/910/41727973522_ece49fe5c0_o.png" id="svg_68"/>
  <a id="svg_77" xlink:href="https://newscentre.cityu.edu.hk/media/news/2014/09/17/science-technology-energy-challenge">
   <text font-weight="normal" stroke="#000000" xml:space="preserve" text-anchor="middle" font-family="serif" font-size="24" y="511.61067" x="478.44816" stroke-linecap="null" stroke-linejoin="null" stroke-dasharray="null" stroke-width="0" fill="#3f007f" id="svg_34">Science technology</text>
  </a>
  <a id="svg_78" xlink:href="https://newscentre.cityu.edu.hk/media/news/2014/09/17/science-technology-energy-challenge">
   <text font-weight="normal" stroke="#000000" xml:space="preserve" text-anchor="middle" font-family="serif" font-size="24" y="542.04172" x="453.43363" stroke-linecap="null" stroke-linejoin="null" stroke-dasharray="null" stroke-width="0" fill="#3f007f" id="svg_36">for the energy</text>
  </a>
  <a id="svg_79" xlink:href="https://newscentre.cityu.edu.hk/media/news/2014/09/17/science-technology-energy-challenge">
   <text fill="#3f007f" stroke-width="0" stroke-dasharray="null" stroke-linejoin="null" stroke-linecap="null" x="434.68798" y="569.6322" id="svg_76" font-size="24" font-family="serif" text-anchor="middle" xml:space="preserve" font-weight="normal" stroke="#000000">challenge</text>
  </a>
 </g>
 <g stroke="null" display="inline">
  <title>色塊</title>
  <rect opacity="0.3" height="200.99998" width="160" y="16.85186" x="381.55557" stroke-width="0" fill="#ff7f00" id="svg_5" stroke="#000000"/>
  <rect opacity="0.3" height="201" width="160" y="17.85187" x="217.00001" stroke-width="0" fill="#ff7f00" id="svg_10" stroke="#000000"/>
  <rect opacity="0.3" height="200.99998" width="160" y="16.85188" x="545.11112" stroke-width="0" fill="#ff7f00" id="svg_11" stroke="#000000"/>
  <rect opacity="0.3" height="200.99998" width="160" y="220.40743" x="381.55556" stroke-width="0" fill="#ff7f00" id="svg_12" stroke="#000000"/>
  <rect opacity="0.3" height="201.00001" width="160" y="221.40742" x="217.00001" stroke-width="0" fill="#ff7f00" id="svg_13" stroke="#000000"/>
  <rect opacity="0.3" height="200.99998" width="160" y="220.40744" x="545.11112" stroke-width="0" fill="#ff7f00" id="svg_14" stroke="#000000"/>
  <rect stroke="#000000" opacity="0.3" height="204" width="322.66673" y="423.96296" x="381.55556" stroke-width="0" fill="#ff7f00" id="svg_15"/>
  <rect opacity="0.3" height="203.99999" width="160" y="424.96297" x="217" stroke-width="0" fill="#ff7f00" id="svg_16" stroke="#000000"/>
  <rect id="svg_8" opacity="0.3" height="611.11114" width="199.11107" y="16.85182" x="15.94447" stroke-width="0" fill="#ff7f00" stroke="#000000"/>
  <rect id="svg_9" opacity="0.3" height="612.11106" width="177.77774" y="15.8519" x="710.05555" stroke-width="0" fill="#ff7f00" stroke="#000000"/>
  <rect id="svg_22" height="33.66667" width="138" y="34.85" x="752.0289" stroke-linecap="null" stroke-linejoin="null" stroke-dasharray="null" stroke-width="5" fill="#ffffaa"/>
 </g>
 <g stroke="null" display="inline">
  <title>圖片</title>
  <image x="72.33333" y="89.66667" width="84" height="101.96386" id="svg_17" xlink:href="https://c1.staticflickr.com/1/802/40406998765_39cb0b4acc_o.png"/>
  <image x="570" y="434.66666" width="108" height="102" id="svg_29" xlink:href="https://newscentre.cityu.edu.hk/sites/g/files/asqsls2011/files/news/content/140917-1_Mason.jpg"/>
  <image stroke="null" x="219.83333" y="319.00002" width="152" height="105.58779" xlink:href="https://farm5.staticflickr.com/4206/35005904761_4f49048533_b.jpg" id="svg_51"/>
  <image stroke="null" x="384.16666" y="311.66665" width="157.00001" height="109.06107" xlink:href="https://farm5.staticflickr.com/4252/34326741263_a18f2f9cce_b.jpg" id="svg_54"/>
  <image stroke="null" x="541.16666" y="316.66668" width="166.00001" height="102.06758" xlink:href="https://farm5.staticflickr.com/4279/35006138201_613f603c11_b.jpg" id="svg_60"/>
  <image stroke="null" x="380.66668" y="101.33334" width="159.00001" height="120" xlink:href="https://farm5.staticflickr.com/4262/34326743653_90c876a714_b.jpg" id="svg_50"/>
  <image stroke="null" x="216.33334" y="110.55556" width="157" height="103" xlink:href="https://farm5.staticflickr.com/4268/34326744203_f7bb001506_b.jpg" id="svg_49"/>
  <image stroke="null" x="545.66667" y="102.33336" width="155.99999" height="120" xlink:href="https://farm5.staticflickr.com/4269/34326743073_2faf445851_b.jpg" id="svg_56"/>
  <image x="572" y="532" width="108" height="102" id="svg_81" xlink:href="https://newscentre.cityu.edu.hk/sites/g/files/asqsls2011/files/news/content/140917-3_Mason.jpg"/>
 </g>
 <g stroke="null" display="inline">
  <title>標題</title>
  <image stroke="null" x="222.44443" y="516.15945" width="154" height="106.9771" id="svg_74" xlink:href="https://farm5.staticflickr.com/4251/35005905861_c037432e7b_b.jpg"/>
  <text transform="matrix(0.9457530331937911,0,0,1.05477282417271,197.77360970811117,168.0069856491978) " stroke="#000000" xml:space="preserve" text-anchor="middle" font-family="serif" font-size="24" id="svg_69" y="-73.53944" x="96.68915" stroke-linecap="null" stroke-linejoin="null" stroke-dasharray="null" stroke-width="0" fill="#3f007f">Introduction</text>
  <text id="svg_80" transform="matrix(1.0489721115822424,0,0,1.1784484077922224,124.02842104541236,-203.9460141984563) " stroke="#000000" xml:space="preserve" text-anchor="middle" font-family="serif" font-size="24" y="421.93929" x="163.00362" stroke-linecap="null" stroke-linejoin="null" stroke-dasharray="null" stroke-width="0" fill="#3f007f">Solar power</text>
  <text id="svg_87" transform="matrix(0.8353942807611581,0,0,1.090066265009215,190.13805983604624,157.53586176308406) " stroke="#000000" xml:space="preserve" text-anchor="middle" font-family="serif" font-size="24" y="-59.99902" x="325.76522" stroke-linecap="null" stroke-linejoin="null" stroke-dasharray="null" stroke-width="0" fill="#3f007f">The Risks of Energy</text>
  <a xlink:href="https://www.youtube.com/watch?v=yE8Ul7ZSFeg&amp;feature=youtu.be" id="svg_26">
   <path fill="#ff7f00" stroke-width="0" stroke-dasharray="null" stroke-linejoin="null" stroke-linecap="null" d="m344.60487,180.34838c-8.26903,0 -14.97223,6.47597 -14.97223,14.46469c0,7.98872 6.7032,14.46469 14.97223,14.46469c8.26903,0 14.97222,-6.47597 14.97222,-14.46469c0,-7.98872 -6.70319,-14.46469 -14.97222,-14.46469zm-2.40541,24.14332l-3.64261,-3.52213l6.37355,-6.15749l-6.37355,-6.1575l3.64261,-3.51914l10.0172,9.67664l-10.0172,9.67962z" marker-mid="url(#se_marker_mid_svg_44)" id="svg_44" stroke="#000000"/>
  </a>
  <a xlink:href="https://www.youtube.com/watch?v=SEJy-qhm3w4&amp;t=0s&amp;index=4&amp;list=PLC6YZ5mMz0SyQXHSuErgZXQzgLVZzi5AX" id="svg_57">
   <path stroke="#000000" fill="#ff7f00" stroke-width="0" stroke-dasharray="null" stroke-linejoin="null" stroke-linecap="null" d="m510.77154,175.68171c-8.26903,0 -14.97223,6.47597 -14.97223,14.46469c0,7.98872 6.7032,14.46469 14.97223,14.46469c8.26903,0 14.97222,-6.47597 14.97222,-14.46469c0,-7.98872 -6.70319,-14.46469 -14.97222,-14.46469zm-2.40541,24.14332l-3.64261,-3.52213l6.37355,-6.15749l-6.37355,-6.1575l3.64261,-3.51914l10.0172,9.67664l-10.0172,9.67962z" marker-mid="url(#se_marker_mid_svg_44)" id="svg_43"/>
  </a>
  <a xlink:href="https://www.youtube.com/watch?v=kzpbBDNDJBw&amp;t=0s&amp;index=3&amp;list=PLC6YZ5mMz0SyQXHSuErgZXQzgLVZzi5AX" id="svg_58">
   <path stroke="#000000" fill="#ff7f00" stroke-width="0" stroke-dasharray="null" stroke-linejoin="null" stroke-linecap="null" d="m677.60487,177.01505c-8.26903,0 -14.97223,6.47597 -14.97223,14.46469c0,7.98872 6.7032,14.46469 14.97223,14.46469c8.26903,0 14.97222,-6.47597 14.97222,-14.46469c0,-7.98872 -6.70319,-14.46469 -14.97222,-14.46469zm-2.40541,24.14331l-3.64261,-3.52212l6.37355,-6.1575l-6.37355,-6.15749l3.64261,-3.51914l10.0172,9.67663l-10.0172,9.67962z" marker-mid="url(#se_marker_mid_svg_44)" id="svg_42"/>
  </a>
  <a xlink:href="https://www.youtube.com/watch?v=_ci2GlKiZbo&amp;t=0s&amp;index=2&amp;list=PLC6YZ5mMz0SyQXHSuErgZXQzgLVZzi5AX" id="svg_59">
   <path stroke="#000000" fill="#ff7f00" stroke-width="0" stroke-dasharray="null" stroke-linejoin="null" stroke-linecap="null" d="m339.27154,371.76504c-8.26903,0 -14.97223,6.47597 -14.97223,14.46469c0,7.98872 6.7032,14.46469 14.97223,14.46469c8.26903,0 14.97222,-6.47597 14.97222,-14.46469c0,-7.98872 -6.70319,-14.46469 -14.97222,-14.46469zm-2.40541,24.14332l-3.64261,-3.52213l6.37355,-6.15749l-6.37355,-6.1575l3.64261,-3.51914l10.0172,9.67664l-10.0172,9.67962z" marker-mid="url(#se_marker_mid_svg_41)" id="svg_41"/>
  </a>
  <a xlink:href="https://www.youtube.com/watch?v=FVUTb6xR7n0" id="svg_70">
   <path stroke="#000000" fill="#ff7f00" stroke-width="0" stroke-dasharray="null" stroke-linejoin="null" stroke-linecap="null" d="m507.43821,370.76504c-8.26903,0 -14.97223,6.47597 -14.97223,14.46469c0,7.98872 6.7032,14.46469 14.97223,14.46469c8.26903,0 14.97222,-6.47597 14.97222,-14.46469c0,-7.98872 -6.70319,-14.46469 -14.97222,-14.46469zm-2.40541,24.14332c-1.2142,-1.17404 -2.42841,-2.34809 -3.64261,-3.52213l6.37355,-6.15749l-6.37355,-6.1575l3.64261,-3.51914l10.0172,9.67664l-10.0172,9.67962z" marker-mid="url(#se_marker_mid_svg_41)" id="svg_40"/>
  </a>
  <a xlink:href="https://www.youtube.com/watch?v=O8YhPrhqnLw&amp;t=0s&amp;index=1&amp;list=PLC6YZ5mMz0SyQXHSuErgZXQzgLVZzi5AX" id="svg_71">
   <path stroke="#000000" fill="#ff7f00" stroke-width="0" stroke-dasharray="null" stroke-linejoin="null" stroke-linecap="null" d="m675.27154,372.43172c-8.26903,0 -14.97223,6.47597 -14.97223,14.46469c0,7.98872 6.7032,14.46469 14.97223,14.46469c8.26903,0 14.97222,-6.47597 14.97222,-14.46469c0,-7.98872 -6.70319,-14.46469 -14.97222,-14.46469zm-2.40541,24.14331l-3.64261,-3.52212l6.37355,-6.1575l-6.37355,-6.15749l3.64261,-3.51914l10.0172,9.67663l-10.0172,9.67962z" marker-mid="url(#se_marker_mid_svg_41)" id="svg_39"/>
  </a>
  <a xlink:href="https://www.youtube.com/watch?v=KUzysOeYqmY" id="svg_72">
   <path stroke="#000000" fill="#ff7f00" stroke-width="0" stroke-dasharray="null" stroke-linejoin="null" stroke-linecap="null" d="m352.60487,576.01505c-8.26903,0 -14.97223,6.47597 -14.97223,14.46469c0,7.98872 6.7032,14.46469 14.97223,14.46469c8.26903,0 14.97222,-6.47597 14.97222,-14.46469c0,-7.98872 -6.70319,-14.46469 -14.97222,-14.46469zm-2.40541,24.14332l-3.64261,-3.52213l6.37355,-6.15749l-6.37355,-6.1575l3.64261,-3.51914l10.0172,9.67664l-10.0172,9.67962z" marker-mid="url(#se_marker_mid_svg_38)" id="svg_38"/>
  </a>
  <text xml:space="preserve" text-anchor="middle" font-family="serif" font-size="24" id="svg_83" y="542.0428" x="772.10043" stroke-linecap="null" stroke-linejoin="null" stroke-dasharray="null" stroke-width="0" stroke="#000000" fill="#3f3f3f"/>
  <g id="svg_180"/>
  <text id="svg_53" transform="matrix(0.8790695144109585,0,0,1.1362558516927594,0.5121233608877631,-267.1541273922024) " stroke="#000000" xml:space="preserve" text-anchor="middle" font-family="serif" font-size="24" y="315.39364" x="716.04269" stroke-linecap="null" stroke-linejoin="null" stroke-dasharray="null" stroke-width="0" fill="#3f007f">Improvement</text>
  <text id="svg_84" transform="matrix(0.9887659585611809,0,0,1.2434040430239695,-7.126780182383428,-252.3503270919651) " stroke="#000000" xml:space="preserve" text-anchor="middle" font-family="serif" font-size="24" y="435.95987" x="479.66609" stroke-linecap="null" stroke-linejoin="null" stroke-dasharray="null" stroke-width="0" fill="#3f007f">Fossil fuels</text>
  <text style="cursor: move;" id="svg_86" transform="matrix(0.9538163525766594,0,0,1.1576019584401132,-67.69933039461088,-204.81945828585256) " stroke="#000000" xml:space="preserve" text-anchor="middle" font-family="serif" font-size="24" y="425.06785" x="727.81792" stroke-linecap="null" stroke-linejoin="null" stroke-dasharray="null" stroke-width="0" fill="#3f007f">Conclusion</text>
  <text transform="matrix(0.7280527701259416,0,0,0.8188012338468919,170.34399353135802,-17.237344596451262) " font-style="italic" xml:space="preserve" text-anchor="middle" font-family="serif" font-size="24" y="89.07273" x="873.42024" opacity="0.8" stroke-linecap="null" stroke-linejoin="null" stroke-dasharray="null" stroke-width="0" fill="#7f003f" id="svg_27">Speaker’s Biography</text>
  <text xml:space="preserve" text-anchor="middle" font-family="serif" font-size="24" id="svg_18" y="497.33333" x="296.33333" stroke-linecap="null" stroke-linejoin="null" stroke-dasharray="null" stroke-width="0" fill="#3f007f" stroke="#000000" font-weight="bold">Ｑ＆Ａ</text>
  <text font-weight="bold" id="svg_19" fill="#ff7f00" stroke-width="0" stroke-dasharray="null" stroke-linejoin="null" stroke-linecap="null" x="433.92355" y="462.27345" font-size="24" font-family="serif" text-anchor="middle" xml:space="preserve" stroke="#000000">News</text>
  <text fill="#ff7f00" stroke-width="0" stroke-dasharray="null" stroke-linejoin="null" stroke-linecap="null" x="534.33181" y="44.73578" font-size="24" font-family="serif" text-anchor="middle" xml:space="preserve" transform="matrix(0.9908488328064493,0,0,0.8545984747725441,85.45120943266423,2.4982610485744945) " stroke="#000000" id="svg_52">Part 3.</text>
  <text fill="#ff7f00" stroke-width="0" stroke-dasharray="null" stroke-linejoin="null" stroke-linecap="null" x="292.61257" y="222.79773" font-size="24" font-family="serif" text-anchor="middle" xml:space="preserve" transform="matrix(1.080213734593201,0,0,0.9316749230021344,-20.50171740010505,39.80889795449838) " stroke="#000000" id="svg_55">Part 4.</text>
  <text stroke="#000000" transform="matrix(0.9685812592506409,0,0,0.9685812592506409,8.137944771908224,13.520858714357018) " fill="#ff7f00" stroke-width="0" stroke-dasharray="null" stroke-linejoin="null" stroke-linecap="null" x="291.34898" y="451.34504" font-size="24" font-family="serif" text-anchor="middle" xml:space="preserve" id="svg_64">Part 7.</text>
  <image x="45.43367" y="534.88889" width="131" height="91" xlink:href="https://farm5.staticflickr.com/4207/35005904021_6b2d64f2f5_b.jpg" id="svg_65"/>
  <text style="cursor: move;" xml:space="preserve" text-anchor="middle" font-family="serif" font-size="24" y="536.44445" x="113.32257" stroke-linecap="null" stroke-linejoin="null" stroke-dasharray="null" stroke-width="0" stroke="#000000" fill="#3f007f" id="svg_67">Welcoming</text>
  <a id="svg_75" xlink:href="https://www.youtube.com/watch?v=XjLpdDElSq8&amp;t=0s&amp;list=PLC6YZ5mMz0SyQXHSuErgZXQzgLVZzi5AX&amp;index=8">
   <path stroke="#000000" fill="#ff7f00" stroke-width="0" stroke-dasharray="null" stroke-linejoin="null" stroke-linecap="null" d="m160.59411,593.12617c-8.26903,0 -14.97223,6.47597 -14.97223,14.46469c0,7.98872 6.7032,14.46469 14.97223,14.46469c8.26903,0 14.97222,-6.47597 14.97222,-14.46469c0,-7.98872 -6.70319,-14.46469 -14.97222,-14.46469zm-2.40541,24.14332l-3.64261,-3.52213l6.37355,-6.15749l-6.37355,-6.1575l3.64261,-3.51914l10.0172,9.67664l-10.0172,9.67962z" marker-mid="url(#se_marker_mid_svg_38)" id="svg_66"/>
  </a>
  <text fill="#ff7f00" stroke-width="0" stroke-dasharray="null" stroke-linejoin="null" stroke-linecap="null" x="408.05313" y="221.07193" font-size="24" font-family="serif" text-anchor="middle" xml:space="preserve" transform="matrix(1.0802138935486312,0,0,0.9316750600998063,8.727117549645683,39.43010960829259) " stroke="#000000" id="svg_1">Part 5.</text>
  <text fill="#ff7f00" stroke-width="0" stroke-dasharray="null" stroke-linejoin="null" stroke-linecap="null" x="537.7952" y="221.07193" font-size="24" font-family="serif" text-anchor="middle" xml:space="preserve" transform="matrix(1.0504254869827605,0,0,0.9059828192914949,56.595385676365936,44.4854801681605) " stroke="#000000" id="svg_21">Part 6.</text>
  <text fill="#ff7f00" stroke-width="0" stroke-dasharray="null" stroke-linejoin="null" stroke-linecap="null" x="285.06064" y="45.42871" font-size="24" font-family="serif" text-anchor="middle" xml:space="preserve" transform="matrix(1.1546847510078777,0,0,0.9924150868456394,-41.14369746384415,-0.21009776149229475) " stroke="#000000" id="svg_23">Part 1.</text>
  <text fill="#ff7f00" stroke-width="0" stroke-dasharray="null" stroke-linejoin="null" stroke-linecap="null" x="416.30262" y="44.55918" font-size="24" font-family="serif" text-anchor="middle" xml:space="preserve" transform="matrix(1.03553120422211,0,0,1.0554724755392897,27.916933953950775,-1.6249993015983195) " stroke="#000000" id="svg_24">Part 2.</text>
 </g>
</svg>