<svg width="905" height="640.0000000000002" xmlns="http://www.w3.org/2000/svg" xmlns:svg="http://www.w3.org/2000/svg" xmlns:xlink="http://www.w3.org/1999/xlink">
 <!-- Created with SVG-edit - http://svg-edit.googlecode.com/ -->
 <title>Sustainable Energy and a Sustainable Environment for the 21st Century: The Role of Nuclear Power Generation</title>
 <defs>
  <marker refY="50" refX="50" markerHeight="5" markerWidth="5" viewBox="0 0 100 100" orient="auto" markerUnits="strokeWidth" id="se_marker_mid_svg_36">
   <path stroke-width="10" fill="#000000" d="m100,50l-100,40l30,-40l-30,-40l100,40z" id="svg_1" stroke="#000000"/>
  </marker>
  <marker refY="50" refX="50" markerHeight="5" markerWidth="5" viewBox="0 0 100 100" orient="auto" markerUnits="strokeWidth" id="se_marker_mid_svg_41">
   <path stroke-width="10" fill="#000000" d="m100,50l-100,40l30,-40l-30,-40l100,40z" id="svg_4" stroke="#000000"/>
  </marker>
  <marker refY="50" refX="50" markerHeight="5" markerWidth="5" viewBox="0 0 100 100" orient="auto" markerUnits="strokeWidth" id="se_marker_mid_svg_44">
   <path stroke-width="10" fill="#000000" d="m100,50l-100,40l30,-40l-30,-40l100,40z" id="svg_6" stroke="#000000"/>
  </marker>
  <pattern id="gridpattern" patternUnits="userSpaceOnUse" x="0" y="0" width="100" height="100">
   <image id="svg_7" x="0" y="0" width="100" height="100"/>
  </pattern>
 </defs>
 <g display="inline" stroke="null">
  <title>圖遮罩</title>
 </g>

 <g display="inline" stroke="null">
  <title>色塊</title>
  <rect id="svg_5" fill="#007fff" stroke-width="0" x="384.55557" y="15.85186" width="160" height="200.99998" opacity="0.3" stroke="#000000"/>
  <rect id="svg_10" fill="#007fff" stroke-width="0" x="220.00001" y="16.85187" width="160" height="201" opacity="0.3" stroke="#000000"/>
  <rect id="svg_11" fill="#007fff" stroke-width="0" x="547.11112" y="15.85188" width="160" height="200.99998" opacity="0.3" stroke="#000000"/>
  <rect id="svg_12" fill="#007fff" stroke-width="0" x="383.55556" y="222.40743" width="160" height="200.99998" opacity="0.3" stroke="#000000"/>
  <rect id="svg_13" fill="#007fff" stroke-width="0" x="219.00001" y="223.40742" width="160" height="199.00002" opacity="0.3" stroke="#000000"/>
  <rect id="svg_14" fill="#007fff" stroke-width="0" x="547.11112" y="222.40744" width="160" height="200.99998" opacity="0.3" stroke="#000000"/>
  <rect id="svg_16" fill="#007fff" stroke-width="0" x="219.8881" y="427.60942" width="160" height="197.77622" opacity="0.3" stroke="#000000"/>
  <rect fill="#007fff" stroke-width="0" x="4.94446" y="16.85182" width="211.11108" height="611.11114" opacity="0.3" id="svg_8" stroke="#000000"/>
  <rect fill="#007fff" stroke-width="0" x="712.95869" y="13.6019" width="177.77774" height="613.61568" opacity="0.3" id="svg_9" stroke="#000000"/>
  <rect fill="#00007f" stroke-width="0" stroke-dasharray="null" stroke-linejoin="null" stroke-linecap="null" x="734.69167" y="21.29468" width="155.31393" height="32.75" id="svg_21" stroke-opacity="0" stroke="#000000"/>
  <rect fill="#00007f" stroke-width="0" stroke-dasharray="null" stroke-linejoin="null" stroke-linecap="null" x="3.83459" y="190.58396" width="103.58223" height="29.28736" id="svg_22" stroke-opacity="0" stroke="#000000"/>
  <rect fill="#00007f" stroke-width="0" stroke-dasharray="null" stroke-linejoin="null" stroke-linecap="null" x="714.32991" y="434.22516" width="168.08593" height="34.625" id="svg_29" stroke-opacity="0" stroke="#000000"/>
 </g>
 <g display="inline" stroke="null">
  <title>圖片</title>
  <g stroke="null" display="inline">
  <title>Speaker's photo</title>
  <image x="21.3" y="87.95" width="75" height="91.2829" id="svg_3" xlink:href="https://farm5.staticflickr.com/4584/26971739889_d550d6b8c3_m.jpg"/>
  </g>
  <g stroke="null" display="inline">
  <title>Part 1's photo</title>
  <image x="220.85" y="110.15" width="158.74999" height="105.50001" id="svg_30" xlink:href="https://farm5.staticflickr.com/4177/34687786996_774075701d_b.jpg"/>
  </g>
  <g stroke="null" display="inline">
  <title>Part 2's photo</title>
  <image x="387.35" y="111.07128" width="155.05296" height="106.82872" id="svg_32" xlink:href="https://farm5.staticflickr.com/4164/34687786696_0fbfefd047_b.jpg"/>
  </g>
  <g stroke="null" display="inline">
  <title>Part 3's photo</title>
  <image x="549.35001" y="110.9" width="156.24999" height="105.5" id="svg_33" xlink:href="https://farm5.staticflickr.com/4156/33918599913_61dd2d6ecc_b.jpg"/>
  </g>
  <g stroke="null" display="inline">
  <title>Part 4's photo</title>
  <image x="218.35" y="313.65001" width="161.25" height="105.5" id="svg_47" xlink:href="https://farm5.staticflickr.com/4189/33885630104_6f23371ca2_b.jpg"/>
  </g>
  <g stroke="null" display="inline">
  <title>Part 5's photo</title>
  <image x="384.85" y="314.65" width="157.50001" height="105.49999" id="svg_48" xlink:href="https://farm5.staticflickr.com/4171/34566054312_86f1603cea_b.jpg"/>
  </g>
  <g stroke="null" display="inline">
  <title>Part 6's photo</title>
  <image x="548.85" y="312.9" width="155.00001" height="106.75001" id="svg_50" xlink:href="https://farm5.staticflickr.com/4175/33885629144_3c47e14d89_b.jpg"/>
  </g>
  <g stroke="null" display="inline">
  <title>Q&amp;A's photo</title>
  <image x="220.85" y="516.4" width="157.50001" height="105.50001" id="svg_51" xlink:href="https://farm5.staticflickr.com/4184/34687784696_6cdb8683e1_b.jpg"/>
  </g>
  <g stroke="null" display="inline">
  <title>Group's photo</title>
  <image x="398.37613" y="432.06421" width="293.81207" height="195.68343" id="svg_53" xlink:href="https://farm5.staticflickr.com/4189/34687784516_ddedfa74c8_b.jpg"/>
  </g>
  <g stroke="null" display="inline">
  <title>Further Reading's photo</title>
  <image x="733.22225" y="527.02221" width="140.88889" height="86.93144" id="svg_68" xlink:href="https://farm5.staticflickr.com/4578/38716941572_2edf1abf8e_z.jpg"/>
  </g>
  <a id="svg_76" xlink:href="https://www.youtube.com/watch?v=UNUpZCdOgI8" stroke="null">
   <path marker-mid="url(#se_marker_mid_svg_41)" d="m797.75556,569.00197c-8.26903,0 -14.97223,6.47597 -14.97223,14.46469c0,7.98872 6.7032,14.46469 14.97223,14.46469c8.26903,0 14.97222,-6.47597 14.97222,-14.46469c0,-7.98872 -6.70319,-14.46469 -14.97222,-14.46469zm-2.40541,24.14331l-3.64261,-3.52212l6.37355,-6.1575l-6.37355,-6.15749l3.64261,-3.51914l10.0172,9.67663l-10.0172,9.67962z" stroke-linecap="null" stroke-linejoin="null" stroke-dasharray="null" stroke-width="0" fill="#bf0000" id="svg_72" stroke="#000000"/>
  </a>
  <image x="63.98693" y="527.88755" width="149.05697" height="92.86245" id="svg_18" xlink:href="https://farm5.staticflickr.com/4179/34687787166_f2fefc2fa9_b.jpg"/>
  <image x="726.125" y="321.50001" width="149" height="92" xlink:href="https://farm5.staticflickr.com/4187/34687786046_9868eb8285_b.jpg" id="svg_60"/>
 </g>
 <g display="inline" stroke="null">
  <title>標題</title>
  <g stroke="null" display="inline">
  <title>Sustainable Energy and a Sustainable</title>
  <text transform="matrix(0.4814201822284334,0,0,0.9972073231301029,197.73348081142765,41.77650569489095) " font-weight="normal" xml:space="preserve" text-anchor="middle" font-family="Cursive" font-size="24" id="svg_45" y="2.3922" x="-176.49076" stroke-linecap="null" stroke-linejoin="null" stroke-dasharray="null" stroke-width="0" fill="#0000ff" opacity="0.85">Sustainable Energy and a Sustainable</text>
  </g>
  <g stroke="null" display="inline">
  <title>Part 7-</title>
  <text transform="matrix(0.7758735162637053,0,0,0.8653728014165613,37.1195315830668,73.69171775428313) " xml:space="preserve" text-anchor="middle" font-family="serif" font-size="24" id="svg_35" y="454.64661" x="335.02092" stroke-linecap="null" stroke-linejoin="null" stroke-dasharray="null" stroke-width="0" fill="#0000ff" stroke="#000000">Part 7-</text>
  </g>
  <g stroke="null" display="inline">
  <title>Speaker&#x27;s</title>
  <text transform="matrix(0.7654359459071594,0,0,0.7513060920926187,191.6256893537115,14.14857333686209) " font-style="italic" fill="#ffffff" stroke-width="0" stroke-dasharray="null" stroke-linejoin="null" stroke-linecap="null" opacity="0.8" x="761.5239" y="39.55294" id="svg_25" font-size="24" font-family="serif" text-anchor="middle" xml:space="preserve" stroke="null">Speaker&#x27;s</text>
  </g>
  <g stroke="null" display="inline">
  <title>Abstract</title>
  <text fill="#ffffff" stroke-width="0" stroke-dasharray="null" stroke-linejoin="null" stroke-linecap="null" opacity="0.8" x="63.02391" y="198.7869" id="svg_27" font-size="24" font-family="serif" text-anchor="middle" xml:space="preserve" transform="matrix(0.8712908761122634,0,0,0.9110834388312584,-3.0226665376568,32.56104403430815) " font-style="italic" stroke="null">Abstract</text>
  </g>
  <g stroke="null" display="inline">
  <title>Further Reading</title>
  <text fill="#ffffff" stroke-width="0" stroke-dasharray="null" stroke-linejoin="null" stroke-linecap="null" opacity="0.8" x="634.91033" y="454.48505" id="svg_28" font-size="24" font-family="serif" text-anchor="middle" xml:space="preserve" transform="translate(388.8465576171875,441.1921691894531) scale(1.0136302709579468,0.8249392509460449) translate(-388.8465576171875,-441.1921691894531) translate(888.8558959960938,436.2577209472656) scale(0.9734276533126831,1) translate(-888.8558959960938,-436.2577209472656) translate(889.87255859375,504.8636779785156) scale(1) translate(-889.87255859375,-504.8636779785156) translate(889.914306640625,505.77667236328125) scale(1.0139044523239136,1.3043327331542969) translate(-889.914306640625,-505.77667236328125) translate(888.4232177734375,504.6651611328125) scale(1) translate(-888.4232177734375,-504.6651611328125) translate(888.3218994140625,504.255126953125) scale(0.9399330019950867,0.7570223808288574) translate(-888.3218994140625,-504.255126953125) translate(888.0772705078125,504.109619140625) scale(0.8550723195075989,0.9137715697288513) translate(-888.0772705078125,-504.109619140625) matrix(1.0937924253894378,0,0,1.0937924253894378,71.03591400341189,-39.500754610857044) " font-style="italic" stroke="null">Further Reading</text>
  </g>
  <g stroke="null" display="inline">
  <title>22 March 2016</title>
  <text fill="#00007f" stroke-width="0" stroke-dasharray="null" stroke-linejoin="null" stroke-linecap="null" opacity="0.3" x="361.92512" y="259.25208" id="svg_31" font-size="24" font-family="serif" text-anchor="middle" xml:space="preserve" transform="matrix(0.6709829474761951,0,0,0.7249788985497391,-88.87450513288292,-13.11226109543541) " stroke="#000000">22 March 2016</text>
  </g>
  <g stroke="null" display="inline">
  <title>Part 1-</title>
  <text transform="matrix(0.7186002825095741,0,0,0.8725811831265706,232.1768201494149,188.38221733121136) " xml:space="preserve" text-anchor="middle" font-family="serif" font-size="24" y="-143.42052" x="97.24344" stroke-linecap="null" stroke-linejoin="null" stroke-dasharray="null" stroke-width="0" fill="#0000ff" id="svg_61" stroke="#000000">Part 1-</text>
  </g>
  <g stroke="null" display="inline">
  <title>Part 2-</title>
  <text transform="matrix(0.7538175748048075,0,0,0.8242205796673466,212.18196838637044,168.79573276441744) " xml:space="preserve" text-anchor="middle" font-family="serif" font-size="24" y="-127.99614" x="323.18122" stroke-linecap="null" stroke-linejoin="null" stroke-dasharray="null" stroke-width="0" fill="#0000ff" id="svg_62" stroke="#000000">Part 2-</text>
  </g>
  <g stroke="null" display="inline">
  <title>Part 3-</title>
  <text transform="matrix(0.7995426771178651,0,0,0.8698981426559854,166.14214360132294,180.9703854364286) " xml:space="preserve" text-anchor="middle" font-family="serif" font-size="24" y="-139.30518" x="571.89449" stroke-linecap="null" stroke-linejoin="null" stroke-dasharray="null" stroke-width="0" fill="#0000ff" id="svg_63" stroke="#000000">Part 3-</text>
  </g>
  <g stroke="null" display="inline">
  <title>Part 4-</title>
  <text transform="matrix(0.8402026260666668,0,0,0.8753897523639703,67.85341543939317,36.40299549260918) " xml:space="preserve" text-anchor="middle" font-family="serif" font-size="24" y="258.94375" x="265.50744" stroke-linecap="null" stroke-linejoin="null" stroke-dasharray="null" stroke-width="0" fill="#0000ff" id="svg_64" stroke="#000000">Part 4-</text>
  </g>
  <g stroke="null" display="inline">
  <title>Part 5-</title>
  <text transform="matrix(0.7913376151561301,0,0,0.8985211446792839,119.27300944232421,21.897823625545207) " xml:space="preserve" text-anchor="middle" font-family="serif" font-size="24" y="264.74404" x="425.60595" stroke-linecap="null" stroke-linejoin="null" stroke-dasharray="null" stroke-width="0" fill="#0000ff" id="svg_65" stroke="#000000">Part 5-</text>
  </g>
  <g stroke="null" display="inline">
  <title>Part 6-</title>
  <text transform="matrix(0.7993204788153488,0,0,0.7995731474203089,109.95905748934338,51.52886926135753) " xml:space="preserve" text-anchor="middle" font-family="serif" font-size="24" y="259.69923" x="637.0431" stroke-linecap="null" stroke-linejoin="null" stroke-dasharray="null" stroke-width="0" fill="#0000ff" id="svg_66" stroke="#000000">Part 6-</text>
  </g>
  <g stroke="null" display="inline">
  <title>Briefly Talk about the Issues</title>
  <text fill="#00007f" stroke-width="0" stroke-dasharray="null" stroke-linejoin="null" stroke-linecap="null" x="130.41128" y="-73.14342" id="svg_69" font-size="24" font-family="serif" text-anchor="middle" xml:space="preserve" transform="matrix(0.5690862660507486,0,0,0.8467573786287226,225.36883205430482,153.48578196714655) " opacity="0.45" stroke="#000000">Briefly Talk about the Issues</text>
  </g>
  <g stroke="null" display="inline">
  <title>Thermal Light Water Reactors</title>
  <text fill="#00007f" stroke-width="0" stroke-dasharray="null" stroke-linejoin="null" stroke-linecap="null" x="232.4356" y="435.30621" font-size="24" font-family="serif" text-anchor="middle" xml:space="preserve" transform="matrix(0.46991168773102054,0,0,0.8839299702507003,191.19269514366275,-92.10504653372287) " id="svg_80" font-weight="normal" opacity="0.45" stroke="#000000">Thermal Light Water Reactors</text>
  </g>
  <g stroke="null" display="inline">
  <title>Electricity Production</title>
  <text fill="#00007f" stroke-width="0" stroke-dasharray="null" stroke-linejoin="null" stroke-linecap="null" x="833.4778" y="329.92299" font-size="24" font-family="serif" text-anchor="middle" xml:space="preserve" transform="matrix(0.6993369607762848,0,0,0.861861926335368,43.53757585405323,-192.635863113202) " id="svg_82" opacity="0.45" stroke="#000000">Electricity Production</text>
  </g>
  <g stroke="null" display="inline">
  <title>Energy Use</title>
  <text fill="#00007f" stroke-width="0" stroke-dasharray="null" stroke-linejoin="null" stroke-linecap="null" x="354.588" y="-57.78756" font-size="24" font-family="serif" text-anchor="middle" xml:space="preserve" transform="matrix(0.7698367344362451,0,0,0.8476459871613403,188.92823383464824,141.641108811778) " id="svg_87" opacity="0.45" stroke="#000000">Energy Use</text>
  </g>
  <g stroke="null" display="inline">
  <title>Q&amp;A</title>
  <text fill="#00007f" stroke-width="0" stroke-dasharray="null" stroke-linejoin="null" stroke-linecap="null" x="245.80855" y="525.73006" font-size="24" font-family="serif" text-anchor="middle" xml:space="preserve" transform="matrix(0.8507642244533173,0,0,0.9152342983237383,85.30047846081933,13.56231096462026) " id="svg_56" opacity="0.45" stroke="#000000">Q&amp;A</text>
  </g>
  
  <g stroke="null" display="inline">
  <title>Click to watch Part 1's video</title>
  <a id="svg_26" xlink:href="https://www.youtube.com/watch?v=luP3ieGoyyM&amp;list=PLC6YZ5mMz0Sw_5nBK0EB-cR8BhiCKecxY" stroke="null">
   <path id="svg_44" marker-mid="url(#se_marker_mid_svg_44)" d="m239.77154,187.68171c-8.26903,0 -14.97223,6.47597 -14.97223,14.46469c0,7.98872 6.7032,14.46469 14.97223,14.46469c8.26903,0 14.97222,-6.47597 14.97222,-14.46469c0,-7.98872 -6.70319,-14.46469 -14.97222,-14.46469zm-2.40541,24.14332l-3.64261,-3.52213l6.37355,-6.15749l-6.37355,-6.1575l3.64261,-3.51914l10.0172,9.67664l-10.0172,9.67962z" stroke-linecap="null" stroke-linejoin="null" stroke-dasharray="null" stroke-width="0" fill="#0000ff" stroke="#000000"/>
  </a></g>
  <g stroke="null" display="inline">
  <title>Click to watch Part 2's video</title>
  <a id="svg_57" xlink:href="https://www.youtube.com/watch?v=H5gB6t3vcsI&amp;list=PLC6YZ5mMz0Sw_5nBK0EB-cR8BhiCKecxY&amp;index=2" stroke="null">
   <path id="svg_43" marker-mid="url(#se_marker_mid_svg_44)" d="m403.52154,186.68171c-8.26903,0 -14.97223,6.47597 -14.97223,14.46469c0,7.98872 6.7032,14.46469 14.97223,14.46469c8.26903,0 14.97222,-6.47597 14.97222,-14.46469c0,-7.98872 -6.70319,-14.46469 -14.97222,-14.46469zm-2.40541,24.14332l-3.64261,-3.52213l6.37355,-6.15749l-6.37355,-6.1575l3.64261,-3.51914l10.0172,9.67664l-10.0172,9.67962z" stroke-linecap="null" stroke-linejoin="null" stroke-dasharray="null" stroke-width="0" fill="#0000ff" stroke="#000000"/>
  </a></g>
  <g stroke="null" display="inline">
  <title>Click to watch Part 3's video</title>
  <a id="svg_58" xlink:href="https://www.youtube.com/watch?v=xwg9zmEhyAI&amp;index=3&amp;list=PLC6YZ5mMz0Sw_5nBK0EB-cR8BhiCKecxY" stroke="null">
   <path id="svg_42" marker-mid="url(#se_marker_mid_svg_44)" d="m570.02154,186.68172c-8.26903,0 -14.97223,6.47597 -14.97223,14.46469c0,7.98872 6.7032,14.46469 14.97223,14.46469c8.26903,0 14.97222,-6.47597 14.97222,-14.46469c0,-7.98872 -6.70319,-14.46469 -14.97222,-14.46469zm-2.40541,24.14331l-3.64261,-3.52212l6.37355,-6.1575l-6.37355,-6.15749l3.64261,-3.51914l10.0172,9.67663l-10.0172,9.67962z" stroke-linecap="null" stroke-linejoin="null" stroke-dasharray="null" stroke-width="0" fill="#0000ff" stroke="#000000"/>
  </a></g>
  <g stroke="null" display="inline">
  <title>Click to watch Part 4's video</title>
  <a id="svg_59" xlink:href="https://www.youtube.com/watch?v=hXv21z5zZI0&amp;index=4&amp;list=PLC6YZ5mMz0Sw_5nBK0EB-cR8BhiCKecxY" stroke="null">
   <path id="svg_41" marker-mid="url(#se_marker_mid_svg_41)" d="m236.52154,391.93071c-8.26903,0 -14.97223,6.47597 -14.97223,14.46469c0,7.98872 6.7032,14.46469 14.97223,14.46469c8.26903,0 14.97222,-6.47597 14.97222,-14.46469c0,-7.98872 -6.70319,-14.46469 -14.97222,-14.46469zm-2.40541,24.14332l-3.64261,-3.52213l6.37355,-6.15749l-6.37355,-6.1575l3.64261,-3.51914l10.0172,9.67664l-10.0172,9.67962z" stroke-linecap="null" stroke-linejoin="null" stroke-dasharray="null" stroke-width="0" fill="#0000ff" stroke="#000000"/>
  </a></g>
  <g stroke="null" display="inline">
  <title>Click to watch Part 5's video</title>
  <a id="svg_70" xlink:href="https://www.youtube.com/watch?v=iboTGCI4I5g&amp;index=5&amp;list=PLC6YZ5mMz0Sw_5nBK0EB-cR8BhiCKecxY" stroke="null">
   <path id="svg_40" marker-mid="url(#se_marker_mid_svg_41)" d="m401.27154,393.43071c-8.26903,0 -14.97223,6.47597 -14.97223,14.46469c0,7.98872 6.7032,14.46469 14.97223,14.46469c8.26903,0 14.97222,-6.47597 14.97222,-14.46469c0,-7.98872 -6.70319,-14.46469 -14.97222,-14.46469zm-2.40541,24.14332c-1.2142,-1.17404 -2.42841,-2.34809 -3.64261,-3.52213l6.37355,-6.15749l-6.37355,-6.1575l3.64261,-3.51914l10.0172,9.67664l-10.0172,9.67962z" stroke-linecap="null" stroke-linejoin="null" stroke-dasharray="null" stroke-width="0" fill="#0000ff" stroke="#000000"/>
  </a></g>
  <g stroke="null" display="inline">
  <title>Click to watch Part 6's video</title>
  <a id="svg_71" xlink:href="https://www.youtube.com/watch?v=PGgN4R4DxgI&amp;index=6&amp;list=PLC6YZ5mMz0Sw_5nBK0EB-cR8BhiCKecxY" stroke="null">
   <path id="svg_39" marker-mid="url(#se_marker_mid_svg_41)" d="m567.27154,392.59839c-8.26903,0 -14.97223,6.47597 -14.97223,14.46469c0,7.98872 6.7032,14.46469 14.97223,14.46469c8.26903,0 14.97222,-6.47597 14.97222,-14.46469c0,-7.98872 -6.70319,-14.46469 -14.97222,-14.46469zm-2.40541,24.14331l-3.64261,-3.52212l6.37355,-6.1575l-6.37355,-6.15749l3.64261,-3.51914l10.0172,9.67663l-10.0172,9.67962z" stroke-linecap="null" stroke-linejoin="null" stroke-dasharray="null" stroke-width="0" fill="#0000ff" stroke="#000000"/>
  </a></g>
  <g stroke="null" display="inline">
  <title>Click to watch Part 7's video</title>
  <a id="svg_74" xlink:href="https://www.youtube.com/watch?v=biUEsgULuVc&amp;index=7&amp;list=PLC6YZ5mMz0Sw_5nBK0EB-cR8BhiCKecxY" stroke="null">
   <path marker-mid="url(#se_marker_mid_svg_36)" id="svg_36" d="m238.93821,598.25807c-8.26903,0 -14.97222,6.47597 -14.97222,14.46469c0,7.98872 6.7032,14.46469 14.97222,14.46469c8.26903,0 14.97222,-6.47597 14.97222,-14.46469c0,-7.98872 -6.7032,-14.46469 -14.97222,-14.46469zm-2.4054,24.14331l-3.64262,-3.52212l6.37355,-6.1575l-6.37355,-6.1575l3.64262,-3.51914l10.01719,9.67663l-10.01719,9.67962l0,0.00001z" stroke-linecap="null" stroke-linejoin="null" stroke-dasharray="null" stroke-width="0" fill="#0000ff" stroke="#000000"/>
  </a></g>

  <text fill="#3f3f3f" stroke-width="0" stroke-dasharray="null" stroke-linejoin="null" stroke-linecap="null" x="772.10043" y="542.0428" id="svg_83" font-size="24" font-family="serif" text-anchor="middle" xml:space="preserve" stroke="#000000"/>
  <g id="svg_180" stroke="null"/>
  
  <g stroke="null" display="inline">
  <title>Nuclear Fusion</title>
  <text fill="#00007f" stroke-width="0" stroke-dasharray="null" stroke-linejoin="null" stroke-linecap="null" x="511.38174" y="405.32425" font-size="24" font-family="serif" text-anchor="middle" xml:space="preserve" transform="matrix(0.5590848127306068,0,0,0.7897878969132146,173.37786201053123,-37.8912066705616) " id="svg_34" font-weight="normal" opacity="0.45" stroke="#000000">Nuclear Fusion</text>
  </g>
  <g stroke="null" display="inline">
  <title>Safety and</title>
  <text fill="#00007f" stroke-width="0" stroke-dasharray="null" stroke-linejoin="null" stroke-linecap="null" x="796.415" y="414.86108" font-size="24" font-family="serif" text-anchor="middle" xml:space="preserve" transform="matrix(0.6257756941738649,0,0,0.7105439553493882,129.7347654693444,-15.361980794936523) " id="svg_46" opacity="0.45" stroke="#000000">Safety and</text>
  </g>
  <g stroke="null" display="inline">
  <title>Biography</title>
  <text fill="#ffffff" stroke-width="0" stroke-dasharray="null" stroke-linejoin="null" stroke-linecap="null" x="1931.30772" y="-67.19117" id="svg_49" font-size="24" font-family="serif" text-anchor="middle" xml:space="preserve" font-style="italic" transform="matrix(0.6801194434821827,0,0,0.7358368414032389,-461.7346070395839,93.5388139388116) " opacity="0.8" stroke="null">Biography</text>
  </g>
  <g stroke="null" display="inline">
  <title>Prof. Roger Cashmore</title>
  <text id="svg_73" fill="#00007f" stroke-width="0" stroke-dasharray="null" stroke-linejoin="null" stroke-linecap="null" opacity="0.3" x="112.92824" y="230.36654" font-size="24" font-family="serif" text-anchor="middle" xml:space="preserve" transform="matrix(0.5118879585120139,0,0,0.8057423811681343,98.80079096998064,-29.828797248856937) " stroke="#000000">Prof. Roger Cashmore</text>
  </g>
  <g stroke="null" display="inline">
  <title>The Role of Nuclear Power Generation</title>
  <text id="svg_38" transform="matrix(0.45968043011451987,0,0,0.9710839230978755,148.11354503069703,49.53879429719027) " font-weight="normal" xml:space="preserve" text-anchor="middle" font-family="Cursive" font-size="24" y="33.60842" x="-73.11563" stroke-linecap="null" stroke-linejoin="null" stroke-dasharray="null" stroke-width="0" fill="#0000ff" opacity="0.85">The Role of Nuclear Power Generation</text>
  </g>
  <g stroke="null" display="inline">
  <title>Environment for the 21st Century:</title>
  <text transform="matrix(0.4859493419673382,0,0,0.9658673742551753,208.22103672602125,21.520663347597498) " font-weight="normal" xml:space="preserve" text-anchor="middle" font-family="Cursive" font-size="24" y="43.07557" x="-193.08344" stroke-linecap="null" stroke-linejoin="null" stroke-dasharray="null" stroke-width="0" fill="#0000ff" opacity="0.85" id="svg_2">Environment for the 21st Century:</text>
  </g>
  <g stroke="null" display="inline">
  <title>The Ultimate Power Source</title>
  <text fill="#00007f" stroke-width="0" stroke-dasharray="null" stroke-linejoin="null" stroke-linecap="null" x="519.82174" y="419.29301" font-size="24" font-family="serif" text-anchor="middle" xml:space="preserve" transform="matrix(0.5742634317153633,0,0,0.8300705158168302,164.93890141353555,-50.5663898269993) " font-weight="normal" opacity="0.45" id="svg_20" stroke="#000000">The Ultimate Power Source</text>
  </g>
  <g stroke="null" display="inline">
  <title>Nuclear Radiation</title>
  <text fill="#00007f" stroke-width="0" stroke-dasharray="null" stroke-linejoin="null" stroke-linecap="null" x="692.14441" y="401.13919" font-size="24" font-family="serif" text-anchor="middle" xml:space="preserve" transform="matrix(0.6257756941738649,0,0,0.7105439553493882,200.73476546934444,12.638019205063474) " opacity="0.45" id="svg_24" stroke="#000000">Nuclear Radiation</text>
  </g>
  <g stroke="null" display="inline">
  <title>1. Prof Roger Cashmore -</title>
  <text fill="#003f7f" stroke-width="0" stroke-dasharray="null" stroke-linejoin="null" stroke-linecap="null" x="844.67317" y="503.75693" font-size="24" font-family="serif" text-anchor="middle" xml:space="preserve" transform="matrix(0.6554577946662903,0,0,0.6554577946662903,246.6976024908945,164.27664680872113) " id="svg_54" stroke="#003f7f">1. Prof Roger Cashmore -</text>
  </g>
  <g stroke="null" display="inline">
  <title>Atomic Energy Authority</title>
  <text fill="#003f7f" stroke-width="0" stroke-dasharray="null" stroke-linejoin="null" stroke-linecap="null" x="742.33921" y="475.58174" font-size="24" font-family="serif" text-anchor="middle" xml:space="preserve" transform="matrix(0.6056765538199897,0,0,0.6056765538199897,358.5392937169602,227.08705954383282) " id="svg_55" stroke="#003f7f">Atomic Energy Authority</text>
  </g>
  <g stroke="null" display="inline">
  <title>Welcoming</title>
  <text transform="translate(8.039060592651367,540.2266845703125) scale(0.8730688691139221,1.063760757446289) translate(-8.039060592651367,-540.2266845703125) translate(8.282907485961914,539.6988525390625) scale(0.9349741339683533,0.8592450618743896) translate(-8.282907485961914,-539.6988525390625) matrix(0.974813738525776,0,0,1.0909091234207149,5.864163925782821,-20.704554289579402) " xml:space="preserve" text-anchor="middle" font-family="serif" font-size="24" y="498.06053" x="66.95463" stroke-linecap="null" stroke-linejoin="null" stroke-dasharray="null" stroke-width="0" fill="#0000ff" id="svg_19" font-weight="bold" font-style="italic" stroke="#000000">Welcoming</text>
  </g>
  
  <g stroke="null" display="inline">
  <title>Click to watch Welcoming's video</title>
  <a id="svg_37" xlink:href="https://www.youtube.com/watch?v=luP3ieGoyyM&amp;list=PLC6YZ5mMz0Sw_5nBK0EB-cR8BhiCKecxY" stroke="null">
   <path marker-mid="url(#se_marker_mid_svg_44)" d="m69.99999,591.78532c-8.26903,0 -14.97223,6.47597 -14.97223,14.46469c0,7.98872 6.7032,14.46469 14.97223,14.46469c8.26903,0 14.97222,-6.47597 14.97222,-14.46469c0,-7.98872 -6.70319,-14.46469 -14.97222,-14.46469zm-2.40541,24.14332l-3.64261,-3.52213l6.37355,-6.15749l-6.37355,-6.1575l3.64261,-3.51914l10.0172,9.67664l-10.0172,9.67962z" stroke-linecap="null" stroke-linejoin="null" stroke-dasharray="null" stroke-width="0" fill="#0000ff" id="svg_23" stroke="#000000"/>
  </a></g>
 </g>
 
  <g display="inline" stroke="null">
  <title>文字</title>
  <g stroke="null" display="inline">
  <title>
  Professor Roger Cashmore 
  was appointed Chairman 
  of the UK Atomic Energy 
  Authority in 2010. 
  He is a Fellow of the 
  oyal Society and in 2010 
  led the Royal Society 
  working group on Nuclear 
  Proliferation. 
  He is a former Principal 
  of Brasenose College in Oxford, 
  and is a Professor of 
  Experimental Physics in Oxford.
  </title>
  <image x="723.1889" y="35.54409" width="180.71561" height="278.35639" id="svg_17" xlink:href="https://farm5.staticflickr.com/4518/24874855588_4b1a37f14c_b.jpg" transform="translate(-10,1.25) "/>
  </g>
  <g stroke="null" display="inline">
  <title>
  There are many aspects 
  to the provision of 
  sustainable energy and 
  a sustainable environment, 
  nationally and globally, 
  in the 21st century ranging 
  over issues of energy sources, 
  security of supply, 
  demand and use, 
  cost and climate change.
  </title>
  <image x="31.56112" y="208.09197" width="149.96604" height="311.53833" id="svg_52" xlink:href="https://farm5.staticflickr.com/4526/37860811785_3d653f63e4_b.jpg"/>
  </g>
 </g>
</svg>