<svg width="904.9999999999999" height="640.0000000000001" xmlns="http://www.w3.org/2000/svg" xmlns:svg="http://www.w3.org/2000/svg" xmlns:xlink="http://www.w3.org/1999/xlink">
 <!-- Created with SVG-edit - http://svg-edit.googlecode.com/ -->
 <title>On the Social Dynamics of Philosophical Ideas: Dai Zhen&#x27;s Critique of Neo-Confucianism</title>
 <defs>
  <marker refY="50" refX="50" markerHeight="5" markerWidth="5" viewBox="0 0 100 100" orient="auto" markerUnits="strokeWidth" id="se_marker_mid_svg_41">
   <path stroke-width="10" fill="#000000" d="m100,50l-100,40l30,-40l-30,-40l100,40z" id="svg_4" stroke="#000000"/>
  </marker>
  <marker refY="50" refX="50" markerHeight="5" markerWidth="5" viewBox="0 0 100 100" orient="auto" markerUnits="strokeWidth" id="se_marker_mid_svg_44">
   <path stroke-width="10" fill="#000000" d="m100,50l-100,40l30,-40l-30,-40l100,40z" id="svg_6" stroke="#000000"/>
  </marker>
  <pattern id="gridpattern" patternUnits="userSpaceOnUse" x="0" y="0" width="100" height="100">
   <image id="svg_7" x="0" y="0" width="100" height="100"/>
  </pattern>
 </defs>


 <g display="none">
  <title>圖遮罩</title>
 </g>




 <g display="inline" stroke="null">
  <title>色塊</title>
  <rect stroke="#000000" id="svg_5" fill="#ff7f00" stroke-width="0" x="381.55557" y="16.85186" width="160" height="200.99998" opacity="0.3"/>
  <rect stroke="#000000" id="svg_10" fill="#ff7f00" stroke-width="0" x="217.00001" y="17.85187" width="160" height="201" opacity="0.3"/>
  <rect stroke="#000000" id="svg_11" fill="#ff7f00" stroke-width="0" x="545.11112" y="16.85188" width="160" height="200.99998" opacity="0.3"/>
  <rect stroke="#000000" id="svg_12" fill="#ff7f00" stroke-width="0" x="381.55556" y="220.40743" width="160" height="200.99998" opacity="0.3"/>
  <rect stroke="#000000" id="svg_13" fill="#ff7f00" stroke-width="0" x="217.00001" y="221.40742" width="160" height="201.00001" opacity="0.3"/>
  <rect stroke="#000000" id="svg_14" fill="#ff7f00" stroke-width="0" x="545.11112" y="220.40744" width="160" height="200.99998" opacity="0.3"/>
  <rect stroke="#000000" id="svg_15" fill="#ff7f00" stroke-width="0" x="217.55556" y="423.96296" width="486.66673" height="204" opacity="0.3"/>
  <rect stroke="#000000" fill="#ff7f00" stroke-width="0" x="15.94447" y="16.85182" width="199.11107" height="611.11114" opacity="0.3" id="svg_8"/>
  <rect stroke="#000000" fill="#ff7f00" stroke-width="0" x="710.05555" y="15.8519" width="177.77774" height="612.11106" opacity="0.3" id="svg_9"/>
  <rect fill="#ffffaa" stroke-width="5" stroke-dasharray="null" stroke-linejoin="null" stroke-linecap="null" x="752.0289" y="34.85" width="138" height="33.66667" id="svg_22"/>
 </g>



 <g display="inline" stroke="null">
  <title>標題</title>


  
<g display="inline" stoke="null">
   <title>pictures</title><image xlink:href="https://farm5.staticflickr.com/4279/35006138201_613f603c11_b.jpg" id="svg_60" height="100" width="150" y="320" x="550.99999"/>
  
</g>
<g display="inline" stoke="null">
   <title>pictures</title><image xlink:href="https://farm1.staticflickr.com/888/41493014961_46447f3b20_k.jpg" id="svg_54" height="100" width="150" y="319.99997" x="388.99999"/>
  
</g>
<g display="inline" stoke="null">
   <title>pictures</title><image xlink:href="https://farm5.staticflickr.com/4206/35005904761_4f49048533_b.jpg" id="svg_51" height="100" width="150" y="319.33334" x="223.66666"/>
  
</g>
<g display="inline" stoke="null">
   <title>pictures</title><image xlink:href="https://farm5.staticflickr.com/4269/34326743073_2faf445851_b.jpg" id="svg_56" height="100" width="150" y="116.00002" x="551"/>
  
</g>
<g display="inline" stoke="null">
   <title>pictures</title><image xlink:href="https://farm1.staticflickr.com/869/40599633055_1fa185727d_k.jpg" id="svg_50" height="100" width="150" y="117" x="385.00001"/>
  
</g>
<g display="inline" stoke="null">
   <title>pictures</title><image xlink:href="https://farm1.staticflickr.com/804/41493016081_ce9a7d0bec_k.jpg" id="svg_49" height="100" width="150" y="118.22222" x="223.66667"/>
  
</g>

<g display="inline" stoke="null">
   <title>Private Law and</title><text transform="matrix(0.9576201737800883,0,0,1.6736224447935504,342.94321615438474,30.44916093202012) " font-weight="normal" xml:space="preserve" text-anchor="middle" font-family="serif" font-size="24" id="svg_45" y="16.36966" x="-236.04007" stroke-linecap="null" stroke-linejoin="null" stroke-dasharray="null" stroke-width="0" fill="#7f003f">Private Law and</text>

</g>
<g display="inline" stoke="null">
   <title>Prof. Hugh Collins</title> <text font-weight="normal" fill="#7f003f" stroke-width="0" stroke-dasharray="null" stroke-linejoin="null" stroke-linecap="null" opacity="0.8" x="8.66368" y="250.60539" id="svg_31" font-size="24" font-family="serif" text-anchor="middle" xml:space="preserve" transform="matrix(0.6707111058580465,0,0,1.0238362714846265,99.5689771924791,-26.87416317983932) " stroke="#000000">Prof. Hugh Collins</text>

</g> 
<g display="inline" stoke="null">
   <title>Part 1</title> <text transform="matrix(0.9355810887206915,0,0,1.2209387538186984,232.41253408782785,234.96649871708127) " xml:space="preserve" text-anchor="middle" font-family="serif" font-size="24" y="-151.95143" x="69.49568" stroke-linecap="null" stroke-linejoin="null" stroke-dasharray="null" stroke-width="0" fill="#ff7f00" stroke="#000000" id="svg_61">Part 1.</text>
  
</g> 
<g display="inline" stoke="null">
   <title>introduction</title><text font-weight="normal" fill="#3f007f" stroke-width="0" stroke-dasharray="null" stroke-linejoin="null" stroke-linecap="null" x="118.08327" y="-76.31271" id="svg_69" font-size="24" font-family="serif" text-anchor="middle" xml:space="preserve" stroke="#000000" transform="matrix(0.8194055225181631,0,0,0.9138608566874137,203.50039165120887,159.45163172704574) ">Introduction</text>
  
</g>
<g display="inline" stoke="null">
   <title>Statutory private law</title><text font-weight="normal" fill="#3f007f" stroke-width="0" stroke-dasharray="null" stroke-linejoin="null" stroke-linecap="null" x="174.12874" y="425.2715" font-size="24" font-family="serif" text-anchor="middle" xml:space="preserve" stroke="#000000" transform="matrix(0.8073977751262614,0,0,0.9070561667434064,157.54539768666083,-83.00499355964145) " id="svg_80">Statutory private law</text>
  
</g>
<g display="inline" stoke="null">
   <title>The Structure</title><text font-weight="normal" fill="#3f007f" stroke-width="0" stroke-dasharray="null" stroke-linejoin="null" stroke-linecap="null" x="307.17514" y="-78.185" font-size="24" font-family="serif" text-anchor="middle" xml:space="preserve" stroke="#000000" transform="matrix(0.7996110320936586,0,0,1.0804329087537867,214.7466775144308,163.204236846184) " id="svg_87">The Structure</text>
  
</g>

<g display="inline" stoke="null">
   <title>Prof Collins Introduction</title><a id="svg_26" xlink:href="https://youtu.be/jxr6b2Os5Q0">
   <path id="svg_44" marker-mid="url(#se_marker_mid_svg_44)" d="m357.27154,184.68171c-8.26903,0 -14.97223,6.47597 -14.97223,14.46469c0,7.98872 6.7032,14.46469 14.97223,14.46469c8.26903,0 14.97222,-6.47597 14.97222,-14.46469c0,-7.98872 -6.70319,-14.46469 -14.97222,-14.46469zm-2.40541,24.14332l-3.64261,-3.52213l6.37355,-6.15749l-6.37355,-6.1575l3.64261,-3.51914l10.0172,9.67664l-10.0172,9.67962z" stroke-linecap="null" stroke-linejoin="null" stroke-dasharray="null" stroke-width="0" fill="#ff7f00" stroke="#000000"/>
  </a>
</g>
  
  
<g display="inline" stoke="null">
   <title>The Structure of Constitution</title><a id="svg_57" xlink:href="https://www.youtube.com/watch?v=qrz5OhqiHjw">
   <path id="svg_43" marker-mid="url(#se_marker_mid_svg_44)" d="m518.77154,184.68171c-8.26903,0 -14.97223,6.47597 -14.97223,14.46469c0,7.98872 6.7032,14.46469 14.97223,14.46469c8.26903,0 14.97222,-6.47597 14.97222,-14.46469c0,-7.98872 -6.70319,-14.46469 -14.97222,-14.46469zm-2.40541,24.14332l-3.64261,-3.52213l6.37355,-6.15749l-6.37355,-6.1575l3.64261,-3.51914l10.0172,9.67664l-10.0172,9.67962z" stroke-linecap="null" stroke-linejoin="null" stroke-dasharray="null" stroke-width="0" fill="#ff7f00" stroke="#000000"/>
  </a>
  
</g>
<g display="inline" stoke="null">
   <title>Three Divergences in Common Value</title><a id="svg_58" xlink:href="https://www.youtube.com/watch?v=L2J1KmcqucU">
   <path id="svg_42" marker-mid="url(#se_marker_mid_svg_44)" d="m684.27154,184.68172c-8.26903,0 -14.97223,6.47597 -14.97223,14.46469c0,7.98872 6.7032,14.46469 14.97223,14.46469c8.26903,0 14.97222,-6.47597 14.97222,-14.46469c0,-7.98872 -6.70319,-14.46469 -14.97222,-14.46469zm-2.40541,24.14331l-3.64261,-3.52212l6.37355,-6.1575l-6.37355,-6.15749l3.64261,-3.51914l10.0172,9.67663l-10.0172,9.67962z" stroke-linecap="null" stroke-linejoin="null" stroke-dasharray="null" stroke-width="0" fill="#ff7f00" stroke="#000000"/>
  </a>
</g>
  
<g display="inline" stoke="null">
   <title>Statutory Private Law</title><a id="svg_59" xlink:href="https://www.youtube.com/watch?v=dSKs8aPuh1s">
   <path id="svg_41" marker-mid="url(#se_marker_mid_svg_41)" d="m358.27154,388.43171c-8.26903,0 -14.97223,6.47597 -14.97223,14.46469c0,7.98872 6.7032,14.46469 14.97223,14.46469c8.26903,0 14.97222,-6.47597 14.97222,-14.46469c0,-7.98872 -6.70319,-14.46469 -14.97222,-14.46469zm-2.40541,24.14332l-3.64261,-3.52213l6.37355,-6.15749l-6.37355,-6.1575l3.64261,-3.51914l10.0172,9.67664l-10.0172,9.67962z" stroke-linecap="null" stroke-linejoin="null" stroke-dasharray="null" stroke-width="0" fill="#ff7f00" stroke="#000000"/>
  </a>
</g>
  
<g display="inline" stoke="null">
   <title>Effects of Constitutionalisation</title><a id="svg_70" xlink:href="https://www.youtube.com/watch?v=f7onBATuyjE">
   <path id="svg_40" marker-mid="url(#se_marker_mid_svg_41)" d="m523.77154,389.43171c-8.26903,0 -14.97223,6.47597 -14.97223,14.46469c0,7.98872 6.7032,14.46469 14.97223,14.46469c8.26903,0 14.97222,-6.47597 14.97222,-14.46469c0,-7.98872 -6.70319,-14.46469 -14.97222,-14.46469zm-2.40541,24.14332c-1.2142,-1.17404 -2.42841,-2.34809 -3.64261,-3.52213l6.37355,-6.15749l-6.37355,-6.1575l3.64261,-3.51914l10.0172,9.67664l-10.0172,9.67962z" stroke-linecap="null" stroke-linejoin="null" stroke-dasharray="null" stroke-width="0" fill="#ff7f00" stroke="#000000"/>
  </a>
</g>
  
<g display="inline" stoke="null">
   <title>QA</title><a id="svg_71" xlink:href="https://www.youtube.com/watch?v=Z41hHnCd06M">
   <path id="svg_39" marker-mid="url(#se_marker_mid_svg_41)" d="m684.27154,387.43172c-8.26903,0 -14.97223,6.47597 -14.97223,14.46469c0,7.98872 6.7032,14.46469 14.97223,14.46469c8.26903,0 14.97222,-6.47597 14.97222,-14.46469c0,-7.98872 -6.70319,-14.46469 -14.97222,-14.46469zm-2.40541,24.14331l-3.64261,-3.52212l6.37355,-6.1575l-6.37355,-6.15749l3.64261,-3.51914l10.0172,9.67663l-10.0172,9.67962z" stroke-linecap="null" stroke-linejoin="null" stroke-dasharray="null" stroke-width="0" fill="#ff7f00" stroke="#000000"/>
  </a>
</g>
  

<text fill="#3f3f3f" stroke="#000000" stroke-width="0" stroke-dasharray="null" stroke-linejoin="null" stroke-linecap="null" x="772.10043" y="542.0428" id="svg_83" font-size="24" font-family="serif" text-anchor="middle" xml:space="preserve"/>
  <g id="svg_180"/>
  
<g display="inline" stoke="null">
   <title>Three divergences</title><text font-weight="normal" fill="#3f007f" stroke-width="0" stroke-dasharray="null" stroke-linejoin="null" stroke-linecap="null" x="727.89553" y="313.58733" font-size="24" font-family="serif" text-anchor="middle" xml:space="preserve" stroke="#000000" transform="matrix(0.8495718932358376,0,0,1.0981282131820482,7.614794363542902,-268.27328698841626) " id="svg_53">Three divergences</text>
  
</g>
<g display="inline" stoke="null">
   <title>Beneficial effects of</title><text font-weight="normal" fill="#3f007f" stroke-width="0" stroke-dasharray="null" stroke-linejoin="null" stroke-linecap="null" x="480.97419" y="436.68242" font-size="24" font-family="serif" text-anchor="middle" xml:space="preserve" stroke="#000000" transform="matrix(0.812401481885715,0,0,1.0216202109195678,70.33329562814781,-154.38330923660425) " id="svg_84">Beneficial effects of</text>
  
</g>
<g display="inline" stoke="null">
   <title>Q&amp;A</title><text font-weight="normal" fill="#3f007f" stroke-width="0" stroke-dasharray="null" stroke-linejoin="null" stroke-linecap="null" x="740.39896" y="432.84254" font-size="24" font-family="serif" text-anchor="middle" xml:space="preserve" stroke="#000000" transform="matrix(0.7874924939278987,0,0,0.9557425292250457,44.946595099073534,-115.6610184906629) " id="svg_86">Q&amp;A</text>
  
</g>
<g display="inline" stoke="null">
   <title>Speaker’s Biography</title><text id="svg_27" fill="#7f003f" stroke-width="0" stroke-dasharray="null" stroke-linejoin="null" stroke-linecap="null" opacity="0.8" x="873.42024" y="89.07273" font-size="24" font-family="serif" text-anchor="middle" xml:space="preserve" font-style="italic" transform="matrix(0.7280527701259416,0,0,0.8188012338468919,170.34399353135802,-17.237344596451262) ">Speaker’s Biography</text>
  
</g>
<g display="inline" stoke="null">
   <title>28 March 2017</title><text font-weight="normal" id="svg_25" transform="matrix(0.8736817125627176,0,0,0.8188056261909935,3.919422718723306,37.79016173543158) " font-style="normal" fill="#7f003f" stroke-width="0" stroke-dasharray="null" stroke-linejoin="null" stroke-linecap="null" opacity="0.8" x="119.15834" y="262.83658" font-size="24" font-family="serif" text-anchor="middle" xml:space="preserve">28 March 2017</text>
  
</g>
<g display="inline" stoke="null">
   <title>Fundamental Rights</title><text id="svg_20" transform="matrix(0.8400493985664872,0,0,1.4788156923358469,328.9617896801167,10.700619696900251) " font-weight="normal" xml:space="preserve" text-anchor="middle" font-family="serif" font-size="24" y="58.05357" x="-250.75514" stroke-linecap="null" stroke-linejoin="null" stroke-dasharray="null" stroke-width="0" fill="#7f003f">Fundamental Rights</text>
  
</g>
<g display="inline" stoke="null">
   <title>News</title><text stroke="#000000" transform="matrix(1.0299065113067627,0,0,1.0909091234207153,-6.669152021408081,-42.974447187036276) " xml:space="preserve" text-anchor="middle" font-family="serif" font-size="24" y="467.40208" x="270.57236" stroke-linecap="null" stroke-linejoin="null" stroke-dasharray="null" stroke-width="0" fill="#ff7f00" id="svg_19" font-weight="bold">News</text>
  
</g>
<g display="inline" stoke="null">
   <title>in common value</title><text font-weight="normal" stroke="#000000" transform="matrix(0.9570955670289649,0,0,0.9570955670289649,-49.18646647321569,-6.51598950068248) " xml:space="preserve" text-anchor="middle" font-family="serif" font-size="24" id="svg_1" y="115.3672" x="707.01847" stroke-linecap="null" stroke-linejoin="null" stroke-dasharray="null" stroke-width="0" fill="#3f007f">in common value</text>
  
</g>
<g display="inline" stoke="null">
   <title>constitutionalisation</title><text font-weight="normal" stroke="#000000" transform="matrix(0.8345598386407292,0,0,0.8345598386407292,55.297693498672885,42.90103969724531) " xml:space="preserve" text-anchor="middle" font-family="serif" font-size="24" id="svg_2" y="323.75994" x="487.44958" stroke-linecap="null" stroke-linejoin="null" stroke-dasharray="null" stroke-width="0" fill="#3f007f">constitutionalisation</text>
  
</g>

<g display="inline" stoke="null">
   <title>test</title><text stroke="#000000" xml:space="preserve" text-anchor="middle" font-family="serif" font-size="24" id="svg_16" y="702" x="240" stroke-linecap="null" stroke-linejoin="null" stroke-dasharray="null" stroke-width="0" fill="#3f007f"/>
</g>
  
<g display="inline" stoke="null">
   <title>Law expert discusses private law challenges</title>
<a xlink:href="http://newscentre.cityu.edu.hk/media/news/2017/03/30/law-expert-discusses-private-law-challenges" id="svg_24"><text font-weight="normal" xml:space="preserve" text-anchor="middle" font-family="serif" font-size="24" id="svg_23" y="600" x="463" stroke-linecap="null" stroke-linejoin="null" stroke-dasharray="null" stroke-width="0" stroke="#000000" fill="#3f007f">Law expert discusses private law challenges</text>
  </a>
</g>
  
<g display="inline" stoke="null">
   <title>of Constitution</title><text font-weight="normal" stroke="#000000" transform="matrix(0.9506745752805726,0,0,0.9506745752805726,29.80038176131825,2.2483193030857365) " xml:space="preserve" text-anchor="middle" font-family="serif" font-size="24" id="svg_3" y="110.22406" x="448.80716" stroke-linecap="null" stroke-linejoin="null" stroke-dasharray="null" stroke-width="0" fill="#3f007f">of Constitution</text>
</g>
  
<g display="inline" stoke="null">
   <title>Part 2.</title><text id="svg_18" transform="matrix(0.9355810887206915,0,0,1.2209387538186984,232.41253408782785,234.96649871708127) " xml:space="preserve" text-anchor="middle" font-family="serif" font-size="24" y="-154.32867" x="250.13542" stroke-linecap="null" stroke-linejoin="null" stroke-dasharray="null" stroke-width="0" fill="#ff7f00" stroke="#000000">Part 2.</text>
</g>
  
<g display="inline" stoke="null">
   <title>Part 3.</title><text id="svg_21" transform="matrix(0.9355810887206915,0,0,1.2209387538186984,232.41253408782785,234.96649871708127) " xml:space="preserve" text-anchor="middle" font-family="serif" font-size="24" y="-154.32867" x="420.08328" stroke-linecap="null" stroke-linejoin="null" stroke-dasharray="null" stroke-width="0" fill="#ff7f00" stroke="#000000">Part 3.</text>
  
</g>
<g display="inline" stoke="null">
   <title>Part 4.</title><text id="svg_28" xml:space="preserve" text-anchor="middle" font-family="serif" font-size="24" y="255.21956" x="291.57093" stroke-linecap="null" stroke-linejoin="null" stroke-dasharray="null" stroke-width="0" fill="#ff7f00" stroke="#000000">Part 4.</text>
</g>
  
<g display="inline" stoke="null">
   <title>Part 5.</title><text id="svg_29" transform="matrix(0.9355810887206915,0,0,1.2209387538186984,232.41253408782785,234.96649871708127) " xml:space="preserve" text-anchor="middle" font-family="serif" font-size="24" y="14.84232" x="251.21067" stroke-linecap="null" stroke-linejoin="null" stroke-dasharray="null" stroke-width="0" fill="#ff7f00" stroke="#000000">Part 5.</text>
</g>
  
<g display="inline" stoke="null">
   <title>Part 7.</title><text id="svg_30" transform="matrix(0.9355810887206915,0,0,1.2209387538186984,232.41253408782785,234.96649871708127) " xml:space="preserve" text-anchor="middle" font-family="serif" font-size="24" y="14.84232" x="421.15853" stroke-linecap="null" stroke-linejoin="null" stroke-dasharray="null" stroke-width="0" fill="#ff7f00" stroke="#000000">Part 7.</text>
</g>
  
<g display="inline" stoke="null">
   <title>pictures</title><image id="svg_32" xlink:href="https://farm1.staticflickr.com/789/41493015811_6785a97705_k.jpg" height="100" width="150" y="506.66666" x="50"/>
</g>

<g display="inline" stoke="null">
   <title>Welcoming</title><text style="cursor: move;" id="svg_34" font-weight="bold" fill="#3f007f" stroke-width="0" stroke-dasharray="null" stroke-linejoin="null" stroke-linecap="null" x="-53.22143" y="622.79829" font-size="24" font-family="serif" text-anchor="middle" xml:space="preserve" stroke="#000000" transform="matrix(0.9980119401001553,0,0,1.1211981412877103,174.25114542377736,-210.2614314314511) ">Welcoming</text>
  
</g>
<g display="inline" stoke="null">
   <title>Welcome</title><a xlink:href="https://youtu.be/jOYQKYQ3hVk" id="svg_36">
   <path id="svg_33" marker-mid="url(#se_marker_mid_svg_41)" d="m233.887,539.93433c-4.70675,0 -8.52222,3.68613 -8.52222,8.23332c0,4.54719 3.81547,8.23332 8.52222,8.23332c4.70675,0 8.52221,-3.68614 8.52221,-8.23332c0,-4.5472 -3.81546,-8.23332 -8.52221,-8.23332zm-1.36916,13.74241l-2.07338,-2.0048l3.62784,-3.50486l-3.62784,-3.50486l2.07338,-2.0031l5.7018,5.50796l-5.7018,5.50965z" stroke-linecap="null" stroke-linejoin="null" stroke-dasharray="null" stroke-width="0" fill="#ff7f00" stroke="#000000"/>
  </a>
</g>
 </g>


 <g display="inline" stroke="null">
  <title></title>
  
<g display="inline" stoke="null">
   <title>speaker's photo</title><image xlink:href="https://c1.staticflickr.com/1/794/39497205890_21c4611aa3_o.png" id="svg_17" height="101" width="84" y="105.66667" x="69.66666"/>
  
</g>
<g display="inline" stoke="null">
   <title>speaker's photo</title><image id="svg_37" xlink:href="https://farm1.staticflickr.com/882/41493018991_6ead437dbe_k.jpg" height="100" width="150" y="456.99999" x="328.16666"/>
  
</g>

<g display="inline" stoke="null">
   <title>speaker's photo</title>
</g><image id="svg_46" xlink:href="https://farm1.staticflickr.com/812/40599634685_bca3bb70fc_k.jpg" height="100" width="150" y="461.66665" x="514.49999"/>
 </g>


 <g stroke="null" display="inline">
  <title>文字</title>


<g display="inline" stoke="null">
   <title>Professor Hugh Collins is the Vinerian Professor of English Law, All Souls College, University of Oxford, and is a Fellow of the British Academy. He studied law at Oxford (MA, BCL) and Harvard Law School (LLM), and became a Fellow of Brasenose College Oxford, from where he moved to be the Professor of English Law and the London School of Economics. His books include: Marxism and Law (1982); The Law of Contract, 4th edn (2003); Justice in Dismissal (1992); Regulating Contracts (1999); Employment Law 2nd edn (2010); A European Civil Code: The Way Forward (2008); Networks as Connected Contracts (by G. Teubner) Edited with an Introduction (2011); Labour Law : Law in Context Series (2012) with K.D.Ewing and A.McColgan; European Contract Law and the Charter of Fundamental Rights (Edited collection 2017).</title>  <image x="717.33334" y="83.25677" width="165" height="546" xlink:href="https://c1.staticflickr.com/1/867/39497206400_d607fff9f7_b.jpg" id="svg_48"/>

</g>


  

<g display="inline" stoke="null">
   <title>Scholars of the fields of private law including contract, tort, and property law have not traditionally been concerned with the application of fundamental rights or human rights to disputes between private parties. Those fundamental rights contained in constitutions and international conventions have been traditionally regarded as applicable only to states but not private individuals and companies. In recent decades, however, in many jurisdictions courts have been permitting arguments based upon fundamental rights to influence the reasoning and outcomes of litigation between private parties. The lecture addresses the question of what kind of challenge is presented to private law by the insertion of fundamental rights into its rules and principles, and whether the challenge presents a threat to the coherence and integrity of private law or instead offers a liberating opportunity for change.</title><image xlink:href="https://c1.staticflickr.com/1/981/26908411327_cd9658f97a_o.png" id="svg_35" height="181.42321" width="203.66667" y="258.66666" x="15"/>

</g> </g>
</svg>