<svg width="904.9999999999999" height="640.0000000000002" xmlns="http://www.w3.org/2000/svg" xmlns:svg="http://www.w3.org/2000/svg" xmlns:xlink="http://www.w3.org/1999/xlink">
 <!-- Created with SVG-edit - http://svg-edit.googlecode.com/ -->
 <title>To Cultivate Chinese Legal Talents with International Outlook by Drawing on the Experience of Hong Kong System</title>
 <defs>
  <marker refY="50" refX="50" markerHeight="5" markerWidth="5" viewBox="0 0 100 100" orient="auto" markerUnits="strokeWidth" id="se_marker_mid_svg_36">
   <path stroke-width="10" fill="#000000" d="m100,50l-100,40l30,-40l-30,-40l100,40z" id="svg_1" stroke="#000000"/>
  </marker>
  <marker refY="50" refX="50" markerHeight="5" markerWidth="5" viewBox="0 0 100 100" orient="auto" markerUnits="strokeWidth" id="se_marker_mid_svg_37">
   <path stroke-width="10" fill="#000000" d="m100,50l-100,40l30,-40l-30,-40l100,40z" id="svg_2" stroke="#000000"/>
  </marker>
  <marker refY="50" refX="50" markerHeight="5" markerWidth="5" viewBox="0 0 100 100" orient="auto" markerUnits="strokeWidth" id="se_marker_mid_svg_38">
   <path stroke-width="10" fill="#000000" d="m100,50l-100,40l30,-40l-30,-40l100,40z" id="svg_3" stroke="#000000"/>
  </marker>
  <marker refY="50" refX="50" markerHeight="5" markerWidth="5" viewBox="0 0 100 100" orient="auto" markerUnits="strokeWidth" id="se_marker_mid_svg_41">
   <path stroke-width="10" fill="#000000" d="m100,50l-100,40l30,-40l-30,-40l100,40z" id="svg_4" stroke="#000000"/>
  </marker>
  <marker refY="50" refX="50" markerHeight="5" markerWidth="5" viewBox="0 0 100 100" orient="auto" markerUnits="strokeWidth" id="se_marker_mid_svg_44">
   <path stroke-width="10" fill="#000000" d="m100,50l-100,40l30,-40l-30,-40l100,40z" id="svg_6" stroke="#000000"/>
  </marker>
  <pattern id="gridpattern" patternUnits="userSpaceOnUse" x="0" y="0" width="100" height="100">
   <image id="svg_7" x="0" y="0" width="100" height="100"/>
  </pattern>
 </defs>
 <g display="inline">
  <title>圖遮罩</title>
 </g>
 <g stroke="null" display="inline">
  <title>文字</title>
  <text stroke="#000000" transform="matrix(0.5065696471044795,0,0,0.6564951505226749,364.7290847066822,135.95904878403326) " fill="#3f3f3f" stroke-width="0" stroke-dasharray="null" stroke-linejoin="null" stroke-linecap="null" x="851.83545" y="408.74696" id="svg_92" font-size="24" font-family="serif" text-anchor="middle" xml:space="preserve" font-weight="bold">1. APAC Innovation Summit 2015</text>
  <text stroke="#000000" transform="matrix(0.5289984750774782,0,0,0.6310067770571341,428.257177923189,107.82216977317813) " fill="#3f3f3f" stroke-width="0" stroke-dasharray="null" stroke-linejoin="null" stroke-linecap="null" x="708.60379" y="498.30052" id="svg_94" font-size="24" font-family="serif" text-anchor="middle" xml:space="preserve" font-weight="bold">- IoT Symposium (16 Apr 2015)</text>
  <image x="14" y="197" width="204" height="292" id="svg_32" xlink:href="https://c1.staticflickr.com/5/4366/37341357245_4585a144e4_o.png"/>
  <image x="715" y="59.00001" width="174" height="283.99999" id="svg_52" xlink:href="https://c1.staticflickr.com/5/4357/37150328246_9fbff289f4_o.png"/>
  <text font-weight="bold" stroke="#000000" transform="matrix(0.5035192345527149,0,0,0.6499385148787921,397.51201614401145,193.9968454570728) " xml:space="preserve" text-anchor="middle" font-family="serif" font-size="24" id="svg_79" y="556.10023" x="790.75739" stroke-linecap="null" stroke-linejoin="null" stroke-dasharray="null" stroke-width="0" fill="#3f3f3f">2. How Can End Devices Play a</text>
  <text font-weight="bold" stroke="#000000" transform="matrix(0.5951934659958763,0,0,0.5631366597826507,343.92656959144824,237.78992963515154) " xml:space="preserve" text-anchor="middle" font-family="serif" font-size="24" id="svg_81" y="594.10972" x="770.2411" stroke-linecap="null" stroke-linejoin="null" stroke-dasharray="null" stroke-width="0" fill="#3f3f3f">Deeper Role in Deep learning</text>
  <text font-weight="bold" stroke="#000000" transform="matrix(0.5151596285064195,0,0,0.6639119015759138,296.55923959675386,181.59891724595448) " xml:space="preserve" text-anchor="middle" font-family="serif" font-size="24" id="svg_89" y="615.34286" x="984.03289" stroke-linecap="null" stroke-linejoin="null" stroke-dasharray="null" stroke-width="0" fill="#3f3f3f">Beyond Just Being Dumb Devices?</text>
  <a xlink:href="https://www.csie.ntu.edu.tw/app/news.php?Sn=11989" id="svg_97">
   <text font-weight="bold" font-style="italic" stroke="#000000" transform="matrix(0.576057744196561,0,0,0.5777777433395387,297.9464661655108,265.2277972698212) " xml:space="preserve" text-anchor="middle" font-family="serif" font-size="24" id="svg_95" y="595.39426" x="970.66837" stroke-linecap="null" stroke-linejoin="null" stroke-dasharray="null" stroke-width="0" fill="#007f7f">ReadMore</text>
  </a>
 </g>
 <g display="inline" stroke="null">
  <title>色塊</title>
  <rect stroke="#000000" id="svg_5" fill="#aad4ff" stroke-width="0" x="383.55557" y="15.85186" width="160" height="200.99998" opacity="0.3"/>
  <rect stroke="#000000" id="svg_10" fill="#aad4ff" stroke-width="0" x="219.00001" y="16.85187" width="160" height="201" opacity="0.3"/>
  <rect stroke="#000000" id="svg_11" fill="#aad4ff" stroke-width="0" x="547.11112" y="15.85188" width="160" height="200.99998" opacity="0.3"/>
  <rect stroke="#000000" id="svg_12" fill="#aad4ff" stroke-width="0" x="383.55556" y="219.40743" width="160" height="200.99998" opacity="0.3"/>
  <rect stroke="#000000" id="svg_13" fill="#aad4ff" stroke-width="0" x="219.00001" y="220.40742" width="160" height="201.00001" opacity="0.3"/>
  <rect stroke="#000000" id="svg_14" fill="#aad4ff" stroke-width="0" x="547.11112" y="219.40744" width="160" height="200.99998" opacity="0.3"/>
  <rect stroke="#000000" id="svg_15" fill="#aad4ff" stroke-width="0" x="383.55556" y="422.96296" width="160" height="204" opacity="0.3"/>
  <rect stroke="#000000" id="svg_16" fill="#aad4ff" stroke-width="0" x="219" y="423.96297" width="160" height="203.99999" opacity="0.3"/>
  <rect stroke="#000000" id="svg_17" fill="#aad4ff" stroke-width="0" x="547.11112" y="422.96296" width="160" height="204" opacity="0.3"/>
  <rect stroke="#000000" fill="#aad4ff" stroke-width="0" x="15.94447" y="16.85182" width="199.11107" height="611.11114" opacity="0.3" id="svg_8"/>
  <rect stroke="#000000" fill="#aad4ff" stroke-width="0" x="712.05555" y="14.8519" width="177.77774" height="612.11106" opacity="0.3" id="svg_9"/>
  <rect fill="none" stroke-width="5" x="29.66667" y="492.15741" width="171" height="143.5" id="svg_19" stroke="#ffffff"/>
  <rect fill="#aaaaff" stroke-width="5" stroke-dasharray="null" stroke-linejoin="null" stroke-linecap="null" x="17.275" y="162.9125" width="132" height="35" id="svg_21"/>
  <rect fill="#aaaaff" stroke-width="5" stroke-dasharray="null" stroke-linejoin="null" stroke-linecap="null" x="742.0289" y="24.85" width="148" height="33.66667" id="svg_22"/>
  <rect stroke-opacity="0" fill="#aaaaff" stroke-width="5" stroke-dasharray="null" stroke-linejoin="null" stroke-linecap="null" x="16.78281" y="500.43334" width="132" height="35" id="svg_24" stroke="#000000"/>
  <rect stroke-opacity="0" fill="#aaaaff" stroke-width="5" stroke-dasharray="null" stroke-linejoin="null" stroke-linecap="null" x="745.75935" y="344.6" width="144.08594" height="34.625" id="svg_29" stroke="#000000"/>
 </g>
 <g display="inline" stroke="null">
  <title>圖片</title>
  <image x="21.16669" y="81.58334" width="74.25" height="75" id="svg_93" xlink:href="https://c1.staticflickr.com/5/4381/37131574896_c1d2cfd880_o.png"/>
  <image xlink:href="https://farm5.staticflickr.com/4355/37321206535_30495a88b7_z.jpg" id="svg_23" height="112" width="123.99999" y="528" x="48.00001"/>
  <image x="364.99999" y="112.99999" width="196.00001" height="95.00001" id="svg_51" xlink:href="https://c1.staticflickr.com/5/4411/37321206085_baede6aa18_b.jpg"/>
  <image x="531.00001" y="114" width="191.99999" height="93" id="svg_75" xlink:href="https://c1.staticflickr.com/5/4408/37321205885_0b7d78b388_b.jpg"/>
  <image x="214.99999" y="321.00001" width="171.99999" height="92.99999" id="svg_88" xlink:href="https://c1.staticflickr.com/5/4379/36507459143_32e32aa246_b.jpg"/>
  <image x="551" y="320.99999" width="151.99999" height="93" id="svg_96" xlink:href="https://c1.staticflickr.com/5/4409/37321205595_8f8295517b_b.jpg"/>
  <image x="229" y="516" width="152.99999" height="111" id="svg_99" xlink:href="https://c1.staticflickr.com/5/4354/37321205315_97e264f736_b.jpg"/>
  <image x="513" y="521" width="230" height="97" id="svg_102" xlink:href="https://c1.staticflickr.com/5/4395/37321205205_a44cb28e12_b.jpg"/>
  <image xlink:href="https://c1.staticflickr.com/5/4398/37167472042_1cfed200ba_b.jpg" id="svg_47" height="90" width="300.00002" y="115" x="150"/>
  <image xlink:href="https://c1.staticflickr.com/5/4379/37149513746_5572116dec_b.jpg" id="svg_48" height="92" width="156" y="322" x="387"/>
  <image xlink:href="https://c1.staticflickr.com/5/4421/37167471512_87ec3d0eca_b.jpg" id="svg_50" height="93" width="176" y="524" x="376"/>
  <image xlink:href="https://c1.staticflickr.com/5/4415/37357633965_51eee20e6a_b.jpg" id="svg_54" height="89.74996" width="222.24995" y="428.75003" x="689.50006"/>
 </g>
 <g display="inline" stroke="null">
  <title>標題</title>
  <text transform="matrix(0.7534989522907154,0,0,1.1598260495308486,325.11051849500785,36.990841489551585) " font-weight="normal" xml:space="preserve" text-anchor="middle" font-family="serif" font-size="24" id="svg_45" y="10.94436" x="-331.02602" stroke-linecap="null" stroke-linejoin="null" stroke-dasharray="null" stroke-width="0" fill="#00007f">Big Data and</text>
  <text stroke="#000000" transform="matrix(0.7887399022414207,0,0,0.9134677187451601,84.32393457603924,33.323769416239436) " xml:space="preserve" text-anchor="middle" font-family="serif" font-size="24" id="svg_35" y="471.58237" x="641.36755" stroke-linecap="null" stroke-linejoin="null" stroke-dasharray="null" stroke-width="0" fill="#3f3f3f">Part 9-</text>
  <text transform="matrix(0.9301310181617737,0,0,0.8787878751754761,1.9475978687405586,24.759470434859395) " font-style="italic" fill="#00007f" stroke-width="0" stroke-dasharray="null" stroke-linejoin="null" stroke-linecap="null" opacity="0.8" x="69.73333" y="187.17572" id="svg_25" font-size="24" font-family="serif" text-anchor="middle" xml:space="preserve">Abstract</text>
  <text fill="#00007f" stroke-width="0" stroke-dasharray="null" stroke-linejoin="null" stroke-linecap="null" opacity="0.8" x="869.93848" y="39.65244" id="svg_27" font-size="24" font-family="serif" text-anchor="middle" xml:space="preserve" transform="matrix(0.7502003680850772,0,0,0.9265971944980945,138.59814852899822,13.161297818871313) " font-style="italic">Speaker’s Biography</text>
  <text fill="#00007f" stroke-width="0" stroke-dasharray="null" stroke-linejoin="null" stroke-linecap="null" opacity="0.8" x="635.73483" y="363.15245" id="svg_28" font-size="24" font-family="serif" text-anchor="middle" xml:space="preserve" transform="translate(889.87255859375,504.8636779785156) scale(1) translate(-889.87255859375,-504.8636779785156) translate(889.914306640625,505.77667236328125) scale(1.0139044523239136,1.3043327331542969) translate(-889.914306640625,-505.77667236328125) translate(888.4232177734375,504.6651611328125) scale(1) translate(-888.4232177734375,-504.6651611328125) translate(888.3218994140625,504.255126953125) scale(0.9399330019950867,0.7570223808288574) translate(-888.3218994140625,-504.255126953125) translate(888.0772705078125,504.109619140625) scale(0.8550723195075989,0.9137715697288513) translate(-888.0772705078125,-504.109619140625) matrix(1.0937924253894378,0,0,1.0937924253894378,71.03591400341189,-39.500754610857044) " font-style="italic">Further Reading</text>
  <text transform="matrix(0.9729768037796019,0,0,0.8484848737716675,1.7300485353916883,77.4242295026779) " font-style="italic" fill="#00007f" stroke-width="0" stroke-dasharray="null" stroke-linejoin="null" stroke-linecap="null" opacity="0.8" x="81.83203" y="531.28571" id="svg_30" font-size="24" font-family="serif" text-anchor="middle" xml:space="preserve">Welcoming</text>
  <text style="cursor: move;" fill="#3f3f3f" stroke-width="0" stroke-dasharray="null" stroke-linejoin="null" stroke-linecap="null" opacity="0.8" x="171.76934" y="203.14366" id="svg_31" font-size="24" font-family="serif" text-anchor="middle" xml:space="preserve" transform="matrix(0.5496906349325514,0,0,0.9802540299093099,60.127528530221376,-72.53970184583375) " stroke="#000000">Prof.  H T Kung</text>
  <text transform="matrix(0.7587704174423712,0,0,0.9599156409673564,189.8121557418296,195.62950062668295) " xml:space="preserve" text-anchor="middle" font-family="serif" font-size="24" y="-142.12292" x="90.87277" stroke-linecap="null" stroke-linejoin="null" stroke-dasharray="null" stroke-width="0" fill="#3f3f3f" stroke="#000000" id="svg_61">Part 1-</text>
  <text transform="matrix(0.7387877969345303,0,0,1.0412588701024401,229.20914043856325,194.05488932289649) " xml:space="preserve" text-anchor="middle" font-family="serif" font-size="24" y="-129.21127" x="258.7109" stroke-linecap="null" stroke-linejoin="null" stroke-dasharray="null" stroke-width="0" fill="#3f3f3f" stroke="#000000" id="svg_62">Part 2-</text>
  <text transform="matrix(0.891815459791147,0,0,0.9238778535989708,136.5450782694799,189.96484697090037) " xml:space="preserve" text-anchor="middle" font-family="serif" font-size="24" y="-141.33169" x="507.555" stroke-linecap="null" stroke-linejoin="null" stroke-dasharray="null" stroke-width="0" fill="#3f3f3f" stroke="#000000" id="svg_63">Part 3-</text>
  <text stroke="#000000" transform="matrix(0.8647500132054206,0,0,0.9285138146813662,40.17895355638099,23.993908615112733) " xml:space="preserve" text-anchor="middle" font-family="serif" font-size="24" y="262.83958" x="259.03793" stroke-linecap="null" stroke-linejoin="null" stroke-dasharray="null" stroke-width="0" fill="#3f3f3f" id="svg_64">Part 4-</text>
  <text stroke="#000000" transform="matrix(0.8386390789694638,0,0,0.9313287689871719,29.023525441574833,16.602888479550185) " xml:space="preserve" text-anchor="middle" font-family="serif" font-size="24" y="270.20964" x="473.99181" stroke-linecap="null" stroke-linejoin="null" stroke-dasharray="null" stroke-width="0" fill="#3f3f3f" id="svg_65">Part 5-</text>
  <text stroke="#000000" transform="matrix(0.7706420788993085,0,0,0.9134677187451599,95.83129441706254,21.82953800884935) " xml:space="preserve" text-anchor="middle" font-family="serif" font-size="24" y="267.37353" x="640.74382" stroke-linecap="null" stroke-linejoin="null" stroke-dasharray="null" stroke-width="0" fill="#3f3f3f" id="svg_66">Part 6-</text>
  <text stroke="#000000" transform="matrix(0.8512403820028851,0,0,0.8909351874489317,43.23573865076983,53.11198492734643) " xml:space="preserve" text-anchor="middle" font-family="serif" font-size="24" y="460.329" x="261.82768" stroke-linecap="null" stroke-linejoin="null" stroke-dasharray="null" stroke-width="0" fill="#3f3f3f" id="svg_67">Part 7-</text>
  <text stroke="#000000" transform="matrix(0.8489702887923386,0,0,0.8830848768633819,73.40941881281553,59.80595849207721) " xml:space="preserve" text-anchor="middle" font-family="serif" font-size="24" y="456.24543" x="411.32965" stroke-linecap="null" stroke-linejoin="null" stroke-dasharray="null" stroke-width="0" fill="#3f3f3f" id="svg_68">Part 8-</text>
  <text fill="#3f3f3f" stroke-width="0" stroke-dasharray="null" stroke-linejoin="null" stroke-linecap="null" x="119.66388" y="-82.26355" id="svg_69" font-size="24" font-family="serif" text-anchor="middle" xml:space="preserve" stroke="#000000" transform="matrix(0.7745580223469177,0,0,1.1487251492769066,207.23706746946297,187.1746999975168) ">Preamble</text>
  <text fill="#3f3f3f" stroke-width="0" stroke-dasharray="null" stroke-linejoin="null" stroke-linecap="null" x="339.74538" y="655.21405" font-size="24" font-family="serif" text-anchor="middle" xml:space="preserve" stroke="#000000" transform="matrix(0.5192520830208949,0,0,0.9015871882180873,124.59569954526168,-101.1664835129692) " id="svg_76">General Frameworks for</text>
  <text fill="#3f3f3f" stroke-width="0" stroke-dasharray="null" stroke-linejoin="null" stroke-linecap="null" x="113.78215" y="546.73713" font-size="24" font-family="serif" text-anchor="middle" xml:space="preserve" transform="matrix(0.581249268438875,0,0,0.6929022459466805,237.63015821965118,128.20459251153332) " stroke="#000000" id="svg_77">Analyzing Big Data</text>
  <text fill="#3f3f3f" stroke-width="0" stroke-dasharray="null" stroke-linejoin="null" stroke-linecap="null" x="481.13264" y="503.55891" id="svg_78" font-size="24" font-family="serif" text-anchor="middle" xml:space="preserve" transform="matrix(0.4902257369902292,0,0,0.9760838052078102,225.32049267600476,9.41579017614346) " stroke="#000000">Compressive Sensing</text>
  <text fill="#3f3f3f" stroke-width="0" stroke-dasharray="null" stroke-linejoin="null" stroke-linecap="null" x="198.64325" y="422.984" font-size="24" font-family="serif" text-anchor="middle" xml:space="preserve" stroke="#000000" transform="matrix(0.4842997064770093,0,0,1.0066220815736002,209.39098596883346,-122.47989823150121) " id="svg_80">Data-driven Decisions-(1)</text>
  <text fill="#3f3f3f" stroke-width="0" stroke-dasharray="null" stroke-linejoin="null" stroke-linecap="null" x="729.44449" y="307.78929" font-size="24" font-family="serif" text-anchor="middle" xml:space="preserve" stroke="#000000" transform="matrix(0.6404102460293152,0,0,1.0534652612707607,165.64198236905887,-235.77235231443015) " id="svg_82">Relevant Subjects</text>
  <text fill="#3f3f3f" stroke-width="0" stroke-dasharray="null" stroke-linejoin="null" stroke-linecap="null" x="346.04957" y="-76.69124" font-size="24" font-family="serif" text-anchor="middle" xml:space="preserve" stroke="#000000" transform="matrix(0.5347077899147055,0,0,1.1332448841987302,278.9102482972236,177.0762877567611) " id="svg_87">Background on Big Data</text>
  <text fill="#3f3f3f" stroke-width="0" stroke-dasharray="null" stroke-linejoin="null" stroke-linecap="null" x="547.96932" y="536.08356" font-size="24" font-family="serif" text-anchor="middle" xml:space="preserve" transform="matrix(0.7707671594616959,0,0,0.7680774987350201,205.73234274334285,86.87902513103607) " stroke="#000000" id="svg_56">Q&amp;A</text>
  <a id="svg_26" xlink:href="https://youtu.be/Imow2snpW0k">
   <path id="svg_44" marker-mid="url(#se_marker_mid_svg_44)" d="m235.93821,177.6817c-8.63722,0 -15.6389,6.1775 -15.6389,13.79803c0,7.62053 7.00167,13.79803 15.6389,13.79803c8.63722,0 15.63889,-6.1775 15.63889,-13.79803c0,-7.62053 -7.00166,-13.79803 -15.63889,-13.79803zm-2.51252,23.03058l-3.8048,-3.3598l6.65734,-5.8737l-6.65734,-5.87371l3.8048,-3.35695l10.46323,9.23065l-10.46323,9.2335l0,0.00001z" stroke-linecap="null" stroke-linejoin="null" stroke-dasharray="null" stroke-width="0" fill="#0000ff" stroke="#000000"/>
  </a>
  <a id="svg_57" xlink:href="https://youtu.be/nZuU9M0at60">
   <path id="svg_43" marker-mid="url(#se_marker_mid_svg_44)" d="m407.77154,175.34838c-8.26903,0 -14.97223,6.47597 -14.97223,14.46469c0,7.98872 6.7032,14.46469 14.97223,14.46469c8.26903,0 14.97222,-6.47597 14.97222,-14.46469c0,-7.98872 -6.70319,-14.46469 -14.97222,-14.46469zm-2.40541,24.14332l-3.64261,-3.52213l6.37355,-6.15749l-6.37355,-6.1575l3.64261,-3.51914l10.0172,9.67664l-10.0172,9.67962z" stroke-linecap="null" stroke-linejoin="null" stroke-dasharray="null" stroke-width="0" fill="#0000ff" stroke="#000000"/>
  </a>
  <a id="svg_58" xlink:href="https://youtu.be/iBkztM4AHmI">
   <path id="svg_42" marker-mid="url(#se_marker_mid_svg_44)" d="m568.27154,177.68172c-8.26903,0 -14.97223,6.47597 -14.97223,14.46469c0,7.98872 6.7032,14.46469 14.97223,14.46469c8.26903,0 14.97222,-6.47597 14.97222,-14.46469c0,-7.98872 -6.70319,-14.46469 -14.97222,-14.46469zm-2.40541,24.14331l-3.64261,-3.52212l6.37355,-6.1575l-6.37355,-6.15749l3.64261,-3.51914l10.0172,9.67663l-10.0172,9.67962z" stroke-linecap="null" stroke-linejoin="null" stroke-dasharray="null" stroke-width="0" fill="#0000ff" stroke="#000000"/>
  </a>
  <a id="svg_59" xlink:href="https://youtu.be/KszPOuP_5Os">
   <path id="svg_41" marker-mid="url(#se_marker_mid_svg_41)" d="m237.93821,385.43171c-8.26903,0 -14.97223,6.47597 -14.97223,14.46469c0,7.98872 6.7032,14.46469 14.97223,14.46469c8.26903,0 14.97222,-6.47597 14.97222,-14.46469c0,-7.98872 -6.70319,-14.46469 -14.97222,-14.46469zm-2.40541,24.14332l-3.64261,-3.52213l6.37355,-6.15749l-6.37355,-6.1575l3.64261,-3.51914l10.0172,9.67664l-10.0172,9.67962z" stroke-linecap="null" stroke-linejoin="null" stroke-dasharray="null" stroke-width="0" fill="#0000ff" stroke="#000000"/>
  </a>
  <a id="svg_60" xlink:href="https://youtu.be/rSGZmuNakp4">
   <path id="svg_20" marker-mid="url(#se_marker_mid_svg_38)" d="m180.60488,594.34839c-8.26903,0 -14.97223,6.47597 -14.97223,14.46469c0,7.98872 6.7032,14.46469 14.97223,14.46469c8.26903,0 14.97222,-6.47597 14.97222,-14.46469c0,-7.98872 -6.70319,-14.46469 -14.97222,-14.46469zm-2.40541,24.14332l-3.64261,-3.52213l6.37355,-6.15749l-6.37355,-6.1575l3.64261,-3.51914l10.0172,9.67664l-10.0172,9.67962z" stroke-linecap="null" stroke-linejoin="null" stroke-dasharray="null" stroke-width="0" fill="#3f3f3f" stroke="#000000"/>
  </a>
  <a id="svg_70" xlink:href="https://youtu.be/ZQPQaEIK3yo">
   <path id="svg_40" marker-mid="url(#se_marker_mid_svg_41)" d="m404.77154,385.43171c-8.26903,0 -14.97223,6.47597 -14.97223,14.46469c0,7.98872 6.7032,14.46469 14.97223,14.46469c8.26903,0 14.97222,-6.47597 14.97222,-14.46469c0,-7.98872 -6.70319,-14.46469 -14.97222,-14.46469zm-2.40541,24.14332c-1.2142,-1.17404 -2.42841,-2.34809 -3.64261,-3.52213l6.37355,-6.15749l-6.37355,-6.1575l3.64261,-3.51914l10.0172,9.67664l-10.0172,9.67962z" stroke-linecap="null" stroke-linejoin="null" stroke-dasharray="null" stroke-width="0" fill="#0000ff" stroke="#000000"/>
  </a>
  <a id="svg_71" xlink:href="https://youtu.be/r1hU4RMYFLM">
   <path id="svg_39" marker-mid="url(#se_marker_mid_svg_41)" d="m567.60487,383.76505c-8.26903,0 -14.97223,6.47597 -14.97223,14.46469c0,7.98872 6.7032,14.46469 14.97223,14.46469c8.26903,0 14.97222,-6.47597 14.97222,-14.46469c0,-7.98872 -6.70319,-14.46469 -14.97222,-14.46469zm-2.40541,24.14331l-3.64261,-3.52212l6.37355,-6.1575l-6.37355,-6.15749l3.64261,-3.51914l10.0172,9.67663l-10.0172,9.67962z" stroke-linecap="null" stroke-linejoin="null" stroke-dasharray="null" stroke-width="0" fill="#0000ff" stroke="#000000"/>
  </a>
  <a id="svg_72" xlink:href="https://youtu.be/ek8QrZWK21o">
   <path id="svg_38" marker-mid="url(#se_marker_mid_svg_38)" d="m243.27154,591.68172c-8.26903,0 -14.97223,6.47597 -14.97223,14.46469c0,7.98872 6.7032,14.46469 14.97223,14.46469c8.26903,0 14.97222,-6.47597 14.97222,-14.46469c0,-7.98872 -6.70319,-14.46469 -14.97222,-14.46469zm-2.40541,24.14332l-3.64261,-3.52213l6.37355,-6.15749l-6.37355,-6.1575l3.64261,-3.51914l10.0172,9.67664l-10.0172,9.67962z" stroke-linecap="null" stroke-linejoin="null" stroke-dasharray="null" stroke-width="0" fill="#0000ff" stroke="#000000"/>
  </a>
  <a id="svg_73" xlink:href="https://youtu.be/bxDeEsMY4tk">
   <path id="svg_37" marker-mid="url(#se_marker_mid_svg_37)" d="m405.10487,592.68172c-8.26903,0 -14.97223,6.47597 -14.97223,14.46469c0,7.98872 6.7032,14.46469 14.97223,14.46469c8.26903,0 14.97222,-6.47597 14.97222,-14.46469c0,-7.98872 -6.70319,-14.46469 -14.97222,-14.46469zm-2.40541,24.14332l-3.64261,-3.52213l6.37355,-6.15749l-6.37355,-6.1575l3.64261,-3.51914l10.0172,9.67664l-10.0172,9.67962z" stroke-linecap="null" stroke-linejoin="null" stroke-dasharray="null" stroke-width="0" fill="#0000ff" stroke="#000000"/>
  </a>
  <a id="svg_74" xlink:href="https://youtu.be/VCyHXeycTKw">
   <path marker-mid="url(#se_marker_mid_svg_36)" id="svg_36" d="m576.27154,590.01506c-8.26903,0 -14.97222,6.47597 -14.97222,14.46469c0,7.98872 6.7032,14.46469 14.97222,14.46469c8.26903,0 14.97222,-6.47597 14.97222,-14.46469c0,-7.98872 -6.7032,-14.46469 -14.97222,-14.46469zm-2.4054,24.14331l-3.64262,-3.52212l6.37355,-6.1575l-6.37355,-6.1575l3.64262,-3.51914l10.01719,9.67663l-10.01719,9.67962l0,0.00001z" stroke-linecap="null" stroke-linejoin="null" stroke-dasharray="null" stroke-width="0" fill="#0000ff" stroke="#000000"/>
  </a>
  <text fill="#3f3f3f" stroke="#000000" stroke-width="0" stroke-dasharray="null" stroke-linejoin="null" stroke-linecap="null" x="772.10043" y="542.0428" id="svg_83" font-size="24" font-family="serif" text-anchor="middle" xml:space="preserve"/>
  <g id="svg_180"/>
  <text id="svg_85" transform="matrix(0.7145696954402341,0,0,1.1533360296030895,285.31602387874574,38.66851550146615) " font-weight="normal" xml:space="preserve" text-anchor="middle" font-family="serif" font-size="24" y="29.90769" x="-261.33339" stroke-linecap="null" stroke-linejoin="null" stroke-dasharray="null" stroke-width="0" fill="#00007f" stroke="#000000">Compressive Sensing</text>
  <text fill="#3f3f3f" stroke-width="0" stroke-dasharray="null" stroke-linejoin="null" stroke-linecap="null" x="486.80506" y="418.13676" font-size="24" font-family="serif" text-anchor="middle" xml:space="preserve" stroke="#000000" transform="matrix(0.5262366089093947,0,0,0.9291123733776535,209.82612966520261,-87.7808488251361) " id="svg_34">Data-driven Decisions-(2)</text>
  <text fill="#3f3f3f" stroke-width="0" stroke-dasharray="null" stroke-linejoin="null" stroke-linecap="null" x="727.89998" y="422.56612" font-size="24" font-family="serif" text-anchor="middle" xml:space="preserve" stroke="#000000" transform="matrix(0.4804956461849878,0,0,0.9292648633155274,280.24594546718004,-91.96859101640324) " id="svg_46">Data-driven Decisions-(3)</text>
  <text fill="#3f3f3f" stroke-width="0" stroke-dasharray="null" stroke-linejoin="null" stroke-linecap="null" opacity="0.8" x="170.1706" y="225.22253" font-size="24" font-family="serif" text-anchor="middle" xml:space="preserve" transform="matrix(0.5496906349325514,0,0,0.9802540299093099,60.127528530221376,-72.53970184583375) " stroke="#000000" id="svg_18">06 December 2012</text>
 </g>
</svg>