<svg width="904.9999999999999" height="640.0000000000001" xmlns="http://www.w3.org/2000/svg" xmlns:svg="http://www.w3.org/2000/svg" xmlns:xlink="http://www.w3.org/1999/xlink">
 <!-- Created with SVG-edit - http://svg-edit.googlecode.com/ -->\r\n\r\n
 <g display="inline">\r\n
  <title>圖層 2</title>\r\n
  <rect x="-0.33333" y="0" fill="#ffffff" stroke="#191919" stroke-width="2" stroke-dasharray="null" stroke-linejoin="null" stroke-linecap="null" width="905" height="640" id="svg_1"/>\r\n
  <line fill="none" stroke="#191919" stroke-width="2" stroke-dasharray="null" stroke-linejoin="null" stroke-linecap="null" x1="655" y1="0" x2="655" y2="450" id="svg_3"/>\r\n
  <image xlink:href="https://c1.staticflickr.com/5/4733/27480739969_d10b38bd45_b.jpg" id="svg_30" height="57.00002" width="76" y="370.99999" x="337"/>
  <image xlink:href="https://c1.staticflickr.com/5/4588/38548065354_8a15496fc7_b.jpg" id="svg_59" height="47.00003" width="116.00001" y="376.99997" x="236.99999"/>
  <image xlink:href="https://c1.staticflickr.com/5/4734/27480740199_45e76f025c_b.jpg" id="svg_61" height="47" width="105.00002" y="376" x="404"/></g>\r\n
 <g display="inline">\r\n
  <title>Layer 1</title>\r\n
  <text stroke="#000000" transform="matrix(1.7242203084250771,0,0,1.5824218745043037,-322.2930324159578,-202.8435775967135) " xml:space="preserve" text-anchor="middle" font-family="serif" font-size="10" id="svg_62" y="357.4916" x="452.0683" stroke-linecap="null" stroke-linejoin="null" stroke-dasharray="null" stroke-width="0" fill="#000000">台東</text>\r\n
  <line fill="none" stroke="#191919" stroke-width="2" stroke-dasharray="null" stroke-linejoin="null" stroke-linecap="null" x1="0.96154" y1="450" x2="905.96154" y2="450" id="svg_2"/>\r\n
  <line fill="none" stroke="#191919" stroke-width="2" stroke-dasharray="null" stroke-linejoin="null" stroke-linecap="null" x1="250" y1="0" x2="250" y2="450" id="svg_4"/>\r\n
  <text font-weight="bold" xml:space="preserve" text-anchor="middle" font-family="serif" font-size="20" id="svg_9" y="335.51831" x="446.50266" stroke-linecap="null" stroke-linejoin="null" stroke-dasharray="null" stroke-width="0" stroke="#000000" fill="#0000ff">新詩五</text>\r\n\r\n\r\n\r\n\r\n\r\n\r\n\r\n\r\n
  <rect stroke="#000000" id="svg_23" height="299.74999" width="392.75002" y="8.87157" x="255.54046" stroke-linecap="null" stroke-linejoin="null" stroke-dasharray="null" stroke-width="2" fill="none"/>\r\n\r\n\r\n\r\n\r\n\r\n
  <text font-weight="bold" xml:space="preserve" text-anchor="middle" font-family="serif" font-size="20" id="svg_7" y="171.93531" x="457.16933" stroke-linecap="null" stroke-linejoin="null" stroke-dasharray="null" stroke-width="0" fill="#0000ff" transform="matrix(0.9333333373069762,0,0,0.976190447807312,32.4770815167576,8.51265275850892) " stroke="#000000">唐詩神遊</text>\r\n
  <text font-weight="bold" xml:space="preserve" text-anchor="middle" font-family="serif" font-size="20" id="svg_8" y="198.02881" x="443.16933" stroke-linecap="null" stroke-linejoin="null" stroke-dasharray="null" stroke-width="0" stroke="#000000" fill="#0000ff">十四</text>\r\n
  <text stroke="#000000" transform="matrix(1.0721371173858643,0,0,1.1666666269302368,-28.965306915342808,-4.8958321660757065) " xml:space="preserve" text-anchor="middle" font-family="serif" font-size="13" id="svg_35" y="43.52751" x="378.34728" stroke-linecap="null" stroke-linejoin="null" stroke-dasharray="null" stroke-width="0" fill="#000000">登鸛雀樓</text>\r\n
  <text stroke="#000000" transform="matrix(1.2765170049016206,0,0,1.100812562037305,-169.26205362295312,-4.31976636002673) " xml:space="preserve" text-anchor="middle" font-family="serif" font-size="13" id="svg_39" y="45.76465" x="551.21695" stroke-linecap="null" stroke-linejoin="null" stroke-dasharray="null" stroke-width="0" fill="#000000">聽箏</text>\r\n
  <text stroke="#000000" transform="matrix(1.1983318553641311,0,0,1.0416666269302368,-75.49828049432014,-5.617182143032551) " xml:space="preserve" text-anchor="middle" font-family="serif" font-size="13" id="svg_43" y="141.84568" x="313.63707" stroke-linecap="null" stroke-linejoin="null" stroke-dasharray="null" stroke-width="0" fill="#000000">霜月</text>\r\n
  <text stroke="#000000" transform="matrix(1.1009918451309204,0,0,1.1666666269302368,-40.81648540869355,-25.497389754280448) " xml:space="preserve" text-anchor="middle" font-family="serif" font-size="13" id="svg_44" y="144.63863" x="382.78848" stroke-linecap="null" stroke-linejoin="null" stroke-dasharray="null" stroke-width="0" fill="#000000">夜雨寄北</text>\r\n
  <text stroke="#000000" transform="matrix(1.1154192686080933,0,0,1.0833333730697632,-64.65823495946825,-12.623703936114907) " xml:space="preserve" text-anchor="middle" font-family="serif" font-size="13" id="svg_46" y="142.14962" x="534.88819" stroke-linecap="null" stroke-linejoin="null" stroke-dasharray="null" stroke-width="0" fill="#000000">讀八陣圖</text>\r\n
  <text stroke="#000000" transform="matrix(1.0461649894714355,0,0,1.0833333730697632,-29.870912171900272,-12.623703936114907) " xml:space="preserve" text-anchor="middle" font-family="serif" font-size="13" id="svg_47" y="142.27782" x="610.97249" stroke-linecap="null" stroke-linejoin="null" stroke-dasharray="null" stroke-width="0" fill="#000000">北斗七星高</text>\r\n
  <text stroke="#000000" transform="matrix(1.045833522815201,0,0,1.110445103150127,-13.352229756893031,-27.988078725855456) " xml:space="preserve" text-anchor="middle" font-family="serif" font-size="13" id="svg_48" y="243.19604" x="300.22115" stroke-linecap="null" stroke-linejoin="null" stroke-dasharray="null" stroke-width="0" fill="#000000">冷冷七弦上</text>\r\n
  <text stroke="#000000" transform="matrix(1.1964680684825166,0,0,1.1334423255813988,-69.77990022628558,-33.11083495013348) " xml:space="preserve" text-anchor="middle" font-family="serif" font-size="13" id="svg_49" y="242.87196" x="376.19654" stroke-linecap="null" stroke-linejoin="null" stroke-dasharray="null" stroke-width="0" fill="#000000">隴西行</text>\r\n
  <text stroke="#000000" transform="matrix(1.1602950990158687,0,0,1.1455559665894837,-76.83355286871429,-43.167735735832906) " xml:space="preserve" text-anchor="middle" font-family="serif" font-size="13" id="svg_50" y="249.0299" x="461.09472" stroke-linecap="null" stroke-linejoin="null" stroke-dasharray="null" stroke-width="0" fill="#000000">新嫁娘</text>\r\n
  <text stroke="#000000" transform="matrix(1.2669014539039836,0,0,1.111205796846889,-143.49929050089537,-28.014609921188267) " xml:space="preserve" text-anchor="middle" font-family="serif" font-size="13" id="svg_51" y="242.93844" x="536.08016" stroke-linecap="null" stroke-linejoin="null" stroke-dasharray="null" stroke-width="0" fill="#000000">秦俑</text>\r\n
  <text stroke="#000000" transform="matrix(1.1118967090923075,0,0,1.1902993775619328,-70.96902722358384,-49.04135019895513) " xml:space="preserve" text-anchor="middle" font-family="serif" font-size="13" id="svg_52" y="244.31244" x="613.23213" stroke-linecap="null" stroke-linejoin="null" stroke-dasharray="null" stroke-width="0" fill="#000000">尋李白</text>\r\n
  <g stroke="null" id="svg_53">\r\n
   <text transform="matrix(1.1035971641540527,0,0,1.1226575374603271,-27.725191056728363,-3.0415236242115498) " stroke="#000000" xml:space="preserve" text-anchor="middle" font-family="serif" font-size="13" id="svg_34" y="43.00412" x="285.77327" stroke-linecap="null" stroke-linejoin="null" stroke-dasharray="null" stroke-width="0" fill="#000000">岱宗夫</text>\r\n
   <text transform="matrix(1.1035971641540527,0,0,1.1226575374603271,-27.725191056728363,-3.0415236242115498) " stroke="#000000" xml:space="preserve" text-anchor="middle" font-family="serif" font-size="13" id="svg_37" y="43.33883" x="318.43994" stroke-linecap="null" stroke-linejoin="null" stroke-dasharray="null" stroke-width="0" fill="#000000">如何</text>\r\n</g>\r\n
  <g stroke="null" id="svg_54">\r\n
   <text transform="matrix(1.0599101781845093,0,0,1.1560975313186646,-33.86048383265734,-4.217072369530797) " stroke="#000000" xml:space="preserve" text-anchor="middle" font-family="serif" font-size="13" id="svg_36" y="43.44197" x="450.4005" stroke-linecap="null" stroke-linejoin="null" stroke-dasharray="null" stroke-width="0" fill="#000000">尋隱者</text>\r\n
   <text transform="matrix(1.0599101781845093,0,0,1.1560975313186646,-33.86048383265734,-4.217072369530797) " stroke="#000000" xml:space="preserve" text-anchor="middle" font-family="serif" font-size="13" id="svg_38" y="43.2739" x="480.51161" stroke-linecap="null" stroke-linejoin="null" stroke-dasharray="null" stroke-width="0" fill="#000000">不遇</text>\r\n</g>\r\n
  <g id="svg_55">\r\n
   <text xml:space="preserve" text-anchor="middle" font-family="serif" font-size="13" id="svg_41" y="32.74576" x="609.55429" stroke-linecap="null" stroke-linejoin="null" stroke-dasharray="null" stroke-width="0" stroke="#000000" fill="#000000">寄揚州韓</text>\r\n
   <text xml:space="preserve" text-anchor="middle" font-family="serif" font-size="13" id="svg_42" y="51.74576" x="609.54648" stroke-linecap="null" stroke-linejoin="null" stroke-dasharray="null" stroke-width="0" stroke="#000000" fill="#000000">綽判官</text>\r\n</g>\r\n\r\n\r\n
  <text fill="#000000" stroke="#000000" stroke-width="0" stroke-dasharray="null" stroke-linejoin="null" stroke-linecap="null" x="85.97446" y="471.63361" id="svg_15" font-size="17" font-family="serif" text-anchor="middle" xml:space="preserve">余光中與李安對談</text>\r\n
  <text fill="#000000" stroke="#000000" stroke-width="0" stroke-dasharray="null" stroke-linejoin="null" stroke-linecap="null" x="267.97446" y="471.63361" id="svg_33" font-size="17" font-family="serif" text-anchor="middle" xml:space="preserve">鄉愁四韻</text>\r\n
  <text fill="#000000" stroke="#000000" stroke-width="0" stroke-dasharray="null" stroke-linejoin="null" stroke-linecap="null" x="452.50571" y="471.63361" id="svg_40" font-size="17" font-family="serif" text-anchor="middle" xml:space="preserve">新詩漫談</text>\r\n
  <text fill="#000000" stroke="#000000" stroke-width="0" stroke-dasharray="null" stroke-linejoin="null" stroke-linecap="null" x="635.97446" y="471.63361" id="svg_45" font-size="17" font-family="serif" text-anchor="middle" xml:space="preserve">余光中  梵谷傳封面</text>\r\n
  <text fill="#000000" stroke="#000000" stroke-width="0" stroke-dasharray="null" stroke-linejoin="null" stroke-linecap="null" x="811.97446" y="471.63361" id="svg_57" font-size="17" font-family="serif" text-anchor="middle" xml:space="preserve">詩作封面</text>\r\n
  <line fill="none" stroke="#000000" stroke-width="2" stroke-dasharray="null" stroke-linejoin="null" stroke-linecap="null" x1="181" y1="450" x2="181" y2="640" id="svg_63"/>\r\n
  <line fill="none" stroke="#000000" stroke-width="2" stroke-dasharray="null" stroke-linejoin="null" stroke-linecap="null" x1="362" y1="450" x2="362" y2="640" id="svg_68"/>\r\n
  <line fill="none" stroke="#000000" stroke-width="2" stroke-dasharray="null" stroke-linejoin="null" stroke-linecap="null" x1="543" y1="450" x2="543" y2="640" id="svg_71"/>\r\n
  <line fill="none" stroke="#000000" stroke-width="2" stroke-dasharray="null" stroke-linejoin="null" stroke-linecap="null" x1="724" y1="450" x2="724" y2="640" id="svg_72"/>\r\n\r\n
  <text fill="#000000" stroke="#000000" stroke-width="0" stroke-dasharray="null" stroke-linejoin="null" stroke-linecap="null" x="718.65613" y="28.62311" id="svg_77" font-size="20" font-family="serif" text-anchor="middle" xml:space="preserve" font-weight="bold">相關補充資料</text>\r\n
  <text fill="#000000" stroke="#000000" stroke-width="0" stroke-dasharray="null" stroke-linejoin="null" stroke-linecap="null" x="757.65613" y="58.62311" id="svg_78" font-size="18" font-family="serif" text-anchor="middle" xml:space="preserve">「中大五十．人」余光中</text>\r\n
  <text fill="#000000" stroke="#000000" stroke-width="0" stroke-dasharray="null" stroke-linejoin="null" stroke-linecap="null" x="776.1405" y="159.62311" id="svg_81" font-size="15" font-family="serif" text-anchor="middle" xml:space="preserve">作家身影：余光中(翰林版課本附錄)</text>\r\n
  <image x="730.65613" y="482.77326" width="89" height="65" id="svg_82" xlink:href="http://farm9.staticflickr.com/8720/17170363026_254e3e920b_o.jpg"/>\r\n
  <image x="727.15612" y="550.77326" width="96.00001" height="82" id="svg_83" xlink:href="http://farm9.staticflickr.com/8786/17008553258_7e2bc1e50b_o.jpg"/>\r\n
  <image x="823.15613" y="480.77325" width="65" height="68" id="svg_84" xlink:href="http://farm9.staticflickr.com/8787/17195706851_d172264fd2_o.jpg"/>\r\n
  <image x="571.65613" y="486.77326" width="128" height="142" id="svg_85" xlink:href="http://farm9.staticflickr.com/8686/17195706821_8c04a038dc_o.jpg"/>\r\n
  <image x="801.65612" y="550.77325" width="108" height="81" id="svg_86" xlink:href="http://farm8.staticflickr.com/7604/17008763540_ba208dc45e_o.jpg"/>\r\n\r\n\r\n
  <text xml:space="preserve" text-anchor="middle" font-family="serif" font-size="17" id="svg_93" y="340" x="74.43927" stroke-linecap="null" stroke-linejoin="null" stroke-dasharray="null" stroke-width="0" stroke="#000000" fill="#000000">城大歡迎詞</text>\r\n
  <image xlink:href="http://farm9.staticflickr.com/8810/16991110237_eb5eb6b861_b.jpg" id="svg_94" height="118" width="149" y="482.5556" x="10.11115"/>\r\n
  <a id="svg_98" xlink:href="http://www.youtube.com/watch?v=N2OMM-zVCdg">\r\n
   <text id="svg_99" xml:space="preserve" text-anchor="middle" font-family="serif" font-size="13" y="622.21414" x="141.11115" stroke-linecap="null" stroke-linejoin="null" stroke-dasharray="null" stroke-width="0" stroke="#000000" fill="#000000">按此前往</text>\r\n</a>\r\n
  <image xlink:href="http://farm6.staticflickr.com/5468/16991116667_59c97b4b6b_b.jpg" id="svg_101" height="106" width="150" y="489.55564" x="193.11115"/>\r\n
  <a id="svg_105" xlink:href="http://www.youtube.com/watch?v=r6ZaP2TjURo">\r\n
   <text id="svg_106" xml:space="preserve" text-anchor="middle" font-family="serif" font-size="13" y="624.3634" x="322.11115" stroke-linecap="null" stroke-linejoin="null" stroke-dasharray="null" stroke-width="0" stroke="#000000" fill="#000000">按此前往</text>\r\n</a>\r\n
  <image xlink:href="http://farm8.staticflickr.com/7672/16991149867_c2f55d9fa0_b.jpg" id="svg_108" height="86" width="111" y="61.11114" x="670.11109"/>\r\n
  <image xlink:href="https://farm9.staticflickr.com/8741/16991150237_f96641139b_b.jpg" id="svg_125" height="99" width="110" y="153.99999" x="670.11115"/>\r\n\r\n
  <image xlink:href="http://farm9.staticflickr.com/8813/17011168290_9a3bb07bfc_o.jpg" id="svg_137" height="133" width="162.99999" y="477.66669" x="367.33337"/>\r\n
  <text xml:space="preserve" text-anchor="middle" font-family="serif" font-size="11" id="svg_138" y="634.33337" x="490.33337" stroke-linecap="null" stroke-linejoin="null" stroke-dasharray="null" stroke-width="0" stroke="#000000" fill="#000000">(影片6分30秒起)</text>\r\n
  <image xlink:href="http://farm8.staticflickr.com/7586/17197034902_546655b85f_o.jpg" id="svg_139" height="105" width="155" y="341.66669" x="30.33338"/>\r\n
  <a id="svg_135" xlink:href="http://www6.cityu.edu.hk/cityvod/video/play/VPRT/CityU_lecture_Prof_Yu.aspx" fill="#000000" stroke="#000000">\r\n
   <text id="svg_136" xml:space="preserve" text-anchor="middle" font-family="serif" font-size="13" y="341.32654" x="165.11115" stroke-linecap="null" stroke-linejoin="null" stroke-dasharray="null" stroke-width="0" stroke="#000000" fill="#000000">按此前往</text>\r\n</a>\r\n\r\n
  <text fill="#000000" stroke="#000000" stroke-width="0" x="703.64203" y="257.27271" id="svg_5" font-size="18" font-family="serif" text-anchor="middle" xml:space="preserve">粉絲秀新作</text>\r\n
  <text fill="#000000" stroke="#000000" stroke-width="0" x="696.45453" y="359.27271" id="svg_6" font-size="18" font-family="serif" text-anchor="middle" xml:space="preserve">粉絲獻歌</text>\r\n
  <g id="svg_76">\r\n
   <a id="svg_117" xlink:href="http://www.youtube.com/watch?v=8MRuglN4iFM">\r\n
    <text id="svg_118" xml:space="preserve" text-anchor="middle" font-family="serif" font-size="13" y="127.36258" x="851.11115" stroke-linecap="null" stroke-linejoin="null" stroke-dasharray="null" stroke-width="0" stroke="#000000" fill="#000000">按此前往</text>\r\n</a>\r\n
   <a id="svg_74" xlink:href="http://www.youtube.com/watch?v=8MRuglN4iFM">\r\n
    <path d="m809.87201,112.32019c-5.24622,0 -9.49908,4.70462 -9.49908,10.50327c0,5.79848 4.25287,10.49862 9.49908,10.49862c5.24609,0 9.50092,-4.70012 9.50092,-10.49862c0,-5.79865 -4.25482,-10.50327 -9.50092,-10.50327zm-1.52612,17.5278l-2.31171,-2.55774l4.04517,-4.4668l-4.04517,-4.47144l2.31171,-2.55252l6.35535,7.02396l-6.35535,7.02454z" fill="#000000" stroke-opacity="0" stroke="#000000" id="svg_73"/>\r\n</a>\r\n</g>\r\n
  <a id="svg_115" xlink:href="http://www6.cityu.edu.hk/cityvod/video/play/VPRT/CityU_lecture_Prof_Yu.aspx" fill="#000000" stroke="#000000">\r\n
   <path d="m127.87201,326.32019c-5.24622,0 -9.49908,4.70465 -9.49908,10.5033c0,5.79846 4.25287,10.4986 9.49908,10.4986c5.24609,0 9.50092,-4.70013 9.50092,-10.4986c0,-5.79865 -4.25482,-10.5033 -9.50092,-10.5033zm-1.52612,17.52783l-2.31171,-2.55774l4.04517,-4.4668l-4.04517,-4.47144l2.31171,-2.55255l6.35535,7.02399l-6.35535,7.02454z" fill="#000000" stroke-opacity="0" stroke="#000000" id="svg_114"/>\r\n</a>\r\n\r\n
  <a stroke="#000000" fill="#000000" id="svg_126" xlink:href="http://www.youtube.com/watch?v=N2OMM-zVCdg">\r\n
   <path d="m101.87201,607.32019c-5.24622,0 -9.49908,4.70465 -9.49908,10.5033c0,5.79846 4.25287,10.4986 9.49908,10.4986c5.24609,0 9.50092,-4.70013 9.50092,-10.4986c0,-5.79865 -4.25482,-10.5033 -9.50092,-10.5033zm-1.52612,17.52783l-2.31171,-2.55774l4.04517,-4.4668l-4.04517,-4.47144l2.31171,-2.55255l6.35535,7.02399l-6.35535,7.02454z" fill="#000000" stroke-opacity="0" stroke="#000000" id="svg_124"/>\r\n</a>\r\n
  <a id="svg_130" xlink:href="http://www.youtube.com/watch?v=r6ZaP2TjURo">\r\n
   <path d="m280.87201,609.32019c-5.24622,0 -9.49908,4.70465 -9.49908,10.5033c0,5.79846 4.25287,10.4986 9.49908,10.4986c5.24609,0 9.50092,-4.70013 9.50092,-10.4986c0,-5.79865 -4.25482,-10.5033 -9.50092,-10.5033zm-1.52612,17.52783l-2.31171,-2.55774l4.04517,-4.4668l-4.04517,-4.47144l2.31171,-2.55255l6.35535,7.02399l-6.35535,7.02454z" fill="#000000" stroke-opacity="0" stroke="#000000" id="svg_127"/>\r\n</a>\r\n
  <text xml:space="preserve" text-anchor="middle" font-family="serif" font-size="13" y="615.36643" x="502.11115" stroke-linecap="null" stroke-linejoin="null" stroke-dasharray="null" stroke-width="0" stroke="#000000" fill="#000000" id="svg_132">按此前往</text>\r\n
  <g id="svg_144">\r\n
   <a id="svg_120" xlink:href="http://www.youtube.com/watch?v=DrwIbuLt7Js">\r\n
    <path id="svg_121" d="m809.87201,203.32019c-5.24622,0 -9.49908,4.70462 -9.49908,10.50327c0,5.79849 4.25287,10.49863 9.49908,10.49863c5.24609,0 9.50092,-4.70012 9.50092,-10.49863c0,-5.79865 -4.25482,-10.50327 -9.50092,-10.50327zm-1.52612,17.5278l-2.31171,-2.55774l4.04517,-4.4668l-4.04517,-4.47145l2.31171,-2.55252l6.35535,7.02397l-6.35535,7.02454z" fill="#000000" stroke-opacity="0" stroke="#000000"/>\r\n</a>\r\n
   <a id="svg_122" xlink:href="http://www.youtube.com/watch?v=DrwIbuLt7Js">\r\n
    <text id="svg_123" xml:space="preserve" text-anchor="middle" font-family="serif" font-size="13" y="218.36258" x="848.11115" stroke-linecap="null" stroke-linejoin="null" stroke-dasharray="null" stroke-width="0" stroke="#000000" fill="#000000">按此前往</text>\r\n</a>\r\n</g>\r\n
  <a id="svg_151" xlink:href="http://www6.cityu.edu.hk/cityvod/video/play/VPRT/CityU_lecture_Prof_Yu.aspx">\r\n
   <path d="m463.87201,600.32019c-5.24622,0 -9.49908,4.70465 -9.49908,10.5033c0,5.79846 4.25287,10.4986 9.49908,10.4986c5.24609,0 9.50092,-4.70013 9.50092,-10.4986c0,-5.79865 -4.25482,-10.5033 -9.50092,-10.5033zm-1.52612,17.52783l-2.31171,-2.55774l4.04517,-4.4668l-4.04517,-4.47144l2.31171,-2.55255l6.35535,7.02399l-6.35535,7.02454z" fill="#000000" stroke-opacity="0" stroke="#000000" id="svg_133"/>\r\n</a>\r\n
  <g id="svg_163">\r\n
   <text xml:space="preserve" text-anchor="middle" font-family="serif" font-size="11" y="335.33337" x="850.37817" stroke-linecap="null" stroke-linejoin="null" stroke-dasharray="null" stroke-width="0" fill="#000000" id="svg_156" stroke="#000000">(影片1時13分00秒起)</text>\r\n
   <text xml:space="preserve" text-anchor="middle" font-family="serif" font-size="13" y="318.32654" x="848.11115" stroke-linecap="null" stroke-linejoin="null" stroke-dasharray="null" stroke-width="0" stroke="#000000" fill="#000000" id="svg_152">按此前往</text>\r\n
   <a id="svg_161" xlink:href="http://www6.cityu.edu.hk/cityvod/video/play/VPRT/CityU_lecture_Prof_Yu.aspx">\r\n
    <path d="m809.87201,303.32019c-5.24622,0 -9.49908,4.70465 -9.49908,10.5033c0,5.79846 4.25287,10.4986 9.49908,10.4986c5.24609,0 9.50092,-4.70013 9.50092,-10.4986c0,-5.79865 -4.25482,-10.5033 -9.50092,-10.5033zm-1.52612,17.52783l-2.31171,-2.55774l4.04517,-4.4668l-4.04517,-4.47144l2.31171,-2.55255l6.35535,7.02399l-6.35535,7.02454z" fill="#000000" stroke-opacity="0" stroke="#000000" id="svg_153"/>\r\n</a>\r\n</g>\r\n
  <g id="svg_164">\r\n
   <text xml:space="preserve" text-anchor="middle" font-family="serif" font-size="13" y="419.32654" x="866.10907" stroke-linecap="null" stroke-linejoin="null" stroke-dasharray="null" stroke-width="0" stroke="#000000" fill="#000000" id="svg_154">按此前往</text>\r\n
   <a id="svg_159" xlink:href="http://www6.cityu.edu.hk/cityvod/video/play/VPRT/CityU_lecture_Prof_Yu.aspx">\r\n
    <path d="m827.86993,404.32019c-5.24622,0 -9.49908,4.70465 -9.49908,10.5033c0,5.79846 4.25287,10.4986 9.49908,10.4986c5.24609,0 9.50092,-4.70013 9.50092,-10.4986c0,-5.79865 -4.25482,-10.5033 -9.50092,-10.5033zm-1.52612,17.52783l-2.31171,-2.55774l4.04517,-4.4668l-4.04517,-4.47144l2.31171,-2.55255l6.35535,7.02399l-6.35535,7.02454z" fill="#000000" stroke-opacity="0" stroke="#000000" id="svg_155"/>\r\n</a>\r\n
   <text xml:space="preserve" text-anchor="middle" font-family="serif" font-size="11" y="435.33337" x="850.37609" stroke-linecap="null" stroke-linejoin="null" stroke-dasharray="null" stroke-width="0" fill="#000000" stroke="#000000" id="svg_162">(影片1時40分50秒起)</text>\r\n</g>\r\n
  <image x="668.45453" y="251.36362" width="112" height="102" id="svg_165" xlink:href="http://farm8.staticflickr.com/7620/17207798451_b6e143deff_o.png"/>\r\n
  <image x="668.45453" y="357.36362" width="120" height="100" id="svg_166" xlink:href="http://farm9.staticflickr.com/8825/17182451046_e3ffbb7c43_o.png"/>\r\n
  <image xlink:href="https://farm8.staticflickr.com/7722/26828732460_ec1b352e82_o.png" id="svg_56" height="301.81621" width="224.77699" y="11.85185" x="11.61111"/>
  <image xlink:href="https://c1.staticflickr.com/5/4597/25388341708_c2f962b1b4_b.jpg" id="svg_10" height="60.16663" width="76.49998" y="49.58335" x="262.6667"/>
  <image xlink:href="https://c1.staticflickr.com/5/4638/38378927375_37d2a7e378_b.jpg" id="svg_11" height="47.66668" width="75.33331" y="55.99998" x="341.66672"/>
  <image x="409" y="58" width="95" height="44" id="svg_16" xlink:href="https://c1.staticflickr.com/5/4688/39255441071_d553635bbe_b.jpg"/>
  <image x="468.33331" y="58" width="129.33333" height="44.33333" id="svg_17" xlink:href="https://c1.staticflickr.com/5/4645/25388341848_475c32bf52_b.jpg"/>
  <image x="573.66662" y="52.00002" width="72.66666" height="55.66665" id="svg_18" xlink:href="https://c1.staticflickr.com/5/4739/38378927545_8447a8eb92_b.jpg"/>
  <image x="263.00003" y="145.33334" width="76.66666" height="55.99998" id="svg_19" xlink:href="https://c1.staticflickr.com/5/4735/24393150647_93d9e221b7_b.jpg"/>
  <image x="341.00001" y="150.66667" width="76.66666" height="44.66666" id="svg_20" xlink:href="https://c1.staticflickr.com/5/4635/38379087885_9f30c30c4a_b.jpg"/>
  <image x="340.77776" y="239.99999" width="76.00001" height="63.00001" id="svg_21" xlink:href="https://c1.staticflickr.com/5/4644/38379088095_82eb73337e_b.jpg"/>
  <image x="405.44439" y="249.33333" width="102.00002" height="44.66668" id="svg_22" xlink:href="https://c1.staticflickr.com/5/4693/24393151007_4ff1131fde_b.jpg"/>
  <image x="498.33325" y="143.33334" width="73.33335" height="59.66667" id="svg_24" xlink:href="https://c1.staticflickr.com/5/4690/38547836284_7a98f8f67e_b.jpg"/>
  <image x="572.99996" y="151.33337" width="74.66664" height="43.33334" id="svg_25" xlink:href="https://c1.staticflickr.com/5/4729/24393303697_4d7fdc95fd_b.jpg"/>
  <image x="262.99999" y="243.55553" width="76.44448" height="56.11112" id="svg_26" xlink:href="https://c1.staticflickr.com/5/4727/24393303847_57fb4dd8ec_b.jpg"/>
  <image x="495.88886" y="248.88886" width="76.44446" height="45.44442" id="svg_31" xlink:href="https://c1.staticflickr.com/5/4639/39255969181_744d919291_b.jpg"/>
  <image x="573.22221" y="246.22225" width="75.55558" height="50.77776" id="svg_32" xlink:href="https://c1.staticflickr.com/5/4686/39255969491_11e1e6b2ac_b.jpg"/>
  <text id="svg_27" stroke="#000000" transform="matrix(1.1110970009626144,0,0,1.141821921708617,-50.54819144546745,-29.538003701337313) " xml:space="preserve" text-anchor="middle" font-family="serif" font-size="13" y="335.48317" x="311.08166" stroke-linecap="null" stroke-linejoin="null" stroke-dasharray="null" stroke-width="0" fill="#000000">與李白同遊</text>
  <text id="svg_28" stroke="#000000" transform="matrix(1.1245685835559662,0,0,1.0508032667997833,-37.00110472355768,-2.186049013588324) " xml:space="preserve" text-anchor="middle" font-family="serif" font-size="13" y="352.68094" x="295.82329" stroke-linecap="null" stroke-linejoin="null" stroke-dasharray="null" stroke-width="0" fill="#000000">高速公路</text>
  <text id="svg_29" stroke="#000000" transform="matrix(1.526902568463804,0,0,1.5531258921375286,-265.8580002966383,-157.36020904674027) " xml:space="preserve" text-anchor="middle" font-family="serif" font-size="10" y="334.77514" x="420.70366" stroke-linecap="null" stroke-linejoin="null" stroke-dasharray="null" stroke-width="0" fill="#000000">漂水花</text>
  <text id="svg_58" stroke="#000000" transform="matrix(1.526902568463804,0,0,1.6103074427632489,-265.8580002966383,-175.82661457107403) " xml:space="preserve" text-anchor="middle" font-family="serif" font-size="10" y="335.25707" x="527.42895" stroke-linecap="null" stroke-linejoin="null" stroke-dasharray="null" stroke-width="0" fill="#000000">客從蒙古來</text>
  <text id="svg_60" stroke="#000000" transform="matrix(1.1958933578614181,0,0,1.218691659699547,-77.42648657225915,-57.50419637874163) " xml:space="preserve" text-anchor="middle" font-family="serif" font-size="13" y="345.18704" x="583.36572" stroke-linecap="null" stroke-linejoin="null" stroke-dasharray="null" stroke-width="0" fill="#000000">Quadrille</text>
  <image xlink:href="https://c1.staticflickr.com/5/4734/39256154131_e401d3795b_b.jpg" id="svg_64" height="101" width="78" y="348.00001" x="578"/>
  <image xlink:href="https://c1.staticflickr.com/5/4731/39256154701_1cb9aa57b4_b.jpg" id="svg_65" height="45.99999" width="130" y="376.00001" x="472"/>
  <a xlink:href="http://www6.cityu.edu.hk/cityvod/video/play/VPRT/CityU_lecture_Prof_Yu.aspx" fill="#000000" stroke="#000000" id="svg_12">\r\n</a>
  <a xlink:href="http://www6.cityu.edu.hk/cityvod/video/play/VPRT/CityU_lecture_Prof_Yu.aspx" fill="#000000" stroke="#000000" id="svg_14">\r\n</a>
  <a xlink:href="https://youtu.be/zBdpTzd6pzI" id="svg_66">
   <image xlink:href="https://c1.staticflickr.com/5/4450/37041332104_bdf78be700_o.png" id="svg_13" height="23" width="23" y="179" x="468"/>
  </a>
  <a xlink:href="https://youtu.be/7p51q9PUPVs" id="svg_69">
   <image xlink:href="https://c1.staticflickr.com/5/4450/37041332104_bdf78be700_o.png" id="svg_67" height="25" width="22" y="317" x="479"/>
  </a>
  <a xlink:href="https://youtu.be/PP7Fdi4Fjvc" id="svg_110">
   <image xlink:href="https://c1.staticflickr.com/5/4450/37041332104_bdf78be700_o.png" height="23" width="23" y="83" x="315.5" id="svg_70"/>
  </a>
  <a xlink:href="https://youtu.be/ojDT3CI_86k" id="svg_111">
   <image xlink:href="https://c1.staticflickr.com/5/4450/37041332104_bdf78be700_o.png" height="23" width="23" y="83" x="392.5" id="svg_75"/>
  </a>
  <a xlink:href="https://youtu.be/csCWQI-sNsI" id="svg_112">
   <image xlink:href="https://c1.staticflickr.com/5/4450/37041332104_bdf78be700_o.png" height="23" width="23" y="83" x="469.5" id="svg_79"/>
  </a>
  <a xlink:href="https://youtu.be/EliFqiBA-jA" id="svg_113">
   <image xlink:href="https://c1.staticflickr.com/5/4450/37041332104_bdf78be700_o.png" height="23" width="23" y="83" x="548.5" id="svg_80"/>
  </a>
  <a xlink:href="https://youtu.be/gwDNckXuCaQ" id="svg_116">
   <image xlink:href="https://c1.staticflickr.com/5/4450/37041332104_bdf78be700_o.png" height="23" width="23" y="83" x="623.5" id="svg_87"/>
  </a>
  <a xlink:href="https://youtu.be/TgD56JV658c" id="svg_119">
   <image xlink:href="https://c1.staticflickr.com/5/4450/37041332104_bdf78be700_o.png" height="23" width="23" y="177" x="316.5" id="svg_88"/>
  </a>
  <a xlink:href="https://youtu.be/dQJ_Sts5M7M" id="svg_128">
   <image xlink:href="https://c1.staticflickr.com/5/4450/37041332104_bdf78be700_o.png" height="23" width="23" y="178" x="394.5" id="svg_89"/>
  </a>
  <a xlink:href="https://youtu.be/FrRA1WI3NQQ" id="svg_129">
   <image xlink:href="https://c1.staticflickr.com/5/4450/37041332104_bdf78be700_o.png" height="23" width="23" y="179" x="548.5" id="svg_90"/>
  </a>
  <a xlink:href="https://youtu.be/9F8rB499o2E" id="svg_131">
   <image xlink:href="https://c1.staticflickr.com/5/4450/37041332104_bdf78be700_o.png" height="23" width="23" y="179" x="624.5" id="svg_91"/>
  </a>
  <a xlink:href="https://youtu.be/qtecYZHvfhM" id="svg_134">
   <image xlink:href="https://c1.staticflickr.com/5/4450/37041332104_bdf78be700_o.png" height="23" width="23" y="277" x="315.5" id="svg_92"/>
  </a>
  <a xlink:href="https://youtu.be/9AU5eYUXs6w" id="svg_140">
   <image xlink:href="https://c1.staticflickr.com/5/4450/37041332104_bdf78be700_o.png" height="23" width="23" y="277" x="393.5" id="svg_95"/>
  </a>
  <a xlink:href="https://youtu.be/_qGHhpinJOk" id="svg_141">
   <image xlink:href="https://c1.staticflickr.com/5/4450/37041332104_bdf78be700_o.png" height="23" width="23" y="277" x="471.5" id="svg_96"/>
  </a>
  <a xlink:href="https://youtu.be/g4xYCo81vMg" id="svg_142">
   <image xlink:href="https://c1.staticflickr.com/5/4450/37041332104_bdf78be700_o.png" height="23" width="23" y="277" x="548.5" id="svg_97"/>
  </a>
  <a xlink:href="https://youtu.be/8V7q9WQjDwg" id="svg_143">
   <image xlink:href="https://c1.staticflickr.com/5/4450/37041332104_bdf78be700_o.png" height="23" width="23" y="276" x="624.5" id="svg_100"/>
  </a>
  <a xlink:href="https://youtu.be/F1QtuAiD8Zw" id="svg_145">
   <image xlink:href="https://c1.staticflickr.com/5/4450/37041332104_bdf78be700_o.png" height="23" width="23" y="405" x="312.5" id="svg_102"/>
  </a>
  <a xlink:href="https://youtu.be/eCYlrA2BCms" id="svg_146">
   <image xlink:href="https://c1.staticflickr.com/5/4450/37041332104_bdf78be700_o.png" height="23" width="23" y="405" x="389.5" id="svg_103"/>
  </a>
  <a xlink:href="https://youtu.be/krypGWl42-4" id="svg_147">
   <image xlink:href="https://c1.staticflickr.com/5/4450/37041332104_bdf78be700_o.png" height="23" width="23" y="405" x="473.5" id="svg_104"/>
  </a>
  <a xlink:href="https://youtu.be/NXbPrZ8Jmxg" id="svg_148">
   <image xlink:href="https://c1.staticflickr.com/5/4450/37041332104_bdf78be700_o.png" height="23" width="23" y="404" x="552.5" id="svg_107"/>
  </a>
  <a xlink:href="https://youtu.be/9HMsYgBjIVA" id="svg_149">
   <image xlink:href="https://c1.staticflickr.com/5/4450/37041332104_bdf78be700_o.png" height="23" width="23" y="404" x="631.5" id="svg_109"/>
  </a>
  <text fill="#000000" stroke-width="0" stroke-dasharray="null" stroke-linejoin="null" stroke-linecap="null" x="200.76338" y="208.85751" id="svg_150" font-size="24" font-family="Sans-serif" text-anchor="middle" xml:space="preserve" transform="matrix(0.6012841492443063,0,0,0.47504226052527243,1.2873752786685086,63.61289021987536) " stroke="#000000">9 April 2015</text></g>\r\n</svg>