<svg width="905" height="640.0000000000002" xmlns="http://www.w3.org/2000/svg" xmlns:svg="http://www.w3.org/2000/svg" xmlns:xlink="http://www.w3.org/1999/xlink" stroke="null" style="vector-effect: non-scaling-stroke;">
 <!-- Created with SVG-edit - http://svg-edit.googlecode.com/ -->
 <title stroke="null">From Basic Science to Advanced Medicine</title>
 <defs stroke="null">
  <marker stroke="null" style="vector-effect: non-scaling-stroke;" id="se_marker_mid_svg_36" markerUnits="strokeWidth" orient="auto" viewBox="0 0 100 100" markerWidth="5" markerHeight="5" refX="50" refY="50">
   <path stroke="#000000" style="vector-effect: non-scaling-stroke;" id="svg_1" d="m100,50l-100,40l30,-40l-30,-40l100,40z" fill="#000000" stroke-width="10"/>
  </marker>
  <marker stroke="null" style="vector-effect: non-scaling-stroke;" id="se_marker_mid_svg_37" markerUnits="strokeWidth" orient="auto" viewBox="0 0 100 100" markerWidth="5" markerHeight="5" refX="50" refY="50">
   <path stroke="#000000" style="vector-effect: non-scaling-stroke;" id="svg_2" d="m100,50l-100,40l30,-40l-30,-40l100,40z" fill="#000000" stroke-width="10"/>
  </marker>
  <marker stroke="null" style="vector-effect: non-scaling-stroke;" id="se_marker_mid_svg_38" markerUnits="strokeWidth" orient="auto" viewBox="0 0 100 100" markerWidth="5" markerHeight="5" refX="50" refY="50">
   <path stroke="#000000" style="vector-effect: non-scaling-stroke;" id="svg_3" d="m100,50l-100,40l30,-40l-30,-40l100,40z" fill="#000000" stroke-width="10"/>
  </marker>
  <marker stroke="null" style="vector-effect: non-scaling-stroke;" id="se_marker_mid_svg_41" markerUnits="strokeWidth" orient="auto" viewBox="0 0 100 100" markerWidth="5" markerHeight="5" refX="50" refY="50">
   <path stroke="#000000" style="vector-effect: non-scaling-stroke;" id="svg_4" d="m100,50l-100,40l30,-40l-30,-40l100,40z" fill="#000000" stroke-width="10"/>
  </marker>
  <marker stroke="null" style="vector-effect: non-scaling-stroke;" id="se_marker_mid_svg_44" markerUnits="strokeWidth" orient="auto" viewBox="0 0 100 100" markerWidth="5" markerHeight="5" refX="50" refY="50">
   <path stroke="#000000" style="vector-effect: non-scaling-stroke;" id="svg_6" d="m100,50l-100,40l30,-40l-30,-40l100,40z" fill="#000000" stroke-width="10"/>
  </marker>
  <pattern stroke="null" style="vector-effect: non-scaling-stroke;" height="100" width="100" y="0" x="0" patternUnits="userSpaceOnUse" id="gridpattern">
   <image stroke="null" style="vector-effect: non-scaling-stroke;" height="100" width="100" y="0" x="0" id="svg_7"/>
  </pattern>
 </defs>
 <g stroke="null" display="inline">
  <title stroke="null">圖遮罩</title>
 </g>
 <g stroke="null" display="inline">
  <title stroke="null">文字</title>
  <text stroke="#000000" fill="#3f3f3f" stroke-width="0" stroke-dasharray="null" stroke-linejoin="null" stroke-linecap="null" x="806.64556" y="453.52643" id="svg_79" font-size="24" font-family="serif" text-anchor="middle" xml:space="preserve" transform="matrix(0.5035192345527149,0,0,0.6499385148787921,397.51201614401145,193.9968454570728) " font-weight="bold">1. Interview with Ada E. Yonath |</text>
  <text stroke="#000000" fill="#3f3f3f" stroke-width="0" stroke-dasharray="null" stroke-linejoin="null" stroke-linecap="null" x="779.20177" y="475.7252" id="svg_81" font-size="24" font-family="serif" text-anchor="middle" xml:space="preserve" transform="matrix(0.5951934659958763,0,0,0.5631366597826507,343.92656959144824,237.78992963515154) " font-weight="bold">Nobel Prize in Chemistry</text>
  <image stroke="null" style="vector-effect: non-scaling-stroke;" xlink:href="https://farm5.staticflickr.com/4522/38028246124_7491539748_b.jpg" id="svg_18" height="352.09054" width="162.27468" y="171.1074" x="30.94071"/>
  <image stroke="null" xlink:href="https://farm5.staticflickr.com/4578/38744677521_35c3f20606_b.jpg" id="svg_33" height="224.19888" width="153.45372" y="92.31851" x="731.63517"/>
 </g>
 <g stroke="null" display="inline">
  <title stroke="null">色塊</title>
  <rect stroke="#000000" opacity="0.3" height="200.99998" width="160" y="15.85186" x="383.55557" stroke-width="0" fill="#aad4ff" id="svg_5"/>
  <rect stroke="#000000" opacity="0.3" height="201" width="160" y="16.85187" x="219.00001" stroke-width="0" fill="#aad4ff" id="svg_10"/>
  <rect stroke="#000000" opacity="0.3" height="200.99998" width="160" y="15.85188" x="547.11112" stroke-width="0" fill="#aad4ff" id="svg_11"/>
  <rect stroke="#000000" opacity="0.3" height="200.99998" width="160" y="219.40743" x="383.55556" stroke-width="0" fill="#aad4ff" id="svg_12"/>
  <rect stroke="#000000" opacity="0.3" height="201.00001" width="160" y="220.40742" x="219.00001" stroke-width="0" fill="#aad4ff" id="svg_13"/>
  <rect stroke="#000000" opacity="0.3" height="200.99998" width="160" y="219.40744" x="547.11112" stroke-width="0" fill="#aad4ff" id="svg_14"/>
  <rect stroke="#000000" opacity="0.3" height="204" width="160" y="422.96296" x="383.55556" stroke-width="0" fill="#aad4ff" id="svg_15"/>
  <rect stroke="#000000" opacity="0.3" height="203.99999" width="160" y="423.96297" x="219" stroke-width="0" fill="#aad4ff" id="svg_16"/>
  <rect stroke="#000000" opacity="0.3" height="204" width="160" y="422.96296" x="547.11112" stroke-width="0" fill="#aad4ff" id="svg_17"/>
  <rect stroke="#000000" id="svg_8" opacity="0.3" height="611.11114" width="199.11107" y="16.85182" x="15.94447" stroke-width="0" fill="#aad4ff"/>
  <rect stroke="#000000" id="svg_9" opacity="0.3" height="612.11106" width="177.77774" y="14.8519" x="712.05555" stroke-width="0" fill="#aad4ff"/>
  <rect style="vector-effect: non-scaling-stroke;" id="svg_21" height="27.5" width="94.5" y="148.9125" x="17.275" stroke-linecap="null" stroke-linejoin="null" stroke-dasharray="null" stroke-width="5" fill="#aaaaff"/>
  <rect stroke="null" id="svg_22" height="33.66667" width="148" y="38.6" x="742.0289" stroke-linecap="null" stroke-linejoin="null" stroke-dasharray="null" stroke-width="5" fill="#aaaaff"/>
  <rect stroke="#000000" style="vector-effect: non-scaling-stroke;" id="svg_24" height="20" width="89.5" y="517.26667" x="17.94948" stroke-linecap="null" stroke-linejoin="null" stroke-dasharray="null" stroke-width="5" fill="#aaaaff" stroke-opacity="0"/>
  <rect stroke="#000000" id="svg_29" height="34.625" width="144.08594" y="433.6" x="745.75935" stroke-linecap="null" stroke-linejoin="null" stroke-dasharray="null" stroke-width="5" fill="#aaaaff" stroke-opacity="0"/>
 </g>
 <g stroke="null" display="inline">
  <title stroke="null">圖片</title>
  <image stroke="null" xlink:href="https://farm5.staticflickr.com/4535/38744677801_8daef73fdf.jpg" id="svg_23" height="77.44877" width="63.16667" y="68.8" x="32.61667"/>
  <image stroke="null" style="vector-effect: non-scaling-stroke;" xlink:href="https://farm5.staticflickr.com/4246/34069200483_243944b11e_b.jpg" id="svg_50" height="87.22858" width="140.25001" y="534.22468" x="48.91728"/>
  <image stroke="null" style="vector-effect: non-scaling-stroke;" xlink:href="https://farm5.staticflickr.com/4249/34879912465_752c8a2719_b.jpg" id="svg_55" height="104.25" width="156.25" y="313.32502" x="385.47222"/>
  <image stroke="null" style="vector-effect: non-scaling-stroke;" xlink:href="https://farm5.staticflickr.com/4273/34069200183_96cbbf0467_b.jpg" id="svg_88" height="106.75" width="155" y="108.48395" x="222.12098"/>
  <image stroke="null" xlink:href="https://farm5.staticflickr.com/4275/34879911825_8bd7e9b737_b.jpg" id="svg_91" height="101.75" width="156.25" y="521.08736" x="220.87098"/>
  <image stroke="null" xlink:href="https://farm5.staticflickr.com/4226/34036632674_49e4303f02_b.jpg" id="svg_93" height="104.25" width="152.50001" y="517.33743" x="551.59905"/>
  <image stroke="null" style="vector-effect: non-scaling-stroke;" xlink:href="https://farm5.staticflickr.com/4272/34879912285_a9553f4b20_b.jpg" id="svg_94" height="110.5" width="153.75" y="107.23396" x="550.34908"/>
  <image stroke="null" style="vector-effect: non-scaling-stroke;" xlink:href="https://farm5.staticflickr.com/4554/26968555119_4793baf347_b.jpg" id="svg_96" height="104.25" width="153.75001" y="109.73396" x="385.47221"/>
  <image stroke="null" style="vector-effect: non-scaling-stroke;" xlink:href="https://farm5.staticflickr.com/4523/38028244224_79c6ce19af_b.jpg" id="svg_98" height="109.24999" width="159.99999" y="310.82503" x="219.621"/>
  <image stroke="null" xlink:href="https://farm5.staticflickr.com/4567/26968554359_3f9a6219d5_b.jpg" id="svg_99" height="105.5" width="168.75" y="313.32502" x="546.59913"/>
  <image stroke="null" xlink:href="https://farm5.staticflickr.com/4568/38028243214_c79cc74ecb_b.jpg" id="svg_100" height="101.25" width="147.5" y="518.83736" x="386.72223"/>
  <image stroke="null" xlink:href="https://farm5.staticflickr.com/4525/37858433305_6182484e80_b.jpg" id="svg_101" height="80" width="140" y="524" x="730.73333"/>
  <a stroke="null" xlink:href="https://www.youtube.com/watch?v=ETc4DaARjpI" id="svg_106">
   <path stroke="#000000" id="svg_105" fill="#7f003f" stroke-width="0" stroke-dasharray="null" stroke-linejoin="null" stroke-linecap="null" d="m798.99999,546.60196c-8.26903,0 -14.97223,6.47597 -14.97223,14.46469c0,7.98872 6.7032,14.46469 14.97223,14.46469c8.26903,0 14.97222,-6.47597 14.97222,-14.46469c0,-7.98872 -6.70319,-14.46469 -14.97222,-14.46469zm-2.40541,24.14331l-3.64261,-3.52212l6.37355,-6.1575l-6.37355,-6.15749l3.64261,-3.51914l10.0172,9.67663l-10.0172,9.67962z" marker-mid="url(#se_marker_mid_svg_44)"/>
  </a>
  <image stroke="null" id="svg_32" xlink:href="https://farm5.staticflickr.com/4268/34748172701_f73517bb9c_b.jpg" height="128.25" width="124" y="286.5" x="739.875"/>
 </g>
 <g stroke="null" display="inline">
  <title stroke="null">標題</title>
  <text fill="#00007f" stroke-width="0" stroke-dasharray="null" stroke-linejoin="null" stroke-linecap="null" x="-283.93621" y="1.21842" id="svg_45" font-size="24" font-family="serif" text-anchor="middle" xml:space="preserve" font-weight="bold" transform="matrix(0.7897249207277093,0,0,0.9253608900673254,340.7477717296616,41.97625775824467) ">From Basic Science</text>
  <text stroke="#000000" fill="#3f3f3f" stroke-width="0" stroke-dasharray="null" stroke-linejoin="null" stroke-linecap="null" x="627.5039" y="457.56662" id="svg_35" font-size="24" font-family="serif" text-anchor="middle" xml:space="preserve" transform="matrix(0.8081474138879103,0,0,0.7817604501631847,122.87421496885715,99.77007724123823) ">Part 9-</text>
  <text xml:space="preserve" text-anchor="middle" font-family="serif" font-size="24" id="svg_25" y="163.35293" x="62.78488" opacity="0.8" stroke-linecap="null" stroke-linejoin="null" stroke-dasharray="null" stroke-width="0" fill="#00007f" font-style="italic" transform="matrix(0.9301310181617737,0,0,0.8787878751754761,1.9475978687405586,24.759470434859395) ">Abstract</text>
  <text stroke="null" font-style="italic" transform="matrix(0.7137307792803784,0,0,0.8969678398356312,167.8815662277486,15.072859664100232) " xml:space="preserve" text-anchor="middle" font-family="serif" font-size="24" id="svg_27" y="51.58378" x="853.91806" opacity="0.8" stroke-linecap="null" stroke-linejoin="null" stroke-dasharray="null" stroke-width="0" fill="#00007f">Speaker’s</text>
  <text stroke="null" font-style="italic" transform="translate(889.87255859375,504.8636779785156) scale(1) translate(-889.87255859375,-504.8636779785156) translate(889.914306640625,505.77667236328125) scale(1.0139044523239136,1.3043327331542969) translate(-889.914306640625,-505.77667236328125) translate(888.4232177734375,504.6651611328125) scale(1) translate(-888.4232177734375,-504.6651611328125) translate(888.3218994140625,504.255126953125) scale(0.9399330019950867,0.7570223808288574) translate(-888.3218994140625,-504.255126953125) translate(888.0772705078125,504.109619140625) scale(0.8550723195075989,0.9137715697288513) translate(-888.0772705078125,-504.109619140625) matrix(1.0937924253894378,0,0,1.0937924253894378,71.03591400341189,-39.500754610857044) " xml:space="preserve" text-anchor="middle" font-family="serif" font-size="24" id="svg_28" y="450.2947" x="645.83226" opacity="0.8" stroke-linecap="null" stroke-linejoin="null" stroke-dasharray="null" stroke-width="0" fill="#00007f">Further Reading</text>
  <text stroke="null" style="vector-effect: non-scaling-stroke;" font-weight="bold" xml:space="preserve" text-anchor="middle" font-family="serif" font-size="24" id="svg_30" y="533.64285" x="70.69782" opacity="0.8" stroke-linecap="null" stroke-linejoin="null" stroke-dasharray="null" stroke-width="0" fill="#00007f" font-style="italic" transform="matrix(0.7307227333170728,0,0,0.8194542897849291,12.148889558202487,98.28244587266948) ">Welcoming</text>
  <text stroke="#000000" transform="matrix(0.5496906349325514,0,0,0.9802540299093099,60.127528530221376,-72.53970184583375) " xml:space="preserve" text-anchor="middle" font-family="serif" font-size="24" id="svg_31" y="183.93096" x="171.92095" opacity="0.8" stroke-linecap="null" stroke-linejoin="null" stroke-dasharray="null" stroke-width="0" fill="#3f3f3f">Prof. Ada Yonath</text>
  <text stroke="#000000" style="vector-effect: non-scaling-stroke;" id="svg_61" fill="#3f3f3f" stroke-width="0" stroke-dasharray="null" stroke-linejoin="null" stroke-linecap="null" x="90.87277" y="-142.12292" font-size="24" font-family="serif" text-anchor="middle" xml:space="preserve" transform="matrix(0.7853636203664514,0,0,1.0942633132617177,226.68619906056028,210.87116501136572) ">Part 1-</text>
  <text stroke="#000000" style="vector-effect: non-scaling-stroke;" id="svg_62" fill="#3f3f3f" stroke-width="0" stroke-dasharray="null" stroke-linejoin="null" stroke-linecap="null" x="308.89177" y="-134.13732" font-size="24" font-family="serif" text-anchor="middle" xml:space="preserve" transform="matrix(0.8042684582712214,0,0,1.0150111954675585,211.4973709485193,192.13899236712345) ">Part 2-</text>
  <text stroke="#000000" style="vector-effect: non-scaling-stroke;" id="svg_63" fill="#3f3f3f" stroke-width="0" stroke-dasharray="null" stroke-linejoin="null" stroke-linecap="null" x="561.37779" y="-136.85122" font-size="24" font-family="serif" text-anchor="middle" xml:space="preserve" transform="matrix(0.850230679252221,0,0,1.0301781101257304,147.1394010507801,195.54991391023208) ">Part 3-</text>
  <text stroke="#000000" id="svg_64" fill="#3f3f3f" stroke-width="0" stroke-dasharray="null" stroke-linejoin="null" stroke-linecap="null" x="303.15989" y="252.87811" font-size="24" font-family="serif" text-anchor="middle" xml:space="preserve" transform="matrix(0.8388703324819484,0,0,0.9043657638672216,43.36937598504669,33.196747535193815) ">Part 4-</text>
  <text style="cursor: move;" stroke="#000000" id="svg_65" fill="#3f3f3f" stroke-width="0" stroke-dasharray="null" stroke-linejoin="null" stroke-linecap="null" x="474.17121" y="270.15372" font-size="24" font-family="serif" text-anchor="middle" xml:space="preserve" transform="matrix(0.8032440645597798,0,0,0.9388839227837734,82.32264500065583,8.265853395681818) ">Part 5-</text>
  <text stroke="#000000" id="svg_66" fill="#3f3f3f" stroke-width="0" stroke-dasharray="null" stroke-linejoin="null" stroke-linecap="null" x="639.01366" y="268.83317" font-size="24" font-family="serif" text-anchor="middle" xml:space="preserve" transform="matrix(0.8744145925583666,0,0,0.9626311675275457,73.64790522850635,4.437408442342871) ">Part 6-</text>
  <text stroke="#000000" id="svg_67" fill="#3f3f3f" stroke-width="0" stroke-dasharray="null" stroke-linejoin="null" stroke-linecap="null" x="301.54556" y="457.91436" font-size="24" font-family="serif" text-anchor="middle" xml:space="preserve" transform="matrix(0.8275908972857877,0,0,0.8776569844761397,49.893770668967406,59.593167463530456) ">Part 7-</text>
  <text stroke="#000000" id="svg_68" fill="#3f3f3f" stroke-width="0" stroke-dasharray="null" stroke-linejoin="null" stroke-linecap="null" x="465.18625" y="455.60866" font-size="24" font-family="serif" text-anchor="middle" xml:space="preserve" transform="matrix(0.8117309364114415,0,0,0.8738902420496074,84.46734116790057,61.463770486350754) ">Part 8-</text>
  <text stroke="#000000" style="vector-effect: non-scaling-stroke;" transform="matrix(0.5987763842856074,0,0,0.9802304663277159,210.44263367275832,175.19721678744156) " xml:space="preserve" text-anchor="middle" font-family="serif" font-size="24" id="svg_69" y="-93.46634" x="147.90627" stroke-linecap="null" stroke-linejoin="null" stroke-dasharray="null" stroke-width="0" fill="#3f3f3f">Introduction of Protein</text>
  <text stroke="#000000" id="svg_77" transform="matrix(0.7123311037826482,0,0,0.7444039924837429,241.8724221251918,95.05180763752954) " xml:space="preserve" text-anchor="middle" font-family="serif" font-size="24" y="518.68245" x="82.33366" stroke-linecap="null" stroke-linejoin="null" stroke-dasharray="null" stroke-width="0" fill="#3f3f3f">Alternations in</text>
  <text stroke="#000000" transform="matrix(0.5623097638522003,0,0,1.1040547568935717,199.8380449971974,-70.35989488939529) " xml:space="preserve" text-anchor="middle" font-family="serif" font-size="24" id="svg_78" y="507.65692" x="462.77375" stroke-linecap="null" stroke-linejoin="null" stroke-dasharray="null" stroke-width="0" fill="#3f3f3f">Special Thanks</text>
  <text stroke="#000000" id="svg_80" transform="matrix(0.6176832595705761,0,0,1.031678755917543,179.3955959461804,-132.3572764025638) " xml:space="preserve" text-anchor="middle" font-family="serif" font-size="24" y="412.07944" x="192.57218" stroke-linecap="null" stroke-linejoin="null" stroke-dasharray="null" stroke-width="0" fill="#3f3f3f">Ribosome in Action</text>
  <text stroke="#000000" style="vector-effect: non-scaling-stroke;" id="svg_82" transform="matrix(0.6077015719890756,0,0,1.0565640507816036,175.0842425666532,-229.7118545230832) " xml:space="preserve" text-anchor="middle" font-family="serif" font-size="24" y="297.22626" x="754.12766" stroke-linecap="null" stroke-linejoin="null" stroke-dasharray="null" stroke-width="0" fill="#3f3f3f">The Central Dogma</text>
  <text stroke="#000000" style="vector-effect: non-scaling-stroke;" id="svg_87" transform="matrix(0.48303327391944567,0,0,1.0347735559703033,302.27006403416493,148.87154799595027) " xml:space="preserve" text-anchor="middle" font-family="serif" font-size="24" y="-63.31137" x="326.08352" stroke-linecap="null" stroke-linejoin="null" stroke-dasharray="null" stroke-width="0" fill="#3f3f3f">Genes and DNA</text>
  <text stroke="#000000" id="svg_56" transform="matrix(0.8474708542801209,0,0,0.8610458197883757,162.37155471916859,29.949324954479607) " xml:space="preserve" text-anchor="middle" font-family="serif" font-size="24" y="536.08356" x="549.9818" stroke-linecap="null" stroke-linejoin="null" stroke-dasharray="null" stroke-width="0" fill="#3f3f3f">Q&amp;A</text>
  <a stroke="null" xlink:href="https://www.youtube.com/watch?v=gDkvRFfTwHY&amp;list=PLC6YZ5mMz0Sx5N9TPAGn_vnB0q7m_N9Ep&amp;index=6" id="svg_26">
   <path stroke="#000000" style="vector-effect: non-scaling-stroke;" fill="#ffffff" stroke-width="0" stroke-dasharray="null" stroke-linejoin="null" stroke-linecap="null" d="m237.02154,183.68171c-8.26903,0 -14.97223,6.47597 -14.97223,14.46469c0,7.98872 6.7032,14.46469 14.97223,14.46469c8.26903,0 14.97222,-6.47597 14.97222,-14.46469c0,-7.98872 -6.70319,-14.46469 -14.97222,-14.46469zm-2.40541,24.14332l-3.64261,-3.52213l6.37355,-6.15749l-6.37355,-6.1575l3.64261,-3.51914l10.0172,9.67664l-10.0172,9.67962z" marker-mid="url(#se_marker_mid_svg_44)" id="svg_44"/>
  </a>
  <a stroke="null" xlink:href="https://www.youtube.com/watch?v=fr0x4LVLo14&amp;index=3&amp;list=PLC6YZ5mMz0Sx5N9TPAGn_vnB0q7m_N9Ep" id="svg_57">
   <path stroke="#000000" style="vector-effect: non-scaling-stroke;" fill="#ffffff" stroke-width="0" stroke-dasharray="null" stroke-linejoin="null" stroke-linecap="null" d="m402.77154,183.93171c-8.26903,0 -14.97223,6.47597 -14.97223,14.46469c0,7.98872 6.7032,14.46469 14.97223,14.46469c8.26903,0 14.97222,-6.47597 14.97222,-14.46469c0,-7.98872 -6.70319,-14.46469 -14.97222,-14.46469zm-2.40541,24.14332l-3.64261,-3.52213l6.37355,-6.15749l-6.37355,-6.1575l3.64261,-3.51914l10.0172,9.67664l-10.0172,9.67962z" marker-mid="url(#se_marker_mid_svg_44)" id="svg_43"/>
  </a>
  <a stroke="null" xlink:href="https://www.youtube.com/watch?v=0zvqZpqb4hA&amp;list=PLC6YZ5mMz0Sx5N9TPAGn_vnB0q7m_N9Ep&amp;index=4" id="svg_58">
   <path stroke="#000000" style="vector-effect: non-scaling-stroke;" fill="#ffffff" stroke-width="0" stroke-dasharray="null" stroke-linejoin="null" stroke-linecap="null" d="m566.77154,184.93172c-8.26903,0 -14.97223,6.47597 -14.97223,14.46469c0,7.98872 6.7032,14.46469 14.97223,14.46469c8.26903,0 14.97222,-6.47597 14.97222,-14.46469c0,-7.98872 -6.70319,-14.46469 -14.97222,-14.46469zm-2.40541,24.14331l-3.64261,-3.52212l6.37355,-6.1575l-6.37355,-6.15749l3.64261,-3.51914l10.0172,9.67663l-10.0172,9.67962z" marker-mid="url(#se_marker_mid_svg_44)" id="svg_42"/>
  </a>
  <a stroke="null" xlink:href="https://www.youtube.com/watch?v=K7SXqv5U_II&amp;list=PLC6YZ5mMz0Sx5N9TPAGn_vnB0q7m_N9Ep&amp;index=5" id="svg_59">
   <path stroke="#000000" style="vector-effect: non-scaling-stroke;" fill="#ffffff" stroke-width="0" stroke-dasharray="null" stroke-linejoin="null" stroke-linecap="null" d="m239.52154,391.43171c-8.26903,0 -14.97223,6.47597 -14.97223,14.46469c0,7.98872 6.7032,14.46469 14.97223,14.46469c8.26903,0 14.97222,-6.47597 14.97222,-14.46469c0,-7.98872 -6.70319,-14.46469 -14.97222,-14.46469zm-2.40541,24.14332l-3.64261,-3.52213l6.37355,-6.15749l-6.37355,-6.1575l3.64261,-3.51914l10.0172,9.67664l-10.0172,9.67962z" marker-mid="url(#se_marker_mid_svg_41)" id="svg_41"/>
  </a>
  <a stroke="null" xlink:href="https://www.youtube.com/watch?v=sBWLPhuSy84&amp;list=PLC6YZ5mMz0Sx5N9TPAGn_vnB0q7m_N9Ep&amp;index=5" id="svg_60">
   <path stroke="#000000" style="vector-effect: non-scaling-stroke;" fill="#3f3f3f" stroke-width="0" stroke-dasharray="null" stroke-linejoin="null" stroke-linecap="null" d="m49.60488,595.09839c-8.26903,0 -14.97223,6.47597 -14.97223,14.46469c0,7.98872 6.7032,14.46469 14.97223,14.46469c8.26903,0 14.97222,-6.47597 14.97222,-14.46469c0,-7.98872 -6.70319,-14.46469 -14.97222,-14.46469zm-2.40541,24.14332l-3.64261,-3.52213l6.37355,-6.15749l-6.37355,-6.1575l3.64261,-3.51914l10.0172,9.67664l-10.0172,9.67962z" marker-mid="url(#se_marker_mid_svg_38)" id="svg_20"/>
  </a>
  <a stroke="null" xlink:href="https://www.youtube.com/watch?v=fCutwAa9AiI&amp;list=PLC6YZ5mMz0Sx5N9TPAGn_vnB0q7m_N9Ep&amp;index=6" id="svg_70">
   <path stroke="#000000" style="vector-effect: non-scaling-stroke;" fill="#ffffff" stroke-width="0" stroke-dasharray="null" stroke-linejoin="null" stroke-linecap="null" d="m401.02154,391.43171c-8.26903,0 -14.97223,6.47597 -14.97223,14.46469c0,7.98872 6.7032,14.46469 14.97223,14.46469c8.26903,0 14.97222,-6.47597 14.97222,-14.46469c0,-7.98872 -6.70319,-14.46469 -14.97222,-14.46469zm-2.40541,24.14332c-1.2142,-1.17404 -2.42841,-2.34809 -3.64261,-3.52213l6.37355,-6.15749l-6.37355,-6.1575l3.64261,-3.51914l10.0172,9.67664l-10.0172,9.67962z" marker-mid="url(#se_marker_mid_svg_41)" id="svg_40"/>
  </a>
  <a stroke="null" xlink:href="https://www.youtube.com/watch?v=BevoN7i9A6Q&amp;index=7&amp;list=PLC6YZ5mMz0Sx5N9TPAGn_vnB0q7m_N9Ep" id="svg_71">
   <path stroke="#000000" style="vector-effect: non-scaling-stroke;" fill="#ffffff" stroke-width="0" stroke-dasharray="null" stroke-linejoin="null" stroke-linecap="null" d="m562.52154,392.43172c-8.26903,0 -14.97223,6.47597 -14.97223,14.46469c0,7.98872 6.7032,14.46469 14.97223,14.46469c8.26903,0 14.97222,-6.47597 14.97222,-14.46469c0,-7.98872 -6.70319,-14.46469 -14.97222,-14.46469zm-2.40541,24.14331l-3.64261,-3.52212l6.37355,-6.1575l-6.37355,-6.15749l3.64261,-3.51914l10.0172,9.67663l-10.0172,9.67962z" marker-mid="url(#se_marker_mid_svg_41)" id="svg_39"/>
  </a>
  <a stroke="null" xlink:href="https://www.youtube.com/watch?v=En1QaQLzDm8&amp;list=PLC6YZ5mMz0Sx5N9TPAGn_vnB0q7m_N9Ep&amp;index=8" id="svg_72">
   <path stroke="#000000" fill="#ffffff" stroke-width="0" stroke-dasharray="null" stroke-linejoin="null" stroke-linecap="null" d="m239.52154,593.68172c-8.26903,0 -14.97223,6.47597 -14.97223,14.46469c0,7.98872 6.7032,14.46469 14.97223,14.46469c8.26903,0 14.97222,-6.47597 14.97222,-14.46469c0,-7.98872 -6.70319,-14.46469 -14.97222,-14.46469zm-2.40541,24.14332l-3.64261,-3.52213l6.37355,-6.15749l-6.37355,-6.1575l3.64261,-3.51914l10.0172,9.67664l-10.0172,9.67962z" marker-mid="url(#se_marker_mid_svg_38)" id="svg_38"/>
  </a>
  <a stroke="null" xlink:href="https://www.youtube.com/watch?v=GTmWBDNHrWw&amp;index=9&amp;list=PLC6YZ5mMz0Sx5N9TPAGn_vnB0q7m_N9Ep" id="svg_73">
   <path stroke="#000000" fill="#ffffff" stroke-width="0" stroke-dasharray="null" stroke-linejoin="null" stroke-linecap="null" d="m404.02154,594.68172c-8.26903,0 -14.97223,6.47597 -14.97223,14.46469c0,7.98872 6.7032,14.46469 14.97223,14.46469c8.26903,0 14.97222,-6.47597 14.97222,-14.46469c0,-7.98872 -6.70319,-14.46469 -14.97222,-14.46469zm-2.40541,24.14332l-3.64261,-3.52213l6.37355,-6.15749l-6.37355,-6.1575l3.64261,-3.51914l10.0172,9.67664l-10.0172,9.67962z" marker-mid="url(#se_marker_mid_svg_37)" id="svg_37"/>
  </a>
  <a stroke="null" xlink:href="https://www.youtube.com/watch?v=HN1xFDrYvLw&amp;list=PLC6YZ5mMz0Sx5N9TPAGn_vnB0q7m_N9Ep&amp;index=10" id="svg_74">
   <path stroke="#000000" style="vector-effect: non-scaling-stroke;" fill="#ffffff" stroke-width="0" stroke-dasharray="null" stroke-linejoin="null" stroke-linecap="null" d="m564.52154,594.68173c-8.26903,0 -14.97222,6.47597 -14.97222,14.46469c0,7.98872 6.7032,14.46469 14.97222,14.46469c8.26903,0 14.97222,-6.47597 14.97222,-14.46469c0,-7.98872 -6.7032,-14.46469 -14.97222,-14.46469zm-2.4054,24.14331l-3.64262,-3.52212l6.37355,-6.1575l-6.37355,-6.1575l3.64262,-3.51914l10.01719,9.67663l-10.01719,9.67962l0,0.00001z" id="svg_36" marker-mid="url(#se_marker_mid_svg_36)"/>
  </a>
  <text stroke="#000000" xml:space="preserve" text-anchor="middle" font-family="serif" font-size="24" id="svg_83" y="542.0428" x="772.10043" stroke-linecap="null" stroke-linejoin="null" stroke-dasharray="null" stroke-width="0" fill="#3f3f3f"/>
  <g stroke="null" id="svg_180"/>
  <text stroke="#000000" fill="#00007f" stroke-width="0" stroke-dasharray="null" stroke-linejoin="null" stroke-linecap="null" x="-221.00498" y="18.22063" font-size="24" font-family="serif" text-anchor="middle" xml:space="preserve" font-weight="bold" transform="matrix(0.6397557603183213,0,0,0.9416302860153778,258.46513761520384,45.39329344563755) " id="svg_85">to Advanced Medicine</text>
  <text stroke="#000000" id="svg_34" transform="matrix(0.5893909177005434,0,0,0.9070476903348311,188.94622863859766,-79.2303619143125) " xml:space="preserve" text-anchor="middle" font-family="serif" font-size="24" y="398.77972" x="467.16943" stroke-linecap="null" stroke-linejoin="null" stroke-dasharray="null" stroke-width="0" fill="#3f3f3f">Antibiotics Targeting</text>
  <text stroke="#000000" id="svg_46" transform="matrix(0.5597082314881752,0,0,1.056735491754332,215.67724331172022,-143.22450175268887) " xml:space="preserve" text-anchor="middle" font-family="serif" font-size="24" y="408.37146" x="745.38548" stroke-linecap="null" stroke-linejoin="null" stroke-dasharray="null" stroke-width="0" fill="#3f3f3f">Resistance to Antibiotics</text>
  <text stroke="null" id="svg_48" font-style="italic" transform="matrix(0.6953218406497192,0,0,0.9265971944980945,193.8761673767682,13.161297818871313) " xml:space="preserve" text-anchor="middle" font-family="serif" font-size="24" y="52.3932" x="948.89268" opacity="0.8" stroke-linecap="null" stroke-linejoin="null" stroke-dasharray="null" stroke-width="0" fill="#00007f">Biography</text>
  <text stroke="#000000" id="svg_52" transform="matrix(0.6176832595705761,0,0,1.056735491754332,179.3955959461804,-143.22450175268887) " xml:space="preserve" text-anchor="middle" font-family="serif" font-size="24" y="420.20615" x="472.09639" stroke-linecap="null" stroke-linejoin="null" stroke-dasharray="null" stroke-width="0" fill="#3f3f3f">Ribosomes</text>
  <text stroke="#000000" id="svg_53" transform="matrix(0.5947079495404982,0,0,0.8031651009267158,231.67234865425132,65.91965920257047) " xml:space="preserve" text-anchor="middle" font-family="serif" font-size="24" y="536.98204" x="115.77587" stroke-linecap="null" stroke-linejoin="null" stroke-dasharray="null" stroke-width="0" fill="#3f3f3f">R-Proteins Copy Number</text>
  <text stroke="#000000" id="svg_19" transform="matrix(0.5496906349325514,0,0,0.9802540299093099,60.127528530221376,-72.53970184583375) " xml:space="preserve" text-anchor="middle" font-family="serif" font-size="24" y="207.63387" x="170.33317" opacity="0.8" stroke-linecap="null" stroke-linejoin="null" stroke-dasharray="null" stroke-width="0" fill="#3f3f3f">21 April 2015</text>
 </g>
</svg>