<svg width="904.9999999999999" height="640.0000000000001" xmlns="http://www.w3.org/2000/svg" xmlns:svg="http://www.w3.org/2000/svg" xmlns:xlink="http://www.w3.org/1999/xlink">
 <!-- Created with SVG-edit - http://svg-edit.googlecode.com/ -->
 <title>On the Social Dynamics of Philosophical Ideas: Dai Zhen&#x27;s Critique of Neo-Confucianism</title>
 <defs>
  <marker refY="50" refX="50" markerHeight="5" markerWidth="5" viewBox="0 0 100 100" orient="auto" markerUnits="strokeWidth" id="se_marker_mid_svg_38">
   <path stroke-width="10" fill="#000000" d="m283.85573,64.76907l-54.50378,38.51647l16.35113,-38.51647l-16.35113,-38.51647l54.50378,38.51647z" id="svg_3" stroke="#000000"/>
  </marker>
  <marker refY="50" refX="50" markerHeight="5" markerWidth="5" viewBox="0 0 100 100" orient="auto" markerUnits="strokeWidth" id="se_marker_mid_svg_41">
   <path stroke-width="10" fill="#000000" d="m100,50l-100,40l30,-40l-30,-40l100,40z" id="svg_4" stroke="#000000"/>
  </marker>
  <marker refY="50" refX="50" markerHeight="5" markerWidth="5" viewBox="0 0 100 100" orient="auto" markerUnits="strokeWidth" id="se_marker_mid_svg_44">
   <path stroke-width="10" fill="#000000" d="m100,50l-100,40l30,-40l-30,-40l100,40z" id="svg_6" stroke="#000000"/>
  </marker>
  <pattern id="gridpattern" patternUnits="userSpaceOnUse" x="0" y="0" width="100" height="100">
   <image id="svg_7" x="0" y="0" width="100" height="100"/>
  </pattern>
 </defs>
 <g display="none" stroke="null">
  <title>圖遮罩</title>
 </g>
 <g display="inline" stroke="null">
  <title>文字</title>
  <image x="716.33334" y="31.25677" width="165" height="546" xlink:href="https://c1.staticflickr.com/1/802/27432921778_063c1fc9c4_b.jpg" id="svg_48"/>
  <text font-weight="normal" id="svg_46" xml:space="preserve" text-anchor="middle" font-family="serif" font-size="24" y="588.66667" x="544.00781" stroke-linecap="null" stroke-linejoin="null" stroke-dasharray="null" stroke-width="0" fill="#3f007f" stroke="#000000">Taipei museum chief discusses</text>
  <a xlink:href="http://www.cityu.edu.hk/vprt/cityu-dls/lectures/news-20160425.htm" id="svg_79" stroke="null">
   <text font-weight="normal" xml:space="preserve" text-anchor="middle" font-family="serif" font-size="24" id="svg_78" y="616.33333" x="533" stroke-linecap="null" stroke-linejoin="null" stroke-dasharray="null" stroke-width="0" fill="#3f007f" stroke="#000000">Castiglione&#x27;s legacy</text>
  </a>
  <image xlink:href="https://c1.staticflickr.com/1/962/41058201224_e3a52e0f8b_o.png" id="svg_76" height="192.53609" width="203.00001" y="310.92783" x="17"/>
  <image xlink:href="https://newscentre.cityu.edu.hk/sites/g/files/asqsls2011/files/news/content/160429_Fung-2.jpg" id="svg_85" height="136.66153" width="188.99999" y="426" x="506"/>
 </g>
 <g display="inline" stroke="null">
  <title>色塊</title>
  <rect id="svg_5" fill="#ff7f00" stroke-width="0" x="381.55557" y="16.85186" width="160" height="200.99998" opacity="0.3" stroke="#000000"/>
  <rect id="svg_10" fill="#ff7f00" stroke-width="0" x="219.66668" y="17.85187" width="160" height="201" opacity="0.3" stroke="#000000"/>
  <rect id="svg_11" fill="#ff7f00" stroke-width="0" x="545.11112" y="16.85188" width="160" height="200.99998" opacity="0.3" stroke="#000000"/>
  <rect id="svg_12" fill="#ff7f00" stroke-width="0" x="381.55556" y="220.40743" width="160" height="200.99998" opacity="0.3" stroke="#000000"/>
  <rect id="svg_13" fill="#ff7f00" stroke-width="0" x="219.66668" y="221.40742" width="160" height="201.00001" opacity="0.3" stroke="#000000"/>
  <rect id="svg_14" fill="#ff7f00" stroke-width="0" x="545.11112" y="220.40744" width="160" height="200.99998" opacity="0.3" stroke="#000000"/>
  <rect id="svg_15" fill="#ff7f00" stroke-width="0" x="381.55556" y="423.96296" width="322.66673" height="204" opacity="0.3" stroke="#000000"/>
  <rect id="svg_16" fill="#ff7f00" stroke-width="0" x="219.66667" y="424.96297" width="160" height="203.99999" opacity="0.3" stroke="#000000"/>
  <rect stroke="#000000" fill="#ff7f00" stroke-width="0" x="4.94447" y="14.51849" width="211.11108" height="611.11114" opacity="0.3" id="svg_8"/>
  <rect fill="#ff7f00" stroke-width="0" x="710.05555" y="15.8519" width="177.77774" height="612.11106" opacity="0.3" id="svg_9" stroke="#000000"/>
  <rect fill="#ffffaa" stroke-width="5" stroke-dasharray="null" stroke-linejoin="null" stroke-linecap="null" x="752.0289" y="34.85" width="138" height="33.66667" id="svg_22" stroke="null"/>
 </g>
 <g display="inline" stroke="null">
  <title>圖片</title>
  <image xlink:href="https://c1.staticflickr.com/1/797/41262627782_afe33d38d5_o.png" id="svg_17" height="101" width="84" y="154.66667" x="79.33333"/>
  <image id="svg_49" xlink:href="https://farm5.staticflickr.com/4194/34565972352_8e6b83f35a_b.jpg" height="100" width="150" y="522.6111" x="40.83334"/>
  <image id="svg_50" xlink:href="https://farm5.staticflickr.com/4175/34565972092_646a0df922_b.jpg" height="100" width="150" y="117.38888" x="387.16668"/>
  <image id="svg_56" xlink:href="https://farm5.staticflickr.com/4161/34565972002_cdb2bf5be2_b.jpg" height="100" width="150" y="115.3889" x="552.16667"/>
  <image id="svg_51" xlink:href="https://farm5.staticflickr.com/4172/34727665505_e19574e006_b.jpg" height="100" width="150" y="319.66668" x="223.33332"/>
  <image id="svg_54" xlink:href="https://farm5.staticflickr.com/4185/34343426540_b8663523c7_b.jpg" height="100" width="150" y="318.33331" x="386.66665"/>
  <image id="svg_60" xlink:href="https://farm5.staticflickr.com/4189/34596691551_df113dddb0_b.jpg" height="100" width="150" y="318.33334" x="550.66665"/>
  <image id="svg_74" xlink:href="https://farm5.staticflickr.com/4187/34727664865_456f2258a6_b.jpg" height="100" width="150" y="520.61487" x="223.7222"/>
  <image id="svg_36" xlink:href="https://farm5.staticflickr.com/4161/34565972602_58f6450f8f_b.jpg" height="100" width="150" y="119.38512" x="221.27777"/>
 </g>
 <g display="inline" stroke="null">
  <title>標題</title>
  <text transform="matrix(0.6441536150680193,0,0,1.1373469595363543,255.73027410923552,30.116768695324545) " font-weight="normal" xml:space="preserve" text-anchor="middle" font-family="serif" font-size="24" id="svg_45" y="9.80963" x="-221.84058" stroke-linecap="null" stroke-linejoin="null" stroke-dasharray="null" stroke-width="0" fill="#7f003f" stroke="null">Portrayals from a Brush Divine:</text>
  <text font-weight="normal" fill="#7f003f" stroke-width="0" stroke-dasharray="null" stroke-linejoin="null" stroke-linecap="null" opacity="0.8" x="43.14643" y="222.4295" id="svg_31" font-size="24" font-family="serif" text-anchor="middle" xml:space="preserve" transform="matrix(0.6586701731049974,0,0,1.0396909219498172,92.96068496801315,45.835161422271256) " stroke="#000000">Ms Fung Ming-chu</text>
  <text transform="matrix(0.8527680531146443,0,0,1.1128672614469923,232.57739079867827,214.09945479415694) " xml:space="preserve" text-anchor="middle" font-family="serif" font-size="24" y="-148.55227" x="78.72869" stroke-linecap="null" stroke-linejoin="null" stroke-dasharray="null" stroke-width="0" fill="#ff7f00" id="svg_61" stroke="#000000">Part 1.</text>
  <text font-weight="normal" fill="#3f007f" stroke-width="0" stroke-dasharray="null" stroke-linejoin="null" stroke-linecap="null" x="118.08327" y="-76.31271" id="svg_69" font-size="24" font-family="serif" text-anchor="middle" xml:space="preserve" transform="matrix(0.8628708189739606,0,0,1.0307987882627094,194.35790324235484,174.31918277921133) " stroke="#000000">Introduction</text>
  <text font-weight="normal" fill="#3f007f" stroke-width="0" stroke-dasharray="null" stroke-linejoin="null" stroke-linecap="null" x="174.64368" y="406.74082" font-size="24" font-family="serif" text-anchor="middle" xml:space="preserve" transform="matrix(0.9479940340810125,0,0,1.0650064455709853,136.06782151740538,-152.91842926613194) " id="svg_80" stroke="#000000">Castiglione’s</text>
  <a id="svg_26" xlink:href="https://youtu.be/4lbOUO1mItI" stroke="null">
   <path id="svg_44" marker-mid="url(#se_marker_mid_svg_44)" d="m356.27154,188.68171c-8.26903,0 -14.97223,6.47597 -14.97223,14.46469c0,7.98872 6.7032,14.46469 14.97223,14.46469c8.26903,0 14.97222,-6.47597 14.97222,-14.46469c0,-7.98872 -6.70319,-14.46469 -14.97222,-14.46469zm-2.40541,24.14332l-3.64261,-3.52213l6.37355,-6.15749l-6.37355,-6.1575l3.64261,-3.51914l10.0172,9.67664l-10.0172,9.67962z" stroke-linecap="null" stroke-linejoin="null" stroke-dasharray="null" stroke-width="0" fill="#ff7f00" stroke="#000000"/>
  </a>
  <a id="svg_57" xlink:href="https://www.youtube.com/watch?v=F7tYxge0V0U&amp;t=0s&amp;list=PLC6YZ5mMz0SySjXaw35Hr4cLKWRDXn-Z_&amp;index=5" stroke="null">
   <path id="svg_43" marker-mid="url(#se_marker_mid_svg_44)" d="m521.77154,187.68171c-8.26903,0 -14.97223,6.47597 -14.97223,14.46469c0,7.98872 6.7032,14.46469 14.97223,14.46469c8.26903,0 14.97222,-6.47597 14.97222,-14.46469c0,-7.98872 -6.70319,-14.46469 -14.97222,-14.46469zm-2.40541,24.14332l-3.64261,-3.52213l6.37355,-6.15749l-6.37355,-6.1575l3.64261,-3.51914l10.0172,9.67664l-10.0172,9.67962z" stroke-linecap="null" stroke-linejoin="null" stroke-dasharray="null" stroke-width="0" fill="#ff7f00" stroke="#000000"/>
  </a>
  <a id="svg_58" xlink:href="https://www.youtube.com/watch?v=-A1lmEwBsBE&amp;t=0s&amp;list=PLC6YZ5mMz0SySjXaw35Hr4cLKWRDXn-Z_&amp;index=2" stroke="null">
   <path id="svg_42" marker-mid="url(#se_marker_mid_svg_44)" d="m686.27154,185.68172c-8.26903,0 -14.97223,6.47597 -14.97223,14.46469c0,7.98872 6.7032,14.46469 14.97223,14.46469c8.26903,0 14.97222,-6.47597 14.97222,-14.46469c0,-7.98872 -6.70319,-14.46469 -14.97222,-14.46469zm-2.40541,24.14331l-3.64261,-3.52212l6.37355,-6.1575l-6.37355,-6.15749l3.64261,-3.51914l10.0172,9.67663l-10.0172,9.67962z" stroke-linecap="null" stroke-linejoin="null" stroke-dasharray="null" stroke-width="0" fill="#ff7f00" stroke="#000000"/>
  </a>
  <a id="svg_59" xlink:href="https://www.youtube.com/watch?v=ch3gB56mJ3M&amp;t=0s&amp;list=PLC6YZ5mMz0SySjXaw35Hr4cLKWRDXn-Z_&amp;index=1" stroke="null">
   <path id="svg_41" marker-mid="url(#se_marker_mid_svg_41)" d="m357.27154,390.43171c-8.26903,0 -14.97223,6.47597 -14.97223,14.46469c0,7.98872 6.7032,14.46469 14.97223,14.46469c8.26903,0 14.97222,-6.47597 14.97222,-14.46469c0,-7.98872 -6.70319,-14.46469 -14.97222,-14.46469zm-2.40541,24.14332l-3.64261,-3.52213l6.37355,-6.15749l-6.37355,-6.1575l3.64261,-3.51914l10.0172,9.67664l-10.0172,9.67962z" stroke-linecap="null" stroke-linejoin="null" stroke-dasharray="null" stroke-width="0" fill="#ff7f00" stroke="#000000"/>
  </a>
  <a id="svg_70" xlink:href="https://www.youtube.com/watch?v=Ri8o1mu8IWk&amp;t=0s&amp;list=PLC6YZ5mMz0SySjXaw35Hr4cLKWRDXn-Z_&amp;index=7" stroke="null">
   <path id="svg_40" marker-mid="url(#se_marker_mid_svg_41)" d="m519.77154,386.43171c-8.26903,0 -14.97223,6.47597 -14.97223,14.46469c0,7.98872 6.7032,14.46469 14.97223,14.46469c8.26903,0 14.97222,-6.47597 14.97222,-14.46469c0,-7.98872 -6.70319,-14.46469 -14.97222,-14.46469zm-2.40541,24.14332c-1.2142,-1.17404 -2.42841,-2.34809 -3.64261,-3.52213l6.37355,-6.15749l-6.37355,-6.1575l3.64261,-3.51914l10.0172,9.67664l-10.0172,9.67962z" stroke-linecap="null" stroke-linejoin="null" stroke-dasharray="null" stroke-width="0" fill="#ff7f00" stroke="#000000"/>
  </a>
  <a id="svg_71" xlink:href="https://www.youtube.com/watch?v=Zsr2QlRuJMw&amp;t=0s&amp;list=PLC6YZ5mMz0SySjXaw35Hr4cLKWRDXn-Z_&amp;index=4" stroke="null">
   <path id="svg_39" marker-mid="url(#se_marker_mid_svg_41)" d="m686.27154,389.43172c-8.26903,0 -14.97223,6.47597 -14.97223,14.46469c0,7.98872 6.7032,14.46469 14.97223,14.46469c8.26903,0 14.97222,-6.47597 14.97222,-14.46469c0,-7.98872 -6.70319,-14.46469 -14.97222,-14.46469zm-2.40541,24.14331l-3.64261,-3.52212l6.37355,-6.1575l-6.37355,-6.15749l3.64261,-3.51914l10.0172,9.67663l-10.0172,9.67962z" stroke-linecap="null" stroke-linejoin="null" stroke-dasharray="null" stroke-width="0" fill="#ff7f00" stroke="#000000"/>
  </a>
  <a id="svg_72" xlink:href="https://www.youtube.com/watch?v=VJto67D8Edo" stroke="null">
   <path id="svg_38" marker-mid="url(#se_marker_mid_svg_38)" d="m361.27154,593.68172c-8.26903,0 -14.97223,6.47597 -14.97223,14.46469c0,7.98872 6.7032,14.46469 14.97223,14.46469c8.26903,0 14.97222,-6.47597 14.97222,-14.46469c0,-7.98872 -6.70319,-14.46469 -14.97222,-14.46469zm-2.40541,24.14332l-3.64261,-3.52213l6.37355,-6.15749l-6.37355,-6.1575l3.64261,-3.51914l10.0172,9.67664l-10.0172,9.67962z" stroke-linecap="null" stroke-linejoin="null" stroke-dasharray="null" stroke-width="0" fill="#ff7f00" stroke="#000000"/>
  </a>
  <text fill="#3f3f3f" stroke-width="0" stroke-dasharray="null" stroke-linejoin="null" stroke-linecap="null" x="772.10043" y="542.0428" id="svg_83" font-size="24" font-family="serif" text-anchor="middle" xml:space="preserve" stroke="#000000"/>
  <g id="svg_180" stroke="null"/>
  <text font-weight="normal" fill="#3f007f" stroke-width="0" stroke-dasharray="null" stroke-linejoin="null" stroke-linecap="null" x="722.70105" y="315.54597" font-size="24" font-family="serif" text-anchor="middle" xml:space="preserve" transform="matrix(0.7700481327359312,0,0,1.021118799322996,73.45628267324108,-227.0981877046225) " id="svg_53" stroke="#000000">The Court painter</text>
  <text font-weight="normal" fill="#3f007f" stroke-width="0" stroke-dasharray="null" stroke-linejoin="null" stroke-linecap="null" x="475.22795" y="444.80655" font-size="24" font-family="serif" text-anchor="middle" xml:space="preserve" transform="matrix(0.901277507052195,0,0,1.1333845855555131,35.78945576067346,-202.53092437428404) " id="svg_84" stroke="#000000">Animal Sketch</text>
  <text font-weight="normal" fill="#3f007f" stroke-width="0" stroke-dasharray="null" stroke-linejoin="null" stroke-linecap="null" x="737.06859" y="427.35436" font-size="24" font-family="serif" text-anchor="middle" xml:space="preserve" transform="matrix(0.8277384041312545,0,0,1.0045870938466879,13.539966906395268,-125.03900771220555) " id="svg_86" stroke="#000000">Portraits of Royalty</text>
  <text id="svg_27" fill="#7f003f" stroke-width="0" stroke-dasharray="null" stroke-linejoin="null" stroke-linecap="null" opacity="0.8" x="873.42024" y="89.07273" font-size="24" font-family="serif" text-anchor="middle" xml:space="preserve" font-style="italic" transform="matrix(0.7280527701259416,0,0,0.8188012338468919,170.34399353135802,-17.237344596451262) " stroke="null">Speaker’s Biography</text>
  <text font-weight="normal" id="svg_25" font-style="normal" fill="#7f003f" stroke-width="0" stroke-dasharray="null" stroke-linejoin="null" stroke-linecap="null" opacity="0.8" x="121.10584" y="305.32271" font-size="24" font-family="serif" text-anchor="middle" xml:space="preserve" stroke="null">25 April 2016</text>
  <text id="svg_20" transform="matrix(0.7437538553816585,0,0,1.0543954280062102,281.4005001637274,16.793296783673284) " font-weight="normal" xml:space="preserve" text-anchor="middle" font-family="serif" font-size="24" y="51.53646" x="-224.87391" stroke-linecap="null" stroke-linejoin="null" stroke-dasharray="null" stroke-width="0" fill="#7f003f" stroke="null">Giuseppe Castiglione’s</text>
  <text stroke="#000000" font-weight="normal" fill="#3f007f" stroke-width="0" stroke-dasharray="null" stroke-linejoin="null" stroke-linecap="null" x="296.33333" y="497.33333" id="svg_18" font-size="24" font-family="serif" text-anchor="middle" xml:space="preserve">Conclusions</text>
  <text xml:space="preserve" text-anchor="middle" font-family="serif" font-size="24" y="469.23541" x="442.43262" stroke-linecap="null" stroke-linejoin="null" stroke-dasharray="null" stroke-width="0" fill="#ff7f00" id="svg_19" font-weight="bold" stroke="#000000">News</text>
  <text font-weight="normal" transform="matrix(0.7736886874417024,0,0,0.9267155919936165,-144.93760319036164,-31.325536239895868) " xml:space="preserve" text-anchor="middle" font-family="serif" font-size="24" id="svg_1" y="143.06455" x="332.18055" stroke-width="0" fill="#7f003f" stroke="null">Achievements, Art and</text>
  <text stroke="#000000" transform="matrix(0.8554216623306274,0,0,0.8554216623306274,6.422440843656659,15.363707413896918) " font-weight="normal" xml:space="preserve" text-anchor="middle" font-family="serif" font-size="24" id="svg_23" y="127.27003" x="117.45297" stroke-linecap="null" stroke-linejoin="null" stroke-dasharray="null" stroke-width="0" fill="#7f003f">Influence over</text>
  <text font-weight="normal" transform="matrix(0.9376798007680996,0,0,1.0224607137693202,16.187732184089185,-3.513221295068595) " xml:space="preserve" text-anchor="middle" font-family="serif" font-size="24" id="svg_24" y="116.12717" x="474.39949" stroke-linecap="null" stroke-linejoin="null" stroke-dasharray="null" stroke-width="0" fill="#3f007f" stroke="#000000">Castiglione?</text>
  <text font-weight="normal" xml:space="preserve" text-anchor="middle" font-family="serif" font-size="24" id="svg_28" y="307.11845" x="304.18446" stroke-linecap="null" stroke-linejoin="null" stroke-dasharray="null" stroke-width="0" fill="#3f007f" stroke="#000000">painting story</text>
  <text fill="#3f007f" stroke-width="0" stroke-dasharray="null" stroke-linejoin="null" stroke-linecap="null" x="405" y="75" id="svg_2" font-size="24" font-family="serif" text-anchor="middle" xml:space="preserve" transform="matrix(1.975069284439087,0,0,1,-400.70776953175664,0) " stroke="#000000"/>
  <text font-weight="normal" fill="#3f007f" stroke-width="0" stroke-dasharray="null" stroke-linejoin="null" stroke-linecap="null" x="495.71309" y="91.49321" id="svg_29" font-size="24" font-family="serif" text-anchor="middle" xml:space="preserve" transform="matrix(0.906176602861835,0,0,0.9193378191839526,13.827481605105696,3.075801322808897) " stroke="#000000">Who is Giuseppe</text>
  <text font-weight="normal" id="svg_37" fill="#3f007f" stroke-width="0" stroke-dasharray="null" stroke-linejoin="null" stroke-linecap="null" x="115.8889" y="518.10358" font-size="24" font-family="serif" text-anchor="middle" xml:space="preserve" stroke="#000000">Welcoming</text>
  <a xlink:href="https://youtu.be/FMUVVpGZCKc" id="svg_77">
   <path id="svg_35" marker-mid="url(#se_marker_mid_svg_38)" d="m175.82711,592.45197c-8.26903,0 -14.97223,6.47597 -14.97223,14.46469c0,7.98872 6.7032,14.46469 14.97223,14.46469c8.26903,0 14.97222,-6.47597 14.97222,-14.46469c0,-7.98872 -6.70319,-14.46469 -14.97222,-14.46469zm-2.40541,24.14332l-3.64261,-3.52213l6.37355,-6.15749l-6.37355,-6.1575l3.64261,-3.51914l10.0172,9.67664l-10.0172,9.67962z" stroke-linecap="null" stroke-linejoin="null" stroke-dasharray="null" stroke-width="0" fill="#ff7f00" stroke="#000000"/>
  </a>
  <text stroke="#000000" transform="matrix(0.8456798195838928,0,0,0.8456798195838928,8.69738891813904,20.061623454093933) " id="svg_33" font-weight="normal" xml:space="preserve" text-anchor="middle" font-family="serif" font-size="24" y="151.00441" x="110.86314" stroke-linecap="null" stroke-linejoin="null" stroke-dasharray="null" stroke-width="0" fill="#7f003f">Chinese Art</text>
  <text id="svg_47" transform="matrix(0.8527680531146443,0,0,1.1128672614469923,232.57739079867827,214.09945479415694) " xml:space="preserve" text-anchor="middle" font-family="serif" font-size="24" y="-151.97221" x="263.07651" stroke-linecap="null" stroke-linejoin="null" stroke-dasharray="null" stroke-width="0" fill="#ff7f00" stroke="#000000">Part 2.</text>
  <text id="svg_52" transform="matrix(0.8527680531146443,0,0,1.1128672614469923,232.57739079867827,214.09945479415694) " xml:space="preserve" text-anchor="middle" font-family="serif" font-size="24" y="-149.57351" x="463.19845" stroke-linecap="null" stroke-linejoin="null" stroke-dasharray="null" stroke-width="0" fill="#ff7f00" stroke="#000000">Part 3.</text>
  <text id="svg_55" transform="matrix(0.8527680531146443,0,0,1.1128672614469923,232.57739079867827,214.09945479415694) " xml:space="preserve" text-anchor="middle" font-family="serif" font-size="24" y="31.85144" x="78.65293" stroke-linecap="null" stroke-linejoin="null" stroke-dasharray="null" stroke-width="0" fill="#ff7f00" stroke="#000000">Part 4.</text>
  <text style="cursor: move;" id="svg_62" transform="matrix(0.8527680531146443,0,0,1.1128672614469923,232.57739079867827,214.09945479415694) " xml:space="preserve" text-anchor="middle" font-family="serif" font-size="24" y="30.82771" x="273.94549" stroke-linecap="null" stroke-linejoin="null" stroke-dasharray="null" stroke-width="0" fill="#ff7f00" stroke="#000000">Part 5.</text>
  <text style="cursor: move;" id="svg_63" transform="matrix(0.8527680531146443,0,0,1.1128672614469923,232.57739079867827,214.09945479415694) " xml:space="preserve" text-anchor="middle" font-family="serif" font-size="24" y="33.22641" x="474.06744" stroke-linecap="null" stroke-linejoin="null" stroke-dasharray="null" stroke-width="0" fill="#ff7f00" stroke="#000000">Part 6.</text>
  <text style="cursor: move;" id="svg_64" transform="matrix(0.8527680531146443,0,0,1.1128672614469923,232.57739079867827,214.09945479415694) " xml:space="preserve" text-anchor="middle" font-family="serif" font-size="24" y="217.05818" x="84.82111" stroke-linecap="null" stroke-linejoin="null" stroke-dasharray="null" stroke-width="0" fill="#ff7f00" stroke="#000000">Part 7.</text>
 </g>
</svg>