<svg width="904.9999999999999" height="640.0000000000002" xmlns="http://www.w3.org/2000/svg" xmlns:svg="http://www.w3.org/2000/svg" xmlns:xlink="http://www.w3.org/1999/xlink">
 <!-- Created with SVG-edit - http://svg-edit.googlecode.com/ -->
 <title>To Cultivate Chinese Legal Talents with International Outlook by Drawing on the Experience of Hong Kong System</title>
 <defs>
  <marker id="se_marker_mid_svg_36" markerUnits="strokeWidth" orient="auto" viewBox="0 0 100 100" markerWidth="5" markerHeight="5" refX="50" refY="50">
   <path id="svg_1" d="m100,50l-100,40l30,-40l-30,-40l100,40z" fill="#000000" stroke-width="10" stroke="#000000"/>
  </marker>
  <marker id="se_marker_mid_svg_38" markerUnits="strokeWidth" orient="auto" viewBox="0 0 100 100" markerWidth="5" markerHeight="5" refX="50" refY="50">
   <path id="svg_3" d="m100,50l-100,40l30,-40l-30,-40l100,40z" fill="#000000" stroke-width="10" stroke="#000000"/>
  </marker>
  <marker id="se_marker_mid_svg_41" markerUnits="strokeWidth" orient="auto" viewBox="0 0 100 100" markerWidth="5" markerHeight="5" refX="50" refY="50">
   <path id="svg_4" d="m100,50l-100,40l30,-40l-30,-40l100,40z" fill="#000000" stroke-width="10" stroke="#000000"/>
  </marker>
  <marker id="se_marker_mid_svg_44" markerUnits="strokeWidth" orient="auto" viewBox="0 0 100 100" markerWidth="5" markerHeight="5" refX="50" refY="50">
   <path id="svg_6" d="m100,50l-100,40l30,-40l-30,-40l100,40z" fill="#000000" stroke-width="10" stroke="#000000"/>
  </marker>
  <pattern height="100" width="100" y="0" x="0" patternUnits="userSpaceOnUse" id="gridpattern">
   <image height="100" width="100" y="0" x="0" id="svg_7"/>
  </pattern>
 </defs>
 <g display="inline" stroke="null">
  <title>圖遮罩</title>
 </g>
 <g display="inline" stroke="null">
  <title>文字</title>
  <image x="2.25" y="16" width="214.66667" height="141.50391" id="svg_21" xlink:href="https://farm5.staticflickr.com/4382/37146962380_1afd7cb0e2_b.jpg"/>
  <image x="2" y="156" width="212.55555" height="314.16986" id="svg_32" xlink:href="https://farm5.staticflickr.com/4509/36734411083_9c28a30d25_z.jpg"/>
  <image x="707.20833" y="60.37496" width="196.27299" height="245.85143" id="svg_48" xlink:href="https://farm5.staticflickr.com/4436/37147443040_d96a852f18_k.jpg"/>
  <image x="701.83332" y="373.41666" width="200.81585" height="196.69756" id="svg_93" xlink:href="https://farm5.staticflickr.com/4478/37374406512_76094fa0df_b.jpg"/>
 </g>
 <g display="inline" stroke="null">
  <title>色塊</title>
  <rect opacity="0.3" height="200.99998" width="160" y="15.85186" x="383.55557" stroke-width="0" fill="#d4aaff" id="svg_5" stroke="#000000"/>
  <rect opacity="0.3" height="201" width="160" y="16.85187" x="219.00001" stroke-width="0" fill="#d4aaff" id="svg_10" stroke="#000000"/>
  <rect opacity="0.3" height="200.99998" width="160" y="15.85188" x="547.11112" stroke-width="0" fill="#d4aaff" id="svg_11" stroke="#000000"/>
  <rect opacity="0.3" height="200.99998" width="160" y="219.40743" x="383.55556" stroke-width="0" fill="#d4aaff" id="svg_12" stroke="#000000"/>
  <rect opacity="0.3" height="201.00001" width="160" y="220.40742" x="219.00001" stroke-width="0" fill="#d4aaff" id="svg_13" stroke="#000000"/>
  <rect opacity="0.3" height="200.99998" width="160" y="219.40744" x="547.11112" stroke-width="0" fill="#d4aaff" id="svg_14" stroke="#000000"/>
  <rect opacity="0.3" height="204" width="322.6667" y="422.96296" x="383.55555" stroke-width="0" fill="#d4aaff" id="svg_15" stroke="#000000"/>
  <rect opacity="0.3" height="203.99999" width="160" y="423.96297" x="219" stroke-width="0" fill="#d4aaff" id="svg_16" stroke="#000000"/>
  <rect id="svg_22" height="33.66667" width="148" y="18.18333" x="742.0289" stroke-linecap="null" stroke-linejoin="null" stroke-dasharray="null" stroke-width="5" fill="#d4aaff" opacity="0.3"/>
  <rect id="svg_24" height="27.88889" width="132" y="473.65556" x="10.14392" stroke-linecap="null" stroke-linejoin="null" stroke-dasharray="null" stroke-width="5" fill="#d4aaff" opacity="0.35" stroke="null"/>
  <rect id="svg_29" height="34.625" width="144.08594" y="335.43334" x="745.75935" stroke-linecap="null" stroke-linejoin="null" stroke-dasharray="null" stroke-width="5" fill="#d4aaff" opacity="0.3" stroke="null"/>
 </g>
 <g display="inline" stroke="null">
  <title>圖片</title>
  <image x="24.99995" y="512.00003" width="167.97531" height="105.02295" id="svg_25" xlink:href="https://farm5.staticflickr.com/4498/37373344532_efacf7a506_b.jpg"/>
  <image x="548.9167" y="322.41668" width="154.37037" height="86.83333" id="svg_49" xlink:href="https://farm5.staticflickr.com/4514/37373345792_83240554b9_h.jpg"/>
  <image stroke="null" x="384.31479" y="318.62158" width="160" height="96.99999" id="svg_50" xlink:href="https://farm5.staticflickr.com/4460/37373341312_d08f88a1bf_h.jpg"/>
  <image stroke="null" x="211.00001" y="323" width="167.99999" height="93" id="svg_51" xlink:href="https://farm5.staticflickr.com/4435/36734067853_bab3a8eeda_b.jpg"/>
  <image stroke="null" x="549.00001" y="118" width="157.99999" height="90" id="svg_54" xlink:href="https://farm5.staticflickr.com/4497/37373342152_70bb5ef905_h.jpg"/>
  <image stroke="null" x="386" y="119" width="156" height="89" id="svg_76" xlink:href="https://farm5.staticflickr.com/4409/37373343062_8a5b7dbf8a_h.jpg"/>
  <image stroke="null" x="220" y="119" width="158" height="89" id="svg_78" xlink:href="https://farm5.staticflickr.com/4427/37373343702_8b674c00f4_h.jpg"/>
  <image stroke="null" x="210.99999" y="522" width="174.00001" height="106" id="svg_84" xlink:href="https://farm5.staticflickr.com/4460/37373345062_7e1c87d513_b.jpg"/>
  <image x="423" y="477.01299" width="264.99999" height="147.98701" id="svg_86" xlink:href="https://farm5.staticflickr.com/4441/37373344142_24c2874f12_b.jpg"/>
 </g>
 <g display="inline" stroke="null">
  <title>標題</title>
  <text font-style="italic" transform="matrix(0.7318341264738641,0,0,0.8298217934092518,123.52719711152255,17.187728054841607) " xml:space="preserve" text-anchor="middle" font-family="serif" font-size="24" id="svg_27" y="28.34972" x="941.46294" opacity="0.8" stroke-linecap="null" stroke-linejoin="null" stroke-dasharray="null" stroke-width="0" fill="#3e7c00" font-weight="bold" stroke="null">Speaker&#x27;s Biography</text>
  <text font-style="italic" transform="translate(889.87255859375,504.8636779785156) scale(1) translate(-889.87255859375,-504.8636779785156) translate(889.914306640625,505.77667236328125) scale(1.0139044523239136,1.3043327331542969) translate(-889.914306640625,-505.77667236328125) translate(888.4232177734375,504.6651611328125) scale(1) translate(-888.4232177734375,-504.6651611328125) translate(888.3218994140625,504.255126953125) scale(0.9399330019950867,0.7570223808288574) translate(-888.3218994140625,-504.255126953125) translate(888.0772705078125,504.109619140625) scale(0.8550723195075989,0.9137715697288513) translate(-888.0772705078125,-504.109619140625) matrix(1.0937924253894378,0,0,1.0937924253894378,71.03591400341189,-39.500754610857044) " xml:space="preserve" text-anchor="middle" font-family="serif" font-size="24" id="svg_28" y="349.64202" x="635.73483" opacity="0.8" stroke-linecap="null" stroke-linejoin="null" stroke-dasharray="null" stroke-width="0" fill="#3e7c00" font-weight="bold" stroke="null">Further Reading</text>
  <text xml:space="preserve" text-anchor="middle" font-family="serif" font-size="24" id="svg_30" y="491.70536" x="70.01263" opacity="0.8" stroke-linecap="null" stroke-linejoin="null" stroke-dasharray="null" stroke-width="0" fill="#3e7c00" font-style="italic" transform="matrix(0.9729768037796019,0,0,0.8484848737716675,1.7300485353916883,77.4242295026779) " font-weight="bold" stroke="null">Welcoming</text>
  <text id="svg_61" fill="#ff5656" stroke-width="0" stroke-dasharray="null" stroke-linejoin="null" stroke-linecap="null" x="31.01692" y="-151.95142" font-size="24" font-family="serif" text-anchor="middle" xml:space="preserve" transform="matrix(0.7581989937081759,0,0,0.8870049875256807,235.4141487398009,184.81012519434466) " stroke="#000000">Part 1-</text>
  <text id="svg_62" fill="#ff5656" stroke-width="0" stroke-dasharray="null" stroke-linejoin="null" stroke-linecap="null" x="272.44048" y="-136.48341" font-size="24" font-family="serif" text-anchor="middle" xml:space="preserve" transform="matrix(0.7588977016104476,0,0,0.8728834871766871,214.92270904832728,169.48936885325355) " stroke="#000000">Part 2-</text>
  <text id="svg_63" fill="#ff5656" stroke-width="0" stroke-dasharray="null" stroke-linejoin="null" stroke-linecap="null" x="533.20155" y="-149.90876" font-size="24" font-family="serif" text-anchor="middle" xml:space="preserve" transform="matrix(0.7911776699183033,0,0,0.8060429586080278,171.8308944190253,171.18784587684883) " stroke="#000000">Part 3-</text>
  <text id="svg_64" fill="#ff5656" stroke-width="0" stroke-dasharray="null" stroke-linejoin="null" stroke-linecap="null" x="275.75811" y="254.45212" font-size="24" font-family="serif" text-anchor="middle" xml:space="preserve" transform="matrix(0.7144085289539867,0,0,0.8869250085033468,65.17842322828335,34.629323617738514) " stroke="#000000">Part 4-</text>
  <text id="svg_65" fill="#ff5656" stroke-width="0" stroke-dasharray="null" stroke-linejoin="null" stroke-linecap="null" x="431.45031" y="266.26712" font-size="24" font-family="serif" text-anchor="middle" xml:space="preserve" transform="matrix(0.6884018100531012,0,0,0.8597861578116944,128.18126657082905,30.52767052307997) " stroke="#000000">Part 5-</text>
  <text id="svg_66" fill="#ff5656" stroke-width="0" stroke-dasharray="null" stroke-linejoin="null" stroke-linecap="null" x="601.88899" y="266.29471" font-size="24" font-family="serif" text-anchor="middle" xml:space="preserve" transform="matrix(0.7984173513276712,0,0,0.8243739753403275,113.22530107152708,39.58811349208145) " stroke="#000000">Part 6-</text>
  <text id="svg_67" fill="#ff5656" stroke-width="0" stroke-dasharray="null" stroke-linejoin="null" stroke-linecap="null" x="265.37405" y="468.39166" font-size="24" font-family="serif" text-anchor="middle" xml:space="preserve" transform="matrix(0.754806290243593,0,0,0.7611431218617993,62.331269685110605,107.18442284235617) " stroke="#000000">Part 7-</text>
  <text id="svg_68" fill="#ff5656" stroke-width="0" stroke-dasharray="null" stroke-linejoin="null" stroke-linecap="null" x="472.2867" y="465.65775" font-size="24" font-family="serif" text-anchor="middle" xml:space="preserve" transform="matrix(0.742517012507673,0,0,0.7959295536037057,79.76763283567155,92.45368181211592) " stroke="#000000">Part 8-</text>
  <text transform="matrix(0.5776145224204686,0,0,0.9233573137232696,224.9619258197305,165.0275302590034) " xml:space="preserve" text-anchor="middle" font-family="serif" font-size="24" id="svg_69" y="-100.0233" x="119.61744" stroke-linecap="null" stroke-linejoin="null" stroke-dasharray="null" stroke-width="0" fill="#3f7f00" stroke="#000000">An Example from</text>
  <text id="svg_77" transform="matrix(0.6782669066350943,0,0,0.8520241623955609,232.66981341215046,30.22922016181454) " xml:space="preserve" text-anchor="middle" font-family="serif" font-size="24" y="539.08405" x="47.24294" stroke-linecap="null" stroke-linejoin="null" stroke-dasharray="null" stroke-width="0" fill="#3f7f00" stroke="#000000">Summary of</text>
  <text font-weight="normal" id="svg_80" transform="matrix(0.6799802156660644,0,0,0.990902867734559,173.8408464128874,-114.41396575771583) " xml:space="preserve" text-anchor="middle" font-family="serif" font-size="24" y="417.03822" x="182.65513" stroke-linecap="null" stroke-linejoin="null" stroke-dasharray="null" stroke-width="0" fill="#3f7f00" stroke="#000000">Revolutionary Justice</text>
  <text id="svg_82" transform="matrix(0.6421450385179442,0,0,0.8877101719734659,150.23250569400471,-184.99220531640964) " xml:space="preserve" text-anchor="middle" font-family="serif" font-size="24" y="290.91999" x="740.18463" stroke-linecap="null" stroke-linejoin="null" stroke-dasharray="null" stroke-width="0" fill="#3f7f00" stroke="#000000">Normatively Problematic</text>
  <text id="svg_87" transform="matrix(0.6353489473228784,0,0,1.1852236168998984,256.4368190369196,177.57772815645387) " xml:space="preserve" text-anchor="middle" font-family="serif" font-size="24" y="-71.80288" x="326.01052" stroke-linecap="null" stroke-linejoin="null" stroke-dasharray="null" stroke-width="0" fill="#3f7f00" stroke="#000000">The Theory of Aristotle</text>
  <text id="svg_56" transform="matrix(0.7927642298632203,0,0,0.8821852947428086,179.3032380411378,25.083827403842637) " xml:space="preserve" text-anchor="middle" font-family="serif" font-size="24" y="498.79008" x="389.29477" stroke-linecap="null" stroke-linejoin="null" stroke-dasharray="null" stroke-width="0" fill="#3f7f00" stroke="#000000">Q&amp;A</text>
  <a xlink:href="https://www.youtube.com/watch?v=vUyiyFzGUTk" id="svg_26" stroke="null">
   <path fill="#3f3f3f" stroke-width="0" stroke-dasharray="null" stroke-linejoin="null" stroke-linecap="null" d="m238.27154,181.68171c-8.26903,0 -14.97223,6.47597 -14.97223,14.46469c0,7.98872 6.7032,14.46469 14.97223,14.46469c8.26903,0 14.97222,-6.47597 14.97222,-14.46469c0,-7.98872 -6.70319,-14.46469 -14.97222,-14.46469zm-2.40541,24.14332l-3.64261,-3.52213l6.37355,-6.15749l-6.37355,-6.1575l3.64261,-3.51914l10.0172,9.67664l-10.0172,9.67962z" marker-mid="url(#se_marker_mid_svg_44)" id="svg_44" stroke="#000000"/>
  </a>
  <a xlink:href="https://www.youtube.com/watch?v=ujiuW6MonnY" id="svg_57" stroke="null">
   <path fill="#3f3f3f" stroke-width="0" stroke-dasharray="null" stroke-linejoin="null" stroke-linecap="null" d="m400.77154,181.68171c-8.26903,0 -14.97223,6.47597 -14.97223,14.46469c0,7.98872 6.7032,14.46469 14.97223,14.46469c8.26903,0 14.97222,-6.47597 14.97222,-14.46469c0,-7.98872 -6.70319,-14.46469 -14.97222,-14.46469zm-2.40541,24.14332l-3.64261,-3.52213l6.37355,-6.15749l-6.37355,-6.1575l3.64261,-3.51914l10.0172,9.67664l-10.0172,9.67962z" marker-mid="url(#se_marker_mid_svg_44)" id="svg_43" stroke="#000000"/>
  </a>
  <a xlink:href="https://www.youtube.com/watch?v=xyAGSM08TFQ" id="svg_58" stroke="null">
   <path fill="#3f3f3f" stroke-width="0" stroke-dasharray="null" stroke-linejoin="null" stroke-linecap="null" d="m568.27154,181.68172c-8.26903,0 -14.97223,6.47597 -14.97223,14.46469c0,7.98872 6.7032,14.46469 14.97223,14.46469c8.26903,0 14.97222,-6.47597 14.97222,-14.46469c0,-7.98872 -6.70319,-14.46469 -14.97222,-14.46469zm-2.40541,24.14331l-3.64261,-3.52212l6.37355,-6.1575l-6.37355,-6.15749l3.64261,-3.51914l10.0172,9.67663l-10.0172,9.67962z" marker-mid="url(#se_marker_mid_svg_44)" id="svg_42" stroke="#000000"/>
  </a>
  <a xlink:href="https://www.youtube.com/watch?v=q_zGbe8FSDw" id="svg_59" stroke="null">
   <path fill="#3f3f3f" stroke-width="0" stroke-dasharray="null" stroke-linejoin="null" stroke-linecap="null" d="m233.27154,384.43171c-8.26903,0 -14.97223,6.47597 -14.97223,14.46469c0,7.98872 6.7032,14.46469 14.97223,14.46469c8.26903,0 14.97222,-6.47597 14.97222,-14.46469c0,-7.98872 -6.70319,-14.46469 -14.97222,-14.46469zm-2.40541,24.14332l-3.64261,-3.52213l6.37355,-6.15749l-6.37355,-6.1575l3.64261,-3.51914l10.0172,9.67664l-10.0172,9.67962z" marker-mid="url(#se_marker_mid_svg_41)" id="svg_41" stroke="#000000"/>
  </a>
  <a xlink:href="https://www.youtube.com/watch?v=KmatFsYDefQ" id="svg_60" stroke="null">
   <path fill="#3f3f3f" stroke-width="0" stroke-dasharray="null" stroke-linejoin="null" stroke-linecap="null" d="m40.27155,588.01506c-8.26903,0 -14.97223,6.47597 -14.97223,14.46469c0,7.98872 6.7032,14.46469 14.97223,14.46469c8.26903,0 14.97222,-6.47597 14.97222,-14.46469c0,-7.98872 -6.70319,-14.46469 -14.97222,-14.46469zm-2.40541,24.14332l-3.64261,-3.52213l6.37355,-6.15749l-6.37355,-6.1575l3.64261,-3.51914l10.0172,9.67664l-10.0172,9.67962z" marker-mid="url(#se_marker_mid_svg_38)" id="svg_20" stroke="#000000"/>
  </a>
  <a xlink:href="https://www.youtube.com/watch?v=ilonkFjs5kA" id="svg_70" stroke="null">
   <path fill="#3f3f3f" stroke-width="0" stroke-dasharray="null" stroke-linejoin="null" stroke-linecap="null" d="m401.77154,384.43171c-8.26903,0 -14.97223,6.47597 -14.97223,14.46469c0,7.98872 6.7032,14.46469 14.97223,14.46469c8.26903,0 14.97222,-6.47597 14.97222,-14.46469c0,-7.98872 -6.70319,-14.46469 -14.97222,-14.46469zm-2.40541,24.14332c-1.2142,-1.17404 -2.42841,-2.34809 -3.64261,-3.52213l6.37355,-6.15749l-6.37355,-6.1575l3.64261,-3.51914l10.0172,9.67664l-10.0172,9.67962z" marker-mid="url(#se_marker_mid_svg_41)" id="svg_40" stroke="#000000"/>
  </a>
  <a xlink:href="https://www.youtube.com/watch?v=QrC0ZKthWMw" id="svg_71" stroke="null">
   <path fill="#3f3f3f" stroke-width="0" stroke-dasharray="null" stroke-linejoin="null" stroke-linecap="null" d="m567.27154,385.09839c-8.26903,0 -14.97223,6.47597 -14.97223,14.46469c0,7.98872 6.7032,14.46469 14.97223,14.46469c8.26903,0 14.97222,-6.47597 14.97222,-14.46469c0,-7.98872 -6.70319,-14.46469 -14.97222,-14.46469zm-2.40541,24.14331l-3.64261,-3.52212l6.37355,-6.1575l-6.37355,-6.15749l3.64261,-3.51914l10.0172,9.67663l-10.0172,9.67962z" marker-mid="url(#se_marker_mid_svg_41)" id="svg_39" stroke="#000000"/>
  </a>
  <a xlink:href="https://www.youtube.com/watch?v=LuRvjXs6qBY" id="svg_72" stroke="null">
   <path fill="#3f3f3f" stroke-width="0" stroke-dasharray="null" stroke-linejoin="null" stroke-linecap="null" d="m234.27154,598.68172c-8.26903,0 -14.97223,6.47597 -14.97223,14.46469c0,7.98872 6.7032,14.46469 14.97223,14.46469c8.26903,0 14.97222,-6.47597 14.97222,-14.46469c0,-7.98872 -6.70319,-14.46469 -14.97222,-14.46469zm-2.40541,24.14332l-3.64261,-3.52213l6.37355,-6.15749l-6.37355,-6.1575l3.64261,-3.51914l10.0172,9.67664l-10.0172,9.67962z" marker-mid="url(#se_marker_mid_svg_38)" id="svg_38" stroke="#000000"/>
  </a>
  <a xlink:href="https://www.youtube.com/watch?v=T03JLnEQhTc" id="svg_74" stroke="null">
   <path fill="#3f3f3f" stroke-width="0" stroke-dasharray="null" stroke-linejoin="null" stroke-linecap="null" d="m463.27154,595.34839c-8.26903,0 -14.97222,6.47597 -14.97222,14.46469c0,7.98872 6.7032,14.46469 14.97222,14.46469c8.26903,0 14.97222,-6.47597 14.97222,-14.46469c0,-7.98872 -6.7032,-14.46469 -14.97222,-14.46469zm-2.4054,24.14331l-3.64262,-3.52212l6.37355,-6.1575l-6.37355,-6.1575l3.64262,-3.51914l10.01719,9.67663l-10.01719,9.67962l0,0.00001z" id="svg_36" marker-mid="url(#se_marker_mid_svg_36)" stroke="#000000"/>
  </a>
  <text xml:space="preserve" text-anchor="middle" font-family="serif" font-size="24" id="svg_83" y="542.0428" x="772.10043" stroke-linecap="null" stroke-linejoin="null" stroke-dasharray="null" stroke-width="0" fill="#3f3f3f" stroke="#000000"/>
  <g id="svg_180" stroke="null"/>
  <text font-weight="normal" id="svg_34" transform="matrix(0.7241174538036177,0,0,1.1980921363896229,123.99101752809224,-215.65241267186477) " xml:space="preserve" text-anchor="middle" font-family="serif" font-size="24" y="431.28821" x="466.53851" stroke-linecap="null" stroke-linejoin="null" stroke-dasharray="null" stroke-width="0" fill="#3f7f00" stroke="#000000">Transition Anger</text>
  <text id="svg_46" transform="matrix(0.6941544241370814,0,0,1.162317895295944,123.63193577462644,-182.8412791451825) " xml:space="preserve" text-anchor="middle" font-family="serif" font-size="24" y="415.19334" x="724.98632" stroke-linecap="null" stroke-linejoin="null" stroke-dasharray="null" stroke-width="0" fill="#3f7f00" stroke="#000000">Conclusion</text>
  <text transform="matrix(0.7734261649342774,0,0,0.7530354735268405,56.017192227332316,19.823299576344507) " xml:space="preserve" text-anchor="middle" font-family="serif" font-size="24" id="svg_53" y="94.33238" x="309.93111" stroke-linecap="null" stroke-linejoin="null" stroke-dasharray="null" stroke-width="0" fill="#3f7f00" stroke="#000000">Literature</text>
  <text fill="#3f7f00" stroke-width="0" stroke-dasharray="null" stroke-linejoin="null" stroke-linecap="null" x="299.84527" y="512" id="svg_88" font-size="24" font-family="serif" text-anchor="middle" xml:space="preserve" transform="matrix(0.784124516167985,0,0,0.784124516167985,63.99067328869111,110.78095325783173) " stroke="#000000">Mandela&#x27;s approach</text>
  <text fill="#3f7f00" stroke-width="0" stroke-dasharray="null" stroke-linejoin="null" stroke-linecap="null" x="644.27277" y="106.99396" id="svg_89" font-size="24" font-family="serif" text-anchor="middle" xml:space="preserve" transform="matrix(0.7783001065254211,0,0,0.7783001065254211,124.6715494710952,17.070891797542572) " stroke="#000000">about Anger</text>
  <a id="svg_95" xlink:href="https://www.youtube.com/watch?v=3vunvFxMLuk">
   <path fill="#3f3f3f" stroke-width="0" stroke-dasharray="null" stroke-linejoin="null" stroke-linecap="null" d="m890.55731,407.8256c0,0.4471 -0.35636,0.80933 -0.79621,0.80933l-5.09872,0c-0.43985,0 -0.79621,-0.36223 -0.79621,-0.80933l0,-11.01095c0,-0.44707 0.35636,-0.80933 0.79621,-0.80933l5.09872,0c0.43985,0 0.79621,0.36227 0.79621,0.80933l0,11.01095zm-18.87688,0c0,0.4471 -0.35643,0.80933 -0.79621,0.80933l-5.09879,0c-0.43978,0 -0.79621,-0.36223 -0.79621,-0.80933l0,-11.01095c0,-0.44707 0.35643,-0.80933 0.79621,-0.80933l5.09879,0c0.43978,0 0.79621,0.36227 0.79621,0.80933l0,11.01095zm6.15995,-29.85733c-9.22639,0 -16.71609,7.54429 -16.83111,16.89413l2.921,0c0.09472,-7.72775 6.28516,-13.96288 13.91011,-13.96288c7.62495,0 13.8154,6.23513 13.909,13.96288l2.92093,0c-0.11385,-9.34984 -7.60575,-16.89413 -16.82994,-16.89413l0,0l0.00001,0zm-16.80743,25.45868l2.868,0l0,-8.58176l-2.868,0l0,8.58176zm30.69276,-8.58291l0,8.5818l2.97393,0l0,-8.5818l-2.97393,0z" id="svg_91" stroke="#000000"/>
  </a>
  <a id="svg_97" xlink:href="https://www.youtube.com/watch?v=gnVWfJIY38A">
   <path fill="#3f3f3f" stroke-width="0" stroke-dasharray="null" stroke-linejoin="null" stroke-linecap="null" d="m890.55731,557.8256c0,0.44711 -0.35636,0.80934 -0.79621,0.80934l-5.09872,0c-0.43986,0 -0.79621,-0.36223 -0.79621,-0.80934l0,-11.01095c0,-0.44707 0.35635,-0.80933 0.79621,-0.80933l5.09872,0c0.43985,0 0.79621,0.36226 0.79621,0.80933l0,11.01095zm-18.87688,0c0,0.44711 -0.35642,0.80934 -0.79621,0.80934l-5.09879,0c-0.43978,0 -0.79621,-0.36223 -0.79621,-0.80934l0,-11.01095c0,-0.44707 0.35643,-0.80933 0.79621,-0.80933l5.09879,0c0.43979,0 0.79621,0.36226 0.79621,0.80933l0,11.01095zm6.15995,-29.85733c-9.22639,0 -16.71609,7.54429 -16.83111,16.89414l2.921,0c0.09472,-7.72775 6.28516,-13.96288 13.91011,-13.96288c7.62495,0 13.81539,6.23513 13.909,13.96288l2.92094,0c-0.11386,-9.34985 -7.60575,-16.89414 -16.82994,-16.89414l0,0zm-16.80743,25.45869l2.868,0l0,-8.58176l-2.868,0l0,8.58176zm30.69276,-8.58292l0,8.5818l2.97393,0l0,-8.5818l-2.97393,0z" stroke="#000000" id="svg_96"/>
  </a>
  <text stroke="#000000" transform="matrix(0.5312889739787601,0,0,0.5688106085120869,-12.4108489061309,43.88194267519137) " xml:space="preserve" text-anchor="middle" font-family="Sans-serif" font-size="24" id="svg_2" y="98.94378" x="146.64534" stroke-linecap="null" stroke-linejoin="null" stroke-dasharray="null" stroke-width="0" fill="#ffffff">29 August 2016</text>
 </g>
</svg>