<svg width="905" height="640.0000000000002" xmlns="http://www.w3.org/2000/svg" xmlns:svg="http://www.w3.org/2000/svg" xmlns:xlink="http://www.w3.org/1999/xlink">
 <!-- Created with SVG-edit - http://svg-edit.googlecode.com/ -->
 <title/>
 <defs>
  <marker refY="50" refX="50" markerHeight="5" markerWidth="5" viewBox="0 0 100 100" orient="auto" markerUnits="strokeWidth" id="se_marker_mid_svg_41">
   <path stroke-width="10" fill="#000000" d="m100,50l-100,40l30,-40l-30,-40l100,40z" id="svg_4" stroke="#000000"/>
  </marker>
  <marker refY="50" refX="50" markerHeight="5" markerWidth="5" viewBox="0 0 100 100" orient="auto" markerUnits="strokeWidth" id="se_marker_mid_svg_44">
   <path stroke-width="10" fill="#000000" d="m100,50l-100,40l30,-40l-30,-40l100,40z" id="svg_6" stroke="#000000"/>
  </marker>
  <pattern id="gridpattern" patternUnits="userSpaceOnUse" x="0" y="0" width="100" height="100">
   <image id="svg_7" x="0" y="0" width="100" height="100"/>
  </pattern>
 </defs>
 <g display="inline" stroke="null">
  <title>圖遮罩</title>
 </g>
 <g display="inline" stroke="null">
  <title>文字</title>
  <image stroke="null" xlink:href="https://c1.staticflickr.com/5/4571/26921913729_ac1d997e46_o.png" id="svg_12" height="436.00001" width="176.5" y="51.74998" x="712.00001"/>
  <image stroke="null" x="33.00001" y="160.99999" width="158.99999" height="348.00001" id="svg_14" xlink:href="https://c1.staticflickr.com/5/4540/37980307004_9d8e6ef5ed_o.png"/>
  <image stroke="null" x="245.58334" y="525.66666" width="440.5" height="101.99999" id="svg_24" xlink:href="https://c1.staticflickr.com/5/4534/24842985808_cb7b5d369f_b.jpg"/>
 </g>
 <g display="inline" stroke="null">
  <title>色塊</title>
  <rect stroke="#000000" id="svg_15" fill="#d4aaff" stroke-width="0" x="221.95864" y="482.52957" width="482.73008" height="142.43338" opacity="0.3"/>
  <rect fill="#d4aaff" stroke-width="0" x="16.94447" y="16.85182" width="199.11107" height="611.11114" opacity="0.3" id="svg_8" stroke="#000000"/>
  <rect stroke="#000000" fill="#d4aaff" stroke-width="0" x="712.05555" y="16.8519" width="177.77774" height="606.11572" opacity="0.3" id="svg_9"/>
  <rect stroke="#000000" fill="#3f007f" stroke-width="0" stroke-dasharray="null" stroke-linejoin="null" stroke-linecap="null" x="18.19167" y="151.62801" width="86.81393" height="25" id="svg_21" stroke-opacity="0"/>
  <rect stroke="#000000" fill="#3f007f" stroke-width="0" stroke-dasharray="null" stroke-linejoin="null" stroke-linecap="null" x="736.08459" y="24.58396" width="149.83223" height="36.78736" id="svg_22" stroke-opacity="0"/>
  <rect stroke="#000000" fill="#3f007f" stroke-width="0" stroke-dasharray="null" stroke-linejoin="null" stroke-linecap="null" x="223.99657" y="490.39183" width="168.08593" height="27.12501" id="svg_29" stroke-opacity="0"/>
  <rect stroke="#000000" fill="#d4aaff" stroke-width="0" x="222.5" y="15.74998" width="237" height="225.00002" opacity="0.3" id="svg_5"/>
  <rect stroke="#000000" fill="#d4aaff" stroke-width="0" x="464.25001" y="15.75" width="239.49999" height="225.00001" opacity="0.3" id="svg_10"/>
  <rect id="svg_33" stroke="#000000" fill="#d4aaff" stroke-width="0" x="223.12501" y="248.12499" width="237" height="225.00002" opacity="0.3"/>
  <rect id="svg_35" stroke="#000000" fill="#d4aaff" stroke-width="0" x="464.87502" y="248.12501" width="239.49999" height="225.00001" opacity="0.3"/>
 </g>
 <g display="inline" stroke="null">
  <title>圖片</title>
  <image xlink:href="https://c1.staticflickr.com/5/4571/37977009994_ecf25acccc_o.png" id="svg_3" height="90" width="70" y="61" x="21.33333"/>
  <image xlink:href="https://farm5.staticflickr.com/4235/34326662283_2989afcbeb_b.jpg" id="svg_16" height="122.99997" width="150" y="518.00002" x="53"/>
  <image stroke="null" xlink:href="https://farm5.staticflickr.com/4263/35096910866_53d9667a78_b.jpg" id="svg_18" height="166.75" width="220.24999" y="313" x="232.75001"/>
  <image xlink:href="https://farm5.staticflickr.com/4238/34326658113_13f4396715_b.jpg" id="svg_19" height="105" width="154" y="504.5" x="732.25"/>
  <image stroke="null" xlink:href="https://farm5.staticflickr.com/4253/34291870064_c210cba6d0_b.jpg" id="svg_20" height="158.25003" width="223" y="79.74997" x="476.24999"/>
  <image stroke="null" xlink:href="https://farm5.staticflickr.com/4237/34326659713_f0787ac7cd_b.jpg" id="svg_23" height="166.74997" width="222.25" y="313.00003" x="475.50001"/>
  <image stroke="null" xlink:href="https://farm5.staticflickr.com/4234/34326659083_f38b2215c0_b.jpg" id="svg_32" height="150.75001" width="245.25001" y="84.99999" x="218.75"/>
 </g>
 <g display="inline" stroke="null">
  <title>標題</title>
  <text transform="matrix(0.6992196579929718,0,0,1.0819396667039796,278.71470749821265,42.856626241702784) " font-weight="bold" xml:space="preserve" text-anchor="middle" font-family="Cursive" font-size="24" id="svg_45" y="-1.50635" x="-230.89923" stroke-linecap="null" stroke-linejoin="null" stroke-dasharray="null" stroke-width="0" fill="#3f007f" opacity="0.85">My Vision for the East</text>
  <text transform="matrix(0.8406476094579095,0,0,0.8696967485759515,131.8161622722508,11.668342329910757) " font-style="italic" fill="#ffffff" stroke-width="0" stroke-dasharray="null" stroke-linejoin="null" stroke-linecap="null" opacity="0.8" x="771.04038" y="34.66618" id="svg_25" font-size="24" font-family="serif" text-anchor="middle" xml:space="preserve" stroke="null">Speaker&#x27;s</text>
  <text fill="#ffffff" stroke-width="0" stroke-dasharray="null" stroke-linejoin="null" stroke-linecap="null" opacity="0.8" x="69.62331" y="153.78554" id="svg_27" font-size="24" font-family="serif" text-anchor="middle" xml:space="preserve" transform="matrix(0.8712908761122634,0,0,0.9110834388312584,-3.0226665376568,32.56104403430815) " font-style="italic" stroke="null">Abstract</text>
  <text fill="#ffffff" stroke-width="0" stroke-dasharray="null" stroke-linejoin="null" stroke-linecap="null" opacity="0.8" x="71.87393" y="519.79026" id="svg_28" font-size="24" font-family="serif" text-anchor="middle" xml:space="preserve" transform="translate(388.8465576171875,441.1921691894531) scale(1.0136302709579468,0.8249392509460449) translate(-388.8465576171875,-441.1921691894531) translate(888.8558959960938,436.2577209472656) scale(0.9734276533126831,1) translate(-888.8558959960938,-436.2577209472656) translate(889.87255859375,504.8636779785156) scale(1) translate(-889.87255859375,-504.8636779785156) translate(889.914306640625,505.77667236328125) scale(1.0139044523239136,1.3043327331542969) translate(-889.914306640625,-505.77667236328125) translate(888.4232177734375,504.6651611328125) scale(1) translate(-888.4232177734375,-504.6651611328125) translate(888.3218994140625,504.255126953125) scale(0.9399330019950867,0.7570223808288574) translate(-888.3218994140625,-504.255126953125) translate(888.0772705078125,504.109619140625) scale(0.8550723195075989,0.9137715697288513) translate(-888.0772705078125,-504.109619140625) matrix(1.0937924253894378,0,0,1.0937924253894378,71.03591400341189,-39.500754610857044) " font-style="italic" stroke="null">Further Reading</text>
  <text fill="#3f007f" stroke-width="0" stroke-dasharray="null" stroke-linejoin="null" stroke-linecap="null" opacity="0.75" x="420.61871" y="198.7059" id="svg_31" font-size="24" font-family="serif" text-anchor="middle" xml:space="preserve" transform="matrix(0.5533737905694086,0,0,0.8518563853726847,-78.12306166043017,-47.59508059512045) " stroke="#000000">Dr Yukio Hatoyama</text>
  <text transform="matrix(0.8354361098178646,0,0,0.8725812559001912,229.80374304864947,165.26744898690174) " xml:space="preserve" text-anchor="middle" font-family="serif" font-size="24" y="-135.84359" x="36.36119" stroke-linecap="null" stroke-linejoin="null" stroke-dasharray="null" stroke-width="0" fill="#3f007f" id="svg_61" stroke="#000000">Part 1-</text>
  <text transform="matrix(0.8051395506163546,0,0,0.7921755035519923,283.3250067838935,163.68907544946308) " xml:space="preserve" text-anchor="middle" font-family="serif" font-size="24" y="-154.69775" x="277.4103" stroke-linecap="null" stroke-linejoin="null" stroke-dasharray="null" stroke-width="0" fill="#3f007f" id="svg_62" stroke="#000000">Part 2-</text>
  <text transform="matrix(0.7805931174257364,0,0,0.8360113371784306,185.17468260411317,158.99221995108948) " xml:space="preserve" text-anchor="middle" font-family="serif" font-size="24" y="138.90707" x="101.00793" stroke-linecap="null" stroke-linejoin="null" stroke-dasharray="null" stroke-width="0" fill="#3f007f" id="svg_63" stroke="#000000">Part 3-</text>
  <text transform="matrix(0.8172128685629245,0,0,0.8441613025967629,91.42355897251933,51.9733714973944) " xml:space="preserve" text-anchor="middle" font-family="serif" font-size="24" y="261.32705" x="507.98772" stroke-linecap="null" stroke-linejoin="null" stroke-dasharray="null" stroke-width="0" fill="#3f007f" id="svg_64" stroke="#000000">Part 4-</text>
  <text font-style="italic" font-weight="bold" fill="#7f007f" stroke-width="0" stroke-dasharray="null" stroke-linejoin="null" stroke-linecap="null" x="-116.78568" y="287.49936" id="svg_69" font-size="24" font-family="serif" text-anchor="middle" xml:space="preserve" transform="translate(37.80478286743164,528.8271484375) scale(0.9350906610488892,1.2388343811035156) translate(-37.80478286743164,-528.8271484375) translate(38.32976150512695,527.299072265625) scale(0.8204007148742676,0.48956218361854553) translate(-38.32976150512695,-527.299072265625) matrix(0.9599909289360469,0,0,1.1493330372867603,190.89519098356288,184.10782118566985) " stroke="#000000" opacity="0.45">Welcoming</text>
  <text fill="#00007f" stroke-width="0" stroke-dasharray="null" stroke-linejoin="null" stroke-linecap="null" x="231.82961" y="441.56954" font-size="24" font-family="serif" text-anchor="middle" xml:space="preserve" transform="matrix(0.6397412810141743,0,0,0.975842456865442,191.47337137717193,-127.85923158919434) " id="svg_80" font-weight="normal" stroke="#000000" opacity="0.45">East Asian Community</text>
  <text fill="#00007f" stroke-width="0" stroke-dasharray="null" stroke-linejoin="null" stroke-linecap="null" x="738.24439" y="285.7262" font-size="24" font-family="serif" text-anchor="middle" xml:space="preserve" transform="matrix(0.664407250017436,0,0,0.9056456392226698,29.4019852479718,-191.40064213661634) " id="svg_82" stroke="#000000" opacity="0.45">The Concept</text>
  <text fill="#00007f" stroke-width="0" stroke-dasharray="null" stroke-linejoin="null" stroke-linecap="null" x="257.25979" y="-91.57364" font-size="24" font-family="serif" text-anchor="middle" xml:space="preserve" transform="matrix(0.9358984998431659,0,0,0.9305075869691136,100.39935011151981,155.9743370925139) " id="svg_87" stroke="#000000" opacity="0.45">Introduction</text>
  <a id="svg_26" xlink:href="https://youtu.be/upQdqxL8GyE" stroke="null">
   <path id="svg_44" marker-mid="url(#se_marker_mid_svg_44)" d="m59.02154,601.93171c-8.26903,0 -14.97223,6.47597 -14.97223,14.46469c0,7.98872 6.7032,14.46469 14.97223,14.46469c8.26903,0 14.97222,-6.47597 14.97222,-14.46469c0,-7.98872 -6.70319,-14.46469 -14.97222,-14.46469zm-2.40541,24.14332l-3.64261,-3.52213l6.37355,-6.15749l-6.37355,-6.1575l3.64261,-3.51914l10.0172,9.67664l-10.0172,9.67962z" stroke-linecap="null" stroke-linejoin="null" stroke-dasharray="null" stroke-width="0" fill="#ffffff" stroke="#000000"/>
  </a>
  <a id="svg_57" xlink:href="https://youtu.be/vaD8zT108Hs" stroke="null">
   <path id="svg_43" marker-mid="url(#se_marker_mid_svg_44)" d="m244.02154,205.18171c-8.26903,0 -14.97223,6.47597 -14.97223,14.46469c0,7.98872 6.7032,14.46469 14.97223,14.46469c8.26903,0 14.97222,-6.47597 14.97222,-14.46469c0,-7.98872 -6.70319,-14.46469 -14.97222,-14.46469zm-2.40541,24.14332l-3.64261,-3.52213l6.37355,-6.15749l-6.37355,-6.1575l3.64261,-3.51914l10.0172,9.67664l-10.0172,9.67962z" stroke-linecap="null" stroke-linejoin="null" stroke-dasharray="null" stroke-width="0" fill="#ffffff" stroke="#000000"/>
  </a>
  <a id="svg_58" xlink:href="https://youtu.be/Jy0MzQo9NdU" stroke="null">
   <path id="svg_42" marker-mid="url(#se_marker_mid_svg_44)" d="m496.77154,200.93172c-8.26903,0 -14.97223,6.47597 -14.97223,14.46469c0,7.98872 6.7032,14.46469 14.97223,14.46469c8.26903,0 14.97222,-6.47597 14.97222,-14.46469c0,-7.98872 -6.70319,-14.46469 -14.97222,-14.46469zm-2.40541,24.14331l-3.64261,-3.52212l6.37355,-6.1575l-6.37355,-6.15749l3.64261,-3.51914l10.0172,9.67663l-10.0172,9.67962z" stroke-linecap="null" stroke-linejoin="null" stroke-dasharray="null" stroke-width="0" fill="#ffffff" stroke="#000000"/>
  </a>
  <a id="svg_59" xlink:href="https://youtu.be/ZYNohrXQ4bQ" stroke="null">
   <path id="svg_41" marker-mid="url(#se_marker_mid_svg_41)" d="m247.27154,440.18071c-8.26903,0 -14.97223,6.47597 -14.97223,14.46469c0,7.98872 6.7032,14.46469 14.97223,14.46469c8.26903,0 14.97222,-6.47597 14.97222,-14.46469c0,-7.98872 -6.70319,-14.46469 -14.97222,-14.46469zm-2.40541,24.14332l-3.64261,-3.52213l6.37355,-6.15749l-6.37355,-6.1575l3.64261,-3.51914l10.0172,9.67664l-10.0172,9.67962z" stroke-linecap="null" stroke-linejoin="null" stroke-dasharray="null" stroke-width="0" fill="#ffffff" stroke="#000000"/>
  </a>
  <a id="svg_70" xlink:href="https://youtu.be/d733jIGHMZU" stroke="null">
   <path id="svg_40" marker-mid="url(#se_marker_mid_svg_41)" d="m489.27154,441.93071c-8.26903,0 -14.97223,6.47597 -14.97223,14.46469c0,7.98872 6.7032,14.46469 14.97223,14.46469c8.26903,0 14.97222,-6.47597 14.97222,-14.46469c0,-7.98872 -6.70319,-14.46469 -14.97222,-14.46469zm-2.40541,24.14332c-1.2142,-1.17404 -2.42841,-2.34809 -3.64261,-3.52213l6.37355,-6.15749l-6.37355,-6.1575l3.64261,-3.51914l10.0172,9.67664l-10.0172,9.67962z" stroke-linecap="null" stroke-linejoin="null" stroke-dasharray="null" stroke-width="0" fill="#ffffff" stroke="#000000"/>
  </a>
  <a id="svg_71" xlink:href="https://youtu.be/aBrfUCTfoWc" stroke="null">
   <path id="svg_39" marker-mid="url(#se_marker_mid_svg_41)" d="m740.77154,581.34839c-8.26903,0 -14.97223,6.47597 -14.97223,14.46469c0,7.98872 6.7032,14.46469 14.97223,14.46469c8.26903,0 14.97222,-6.47597 14.97222,-14.46469c0,-7.98872 -6.70319,-14.46469 -14.97222,-14.46469zm-2.40541,24.14331l-3.64261,-3.52212l6.37355,-6.1575l-6.37355,-6.15749l3.64261,-3.51914l10.0172,9.67663l-10.0172,9.67962z" stroke-linecap="null" stroke-linejoin="null" stroke-dasharray="null" stroke-width="0" fill="#ffffff" stroke="#000000"/>
  </a>
  <text fill="#3f3f3f" stroke-width="0" stroke-dasharray="null" stroke-linejoin="null" stroke-linecap="null" x="772.10043" y="542.0428" id="svg_83" font-size="24" font-family="serif" text-anchor="middle" xml:space="preserve" stroke="#000000"/>
  <g id="svg_180" stroke="null"/>
  <text fill="#00007f" stroke-width="0" stroke-dasharray="null" stroke-linejoin="null" stroke-linecap="null" x="635.6816" y="408.89588" font-size="24" font-family="serif" text-anchor="middle" xml:space="preserve" transform="matrix(0.81611198435621,0,0,0.8352998987853342,55.29440861846838,-42.28810465814848) " id="svg_34" font-weight="normal" stroke="#000000" opacity="0.45">Future Goal</text>
  <text font-weight="bold" font-style="italic" fill="#7f003f" stroke-width="0" stroke-dasharray="null" stroke-linejoin="null" stroke-linecap="null" x="895.47064" y="595.99104" font-size="24" font-family="serif" text-anchor="middle" xml:space="preserve" transform="matrix(0.8256321389026616,0,0,0.8788423038728708,15.587421804628491,-39.89100080022416) " id="svg_46" stroke="#000000" opacity="0.45">Ｑ＆Ａ</text>
  <text fill="#ffffff" stroke-width="0" stroke-dasharray="null" stroke-linejoin="null" stroke-linecap="null" x="1925.02809" y="-58.21979" id="svg_49" font-size="24" font-family="serif" text-anchor="middle" xml:space="preserve" font-style="italic" transform="matrix(0.7681051001511282,0,0,0.8530227157745391,-636.4639586873427,105.59283439791079) " opacity="0.8" stroke="null">Biography</text>
  <text id="svg_38" transform="matrix(0.8253666922981566,0,0,0.8716072129661104,346.7423966174612,13.72744850173974) " font-weight="bold" xml:space="preserve" text-anchor="middle" font-family="Cursive" font-size="24" y="52.50235" x="-279.73848" stroke-linecap="null" stroke-linejoin="null" stroke-dasharray="null" stroke-width="0" fill="#3f007f" opacity="0.85">Asian Community</text>
  <text fill="#00007f" stroke-width="0" stroke-dasharray="null" stroke-linejoin="null" stroke-linecap="null" x="712.56548" y="304.25685" font-size="24" font-family="serif" text-anchor="middle" xml:space="preserve" transform="matrix(0.8300429717858473,0,0,0.9126772470060213,25.90866399488243,-210.73385204730474) " stroke="#000000" opacity="0.45" id="svg_51">of Fraternity</text>
  <text style="cursor: move;" id="svg_30" fill="#3f007f" stroke-width="0" stroke-dasharray="null" stroke-linejoin="null" stroke-linecap="null" opacity="0.75" x="421.29306" y="220.36393" font-size="24" font-family="serif" text-anchor="middle" xml:space="preserve" transform="matrix(0.5533737905694086,0,0,0.8518563853726847,-78.12306166043017,-47.59508059512045) " stroke="#000000">13 November 2013</text>
 </g>
</svg>