<svg width="904.9999999999999" height="640.0000000000002" xmlns="http://www.w3.org/2000/svg" xmlns:svg="http://www.w3.org/2000/svg" xmlns:xlink="http://www.w3.org/1999/xlink">
 <!-- Created with SVG-edit - http://svg-edit.googlecode.com/ -->
 <title/>
 <defs>
  <marker refY="50" refX="50" markerHeight="5" markerWidth="5" viewBox="0 0 100 100" orient="auto" markerUnits="strokeWidth" id="se_marker_mid_svg_41">
   <path stroke-width="10" fill="#000000" d="m100,50l-100,40l30,-40l-30,-40l100,40z" id="svg_4" stroke="#000000"/>
  </marker>
  <marker refY="50" refX="50" markerHeight="5" markerWidth="5" viewBox="0 0 100 100" orient="auto" markerUnits="strokeWidth" id="se_marker_mid_svg_44">
   <path stroke-width="10" fill="#000000" d="m100,50l-100,40l30,-40l-30,-40l100,40z" id="svg_6" stroke="#000000"/>
  </marker>
  <pattern id="gridpattern" patternUnits="userSpaceOnUse" x="0" y="0" width="100" height="100">
   <image id="svg_7" x="0" y="0" width="100" height="100"/>
  </pattern>
 </defs>
 <g display="inline" stroke="null">
  <title>圖遮罩</title>
 </g>
 <g display="inline" stroke="null">
  <title>文字</title>
  <image x="714.50002" y="55.50001" width="178.99999" height="163.99997" xlink:href="https://c1.staticflickr.com/5/4652/39748278902_58db229744_o.png" id="svg_85"/>
  <image x="33" y="189.5" width="175.00002" height="285.99999" xlink:href="https://c1.staticflickr.com/5/4608/24910062107_53109e8fc9_b.jpg" id="svg_88"/>
  <text fill="#000000" stroke-width="0" stroke-dasharray="null" stroke-linejoin="null" stroke-linecap="null" x="772.06058" y="406.05716" id="svg_90" font-size="24" font-family="serif" text-anchor="middle" xml:space="preserve" transform="matrix(0.5167628119538935,0,0,0.586125382243954,400.52466088877424,151.9346016058172) " stroke="null">1.Recent discussion of the subject</text>
  <text fill="#000000" stroke-width="0" stroke-dasharray="null" stroke-linejoin="null" stroke-linecap="null" x="961.45954" y="421.27588" id="svg_91" font-size="24" font-family="serif" text-anchor="middle" xml:space="preserve" transform="matrix(0.5344722427999349,0,0,0.5580830141304435,289.1206055264944,167.1283538248897) " stroke="null">of population and consumption:</text>
  <text fill="#000000" stroke-width="0" stroke-dasharray="null" stroke-linejoin="null" stroke-linecap="null" x="1391.92324" y="421.70363" id="svg_92" font-size="24" font-family="serif" text-anchor="middle" xml:space="preserve" transform="matrix(0.478231037464473,0,0,0.7232080299437627,166.33484212731696,114.68978251516006) " stroke="null">Click here</text>
  <text fill="#000000" stroke-width="0" stroke-dasharray="null" stroke-linejoin="null" stroke-linecap="null" x="1016.59685" y="475.14038" id="svg_93" font-size="24" font-family="serif" text-anchor="middle" xml:space="preserve" transform="matrix(0.4760775242265147,0,0,0.5958179413025952,316.0169929833331,168.47836023164643) " stroke="null">2.More about the YouTube project:</text>
  <text fill="#000000" stroke-width="0" stroke-dasharray="null" stroke-linejoin="null" stroke-linecap="null" x="879.98745" y="497.03598" id="svg_94" font-size="24" font-family="serif" text-anchor="middle" xml:space="preserve" transform="matrix(0.5915495096069001,0,0,0.496301693721457,273.89650264216846,220.97123194095167) " stroke="null">www.periodicvideos.com</text>
  <text fill="#000000" stroke-width="0" stroke-dasharray="null" stroke-linejoin="null" stroke-linecap="null" x="1011.27396" y="478.60554" id="svg_95" font-size="24" font-family="serif" text-anchor="middle" xml:space="preserve" transform="matrix(0.488901052127523,0,0,0.6807321700966097,342.00835193949194,158.93028914368142) " stroke="null">Click here</text>
  <a id="svg_98" xlink:href="http://royalsociety.org/policy/projects/people-planet/">
   <path marker-mid="url(#se_marker_mid_svg_41)" d="m869.50001,404.53532c-4.67914,0 -8.47223,4.01357 -8.47223,8.96469c0,4.95112 3.79309,8.96469 8.47223,8.96469c4.67914,0 8.47222,-4.01357 8.47222,-8.96469c0,-4.95112 -3.79309,-8.96469 -8.47222,-8.96469zm-1.36113,14.96315l-2.06122,-2.18289l3.60656,-3.81619l-3.60656,-3.8162l2.06122,-2.18104l5.66836,5.99723l-5.66836,5.99908l0,0.00001z" stroke-linecap="null" stroke-linejoin="null" stroke-dasharray="null" stroke-width="0" fill="#3f007f" id="svg_96" stroke="#000000"/>
  </a>
  <a id="svg_99" xlink:href="www.youtube.com/watch?v=gVIirDe50m8&amp;feature">
   <path marker-mid="url(#se_marker_mid_svg_41)" d="m872.50001,470.53532c-4.67914,0 -8.47223,4.23743 -8.47223,9.46469c0,5.22726 3.79309,9.46469 8.47223,9.46469c4.67914,0 8.47222,-4.23743 8.47222,-9.46469c0,-5.22726 -3.79309,-9.46469 -8.47222,-9.46469zm-1.36113,15.79772l-2.06122,-2.30464l3.60656,-4.02903l-3.60656,-4.02904l2.06122,-2.30268l5.66836,6.33172l-5.66836,6.33367z" stroke-linecap="null" stroke-linejoin="null" stroke-dasharray="null" stroke-width="0" fill="#3f007f" id="svg_97" stroke="#000000"/>
  </a>
 </g>
 <g display="inline" stroke="null">
  <title>色塊</title>
  <rect stroke="#000000" id="svg_13" fill="#00ff7f" stroke-width="0" x="222.00001" y="220.40742" width="157" height="201.00001" opacity="0.3"/>
  <rect id="svg_15" fill="#00ff7f" stroke-width="0" x="547.95862" y="425.52957" width="157.9801" height="198.43338" opacity="0.3" stroke="#000000"/>
  <rect fill="#7fff00" stroke-width="0" x="10.94446" y="16.85182" width="205.11108" height="611.11114" opacity="0.3" id="svg_8" stroke="#000000"/>
  <rect fill="#7fff00" stroke-width="0" x="712.05555" y="16.8519" width="177.77774" height="607.61572" opacity="0.3" id="svg_9" stroke="#000000"/>
  <rect stroke="#000000" fill="#007f3f" stroke-width="0" stroke-dasharray="null" stroke-linejoin="null" stroke-linecap="null" x="12.19167" y="171.62801" width="107.81393" height="31" id="svg_21"/>
  <rect stroke="#000000" fill="#007f3f" stroke-width="0" stroke-dasharray="null" stroke-linejoin="null" stroke-linecap="null" x="734.58459" y="28.83396" width="155.58224" height="29.28736" id="svg_22" stroke-opacity="0"/>
  <rect stroke="#000000" fill="#007f3f" stroke-width="0" stroke-dasharray="null" stroke-linejoin="null" stroke-linecap="null" x="10.32992" y="462.89183" width="156.08593" height="31.625" id="svg_29"/>
  <rect id="svg_17" stroke="#000000" fill="#00ff7f" stroke-width="0" x="222.49999" y="425.99999" width="157" height="201.00001" opacity="0.3"/>
  <rect id="svg_18" stroke="#000000" fill="#00ff7f" stroke-width="0" x="222.49999" y="16.99999" width="157" height="201.00001" opacity="0.3"/>
  <rect id="svg_19" stroke="#000000" fill="#00ff7f" stroke-width="0" x="385.49999" y="16.99999" width="157" height="201.00001" opacity="0.3"/>
  <rect id="svg_20" stroke="#000000" fill="#00ff7f" stroke-width="0" x="549.49999" y="16.99999" width="157" height="201.00001" opacity="0.3"/>
  <rect id="svg_30" stroke="#000000" fill="#00ff7f" stroke-width="0" x="385.49999" y="219.99999" width="157" height="201.00001" opacity="0.3"/>
  <rect id="svg_32" stroke="#000000" fill="#00ff7f" stroke-width="0" x="548.49999" y="220" width="157" height="201.00001" opacity="0.3"/>
  <rect id="svg_33" stroke="#000000" fill="#00ff7f" stroke-width="0" x="385.49999" y="425.99998" width="157" height="201.00001" opacity="0.3"/>
  <rect fill="none" stroke-width="5" x="729.33332" y="513.33332" width="148.33335" height="99.33333" id="svg_48" stroke="#ffffff"/>
  <rect fill="#007f3f" stroke-width="0" stroke-dasharray="null" stroke-linejoin="null" stroke-linecap="null" x="809.95702" y="498.18751" width="79.08594" height="25.625" id="svg_50" stroke="#000000"/>
  <rect stroke="#000000" id="svg_84" fill="#007f3f" stroke-width="0" stroke-dasharray="null" stroke-linejoin="null" stroke-linecap="null" x="731.45701" y="347.18751" width="158.08595" height="25.625"/>
 </g>
 <g display="inline" stroke="null">
  <title>圖片</title>
  <image x="13" y="67" width="73" height="105" id="svg_16" xlink:href="https://c1.staticflickr.com/5/4650/25907229638_4dd974fd87_o.png"/>
  <image x="220.00001" y="112" width="160.99999" height="99" id="svg_60" xlink:href="https://farm5.staticflickr.com/4230/34750448180_6caa4e1174_b.jpg"/>
  <image x="368" y="110.99998" width="192" height="99.00002" id="svg_73" xlink:href="https://farm5.staticflickr.com/4235/35006170601_7f45f0cb6c_b.jpg"/>
  <image x="519" y="111" width="216.99999" height="98" id="svg_74" xlink:href="https://farm5.staticflickr.com/4224/35006167851_57ca148081_b.jpg"/>
  <image x="206.99997" y="307.99997" width="186.00003" height="99.00003" id="svg_75" xlink:href="https://farm5.staticflickr.com/4228/35006170241_4c1afee7d0_b.jpg"/>
  <image x="377.00001" y="308" width="173.99999" height="99" id="svg_76" xlink:href="https://farm5.staticflickr.com/4248/35006170011_f86070f045_b.jpg"/>
  <image x="552.00001" y="303" width="150.99998" height="108" id="svg_77" xlink:href="https://farm5.staticflickr.com/4236/35006169801_328c900655_b.jpg"/>
  <image x="384" y="513" width="161.00001" height="99" id="svg_78" xlink:href="https://farm5.staticflickr.com/4213/35006169171_2af15f4d7c_b.jpg"/>
  <image x="220" y="514" width="163.99999" height="94.99999" id="svg_79" xlink:href="https://farm5.staticflickr.com/4243/35006168941_39a13ed56e_b.jpg"/>
  <image x="536" y="512.99998" width="181" height="98.00002" id="svg_81" xlink:href="https://farm5.staticflickr.com/4281/35006169481_09ebf10423_b.jpg"/>
  <image xlink:href="https://farm5.staticflickr.com/4288/35006170431_c2ab99c84c_b.jpg" id="svg_1" height="136.00003" width="155" y="491.99997" x="52"/>
  <image x="753" y="521.99999" width="118" height="94.00001" xlink:href="https://farm5.staticflickr.com/4256/35006168691_ccdf19448f_b.jpg" id="svg_72"/>
  <image xlink:href="https://farm5.staticflickr.com/4244/35006167711_218c8fc5db_b.jpg" id="svg_100" height="112" width="156.00001" y="212" x="722.99999"/>
 </g>
 <g display="inline" stroke="null">
  <title>標題</title>
  <text transform="matrix(0.6068242664615802,0,0,1.185350502306667,258.0675575161752,39.71238588487628) " font-weight="normal" xml:space="preserve" text-anchor="middle" font-family="Cursive" font-size="24" id="svg_45" y="5.38445" x="-244.11606" stroke-linecap="null" stroke-linejoin="null" stroke-dasharray="null" stroke-width="0" fill="#3f7f00" opacity="0.85">Engineering a Better World</text>
  <text transform="matrix(0.7997908678234953,0,0,0.7471633573828823,168.58352367452255,14.292356944323538) " font-style="italic" fill="#ffffff" stroke-width="0" stroke-dasharray="null" stroke-linejoin="null" stroke-linecap="null" opacity="0.8" x="752.60222" y="42.4275" id="svg_25" font-size="24" font-family="serif" text-anchor="middle" xml:space="preserve" stroke="null">Speaker&#x27;s</text>
  <text fill="#ffffff" stroke-width="0" stroke-dasharray="null" stroke-linejoin="null" stroke-linecap="null" opacity="0.8" x="66.18015" y="179.03022" id="svg_27" font-size="24" font-family="serif" text-anchor="middle" xml:space="preserve" transform="matrix(0.8497265357800176,0,0,0.8613645662490113,-2.5722961975503087,41.01519498665432) " font-style="italic" stroke="null">Abstract</text>
  <text fill="#ffffff" stroke-width="0" stroke-dasharray="null" stroke-linejoin="null" stroke-linecap="null" opacity="0.8" x="-243.71724" y="482.20086" id="svg_28" font-size="24" font-family="serif" text-anchor="middle" xml:space="preserve" transform="translate(554.5355224609375,435.7587890625) scale(1.1204942464828491,1.086641550064087) translate(-554.5355224609375,-435.7587890625) translate(554.274658203125,435.3764953613281) scale(1.0869497060775757,1.1274291276931763) translate(-554.274658203125,-435.3764953613281) translate(554.9812622070312,435.6423034667969) scale(0.7644617557525635,0.9113956093788147) translate(-554.9812622070312,-435.6423034667969) translate(388.8465576171875,441.1921691894531) scale(1.0136302709579468,0.8249392509460449) translate(-388.8465576171875,-441.1921691894531) translate(888.8558959960938,436.2577209472656) scale(0.9734276533126831,1) translate(-888.8558959960938,-436.2577209472656) translate(889.87255859375,504.8636779785156) scale(1) translate(-889.87255859375,-504.8636779785156) translate(889.914306640625,505.77667236328125) scale(1.0139044523239136,1.3043327331542969) translate(-889.914306640625,-505.77667236328125) translate(888.4232177734375,504.6651611328125) scale(1) translate(-888.4232177734375,-504.6651611328125) translate(888.3218994140625,504.255126953125) scale(0.9399330019950867,0.7570223808288574) translate(-888.3218994140625,-504.255126953125) translate(888.0772705078125,504.109619140625) scale(0.8550723195075989,0.9137715697288513) translate(-888.0772705078125,-504.109619140625) matrix(1.0937924253894378,0,0,1.0937924253894378,71.03591400341189,-39.500754610857044) " font-style="italic" stroke="null">Welcoming</text>
  <text transform="matrix(0.5854986043617564,0,0,0.7424670680134292,236.9012251022492,164.07520634776137) " xml:space="preserve" text-anchor="middle" font-family="serif" font-size="24" y="-149.20398" x="94.2695" stroke-linecap="null" stroke-linejoin="null" stroke-dasharray="null" stroke-width="0" fill="#007f3f" id="svg_61" stroke="#000000">Part 1-</text>
  <text transform="matrix(0.7061411643872194,0,0,0.7248282245840013,224.48645215699182,151.95902899550867) " xml:space="preserve" text-anchor="middle" font-family="serif" font-size="24" y="-136.38459" x="337.31068" stroke-linecap="null" stroke-linejoin="null" stroke-dasharray="null" stroke-width="0" fill="#007f3f" id="svg_62" stroke="#000000">Part 2-</text>
  <text transform="matrix(0.6569972062551963,0,0,0.6851871701921616,280.07462222296476,151.4153921597586) " xml:space="preserve" text-anchor="middle" font-family="serif" font-size="24" y="-148.30302" x="526.55607" stroke-linecap="null" stroke-linejoin="null" stroke-dasharray="null" stroke-width="0" fill="#007f3f" id="svg_63" stroke="#000000">Part 3-</text>
  <text transform="matrix(0.636495520590294,0,0,0.6392816123929755,84.12448176917972,92.83793717360699) " xml:space="preserve" text-anchor="middle" font-family="serif" font-size="24" y="247.22574" x="334.73336" stroke-linecap="null" stroke-linejoin="null" stroke-dasharray="null" stroke-width="0" fill="#007f3f" id="svg_64" stroke="#000000">Part 4-</text>
  <text transform="matrix(0.6348929920100356,0,0,0.6560268516476625,144.5097038890673,89.12503976629172) " xml:space="preserve" text-anchor="middle" font-family="serif" font-size="24" y="249.89845" x="497.22307" stroke-linecap="null" stroke-linejoin="null" stroke-dasharray="null" stroke-width="0" fill="#007f3f" id="svg_65" stroke="#000000">Part 5-</text>
  <text transform="matrix(0.6628194644794393,0,0,0.6989850937905451,199.3653088782552,67.57623189161629) " xml:space="preserve" text-anchor="middle" font-family="serif" font-size="24" y="263.95291" x="644.84837" stroke-linecap="null" stroke-linejoin="null" stroke-dasharray="null" stroke-width="0" fill="#007f3f" id="svg_66" stroke="#000000">Part 6-</text>
  <text fill="#003f7f" stroke-width="0" stroke-dasharray="null" stroke-linejoin="null" stroke-linecap="null" x="111.48976" y="-87.9312" id="svg_69" font-size="24" font-family="serif" text-anchor="middle" xml:space="preserve" transform="matrix(0.7604925957313914,0,0,0.8207639699819228,215.31031174452605,154.38287699450498) " stroke="#000000" opacity="0.7">Introduction</text>
  <text fill="#003f7f" stroke-width="0" stroke-dasharray="null" stroke-linejoin="null" stroke-linecap="null" x="194.38235" y="409.9273" font-size="24" font-family="serif" text-anchor="middle" xml:space="preserve" transform="matrix(0.6026710849327273,0,0,0.8094600513712283,181.73664131561503,-54.58880410237355) " id="svg_80" font-weight="normal" opacity="0.7">Green Chemistry</text>
  <text fill="#003f7f" stroke-width="0" stroke-dasharray="null" stroke-linejoin="null" stroke-linecap="null" x="854.6892" y="318.86487" font-size="24" font-family="serif" text-anchor="middle" xml:space="preserve" transform="matrix(0.6170764518705727,0,0,0.6981116350072204,104.26476119253908,-142.1778306597473) " id="svg_82" opacity="0.7">The First Product</text>
  <text fill="#003f7f" stroke-width="0" stroke-dasharray="null" stroke-linejoin="null" stroke-linecap="null" x="362.98372" y="-70.3198" font-size="24" font-family="serif" text-anchor="middle" xml:space="preserve" transform="matrix(0.6043683402968777,0,0,0.8149751693537028,239.9482370862002,132.99547020558677) " id="svg_87" opacity="0.7">History of</text>
  <a id="svg_26" xlink:href="https://youtu.be/1Q5PKOaaHwc" stroke="null">
   <path id="svg_44" marker-mid="url(#se_marker_mid_svg_44)" d="m240.27154,184.68171c-8.26903,0 -14.97223,6.47597 -14.97223,14.46469c0,7.98872 6.7032,14.46469 14.97223,14.46469c8.26903,0 14.97222,-6.47597 14.97222,-14.46469c0,-7.98872 -6.70319,-14.46469 -14.97222,-14.46469zm-2.40541,24.14332l-3.64261,-3.52213l6.37355,-6.15749l-6.37355,-6.1575l3.64261,-3.51914l10.0172,9.67664l-10.0172,9.67962z" stroke-linecap="null" stroke-linejoin="null" stroke-dasharray="null" stroke-width="0" fill="#003f7f" stroke="#000000"/>
  </a>
  <a id="svg_57" xlink:href="https://youtu.be/1Q5PKOaaHwc" stroke="null">
   <path id="svg_43" marker-mid="url(#se_marker_mid_svg_44)" d="m404.77154,183.68171c-8.26903,0 -14.97223,6.47597 -14.97223,14.46469c0,7.98872 6.7032,14.46469 14.97223,14.46469c8.26903,0 14.97222,-6.47597 14.97222,-14.46469c0,-7.98872 -6.70319,-14.46469 -14.97222,-14.46469zm-2.40541,24.14332l-3.64261,-3.52213l6.37355,-6.15749l-6.37355,-6.1575l3.64261,-3.51914l10.0172,9.67664l-10.0172,9.67962z" stroke-linecap="null" stroke-linejoin="null" stroke-dasharray="null" stroke-width="0" fill="#003f7f" stroke="#000000"/>
  </a>
  <a id="svg_58" xlink:href="https://youtu.be/vl1gpcwrO-0" stroke="null">
   <path id="svg_42" marker-mid="url(#se_marker_mid_svg_44)" d="m569.27154,181.68172c-8.26903,0 -14.97223,6.47597 -14.97223,14.46469c0,7.98872 6.7032,14.46469 14.97223,14.46469c8.26903,0 14.97222,-6.47597 14.97222,-14.46469c0,-7.98872 -6.70319,-14.46469 -14.97222,-14.46469zm-2.40541,24.14331l-3.64261,-3.52212l6.37355,-6.1575l-6.37355,-6.15749l3.64261,-3.51914l10.0172,9.67663l-10.0172,9.67962z" stroke-linecap="null" stroke-linejoin="null" stroke-dasharray="null" stroke-width="0" fill="#003f7f" stroke="#000000"/>
  </a>
  <a id="svg_59" xlink:href="https://youtu.be/g8VZZ6rI6yw" stroke="null">
   <path id="svg_41" marker-mid="url(#se_marker_mid_svg_41)" d="m237.77154,385.93071c-8.26903,0 -14.97223,6.47597 -14.97223,14.46469c0,7.98872 6.7032,14.46469 14.97223,14.46469c8.26903,0 14.97222,-6.47597 14.97222,-14.46469c0,-7.98872 -6.70319,-14.46469 -14.97222,-14.46469zm-2.40541,24.14332l-3.64261,-3.52213l6.37355,-6.15749l-6.37355,-6.1575l3.64261,-3.51914l10.0172,9.67664l-10.0172,9.67962z" stroke-linecap="null" stroke-linejoin="null" stroke-dasharray="null" stroke-width="0" fill="#003f7f" stroke="#000000"/>
  </a>
  <a id="svg_70" xlink:href="https://youtu.be/nlsd8qOOyy4" stroke="null">
   <path id="svg_40" marker-mid="url(#se_marker_mid_svg_41)" d="m404.52154,383.43071c-8.26903,0 -14.97223,6.47597 -14.97223,14.46469c0,7.98872 6.7032,14.46469 14.97223,14.46469c8.26903,0 14.97222,-6.47597 14.97222,-14.46469c0,-7.98872 -6.70319,-14.46469 -14.97222,-14.46469zm-2.40541,24.14332c-1.2142,-1.17404 -2.42841,-2.34809 -3.64261,-3.52213l6.37355,-6.15749l-6.37355,-6.1575l3.64261,-3.51914l10.0172,9.67664l-10.0172,9.67962z" stroke-linecap="null" stroke-linejoin="null" stroke-dasharray="null" stroke-width="0" fill="#003f7f" stroke="#000000"/>
  </a>
  <a id="svg_71" xlink:href="https://youtu.be/pDrYJgDLzWI" stroke="null">
   <path id="svg_39" marker-mid="url(#se_marker_mid_svg_41)" d="m568.02154,382.84839c-8.26903,0 -14.97223,6.47597 -14.97223,14.46469c0,7.98872 6.7032,14.46469 14.97223,14.46469c8.26903,0 14.97222,-6.47597 14.97222,-14.46469c0,-7.98872 -6.70319,-14.46469 -14.97222,-14.46469zm-2.40541,24.14331l-3.64261,-3.52212l6.37355,-6.1575l-6.37355,-6.15749l3.64261,-3.51914l10.0172,9.67663l-10.0172,9.67962z" stroke-linecap="null" stroke-linejoin="null" stroke-dasharray="null" stroke-width="0" fill="#003f7f" stroke="#000000"/>
  </a>
  <text fill="#3f3f3f" stroke-width="0" stroke-dasharray="null" stroke-linejoin="null" stroke-linecap="null" x="772.10043" y="542.0428" id="svg_83" font-size="24" font-family="serif" text-anchor="middle" xml:space="preserve" stroke="#000000"/>
  <g id="svg_180" stroke="null"/>
  <text fill="#003f7f" stroke-width="0" stroke-dasharray="null" stroke-linejoin="null" stroke-linecap="null" x="557.04728" y="402.09867" font-size="24" font-family="serif" text-anchor="middle" xml:space="preserve" transform="matrix(0.555779614388433,0,0,0.7164250417897482,151.98112571573103,-6.820362574389918) " id="svg_34" font-weight="normal" opacity="0.7">The Way Forward</text>
  <text fill="#003f7f" stroke-width="0" stroke-dasharray="null" stroke-linejoin="null" stroke-linecap="null" x="802.61461" y="398.10616" font-size="24" font-family="serif" text-anchor="middle" xml:space="preserve" transform="matrix(0.5662378612804042,0,0,0.7788348768816844,175.07146873092282,-26.875128475722814) " id="svg_46" opacity="0.7">People and Planet</text>
  <text fill="#ffffff" stroke-width="0" stroke-dasharray="null" stroke-linejoin="null" stroke-linecap="null" x="1933.02815" y="-64.42833" id="svg_49" font-size="24" font-family="serif" text-anchor="middle" xml:space="preserve" font-style="italic" transform="matrix(0.7412554637794244,0,0,0.7085077223223055,-586.1691213446101,97.83211238686852) " opacity="0.8" stroke="null">Biography</text>
  <text id="svg_38" transform="matrix(0.7099219037198672,0,0,0.9770691509288689,307.66647461738677,20.652230069213566) " font-weight="normal" xml:space="preserve" text-anchor="middle" font-family="Cursive" font-size="24" y="46.9828" x="-274.17387" stroke-linecap="null" stroke-linejoin="null" stroke-dasharray="null" stroke-width="0" fill="#3f7f00" opacity="0.85">through Green Chemistry</text>
  <text fill="#003f7f" stroke-width="0" stroke-dasharray="null" stroke-linejoin="null" stroke-linecap="null" opacity="0.75" x="381.79165" y="201.85668" font-size="24" font-family="serif" text-anchor="middle" xml:space="preserve" transform="matrix(0.5008423556167374,0,0,0.7099842025139343,-38.71530725896335,-3.070002232806541) " stroke="#000000" id="svg_2">Prof. Herbert Waldmann</text>
  <text transform="matrix(0.6215540477269662,0,0,0.6622403484780386,137.1217269739792,183.13295992220498) " xml:space="preserve" text-anchor="middle" font-family="serif" font-size="24" y="425.2425" x="266.89046" stroke-linecap="null" stroke-linejoin="null" stroke-dasharray="null" stroke-width="0" fill="#007f3f" stroke="#000000" id="svg_3">Part 7-</text>
  <text transform="matrix(0.6618902468910661,0,0,0.6865054689359466,131.88809836840682,169.4648329152945) " xml:space="preserve" text-anchor="middle" font-family="serif" font-size="24" y="433.97239" x="494.9786" stroke-linecap="null" stroke-linejoin="null" stroke-dasharray="null" stroke-width="0" fill="#007f3f" stroke="#000000" id="svg_11">Part 8-</text>
  <text fill="#003f7f" stroke-width="0" stroke-dasharray="null" stroke-linejoin="null" stroke-linecap="null" x="192.52354" y="572.57013" font-size="24" font-family="serif" text-anchor="middle" xml:space="preserve" transform="matrix(0.4795825990466043,0,0,0.7333755641453304,211.33936134099014,71.80697729054829) " font-weight="normal" opacity="0.7" id="svg_23">Taking Green Chemistry</text>
  <text fill="#003f7f" stroke-width="0" stroke-dasharray="null" stroke-linejoin="null" stroke-linecap="null" x="371.12215" y="580.98712" font-size="24" font-family="serif" text-anchor="middle" xml:space="preserve" transform="matrix(0.6459762416692447,0,0,0.7151439368503051,226.5183204404156,77.14575693558834) " font-weight="normal" opacity="0.7" id="svg_24">Cloud Chemistry</text>
  <a id="svg_35" xlink:href="https://youtu.be/AZEsgmS9Nac">
   <path marker-mid="url(#se_marker_mid_svg_41)" d="m241.99999,587.03532c-8.26903,0 -14.97223,6.47597 -14.97223,14.46469c0,7.98872 6.7032,14.46469 14.97223,14.46469c8.26903,0 14.97222,-6.47597 14.97222,-14.46469c0,-7.98872 -6.70319,-14.46469 -14.97222,-14.46469zm-2.40541,24.14332l-3.64261,-3.52213l6.37355,-6.15749l-6.37355,-6.1575l3.64261,-3.51914l10.0172,9.67664l-10.0172,9.67962z" stroke-linecap="null" stroke-linejoin="null" stroke-dasharray="null" stroke-width="0" fill="#003f7f" stroke="#000000" id="svg_5"/>
  </a>
  <a id="svg_54" xlink:href="https://youtu.be/AsjJ0nRKURk">
   <path marker-mid="url(#se_marker_mid_svg_41)" d="m405.00001,587.03532c-8.26903,0 -14.97223,6.47597 -14.97223,14.46469c0,7.98872 6.7032,14.46469 14.97223,14.46469c8.26903,0 14.97222,-6.47597 14.97222,-14.46469c0,-7.98872 -6.70319,-14.46469 -14.97222,-14.46469zm-2.40541,24.14332l-3.64261,-3.52213l6.37355,-6.15749l-6.37355,-6.1575l3.64261,-3.51914l10.0172,9.67664l-10.0172,9.67962z" stroke-linecap="null" stroke-linejoin="null" stroke-dasharray="null" stroke-width="0" fill="#003f7f" stroke="#000000" id="svg_10"/>
  </a>
  <text fill="#003f7f" stroke-width="0" stroke-dasharray="null" stroke-linejoin="null" stroke-linecap="null" x="516.78349" y="-326.76677" font-size="24" font-family="serif" text-anchor="middle" xml:space="preserve" transform="matrix(0.6106478623657707,0,0,0.741127038819819,146.34884985217195,334.30055382245973) " opacity="0.7" id="svg_55">Green Chemistry</text>
  <text fill="#003f7f" stroke-width="0" stroke-dasharray="null" stroke-linejoin="null" stroke-linecap="null" x="188.18717" y="421.4641" font-size="24" font-family="serif" text-anchor="middle" xml:space="preserve" transform="matrix(0.6572540987372264,0,0,0.7081926684312921,176.23396318617228,-5.155739580233131) " font-weight="normal" opacity="0.7" id="svg_56">12 Principle</text>
  <text transform="matrix(0.6211703478445312,0,0,0.6603177830695406,211.82902340270448,181.03848256604425) " xml:space="preserve" text-anchor="middle" font-family="serif" font-size="24" y="434.60168" x="657.10785" stroke-linecap="null" stroke-linejoin="null" stroke-dasharray="null" stroke-width="0" fill="#007f3f" stroke="#000000" id="svg_67">Part 9-</text>
  <text fill="#003f7f" stroke-width="0" stroke-dasharray="null" stroke-linejoin="null" stroke-linecap="null" x="538.70564" y="578.88283" font-size="24" font-family="serif" text-anchor="middle" xml:space="preserve" transform="matrix(0.6090543974471989,0,0,0.6929711361789399,292.47813896491493,91.97339005001687) " font-weight="normal" opacity="0.7" id="svg_68">Ｑ＆Ａ</text>
  <a id="svg_37" xlink:href="https://youtu.be/FFk1UwfB274">
   <path stroke="#000000" id="svg_36" marker-mid="url(#se_marker_mid_svg_41)" d="m53.00001,587.53532c-8.26903,0 -14.97223,6.47597 -14.97223,14.46469c0,7.98872 6.7032,14.46469 14.97223,14.46469c8.26903,0 14.97222,-6.47597 14.97222,-14.46469c0,-7.98872 -6.70319,-14.46469 -14.97222,-14.46469zm-2.40541,24.14332l-3.64261,-3.52213l6.37355,-6.15749l-6.37355,-6.1575l3.64261,-3.51914l10.0172,9.67664l-10.0172,9.67962z" stroke-linecap="null" stroke-linejoin="null" stroke-dasharray="null" stroke-width="0" fill="#003f7f"/>
  </a>
  <a id="svg_47" xlink:href="https://youtu.be/Iznp0zEX3M0">
   <path id="svg_14" marker-mid="url(#se_marker_mid_svg_41)" d="m570.00001,585.53532c-8.26903,0 -14.97223,6.47597 -14.97223,14.46469c0,7.98872 6.7032,14.46469 14.97223,14.46469c8.26903,0 14.97222,-6.47597 14.97222,-14.46469c0,-7.98872 -6.70319,-14.46469 -14.97222,-14.46469zm-2.40541,24.14332l-3.64261,-3.52213l6.37355,-6.15749l-6.37355,-6.1575l3.64261,-3.51914l10.0172,9.67664l-10.0172,9.67962z" stroke-linecap="null" stroke-linejoin="null" stroke-dasharray="null" stroke-width="0" fill="#003f7f" stroke="#000000"/>
  </a>
  <text fill="#ffffff" stroke-width="0" stroke-dasharray="null" stroke-linejoin="null" stroke-linecap="null" opacity="0.8" x="722.36273" y="519.54998" font-size="24" font-family="serif" text-anchor="middle" xml:space="preserve" transform="translate(554.5355224609375,435.7587890625) scale(1.1204942464828491,1.086641550064087) translate(-554.5355224609375,-435.7587890625) translate(554.274658203125,435.3764953613281) scale(1.0869497060775757,1.1274291276931763) translate(-554.274658203125,-435.3764953613281) translate(554.9812622070312,435.6423034667969) scale(0.7644617557525635,0.9113956093788147) translate(-554.9812622070312,-435.6423034667969) translate(388.8465576171875,441.1921691894531) scale(1.0136302709579468,0.8249392509460449) translate(-388.8465576171875,-441.1921691894531) translate(888.8558959960938,436.2577209472656) scale(0.9734276533126831,1) translate(-888.8558959960938,-436.2577209472656) translate(889.87255859375,504.8636779785156) scale(1) translate(-889.87255859375,-504.8636779785156) translate(889.914306640625,505.77667236328125) scale(1.0139044523239136,1.3043327331542969) translate(-889.914306640625,-505.77667236328125) translate(888.4232177734375,504.6651611328125) scale(1) translate(-888.4232177734375,-504.6651611328125) translate(888.3218994140625,504.255126953125) scale(0.9399330019950867,0.7570223808288574) translate(-888.3218994140625,-504.255126953125) translate(888.0772705078125,504.109619140625) scale(0.8550723195075989,0.9137715697288513) translate(-888.0772705078125,-504.109619140625) matrix(1.0937924253894378,0,0,1.0937924253894378,71.03591400341189,-39.500754610857044) " font-style="italic" stroke="null" id="svg_51">Q &amp; A</text>
  <a id="svg_53" xlink:href="https://youtu.be/i9_l5gNulWQ">
   <path marker-mid="url(#se_marker_mid_svg_41)" d="m734.00001,590.53529c-8.26903,0 -14.97223,6.47597 -14.97223,14.46469c0,7.98872 6.7032,14.46469 14.97223,14.46469c8.26903,0 14.97222,-6.47597 14.97222,-14.46469c0,-7.98872 -6.70319,-14.46469 -14.97222,-14.46469zm-2.40541,24.14332l-3.64261,-3.52213l6.37355,-6.15749l-6.37355,-6.1575l3.64261,-3.51914l10.0172,9.67664l-10.0172,9.67962z" stroke-linecap="null" stroke-linejoin="null" stroke-dasharray="null" stroke-width="0" fill="#003f7f" stroke="#000000" id="svg_52"/>
  </a>
  <text id="svg_86" fill="#ffffff" stroke-width="0" stroke-dasharray="null" stroke-linejoin="null" stroke-linecap="null" opacity="0.8" x="677.7601" y="352.33371" font-size="24" font-family="serif" text-anchor="middle" xml:space="preserve" transform="translate(554.5355224609375,435.7587890625) scale(1.1204942464828491,1.086641550064087) translate(-554.5355224609375,-435.7587890625) translate(554.274658203125,435.3764953613281) scale(1.0869497060775757,1.1274291276931763) translate(-554.274658203125,-435.3764953613281) translate(554.9812622070312,435.6423034667969) scale(0.7644617557525635,0.9113956093788147) translate(-554.9812622070312,-435.6423034667969) translate(388.8465576171875,441.1921691894531) scale(1.0136302709579468,0.8249392509460449) translate(-388.8465576171875,-441.1921691894531) translate(888.8558959960938,436.2577209472656) scale(0.9734276533126831,1) translate(-888.8558959960938,-436.2577209472656) translate(889.87255859375,504.8636779785156) scale(1) translate(-889.87255859375,-504.8636779785156) translate(889.914306640625,505.77667236328125) scale(1.0139044523239136,1.3043327331542969) translate(-889.914306640625,-505.77667236328125) translate(888.4232177734375,504.6651611328125) scale(1) translate(-888.4232177734375,-504.6651611328125) translate(888.3218994140625,504.255126953125) scale(0.9399330019950867,0.7570223808288574) translate(-888.3218994140625,-504.255126953125) translate(888.0772705078125,504.109619140625) scale(0.8550723195075989,0.9137715697288513) translate(-888.0772705078125,-504.109619140625) matrix(1.0937924253894378,0,0,1.0937924253894378,71.03591400341189,-39.500754610857044) " font-style="italic" stroke="null">Further Reading</text>
  <text id="svg_89" fill="#003f7f" stroke-width="0" stroke-dasharray="null" stroke-linejoin="null" stroke-linecap="null" opacity="0.75" x="368.54354" y="221.73765" font-size="24" font-family="serif" text-anchor="middle" xml:space="preserve" transform="matrix(0.6151190372184463,0,0,0.7099842025139343,-74.68683202514285,-3.070002232806541) " stroke="#000000">23 May 2013</text>
 </g>
</svg>