<svg width="904.9999999999999" height="640.0000000000001" xmlns="http://www.w3.org/2000/svg" xmlns:svg="http://www.w3.org/2000/svg" xmlns:xlink="http://www.w3.org/1999/xlink">
 <!-- Created with SVG-edit - http://svg-edit.googlecode.com/ -->
 <title>On the Social Dynamics of Philosophical Ideas: Dai Zhen&#x27;s Critique of Neo-Confucianism</title>
 <defs>
  <marker id="se_marker_mid_svg_41" markerUnits="strokeWidth" orient="auto" viewBox="0 0 100 100" markerWidth="5" markerHeight="5" refX="50" refY="50">
   <path stroke="#000000" id="svg_4" d="m100,50l-100,40l30,-40l-30,-40l100,40z" fill="#000000" stroke-width="10"/>
  </marker>
  <marker id="se_marker_mid_svg_44" markerUnits="strokeWidth" orient="auto" viewBox="0 0 100 100" markerWidth="5" markerHeight="5" refX="50" refY="50">
   <path stroke="#000000" id="svg_6" d="m100,50l-100,40l30,-40l-30,-40l100,40z" fill="#000000" stroke-width="10"/>
  </marker>
  <pattern height="100" width="100" y="0" x="0" patternUnits="userSpaceOnUse" id="gridpattern">
   <image height="100" width="100" y="0" x="0" id="svg_7"/>
  </pattern>
  <pattern id="gridpattern" patternUnits="userSpaceOnUse" x="0" y="0" width="100" height="100">
   <image id="svg_5" x="0" y="0" width="100" height="100"/>
  </pattern>
 </defs>
 <g display="none">
  <title>圖遮罩</title>
 </g>
 <g display="inline" stroke="null">
  <title>文字</title>
 </g>
 <g stroke="null" display="inline">
  <title>色塊</title>
  <rect opacity="0.3" height="200.99998" width="160" y="217.74077" x="355.99998" stroke-width="0" fill="#ff7f00" id="svg_14" stroke="#000000"/>
  <image x="361.8333" y="317.65914" width="140" height="100" xlink:href="https://farm5.staticflickr.com/4229/34749844700_02f7ebb687_b.jpg" id="svg_60"/>
  <rect opacity="0.3" height="200.99998" width="160" y="14.33333" x="355.99998" stroke-width="0" fill="#ff7f00" id="svg_11" stroke="#000000"/>
  <image x="362.49998" y="112.32582" width="140" height="100" xlink:href="https://farm5.staticflickr.com/4221/35136473525_e8b428037d_b.jpg" id="svg_56"/>
  <image xlink:href="https://c1.staticflickr.com/1/814/41304698811_2ea28675f0_o.png" height="354" width="177" y="84.91825" x="528.25005" id="svg_75"/>
  <rect opacity="0.3" height="609.33332" width="188.66664" y="13" x="12.33332" stroke-width="0" fill="#ff7f00" id="svg_29" stroke="#000000"/>
  <rect opacity="0.3" height="200.99998" width="353.33328" y="423.83334" x="358.6667" stroke-width="0" fill="#ff7f00" id="svg_1" stroke="#000000"/>
  <rect opacity="0.3" height="200.99998" width="150.00001" y="217.50001" x="201.99998" stroke-width="0" fill="#ff7f00" id="svg_32" stroke="#000000"/>
  <rect opacity="0.3" height="200.99998" width="150.00001" y="14.50002" x="201.99998" stroke-width="0" fill="#ff7f00" stroke="#000000" id="svg_33"/>
  <rect opacity="0.3" height="200.99998" width="150.00001" y="421.59715" x="203.23173" stroke-width="0" fill="#ff7f00" stroke="#000000" id="svg_34"/>
  <text stroke="#000000" fill="#ff7f00" stroke-width="0" stroke-dasharray="null" stroke-linejoin="null" stroke-linecap="null" x="419.15198" y="46.90215" font-size="24" font-family="serif" text-anchor="middle" xml:space="preserve" id="svg_63">Part 2-</text>
  <text fill="#ff7f00" stroke-width="0" stroke-dasharray="null" stroke-linejoin="null" stroke-linecap="null" x="394.21734" y="255.33846" font-size="24" font-family="serif" text-anchor="middle" xml:space="preserve" stroke="#000000" id="svg_66">Part 4-</text>
  <path stroke="#000000" fill="#ff7f00" stroke-width="0" stroke-dasharray="null" stroke-linejoin="null" stroke-linecap="null" d="m485.77152,177.00753c-8.26903,0 -14.97223,6.47597 -14.97223,14.46469c0,7.98872 6.7032,14.46469 14.97223,14.46469c8.26903,0 14.97222,-6.47597 14.97222,-14.46469c0,-7.98872 -6.70319,-14.46469 -14.97222,-14.46469zm-2.40541,24.14331l-3.64261,-3.52212l6.37355,-6.1575l-6.37355,-6.15749l3.64261,-3.51914l10.0172,9.67663l-10.0172,9.67962z" marker-mid="url(#se_marker_mid_svg_44)" id="svg_42"/>
  <path stroke="#000000" fill="#ff7f00" stroke-width="0" stroke-dasharray="null" stroke-linejoin="null" stroke-linecap="null" d="m482.77152,382.42419c-8.26903,0 -14.97223,6.47597 -14.97223,14.46469c0,7.98872 6.7032,14.46469 14.97223,14.46469c8.26903,0 14.97222,-6.47597 14.97222,-14.46469c0,-7.98872 -6.70319,-14.46469 -14.97222,-14.46469zm-2.40541,24.14331l-3.64261,-3.52212l6.37355,-6.1575l-6.37355,-6.15749l3.64261,-3.51914l10.0172,9.67663l-10.0172,9.67962z" marker-mid="url(#se_marker_mid_svg_41)" id="svg_39"/>
  <text xml:space="preserve" text-anchor="middle" font-family="serif" font-size="24" y="549.70194" x="388.60041" stroke-linecap="null" stroke-linejoin="null" stroke-dasharray="null" stroke-width="0" stroke="#000000" fill="#3f3f3f" id="svg_83"/>
  <text transform="matrix(0.7551476231087061,0,0,0.9760785598669027,90.70318029293975,-215.27583706939265) " stroke="#000000" xml:space="preserve" text-anchor="middle" font-family="serif" font-size="24" y="300.31684" x="440.69313" stroke-linecap="null" stroke-linejoin="null" stroke-dasharray="null" stroke-width="0" fill="#3f007f" id="svg_53" font-weight="normal">Prospect of</text>
  <text transform="matrix(0.8463103254089382,0,0,0.8992864847184319,-32.67755966821328,-91.86665665244679) " stroke="#000000" xml:space="preserve" text-anchor="middle" font-family="serif" font-size="24" y="412.95484" x="547.77757" stroke-linecap="null" stroke-linejoin="null" stroke-dasharray="null" stroke-width="0" fill="#3f007f" id="svg_86" font-weight="normal">Status of</text>
  <text stroke="#000000" fill="#ff7f00" stroke-width="0" stroke-dasharray="null" stroke-linejoin="null" stroke-linecap="null" x="221.69898" y="-143.97205" font-size="24" font-family="serif" text-anchor="middle" xml:space="preserve" transform="matrix(1.052982687789643,0,0,1.222514027368916,25.071080716838146,223.30733026793217) " id="svg_35">Part 1-</text>
  <text transform="matrix(0.830775150442637,0,0,1.0738321721506978,94.9571683258443,-232.97129007220093) " stroke="#000000" xml:space="preserve" text-anchor="middle" font-family="serif" font-size="24" y="309.73651" x="214.54665" stroke-linecap="null" stroke-linejoin="null" stroke-dasharray="null" stroke-width="0" fill="#3f007f" id="svg_37" font-weight="normal">Introduction</text>
  <text fill="#ff7f00" stroke-width="0" stroke-dasharray="null" stroke-linejoin="null" stroke-linecap="null" x="254.51411" y="249.54356" font-size="24" font-family="serif" text-anchor="middle" xml:space="preserve" stroke="#000000" id="svg_38">Part 3-</text>
  <text stroke="#000000" fill="#ff7f00" stroke-width="0" stroke-dasharray="null" stroke-linejoin="null" stroke-linecap="null" x="255.51411" y="450.54356" font-size="24" font-family="serif" text-anchor="middle" xml:space="preserve" id="svg_40">Part 5-</text>
  <image x="206.5" y="112.8258" width="140" height="100" xlink:href="https://farm5.staticflickr.com/4211/35136473635_198cba87d3_b.jpg" id="svg_44"/>
  <image x="205.5" y="316.8258" width="140" height="100" xlink:href="https://farm5.staticflickr.com/4233/35005551611_e051617641_b.jpg" id="svg_46"/>
  <image x="208.16667" y="516.82579" width="140" height="100" xlink:href="https://farm5.staticflickr.com/4249/35005550271_6745a50dd0_b.jpg" id="svg_47"/>
  <text stroke="#000000" transform="matrix(0.7436340306561817,0,0,0.7436340306561817,46.724791203560855,67.16814475366508) " xml:space="preserve" text-anchor="middle" font-family="serif" font-size="24" y="303.15124" x="311.28329" stroke-linecap="null" stroke-linejoin="null" stroke-dasharray="null" stroke-width="0" fill="#3f007f" id="svg_49" font-weight="normal">Negative views  of</text>
  <text stroke="#000000" transform="matrix(0.8469695448875427,0,0,0.8469695448875427,55.16987016890198,16.780745843425393) " fill="#3f007f" stroke-width="0" stroke-dasharray="null" stroke-linejoin="null" stroke-linecap="null" x="435.49998" y="104.65914" font-size="24" font-family="serif" text-anchor="middle" xml:space="preserve" id="svg_50" font-weight="normal">Chinese culture</text>
  <text stroke="#000000" transform="matrix(0.7365990877151489,0,0,0.7365990877151489,50.70467561483383,77.83085394091904) " xml:space="preserve" text-anchor="middle" font-family="serif" font-size="24" y="319.21089" x="300.02748" stroke-linecap="null" stroke-linejoin="null" stroke-dasharray="null" stroke-width="0" fill="#3f007f" id="svg_51" font-weight="normal">Chinese Culture</text>
  <text fill="#3f007f" stroke-width="0" stroke-dasharray="null" stroke-linejoin="null" stroke-linecap="null" x="294.38346" y="304.65914" font-size="24" font-family="serif" text-anchor="middle" xml:space="preserve" transform="matrix(0.7525685161908057,0,0,0.9176361560821533,209.49610211336585,31.788891691714525) " stroke="#000000" id="svg_52" font-weight="normal">Chinese Culture</text>
  <image x="567.16661" y="522.65914" width="140" height="100" xlink:href="https://farm5.staticflickr.com/4214/35136469505_fccf073fd3_b.jpg" id="svg_57"/>
  <image x="567.16664" y="427.99247" width="140" height="100" xlink:href="https://farm5.staticflickr.com/4196/35005552141_0fc388529b_b.jpg" id="svg_61"/>
  <path stroke="#000000" fill="#ff7f00" stroke-width="0" stroke-dasharray="null" stroke-linejoin="null" stroke-linecap="null" d="m313.27619,211.26563c-7.70333,0 -13.94795,6.03293 -13.94795,13.47513c0,7.4422 6.24463,13.47513 13.94795,13.47513c7.70333,0 13.94795,-6.03293 13.94795,-13.47513c0,-7.4422 -6.24462,-13.47513 -13.94795,-13.47513zm-2.24086,22.49162l-3.39341,-3.28117l5.93752,-5.73626l-5.93752,-5.73625l3.39341,-3.27839l9.33191,9.01464l-9.33191,9.01742z" marker-mid="url(#se_marker_mid_svg_44)" id="svg_36"/>
  <path stroke="#000000" fill="#ff7f00" stroke-width="0" stroke-dasharray="null" stroke-linejoin="null" stroke-linecap="null" d="m331.16664,381.52777c-8.26903,0 -14.97223,6.47597 -14.97223,14.46469c0,7.98872 6.7032,14.46469 14.97223,14.46469c8.26903,0 14.97222,-6.47597 14.97222,-14.46469c0,-7.98872 -6.70319,-14.46469 -14.97222,-14.46469zm-2.40541,24.14331l-3.64261,-3.52212l6.37355,-6.1575l-6.37355,-6.15749l3.64261,-3.51914l10.0172,9.67663l-10.0172,9.67962z" marker-mid="url(#se_marker_mid_svg_41)" id="svg_41"/>
  <path stroke="#000000" fill="#ff7f00" stroke-width="0" stroke-dasharray="null" stroke-linejoin="null" stroke-linecap="null" d="m333.16664,591.19444c-8.26903,0 -14.97223,6.47597 -14.97223,14.46469c0,7.98872 6.7032,14.46469 14.97223,14.46469c8.26903,0 14.97222,-6.47597 14.97222,-14.46469c0,-7.98872 -6.70319,-14.46469 -14.97222,-14.46469zm-2.40541,24.14331l-3.64261,-3.52212l6.37355,-6.1575l-6.37355,-6.15749l3.64261,-3.51914l10.0172,9.67663l-10.0172,9.67962z" marker-mid="url(#se_marker_mid_svg_41)" id="svg_43"/>
  <text stroke="#000000" transform="matrix(0.8024595427285081,0,0,0.8024595427285081,113.36934510938877,88.86628049996506) " xml:space="preserve" text-anchor="middle" font-family="serif" font-size="24" y="507.87745" x="205.50821" stroke-linecap="null" stroke-linejoin="null" stroke-dasharray="null" stroke-width="0" fill="#3f007f" id="svg_3" font-weight="normal">Conclusion &amp; QA</text>
  <rect opacity="0.3" height="405.33337" width="193.33333" y="13.33334" x="521.00005" stroke-width="0" fill="#ff7f00" id="svg_2" stroke="#000000"/>
  <rect height="44.82979" width="172" y="48.83334" x="524.00008" stroke-linecap="null" stroke-linejoin="null" stroke-dasharray="null" stroke-width="5" fill="#ffffaa" id="svg_10"/>
  <text xml:space="preserve" text-anchor="middle" font-family="serif" font-size="24" y="196.81136" x="921.27043" opacity="0.8" stroke-linecap="null" stroke-linejoin="null" stroke-dasharray="null" stroke-width="0" fill="#7f003f" font-style="italic" transform="matrix(0.9301310181617737,0,0,0.8787878751754761,1.9475978687405586,24.759470434859395) " id="svg_25">Abstract</text>
  <text transform="matrix(0.8654022773063423,0,0,1.080265499134196,164.74975556016017,-95.7767609533773) " font-style="italic" xml:space="preserve" text-anchor="middle" font-family="serif" font-size="24" y="167.1258" x="531.39748" opacity="0.8" stroke-linecap="null" stroke-linejoin="null" stroke-dasharray="null" stroke-width="0" fill="#7f003f" id="svg_16">Speakers&#x27; Biography</text>
  <text xml:space="preserve" text-anchor="middle" font-family="serif" font-size="24" y="419.87901" x="31.56059" opacity="0.8" stroke-linecap="null" stroke-linejoin="null" stroke-dasharray="null" stroke-width="0" fill="#7f003f" font-weight="bold" transform="matrix(0.8286744756363693,0,0,0.8286744756363693,49.6280336205801,-11.502187149463849) " stroke="#000000" id="svg_26">王安憶教授</text>
  <image xlink:href="https://c1.staticflickr.com/1/884/26432679977_a34bcacfcf_o.png" height="354" width="177" y="308.66509" x="718.91673" id="svg_18"/>
  <image xlink:href="https://c1.staticflickr.com/1/820/41304698671_a91bc19a29_o.png" height="354" width="177" y="31.74842" x="718.08338" id="svg_19"/>
  <image x="23.12507" y="80.06527" width="84" height="101" xlink:href="https://c1.staticflickr.com/1/901/41262106902_cf57322abb_o.png" id="svg_17"/>
  <image x="16.20843" y="379.58334" width="84" height="101" xlink:href="https://c1.staticflickr.com/1/822/41262106662_cf57322abb_o.png" id="svg_22"/>
  <image x="19.04171" y="212.74999" width="84" height="101" xlink:href="https://c1.staticflickr.com/1/788/27432509848_7b261e9743_o.png" id="svg_23"/>
  <text stroke="#000000" transform="matrix(0.8075674357352267,0,0,1.4276628289956974,104.97486633187326,-282.9669674393547) " xml:space="preserve" text-anchor="middle" font-family="serif" font-size="24" y="595.98087" x="-22.91775" opacity="0.8" stroke-linecap="null" stroke-linejoin="null" stroke-dasharray="null" stroke-width="0" fill="#7f003f" font-weight="bold" id="svg_107">9 October 2014</text>
  <text stroke="#000000" transform="matrix(0.5949540764003001,0,0,0.9407401547255868,82.45351328039267,18.13481256948225) " xml:space="preserve" text-anchor="middle" font-family="serif" font-size="24" y="200.86662" x="28.03682" opacity="0.8" stroke-linecap="null" stroke-linejoin="null" stroke-dasharray="null" stroke-width="0" fill="#7f003f" font-weight="bold" id="svg_111">袁明教授 Prof. Yuan Ming</text>
  <text stroke="#000000" transform="matrix(0.9059639616389908,0,0,0.9059639616389908,194.06583780805622,-165.56617901342966) " xml:space="preserve" text-anchor="middle" font-family="serif" font-size="24" y="735.43355" x="-130.80191" opacity="0.8" stroke-linecap="null" stroke-linejoin="null" stroke-dasharray="null" stroke-width="0" fill="#7f003f" font-weight="bold" id="svg_117">張其成教授</text>
  <text stroke="#000000" transform="matrix(0.7219333048213782,0,0,0.7219333048213782,157.72758232195451,-38.671770150311715) " xml:space="preserve" text-anchor="middle" font-family="serif" font-size="24" y="785.78896" x="-82.42431" opacity="0.8" stroke-linecap="null" stroke-linejoin="null" stroke-dasharray="null" stroke-width="0" fill="#7f003f" font-weight="bold" id="svg_124">Prof. Zhang Qicheng</text>
  <text xml:space="preserve" text-anchor="middle" font-family="serif" font-size="24" y="419.87901" x="31.56059" opacity="0.8" stroke-linecap="null" stroke-linejoin="null" stroke-dasharray="null" stroke-width="0" fill="#7f003f" font-weight="bold" id="svg_132" transform="matrix(0.8056792020797731,0,0,0.8056792020797731,64.93047395721078,28.10957593098283) " stroke="#000000">Prof. Wang Anyi</text>
  <rect opacity="0.3" height="606.66669" width="188" y="13.99999" x="712.99997" stroke-width="0" fill="#ff7f00" stroke="#000000" id="svg_141"/>
  <text transform="matrix(1.1120981541513726,0,0,1.4374608772071207,-76.76493238481265,-560.9918695276617) " stroke="#000000" xml:space="preserve" text-anchor="middle" font-family="serif" font-size="24" y="708.54919" x="429.64006" stroke-linecap="null" stroke-linejoin="null" stroke-dasharray="null" stroke-width="0" fill="#3f007f" id="svg_149" font-style="italic" font-weight="normal">News</text>
  <a id="svg_151" xlink:href="https://newscentre.cityu.edu.hk/media/news/2014/10/13/distinguished-scholars-discuss-development-chinese-culture-and-world">
   <text transform="matrix(0.7194581443798312,0,0,0.9299475333840638,105.31464279819488,-200.77741814427333) " stroke="#000000" xml:space="preserve" text-anchor="middle" font-family="serif" font-size="24" y="780.45147" x="486.74185" stroke-linecap="null" stroke-linejoin="null" stroke-dasharray="null" stroke-width="0" fill="#3f007f" id="svg_143" font-weight="normal">Distinguished scholars</text>
  </a>
  <a id="svg_152" xlink:href="https://newscentre.cityu.edu.hk/media/news/2014/10/13/distinguished-scholars-discuss-development-chinese-culture-and-world">
   <text transform="matrix(0.7194581443798312,0,0,0.9299475333840638,105.31464279819488,-200.77741814427333) " stroke="#000000" xml:space="preserve" text-anchor="middle" font-family="serif" font-size="24" y="810.34705" x="496.35696" stroke-linecap="null" stroke-linejoin="null" stroke-dasharray="null" stroke-width="0" fill="#3f007f" id="svg_148" font-weight="normal">discuss  the development</text>
  </a>
  <a id="svg_153" xlink:href="https://newscentre.cityu.edu.hk/media/news/2014/10/13/distinguished-scholars-discuss-development-chinese-culture-and-world">
   <text transform="matrix(0.7194581443798312,0,0,0.9299475333840638,105.31464279819488,-200.77741814427333) " stroke="#000000" xml:space="preserve" text-anchor="middle" font-family="serif" font-size="24" y="837.58871" x="466.70496" stroke-linecap="null" stroke-linejoin="null" stroke-dasharray="null" stroke-width="0" fill="#3f007f" id="svg_147" font-weight="normal">of Chinese culture</text>
  </a>
  <a id="svg_154" xlink:href="https://newscentre.cityu.edu.hk/media/news/2014/10/13/distinguished-scholars-discuss-development-chinese-culture-and-world">
   <text transform="matrix(0.7194581443798312,0,0,0.9299475333840638,105.31464279819488,-200.77741814427333) " stroke="#000000" xml:space="preserve" text-anchor="middle" font-family="serif" font-size="24" y="866.25827" x="444.85624" stroke-linecap="null" stroke-linejoin="null" stroke-dasharray="null" stroke-width="0" fill="#3f007f" id="svg_150" font-weight="normal">and the world</text>
  </a>
 </g>
 <g stroke="null" display="inline">
  <title>圖片</title>
 </g>
 <g stroke="null" display="inline">
  <title>標題</title>
  <text stroke="#000000" transform="matrix(0.5720618058951883,0,0,0.902982237042385,92.77816301702434,2.2094146719687497) " xml:space="preserve" text-anchor="middle" font-family="serif" font-size="24" id="svg_31" y="232.04774" x="32.51896" opacity="0.8" stroke-linecap="null" stroke-linejoin="null" stroke-dasharray="null" stroke-width="0" fill="#7f003f" font-weight="bold"/>
  <a xlink:href="https://www.youtube.com/watch?v=kpVtQTiTo3E&amp;list=PLC6YZ5mMz0SyP8L-WUiwSkSwcla917bdx&amp;t=0s&amp;index=5" id="svg_58"/>
  <a xlink:href="https://www.youtube.com/watch?v=bob28OvT0zY&amp;list=PLC6YZ5mMz0SyP8L-WUiwSkSwcla917bdx&amp;t=0s&amp;index=4" id="svg_71"/>
  <g id="svg_180"/>
  <text fill="#7f003f" stroke-width="0" stroke-dasharray="null" stroke-linejoin="null" stroke-linecap="null" x="-239.6963" y="9.91158" font-size="24" font-family="serif" text-anchor="middle" xml:space="preserve" font-weight="bold" transform="matrix(0.5897947070105359,0,0,1.055018443723524,244.11389409442458,27.61415836512994) " id="svg_20">The Multi-cultural World and</text>
  <a id="svg_62" xlink:href="https://www.youtube.com/watch?v=riASpodoOtM&amp;list=PLC6YZ5mMz0SyP8L-WUiwSkSwcla917bdx&amp;t=0s&amp;index=1"/>
  <a id="svg_64" xlink:href="https://www.youtube.com/watch?v=oDHF0BT93rI&amp;list=PLC6YZ5mMz0SyP8L-WUiwSkSwcla917bdx&amp;t=0s&amp;index=2"/>
  <a id="svg_65" xlink:href="https://www.youtube.com/watch?v=5OSq0tQNmMc&amp;list=PLC6YZ5mMz0SyP8L-WUiwSkSwcla917bdx&amp;t=0s&amp;index=3"/>
  <text fill="#7f003f" stroke-width="0" stroke-dasharray="null" stroke-linejoin="null" stroke-linecap="null" x="-239.2653" y="39.26529" font-size="24" font-family="serif" text-anchor="middle" xml:space="preserve" font-weight="bold" transform="matrix(0.5897947070105359,0,0,1.055018443723524,244.11389409442458,27.61415836512994) " id="svg_30">and Future of Chinese Culture</text>
 </g>
</svg>