<svg width="904.9999999999999" height="640.0000000000001" xmlns="http://www.w3.org/2000/svg" xmlns:svg="http://www.w3.org/2000/svg" xmlns:xlink="http://www.w3.org/1999/xlink">
 <!-- Created with SVG-edit - http://svg-edit.googlecode.com/ -->
 <title>On the Social Dynamics of Philosophical Ideas: Dai Zhen&#x27;s Critique of Neo-Confucianism</title>
 <defs>
  <marker id="se_marker_mid_svg_41" markerUnits="strokeWidth" orient="auto" viewBox="0 0 100 100" markerWidth="5" markerHeight="5" refX="50" refY="50">
   <path stroke="#000000" id="svg_4" d="m100,50l-100,40l30,-40l-30,-40l100,40z" fill="#000000" stroke-width="10"/>
  </marker>
  <marker id="se_marker_mid_svg_44" markerUnits="strokeWidth" orient="auto" viewBox="0 0 100 100" markerWidth="5" markerHeight="5" refX="50" refY="50">
   <path stroke="#000000" id="svg_6" d="m100,50l-100,40l30,-40l-30,-40l100,40z" fill="#000000" stroke-width="10"/>
  </marker>
  <pattern height="100" width="100" y="0" x="0" patternUnits="userSpaceOnUse" id="gridpattern">
   <image height="100" width="100" y="0" x="0" id="svg_7"/>
  </pattern>
 </defs>
 <g display="none">
  <title>圖遮罩</title>
 </g>
 <g display="inline" stroke="null">
  <title>文字</title>
  <image stroke="null" xlink:href="https://c1.staticflickr.com/1/974/40076530720_d1c6dab895_o.png" height="359" width="174.99999" y="233.03647" x="531.52096" id="svg_18"/>
  <image xlink:href="https://c1.staticflickr.com/1/899/39496338990_c379a55138_b.jpg" height="548.78131" width="188" y="21.00774" x="711.60417" id="svg_19"/>
  <image x="7.5" y="491.20335" width="189.00001" height="145.59331" xlink:href="https://c1.staticflickr.com/1/966/41787280011_a188b6f1dd_o.png" id="svg_3"/>
 </g>
 <g stroke="null" display="inline">
  <title>色塊</title>
  <rect opacity="0.3" height="200.99998" width="160" y="10" x="356" stroke-width="0" fill="#ff7f00" id="svg_11" stroke="#000000"/>
  <rect opacity="0.3" height="200.99998" width="160" y="214.74077" x="356" stroke-width="0" fill="#ff7f00" id="svg_14" stroke="#000000"/>
  <rect opacity="0.3" height="200.99998" width="160" y="420.83334" x="356" stroke-width="0" fill="#ff7f00" stroke="#000000" id="svg_1"/>
  <rect stroke="#000000" opacity="0.3" height="613.00003" width="378" y="8.66664" x="521.44446" stroke-width="0" fill="#ff7f00" id="svg_5"/>
  <rect height="49" width="176.99999" y="219.60417" x="528.33336" stroke-linecap="null" stroke-linejoin="null" stroke-dasharray="null" stroke-width="5" fill="#ffffaa" id="svg_10"/>
  <rect opacity="0.3" height="616.94116" width="187.00001" y="13" x="6.99999" stroke-width="0" fill="#ff7f00" id="svg_29" stroke="#000000"/>
  <rect opacity="0.3" height="200.99998" width="150.00001" y="214.50001" x="202" stroke-width="0" fill="#ff7f00" id="svg_32" stroke="#000000"/>
  <rect opacity="0.3" height="200.99998" width="150.00001" y="11.50002" x="202" stroke-width="0" fill="#ff7f00" stroke="#000000" id="svg_33"/>
  <rect opacity="0.3" height="200.99998" width="150.00001" y="418.59715" x="203.23175" stroke-width="0" fill="#ff7f00" stroke="#000000" id="svg_34"/>
 </g>
 <g stroke="null" display="inline">
  <title>圖片</title>
  <image x="10.99999" y="273.26806" width="117" height="140.67858" xlink:href="https://c1.staticflickr.com/1/901/26433596257_ea38fe921e_o.png" id="svg_22"/>
  <image x="10.49999" y="69.08948" width="117" height="140.67858" xlink:href="https://c1.staticflickr.com/1/892/40409863305_fd5bfa9ee4_o.png" id="svg_23"/>
 </g>
 <g stroke="null" display="inline">
  <title>標題</title>
  <image id="svg_21" x="534.33333" y="109.99999" width="140" height="100" xlink:href="https://farm5.staticflickr.com/4273/34036588724_a7a481f2cc_b.jpg"/>
  <image x="367.33333" y="113.00002" width="140" height="100" id="svg_56" xlink:href="https://farm5.staticflickr.com/4246/34036589714_96d0305f38_b.jpg"/>
  <image x="368.99999" y="311.66667" width="140" height="100" id="svg_60" xlink:href="https://farm5.staticflickr.com/4244/34840054006_fb6cb5ebb9_b.jpg"/>
  <text fill="#7f003f" stroke-width="0" stroke-dasharray="null" stroke-linejoin="null" stroke-linecap="null" x="-267.49862" y="5.49255" id="svg_45" font-size="24" font-family="serif" text-anchor="middle" xml:space="preserve" font-weight="normal" transform="matrix(0.6516511796063823,0,0,1.0802504704689162,264.33243497894665,31.44294650424457) ">Flying High in the Sky:</text>
  <text stroke="#000000" transform="matrix(0.5720618058951883,0,0,0.902982237042385,92.77816301702434,2.2094146719687497) " xml:space="preserve" text-anchor="middle" font-family="serif" font-size="24" id="svg_31" y="232.04774" x="32.51896" opacity="0.8" stroke-linecap="null" stroke-linejoin="null" stroke-dasharray="null" stroke-width="0" fill="#7f003f" font-weight="bold"/>
  <text id="svg_63" stroke="#000000" fill="#ff7f00" stroke-width="0" stroke-dasharray="null" stroke-linejoin="null" stroke-linecap="null" x="417.652" y="46.24301" font-size="24" font-family="serif" text-anchor="middle" xml:space="preserve">Part 2-</text>
  <text id="svg_66" fill="#ff7f00" stroke-width="0" stroke-dasharray="null" stroke-linejoin="null" stroke-linecap="null" x="394.71736" y="254.67932" font-size="24" font-family="serif" text-anchor="middle" xml:space="preserve" stroke="#000000">Part 4-</text>
  <a xlink:href="https://www.youtube.com/watch?v=nm52z29X4Jg&amp;list=PLC6YZ5mMz0Swz14HT69AosYcEx_Zov1lX&amp;index=2&amp;t=0s" id="svg_58">
   <path stroke="#000000" fill="#ff7f00" stroke-width="0" stroke-dasharray="null" stroke-linejoin="null" stroke-linecap="null" d="m489.93821,179.34839c-8.26903,0 -14.97223,6.47597 -14.97223,14.46469c0,7.98872 6.7032,14.46469 14.97223,14.46469c8.26903,0 14.97222,-6.47597 14.97222,-14.46469c0,-7.98872 -6.70319,-14.46469 -14.97222,-14.46469zm-2.40541,24.14331l-3.64261,-3.52212l6.37355,-6.1575l-6.37355,-6.15749l3.64261,-3.51914l10.0172,9.67663l-10.0172,9.67962z" marker-mid="url(#se_marker_mid_svg_44)" id="svg_42"/>
  </a>
  <a xlink:href="https://www.youtube.com/watch?v=2w1Va3MameI&amp;list=PLC6YZ5mMz0Swz14HT69AosYcEx_Zov1lX&amp;index=4&amp;t=0s" id="svg_71">
   <path stroke="#000000" fill="#ff7f00" stroke-width="0" stroke-dasharray="null" stroke-linejoin="null" stroke-linecap="null" d="m493.27154,376.43172c-8.26903,0 -14.97223,6.47597 -14.97223,14.46469c0,7.98872 6.7032,14.46469 14.97223,14.46469c8.26903,0 14.97222,-6.47597 14.97222,-14.46469c0,-7.98872 -6.70319,-14.46469 -14.97222,-14.46469zm-2.40541,24.14331l-3.64261,-3.52212l6.37355,-6.1575l-6.37355,-6.15749l3.64261,-3.51914l10.0172,9.67663l-10.0172,9.67962z" marker-mid="url(#se_marker_mid_svg_41)" id="svg_39"/>
  </a>
  <text xml:space="preserve" text-anchor="middle" font-family="serif" font-size="24" id="svg_83" y="542.0428" x="772.10043" stroke-linecap="null" stroke-linejoin="null" stroke-dasharray="null" stroke-width="0" stroke="#000000" fill="#3f3f3f"/>
  <g id="svg_180"/>
  <text font-weight="normal" id="svg_53" transform="matrix(0.8818778569037201,0,0,1.1398858212670042,40.73724380732,-265.3612029678952) " stroke="#000000" xml:space="preserve" text-anchor="middle" font-family="serif" font-size="24" y="300.48533" x="436.60588" stroke-linecap="null" stroke-linejoin="null" stroke-dasharray="null" stroke-width="0" fill="#3f007f">Black Cat</text>
  <text fill="#7f003f" stroke-width="0" stroke-dasharray="null" stroke-linejoin="null" stroke-linecap="null" x="-263.97286" y="37.7152" font-size="24" font-family="serif" text-anchor="middle" xml:space="preserve" font-weight="normal" transform="matrix(0.6339806843263909,0,0,1.1340578458545836,261.4137653879192,24.040111083798937) " id="svg_20">Looking Back and Ahead</text>
  <text transform="matrix(0.8480084538459778,0,0,0.8480084538459778,81.5007168892771,45.10586618911475) " font-style="italic" xml:space="preserve" text-anchor="middle" font-family="serif" font-size="24" y="241.07028" x="630.81212" opacity="0.8" stroke-linecap="null" stroke-linejoin="null" stroke-dasharray="null" stroke-width="0" fill="#7f003f" id="svg_16">Speakers&#x27; Biography</text>
  <text stroke="#000000" transform="matrix(1.017461173326495,0,0,1.017461173326495,667.3362984823092,-78.850054073107) " xml:space="preserve" text-anchor="middle" font-family="serif" font-size="24" y="505.90886" x="-587.59051" opacity="0.8" stroke-linecap="null" stroke-linejoin="null" stroke-dasharray="null" stroke-width="0" fill="#7f003f" font-weight="normal" id="svg_24">伍東揚博士</text>
  <text stroke="#000000" xml:space="preserve" text-anchor="middle" font-family="serif" font-size="24" y="233.04774" x="68.51896" opacity="0.8" stroke-linecap="null" stroke-linejoin="null" stroke-dasharray="null" stroke-width="0" fill="#7f003f" font-weight="normal" id="svg_26">沈宗李教官</text>
  <text stroke="#000000" fill="#ff7f00" stroke-width="0" stroke-dasharray="null" stroke-linejoin="null" stroke-linecap="null" x="248.23585" y="48.76288" font-size="24" font-family="serif" text-anchor="middle" xml:space="preserve" id="svg_35">Part 1-</text>
  <text font-weight="normal" transform="matrix(0.9259733470464687,0,0,1.196882176943758,59.90780475902007,-265.1490435099494) " stroke="#000000" xml:space="preserve" text-anchor="middle" font-family="serif" font-size="24" y="299.60267" x="234.19221" stroke-linecap="null" stroke-linejoin="null" stroke-dasharray="null" stroke-width="0" fill="#3f007f" id="svg_37">Introduction(1)</text>
  <text fill="#ff7f00" stroke-width="0" stroke-dasharray="null" stroke-linejoin="null" stroke-linecap="null" x="255.01413" y="248.88442" font-size="24" font-family="serif" text-anchor="middle" xml:space="preserve" id="svg_38" stroke="#000000">Part 3-</text>
  <text stroke="#000000" fill="#ff7f00" stroke-width="0" stroke-dasharray="null" stroke-linejoin="null" stroke-linecap="null" x="256.01413" y="449.88442" font-size="24" font-family="serif" text-anchor="middle" xml:space="preserve" id="svg_40">Part 5-</text>
  <image x="206.00002" y="112.5" width="140" height="100" xlink:href="https://farm5.staticflickr.com/4223/34036590174_08130d42f4_b.jpg" id="svg_44"/>
  <image x="206.00002" y="314.5" width="140" height="100" xlink:href="https://farm5.staticflickr.com/4219/34840054626_7e88b630ec_b.jpg" id="svg_46"/>
  <image x="209.00002" y="517.49999" width="140" height="100" xlink:href="https://farm5.staticflickr.com/4248/34036588374_d7e461b806_b.jpg" id="svg_47"/>
  <text font-weight="normal" transform="matrix(0.9799490506439283,0,0,1.1416523189610999,-463.10646833641675,-224.92022677787526) " stroke="#000000" xml:space="preserve" text-anchor="middle" font-family="serif" font-size="24" y="621.88099" x="758.8742" stroke-linecap="null" stroke-linejoin="null" stroke-dasharray="null" stroke-width="0" fill="#3f007f" id="svg_48">Innovation</text>
  <text font-weight="normal" xml:space="preserve" text-anchor="middle" font-family="serif" font-size="24" y="288.56816" x="265.87858" stroke-linecap="null" stroke-linejoin="null" stroke-dasharray="null" stroke-width="0" fill="#3f007f" id="svg_49" stroke="#000000">Q&amp;A(1)</text>
  <text font-weight="normal" fill="#3f007f" stroke-width="0" stroke-dasharray="null" stroke-linejoin="null" stroke-linecap="null" x="435.25013" y="102.08038" id="svg_50" font-size="24" font-family="serif" text-anchor="middle" xml:space="preserve" stroke="#000000">Squadron</text>
  <a id="svg_62" xlink:href="https://www.youtube.com/watch?v=xmUi9RJFYQc&amp;list=PLC6YZ5mMz0Swz14HT69AosYcEx_Zov1lX&amp;index=3&amp;t=0s">
   <path stroke="#000000" fill="#ff7f00" stroke-width="0" stroke-dasharray="null" stroke-linejoin="null" stroke-linecap="null" d="m328.24218,177.74777c-8.26903,0 -14.97223,6.47597 -14.97223,14.46469c0,7.98872 6.7032,14.46469 14.97223,14.46469c8.26903,0 14.97222,-6.47597 14.97222,-14.46469c0,-7.98872 -6.70319,-14.46469 -14.97222,-14.46469zm-2.40541,24.14331l-3.64261,-3.52212l6.37355,-6.1575l-6.37355,-6.15749l3.64261,-3.51914l10.0172,9.67663l-10.0172,9.67962z" marker-mid="url(#se_marker_mid_svg_44)" id="svg_36"/>
  </a>
  <a id="svg_64" xlink:href="https://www.youtube.com/watch?v=GQJSpISyTiU&amp;list=PLC6YZ5mMz0Swz14HT69AosYcEx_Zov1lX&amp;index=3&amp;t=0s">
   <path stroke="#000000" fill="#ff7f00" stroke-width="0" stroke-dasharray="null" stroke-linejoin="null" stroke-linecap="null" d="m330.99999,378.5353c-8.26903,0 -14.97223,6.47597 -14.97223,14.46469c0,7.98872 6.7032,14.46469 14.97223,14.46469c8.26903,0 14.97222,-6.47597 14.97222,-14.46469c0,-7.98872 -6.70319,-14.46469 -14.97222,-14.46469zm-2.40541,24.14331l-3.64261,-3.52212l6.37355,-6.1575l-6.37355,-6.15749l3.64261,-3.51914l10.0172,9.67663l-10.0172,9.67962z" marker-mid="url(#se_marker_mid_svg_41)" id="svg_41"/>
  </a>
  <a id="svg_65" xlink:href="https://www.youtube.com/watch?v=Hr8Jnh4pZOo&amp;index=6&amp;list=PLC6YZ5mMz0Swz14HT69AosYcEx_Zov1lX">
   <path stroke="#000000" fill="#ff7f00" stroke-width="0" stroke-dasharray="null" stroke-linejoin="null" stroke-linecap="null" d="m331.99999,582.5353c-8.26903,0 -14.97223,6.47597 -14.97223,14.46469c0,7.98872 6.7032,14.46469 14.97223,14.46469c8.26903,0 14.97222,-6.47597 14.97222,-14.46469c0,-7.98872 -6.70319,-14.46469 -14.97222,-14.46469zm-2.40541,24.14331l-3.64261,-3.52212l6.37355,-6.1575l-6.37355,-6.15749l3.64261,-3.51914l10.0172,9.67663l-10.0172,9.67962z" marker-mid="url(#se_marker_mid_svg_41)" id="svg_43"/>
  </a>
  <text stroke="#000000" transform="matrix(0.6241567079685202,0,0,0.7837953837216517,-29.140354991029607,32.17642246709008) " xml:space="preserve" text-anchor="middle" font-family="serif" font-size="24" id="svg_12" y="280.97501" x="206.49827" stroke-linecap="null" stroke-linejoin="null" stroke-dasharray="null" stroke-width="0" fill="#7f003f" font-weight="normal">Colonel Johnny Shen Chung-li</text>
  <text stroke="#000000" transform="matrix(0.6842079339895458,0,0,0.6842079339895458,173.58405051793363,82.69493762931893) " xml:space="preserve" text-anchor="middle" font-family="serif" font-size="24" id="svg_13" y="547.25818" x="-147.80715" stroke-linecap="null" stroke-linejoin="null" stroke-dasharray="null" stroke-width="0" fill="#7f003f" font-weight="normal">Dr Wu Dong-yang</text>
  <text font-weight="normal" stroke="#000000" transform="matrix(0.9277900417004246,0,0,0.9277900417004246,121.87430697129923,23.34885283828035) " xml:space="preserve" text-anchor="middle" font-family="serif" font-size="24" id="svg_27" y="531.57914" x="174.34412" stroke-linecap="null" stroke-linejoin="null" stroke-dasharray="null" stroke-width="0" fill="#3f007f">and Evolution</text>
  <text id="svg_28" stroke="#000000" fill="#ff7f00" stroke-width="0" stroke-dasharray="null" stroke-linejoin="null" stroke-linecap="null" x="412.07059" y="451.19692" font-size="24" font-family="serif" text-anchor="middle" xml:space="preserve">Part 6-</text>
  <image id="svg_30" x="366.05648" y="516.81249" width="140" height="100" xlink:href="https://farm5.staticflickr.com/4204/34036588114_bb5e3a682d_b.jpg"/>
  <a xlink:href="https://www.youtube.com/watch?v=dcEqP6RF-tg&amp;index=8&amp;list=PLC6YZ5mMz0Swz14HT69AosYcEx_Zov1lX" id="svg_55">
   <path id="svg_52" stroke="#000000" fill="#ff7f00" stroke-width="0" stroke-dasharray="null" stroke-linejoin="null" stroke-linecap="null" d="m654.63367,171.18114c-6.78157,0 -12.27897,6.47597 -12.27897,14.46469c0,7.98872 5.4974,14.46469 12.27897,14.46469c6.78157,0 12.27896,-6.47597 12.27896,-14.46469c0,-7.98872 -5.4974,-14.46469 -12.27896,-14.46469zm-1.97272,24.14331l-2.98736,-3.52212l5.22705,-6.1575l-5.22705,-6.15749l2.98736,-3.51914l8.21527,9.67663l-8.21527,9.67962z" marker-mid="url(#se_marker_mid_svg_41)"/>
  </a>
  <text stroke="#000000" xml:space="preserve" text-anchor="middle" font-family="serif" font-size="24" y="493.7246" x="95.38856" opacity="0.8" stroke-linecap="null" stroke-linejoin="null" stroke-dasharray="null" stroke-width="0" fill="#7f003f" font-weight="normal" id="svg_54">15 October 2015</text>
  <text id="svg_2" font-weight="normal" transform="matrix(0.9259733470464687,0,0,1.196882176943758,59.90780475902007,-265.1490435099494) " stroke="#000000" xml:space="preserve" text-anchor="middle" font-family="serif" font-size="24" y="464.27184" x="406.17912" stroke-linecap="null" stroke-linejoin="null" stroke-dasharray="null" stroke-width="0" fill="#3f007f">Introduction(2)</text>
  <text id="svg_8" font-weight="normal" xml:space="preserve" text-anchor="middle" font-family="serif" font-size="24" y="511.95763" x="367.96573" stroke-linecap="null" stroke-linejoin="null" stroke-dasharray="null" stroke-width="0" fill="#3f007f" transform="matrix(0.9685819788467568,0,0,0.7965307500426411,82.23968471916157,79.58314196282392) " stroke="#000000">Boeing in China</text>
  <text id="svg_9" stroke="#000000" fill="#ff7f00" stroke-width="0" stroke-dasharray="null" stroke-linejoin="null" stroke-linecap="null" x="572.0763" y="45.42789" font-size="24" font-family="serif" text-anchor="middle" xml:space="preserve">Part 7-</text>
  <text id="svg_15" font-weight="normal" transform="matrix(0.8818778569037201,0,0,1.1398858212670042,40.73724380732,-265.3612029678952) " stroke="#000000" xml:space="preserve" text-anchor="middle" font-family="serif" font-size="24" y="299.77024" x="611.71437" stroke-linecap="null" stroke-linejoin="null" stroke-dasharray="null" stroke-width="0" fill="#3f007f">Q&amp;A</text>
  <a xlink:href="https://www.youtube.com/watch?v=nBv7bReMZDA&amp;t=0s&amp;index=7&amp;list=PLC6YZ5mMz0Swz14HT69AosYcEx_Zov1lX" id="svg_51">
   <path id="svg_25" stroke="#000000" fill="#ff7f00" stroke-width="0" stroke-dasharray="null" stroke-linejoin="null" stroke-linecap="null" d="m488.33332,582.86862c-8.26903,0 -14.97223,6.47597 -14.97223,14.46469c0,7.98872 6.7032,14.46469 14.97223,14.46469c8.26903,0 14.97222,-6.47597 14.97222,-14.46469c0,-7.98872 -6.70319,-14.46469 -14.97222,-14.46469zm-2.40541,24.14331l-3.64261,-3.52212l6.37355,-6.1575l-6.37355,-6.15749l3.64261,-3.51914l10.0172,9.67663l-10.0172,9.67962z" marker-mid="url(#se_marker_mid_svg_41)"/>
  </a>
 </g>
</svg>