<svg width="905" height="640.0000000000002" xmlns="http://www.w3.org/2000/svg" xmlns:svg="http://www.w3.org/2000/svg" xmlns:xlink="http://www.w3.org/1999/xlink">
 <!-- Created with SVG-edit - http://svg-edit.googlecode.com/ -->
 <title/>
 <defs>
  <marker refY="50" refX="50" markerHeight="5" markerWidth="5" viewBox="0 0 100 100" orient="auto" markerUnits="strokeWidth" id="se_marker_mid_svg_36">
   <path stroke-width="10" fill="#000000" d="m100,50l-100,40l30,-40l-30,-40l100,40z" id="svg_1" stroke="#000000"/>
  </marker>
  <marker refY="50" refX="50" markerHeight="5" markerWidth="5" viewBox="0 0 100 100" orient="auto" markerUnits="strokeWidth" id="se_marker_mid_svg_41">
   <path stroke-width="10" fill="#000000" d="m100,50l-100,40l30,-40l-30,-40l100,40z" id="svg_4" stroke="#000000"/>
  </marker>
  <marker refY="50" refX="50" markerHeight="5" markerWidth="5" viewBox="0 0 100 100" orient="auto" markerUnits="strokeWidth" id="se_marker_mid_svg_44">
   <path stroke-width="10" fill="#000000" d="m100,50l-100,40l30,-40l-30,-40l100,40z" id="svg_6" stroke="#000000"/>
  </marker>
  <pattern id="gridpattern" patternUnits="userSpaceOnUse" x="0" y="0" width="100" height="100">
   <image id="svg_7" x="0" y="0" width="100" height="100"/>
  </pattern>
 </defs>
 <g display="inline" stroke="null">
  <title>色塊</title>
  <rect id="svg_5" fill="#007fff" stroke-width="0" x="384.55557" y="15.85186" width="160" height="200.99998" opacity="0.3" stroke="#000000"/>
  <rect id="svg_10" fill="#007fff" stroke-width="0" x="220.00001" y="16.85187" width="160" height="201" opacity="0.3" stroke="#000000"/>
  <rect id="svg_11" fill="#007fff" stroke-width="0" x="547.11112" y="15.85188" width="160" height="200.99998" opacity="0.3" stroke="#000000"/>
  <rect id="svg_12" fill="#007fff" stroke-width="0" x="383.55556" y="222.40743" width="160" height="200.99998" opacity="0.3" stroke="#000000"/>
  <rect id="svg_13" fill="#007fff" stroke-width="0" x="219.00001" y="223.40742" width="160" height="199.00002" opacity="0.3" stroke="#000000"/>
  <rect id="svg_14" fill="#007fff" stroke-width="0" x="547.11112" y="222.40744" width="160" height="200.99998" opacity="0.3" stroke="#000000"/>
  <rect id="svg_15" fill="#007fff" stroke-width="0" x="384.95869" y="427.52957" width="322.23003" height="197.43339" opacity="0.3" stroke="#000000"/>
  <rect id="svg_16" fill="#007fff" stroke-width="0" x="219.8881" y="427.60942" width="160" height="197.77622" opacity="0.3" stroke="#000000"/>
  <rect fill="#007fff" stroke-width="0" x="16.94447" y="16.85182" width="199.11107" height="611.11114" opacity="0.3" id="svg_8" stroke="#000000"/>
  <rect fill="#007fff" stroke-width="0" x="712.05555" y="14.8519" width="177.77774" height="609.86572" opacity="0.3" id="svg_9" stroke="#000000"/>
  <rect fill="#00007f" stroke-width="0" stroke-dasharray="null" stroke-linejoin="null" stroke-linecap="null" x="18.19167" y="150.54468" width="94.06393" height="27" id="svg_21" stroke-opacity="0" stroke="#000000"/>
  <rect fill="#00007f" stroke-width="0" stroke-dasharray="null" stroke-linejoin="null" stroke-linecap="null" x="732.58459" y="16.83396" width="156.58224" height="29.28736" id="svg_22" stroke-opacity="0" stroke="#000000"/>
  <rect fill="#00007f" stroke-width="0" stroke-dasharray="null" stroke-linejoin="null" stroke-linecap="null" x="389.32991" y="430.22516" width="168.08593" height="34.625" id="svg_29" stroke-opacity="0" stroke="#000000"/>
  <rect stroke="#000000" id="svg_20" fill="#00007f" stroke-width="0" stroke-dasharray="null" stroke-linejoin="null" stroke-linecap="null" x="18.34304" y="491.25" width="123.81393" height="32" stroke-opacity="0"/>
 </g>
 <g display="inline" stroke="null">
  <title>圖片</title>
  <g stroke="null" display="inline">
  <title>Speaker's photo</title>
  <image xlink:href="https://c1.staticflickr.com/5/4564/24537218678_67f85f7728_o.png" id="svg_17" height="80.25" width="66.25" y="63.75" x="27.75"/></g>

  <g stroke="null" display="inline">
  <title>Welcoming's photo</title>
  <image xlink:href="https://farm5.staticflickr.com/4237/35096690936_91c08eddf8_b.jpg" id="svg_30" height="91" width="166" y="531.75" x="32.24998"/></g>

  <g stroke="null" display="inline">
  <title>Part 5's photo</title>
  <image x="380.99998" y="310.99998" width="166.00001" height="103.00002" id="svg_19" xlink:href="https://farm5.staticflickr.com/4250/34291634724_0d8d615c03_b.jpg"/></g>

  <g stroke="null" display="inline">
  <title>Part 2's photo</title>
  <image x="381" y="111.99999" width="166.99998" height="101.00001" id="svg_23" xlink:href="https://farm5.staticflickr.com/4214/34971864182_ffea215eed_b.jpg"/></g>

  <g stroke="null" display="inline">
  <title>Part 3's photo</title>
  <image x="545" y="112.99997" width="166" height="102.00003" id="svg_52" xlink:href="https://farm5.staticflickr.com/4236/35096690556_a9841c42e2_b.jpg"/></g>

  <g stroke="null" display="inline">
  <title>Part 7's photo</title>
  <image x="221.99999" y="501.00001" width="155.00001" height="113.99999" id="svg_60" xlink:href="https://farm5.staticflickr.com/4266/35096690376_5f34f8403f_b.jpg"/></g>

  <g stroke="null" display="inline">
  <title>Part 4's photo</title>
  <image x="215.99999" y="310.99998" width="166" height="103.00002" id="svg_67" xlink:href="https://farm5.staticflickr.com/4224/34291633904_546db706be_b.jpg"/></g>

  <g stroke="null" display="inline">
  <title>Part 1's photo</title>
  <image x="224.99999" y="104.99999" width="150.00002" height="115.00001" id="svg_68" xlink:href="https://farm5.staticflickr.com/4228/35136528985_868952a8c2_b.jpg"/></g>

  <g stroke="null" display="inline">
  <title>Part 6's photo</title>
  <image x="549" y="298" width="156" height="126" id="svg_72" xlink:href="https://farm5.staticflickr.com/4239/35136528235_1deba0ae06_b.jpg"/></g>

  <g stroke="null" display="inline">
  <title>photo</title>
  <image x="721.25" y="270.00001" width="162.75" height="124.49999" id="svg_3" xlink:href="https://farm5.staticflickr.com/4199/34971867402_f2f526e878_b.jpg"/></g>

  <g stroke="null" display="inline">
  <title>photo</title>
  <image x="707.5" y="392.5" width="191.5" height="108.25" id="svg_18" xlink:href="https://farm5.staticflickr.com/4286/35136527515_e6c69cd941_b.jpg"/></g>

  <g stroke="null" display="inline">
  <title>photo</title>
  <image x="714.99999" y="507.5" width="175.25001" height="107" id="svg_47" xlink:href="https://farm5.staticflickr.com/4206/35136527345_d040d3cd69_b.jpg"/></g>
 </g>
 <g display="inline" stroke="null">
  <title>標題</title>

  <g stroke="null" display="inline">
  <title>Productivity, Supply Chains,</title>
  <text transform="matrix(0.6413677834356073,0,0,0.8540961420422499,267.7984557579039,34.21208999470399) " font-weight="normal" xml:space="preserve" text-anchor="middle" font-family="Cursive" font-size="24" id="svg_45" y="8.90181" x="-232.36671" stroke-linecap="null" stroke-linejoin="null" stroke-dasharray="null" stroke-width="0" fill="#0000ff" opacity="0.85">Productivity, Supply Chains,</text></g>

  <g stroke="null" display="inline">
  <title>Part 7</title>
  <text transform="matrix(0.609769993918035,0,0,0.6935418354646715,75.73673921668296,152.87455221035512) " xml:space="preserve" text-anchor="middle" font-family="serif" font-size="24" id="svg_35" y="463.31339" x="286.6883" stroke-linecap="null" stroke-linejoin="null" stroke-dasharray="null" stroke-width="0" fill="#0000ff" stroke="#000000">Part 7-</text></g>

  <g stroke="null" display="inline">
  <title>Speaker&#x27;s</title>
  <text transform="matrix(0.7794364802057269,0,0,0.695275135440545,186.11138159800643,16.38151666155967) " font-style="italic" fill="#ffffff" stroke-width="0" stroke-dasharray="null" stroke-linejoin="null" stroke-linecap="null" opacity="0.8" x="761.00541" y="27.19231" id="svg_25" font-size="24" font-family="serif" text-anchor="middle" xml:space="preserve" stroke="null">Speaker&#x27;s</text></g>

  <g stroke="null" display="inline">
  <title>Abstract</title>
  <text fill="#ffffff" stroke-width="0" stroke-dasharray="null" stroke-linejoin="null" stroke-linecap="null" opacity="0.8" x="70.19718" y="150.76715" id="svg_27" font-size="24" font-family="serif" text-anchor="middle" xml:space="preserve" transform="matrix(0.8712908761122634,0,0,0.9110834388312584,-3.0226665376568,32.56104403430815) " font-style="italic" stroke="null">Abstract</text></g>

  <g stroke="null" display="inline">
  <title>Further Reading</title>
  <text fill="#ffffff" stroke-width="0" stroke-dasharray="null" stroke-linejoin="null" stroke-linecap="null" opacity="0.8" x="261.95321" y="449.57181" id="svg_28" font-size="24" font-family="serif" text-anchor="middle" xml:space="preserve" transform="translate(388.8465576171875,441.1921691894531) scale(1.0136302709579468,0.8249392509460449) translate(-388.8465576171875,-441.1921691894531) translate(888.8558959960938,436.2577209472656) scale(0.9734276533126831,1) translate(-888.8558959960938,-436.2577209472656) translate(889.87255859375,504.8636779785156) scale(1) translate(-889.87255859375,-504.8636779785156) translate(889.914306640625,505.77667236328125) scale(1.0139044523239136,1.3043327331542969) translate(-889.914306640625,-505.77667236328125) translate(888.4232177734375,504.6651611328125) scale(1) translate(-888.4232177734375,-504.6651611328125) translate(888.3218994140625,504.255126953125) scale(0.9399330019950867,0.7570223808288574) translate(-888.3218994140625,-504.255126953125) translate(888.0772705078125,504.109619140625) scale(0.8550723195075989,0.9137715697288513) translate(-888.0772705078125,-504.109619140625) matrix(1.0937924253894378,0,0,1.0937924253894378,71.03591400341189,-39.500754610857044) " font-style="italic" stroke="null">Further Reading</text></g>

  <g stroke="null" display="inline">
  <title>11 December 2013</title>
  <text fill="#00007f" stroke-width="0" stroke-dasharray="null" stroke-linejoin="null" stroke-linecap="null" opacity="0.3" x="218.34095" y="215.38041" id="svg_31" font-size="24" font-family="serif" text-anchor="middle" xml:space="preserve" transform="matrix(0.5857271633034329,0,0,0.6382665820471755,27.456493976746007,0.7292248941508603) " stroke="#000000">11 December 2013</text></g>

  <g stroke="null" display="inline">
  <title>Part 1</title>
  <text transform="matrix(0.7305554633832716,0,0,0.8110197287355854,223.36734356354177,176.71162813193553) " xml:space="preserve" text-anchor="middle" font-family="serif" font-size="24" y="-150.65811" x="36.36119" stroke-linecap="null" stroke-linejoin="null" stroke-dasharray="null" stroke-width="0" fill="#0000ff" id="svg_61" stroke="#000000">Part 1-</text></g>

  <g stroke="null" display="inline">
  <title>Part 2</title>
  <text transform="matrix(0.7872287770402646,0,0,0.7759209695629294,203.2913874502615,150.72769781875894) " xml:space="preserve" text-anchor="middle" font-family="serif" font-size="24" y="-122.73319" x="271.05714" stroke-linecap="null" stroke-linejoin="null" stroke-dasharray="null" stroke-width="0" fill="#0000ff" id="svg_62" stroke="#000000">Part 2-</text></g>

  <g stroke="null" display="inline">
  <title>Part 3</title>
  <text transform="matrix(0.7636192767141586,0,0,0.7775436689633187,183.93447688377614,151.9204298244679) " xml:space="preserve" text-anchor="middle" font-family="serif" font-size="24" y="-125.15806" x="518.69875" stroke-linecap="null" stroke-linejoin="null" stroke-dasharray="null" stroke-width="0" fill="#0000ff" id="svg_63" stroke="#000000">Part 3-</text></g>

  <g stroke="null" display="inline">
  <title>Part 4</title>
  <text transform="matrix(0.7157971486298934,0,0,0.778078167435417,64.85227616117606,63.574058877045296) " xml:space="preserve" text-anchor="middle" font-family="serif" font-size="24" y="258.94375" x="256.11728" stroke-linecap="null" stroke-linejoin="null" stroke-dasharray="null" stroke-width="0" fill="#0000ff" id="svg_64" stroke="#000000">Part 4-</text></g>

  <g stroke="null" display="inline">
  <title>Part 5</title>
  <text transform="matrix(0.6881500762552548,0,0,0.7390331375617057,121.31766668473308,70.57425047265747) " xml:space="preserve" text-anchor="middle" font-family="serif" font-size="24" y="264.74404" x="425.60595" stroke-linecap="null" stroke-linejoin="null" stroke-dasharray="null" stroke-width="0" fill="#0000ff" id="svg_65" stroke="#000000">Part 5-</text></g>

  <g stroke="null" display="inline">
  <title>Part 6</title>
  <text transform="matrix(0.7434477411507255,0,0,0.7275458010431545,141.40516465499556,74.37319371586456) " xml:space="preserve" text-anchor="middle" font-family="serif" font-size="24" y="265.95257" x="596.38356" stroke-linecap="null" stroke-linejoin="null" stroke-dasharray="null" stroke-width="0" fill="#0000ff" id="svg_66" stroke="#000000">Part 6-</text></g>

  <g stroke="null" display="inline">
  <title>Introducing to Themes</title>
  <text fill="#00007f" stroke-width="0" stroke-dasharray="null" stroke-linejoin="null" stroke-linecap="null" x="106.99548" y="-81.41025" id="svg_69" font-size="24" font-family="serif" text-anchor="middle" xml:space="preserve" transform="matrix(0.638372259769888,0,0,0.896267173652979,229.270009163117,161.39792859801335) " stroke="#000000" opacity="0.45">Introducing to Themes</text></g>

  <g stroke="null" display="inline">
  <title>Basic network configurations</title>
  <text fill="#00007f" stroke-width="0" stroke-dasharray="null" stroke-linejoin="null" stroke-linecap="null" x="200.51471" y="432.47793" font-size="24" font-family="serif" text-anchor="middle" xml:space="preserve" transform="matrix(0.4892927543556168,0,0,1.0285920531514008,203.93163715011934,-154.9109027448502) " id="svg_80" font-weight="normal" stroke="#000000" opacity="0.45">Basic network configurations</text></g>

  <g stroke="null" display="inline">
  <title>Conflict examples with</title>
  <text fill="#00007f" stroke-width="0" stroke-dasharray="null" stroke-linejoin="null" stroke-linecap="null" x="826.50915" y="313.85772" font-size="24" font-family="serif" text-anchor="middle" xml:space="preserve" transform="matrix(0.6217564509176767,0,0,0.7371322255006839,117.53065181201634,-151.25527717139212) " id="svg_82" stroke="#000000" opacity="0.45">Conflict examples with</text></g>

  <g stroke="null" display="inline">
  <title>Basic of trade credit</title>
  <text fill="#00007f" stroke-width="0" stroke-dasharray="null" stroke-linejoin="null" stroke-linecap="null" x="369.84116" y="-75.2699" font-size="24" font-family="serif" text-anchor="middle" xml:space="preserve" transform="matrix(0.7111696166242202,0,0,0.7036110275484345,203.88247903842307,133.37374841354654) " id="svg_87" stroke="#000000" opacity="0.45">Basic of trade credit</text></g>

  <g stroke="null" display="inline">
  <title>Q&amp;A</title>
  <text fill="#00007f" stroke-width="0" stroke-dasharray="null" stroke-linejoin="null" stroke-linecap="null" x="252.47888" y="521.92406" font-size="24" font-family="serif" text-anchor="middle" xml:space="preserve" transform="matrix(0.7495880227640769,0,0,0.7882282311044689,107.16927295673983,81.75421366655797) " id="svg_56" stroke="#000000" opacity="0.45">Q&amp;A</text></g>

  <g stroke="null" display="inline">
  <title>Click to watch Part 1's video</title>
  <a id="svg_26" xlink:href="https://youtu.be/Wn0YEBTEOPk" stroke="null">
   <path id="svg_44" marker-mid="url(#se_marker_mid_svg_44)" d="m239.27154,183.68171c-8.26903,0 -14.97223,6.47597 -14.97223,14.46469c0,7.98872 6.7032,14.46469 14.97223,14.46469c8.26903,0 14.97222,-6.47597 14.97222,-14.46469c0,-7.98872 -6.70319,-14.46469 -14.97222,-14.46469zm-2.40541,24.14332l-3.64261,-3.52213l6.37355,-6.15749l-6.37355,-6.1575l3.64261,-3.51914l10.0172,9.67664l-10.0172,9.67962z" stroke-linecap="null" stroke-linejoin="null" stroke-dasharray="null" stroke-width="0" fill="#0000ff" stroke="#000000"/>
  </a></g>

  <g stroke="null" display="inline">
  <title>Click to watch Part 2's video</title>
  <a id="svg_57" xlink:href="https://youtu.be/ak2mwdzEoXE" stroke="null">
   <path id="svg_43" marker-mid="url(#se_marker_mid_svg_44)" d="m402.77154,184.68171c-8.26903,0 -14.97223,6.47597 -14.97223,14.46469c0,7.98872 6.7032,14.46469 14.97223,14.46469c8.26903,0 14.97222,-6.47597 14.97222,-14.46469c0,-7.98872 -6.70319,-14.46469 -14.97222,-14.46469zm-2.40541,24.14332l-3.64261,-3.52213l6.37355,-6.15749l-6.37355,-6.1575l3.64261,-3.51914l10.0172,9.67664l-10.0172,9.67962z" stroke-linecap="null" stroke-linejoin="null" stroke-dasharray="null" stroke-width="0" fill="#0000ff" stroke="#000000"/>
  </a></g>

  <g stroke="null" display="inline">
  <title>Click to watch Part 3's video</title>
  <a id="svg_58" xlink:href="https://youtu.be/wLXtURR-Ghc" stroke="null">
   <path id="svg_42" marker-mid="url(#se_marker_mid_svg_44)" d="m564.27154,185.68172c-8.26903,0 -14.97223,6.47597 -14.97223,14.46469c0,7.98872 6.7032,14.46469 14.97223,14.46469c8.26903,0 14.97222,-6.47597 14.97222,-14.46469c0,-7.98872 -6.70319,-14.46469 -14.97222,-14.46469zm-2.40541,24.14331l-3.64261,-3.52212l6.37355,-6.1575l-6.37355,-6.15749l3.64261,-3.51914l10.0172,9.67663l-10.0172,9.67962z" stroke-linecap="null" stroke-linejoin="null" stroke-dasharray="null" stroke-width="0" fill="#0000ff" stroke="#000000"/>
  </a></g>

  <g stroke="null" display="inline">
  <title>Click to watch Part 4's video</title>
  <a id="svg_59" xlink:href="https://youtu.be/MrMdvqBriQ4" stroke="null">
   <path id="svg_41" marker-mid="url(#se_marker_mid_svg_41)" d="m235.77154,383.93071c-8.26903,0 -14.97223,6.47597 -14.97223,14.46469c0,7.98872 6.7032,14.46469 14.97223,14.46469c8.26903,0 14.97222,-6.47597 14.97222,-14.46469c0,-7.98872 -6.70319,-14.46469 -14.97222,-14.46469zm-2.40541,24.14332l-3.64261,-3.52213l6.37355,-6.15749l-6.37355,-6.1575l3.64261,-3.51914l10.0172,9.67664l-10.0172,9.67962z" stroke-linecap="null" stroke-linejoin="null" stroke-dasharray="null" stroke-width="0" fill="#0000ff" stroke="#000000"/>
  </a></g>

  <g stroke="null" display="inline">
  <title>Click to watch Part 5's video</title>
  <a id="svg_70" xlink:href="https://youtu.be/a03eZNXYSJc" stroke="null">
   <path id="svg_40" marker-mid="url(#se_marker_mid_svg_41)" d="m398.52154,384.43071c-8.26903,0 -14.97223,6.47597 -14.97223,14.46469c0,7.98872 6.7032,14.46469 14.97223,14.46469c8.26903,0 14.97222,-6.47597 14.97222,-14.46469c0,-7.98872 -6.70319,-14.46469 -14.97222,-14.46469zm-2.40541,24.14332c-1.2142,-1.17404 -2.42841,-2.34809 -3.64261,-3.52213l6.37355,-6.15749l-6.37355,-6.1575l3.64261,-3.51914l10.0172,9.67664l-10.0172,9.67962z" stroke-linecap="null" stroke-linejoin="null" stroke-dasharray="null" stroke-width="0" fill="#0000ff" stroke="#000000"/>
  </a></g>

  <g stroke="null" display="inline">
  <title>Click to watch Part 6's video</title>
  <a id="svg_71" xlink:href="https://youtu.be/6dz34foONzk" stroke="null">
   <path id="svg_39" marker-mid="url(#se_marker_mid_svg_41)" d="m562.02154,383.84839c-8.26903,0 -14.97223,6.47597 -14.97223,14.46469c0,7.98872 6.7032,14.46469 14.97223,14.46469c8.26903,0 14.97222,-6.47597 14.97222,-14.46469c0,-7.98872 -6.70319,-14.46469 -14.97222,-14.46469zm-2.40541,24.14331l-3.64261,-3.52212l6.37355,-6.1575l-6.37355,-6.15749l3.64261,-3.51914l10.0172,9.67663l-10.0172,9.67962z" stroke-linecap="null" stroke-linejoin="null" stroke-dasharray="null" stroke-width="0" fill="#0000ff" stroke="#000000"/>
  </a></g>

  <g stroke="null" display="inline">
  <title>Click to watch Part 7's video</title>
  <a id="svg_74" xlink:href="https://youtu.be/e3uGnEVcPEs" stroke="null">
   <path marker-mid="url(#se_marker_mid_svg_36)" id="svg_36" d="m235.18821,582.00807c-8.26903,0 -14.97222,6.47597 -14.97222,14.46469c0,7.98872 6.7032,14.46469 14.97222,14.46469c8.26903,0 14.97222,-6.47597 14.97222,-14.46469c0,-7.98872 -6.7032,-14.46469 -14.97222,-14.46469zm-2.4054,24.14331l-3.64262,-3.52212l6.37355,-6.1575l-6.37355,-6.1575l3.64262,-3.51914l10.01719,9.67663l-10.01719,9.67962l0,0.00001z" stroke-linecap="null" stroke-linejoin="null" stroke-dasharray="null" stroke-width="0" fill="#0000ff" stroke="#000000"/>
  </a></g>

  <text fill="#3f3f3f" stroke-width="0" stroke-dasharray="null" stroke-linejoin="null" stroke-linecap="null" x="772.10043" y="542.0428" id="svg_83" font-size="24" font-family="serif" text-anchor="middle" xml:space="preserve" stroke="#000000"/>
  <g id="svg_180" stroke="null"/>
  <g stroke="null" display="inline">
  <title>Empirical data analysis</title>
  <text fill="#00007f" stroke-width="0" stroke-dasharray="null" stroke-linejoin="null" stroke-linecap="null" x="491.04932" y="411.31111" font-size="24" font-family="serif" text-anchor="middle" xml:space="preserve" transform="matrix(0.5212589392334769,0,0,0.8298090358136087,212.61422289280964,-53.22053431080926) " id="svg_34" font-weight="normal" stroke="#000000" opacity="0.45">Empirical data analysis</text></g>

  <g stroke="null" display="inline">
  <title>Conclusion</title>
  <text fill="#00007f" stroke-width="0" stroke-dasharray="null" stroke-linejoin="null" stroke-linecap="null" x="740.48442" y="410.65545" font-size="24" font-family="serif" text-anchor="middle" xml:space="preserve" transform="matrix(0.6755978774179718,0,0,0.7805970569391227,127.76958115344259,-30.824682034673952) " id="svg_46" stroke="#000000" opacity="0.45">Conclusion</text></g>

  <g stroke="null" display="inline">
  <title>Biography</title>
  <text fill="#ffffff" stroke-width="0" stroke-dasharray="null" stroke-linejoin="null" stroke-linecap="null" x="1931.21214" y="-81.37274" id="svg_49" font-size="24" font-family="serif" text-anchor="middle" xml:space="preserve" font-style="italic" transform="matrix(0.6249070089802868,0,0,0.7807652444704803,-355.71239282565773,99.59022595731953) " opacity="0.8" stroke="null">Biography</text></g>

  <g stroke="null" display="inline">
  <title>Prof. John R. Birge</title>
  <text id="svg_73" fill="#00007f" stroke-width="0" stroke-dasharray="null" stroke-linejoin="null" stroke-linecap="null" opacity="0.3" x="194.91581" y="199.37109" font-size="24" font-family="serif" text-anchor="middle" xml:space="preserve" transform="matrix(0.5940510163294741,0,0,0.7473493226510103,38.99168621290571,-28.328564195744136) " stroke="#000000">Prof. John R. Birge</text></g>

  <g stroke="null" display="inline">
  <title>interactions</title>
  <text fill="#00007f" stroke-width="0" stroke-dasharray="null" stroke-linejoin="null" stroke-linecap="null" x="358.32458" y="-59.11271" font-size="24" font-family="serif" text-anchor="middle" xml:space="preserve" transform="matrix(0.7285419674339865,0,0,0.6966240740546494,209.78077046380565,138.84925962174583) " stroke="#000000" id="svg_48" opacity="0.45">interactions</text></g>

  <g stroke="null" display="inline">
  <title>and the Structure of Firms</title>
  <text id="svg_38" transform="matrix(0.6919083423194706,0,0,0.9410749657444188,290.5693829475783,26.133300323955186) " font-weight="normal" xml:space="preserve" text-anchor="middle" font-family="Cursive" font-size="24" y="36.11618" x="-247.20445" stroke-linecap="null" stroke-linejoin="null" stroke-dasharray="null" stroke-width="0" fill="#0000ff" opacity="0.85">and the Structure of Firms</text></g>

  <g stroke="null" display="inline">
  <title>multiple creditors</title>
  <text fill="#00007f" stroke-width="0" stroke-dasharray="null" stroke-linejoin="null" stroke-linecap="null" x="836.87139" y="342.74233" font-size="24" font-family="serif" text-anchor="middle" xml:space="preserve" transform="matrix(0.645984281570595,0,0,0.6710502600875263,93.89338664940387,-131.04941292150446) " stroke="#000000" opacity="0.45" id="svg_51">multiple creditors</text></g>

  <g stroke="null" display="inline">
  <title>Welcoming</title>
  <text id="svg_24" fill="#ffffff" stroke-width="0" stroke-dasharray="null" stroke-linejoin="null" stroke-linecap="null" opacity="0.8" x="-194.23086" y="519.71356" font-size="24" font-family="serif" text-anchor="middle" xml:space="preserve" transform="translate(388.8465576171875,441.1921691894531) scale(1.0136302709579468,0.8249392509460449) translate(-388.8465576171875,-441.1921691894531) translate(888.8558959960938,436.2577209472656) scale(0.9734276533126831,1) translate(-888.8558959960938,-436.2577209472656) translate(889.87255859375,504.8636779785156) scale(1) translate(-889.87255859375,-504.8636779785156) translate(889.914306640625,505.77667236328125) scale(1.0139044523239136,1.3043327331542969) translate(-889.914306640625,-505.77667236328125) translate(888.4232177734375,504.6651611328125) scale(1) translate(-888.4232177734375,-504.6651611328125) translate(888.3218994140625,504.255126953125) scale(0.9399330019950867,0.7570223808288574) translate(-888.3218994140625,-504.255126953125) translate(888.0772705078125,504.109619140625) scale(0.8550723195075989,0.9137715697288513) translate(-888.0772705078125,-504.109619140625) matrix(1.0937924253894378,0,0,1.0937924253894378,71.03591400341189,-39.500754610857044) " font-style="italic" stroke="null">Welcoming</text></g>

  <g stroke="null" display="inline">
  <title>Click to watch Welcoming's video</title>
  <a xlink:href="https://youtu.be/PFaAxktDovg" id="svg_33">
   <path id="svg_32" marker-mid="url(#se_marker_mid_svg_36)" d="m57.49999,596.28532c-8.26903,0 -14.97222,6.47597 -14.97222,14.46469c0,7.98872 6.7032,14.46469 14.97222,14.46469c8.26903,0 14.97222,-6.47597 14.97222,-14.46469c0,-7.98872 -6.7032,-14.46469 -14.97222,-14.46469zm-2.4054,24.14331l-3.64262,-3.52212l6.37355,-6.1575l-6.37355,-6.1575l3.64262,-3.51914l10.01719,9.67663l-10.01719,9.67962l0,0.00001z" stroke-linecap="null" stroke-linejoin="null" stroke-dasharray="null" stroke-width="0" fill="#ff007f" stroke="#000000"/>
  </a></g>
 </g>
  <g display="inline" stroke="null">
  <title>文字</title>

  <g stroke="null" display="inline">
  <title>Productivity, Supply Chains, 
and the Structure of Firms 
Success in today’s global 
economy depends critically 
on the performance of complex 
supply chains interconnecting 
firms across industries, regions, 
and cultures. Despite their 
prevalence and importance, 
the overall productivity of a 
supply chain and the value of 
a firm’s supply chain 
connections are not well 
understood. This talk will 
discuss possible reasons for 
the difficulties in understanding 
productivity of these networks 
and will describe models to 
explain the networks’ function 
and performance. In particular, 
the talk will describe models of 
how supply chains enable firms 
to share risk and increase 
efficiency and will present 
empirical evidence of the 
relative value of suppliers and 
customers for firm success.
</title>
  <image xlink:href="https://c1.staticflickr.com/5/4557/38409694171_5148770eaa_b.jpg" id="svg_37" height="316.00001" width="194.24999" y="177.00001" x="6.50002"/></g>

  <g stroke="null" display="inline">
  <title>John R. Birge received his M.S. and 
Ph.D. degrees from Stanford University 
in Operations Research. Professor 
Birge’s work considers the design and 
analysis of practical systems in which 
some outcomes are not completely 
known before decisions must be made. 
He focuses on methods for making 
decisions that must be implemented 
sequentially over time. His research 
concerns the modeling of these systems 
to obtain robust decisions that are not 
just optimal for a single criterion but that 
respond favorably to whatever outcomes 
occur. In particular, he has developed 
methods for optimal asset and liability 
allocations over time, efficient periodic 
scheduling of workers and machines, 
productive power and energy distribution, 
and effective allocation of public services. 
</title>
  <image xlink:href="https://c1.staticflickr.com/5/4560/38354984516_1ef0210ce5_o.png" id="svg_54" height="211.25002" width="175.50001" y="53.24999" x="720.24999"/></g>

  <g stroke="null" display="inline">
  <title>With C.H. Rosa, "Incorporating investment uncertainty into greenhouse policy models," The Energy Journal (1996).
"Option methods for incorporating risk into linear planning models," Manufacturing and Services Operations Management (2000).
With C. Supatgiat and R.Q. Zhang, "Equilibrium value in a competitive power exchange market," Computational Economics (2001).
With J.W. Yen, "A Stochastic Programming Approach to the Airline Crew Scheduling Problem," Transportation Science (2006).
With S. Yang, "A Model for Tax Advantages of Portfolios with Many Assets," Journal of Banking &amp; Finance(2007).</title>
  <image x="391.49999" y="473.50001" width="309.50003" height="140.25" id="svg_75" xlink:href="https://c1.staticflickr.com/5/4542/38380299912_1f20701658_b.jpg"/></g>
 </g>
</svg>