<svg width="905.0000000000001" height="640.0000000000002" xmlns="http://www.w3.org/2000/svg" xmlns:svg="http://www.w3.org/2000/svg" xmlns:xlink="http://www.w3.org/1999/xlink">
 <!-- Created with SVG-edit - http://svg-edit.googlecode.com/ -->
 <title/>
 <defs>
  <marker id="se_marker_mid_svg_41" markerUnits="strokeWidth" orient="auto" viewBox="0 0 100 100" markerWidth="5" markerHeight="5" refX="50" refY="50">
   <path stroke="#000000" id="svg_4" d="m100,50l-100,40l30,-40l-30,-40l100,40z" fill="#000000" stroke-width="10"/>
  </marker>
  <marker id="se_marker_mid_svg_44" markerUnits="strokeWidth" orient="auto" viewBox="0 0 100 100" markerWidth="5" markerHeight="5" refX="50" refY="50">
   <path stroke="#000000" id="svg_6" d="m100,50l-100,40l30,-40l-30,-40l100,40z" fill="#000000" stroke-width="10"/>
  </marker>
  <pattern height="100" width="100" y="0" x="0" patternUnits="userSpaceOnUse" id="gridpattern">
   <image height="100" width="100" y="0" x="0" id="svg_7"/>
  </pattern>
 </defs>
 <g stroke="null" display="inline">
  <title>色塊</title>
  <rect stroke="#000000" id="svg_8" opacity="0.3" height="611.11114" width="205.11108" y="16.85182" x="12.27779" stroke-width="0" fill="#d4ffaa"/>
  <rect stroke="#000000" id="svg_9" opacity="0.3" height="608.61574" width="177.77774" y="18.85192" x="713.05555" stroke-width="0" fill="#d4ffaa"/>
  <rect stroke="#000000" id="svg_21" height="28" width="97.14727" y="140.62801" x="14.2187" stroke-linecap="null" stroke-linejoin="null" stroke-dasharray="null" stroke-width="0" fill="#7f7f00"/>
  <rect stroke="#000000" stroke-opacity="0" id="svg_22" height="29.28736" width="153.33225" y="32.50063" x="736.83458" stroke-linecap="null" stroke-linejoin="null" stroke-dasharray="null" stroke-width="0" fill="#7f7f00"/>
  <rect opacity="0.3" height="142.95012" width="231.72461" y="15.67707" x="223.97423" stroke-width="0" fill="#aaffd4" id="svg_27" stroke="#000000"/>
  <rect opacity="0.3" height="142.95012" width="231.72461" y="171.9875" x="223.97423" stroke-width="0" fill="#aaffd4" stroke="#000000" id="svg_29"/>
  <rect opacity="0.3" height="142.95012" width="231.72461" y="330.37516" x="223.97423" stroke-width="0" fill="#aaffd4" stroke="#000000" id="svg_32"/>
  <rect opacity="0.3" height="142.95012" width="231.72461" y="484.56019" x="223.97423" stroke-width="0" fill="#aaffd4" stroke="#000000" id="svg_33"/>
  <rect opacity="0.3" height="142.95012" width="231.72461" y="15.63844" x="465.92184" stroke-width="0" fill="#aaffd4" stroke="#000000" id="svg_35"/>
  <rect opacity="0.3" height="142.95012" width="231.72461" y="173.94887" x="465.92184" stroke-width="0" fill="#aaffd4" stroke="#000000" id="svg_36"/>
  <rect opacity="0.3" height="142.95012" width="231.72461" y="330.33653" x="465.92184" stroke-width="0" fill="#aaffd4" stroke="#000000" id="svg_37"/>
  <rect opacity="0.3" height="142.95012" width="231.72461" y="484.52157" x="465.92184" stroke-width="0" fill="#aaffd4" stroke="#000000" id="svg_38"/>
 </g>
 <g stroke="null" display="inline">
  <title>圖片</title>
  <g stroke="null" display="inline">
  <title>Welcoming's photo</title>
  <image x="66.25" y="512.74999" width="122.99999" height="86.00001" id="svg_10" xlink:href="https://farm5.staticflickr.com/4262/34291888364_633137009c_b.jpg"/></g>

  <g stroke="null" display="inline">
  <title>Speaker's photo</title>
  <image stroke="null" x="25" y="54.99999" width="85" height="83.00001" id="svg_15" xlink:href="https://c1.staticflickr.com/1/815/26004820587_97c4e4f80e_o.png"/></g>

  <g stroke="null" display="inline">
  <title>Part 2's photo</title>
  <image stroke="null" x="504.00001" y="44.5" width="167.24997" height="114.5" id="svg_16" xlink:href="https://farm5.staticflickr.com/4201/35096934686_6e5e9f3d1e_b.jpg"/></g>

  <g stroke="null" display="inline">
  <title>Part 3's photo</title>
  <image stroke="null" x="248.75" y="200" width="177.25001" height="113" id="svg_55" xlink:href="https://farm5.staticflickr.com/4248/35005851451_3831d43b04_b.jpg"/></g>

  <g stroke="null" display="inline">
  <title>Part 4's photo</title>
  <image stroke="null" x="495.5" y="202.25" width="185.5" height="111.5" id="svg_56" xlink:href="https://farm5.staticflickr.com/4289/34326686523_f162fe1111_b.jpg"/></g>

  <g stroke="null" display="inline">
  <title>Part 5's photo</title>
  <image stroke="null" x="254.75" y="355" width="166.49999" height="114.25" id="svg_60" xlink:href="https://farm5.staticflickr.com/4271/34326686233_c1b263523c_b.jpg"/></g>

  <g stroke="null" display="inline">
  <title>photo</title>
  <image stroke="null" x="493.50001" y="476.00003" width="187.75" height="159.49998" id="svg_68" xlink:href="https://farm5.staticflickr.com/4224/35005850901_6293eaca04_b.jpg"/></g>

  <g stroke="null" display="inline">
  <title>Part 7's photo</title>
  <image stroke="null" x="248" y="513.75" width="189.49999" height="109.5" id="svg_72" xlink:href="https://farm5.staticflickr.com/4241/34326685193_bb726ecd1a_b.jpg"/></g>

  <g stroke="null" display="inline">
  <title>Part 6's photo</title>
  <image stroke="null" x="488" y="357.00003" width="206" height="112.99997" id="svg_73" xlink:href="https://farm5.staticflickr.com/4263/35136821875_77473a454d_b.jpg"/></g>

  <g stroke="null" display="inline">
  <title>Part 1's photo</title>
  <image id="svg_11" stroke="null" xlink:href="https://farm5.staticflickr.com/4207/35005848791_d81a1a48c6_b.jpg" height="130.75001" width="173.99999" y="37.12499" x="250.49999"/></g>
 </g>
 <g stroke="null" display="inline">
  <title>標題</title>
  <g stroke="null" display="inline">
  <title>Global Economy: Post the</title>
  <text opacity="0.85" fill="#007f3f" stroke-width="0" stroke-dasharray="null" stroke-linejoin="null" stroke-linecap="null" x="-165.88413" y="12.18789" id="svg_45" font-size="24" font-family="Sans-serif" text-anchor="middle" xml:space="preserve" font-weight="normal" transform="matrix(0.5963206024321491,0,0,0.6393584373084245,212.98180345613562,28.04098327730444) ">Global Economy: Post the</text></g>

  <g stroke="null" display="inline">
  <title>Prof. Myron S. Scholes</title>
  <text stroke="#000000" transform="matrix(0.43729448041441005,0,0,0.7177000558413004,41.7001213040666,-52.962583714562626) " xml:space="preserve" text-anchor="middle" font-family="Sans-serif" font-size="24" id="svg_31" y="239.64143" x="268.46338" opacity="0.75" stroke-linecap="null" stroke-linejoin="null" stroke-dasharray="null" stroke-width="0" fill="#007f3f">Prof. Myron S. Scholes</text></g>

  <g stroke="null" display="inline">
  <title>Part 1</title>
  <text stroke="#000000" id="svg_61" fill="#007f3f" stroke-width="0" stroke-dasharray="null" stroke-linejoin="null" stroke-linecap="null" x="39.58141" y="-160.95698" font-size="24" font-family="serif" text-anchor="middle" xml:space="preserve" transform="matrix(0.7995959228173974,0,0,0.9501134821925559,235.25658163032992,190.79447582180097) ">Part 1-</text></g>

  <g stroke="null" display="inline">
  <title>Part 2</title>
  <text stroke="#000000" id="svg_62" fill="#007f3f" stroke-width="0" stroke-dasharray="null" stroke-linejoin="null" stroke-linecap="null" x="485.29822" y="-136.00987" font-size="24" font-family="serif" text-anchor="middle" xml:space="preserve" transform="matrix(0.8206129406877435,0,0,0.9121270546373903,109.46165677415325,161.23867289595466) ">Part 2-</text></g>

  <g stroke="null" display="inline">
  <title>Part 3</title>
  <text stroke="#000000" id="svg_63" fill="#007f3f" stroke-width="0" stroke-dasharray="null" stroke-linejoin="null" stroke-linecap="null" x="227.9154" y="-25.10099" font-size="24" font-family="serif" text-anchor="middle" xml:space="preserve" transform="matrix(0.7536293846534048,0,0,0.8118808256285068,97.79727896227146,212.86834649706213) ">Part 3-</text></g>

  <g stroke="null" display="inline">
  <title>Part 4</title>
  <text stroke="#000000" id="svg_64" fill="#007f3f" stroke-width="0" stroke-dasharray="null" stroke-linejoin="null" stroke-linecap="null" x="587.10058" y="223.15515" font-size="24" font-family="serif" text-anchor="middle" xml:space="preserve" transform="matrix(0.8155764474595649,0,0,0.8692756911937582,31.394125600054537,2.2472517602353292) ">Part 4-</text></g>

  <g stroke="null" display="inline">
  <title>Part 5</title>
  <text stroke="#000000" id="svg_65" fill="#007f3f" stroke-width="0" stroke-dasharray="null" stroke-linejoin="null" stroke-linecap="null" x="646.00975" y="243.21969" font-size="24" font-family="serif" text-anchor="middle" xml:space="preserve" transform="matrix(0.833874642045514,0,0,0.8499000090945095,-262.4786317974365,146.409614888987) ">Part 5-</text></g>

  <g stroke="null" display="inline">
  <title>Part 6</title>
  <text stroke="#000000" id="svg_66" fill="#007f3f" stroke-width="0" stroke-dasharray="null" stroke-linejoin="null" stroke-linecap="null" x="531.89948" y="379.38789" font-size="24" font-family="serif" text-anchor="middle" xml:space="preserve" transform="matrix(0.7781951416588104,0,0,0.8154510063715986,100.16919879503612,43.60513109336148) ">Part 6-</text></g>

  <g stroke="null" display="inline">
  <title>Welcoming</title>
  <text opacity="0.7" stroke="#000000" transform="matrix(0.9719523767918598,0,0,0.8142403950505556,-87.49556212460101,577.4616239569937) " xml:space="preserve" text-anchor="middle" font-family="serif" font-size="24" id="svg_69" y="-92.09781" x="162.43451" stroke-linecap="null" stroke-linejoin="null" stroke-dasharray="null" stroke-width="0" fill="#007f3f">Welcoming</text></g>

  <g stroke="null" display="inline">
  <title>Normal Recovery</title>
  <text opacity="0.7" font-weight="normal" id="svg_80" transform="matrix(0.6842366089574642,0,0,0.7982828402800058,168.63040419779318,-135.072127742881) " xml:space="preserve" text-anchor="middle" font-family="serif" font-size="24" y="410.71805" x="278.21156" stroke-linecap="null" stroke-linejoin="null" stroke-dasharray="null" stroke-width="0" fill="#007f3f">Normal Recovery</text></g>

  <g stroke="null" display="inline">
  <title>Topic Discussion</title>
  <text opacity="0.7" id="svg_87" transform="matrix(0.7382579396758303,0,0,0.8395901388457496,139.40842954939492,107.03837005046552) " xml:space="preserve" text-anchor="middle" font-family="serif" font-size="24" y="-85.22594" x="304.18394" stroke-linecap="null" stroke-linejoin="null" stroke-dasharray="null" stroke-width="0" fill="#007f3f">Topic Discussion</text></g>

  <g stroke="null" display="inline">
  <title>Click to watch Welcoming's video</title>
  <a stroke="null" xlink:href="https://youtu.be/7wMYQgGbtTg" id="svg_26">
   <path fill="#007f00" stroke-width="0" stroke-dasharray="null" stroke-linejoin="null" stroke-linecap="null" d="m55.05394,577.6044c-8.26903,0 -14.97223,6.47597 -14.97223,14.46469c0,7.98872 6.7032,14.46469 14.97223,14.46469c8.26903,0 14.97222,-6.47597 14.97222,-14.46469c0,-7.98872 -6.70319,-14.46469 -14.97222,-14.46469zm-2.40541,24.14332l-3.64261,-3.52213l6.37355,-6.15749l-6.37355,-6.1575l3.64261,-3.51914l10.0172,9.67664l-10.0172,9.67962z" marker-mid="url(#se_marker_mid_svg_44)" id="svg_44" stroke="#000000"/>
  </a></g>

  <g stroke="null" display="inline">
  <title>Click to watch Part 1's video</title>
  <a stroke="null" xlink:href="https://youtu.be/oo7hqC6DaXQ" id="svg_57">
   <path stroke="#000000" fill="#007f00" stroke-width="0" stroke-dasharray="null" stroke-linejoin="null" stroke-linecap="null" d="m262.47335,130.21625c-8.26903,0 -14.97223,6.47597 -14.97223,14.46469c0,7.98872 6.7032,14.46469 14.97223,14.46469c8.26903,0 14.97222,-6.47597 14.97222,-14.46469c0,-7.98872 -6.70319,-14.46469 -14.97222,-14.46469zm-2.40541,24.14332l-3.64261,-3.52213l6.37355,-6.15749l-6.37355,-6.1575l3.64261,-3.51914l10.0172,9.67664l-10.0172,9.67962z" marker-mid="url(#se_marker_mid_svg_44)" id="svg_43"/>
  </a></g>

  <g stroke="null" display="inline">
  <title>Click to watch Part 3's video</title>
  <a stroke="null" xlink:href="https://youtu.be/rtqJr_CxJbM" id="svg_58">
   <path stroke="#000000" fill="#007f00" stroke-width="0" stroke-dasharray="null" stroke-linejoin="null" stroke-linecap="null" d="m267.47335,282.96978c-8.26903,0 -14.97223,6.47597 -14.97223,14.46469c0,7.98872 6.7032,14.46469 14.97223,14.46469c8.26903,0 14.97222,-6.47597 14.97222,-14.46469c0,-7.98872 -6.70319,-14.46469 -14.97222,-14.46469zm-2.40541,24.14331l-3.64261,-3.52212l6.37355,-6.1575l-6.37355,-6.15749l3.64261,-3.51914l10.0172,9.67663l-10.0172,9.67962z" marker-mid="url(#se_marker_mid_svg_44)" id="svg_42"/>
  </a></g>

  <g stroke="null" display="inline">
  <title>Click to watch Part 6's video</title>
  <a stroke="null" xlink:href="https://youtu.be/Us36uEx7Q2c" id="svg_59">
   <path fill="#007f00" stroke-width="0" stroke-dasharray="null" stroke-linejoin="null" stroke-linecap="null" d="m522.55391,441.32774c-8.26903,0 -14.97223,6.47597 -14.97223,14.46469c0,7.98872 6.7032,14.46469 14.97223,14.46469c8.26903,0 14.97222,-6.47597 14.97222,-14.46469c0,-7.98872 -6.70319,-14.46469 -14.97222,-14.46469zm-2.40541,24.14332l-3.64261,-3.52213l6.37355,-6.15749l-6.37355,-6.1575l3.64261,-3.51914l10.0172,9.67664l-10.0172,9.67962z" marker-mid="url(#se_marker_mid_svg_41)" id="svg_41" stroke="#000000"/>
  </a></g>

  <g stroke="null" display="inline">
  <title>Click to watch Part 2's video</title>
  <a stroke="null" xlink:href="https://youtu.be/x4p-OGHg-3o" id="svg_70">
   <path stroke="#000000" fill="#007f00" stroke-width="0" stroke-dasharray="null" stroke-linejoin="null" stroke-linecap="null" d="m517.30391,129.21979c-8.26903,0 -14.97223,6.47597 -14.97223,14.46469c0,7.98872 6.7032,14.46469 14.97223,14.46469c8.26903,0 14.97222,-6.47597 14.97222,-14.46469c0,-7.98872 -6.70319,-14.46469 -14.97222,-14.46469zm-2.40541,24.14332c-1.2142,-1.17404 -2.42841,-2.34809 -3.64261,-3.52213l6.37355,-6.15749l-6.37355,-6.1575l3.64261,-3.51914l10.0172,9.67664l-10.0172,9.67962z" marker-mid="url(#se_marker_mid_svg_41)" id="svg_40"/>
  </a></g>

  <g stroke="null" display="inline">
  <title>Click to watch Part 7's video</title>
  <a stroke="null" xlink:href="https://youtu.be/LIgeQOGlwRQ" id="svg_71">
   <path fill="#007f00" stroke-width="0" stroke-dasharray="null" stroke-linejoin="null" stroke-linecap="null" d="m273.72331,593.82778c-8.26903,0 -14.97223,6.47597 -14.97223,14.46469c0,7.98872 6.7032,14.46469 14.97223,14.46469c8.26903,0 14.97222,-6.47597 14.97222,-14.46469c0,-7.98872 -6.70319,-14.46469 -14.97222,-14.46469zm-2.40541,24.14331l-3.64261,-3.52212l6.37355,-6.1575l-6.37355,-6.15749l3.64261,-3.51914l10.0172,9.67663l-10.0172,9.67962z" marker-mid="url(#se_marker_mid_svg_41)" id="svg_39" stroke="#000000"/>
  </a></g>


  <text stroke="#000000" xml:space="preserve" text-anchor="middle" font-family="serif" font-size="24" id="svg_83" y="542.0428" x="772.10043" stroke-linecap="null" stroke-linejoin="null" stroke-dasharray="null" stroke-width="0" fill="#3f3f3f"/>
  <g stroke="null" id="svg_180"/>

  <g stroke="null" display="inline">
  <title>Economic Trends Ahead</title>
  <text opacity="0.7" font-weight="normal" id="svg_34" transform="matrix(0.5925909575353377,0,0,0.828496215672359,345.03421419030076,-194.71849207299798) " xml:space="preserve" text-anchor="middle" font-family="serif" font-size="24" y="472.4567" x="461.46783" stroke-linecap="null" stroke-linejoin="null" stroke-dasharray="null" stroke-width="0" fill="#007f3f">Economic Trends Ahead</text></g>

  <g stroke="null" display="inline">
  <title>Abstract</title>
  <text stroke="null" font-style="italic" transform="translate(20.63262939453125,203.2355194091797) scale(1,0.8903100490570068) translate(-20.63262939453125,-203.2355194091797) translate(554.5355224609375,435.7587890625) scale(1.1204942464828491,1.086641550064087) translate(-554.5355224609375,-435.7587890625) translate(554.274658203125,435.3764953613281) scale(1.0869497060775757,1.1274291276931763) translate(-554.274658203125,-435.3764953613281) translate(554.9812622070312,435.6423034667969) scale(0.7644617557525635,0.9113956093788147) translate(-554.9812622070312,-435.6423034667969) translate(388.8465576171875,441.1921691894531) scale(1.0136302709579468,0.8249392509460449) translate(-388.8465576171875,-441.1921691894531) translate(888.8558959960938,436.2577209472656) scale(0.9734276533126831,1) translate(-888.8558959960938,-436.2577209472656) translate(889.87255859375,504.8636779785156) scale(1) translate(-889.87255859375,-504.8636779785156) translate(889.914306640625,505.77667236328125) scale(1.0139044523239136,1.3043327331542969) translate(-889.914306640625,-505.77667236328125) translate(888.4232177734375,504.6651611328125) scale(1) translate(-888.4232177734375,-504.6651611328125) translate(888.3218994140625,504.255126953125) scale(0.9399330019950867,0.7570223808288574) translate(-888.3218994140625,-504.255126953125) translate(888.0772705078125,504.109619140625) scale(0.8550723195075989,0.9137715697288513) translate(-888.0772705078125,-504.109619140625) matrix(1.0937924253894378,0,0,1.0937924253894378,71.03591400341189,-39.500754610857044) " xml:space="preserve" text-anchor="middle" font-family="serif" font-size="24" y="121.51481" x="-250.40194" opacity="0.8" stroke-linecap="null" stroke-linejoin="null" stroke-dasharray="null" stroke-width="0" fill="#ffffff" id="svg_86">Abstract</text></g>

  <g stroke="null" display="inline">
  <title>Ahead for Global Economy</title>
  <text id="svg_101" opacity="0.7" transform="matrix(0.5339293208117593,0,0,0.9747154155483658,298.69522650254066,-317.0065053029516) " xml:space="preserve" text-anchor="middle" font-family="serif" font-size="24" y="366.33357" x="598.84487" stroke-linecap="null" stroke-linejoin="null" stroke-dasharray="null" stroke-width="0" fill="#007f3f">Ahead for Global Economy</text></g>

  <g stroke="null" display="inline">
  <title>Speaker&#x27;s</title>
  <text id="svg_25" stroke="null" xml:space="preserve" text-anchor="middle" font-family="Serif" font-size="24" y="44.1314" x="768.07993" opacity="0.8" stroke-linecap="null" stroke-linejoin="null" stroke-dasharray="null" stroke-width="0" fill="#ffffff" font-style="italic" transform="matrix(0.7654359459071594,0,0,0.780903756213452,185.99148030065902,17.17344999395137) ">Speaker&#x27;s</text></g>

  <g stroke="null" display="inline">
  <title>Biography</title>
  <text id="svg_49" stroke="null" opacity="0.8" transform="matrix(0.691117621951656,0,0,0.7029529482525998,-494.0569225098478,106.45765283859485) " font-style="italic" xml:space="preserve" text-anchor="middle" font-family="serif" font-size="24" y="-77.86021" x="1943.11364" stroke-linecap="null" stroke-linejoin="null" stroke-dasharray="null" stroke-width="0" fill="#ffffff">Biography</text></g>

  <g stroke="null" display="inline">
  <title>Q&amp;A</title>
  <text opacity="0.7" font-weight="normal" transform="matrix(0.8495850452406232,0,0,0.7240146452470382,-238.10493668829764,29.619643178003333) " xml:space="preserve" text-anchor="middle" font-family="serif" font-size="24" y="656.45938" x="691.95035" stroke-linecap="null" stroke-linejoin="null" stroke-dasharray="null" stroke-width="0" fill="#007f3f" id="svg_30">Q&amp;A</text></g>

  <g stroke="null" display="inline">
  <title>Global Financial Crisis</title>
  <text opacity="0.85" fill="#007f3f" stroke-width="0" stroke-dasharray="null" stroke-linejoin="null" stroke-linecap="null" x="-162.78888" y="38.21778" font-size="24" font-family="Sans-serif" text-anchor="middle" xml:space="preserve" font-weight="normal" transform="matrix(0.5774778835583249,0,0,0.6589872987222726,211.00308668110273,25.211213699198787) " id="svg_3">Global Financial Crisis</text></g>

  <g stroke="null" display="inline">
  <title>Part 7</title>
  <text stroke="#000000" fill="#007f3f" stroke-width="0" stroke-dasharray="null" stroke-linejoin="null" stroke-linecap="null" x="234.72665" y="239.88515" font-size="24" font-family="serif" text-anchor="middle" xml:space="preserve" transform="matrix(0.7170613450669835,0,0,0.8082869328955223,108.24072689054046,313.4891891344529) " id="svg_14">Part 7-</text></g>

  <g stroke="null" display="inline">
  <title>Three Fallacies of Credit</title>
  <text opacity="0.7" font-weight="normal" transform="matrix(0.5737909238391967,0,0,0.7401350410816865,254.63225350520975,-60.29167380086065) " xml:space="preserve" text-anchor="middle" font-family="serif" font-size="24" y="551.99715" x="215.22184" stroke-linecap="null" stroke-linejoin="null" stroke-dasharray="null" stroke-width="0" fill="#007f3f" id="svg_52">Three Fallacies of Credit</text></g>

  <g stroke="null" display="inline">
  <title>International Consequences</title>
  <text style="cursor: move;" id="svg_18" opacity="0.7" font-weight="normal" transform="matrix(0.5579898762922757,0,0,0.8619886066874752,312.5456817861658,-175.2642542225757) " xml:space="preserve" text-anchor="middle" font-family="serif" font-size="24" y="610.27761" x="552.36532" stroke-linecap="null" stroke-linejoin="null" stroke-dasharray="null" stroke-width="0" fill="#007f3f">International Consequences</text></g>

  <g stroke="null" display="inline">
  <title>click to watch Part 4's video</title>
  <a xlink:href="https://youtu.be/NdhPsV26ebM" id="svg_23">
   <path stroke="#000000" fill="#007f00" stroke-width="0" stroke-dasharray="null" stroke-linejoin="null" stroke-linecap="null" d="m520.05393,284.74237c-8.26903,0 -14.97223,6.47597 -14.97223,14.46469c0,7.98872 6.7032,14.46469 14.97223,14.46469c8.26903,0 14.97222,-6.47597 14.97222,-14.46469c0,-7.98872 -6.70319,-14.46469 -14.97222,-14.46469zm-2.40541,24.14332c-1.2142,-1.17404 -2.42841,-2.34809 -3.64261,-3.52213l6.37355,-6.15749l-6.37355,-6.1575l3.64261,-3.51914l10.0172,9.67664l-10.0172,9.67962z" marker-mid="url(#se_marker_mid_svg_41)" id="svg_47"/>
  </a></g>

  <g stroke="null" display="inline">
  <title>click to watch Part 5's video</title>
  <a xlink:href="https://youtu.be/5H0tuPjNlDc" id="svg_24">
   <path stroke="#000000" fill="#007f00" stroke-width="0" stroke-dasharray="null" stroke-linejoin="null" stroke-linecap="null" d="m271.22335,439.74236c-8.26903,0 -14.97223,6.47597 -14.97223,14.46469c0,7.98872 6.7032,14.46469 14.97223,14.46469c8.26903,0 14.97222,-6.47597 14.97222,-14.46469c0,-7.98872 -6.70319,-14.46469 -14.97222,-14.46469zm-2.40541,24.14331l-3.64261,-3.52212l6.37355,-6.1575l-6.37355,-6.15749l3.64261,-3.51914l10.0172,9.67663l-10.0172,9.67962z" marker-mid="url(#se_marker_mid_svg_44)" id="svg_46"/>
  </a></g>

  <g stroke="null" display="inline">
  <title>13 November 2013</title>
  <text id="svg_2" stroke="#000000" transform="matrix(0.43729448041441005,0,0,0.7177000558413004,41.7001213040666,-52.962583714562626) " xml:space="preserve" text-anchor="middle" font-family="Sans-serif" font-size="24" y="261.96341" x="270.5406" opacity="0.75" stroke-linecap="null" stroke-linejoin="null" stroke-dasharray="null" stroke-width="0" fill="#007f3f">13 November 2013</text></g>
 </g>
  <g stroke="null" display="inline">
  <title>文字</title>
  <g stroke="null" display="inline">
  <title>The themes of the last decade were (1) WTO for China which stimulated a growth boom, (2) U.S. 9/11 which resulted in war and fiscal/monetary stimulus that lead to excesses, lax regulations, easy money that stimulated false growth and asset bubbles and crisis, and (3) Euro created consumption/asset inflation boom in the periphery of Europe. All of these will slow or reverse this decade. Instead, the U.S. will grow because of (a) insourcing through technology advances that will make the U.S. competitive, and (b) through becoming more energy self-sufficient through new sources of energy and the use of technology. In addition, the internationalization of the RMB will create new opportunities for China. We will discuss these themes and whether the global recession is ending or whether the debt-deleveraging overhang from the 2008 crisis will slow growth during this decade.
</title>
  <image stroke="null" x="42" y="158" width="137.00001" height="326" id="svg_1" xlink:href="https://c1.staticflickr.com/5/4775/40877394461_61dba0a3e3_o.png"/></g>

  <g stroke="null" display="inline">
  <title>1997 Nobel Laureate in Economic Sciences
Frank E. Buck Professor of Finance, Emeritus
Stanford University
Professor Myron S. Scholes is the Frank E. Buck Professor of Finance, Emeritus, at the Stanford University Graduate School of Business. He has been Emeritus since 1996, and was called back to active duty in 2010. He is Chairman of the Board of Economic Advisors of Stamos Capital Management. He is the former Chairman of Platinum Grove Asset Management (retired at end of 2009), which he co-founded in 1999.
 
Professor Scholes is widely known for his seminal work in options pricing, capital market equilibrium, tax policies and the financial services industry. He has published widely in academic journals. He is the co-originator of the Black-Scholes options pricing model, which is the basis of the pricing and risk-management technology that is used to value and to manage the risk of options contained in instruments around the world. For his work on “a new theory to value derivatives”, he was awarded the Nobel Prize in Economic Sciences in 1997.
</title>
  <image x="718" y="103" width="169" height="502" id="svg_5" xlink:href="https://c1.staticflickr.com/5/4786/40836184132_4cde85a101_o.png"/></g>
 </g>
</svg>